%TF.GenerationSoftware,KiCad,Pcbnew,(6.0.11)*%
%TF.CreationDate,2025-04-20T17:45:05+02:00*%
%TF.ProjectId,burstcart,62757273-7463-4617-9274-2e6b69636164,1.0*%
%TF.SameCoordinates,Original*%
%TF.FileFunction,Soldermask,Top*%
%TF.FilePolarity,Negative*%
%FSLAX46Y46*%
G04 Gerber Fmt 4.6, Leading zero omitted, Abs format (unit mm)*
G04 Created by KiCad (PCBNEW (6.0.11)) date 2025-04-20 17:45:05*
%MOMM*%
%LPD*%
G01*
G04 APERTURE LIST*
G04 Aperture macros list*
%AMRoundRect*
0 Rectangle with rounded corners*
0 $1 Rounding radius*
0 $2 $3 $4 $5 $6 $7 $8 $9 X,Y pos of 4 corners*
0 Add a 4 corners polygon primitive as box body*
4,1,4,$2,$3,$4,$5,$6,$7,$8,$9,$2,$3,0*
0 Add four circle primitives for the rounded corners*
1,1,$1+$1,$2,$3*
1,1,$1+$1,$4,$5*
1,1,$1+$1,$6,$7*
1,1,$1+$1,$8,$9*
0 Add four rect primitives between the rounded corners*
20,1,$1+$1,$2,$3,$4,$5,0*
20,1,$1+$1,$4,$5,$6,$7,0*
20,1,$1+$1,$6,$7,$8,$9,0*
20,1,$1+$1,$8,$9,$2,$3,0*%
%AMFreePoly0*
4,1,22,0.550000,-0.750000,0.000000,-0.750000,0.000000,-0.745033,-0.079941,-0.743568,-0.215256,-0.701293,-0.333266,-0.622738,-0.424486,-0.514219,-0.481581,-0.384460,-0.499164,-0.250000,-0.500000,-0.250000,-0.500000,0.250000,-0.499164,0.250000,-0.499963,0.256109,-0.478152,0.396186,-0.417904,0.524511,-0.324060,0.630769,-0.204165,0.706417,-0.067858,0.745374,0.000000,0.744959,0.000000,0.750000,
0.550000,0.750000,0.550000,-0.750000,0.550000,-0.750000,$1*%
%AMFreePoly1*
4,1,20,0.000000,0.744959,0.073905,0.744508,0.209726,0.703889,0.328688,0.626782,0.421226,0.519385,0.479903,0.390333,0.500000,0.250000,0.500000,-0.250000,0.499851,-0.262216,0.476331,-0.402017,0.414519,-0.529596,0.319384,-0.634700,0.198574,-0.708877,0.061801,-0.746166,0.000000,-0.745033,0.000000,-0.750000,-0.550000,-0.750000,-0.550000,0.750000,0.000000,0.750000,0.000000,0.744959,
0.000000,0.744959,$1*%
G04 Aperture macros list end*
%ADD10C,1.600000*%
%ADD11R,1.700000X1.700000*%
%ADD12O,1.700000X1.700000*%
%ADD13C,2.100000*%
%ADD14C,2.500000*%
%ADD15R,1.600000X1.600000*%
%ADD16O,1.600000X1.600000*%
%ADD17R,1.500000X1.000000*%
%ADD18C,5.000000*%
%ADD19RoundRect,0.163300X-0.337500X-4.512500X0.337500X-4.512500X0.337500X4.512500X-0.337500X4.512500X0*%
%ADD20FreePoly0,180.000000*%
%ADD21R,1.000000X1.500000*%
%ADD22FreePoly1,180.000000*%
G04 APERTURE END LIST*
D10*
%TO.C,C3*%
X127762000Y-75184000D03*
X122762000Y-75184000D03*
%TD*%
D11*
%TO.C,J3*%
X147066000Y-55626000D03*
D12*
X149606000Y-55626000D03*
X147066000Y-58166000D03*
X149606000Y-58166000D03*
X147066000Y-60706000D03*
X149606000Y-60706000D03*
X147066000Y-63246000D03*
X149606000Y-63246000D03*
X147066000Y-65786000D03*
X149606000Y-65786000D03*
%TD*%
D13*
%TO.C,J1*%
X127976000Y-53294000D03*
X125476000Y-53594000D03*
X132976000Y-53294000D03*
X135476000Y-53594000D03*
D14*
X122976000Y-63294000D03*
X125476000Y-65794000D03*
X130476000Y-63294000D03*
X135476000Y-65794000D03*
X137976000Y-63294000D03*
X130476000Y-68294000D03*
%TD*%
D15*
%TO.C,U1*%
X158375000Y-93965000D03*
D16*
X158375000Y-96505000D03*
X158375000Y-99045000D03*
X158375000Y-101585000D03*
X158375000Y-104125000D03*
X158375000Y-106665000D03*
X158375000Y-109205000D03*
X158375000Y-111745000D03*
X158375000Y-114285000D03*
X158375000Y-116825000D03*
X158375000Y-119365000D03*
X158375000Y-121905000D03*
X158375000Y-124445000D03*
X158375000Y-126985000D03*
X173615000Y-126985000D03*
X173615000Y-124445000D03*
X173615000Y-121905000D03*
X173615000Y-119365000D03*
X173615000Y-116825000D03*
X173615000Y-114285000D03*
X173615000Y-111745000D03*
X173615000Y-109205000D03*
X173615000Y-106665000D03*
X173615000Y-104125000D03*
X173615000Y-101585000D03*
X173615000Y-99045000D03*
X173615000Y-96505000D03*
X173615000Y-93965000D03*
%TD*%
D10*
%TO.C,C4*%
X155194000Y-98512000D03*
X155194000Y-93512000D03*
%TD*%
%TO.C,C5*%
X147574000Y-84288000D03*
X147574000Y-79288000D03*
%TD*%
D15*
%TO.C,U5*%
X165872000Y-79238000D03*
D16*
X168412000Y-79238000D03*
X170952000Y-79238000D03*
X173492000Y-79238000D03*
X173492000Y-71618000D03*
X170952000Y-71618000D03*
X168412000Y-71618000D03*
X165872000Y-71618000D03*
%TD*%
D17*
%TO.C,JP2*%
X160274000Y-79390000D03*
X160274000Y-78090000D03*
%TD*%
D15*
%TO.C,U2*%
X155692000Y-90160000D03*
D16*
X158232000Y-90160000D03*
X160772000Y-90160000D03*
X163312000Y-90160000D03*
X165852000Y-90160000D03*
X168392000Y-90160000D03*
X170932000Y-90160000D03*
X173472000Y-90160000D03*
X173472000Y-82540000D03*
X170932000Y-82540000D03*
X168392000Y-82540000D03*
X165852000Y-82540000D03*
X163312000Y-82540000D03*
X160772000Y-82540000D03*
X158232000Y-82540000D03*
X155692000Y-82540000D03*
%TD*%
D18*
%TO.C,U$1*%
X148253100Y-94259600D03*
D19*
X124253100Y-137759600D03*
X126253100Y-137759600D03*
X128253100Y-137759600D03*
X130253100Y-137759600D03*
X132253100Y-137759600D03*
X134253100Y-137759600D03*
X136253100Y-137759600D03*
X138253100Y-137759600D03*
X140253100Y-137759600D03*
X142253100Y-137759600D03*
X144253100Y-137759600D03*
X146253100Y-137759600D03*
X148253100Y-137759600D03*
X150253100Y-137759600D03*
X152253100Y-137759600D03*
X154253100Y-137759600D03*
X156253100Y-137759600D03*
X158253100Y-137759600D03*
X160253100Y-137759600D03*
X162253100Y-137759600D03*
X164253100Y-137759600D03*
X166253100Y-137759600D03*
X168253100Y-137759600D03*
X170253100Y-137759600D03*
X172253100Y-137759600D03*
%TD*%
D11*
%TO.C,J4*%
X153411000Y-72385000D03*
D12*
X153411000Y-74925000D03*
X150871000Y-72385000D03*
X150871000Y-74925000D03*
X148331000Y-72385000D03*
X148331000Y-74925000D03*
X145791000Y-72385000D03*
X145791000Y-74925000D03*
X143251000Y-72385000D03*
X143251000Y-74925000D03*
%TD*%
D15*
%TO.C,U4*%
X152146000Y-129032000D03*
D16*
X152146000Y-126492000D03*
X152146000Y-123952000D03*
X152146000Y-121412000D03*
X152146000Y-118872000D03*
X152146000Y-116332000D03*
X152146000Y-113792000D03*
X152146000Y-111252000D03*
X152146000Y-108712000D03*
X152146000Y-106172000D03*
X152146000Y-103632000D03*
X152146000Y-101092000D03*
X144526000Y-101092000D03*
X144526000Y-103632000D03*
X144526000Y-106172000D03*
X144526000Y-108712000D03*
X144526000Y-111252000D03*
X144526000Y-113792000D03*
X144526000Y-116332000D03*
X144526000Y-118872000D03*
X144526000Y-121412000D03*
X144526000Y-123952000D03*
X144526000Y-126492000D03*
X144526000Y-129032000D03*
%TD*%
D20*
%TO.C,JP1*%
X149382000Y-87122000D03*
D21*
X148082000Y-87122000D03*
D22*
X146782000Y-87122000D03*
%TD*%
D10*
%TO.C,C2*%
X152146000Y-84328000D03*
X152146000Y-79328000D03*
%TD*%
D15*
%TO.C,U3*%
X123000000Y-78740000D03*
D16*
X123000000Y-81280000D03*
X123000000Y-83820000D03*
X123000000Y-86360000D03*
X123000000Y-88900000D03*
X123000000Y-91440000D03*
X123000000Y-93980000D03*
X123000000Y-96520000D03*
X123000000Y-99060000D03*
X123000000Y-101600000D03*
X123000000Y-104140000D03*
X123000000Y-106680000D03*
X123000000Y-109220000D03*
X123000000Y-111760000D03*
X123000000Y-114300000D03*
X123000000Y-116840000D03*
X123000000Y-119380000D03*
X123000000Y-121920000D03*
X123000000Y-124460000D03*
X123000000Y-127000000D03*
X138240000Y-127000000D03*
X138240000Y-124460000D03*
X138240000Y-121920000D03*
X138240000Y-119380000D03*
X138240000Y-116840000D03*
X138240000Y-114300000D03*
X138240000Y-111760000D03*
X138240000Y-109220000D03*
X138240000Y-106680000D03*
X138240000Y-104140000D03*
X138240000Y-101600000D03*
X138240000Y-99060000D03*
X138240000Y-96520000D03*
X138240000Y-93980000D03*
X138240000Y-91440000D03*
X138240000Y-88900000D03*
X138240000Y-86360000D03*
X138240000Y-83820000D03*
X138240000Y-81280000D03*
X138240000Y-78740000D03*
%TD*%
D10*
%TO.C,R1*%
X142240000Y-89408000D03*
D16*
X142240000Y-79248000D03*
%TD*%
D13*
%TO.C,J2*%
X163282000Y-53294000D03*
X160782000Y-53594000D03*
X170782000Y-53594000D03*
X168282000Y-53294000D03*
D14*
X158282000Y-63294000D03*
X160782000Y-65794000D03*
X165782000Y-63294000D03*
X170782000Y-65794000D03*
X173282000Y-63294000D03*
X165782000Y-68294000D03*
%TD*%
M02*
