%TF.GenerationSoftware,KiCad,Pcbnew,(6.0.11)*%
%TF.CreationDate,2025-04-20T17:45:05+02:00*%
%TF.ProjectId,burstcart,62757273-7463-4617-9274-2e6b69636164,1.0*%
%TF.SameCoordinates,Original*%
%TF.FileFunction,Legend,Bot*%
%TF.FilePolarity,Positive*%
%FSLAX46Y46*%
G04 Gerber Fmt 4.6, Leading zero omitted, Abs format (unit mm)*
G04 Created by KiCad (PCBNEW (6.0.11)) date 2025-04-20 17:45:05*
%MOMM*%
%LPD*%
G01*
G04 APERTURE LIST*
G04 Aperture macros list*
%AMRoundRect*
0 Rectangle with rounded corners*
0 $1 Rounding radius*
0 $2 $3 $4 $5 $6 $7 $8 $9 X,Y pos of 4 corners*
0 Add a 4 corners polygon primitive as box body*
4,1,4,$2,$3,$4,$5,$6,$7,$8,$9,$2,$3,0*
0 Add four circle primitives for the rounded corners*
1,1,$1+$1,$2,$3*
1,1,$1+$1,$4,$5*
1,1,$1+$1,$6,$7*
1,1,$1+$1,$8,$9*
0 Add four rect primitives between the rounded corners*
20,1,$1+$1,$2,$3,$4,$5,0*
20,1,$1+$1,$4,$5,$6,$7,0*
20,1,$1+$1,$6,$7,$8,$9,0*
20,1,$1+$1,$8,$9,$2,$3,0*%
G04 Aperture macros list end*
%ADD10C,0.200000*%
%ADD11C,1.600000*%
%ADD12R,1.700000X1.700000*%
%ADD13O,1.700000X1.700000*%
%ADD14C,2.100000*%
%ADD15C,2.500000*%
%ADD16R,1.600000X1.600000*%
%ADD17O,1.600000X1.600000*%
%ADD18C,5.000000*%
%ADD19RoundRect,0.163300X-0.337500X-4.512500X0.337500X-4.512500X0.337500X4.512500X-0.337500X4.512500X0*%
G04 APERTURE END LIST*
D10*
X131765142Y-107650952D02*
X131727047Y-107536666D01*
X131688952Y-107498571D01*
X131612761Y-107460476D01*
X131498476Y-107460476D01*
X131422285Y-107498571D01*
X131384190Y-107536666D01*
X131346095Y-107612857D01*
X131346095Y-107917619D01*
X132146095Y-107917619D01*
X132146095Y-107650952D01*
X132108000Y-107574761D01*
X132069904Y-107536666D01*
X131993714Y-107498571D01*
X131917523Y-107498571D01*
X131841333Y-107536666D01*
X131803238Y-107574761D01*
X131765142Y-107650952D01*
X131765142Y-107917619D01*
X131879428Y-106774761D02*
X131346095Y-106774761D01*
X131879428Y-107117619D02*
X131460380Y-107117619D01*
X131384190Y-107079523D01*
X131346095Y-107003333D01*
X131346095Y-106889047D01*
X131384190Y-106812857D01*
X131422285Y-106774761D01*
X131346095Y-106393809D02*
X131879428Y-106393809D01*
X131727047Y-106393809D02*
X131803238Y-106355714D01*
X131841333Y-106317619D01*
X131879428Y-106241428D01*
X131879428Y-106165238D01*
X131384190Y-105936666D02*
X131346095Y-105860476D01*
X131346095Y-105708095D01*
X131384190Y-105631904D01*
X131460380Y-105593809D01*
X131498476Y-105593809D01*
X131574666Y-105631904D01*
X131612761Y-105708095D01*
X131612761Y-105822380D01*
X131650857Y-105898571D01*
X131727047Y-105936666D01*
X131765142Y-105936666D01*
X131841333Y-105898571D01*
X131879428Y-105822380D01*
X131879428Y-105708095D01*
X131841333Y-105631904D01*
X131879428Y-105365238D02*
X131879428Y-105060476D01*
X132146095Y-105250952D02*
X131460380Y-105250952D01*
X131384190Y-105212857D01*
X131346095Y-105136666D01*
X131346095Y-105060476D01*
X131422285Y-104336666D02*
X131384190Y-104374761D01*
X131346095Y-104489047D01*
X131346095Y-104565238D01*
X131384190Y-104679523D01*
X131460380Y-104755714D01*
X131536571Y-104793809D01*
X131688952Y-104831904D01*
X131803238Y-104831904D01*
X131955619Y-104793809D01*
X132031809Y-104755714D01*
X132108000Y-104679523D01*
X132146095Y-104565238D01*
X132146095Y-104489047D01*
X132108000Y-104374761D01*
X132069904Y-104336666D01*
X131346095Y-103650952D02*
X131765142Y-103650952D01*
X131841333Y-103689047D01*
X131879428Y-103765238D01*
X131879428Y-103917619D01*
X131841333Y-103993809D01*
X131384190Y-103650952D02*
X131346095Y-103727142D01*
X131346095Y-103917619D01*
X131384190Y-103993809D01*
X131460380Y-104031904D01*
X131536571Y-104031904D01*
X131612761Y-103993809D01*
X131650857Y-103917619D01*
X131650857Y-103727142D01*
X131688952Y-103650952D01*
X131346095Y-103270000D02*
X131879428Y-103270000D01*
X131727047Y-103270000D02*
X131803238Y-103231904D01*
X131841333Y-103193809D01*
X131879428Y-103117619D01*
X131879428Y-103041428D01*
X131879428Y-102889047D02*
X131879428Y-102584285D01*
X132146095Y-102774761D02*
X131460380Y-102774761D01*
X131384190Y-102736666D01*
X131346095Y-102660476D01*
X131346095Y-102584285D01*
X131650857Y-102317619D02*
X131650857Y-101708095D01*
X131346095Y-102012857D02*
X131955619Y-102012857D01*
X131879428Y-100984285D02*
X131346095Y-100984285D01*
X132184190Y-101174761D02*
X131612761Y-101365238D01*
X131612761Y-100870000D01*
X131879428Y-100031904D02*
X131346095Y-99841428D01*
X131879428Y-99650952D01*
X131346095Y-98927142D02*
X131346095Y-99384285D01*
X131346095Y-99155714D02*
X132146095Y-99155714D01*
X132031809Y-99231904D01*
X131955619Y-99308095D01*
X131917523Y-99384285D01*
X131422285Y-98584285D02*
X131384190Y-98546190D01*
X131346095Y-98584285D01*
X131384190Y-98622380D01*
X131422285Y-98584285D01*
X131346095Y-98584285D01*
X132146095Y-98050952D02*
X132146095Y-97974761D01*
X132108000Y-97898571D01*
X132069904Y-97860476D01*
X131993714Y-97822380D01*
X131841333Y-97784285D01*
X131650857Y-97784285D01*
X131498476Y-97822380D01*
X131422285Y-97860476D01*
X131384190Y-97898571D01*
X131346095Y-97974761D01*
X131346095Y-98050952D01*
X131384190Y-98127142D01*
X131422285Y-98165238D01*
X131498476Y-98203333D01*
X131650857Y-98241428D01*
X131841333Y-98241428D01*
X131993714Y-98203333D01*
X132069904Y-98165238D01*
X132108000Y-98127142D01*
X132146095Y-98050952D01*
X130058095Y-116489047D02*
X130858095Y-116489047D01*
X130286666Y-116222380D01*
X130858095Y-115955714D01*
X130058095Y-115955714D01*
X130058095Y-115231904D02*
X130477142Y-115231904D01*
X130553333Y-115270000D01*
X130591428Y-115346190D01*
X130591428Y-115498571D01*
X130553333Y-115574761D01*
X130096190Y-115231904D02*
X130058095Y-115308095D01*
X130058095Y-115498571D01*
X130096190Y-115574761D01*
X130172380Y-115612857D01*
X130248571Y-115612857D01*
X130324761Y-115574761D01*
X130362857Y-115498571D01*
X130362857Y-115308095D01*
X130400952Y-115231904D01*
X130096190Y-114508095D02*
X130058095Y-114584285D01*
X130058095Y-114736666D01*
X130096190Y-114812857D01*
X130134285Y-114850952D01*
X130210476Y-114889047D01*
X130439047Y-114889047D01*
X130515238Y-114850952D01*
X130553333Y-114812857D01*
X130591428Y-114736666D01*
X130591428Y-114584285D01*
X130553333Y-114508095D01*
X130058095Y-114165238D02*
X130591428Y-114165238D01*
X130858095Y-114165238D02*
X130820000Y-114203333D01*
X130781904Y-114165238D01*
X130820000Y-114127142D01*
X130858095Y-114165238D01*
X130781904Y-114165238D01*
X130096190Y-113479523D02*
X130058095Y-113555714D01*
X130058095Y-113708095D01*
X130096190Y-113784285D01*
X130172380Y-113822380D01*
X130477142Y-113822380D01*
X130553333Y-113784285D01*
X130591428Y-113708095D01*
X130591428Y-113555714D01*
X130553333Y-113479523D01*
X130477142Y-113441428D01*
X130400952Y-113441428D01*
X130324761Y-113822380D01*
X130591428Y-113098571D02*
X129905714Y-113098571D01*
X129829523Y-113136666D01*
X129791428Y-113212857D01*
X129791428Y-113250952D01*
X130858095Y-113098571D02*
X130820000Y-113136666D01*
X130781904Y-113098571D01*
X130820000Y-113060476D01*
X130858095Y-113098571D01*
X130781904Y-113098571D01*
X130591428Y-111498571D02*
X130362857Y-112108095D01*
X130134285Y-111498571D01*
X130591428Y-111193809D02*
X130058095Y-111003333D01*
X130591428Y-110812857D02*
X130058095Y-111003333D01*
X129867619Y-111079523D01*
X129829523Y-111117619D01*
X129791428Y-111193809D01*
X130591428Y-110622380D02*
X130591428Y-110317619D01*
X130858095Y-110508095D02*
X130172380Y-110508095D01*
X130096190Y-110470000D01*
X130058095Y-110393809D01*
X130058095Y-110317619D01*
X130058095Y-110050952D02*
X130591428Y-110050952D01*
X130515238Y-110050952D02*
X130553333Y-110012857D01*
X130591428Y-109936666D01*
X130591428Y-109822380D01*
X130553333Y-109746190D01*
X130477142Y-109708095D01*
X130058095Y-109708095D01*
X130477142Y-109708095D02*
X130553333Y-109670000D01*
X130591428Y-109593809D01*
X130591428Y-109479523D01*
X130553333Y-109403333D01*
X130477142Y-109365238D01*
X130058095Y-109365238D01*
X130439047Y-108489047D02*
X130477142Y-108527142D01*
X130515238Y-108603333D01*
X130515238Y-108679523D01*
X130477142Y-108755714D01*
X130439047Y-108793809D01*
X130362857Y-108831904D01*
X130286666Y-108831904D01*
X130210476Y-108793809D01*
X130172380Y-108755714D01*
X130134285Y-108679523D01*
X130134285Y-108603333D01*
X130172380Y-108527142D01*
X130210476Y-108489047D01*
X130515238Y-108489047D02*
X130210476Y-108489047D01*
X130172380Y-108450952D01*
X130172380Y-108412857D01*
X130210476Y-108336666D01*
X130286666Y-108298571D01*
X130477142Y-108298571D01*
X130591428Y-108374761D01*
X130667619Y-108489047D01*
X130705714Y-108641428D01*
X130667619Y-108793809D01*
X130591428Y-108908095D01*
X130477142Y-108984285D01*
X130324761Y-109022380D01*
X130172380Y-108984285D01*
X130058095Y-108908095D01*
X129981904Y-108793809D01*
X129943809Y-108641428D01*
X129981904Y-108489047D01*
X130058095Y-108374761D01*
X130096190Y-107650952D02*
X130058095Y-107727142D01*
X130058095Y-107879523D01*
X130096190Y-107955714D01*
X130172380Y-107993809D01*
X130477142Y-107993809D01*
X130553333Y-107955714D01*
X130591428Y-107879523D01*
X130591428Y-107727142D01*
X130553333Y-107650952D01*
X130477142Y-107612857D01*
X130400952Y-107612857D01*
X130324761Y-107993809D01*
X130058095Y-107155714D02*
X130096190Y-107231904D01*
X130172380Y-107270000D01*
X130858095Y-107270000D01*
X130591428Y-106927142D02*
X130058095Y-106736666D01*
X130591428Y-106546190D02*
X130058095Y-106736666D01*
X129867619Y-106812857D01*
X129829523Y-106850952D01*
X129791428Y-106927142D01*
X130096190Y-106279523D02*
X130058095Y-106203333D01*
X130058095Y-106050952D01*
X130096190Y-105974761D01*
X130172380Y-105936666D01*
X130210476Y-105936666D01*
X130286666Y-105974761D01*
X130324761Y-106050952D01*
X130324761Y-106165238D01*
X130362857Y-106241428D01*
X130439047Y-106279523D01*
X130477142Y-106279523D01*
X130553333Y-106241428D01*
X130591428Y-106165238D01*
X130591428Y-106050952D01*
X130553333Y-105974761D01*
X130058095Y-105593809D02*
X130591428Y-105593809D01*
X130858095Y-105593809D02*
X130820000Y-105631904D01*
X130781904Y-105593809D01*
X130820000Y-105555714D01*
X130858095Y-105593809D01*
X130781904Y-105593809D01*
X130591428Y-104870000D02*
X130058095Y-104870000D01*
X130591428Y-105212857D02*
X130172380Y-105212857D01*
X130096190Y-105174761D01*
X130058095Y-105098571D01*
X130058095Y-104984285D01*
X130096190Y-104908095D01*
X130134285Y-104870000D01*
X130058095Y-104489047D02*
X130591428Y-104489047D01*
X130515238Y-104489047D02*
X130553333Y-104450952D01*
X130591428Y-104374761D01*
X130591428Y-104260476D01*
X130553333Y-104184285D01*
X130477142Y-104146190D01*
X130058095Y-104146190D01*
X130477142Y-104146190D02*
X130553333Y-104108095D01*
X130591428Y-104031904D01*
X130591428Y-103917619D01*
X130553333Y-103841428D01*
X130477142Y-103803333D01*
X130058095Y-103803333D01*
X130134285Y-103422380D02*
X130096190Y-103384285D01*
X130058095Y-103422380D01*
X130096190Y-103460476D01*
X130134285Y-103422380D01*
X130058095Y-103422380D01*
X130591428Y-103041428D02*
X129791428Y-103041428D01*
X130553333Y-103041428D02*
X130591428Y-102965238D01*
X130591428Y-102812857D01*
X130553333Y-102736666D01*
X130515238Y-102698571D01*
X130439047Y-102660476D01*
X130210476Y-102660476D01*
X130134285Y-102698571D01*
X130096190Y-102736666D01*
X130058095Y-102812857D01*
X130058095Y-102965238D01*
X130096190Y-103041428D01*
X130058095Y-102203333D02*
X130096190Y-102279523D01*
X130172380Y-102317619D01*
X130858095Y-102317619D01*
X130591428Y-101898571D02*
X130362857Y-101289047D01*
X130134285Y-101898571D01*
X130858095Y-100374761D02*
X130058095Y-100184285D01*
X130629523Y-100031904D01*
X130058095Y-99879523D01*
X130858095Y-99689047D01*
X130058095Y-99384285D02*
X130591428Y-99384285D01*
X130858095Y-99384285D02*
X130820000Y-99422380D01*
X130781904Y-99384285D01*
X130820000Y-99346190D01*
X130858095Y-99384285D01*
X130781904Y-99384285D01*
X130591428Y-99117619D02*
X130591428Y-98812857D01*
X130858095Y-99003333D02*
X130172380Y-99003333D01*
X130096190Y-98965238D01*
X130058095Y-98889047D01*
X130058095Y-98812857D01*
X130058095Y-98546190D02*
X130858095Y-98546190D01*
X130362857Y-98470000D02*
X130058095Y-98241428D01*
X130591428Y-98241428D02*
X130286666Y-98546190D01*
X130058095Y-97784285D02*
X130096190Y-97860476D01*
X130134285Y-97898571D01*
X130210476Y-97936666D01*
X130439047Y-97936666D01*
X130515238Y-97898571D01*
X130553333Y-97860476D01*
X130591428Y-97784285D01*
X130591428Y-97670000D01*
X130553333Y-97593809D01*
X130515238Y-97555714D01*
X130439047Y-97517619D01*
X130210476Y-97517619D01*
X130134285Y-97555714D01*
X130096190Y-97593809D01*
X130058095Y-97670000D01*
X130058095Y-97784285D01*
X130591428Y-97250952D02*
X130058095Y-97098571D01*
X130439047Y-96946190D01*
X130058095Y-96793809D01*
X130591428Y-96641428D01*
X130058095Y-96336666D02*
X130591428Y-96336666D01*
X130858095Y-96336666D02*
X130820000Y-96374761D01*
X130781904Y-96336666D01*
X130820000Y-96298571D01*
X130858095Y-96336666D01*
X130781904Y-96336666D01*
X130058095Y-95612857D02*
X130477142Y-95612857D01*
X130553333Y-95650952D01*
X130591428Y-95727142D01*
X130591428Y-95879523D01*
X130553333Y-95955714D01*
X130096190Y-95612857D02*
X130058095Y-95689047D01*
X130058095Y-95879523D01*
X130096190Y-95955714D01*
X130172380Y-95993809D01*
X130248571Y-95993809D01*
X130324761Y-95955714D01*
X130362857Y-95879523D01*
X130362857Y-95689047D01*
X130400952Y-95612857D01*
X130058095Y-95231904D02*
X130858095Y-95231904D01*
X130362857Y-95155714D02*
X130058095Y-94927142D01*
X130591428Y-94927142D02*
X130286666Y-95231904D01*
X130096190Y-94546190D02*
X130058095Y-94546190D01*
X129981904Y-94584285D01*
X129943809Y-94622380D01*
X130058095Y-93593809D02*
X130858095Y-93593809D01*
X130858095Y-93327142D02*
X130058095Y-93060476D01*
X130858095Y-92793809D01*
X130781904Y-91955714D02*
X130820000Y-91917619D01*
X130858095Y-91841428D01*
X130858095Y-91650952D01*
X130820000Y-91574761D01*
X130781904Y-91536666D01*
X130705714Y-91498571D01*
X130629523Y-91498571D01*
X130515238Y-91536666D01*
X130058095Y-91993809D01*
X130058095Y-91498571D01*
X130858095Y-91003333D02*
X130858095Y-90927142D01*
X130820000Y-90850952D01*
X130781904Y-90812857D01*
X130705714Y-90774761D01*
X130553333Y-90736666D01*
X130362857Y-90736666D01*
X130210476Y-90774761D01*
X130134285Y-90812857D01*
X130096190Y-90850952D01*
X130058095Y-90927142D01*
X130058095Y-91003333D01*
X130096190Y-91079523D01*
X130134285Y-91117619D01*
X130210476Y-91155714D01*
X130362857Y-91193809D01*
X130553333Y-91193809D01*
X130705714Y-91155714D01*
X130781904Y-91117619D01*
X130820000Y-91079523D01*
X130858095Y-91003333D01*
X130781904Y-90431904D02*
X130820000Y-90393809D01*
X130858095Y-90317619D01*
X130858095Y-90127142D01*
X130820000Y-90050952D01*
X130781904Y-90012857D01*
X130705714Y-89974761D01*
X130629523Y-89974761D01*
X130515238Y-90012857D01*
X130058095Y-90470000D01*
X130058095Y-89974761D01*
X130858095Y-89250952D02*
X130858095Y-89631904D01*
X130477142Y-89670000D01*
X130515238Y-89631904D01*
X130553333Y-89555714D01*
X130553333Y-89365238D01*
X130515238Y-89289047D01*
X130477142Y-89250952D01*
X130400952Y-89212857D01*
X130210476Y-89212857D01*
X130134285Y-89250952D01*
X130096190Y-89289047D01*
X130058095Y-89365238D01*
X130058095Y-89555714D01*
X130096190Y-89631904D01*
X130134285Y-89670000D01*
%LPC*%
D11*
%TO.C,C3*%
X127762000Y-75184000D03*
X122762000Y-75184000D03*
%TD*%
D12*
%TO.C,J3*%
X147066000Y-55626000D03*
D13*
X149606000Y-55626000D03*
X147066000Y-58166000D03*
X149606000Y-58166000D03*
X147066000Y-60706000D03*
X149606000Y-60706000D03*
X147066000Y-63246000D03*
X149606000Y-63246000D03*
X147066000Y-65786000D03*
X149606000Y-65786000D03*
%TD*%
D14*
%TO.C,J1*%
X127976000Y-53294000D03*
X125476000Y-53594000D03*
X132976000Y-53294000D03*
X135476000Y-53594000D03*
D15*
X122976000Y-63294000D03*
X125476000Y-65794000D03*
X130476000Y-63294000D03*
X135476000Y-65794000D03*
X137976000Y-63294000D03*
X130476000Y-68294000D03*
%TD*%
D16*
%TO.C,U1*%
X158375000Y-93965000D03*
D17*
X158375000Y-96505000D03*
X158375000Y-99045000D03*
X158375000Y-101585000D03*
X158375000Y-104125000D03*
X158375000Y-106665000D03*
X158375000Y-109205000D03*
X158375000Y-111745000D03*
X158375000Y-114285000D03*
X158375000Y-116825000D03*
X158375000Y-119365000D03*
X158375000Y-121905000D03*
X158375000Y-124445000D03*
X158375000Y-126985000D03*
X173615000Y-126985000D03*
X173615000Y-124445000D03*
X173615000Y-121905000D03*
X173615000Y-119365000D03*
X173615000Y-116825000D03*
X173615000Y-114285000D03*
X173615000Y-111745000D03*
X173615000Y-109205000D03*
X173615000Y-106665000D03*
X173615000Y-104125000D03*
X173615000Y-101585000D03*
X173615000Y-99045000D03*
X173615000Y-96505000D03*
X173615000Y-93965000D03*
%TD*%
D11*
%TO.C,C4*%
X155194000Y-98512000D03*
X155194000Y-93512000D03*
%TD*%
%TO.C,C5*%
X147574000Y-84288000D03*
X147574000Y-79288000D03*
%TD*%
D16*
%TO.C,U5*%
X165872000Y-79238000D03*
D17*
X168412000Y-79238000D03*
X170952000Y-79238000D03*
X173492000Y-79238000D03*
X173492000Y-71618000D03*
X170952000Y-71618000D03*
X168412000Y-71618000D03*
X165872000Y-71618000D03*
%TD*%
D16*
%TO.C,U2*%
X155692000Y-90160000D03*
D17*
X158232000Y-90160000D03*
X160772000Y-90160000D03*
X163312000Y-90160000D03*
X165852000Y-90160000D03*
X168392000Y-90160000D03*
X170932000Y-90160000D03*
X173472000Y-90160000D03*
X173472000Y-82540000D03*
X170932000Y-82540000D03*
X168392000Y-82540000D03*
X165852000Y-82540000D03*
X163312000Y-82540000D03*
X160772000Y-82540000D03*
X158232000Y-82540000D03*
X155692000Y-82540000D03*
%TD*%
D18*
%TO.C,U$1*%
X148253100Y-94259600D03*
D19*
X124253100Y-137759600D03*
X168253100Y-137759600D03*
X126253100Y-137759600D03*
X170253100Y-137759600D03*
X128253100Y-137759600D03*
X172253100Y-137759600D03*
X130253100Y-137759600D03*
X132253100Y-137759600D03*
X134253100Y-137759600D03*
X136253100Y-137759600D03*
X138253100Y-137759600D03*
X140253100Y-137759600D03*
X142253100Y-137759600D03*
X144253100Y-137759600D03*
X146253100Y-137759600D03*
X148253100Y-137759600D03*
X150253100Y-137759600D03*
X152253100Y-137759600D03*
X154253100Y-137759600D03*
X156253100Y-137759600D03*
X158253100Y-137759600D03*
X160253100Y-137759600D03*
X162253100Y-137759600D03*
X164253100Y-137759600D03*
X166253100Y-137759600D03*
%TD*%
D12*
%TO.C,J4*%
X153411000Y-72385000D03*
D13*
X153411000Y-74925000D03*
X150871000Y-72385000D03*
X150871000Y-74925000D03*
X148331000Y-72385000D03*
X148331000Y-74925000D03*
X145791000Y-72385000D03*
X145791000Y-74925000D03*
X143251000Y-72385000D03*
X143251000Y-74925000D03*
%TD*%
D16*
%TO.C,U4*%
X152146000Y-129032000D03*
D17*
X152146000Y-126492000D03*
X152146000Y-123952000D03*
X152146000Y-121412000D03*
X152146000Y-118872000D03*
X152146000Y-116332000D03*
X152146000Y-113792000D03*
X152146000Y-111252000D03*
X152146000Y-108712000D03*
X152146000Y-106172000D03*
X152146000Y-103632000D03*
X152146000Y-101092000D03*
X144526000Y-101092000D03*
X144526000Y-103632000D03*
X144526000Y-106172000D03*
X144526000Y-108712000D03*
X144526000Y-111252000D03*
X144526000Y-113792000D03*
X144526000Y-116332000D03*
X144526000Y-118872000D03*
X144526000Y-121412000D03*
X144526000Y-123952000D03*
X144526000Y-126492000D03*
X144526000Y-129032000D03*
%TD*%
D11*
%TO.C,C2*%
X152146000Y-84328000D03*
X152146000Y-79328000D03*
%TD*%
D16*
%TO.C,U3*%
X123000000Y-78740000D03*
D17*
X123000000Y-81280000D03*
X123000000Y-83820000D03*
X123000000Y-86360000D03*
X123000000Y-88900000D03*
X123000000Y-91440000D03*
X123000000Y-93980000D03*
X123000000Y-96520000D03*
X123000000Y-99060000D03*
X123000000Y-101600000D03*
X123000000Y-104140000D03*
X123000000Y-106680000D03*
X123000000Y-109220000D03*
X123000000Y-111760000D03*
X123000000Y-114300000D03*
X123000000Y-116840000D03*
X123000000Y-119380000D03*
X123000000Y-121920000D03*
X123000000Y-124460000D03*
X123000000Y-127000000D03*
X138240000Y-127000000D03*
X138240000Y-124460000D03*
X138240000Y-121920000D03*
X138240000Y-119380000D03*
X138240000Y-116840000D03*
X138240000Y-114300000D03*
X138240000Y-111760000D03*
X138240000Y-109220000D03*
X138240000Y-106680000D03*
X138240000Y-104140000D03*
X138240000Y-101600000D03*
X138240000Y-99060000D03*
X138240000Y-96520000D03*
X138240000Y-93980000D03*
X138240000Y-91440000D03*
X138240000Y-88900000D03*
X138240000Y-86360000D03*
X138240000Y-83820000D03*
X138240000Y-81280000D03*
X138240000Y-78740000D03*
%TD*%
D11*
%TO.C,R1*%
X142240000Y-89408000D03*
D17*
X142240000Y-79248000D03*
%TD*%
D14*
%TO.C,J2*%
X163282000Y-53294000D03*
X160782000Y-53594000D03*
X170782000Y-53594000D03*
X168282000Y-53294000D03*
D15*
X158282000Y-63294000D03*
X160782000Y-65794000D03*
X165782000Y-63294000D03*
X170782000Y-65794000D03*
X173282000Y-63294000D03*
X165782000Y-68294000D03*
%TD*%
M02*
