%TF.GenerationSoftware,KiCad,Pcbnew,(6.0.11)*%
%TF.CreationDate,2025-04-20T17:45:10+02:00*%
%TF.ProjectId,burstcart,62757273-7463-4617-9274-2e6b69636164,1.0*%
%TF.SameCoordinates,Original*%
%TF.FileFunction,Drillmap*%
%TF.FilePolarity,Positive*%
%FSLAX45Y45*%
G04 Gerber Fmt 4.5, Leading zero omitted, Abs format (unit mm)*
G04 Created by KiCad (PCBNEW (6.0.11)) date 2025-04-20 17:45:10*
%MOMM*%
%LPD*%
G01*
G04 APERTURE LIST*
%ADD10C,0.200000*%
%ADD11C,0.040000*%
%ADD12C,0.080000*%
%ADD13C,0.100000*%
%ADD14C,0.120000*%
%ADD15C,0.130000*%
G04 APERTURE END LIST*
D10*
D11*
X12297260Y-13671200D02*
X12337260Y-13711200D01*
X12337260Y-13671200D02*
X12297260Y-13711200D01*
X12729840Y-7779380D02*
X12769840Y-7819380D01*
X12769840Y-7779380D02*
X12729840Y-7819380D01*
X13062150Y-13212220D02*
X13102150Y-13252220D01*
X13102150Y-13212220D02*
X13062150Y-13252220D01*
X13150140Y-8202740D02*
X13190140Y-8242740D01*
X13190140Y-8202740D02*
X13150140Y-8242740D01*
X13201510Y-12248900D02*
X13241510Y-12288900D01*
X13241510Y-12248900D02*
X13201510Y-12288900D01*
X13284140Y-9045630D02*
X13324140Y-9085630D01*
X13324140Y-9045630D02*
X13284140Y-9085630D01*
X13331440Y-12786420D02*
X13371440Y-12826420D01*
X13371440Y-12786420D02*
X13331440Y-12826420D01*
X13437720Y-11019270D02*
X13477720Y-11059270D01*
X13477720Y-11019270D02*
X13437720Y-11059270D01*
X13465000Y-10519340D02*
X13505000Y-10559340D01*
X13505000Y-10519340D02*
X13465000Y-10559340D01*
X13523420Y-8026840D02*
X13563420Y-8066840D01*
X13563420Y-8026840D02*
X13523420Y-8066840D01*
X13569000Y-6101400D02*
X13609000Y-6141400D01*
X13609000Y-6101400D02*
X13569000Y-6141400D01*
X13588180Y-8507520D02*
X13628180Y-8547520D01*
X13628180Y-8507520D02*
X13588180Y-8547520D01*
X13590640Y-12119620D02*
X13630640Y-12159620D01*
X13630640Y-12119620D02*
X13590640Y-12159620D01*
X13599650Y-10349370D02*
X13639650Y-10389370D01*
X13639650Y-10349370D02*
X13599650Y-10389370D01*
X13609130Y-9123800D02*
X13649130Y-9163800D01*
X13649130Y-9123800D02*
X13609130Y-9163800D01*
X13678120Y-11336900D02*
X13718120Y-11376900D01*
X13718120Y-11336900D02*
X13678120Y-11376900D01*
X13681320Y-5723900D02*
X13721320Y-5763900D01*
X13721320Y-5723900D02*
X13681320Y-5763900D01*
X13752590Y-6950180D02*
X13792590Y-6990180D01*
X13792590Y-6950180D02*
X13752590Y-6990180D01*
X13769130Y-7530240D02*
X13809130Y-7570240D01*
X13809130Y-7530240D02*
X13769130Y-7570240D01*
X13772601Y-5996271D02*
X13812601Y-6036271D01*
X13812601Y-5996271D02*
X13772601Y-6036271D01*
X13813850Y-6646600D02*
X13853850Y-6686600D01*
X13853850Y-6646600D02*
X13813850Y-6686600D01*
X13983230Y-12673660D02*
X14023230Y-12713660D01*
X14023230Y-12673660D02*
X13983230Y-12713660D01*
X13994050Y-9405880D02*
X14034050Y-9445880D01*
X14034050Y-9405880D02*
X13994050Y-9445880D01*
X14084550Y-11527630D02*
X14124550Y-11567630D01*
X14124550Y-11527630D02*
X14084550Y-11567630D01*
X14084550Y-12376180D02*
X14124550Y-12416180D01*
X14124550Y-12376180D02*
X14084550Y-12416180D01*
X14199000Y-12865160D02*
X14239000Y-12905160D01*
X14239000Y-12865160D02*
X14199000Y-12905160D01*
X14230450Y-9973160D02*
X14270450Y-10013160D01*
X14270450Y-9973160D02*
X14230450Y-10013160D01*
X14274730Y-12947380D02*
X14314730Y-12987380D01*
X14314730Y-12947380D02*
X14274730Y-12987380D01*
X14330650Y-6265500D02*
X14370650Y-6305500D01*
X14370650Y-6265500D02*
X14330650Y-6305500D01*
X14330650Y-6641490D02*
X14370650Y-6681490D01*
X14370650Y-6641490D02*
X14330650Y-6681490D01*
X14395600Y-9640700D02*
X14435600Y-9680700D01*
X14435600Y-9640700D02*
X14395600Y-9680700D01*
X14402770Y-7944070D02*
X14442770Y-7984070D01*
X14442770Y-7944070D02*
X14402770Y-7984070D01*
X14451030Y-13025010D02*
X14491030Y-13065010D01*
X14491030Y-13025010D02*
X14451030Y-13065010D01*
X14557170Y-8055240D02*
X14597170Y-8095240D01*
X14597170Y-8055240D02*
X14557170Y-8095240D01*
X14689130Y-12929930D02*
X14729130Y-12969930D01*
X14729130Y-12929930D02*
X14689130Y-12969930D01*
X14703070Y-7688870D02*
X14743070Y-7728870D01*
X14743070Y-7688870D02*
X14703070Y-7728870D01*
X14775050Y-13015100D02*
X14815050Y-13055100D01*
X14815050Y-13015100D02*
X14775050Y-13055100D01*
X14827450Y-8854610D02*
X14867450Y-8894610D01*
X14867450Y-8854610D02*
X14827450Y-8894610D01*
X14845200Y-11111260D02*
X14885200Y-11151260D01*
X14885200Y-11111260D02*
X14845200Y-11151260D01*
X14852020Y-13122300D02*
X14892020Y-13162300D01*
X14892020Y-13122300D02*
X14852020Y-13162300D01*
X14925330Y-13249780D02*
X14965330Y-13289780D01*
X14965330Y-13249780D02*
X14925330Y-13289780D01*
X15005310Y-12788710D02*
X15045310Y-12828710D01*
X15045310Y-12788710D02*
X15005310Y-12828710D01*
X15029190Y-8665950D02*
X15069190Y-8705950D01*
X15069190Y-8665950D02*
X15029190Y-8705950D01*
X15056180Y-9837440D02*
X15096180Y-9877440D01*
X15096180Y-9837440D02*
X15056180Y-9877440D01*
X15079890Y-13214770D02*
X15119890Y-13254770D01*
X15119890Y-13214770D02*
X15079890Y-13254770D01*
X15205310Y-13231350D02*
X15245310Y-13271350D01*
X15245310Y-13231350D02*
X15205310Y-13271350D01*
X15247860Y-6847590D02*
X15287860Y-6887590D01*
X15287860Y-6847590D02*
X15247860Y-6887590D01*
X15287220Y-9913270D02*
X15327220Y-9953270D01*
X15327220Y-9913270D02*
X15287220Y-9953270D01*
X15289740Y-9094090D02*
X15329740Y-9134090D01*
X15329740Y-9094090D02*
X15289740Y-9134090D01*
X15314500Y-13256880D02*
X15354500Y-13296880D01*
X15354500Y-13256880D02*
X15314500Y-13296880D01*
X15321600Y-10267710D02*
X15361600Y-10307710D01*
X15361600Y-10267710D02*
X15321600Y-10307710D01*
X15385050Y-10776840D02*
X15425050Y-10816840D01*
X15425050Y-10776840D02*
X15385050Y-10816840D01*
X15385140Y-10097050D02*
X15425140Y-10137050D01*
X15425140Y-10097050D02*
X15385140Y-10137050D01*
X15395540Y-12629200D02*
X15435540Y-12669200D01*
X15435540Y-12629200D02*
X15395540Y-12669200D01*
X15401020Y-13196340D02*
X15441020Y-13236340D01*
X15441020Y-13196340D02*
X15401020Y-13236340D01*
X15458930Y-10398940D02*
X15498930Y-10438940D01*
X15498930Y-10398940D02*
X15458930Y-10438940D01*
X15477990Y-12425030D02*
X15517990Y-12465030D01*
X15517990Y-12425030D02*
X15477990Y-12465030D01*
X15489790Y-11625580D02*
X15529790Y-11665580D01*
X15529790Y-11625580D02*
X15489790Y-11665580D01*
X15505400Y-11265880D02*
X15545400Y-11305880D01*
X15545400Y-11265880D02*
X15505400Y-11305880D01*
X15505770Y-13244700D02*
X15545770Y-13284700D01*
X15545770Y-13244700D02*
X15505770Y-13284700D01*
X15550690Y-12797770D02*
X15590690Y-12837770D01*
X15590690Y-12797770D02*
X15550690Y-12837770D01*
X15571960Y-10933560D02*
X15611960Y-10973560D01*
X15611960Y-10933560D02*
X15571960Y-10973560D01*
X15627500Y-13005180D02*
X15667500Y-13045180D01*
X15667500Y-13005180D02*
X15627500Y-13045180D01*
X15642520Y-12859900D02*
X15682520Y-12899900D01*
X15682520Y-12859900D02*
X15642520Y-12899900D01*
X15674800Y-10609670D02*
X15714800Y-10649670D01*
X15714800Y-10609670D02*
X15674800Y-10649670D01*
X15803200Y-8398820D02*
X15843200Y-8438820D01*
X15843200Y-8398820D02*
X15803200Y-8438820D01*
X15831880Y-13207950D02*
X15871880Y-13247950D01*
X15871880Y-13207950D02*
X15831880Y-13247950D01*
X15920870Y-13051760D02*
X15960870Y-13091760D01*
X15960870Y-13051760D02*
X15920870Y-13091760D01*
X16017640Y-12364900D02*
X16057640Y-12404900D01*
X16057640Y-12364900D02*
X16017640Y-12404900D01*
X16032700Y-11740270D02*
X16072700Y-11780270D01*
X16072700Y-11740270D02*
X16032700Y-11780270D01*
X16039190Y-13216940D02*
X16079190Y-13256940D01*
X16079190Y-13216940D02*
X16039190Y-13256940D01*
X16052480Y-9388930D02*
X16092480Y-9428930D01*
X16092480Y-9388930D02*
X16052480Y-9428930D01*
X16052480Y-11424470D02*
X16092480Y-11464470D01*
X16092480Y-11424470D02*
X16052480Y-11464470D01*
X16105390Y-12037060D02*
X16145390Y-12077060D01*
X16145390Y-12037060D02*
X16105390Y-12077060D01*
X16165610Y-8009430D02*
X16205610Y-8049430D01*
X16205610Y-8009430D02*
X16165610Y-8049430D01*
X16209980Y-13097660D02*
X16249980Y-13137660D01*
X16249980Y-13097660D02*
X16209980Y-13137660D01*
X16257490Y-10584810D02*
X16297490Y-10624810D01*
X16297490Y-10584810D02*
X16257490Y-10624810D01*
X16313430Y-12948020D02*
X16353430Y-12988020D01*
X16353430Y-12948020D02*
X16313430Y-12988020D01*
X16313470Y-11020870D02*
X16353470Y-11060870D01*
X16353470Y-11020870D02*
X16313470Y-11060870D01*
X16379300Y-13176280D02*
X16419300Y-13216280D01*
X16419300Y-13176280D02*
X16379300Y-13216280D01*
X16409350Y-7770430D02*
X16449350Y-7810430D01*
X16449350Y-7770430D02*
X16409350Y-7810430D01*
X16410800Y-12312290D02*
X16450800Y-12352290D01*
X16450800Y-12312290D02*
X16410800Y-12352290D01*
X16502930Y-12666190D02*
X16542930Y-12706190D01*
X16542930Y-12666190D02*
X16502930Y-12706190D01*
X16795160Y-12434980D02*
X16835160Y-12474980D01*
X16835160Y-12434980D02*
X16795160Y-12474980D01*
X16940590Y-11544970D02*
X16980590Y-11584970D01*
X16980590Y-11544970D02*
X16940590Y-11584970D01*
X17310860Y-13687670D02*
X17350860Y-13727670D01*
X17350860Y-13687670D02*
X17310860Y-13727670D01*
D12*
X12316200Y-7518400D02*
G75*
G03*
X12316200Y-7518400I-40000J0D01*
G01*
X12340000Y-7874000D02*
G75*
G03*
X12340000Y-7874000I-40000J0D01*
G01*
X12340000Y-8128000D02*
G75*
G03*
X12340000Y-8128000I-40000J0D01*
G01*
X12340000Y-8382000D02*
G75*
G03*
X12340000Y-8382000I-40000J0D01*
G01*
X12340000Y-8636000D02*
G75*
G03*
X12340000Y-8636000I-40000J0D01*
G01*
X12340000Y-8890000D02*
G75*
G03*
X12340000Y-8890000I-40000J0D01*
G01*
X12340000Y-9144000D02*
G75*
G03*
X12340000Y-9144000I-40000J0D01*
G01*
X12340000Y-9398000D02*
G75*
G03*
X12340000Y-9398000I-40000J0D01*
G01*
X12340000Y-9652000D02*
G75*
G03*
X12340000Y-9652000I-40000J0D01*
G01*
X12340000Y-9906000D02*
G75*
G03*
X12340000Y-9906000I-40000J0D01*
G01*
X12340000Y-10160000D02*
G75*
G03*
X12340000Y-10160000I-40000J0D01*
G01*
X12340000Y-10414000D02*
G75*
G03*
X12340000Y-10414000I-40000J0D01*
G01*
X12340000Y-10668000D02*
G75*
G03*
X12340000Y-10668000I-40000J0D01*
G01*
X12340000Y-10922000D02*
G75*
G03*
X12340000Y-10922000I-40000J0D01*
G01*
X12340000Y-11176000D02*
G75*
G03*
X12340000Y-11176000I-40000J0D01*
G01*
X12340000Y-11430000D02*
G75*
G03*
X12340000Y-11430000I-40000J0D01*
G01*
X12340000Y-11684000D02*
G75*
G03*
X12340000Y-11684000I-40000J0D01*
G01*
X12340000Y-11938000D02*
G75*
G03*
X12340000Y-11938000I-40000J0D01*
G01*
X12340000Y-12192000D02*
G75*
G03*
X12340000Y-12192000I-40000J0D01*
G01*
X12340000Y-12446000D02*
G75*
G03*
X12340000Y-12446000I-40000J0D01*
G01*
X12340000Y-12700000D02*
G75*
G03*
X12340000Y-12700000I-40000J0D01*
G01*
X12816200Y-7518400D02*
G75*
G03*
X12816200Y-7518400I-40000J0D01*
G01*
X13864000Y-7874000D02*
G75*
G03*
X13864000Y-7874000I-40000J0D01*
G01*
X13864000Y-8128000D02*
G75*
G03*
X13864000Y-8128000I-40000J0D01*
G01*
X13864000Y-8382000D02*
G75*
G03*
X13864000Y-8382000I-40000J0D01*
G01*
X13864000Y-8636000D02*
G75*
G03*
X13864000Y-8636000I-40000J0D01*
G01*
X13864000Y-8890000D02*
G75*
G03*
X13864000Y-8890000I-40000J0D01*
G01*
X13864000Y-9144000D02*
G75*
G03*
X13864000Y-9144000I-40000J0D01*
G01*
X13864000Y-9398000D02*
G75*
G03*
X13864000Y-9398000I-40000J0D01*
G01*
X13864000Y-9652000D02*
G75*
G03*
X13864000Y-9652000I-40000J0D01*
G01*
X13864000Y-9906000D02*
G75*
G03*
X13864000Y-9906000I-40000J0D01*
G01*
X13864000Y-10160000D02*
G75*
G03*
X13864000Y-10160000I-40000J0D01*
G01*
X13864000Y-10414000D02*
G75*
G03*
X13864000Y-10414000I-40000J0D01*
G01*
X13864000Y-10668000D02*
G75*
G03*
X13864000Y-10668000I-40000J0D01*
G01*
X13864000Y-10922000D02*
G75*
G03*
X13864000Y-10922000I-40000J0D01*
G01*
X13864000Y-11176000D02*
G75*
G03*
X13864000Y-11176000I-40000J0D01*
G01*
X13864000Y-11430000D02*
G75*
G03*
X13864000Y-11430000I-40000J0D01*
G01*
X13864000Y-11684000D02*
G75*
G03*
X13864000Y-11684000I-40000J0D01*
G01*
X13864000Y-11938000D02*
G75*
G03*
X13864000Y-11938000I-40000J0D01*
G01*
X13864000Y-12192000D02*
G75*
G03*
X13864000Y-12192000I-40000J0D01*
G01*
X13864000Y-12446000D02*
G75*
G03*
X13864000Y-12446000I-40000J0D01*
G01*
X13864000Y-12700000D02*
G75*
G03*
X13864000Y-12700000I-40000J0D01*
G01*
X14264000Y-7924800D02*
G75*
G03*
X14264000Y-7924800I-40000J0D01*
G01*
X14264000Y-8940800D02*
G75*
G03*
X14264000Y-8940800I-40000J0D01*
G01*
X14492600Y-10109200D02*
G75*
G03*
X14492600Y-10109200I-40000J0D01*
G01*
X14492600Y-10363200D02*
G75*
G03*
X14492600Y-10363200I-40000J0D01*
G01*
X14492600Y-10617200D02*
G75*
G03*
X14492600Y-10617200I-40000J0D01*
G01*
X14492600Y-10871200D02*
G75*
G03*
X14492600Y-10871200I-40000J0D01*
G01*
X14492600Y-11125200D02*
G75*
G03*
X14492600Y-11125200I-40000J0D01*
G01*
X14492600Y-11379200D02*
G75*
G03*
X14492600Y-11379200I-40000J0D01*
G01*
X14492600Y-11633200D02*
G75*
G03*
X14492600Y-11633200I-40000J0D01*
G01*
X14492600Y-11887200D02*
G75*
G03*
X14492600Y-11887200I-40000J0D01*
G01*
X14492600Y-12141200D02*
G75*
G03*
X14492600Y-12141200I-40000J0D01*
G01*
X14492600Y-12395200D02*
G75*
G03*
X14492600Y-12395200I-40000J0D01*
G01*
X14492600Y-12649200D02*
G75*
G03*
X14492600Y-12649200I-40000J0D01*
G01*
X14492600Y-12903200D02*
G75*
G03*
X14492600Y-12903200I-40000J0D01*
G01*
X14797400Y-7928800D02*
G75*
G03*
X14797400Y-7928800I-40000J0D01*
G01*
X14797400Y-8428800D02*
G75*
G03*
X14797400Y-8428800I-40000J0D01*
G01*
X15254600Y-7932800D02*
G75*
G03*
X15254600Y-7932800I-40000J0D01*
G01*
X15254600Y-8432800D02*
G75*
G03*
X15254600Y-8432800I-40000J0D01*
G01*
X15254600Y-10109200D02*
G75*
G03*
X15254600Y-10109200I-40000J0D01*
G01*
X15254600Y-10363200D02*
G75*
G03*
X15254600Y-10363200I-40000J0D01*
G01*
X15254600Y-10617200D02*
G75*
G03*
X15254600Y-10617200I-40000J0D01*
G01*
X15254600Y-10871200D02*
G75*
G03*
X15254600Y-10871200I-40000J0D01*
G01*
X15254600Y-11125200D02*
G75*
G03*
X15254600Y-11125200I-40000J0D01*
G01*
X15254600Y-11379200D02*
G75*
G03*
X15254600Y-11379200I-40000J0D01*
G01*
X15254600Y-11633200D02*
G75*
G03*
X15254600Y-11633200I-40000J0D01*
G01*
X15254600Y-11887200D02*
G75*
G03*
X15254600Y-11887200I-40000J0D01*
G01*
X15254600Y-12141200D02*
G75*
G03*
X15254600Y-12141200I-40000J0D01*
G01*
X15254600Y-12395200D02*
G75*
G03*
X15254600Y-12395200I-40000J0D01*
G01*
X15254600Y-12649200D02*
G75*
G03*
X15254600Y-12649200I-40000J0D01*
G01*
X15254600Y-12903200D02*
G75*
G03*
X15254600Y-12903200I-40000J0D01*
G01*
X15559400Y-9351200D02*
G75*
G03*
X15559400Y-9351200I-40000J0D01*
G01*
X15559400Y-9851200D02*
G75*
G03*
X15559400Y-9851200I-40000J0D01*
G01*
X15609200Y-8254000D02*
G75*
G03*
X15609200Y-8254000I-40000J0D01*
G01*
X15609200Y-9016000D02*
G75*
G03*
X15609200Y-9016000I-40000J0D01*
G01*
X15863200Y-8254000D02*
G75*
G03*
X15863200Y-8254000I-40000J0D01*
G01*
X15863200Y-9016000D02*
G75*
G03*
X15863200Y-9016000I-40000J0D01*
G01*
X15877500Y-9396500D02*
G75*
G03*
X15877500Y-9396500I-40000J0D01*
G01*
X15877500Y-9650500D02*
G75*
G03*
X15877500Y-9650500I-40000J0D01*
G01*
X15877500Y-9904500D02*
G75*
G03*
X15877500Y-9904500I-40000J0D01*
G01*
X15877500Y-10158500D02*
G75*
G03*
X15877500Y-10158500I-40000J0D01*
G01*
X15877500Y-10412500D02*
G75*
G03*
X15877500Y-10412500I-40000J0D01*
G01*
X15877500Y-10666500D02*
G75*
G03*
X15877500Y-10666500I-40000J0D01*
G01*
X15877500Y-10920500D02*
G75*
G03*
X15877500Y-10920500I-40000J0D01*
G01*
X15877500Y-11174500D02*
G75*
G03*
X15877500Y-11174500I-40000J0D01*
G01*
X15877500Y-11428500D02*
G75*
G03*
X15877500Y-11428500I-40000J0D01*
G01*
X15877500Y-11682500D02*
G75*
G03*
X15877500Y-11682500I-40000J0D01*
G01*
X15877500Y-11936500D02*
G75*
G03*
X15877500Y-11936500I-40000J0D01*
G01*
X15877500Y-12190500D02*
G75*
G03*
X15877500Y-12190500I-40000J0D01*
G01*
X15877500Y-12444500D02*
G75*
G03*
X15877500Y-12444500I-40000J0D01*
G01*
X15877500Y-12698500D02*
G75*
G03*
X15877500Y-12698500I-40000J0D01*
G01*
X16117200Y-8254000D02*
G75*
G03*
X16117200Y-8254000I-40000J0D01*
G01*
X16117200Y-9016000D02*
G75*
G03*
X16117200Y-9016000I-40000J0D01*
G01*
X16371200Y-8254000D02*
G75*
G03*
X16371200Y-8254000I-40000J0D01*
G01*
X16371200Y-9016000D02*
G75*
G03*
X16371200Y-9016000I-40000J0D01*
G01*
X16625200Y-8254000D02*
G75*
G03*
X16625200Y-8254000I-40000J0D01*
G01*
X16625200Y-9016000D02*
G75*
G03*
X16625200Y-9016000I-40000J0D01*
G01*
X16627200Y-7161800D02*
G75*
G03*
X16627200Y-7161800I-40000J0D01*
G01*
X16627200Y-7923800D02*
G75*
G03*
X16627200Y-7923800I-40000J0D01*
G01*
X16879200Y-8254000D02*
G75*
G03*
X16879200Y-8254000I-40000J0D01*
G01*
X16879200Y-9016000D02*
G75*
G03*
X16879200Y-9016000I-40000J0D01*
G01*
X16881200Y-7161800D02*
G75*
G03*
X16881200Y-7161800I-40000J0D01*
G01*
X16881200Y-7923800D02*
G75*
G03*
X16881200Y-7923800I-40000J0D01*
G01*
X17133200Y-8254000D02*
G75*
G03*
X17133200Y-8254000I-40000J0D01*
G01*
X17133200Y-9016000D02*
G75*
G03*
X17133200Y-9016000I-40000J0D01*
G01*
X17135200Y-7161800D02*
G75*
G03*
X17135200Y-7161800I-40000J0D01*
G01*
X17135200Y-7923800D02*
G75*
G03*
X17135200Y-7923800I-40000J0D01*
G01*
X17387200Y-8254000D02*
G75*
G03*
X17387200Y-8254000I-40000J0D01*
G01*
X17387200Y-9016000D02*
G75*
G03*
X17387200Y-9016000I-40000J0D01*
G01*
X17389200Y-7161800D02*
G75*
G03*
X17389200Y-7161800I-40000J0D01*
G01*
X17389200Y-7923800D02*
G75*
G03*
X17389200Y-7923800I-40000J0D01*
G01*
X17401500Y-9396500D02*
G75*
G03*
X17401500Y-9396500I-40000J0D01*
G01*
X17401500Y-9650500D02*
G75*
G03*
X17401500Y-9650500I-40000J0D01*
G01*
X17401500Y-9904500D02*
G75*
G03*
X17401500Y-9904500I-40000J0D01*
G01*
X17401500Y-10158500D02*
G75*
G03*
X17401500Y-10158500I-40000J0D01*
G01*
X17401500Y-10412500D02*
G75*
G03*
X17401500Y-10412500I-40000J0D01*
G01*
X17401500Y-10666500D02*
G75*
G03*
X17401500Y-10666500I-40000J0D01*
G01*
X17401500Y-10920500D02*
G75*
G03*
X17401500Y-10920500I-40000J0D01*
G01*
X17401500Y-11174500D02*
G75*
G03*
X17401500Y-11174500I-40000J0D01*
G01*
X17401500Y-11428500D02*
G75*
G03*
X17401500Y-11428500I-40000J0D01*
G01*
X17401500Y-11682500D02*
G75*
G03*
X17401500Y-11682500I-40000J0D01*
G01*
X17401500Y-11936500D02*
G75*
G03*
X17401500Y-11936500I-40000J0D01*
G01*
X17401500Y-12190500D02*
G75*
G03*
X17401500Y-12190500I-40000J0D01*
G01*
X17401500Y-12444500D02*
G75*
G03*
X17401500Y-12444500I-40000J0D01*
G01*
X17401500Y-12698500D02*
G75*
G03*
X17401500Y-12698500I-40000J0D01*
G01*
D13*
X14325100Y-7188500D02*
X14325100Y-7288500D01*
X14275100Y-7238500D02*
X14375100Y-7238500D01*
X14325100Y-7442500D02*
X14325100Y-7542500D01*
X14275100Y-7492500D02*
X14375100Y-7492500D01*
X14579100Y-7188500D02*
X14579100Y-7288500D01*
X14529100Y-7238500D02*
X14629100Y-7238500D01*
X14579100Y-7442500D02*
X14579100Y-7542500D01*
X14529100Y-7492500D02*
X14629100Y-7492500D01*
X14706600Y-5512600D02*
X14706600Y-5612600D01*
X14656600Y-5562600D02*
X14756600Y-5562600D01*
X14706600Y-5766600D02*
X14706600Y-5866600D01*
X14656600Y-5816600D02*
X14756600Y-5816600D01*
X14706600Y-6020600D02*
X14706600Y-6120600D01*
X14656600Y-6070600D02*
X14756600Y-6070600D01*
X14706600Y-6274600D02*
X14706600Y-6374600D01*
X14656600Y-6324600D02*
X14756600Y-6324600D01*
X14706600Y-6528600D02*
X14706600Y-6628600D01*
X14656600Y-6578600D02*
X14756600Y-6578600D01*
X14833100Y-7188500D02*
X14833100Y-7288500D01*
X14783100Y-7238500D02*
X14883100Y-7238500D01*
X14833100Y-7442500D02*
X14833100Y-7542500D01*
X14783100Y-7492500D02*
X14883100Y-7492500D01*
X14960600Y-5512600D02*
X14960600Y-5612600D01*
X14910600Y-5562600D02*
X15010600Y-5562600D01*
X14960600Y-5766600D02*
X14960600Y-5866600D01*
X14910600Y-5816600D02*
X15010600Y-5816600D01*
X14960600Y-6020600D02*
X14960600Y-6120600D01*
X14910600Y-6070600D02*
X15010600Y-6070600D01*
X14960600Y-6274600D02*
X14960600Y-6374600D01*
X14910600Y-6324600D02*
X15010600Y-6324600D01*
X14960600Y-6528600D02*
X14960600Y-6628600D01*
X14910600Y-6578600D02*
X15010600Y-6578600D01*
X15087100Y-7188500D02*
X15087100Y-7288500D01*
X15037100Y-7238500D02*
X15137100Y-7238500D01*
X15087100Y-7442500D02*
X15087100Y-7542500D01*
X15037100Y-7492500D02*
X15137100Y-7492500D01*
X15341100Y-7188500D02*
X15341100Y-7288500D01*
X15291100Y-7238500D02*
X15391100Y-7238500D01*
X15341100Y-7442500D02*
X15341100Y-7542500D01*
X15291100Y-7492500D02*
X15391100Y-7492500D01*
D14*
X12590027Y-5401827D02*
X12590027Y-5316973D01*
X12505173Y-5316973D01*
X12505173Y-5401827D01*
X12590027Y-5401827D01*
X12840027Y-5371827D02*
X12840027Y-5286973D01*
X12755173Y-5286973D01*
X12755173Y-5371827D01*
X12840027Y-5371827D01*
X13340027Y-5371827D02*
X13340027Y-5286973D01*
X13255173Y-5286973D01*
X13255173Y-5371827D01*
X13340027Y-5371827D01*
X13590027Y-5401827D02*
X13590027Y-5316973D01*
X13505173Y-5316973D01*
X13505173Y-5401827D01*
X13590027Y-5401827D01*
X16120627Y-5401827D02*
X16120627Y-5316973D01*
X16035773Y-5316973D01*
X16035773Y-5401827D01*
X16120627Y-5401827D01*
X16370627Y-5371827D02*
X16370627Y-5286973D01*
X16285773Y-5286973D01*
X16285773Y-5371827D01*
X16370627Y-5371827D01*
X16870627Y-5371827D02*
X16870627Y-5286973D01*
X16785773Y-5286973D01*
X16785773Y-5371827D01*
X16870627Y-5371827D01*
X17120627Y-5401827D02*
X17120627Y-5316973D01*
X17035773Y-5316973D01*
X17035773Y-5401827D01*
X17120627Y-5401827D01*
D15*
X12297600Y-6394400D02*
X12362600Y-6329400D01*
X12297600Y-6264400D01*
X12232600Y-6329400D01*
X12297600Y-6394400D01*
X12547600Y-6644400D02*
X12612600Y-6579400D01*
X12547600Y-6514400D01*
X12482600Y-6579400D01*
X12547600Y-6644400D01*
X13047600Y-6394400D02*
X13112600Y-6329400D01*
X13047600Y-6264400D01*
X12982600Y-6329400D01*
X13047600Y-6394400D01*
X13047600Y-6894400D02*
X13112600Y-6829400D01*
X13047600Y-6764400D01*
X12982600Y-6829400D01*
X13047600Y-6894400D01*
X13547600Y-6644400D02*
X13612600Y-6579400D01*
X13547600Y-6514400D01*
X13482600Y-6579400D01*
X13547600Y-6644400D01*
X13797600Y-6394400D02*
X13862600Y-6329400D01*
X13797600Y-6264400D01*
X13732600Y-6329400D01*
X13797600Y-6394400D01*
X15828200Y-6394400D02*
X15893200Y-6329400D01*
X15828200Y-6264400D01*
X15763200Y-6329400D01*
X15828200Y-6394400D01*
X16078200Y-6644400D02*
X16143200Y-6579400D01*
X16078200Y-6514400D01*
X16013200Y-6579400D01*
X16078200Y-6644400D01*
X16578200Y-6394400D02*
X16643200Y-6329400D01*
X16578200Y-6264400D01*
X16513200Y-6329400D01*
X16578200Y-6394400D01*
X16578200Y-6894400D02*
X16643200Y-6829400D01*
X16578200Y-6764400D01*
X16513200Y-6829400D01*
X16578200Y-6894400D01*
X17078200Y-6644400D02*
X17143200Y-6579400D01*
X17078200Y-6514400D01*
X17013200Y-6579400D01*
X17078200Y-6644400D01*
X17328200Y-6394400D02*
X17393200Y-6329400D01*
X17328200Y-6264400D01*
X17263200Y-6329400D01*
X17328200Y-6394400D01*
D10*
X12280429Y-14588936D02*
X12280429Y-14388936D01*
X12328048Y-14388936D01*
X12356619Y-14398460D01*
X12375667Y-14417508D01*
X12385191Y-14436555D01*
X12394715Y-14474650D01*
X12394715Y-14503222D01*
X12385191Y-14541317D01*
X12375667Y-14560365D01*
X12356619Y-14579412D01*
X12328048Y-14588936D01*
X12280429Y-14588936D01*
X12480429Y-14588936D02*
X12480429Y-14455603D01*
X12480429Y-14493698D02*
X12489953Y-14474650D01*
X12499477Y-14465127D01*
X12518524Y-14455603D01*
X12537572Y-14455603D01*
X12604238Y-14588936D02*
X12604238Y-14455603D01*
X12604238Y-14388936D02*
X12594715Y-14398460D01*
X12604238Y-14407984D01*
X12613762Y-14398460D01*
X12604238Y-14388936D01*
X12604238Y-14407984D01*
X12728048Y-14588936D02*
X12709000Y-14579412D01*
X12699477Y-14560365D01*
X12699477Y-14388936D01*
X12832810Y-14588936D02*
X12813762Y-14579412D01*
X12804238Y-14560365D01*
X12804238Y-14388936D01*
X13061381Y-14588936D02*
X13061381Y-14388936D01*
X13128048Y-14531793D01*
X13194715Y-14388936D01*
X13194715Y-14588936D01*
X13375667Y-14588936D02*
X13375667Y-14484174D01*
X13366143Y-14465127D01*
X13347096Y-14455603D01*
X13309000Y-14455603D01*
X13289953Y-14465127D01*
X13375667Y-14579412D02*
X13356619Y-14588936D01*
X13309000Y-14588936D01*
X13289953Y-14579412D01*
X13280429Y-14560365D01*
X13280429Y-14541317D01*
X13289953Y-14522269D01*
X13309000Y-14512746D01*
X13356619Y-14512746D01*
X13375667Y-14503222D01*
X13470905Y-14455603D02*
X13470905Y-14655603D01*
X13470905Y-14465127D02*
X13489953Y-14455603D01*
X13528048Y-14455603D01*
X13547096Y-14465127D01*
X13556619Y-14474650D01*
X13566143Y-14493698D01*
X13566143Y-14550841D01*
X13556619Y-14569888D01*
X13547096Y-14579412D01*
X13528048Y-14588936D01*
X13489953Y-14588936D01*
X13470905Y-14579412D01*
X13651858Y-14569888D02*
X13661381Y-14579412D01*
X13651858Y-14588936D01*
X13642334Y-14579412D01*
X13651858Y-14569888D01*
X13651858Y-14588936D01*
X13651858Y-14465127D02*
X13661381Y-14474650D01*
X13651858Y-14484174D01*
X13642334Y-14474650D01*
X13651858Y-14465127D01*
X13651858Y-14484174D01*
D11*
X11982810Y-14898460D02*
X12022810Y-14938460D01*
X12022810Y-14898460D02*
X11982810Y-14938460D01*
D10*
X12318524Y-14808936D02*
X12337572Y-14808936D01*
X12356619Y-14818460D01*
X12366143Y-14827984D01*
X12375667Y-14847031D01*
X12385191Y-14885127D01*
X12385191Y-14932746D01*
X12375667Y-14970841D01*
X12366143Y-14989888D01*
X12356619Y-14999412D01*
X12337572Y-15008936D01*
X12318524Y-15008936D01*
X12299477Y-14999412D01*
X12289953Y-14989888D01*
X12280429Y-14970841D01*
X12270905Y-14932746D01*
X12270905Y-14885127D01*
X12280429Y-14847031D01*
X12289953Y-14827984D01*
X12299477Y-14818460D01*
X12318524Y-14808936D01*
X12470905Y-14989888D02*
X12480429Y-14999412D01*
X12470905Y-15008936D01*
X12461381Y-14999412D01*
X12470905Y-14989888D01*
X12470905Y-15008936D01*
X12651858Y-14875603D02*
X12651858Y-15008936D01*
X12604238Y-14799412D02*
X12556619Y-14942269D01*
X12680429Y-14942269D01*
X12794715Y-14808936D02*
X12813762Y-14808936D01*
X12832810Y-14818460D01*
X12842334Y-14827984D01*
X12851858Y-14847031D01*
X12861381Y-14885127D01*
X12861381Y-14932746D01*
X12851858Y-14970841D01*
X12842334Y-14989888D01*
X12832810Y-14999412D01*
X12813762Y-15008936D01*
X12794715Y-15008936D01*
X12775667Y-14999412D01*
X12766143Y-14989888D01*
X12756619Y-14970841D01*
X12747096Y-14932746D01*
X12747096Y-14885127D01*
X12756619Y-14847031D01*
X12766143Y-14827984D01*
X12775667Y-14818460D01*
X12794715Y-14808936D01*
X12985191Y-14808936D02*
X13004238Y-14808936D01*
X13023286Y-14818460D01*
X13032810Y-14827984D01*
X13042334Y-14847031D01*
X13051858Y-14885127D01*
X13051858Y-14932746D01*
X13042334Y-14970841D01*
X13032810Y-14989888D01*
X13023286Y-14999412D01*
X13004238Y-15008936D01*
X12985191Y-15008936D01*
X12966143Y-14999412D01*
X12956619Y-14989888D01*
X12947096Y-14970841D01*
X12937572Y-14932746D01*
X12937572Y-14885127D01*
X12947096Y-14847031D01*
X12956619Y-14827984D01*
X12966143Y-14818460D01*
X12985191Y-14808936D01*
X13137572Y-15008936D02*
X13137572Y-14875603D01*
X13137572Y-14894650D02*
X13147096Y-14885127D01*
X13166143Y-14875603D01*
X13194715Y-14875603D01*
X13213762Y-14885127D01*
X13223286Y-14904174D01*
X13223286Y-15008936D01*
X13223286Y-14904174D02*
X13232810Y-14885127D01*
X13251858Y-14875603D01*
X13280429Y-14875603D01*
X13299477Y-14885127D01*
X13309000Y-14904174D01*
X13309000Y-15008936D01*
X13404238Y-15008936D02*
X13404238Y-14875603D01*
X13404238Y-14894650D02*
X13413762Y-14885127D01*
X13432810Y-14875603D01*
X13461381Y-14875603D01*
X13480429Y-14885127D01*
X13489953Y-14904174D01*
X13489953Y-15008936D01*
X13489953Y-14904174D02*
X13499477Y-14885127D01*
X13518524Y-14875603D01*
X13547096Y-14875603D01*
X13566143Y-14885127D01*
X13575667Y-14904174D01*
X13575667Y-15008936D01*
X13966143Y-14799412D02*
X13794715Y-15056555D01*
X14223286Y-14808936D02*
X14242334Y-14808936D01*
X14261381Y-14818460D01*
X14270905Y-14827984D01*
X14280429Y-14847031D01*
X14289953Y-14885127D01*
X14289953Y-14932746D01*
X14280429Y-14970841D01*
X14270905Y-14989888D01*
X14261381Y-14999412D01*
X14242334Y-15008936D01*
X14223286Y-15008936D01*
X14204238Y-14999412D01*
X14194715Y-14989888D01*
X14185191Y-14970841D01*
X14175667Y-14932746D01*
X14175667Y-14885127D01*
X14185191Y-14847031D01*
X14194715Y-14827984D01*
X14204238Y-14818460D01*
X14223286Y-14808936D01*
X14375667Y-14989888D02*
X14385191Y-14999412D01*
X14375667Y-15008936D01*
X14366143Y-14999412D01*
X14375667Y-14989888D01*
X14375667Y-15008936D01*
X14509000Y-14808936D02*
X14528048Y-14808936D01*
X14547096Y-14818460D01*
X14556619Y-14827984D01*
X14566143Y-14847031D01*
X14575667Y-14885127D01*
X14575667Y-14932746D01*
X14566143Y-14970841D01*
X14556619Y-14989888D01*
X14547096Y-14999412D01*
X14528048Y-15008936D01*
X14509000Y-15008936D01*
X14489953Y-14999412D01*
X14480429Y-14989888D01*
X14470905Y-14970841D01*
X14461381Y-14932746D01*
X14461381Y-14885127D01*
X14470905Y-14847031D01*
X14480429Y-14827984D01*
X14489953Y-14818460D01*
X14509000Y-14808936D01*
X14766143Y-15008936D02*
X14651858Y-15008936D01*
X14709000Y-15008936D02*
X14709000Y-14808936D01*
X14689953Y-14837508D01*
X14670905Y-14856555D01*
X14651858Y-14866079D01*
X14947096Y-14808936D02*
X14851858Y-14808936D01*
X14842334Y-14904174D01*
X14851858Y-14894650D01*
X14870905Y-14885127D01*
X14918524Y-14885127D01*
X14937572Y-14894650D01*
X14947096Y-14904174D01*
X14956619Y-14923222D01*
X14956619Y-14970841D01*
X14947096Y-14989888D01*
X14937572Y-14999412D01*
X14918524Y-15008936D01*
X14870905Y-15008936D01*
X14851858Y-14999412D01*
X14842334Y-14989888D01*
X15023286Y-14808936D02*
X15156619Y-14808936D01*
X15070905Y-15008936D01*
X15223286Y-14808936D02*
X15223286Y-14847031D01*
X15299477Y-14808936D02*
X15299477Y-14847031D01*
X15594715Y-15085127D02*
X15585191Y-15075603D01*
X15566143Y-15047031D01*
X15556619Y-15027984D01*
X15547096Y-14999412D01*
X15537572Y-14951793D01*
X15537572Y-14913698D01*
X15547096Y-14866079D01*
X15556619Y-14837508D01*
X15566143Y-14818460D01*
X15585191Y-14789888D01*
X15594715Y-14780365D01*
X15699477Y-14894650D02*
X15680429Y-14885127D01*
X15670905Y-14875603D01*
X15661381Y-14856555D01*
X15661381Y-14847031D01*
X15670905Y-14827984D01*
X15680429Y-14818460D01*
X15699477Y-14808936D01*
X15737572Y-14808936D01*
X15756619Y-14818460D01*
X15766143Y-14827984D01*
X15775667Y-14847031D01*
X15775667Y-14856555D01*
X15766143Y-14875603D01*
X15756619Y-14885127D01*
X15737572Y-14894650D01*
X15699477Y-14894650D01*
X15680429Y-14904174D01*
X15670905Y-14913698D01*
X15661381Y-14932746D01*
X15661381Y-14970841D01*
X15670905Y-14989888D01*
X15680429Y-14999412D01*
X15699477Y-15008936D01*
X15737572Y-15008936D01*
X15756619Y-14999412D01*
X15766143Y-14989888D01*
X15775667Y-14970841D01*
X15775667Y-14932746D01*
X15766143Y-14913698D01*
X15756619Y-14904174D01*
X15737572Y-14894650D01*
X15947096Y-14808936D02*
X15909000Y-14808936D01*
X15889953Y-14818460D01*
X15880429Y-14827984D01*
X15861381Y-14856555D01*
X15851858Y-14894650D01*
X15851858Y-14970841D01*
X15861381Y-14989888D01*
X15870905Y-14999412D01*
X15889953Y-15008936D01*
X15928048Y-15008936D01*
X15947096Y-14999412D01*
X15956619Y-14989888D01*
X15966143Y-14970841D01*
X15966143Y-14923222D01*
X15956619Y-14904174D01*
X15947096Y-14894650D01*
X15928048Y-14885127D01*
X15889953Y-14885127D01*
X15870905Y-14894650D01*
X15861381Y-14904174D01*
X15851858Y-14923222D01*
X16204238Y-15008936D02*
X16204238Y-14808936D01*
X16289953Y-15008936D02*
X16289953Y-14904174D01*
X16280429Y-14885127D01*
X16261381Y-14875603D01*
X16232810Y-14875603D01*
X16213762Y-14885127D01*
X16204238Y-14894650D01*
X16413762Y-15008936D02*
X16394715Y-14999412D01*
X16385191Y-14989888D01*
X16375667Y-14970841D01*
X16375667Y-14913698D01*
X16385191Y-14894650D01*
X16394715Y-14885127D01*
X16413762Y-14875603D01*
X16442334Y-14875603D01*
X16461381Y-14885127D01*
X16470905Y-14894650D01*
X16480429Y-14913698D01*
X16480429Y-14970841D01*
X16470905Y-14989888D01*
X16461381Y-14999412D01*
X16442334Y-15008936D01*
X16413762Y-15008936D01*
X16594715Y-15008936D02*
X16575667Y-14999412D01*
X16566143Y-14980365D01*
X16566143Y-14808936D01*
X16747096Y-14999412D02*
X16728048Y-15008936D01*
X16689953Y-15008936D01*
X16670905Y-14999412D01*
X16661381Y-14980365D01*
X16661381Y-14904174D01*
X16670905Y-14885127D01*
X16689953Y-14875603D01*
X16728048Y-14875603D01*
X16747096Y-14885127D01*
X16756619Y-14904174D01*
X16756619Y-14923222D01*
X16661381Y-14942269D01*
X16832810Y-14999412D02*
X16851858Y-15008936D01*
X16889953Y-15008936D01*
X16909000Y-14999412D01*
X16918524Y-14980365D01*
X16918524Y-14970841D01*
X16909000Y-14951793D01*
X16889953Y-14942269D01*
X16861381Y-14942269D01*
X16842334Y-14932746D01*
X16832810Y-14913698D01*
X16832810Y-14904174D01*
X16842334Y-14885127D01*
X16861381Y-14875603D01*
X16889953Y-14875603D01*
X16909000Y-14885127D01*
X16985191Y-15085127D02*
X16994715Y-15075603D01*
X17013762Y-15047031D01*
X17023286Y-15027984D01*
X17032810Y-14999412D01*
X17042334Y-14951793D01*
X17042334Y-14913698D01*
X17032810Y-14866079D01*
X17023286Y-14837508D01*
X17013762Y-14818460D01*
X16994715Y-14789888D01*
X16985191Y-14780365D01*
D12*
X12022810Y-15182460D02*
G75*
G03*
X12022810Y-15182460I-40000J0D01*
G01*
D10*
X12318524Y-15072936D02*
X12337572Y-15072936D01*
X12356619Y-15082460D01*
X12366143Y-15091984D01*
X12375667Y-15111031D01*
X12385191Y-15149127D01*
X12385191Y-15196746D01*
X12375667Y-15234841D01*
X12366143Y-15253888D01*
X12356619Y-15263412D01*
X12337572Y-15272936D01*
X12318524Y-15272936D01*
X12299477Y-15263412D01*
X12289953Y-15253888D01*
X12280429Y-15234841D01*
X12270905Y-15196746D01*
X12270905Y-15149127D01*
X12280429Y-15111031D01*
X12289953Y-15091984D01*
X12299477Y-15082460D01*
X12318524Y-15072936D01*
X12470905Y-15253888D02*
X12480429Y-15263412D01*
X12470905Y-15272936D01*
X12461381Y-15263412D01*
X12470905Y-15253888D01*
X12470905Y-15272936D01*
X12594715Y-15158650D02*
X12575667Y-15149127D01*
X12566143Y-15139603D01*
X12556619Y-15120555D01*
X12556619Y-15111031D01*
X12566143Y-15091984D01*
X12575667Y-15082460D01*
X12594715Y-15072936D01*
X12632810Y-15072936D01*
X12651858Y-15082460D01*
X12661381Y-15091984D01*
X12670905Y-15111031D01*
X12670905Y-15120555D01*
X12661381Y-15139603D01*
X12651858Y-15149127D01*
X12632810Y-15158650D01*
X12594715Y-15158650D01*
X12575667Y-15168174D01*
X12566143Y-15177698D01*
X12556619Y-15196746D01*
X12556619Y-15234841D01*
X12566143Y-15253888D01*
X12575667Y-15263412D01*
X12594715Y-15272936D01*
X12632810Y-15272936D01*
X12651858Y-15263412D01*
X12661381Y-15253888D01*
X12670905Y-15234841D01*
X12670905Y-15196746D01*
X12661381Y-15177698D01*
X12651858Y-15168174D01*
X12632810Y-15158650D01*
X12794715Y-15072936D02*
X12813762Y-15072936D01*
X12832810Y-15082460D01*
X12842334Y-15091984D01*
X12851858Y-15111031D01*
X12861381Y-15149127D01*
X12861381Y-15196746D01*
X12851858Y-15234841D01*
X12842334Y-15253888D01*
X12832810Y-15263412D01*
X12813762Y-15272936D01*
X12794715Y-15272936D01*
X12775667Y-15263412D01*
X12766143Y-15253888D01*
X12756619Y-15234841D01*
X12747096Y-15196746D01*
X12747096Y-15149127D01*
X12756619Y-15111031D01*
X12766143Y-15091984D01*
X12775667Y-15082460D01*
X12794715Y-15072936D01*
X12985191Y-15072936D02*
X13004238Y-15072936D01*
X13023286Y-15082460D01*
X13032810Y-15091984D01*
X13042334Y-15111031D01*
X13051858Y-15149127D01*
X13051858Y-15196746D01*
X13042334Y-15234841D01*
X13032810Y-15253888D01*
X13023286Y-15263412D01*
X13004238Y-15272936D01*
X12985191Y-15272936D01*
X12966143Y-15263412D01*
X12956619Y-15253888D01*
X12947096Y-15234841D01*
X12937572Y-15196746D01*
X12937572Y-15149127D01*
X12947096Y-15111031D01*
X12956619Y-15091984D01*
X12966143Y-15082460D01*
X12985191Y-15072936D01*
X13137572Y-15272936D02*
X13137572Y-15139603D01*
X13137572Y-15158650D02*
X13147096Y-15149127D01*
X13166143Y-15139603D01*
X13194715Y-15139603D01*
X13213762Y-15149127D01*
X13223286Y-15168174D01*
X13223286Y-15272936D01*
X13223286Y-15168174D02*
X13232810Y-15149127D01*
X13251858Y-15139603D01*
X13280429Y-15139603D01*
X13299477Y-15149127D01*
X13309000Y-15168174D01*
X13309000Y-15272936D01*
X13404238Y-15272936D02*
X13404238Y-15139603D01*
X13404238Y-15158650D02*
X13413762Y-15149127D01*
X13432810Y-15139603D01*
X13461381Y-15139603D01*
X13480429Y-15149127D01*
X13489953Y-15168174D01*
X13489953Y-15272936D01*
X13489953Y-15168174D02*
X13499477Y-15149127D01*
X13518524Y-15139603D01*
X13547096Y-15139603D01*
X13566143Y-15149127D01*
X13575667Y-15168174D01*
X13575667Y-15272936D01*
X13966143Y-15063412D02*
X13794715Y-15320555D01*
X14223286Y-15072936D02*
X14242334Y-15072936D01*
X14261381Y-15082460D01*
X14270905Y-15091984D01*
X14280429Y-15111031D01*
X14289953Y-15149127D01*
X14289953Y-15196746D01*
X14280429Y-15234841D01*
X14270905Y-15253888D01*
X14261381Y-15263412D01*
X14242334Y-15272936D01*
X14223286Y-15272936D01*
X14204238Y-15263412D01*
X14194715Y-15253888D01*
X14185191Y-15234841D01*
X14175667Y-15196746D01*
X14175667Y-15149127D01*
X14185191Y-15111031D01*
X14194715Y-15091984D01*
X14204238Y-15082460D01*
X14223286Y-15072936D01*
X14375667Y-15253888D02*
X14385191Y-15263412D01*
X14375667Y-15272936D01*
X14366143Y-15263412D01*
X14375667Y-15253888D01*
X14375667Y-15272936D01*
X14509000Y-15072936D02*
X14528048Y-15072936D01*
X14547096Y-15082460D01*
X14556619Y-15091984D01*
X14566143Y-15111031D01*
X14575667Y-15149127D01*
X14575667Y-15196746D01*
X14566143Y-15234841D01*
X14556619Y-15253888D01*
X14547096Y-15263412D01*
X14528048Y-15272936D01*
X14509000Y-15272936D01*
X14489953Y-15263412D01*
X14480429Y-15253888D01*
X14470905Y-15234841D01*
X14461381Y-15196746D01*
X14461381Y-15149127D01*
X14470905Y-15111031D01*
X14480429Y-15091984D01*
X14489953Y-15082460D01*
X14509000Y-15072936D01*
X14642334Y-15072936D02*
X14766143Y-15072936D01*
X14699477Y-15149127D01*
X14728048Y-15149127D01*
X14747096Y-15158650D01*
X14756619Y-15168174D01*
X14766143Y-15187222D01*
X14766143Y-15234841D01*
X14756619Y-15253888D01*
X14747096Y-15263412D01*
X14728048Y-15272936D01*
X14670905Y-15272936D01*
X14651858Y-15263412D01*
X14642334Y-15253888D01*
X14956619Y-15272936D02*
X14842334Y-15272936D01*
X14899477Y-15272936D02*
X14899477Y-15072936D01*
X14880429Y-15101508D01*
X14861381Y-15120555D01*
X14842334Y-15130079D01*
X15137572Y-15072936D02*
X15042334Y-15072936D01*
X15032810Y-15168174D01*
X15042334Y-15158650D01*
X15061381Y-15149127D01*
X15109000Y-15149127D01*
X15128048Y-15158650D01*
X15137572Y-15168174D01*
X15147096Y-15187222D01*
X15147096Y-15234841D01*
X15137572Y-15253888D01*
X15128048Y-15263412D01*
X15109000Y-15272936D01*
X15061381Y-15272936D01*
X15042334Y-15263412D01*
X15032810Y-15253888D01*
X15223286Y-15072936D02*
X15223286Y-15111031D01*
X15299477Y-15072936D02*
X15299477Y-15111031D01*
X15594715Y-15349127D02*
X15585191Y-15339603D01*
X15566143Y-15311031D01*
X15556619Y-15291984D01*
X15547096Y-15263412D01*
X15537572Y-15215793D01*
X15537572Y-15177698D01*
X15547096Y-15130079D01*
X15556619Y-15101508D01*
X15566143Y-15082460D01*
X15585191Y-15053888D01*
X15594715Y-15044365D01*
X15775667Y-15272936D02*
X15661381Y-15272936D01*
X15718524Y-15272936D02*
X15718524Y-15072936D01*
X15699477Y-15101508D01*
X15680429Y-15120555D01*
X15661381Y-15130079D01*
X15851858Y-15091984D02*
X15861381Y-15082460D01*
X15880429Y-15072936D01*
X15928048Y-15072936D01*
X15947096Y-15082460D01*
X15956619Y-15091984D01*
X15966143Y-15111031D01*
X15966143Y-15130079D01*
X15956619Y-15158650D01*
X15842334Y-15272936D01*
X15966143Y-15272936D01*
X16137572Y-15072936D02*
X16099477Y-15072936D01*
X16080429Y-15082460D01*
X16070905Y-15091984D01*
X16051858Y-15120555D01*
X16042334Y-15158650D01*
X16042334Y-15234841D01*
X16051858Y-15253888D01*
X16061381Y-15263412D01*
X16080429Y-15272936D01*
X16118524Y-15272936D01*
X16137572Y-15263412D01*
X16147096Y-15253888D01*
X16156619Y-15234841D01*
X16156619Y-15187222D01*
X16147096Y-15168174D01*
X16137572Y-15158650D01*
X16118524Y-15149127D01*
X16080429Y-15149127D01*
X16061381Y-15158650D01*
X16051858Y-15168174D01*
X16042334Y-15187222D01*
X16394715Y-15272936D02*
X16394715Y-15072936D01*
X16480429Y-15272936D02*
X16480429Y-15168174D01*
X16470905Y-15149127D01*
X16451858Y-15139603D01*
X16423286Y-15139603D01*
X16404238Y-15149127D01*
X16394715Y-15158650D01*
X16604238Y-15272936D02*
X16585191Y-15263412D01*
X16575667Y-15253888D01*
X16566143Y-15234841D01*
X16566143Y-15177698D01*
X16575667Y-15158650D01*
X16585191Y-15149127D01*
X16604238Y-15139603D01*
X16632810Y-15139603D01*
X16651858Y-15149127D01*
X16661381Y-15158650D01*
X16670905Y-15177698D01*
X16670905Y-15234841D01*
X16661381Y-15253888D01*
X16651858Y-15263412D01*
X16632810Y-15272936D01*
X16604238Y-15272936D01*
X16785191Y-15272936D02*
X16766143Y-15263412D01*
X16756619Y-15244365D01*
X16756619Y-15072936D01*
X16937572Y-15263412D02*
X16918524Y-15272936D01*
X16880429Y-15272936D01*
X16861381Y-15263412D01*
X16851858Y-15244365D01*
X16851858Y-15168174D01*
X16861381Y-15149127D01*
X16880429Y-15139603D01*
X16918524Y-15139603D01*
X16937572Y-15149127D01*
X16947096Y-15168174D01*
X16947096Y-15187222D01*
X16851858Y-15206269D01*
X17023286Y-15263412D02*
X17042334Y-15272936D01*
X17080429Y-15272936D01*
X17099477Y-15263412D01*
X17109000Y-15244365D01*
X17109000Y-15234841D01*
X17099477Y-15215793D01*
X17080429Y-15206269D01*
X17051858Y-15206269D01*
X17032810Y-15196746D01*
X17023286Y-15177698D01*
X17023286Y-15168174D01*
X17032810Y-15149127D01*
X17051858Y-15139603D01*
X17080429Y-15139603D01*
X17099477Y-15149127D01*
X17175667Y-15349127D02*
X17185191Y-15339603D01*
X17204239Y-15311031D01*
X17213762Y-15291984D01*
X17223286Y-15263412D01*
X17232810Y-15215793D01*
X17232810Y-15177698D01*
X17223286Y-15130079D01*
X17213762Y-15101508D01*
X17204239Y-15082460D01*
X17185191Y-15053888D01*
X17175667Y-15044365D01*
D13*
X11972810Y-15396460D02*
X11972810Y-15496460D01*
X11922810Y-15446460D02*
X12022810Y-15446460D01*
D10*
X12385191Y-15536936D02*
X12270905Y-15536936D01*
X12328048Y-15536936D02*
X12328048Y-15336936D01*
X12309000Y-15365508D01*
X12289953Y-15384555D01*
X12270905Y-15394079D01*
X12470905Y-15517888D02*
X12480429Y-15527412D01*
X12470905Y-15536936D01*
X12461381Y-15527412D01*
X12470905Y-15517888D01*
X12470905Y-15536936D01*
X12604238Y-15336936D02*
X12623286Y-15336936D01*
X12642334Y-15346460D01*
X12651858Y-15355984D01*
X12661381Y-15375031D01*
X12670905Y-15413127D01*
X12670905Y-15460746D01*
X12661381Y-15498841D01*
X12651858Y-15517888D01*
X12642334Y-15527412D01*
X12623286Y-15536936D01*
X12604238Y-15536936D01*
X12585191Y-15527412D01*
X12575667Y-15517888D01*
X12566143Y-15498841D01*
X12556619Y-15460746D01*
X12556619Y-15413127D01*
X12566143Y-15375031D01*
X12575667Y-15355984D01*
X12585191Y-15346460D01*
X12604238Y-15336936D01*
X12794715Y-15336936D02*
X12813762Y-15336936D01*
X12832810Y-15346460D01*
X12842334Y-15355984D01*
X12851858Y-15375031D01*
X12861381Y-15413127D01*
X12861381Y-15460746D01*
X12851858Y-15498841D01*
X12842334Y-15517888D01*
X12832810Y-15527412D01*
X12813762Y-15536936D01*
X12794715Y-15536936D01*
X12775667Y-15527412D01*
X12766143Y-15517888D01*
X12756619Y-15498841D01*
X12747096Y-15460746D01*
X12747096Y-15413127D01*
X12756619Y-15375031D01*
X12766143Y-15355984D01*
X12775667Y-15346460D01*
X12794715Y-15336936D01*
X12985191Y-15336936D02*
X13004238Y-15336936D01*
X13023286Y-15346460D01*
X13032810Y-15355984D01*
X13042334Y-15375031D01*
X13051858Y-15413127D01*
X13051858Y-15460746D01*
X13042334Y-15498841D01*
X13032810Y-15517888D01*
X13023286Y-15527412D01*
X13004238Y-15536936D01*
X12985191Y-15536936D01*
X12966143Y-15527412D01*
X12956619Y-15517888D01*
X12947096Y-15498841D01*
X12937572Y-15460746D01*
X12937572Y-15413127D01*
X12947096Y-15375031D01*
X12956619Y-15355984D01*
X12966143Y-15346460D01*
X12985191Y-15336936D01*
X13137572Y-15536936D02*
X13137572Y-15403603D01*
X13137572Y-15422650D02*
X13147096Y-15413127D01*
X13166143Y-15403603D01*
X13194715Y-15403603D01*
X13213762Y-15413127D01*
X13223286Y-15432174D01*
X13223286Y-15536936D01*
X13223286Y-15432174D02*
X13232810Y-15413127D01*
X13251858Y-15403603D01*
X13280429Y-15403603D01*
X13299477Y-15413127D01*
X13309000Y-15432174D01*
X13309000Y-15536936D01*
X13404238Y-15536936D02*
X13404238Y-15403603D01*
X13404238Y-15422650D02*
X13413762Y-15413127D01*
X13432810Y-15403603D01*
X13461381Y-15403603D01*
X13480429Y-15413127D01*
X13489953Y-15432174D01*
X13489953Y-15536936D01*
X13489953Y-15432174D02*
X13499477Y-15413127D01*
X13518524Y-15403603D01*
X13547096Y-15403603D01*
X13566143Y-15413127D01*
X13575667Y-15432174D01*
X13575667Y-15536936D01*
X13966143Y-15327412D02*
X13794715Y-15584555D01*
X14223286Y-15336936D02*
X14242334Y-15336936D01*
X14261381Y-15346460D01*
X14270905Y-15355984D01*
X14280429Y-15375031D01*
X14289953Y-15413127D01*
X14289953Y-15460746D01*
X14280429Y-15498841D01*
X14270905Y-15517888D01*
X14261381Y-15527412D01*
X14242334Y-15536936D01*
X14223286Y-15536936D01*
X14204238Y-15527412D01*
X14194715Y-15517888D01*
X14185191Y-15498841D01*
X14175667Y-15460746D01*
X14175667Y-15413127D01*
X14185191Y-15375031D01*
X14194715Y-15355984D01*
X14204238Y-15346460D01*
X14223286Y-15336936D01*
X14375667Y-15517888D02*
X14385191Y-15527412D01*
X14375667Y-15536936D01*
X14366143Y-15527412D01*
X14375667Y-15517888D01*
X14375667Y-15536936D01*
X14509000Y-15336936D02*
X14528048Y-15336936D01*
X14547096Y-15346460D01*
X14556619Y-15355984D01*
X14566143Y-15375031D01*
X14575667Y-15413127D01*
X14575667Y-15460746D01*
X14566143Y-15498841D01*
X14556619Y-15517888D01*
X14547096Y-15527412D01*
X14528048Y-15536936D01*
X14509000Y-15536936D01*
X14489953Y-15527412D01*
X14480429Y-15517888D01*
X14470905Y-15498841D01*
X14461381Y-15460746D01*
X14461381Y-15413127D01*
X14470905Y-15375031D01*
X14480429Y-15355984D01*
X14489953Y-15346460D01*
X14509000Y-15336936D01*
X14642334Y-15336936D02*
X14766143Y-15336936D01*
X14699477Y-15413127D01*
X14728048Y-15413127D01*
X14747096Y-15422650D01*
X14756619Y-15432174D01*
X14766143Y-15451222D01*
X14766143Y-15498841D01*
X14756619Y-15517888D01*
X14747096Y-15527412D01*
X14728048Y-15536936D01*
X14670905Y-15536936D01*
X14651858Y-15527412D01*
X14642334Y-15517888D01*
X14861381Y-15536936D02*
X14899477Y-15536936D01*
X14918524Y-15527412D01*
X14928048Y-15517888D01*
X14947096Y-15489317D01*
X14956619Y-15451222D01*
X14956619Y-15375031D01*
X14947096Y-15355984D01*
X14937572Y-15346460D01*
X14918524Y-15336936D01*
X14880429Y-15336936D01*
X14861381Y-15346460D01*
X14851858Y-15355984D01*
X14842334Y-15375031D01*
X14842334Y-15422650D01*
X14851858Y-15441698D01*
X14861381Y-15451222D01*
X14880429Y-15460746D01*
X14918524Y-15460746D01*
X14937572Y-15451222D01*
X14947096Y-15441698D01*
X14956619Y-15422650D01*
X15128048Y-15403603D02*
X15128048Y-15536936D01*
X15080429Y-15327412D02*
X15032810Y-15470269D01*
X15156619Y-15470269D01*
X15223286Y-15336936D02*
X15223286Y-15375031D01*
X15299477Y-15336936D02*
X15299477Y-15375031D01*
X15594715Y-15613127D02*
X15585191Y-15603603D01*
X15566143Y-15575031D01*
X15556619Y-15555984D01*
X15547096Y-15527412D01*
X15537572Y-15479793D01*
X15537572Y-15441698D01*
X15547096Y-15394079D01*
X15556619Y-15365508D01*
X15566143Y-15346460D01*
X15585191Y-15317888D01*
X15594715Y-15308365D01*
X15661381Y-15355984D02*
X15670905Y-15346460D01*
X15689953Y-15336936D01*
X15737572Y-15336936D01*
X15756619Y-15346460D01*
X15766143Y-15355984D01*
X15775667Y-15375031D01*
X15775667Y-15394079D01*
X15766143Y-15422650D01*
X15651858Y-15536936D01*
X15775667Y-15536936D01*
X15899477Y-15336936D02*
X15918524Y-15336936D01*
X15937572Y-15346460D01*
X15947096Y-15355984D01*
X15956619Y-15375031D01*
X15966143Y-15413127D01*
X15966143Y-15460746D01*
X15956619Y-15498841D01*
X15947096Y-15517888D01*
X15937572Y-15527412D01*
X15918524Y-15536936D01*
X15899477Y-15536936D01*
X15880429Y-15527412D01*
X15870905Y-15517888D01*
X15861381Y-15498841D01*
X15851858Y-15460746D01*
X15851858Y-15413127D01*
X15861381Y-15375031D01*
X15870905Y-15355984D01*
X15880429Y-15346460D01*
X15899477Y-15336936D01*
X16204238Y-15536936D02*
X16204238Y-15336936D01*
X16289953Y-15536936D02*
X16289953Y-15432174D01*
X16280429Y-15413127D01*
X16261381Y-15403603D01*
X16232810Y-15403603D01*
X16213762Y-15413127D01*
X16204238Y-15422650D01*
X16413762Y-15536936D02*
X16394715Y-15527412D01*
X16385191Y-15517888D01*
X16375667Y-15498841D01*
X16375667Y-15441698D01*
X16385191Y-15422650D01*
X16394715Y-15413127D01*
X16413762Y-15403603D01*
X16442334Y-15403603D01*
X16461381Y-15413127D01*
X16470905Y-15422650D01*
X16480429Y-15441698D01*
X16480429Y-15498841D01*
X16470905Y-15517888D01*
X16461381Y-15527412D01*
X16442334Y-15536936D01*
X16413762Y-15536936D01*
X16594715Y-15536936D02*
X16575667Y-15527412D01*
X16566143Y-15508365D01*
X16566143Y-15336936D01*
X16747096Y-15527412D02*
X16728048Y-15536936D01*
X16689953Y-15536936D01*
X16670905Y-15527412D01*
X16661381Y-15508365D01*
X16661381Y-15432174D01*
X16670905Y-15413127D01*
X16689953Y-15403603D01*
X16728048Y-15403603D01*
X16747096Y-15413127D01*
X16756619Y-15432174D01*
X16756619Y-15451222D01*
X16661381Y-15470269D01*
X16832810Y-15527412D02*
X16851858Y-15536936D01*
X16889953Y-15536936D01*
X16909000Y-15527412D01*
X16918524Y-15508365D01*
X16918524Y-15498841D01*
X16909000Y-15479793D01*
X16889953Y-15470269D01*
X16861381Y-15470269D01*
X16842334Y-15460746D01*
X16832810Y-15441698D01*
X16832810Y-15432174D01*
X16842334Y-15413127D01*
X16861381Y-15403603D01*
X16889953Y-15403603D01*
X16909000Y-15413127D01*
X16985191Y-15613127D02*
X16994715Y-15603603D01*
X17013762Y-15575031D01*
X17023286Y-15555984D01*
X17032810Y-15527412D01*
X17042334Y-15479793D01*
X17042334Y-15441698D01*
X17032810Y-15394079D01*
X17023286Y-15365508D01*
X17013762Y-15346460D01*
X16994715Y-15317888D01*
X16985191Y-15308365D01*
D14*
X12005237Y-15752887D02*
X12005237Y-15668033D01*
X11920383Y-15668033D01*
X11920383Y-15752887D01*
X12005237Y-15752887D01*
D10*
X12385191Y-15800936D02*
X12270905Y-15800936D01*
X12328048Y-15800936D02*
X12328048Y-15600936D01*
X12309000Y-15629508D01*
X12289953Y-15648555D01*
X12270905Y-15658079D01*
X12470905Y-15781888D02*
X12480429Y-15791412D01*
X12470905Y-15800936D01*
X12461381Y-15791412D01*
X12470905Y-15781888D01*
X12470905Y-15800936D01*
X12556619Y-15619984D02*
X12566143Y-15610460D01*
X12585191Y-15600936D01*
X12632810Y-15600936D01*
X12651858Y-15610460D01*
X12661381Y-15619984D01*
X12670905Y-15639031D01*
X12670905Y-15658079D01*
X12661381Y-15686650D01*
X12547096Y-15800936D01*
X12670905Y-15800936D01*
X12794715Y-15600936D02*
X12813762Y-15600936D01*
X12832810Y-15610460D01*
X12842334Y-15619984D01*
X12851858Y-15639031D01*
X12861381Y-15677127D01*
X12861381Y-15724746D01*
X12851858Y-15762841D01*
X12842334Y-15781888D01*
X12832810Y-15791412D01*
X12813762Y-15800936D01*
X12794715Y-15800936D01*
X12775667Y-15791412D01*
X12766143Y-15781888D01*
X12756619Y-15762841D01*
X12747096Y-15724746D01*
X12747096Y-15677127D01*
X12756619Y-15639031D01*
X12766143Y-15619984D01*
X12775667Y-15610460D01*
X12794715Y-15600936D01*
X12985191Y-15600936D02*
X13004238Y-15600936D01*
X13023286Y-15610460D01*
X13032810Y-15619984D01*
X13042334Y-15639031D01*
X13051858Y-15677127D01*
X13051858Y-15724746D01*
X13042334Y-15762841D01*
X13032810Y-15781888D01*
X13023286Y-15791412D01*
X13004238Y-15800936D01*
X12985191Y-15800936D01*
X12966143Y-15791412D01*
X12956619Y-15781888D01*
X12947096Y-15762841D01*
X12937572Y-15724746D01*
X12937572Y-15677127D01*
X12947096Y-15639031D01*
X12956619Y-15619984D01*
X12966143Y-15610460D01*
X12985191Y-15600936D01*
X13137572Y-15800936D02*
X13137572Y-15667603D01*
X13137572Y-15686650D02*
X13147096Y-15677127D01*
X13166143Y-15667603D01*
X13194715Y-15667603D01*
X13213762Y-15677127D01*
X13223286Y-15696174D01*
X13223286Y-15800936D01*
X13223286Y-15696174D02*
X13232810Y-15677127D01*
X13251858Y-15667603D01*
X13280429Y-15667603D01*
X13299477Y-15677127D01*
X13309000Y-15696174D01*
X13309000Y-15800936D01*
X13404238Y-15800936D02*
X13404238Y-15667603D01*
X13404238Y-15686650D02*
X13413762Y-15677127D01*
X13432810Y-15667603D01*
X13461381Y-15667603D01*
X13480429Y-15677127D01*
X13489953Y-15696174D01*
X13489953Y-15800936D01*
X13489953Y-15696174D02*
X13499477Y-15677127D01*
X13518524Y-15667603D01*
X13547096Y-15667603D01*
X13566143Y-15677127D01*
X13575667Y-15696174D01*
X13575667Y-15800936D01*
X13966143Y-15591412D02*
X13794715Y-15848555D01*
X14223286Y-15600936D02*
X14242334Y-15600936D01*
X14261381Y-15610460D01*
X14270905Y-15619984D01*
X14280429Y-15639031D01*
X14289953Y-15677127D01*
X14289953Y-15724746D01*
X14280429Y-15762841D01*
X14270905Y-15781888D01*
X14261381Y-15791412D01*
X14242334Y-15800936D01*
X14223286Y-15800936D01*
X14204238Y-15791412D01*
X14194715Y-15781888D01*
X14185191Y-15762841D01*
X14175667Y-15724746D01*
X14175667Y-15677127D01*
X14185191Y-15639031D01*
X14194715Y-15619984D01*
X14204238Y-15610460D01*
X14223286Y-15600936D01*
X14375667Y-15781888D02*
X14385191Y-15791412D01*
X14375667Y-15800936D01*
X14366143Y-15791412D01*
X14375667Y-15781888D01*
X14375667Y-15800936D01*
X14509000Y-15600936D02*
X14528048Y-15600936D01*
X14547096Y-15610460D01*
X14556619Y-15619984D01*
X14566143Y-15639031D01*
X14575667Y-15677127D01*
X14575667Y-15724746D01*
X14566143Y-15762841D01*
X14556619Y-15781888D01*
X14547096Y-15791412D01*
X14528048Y-15800936D01*
X14509000Y-15800936D01*
X14489953Y-15791412D01*
X14480429Y-15781888D01*
X14470905Y-15762841D01*
X14461381Y-15724746D01*
X14461381Y-15677127D01*
X14470905Y-15639031D01*
X14480429Y-15619984D01*
X14489953Y-15610460D01*
X14509000Y-15600936D01*
X14747096Y-15667603D02*
X14747096Y-15800936D01*
X14699477Y-15591412D02*
X14651858Y-15734269D01*
X14775667Y-15734269D01*
X14832810Y-15600936D02*
X14966143Y-15600936D01*
X14880429Y-15800936D01*
X15032810Y-15619984D02*
X15042334Y-15610460D01*
X15061381Y-15600936D01*
X15109000Y-15600936D01*
X15128048Y-15610460D01*
X15137572Y-15619984D01*
X15147096Y-15639031D01*
X15147096Y-15658079D01*
X15137572Y-15686650D01*
X15023286Y-15800936D01*
X15147096Y-15800936D01*
X15223286Y-15600936D02*
X15223286Y-15639031D01*
X15299477Y-15600936D02*
X15299477Y-15639031D01*
X15594715Y-15877127D02*
X15585191Y-15867603D01*
X15566143Y-15839031D01*
X15556619Y-15819984D01*
X15547096Y-15791412D01*
X15537572Y-15743793D01*
X15537572Y-15705698D01*
X15547096Y-15658079D01*
X15556619Y-15629508D01*
X15566143Y-15610460D01*
X15585191Y-15581888D01*
X15594715Y-15572365D01*
X15699477Y-15686650D02*
X15680429Y-15677127D01*
X15670905Y-15667603D01*
X15661381Y-15648555D01*
X15661381Y-15639031D01*
X15670905Y-15619984D01*
X15680429Y-15610460D01*
X15699477Y-15600936D01*
X15737572Y-15600936D01*
X15756619Y-15610460D01*
X15766143Y-15619984D01*
X15775667Y-15639031D01*
X15775667Y-15648555D01*
X15766143Y-15667603D01*
X15756619Y-15677127D01*
X15737572Y-15686650D01*
X15699477Y-15686650D01*
X15680429Y-15696174D01*
X15670905Y-15705698D01*
X15661381Y-15724746D01*
X15661381Y-15762841D01*
X15670905Y-15781888D01*
X15680429Y-15791412D01*
X15699477Y-15800936D01*
X15737572Y-15800936D01*
X15756619Y-15791412D01*
X15766143Y-15781888D01*
X15775667Y-15762841D01*
X15775667Y-15724746D01*
X15766143Y-15705698D01*
X15756619Y-15696174D01*
X15737572Y-15686650D01*
X16013762Y-15800936D02*
X16013762Y-15600936D01*
X16099477Y-15800936D02*
X16099477Y-15696174D01*
X16089953Y-15677127D01*
X16070905Y-15667603D01*
X16042334Y-15667603D01*
X16023286Y-15677127D01*
X16013762Y-15686650D01*
X16223286Y-15800936D02*
X16204238Y-15791412D01*
X16194715Y-15781888D01*
X16185191Y-15762841D01*
X16185191Y-15705698D01*
X16194715Y-15686650D01*
X16204238Y-15677127D01*
X16223286Y-15667603D01*
X16251858Y-15667603D01*
X16270905Y-15677127D01*
X16280429Y-15686650D01*
X16289953Y-15705698D01*
X16289953Y-15762841D01*
X16280429Y-15781888D01*
X16270905Y-15791412D01*
X16251858Y-15800936D01*
X16223286Y-15800936D01*
X16404238Y-15800936D02*
X16385191Y-15791412D01*
X16375667Y-15772365D01*
X16375667Y-15600936D01*
X16556619Y-15791412D02*
X16537572Y-15800936D01*
X16499477Y-15800936D01*
X16480429Y-15791412D01*
X16470905Y-15772365D01*
X16470905Y-15696174D01*
X16480429Y-15677127D01*
X16499477Y-15667603D01*
X16537572Y-15667603D01*
X16556619Y-15677127D01*
X16566143Y-15696174D01*
X16566143Y-15715222D01*
X16470905Y-15734269D01*
X16642334Y-15791412D02*
X16661381Y-15800936D01*
X16699477Y-15800936D01*
X16718524Y-15791412D01*
X16728048Y-15772365D01*
X16728048Y-15762841D01*
X16718524Y-15743793D01*
X16699477Y-15734269D01*
X16670905Y-15734269D01*
X16651858Y-15724746D01*
X16642334Y-15705698D01*
X16642334Y-15696174D01*
X16651858Y-15677127D01*
X16670905Y-15667603D01*
X16699477Y-15667603D01*
X16718524Y-15677127D01*
X16794715Y-15877127D02*
X16804239Y-15867603D01*
X16823286Y-15839031D01*
X16832810Y-15819984D01*
X16842334Y-15791412D01*
X16851858Y-15743793D01*
X16851858Y-15705698D01*
X16842334Y-15658079D01*
X16832810Y-15629508D01*
X16823286Y-15610460D01*
X16804239Y-15581888D01*
X16794715Y-15572365D01*
D15*
X11957810Y-16039460D02*
X12022810Y-15974460D01*
X11957810Y-15909460D01*
X11892810Y-15974460D01*
X11957810Y-16039460D01*
D10*
X12385191Y-16064936D02*
X12270905Y-16064936D01*
X12328048Y-16064936D02*
X12328048Y-15864936D01*
X12309000Y-15893508D01*
X12289953Y-15912555D01*
X12270905Y-15922079D01*
X12470905Y-16045888D02*
X12480429Y-16055412D01*
X12470905Y-16064936D01*
X12461381Y-16055412D01*
X12470905Y-16045888D01*
X12470905Y-16064936D01*
X12547096Y-15864936D02*
X12670905Y-15864936D01*
X12604238Y-15941127D01*
X12632810Y-15941127D01*
X12651858Y-15950650D01*
X12661381Y-15960174D01*
X12670905Y-15979222D01*
X12670905Y-16026841D01*
X12661381Y-16045888D01*
X12651858Y-16055412D01*
X12632810Y-16064936D01*
X12575667Y-16064936D01*
X12556619Y-16055412D01*
X12547096Y-16045888D01*
X12794715Y-15864936D02*
X12813762Y-15864936D01*
X12832810Y-15874460D01*
X12842334Y-15883984D01*
X12851858Y-15903031D01*
X12861381Y-15941127D01*
X12861381Y-15988746D01*
X12851858Y-16026841D01*
X12842334Y-16045888D01*
X12832810Y-16055412D01*
X12813762Y-16064936D01*
X12794715Y-16064936D01*
X12775667Y-16055412D01*
X12766143Y-16045888D01*
X12756619Y-16026841D01*
X12747096Y-15988746D01*
X12747096Y-15941127D01*
X12756619Y-15903031D01*
X12766143Y-15883984D01*
X12775667Y-15874460D01*
X12794715Y-15864936D01*
X12985191Y-15864936D02*
X13004238Y-15864936D01*
X13023286Y-15874460D01*
X13032810Y-15883984D01*
X13042334Y-15903031D01*
X13051858Y-15941127D01*
X13051858Y-15988746D01*
X13042334Y-16026841D01*
X13032810Y-16045888D01*
X13023286Y-16055412D01*
X13004238Y-16064936D01*
X12985191Y-16064936D01*
X12966143Y-16055412D01*
X12956619Y-16045888D01*
X12947096Y-16026841D01*
X12937572Y-15988746D01*
X12937572Y-15941127D01*
X12947096Y-15903031D01*
X12956619Y-15883984D01*
X12966143Y-15874460D01*
X12985191Y-15864936D01*
X13137572Y-16064936D02*
X13137572Y-15931603D01*
X13137572Y-15950650D02*
X13147096Y-15941127D01*
X13166143Y-15931603D01*
X13194715Y-15931603D01*
X13213762Y-15941127D01*
X13223286Y-15960174D01*
X13223286Y-16064936D01*
X13223286Y-15960174D02*
X13232810Y-15941127D01*
X13251858Y-15931603D01*
X13280429Y-15931603D01*
X13299477Y-15941127D01*
X13309000Y-15960174D01*
X13309000Y-16064936D01*
X13404238Y-16064936D02*
X13404238Y-15931603D01*
X13404238Y-15950650D02*
X13413762Y-15941127D01*
X13432810Y-15931603D01*
X13461381Y-15931603D01*
X13480429Y-15941127D01*
X13489953Y-15960174D01*
X13489953Y-16064936D01*
X13489953Y-15960174D02*
X13499477Y-15941127D01*
X13518524Y-15931603D01*
X13547096Y-15931603D01*
X13566143Y-15941127D01*
X13575667Y-15960174D01*
X13575667Y-16064936D01*
X13966143Y-15855412D02*
X13794715Y-16112555D01*
X14223286Y-15864936D02*
X14242334Y-15864936D01*
X14261381Y-15874460D01*
X14270905Y-15883984D01*
X14280429Y-15903031D01*
X14289953Y-15941127D01*
X14289953Y-15988746D01*
X14280429Y-16026841D01*
X14270905Y-16045888D01*
X14261381Y-16055412D01*
X14242334Y-16064936D01*
X14223286Y-16064936D01*
X14204238Y-16055412D01*
X14194715Y-16045888D01*
X14185191Y-16026841D01*
X14175667Y-15988746D01*
X14175667Y-15941127D01*
X14185191Y-15903031D01*
X14194715Y-15883984D01*
X14204238Y-15874460D01*
X14223286Y-15864936D01*
X14375667Y-16045888D02*
X14385191Y-16055412D01*
X14375667Y-16064936D01*
X14366143Y-16055412D01*
X14375667Y-16045888D01*
X14375667Y-16064936D01*
X14509000Y-15864936D02*
X14528048Y-15864936D01*
X14547096Y-15874460D01*
X14556619Y-15883984D01*
X14566143Y-15903031D01*
X14575667Y-15941127D01*
X14575667Y-15988746D01*
X14566143Y-16026841D01*
X14556619Y-16045888D01*
X14547096Y-16055412D01*
X14528048Y-16064936D01*
X14509000Y-16064936D01*
X14489953Y-16055412D01*
X14480429Y-16045888D01*
X14470905Y-16026841D01*
X14461381Y-15988746D01*
X14461381Y-15941127D01*
X14470905Y-15903031D01*
X14480429Y-15883984D01*
X14489953Y-15874460D01*
X14509000Y-15864936D01*
X14756619Y-15864936D02*
X14661381Y-15864936D01*
X14651858Y-15960174D01*
X14661381Y-15950650D01*
X14680429Y-15941127D01*
X14728048Y-15941127D01*
X14747096Y-15950650D01*
X14756619Y-15960174D01*
X14766143Y-15979222D01*
X14766143Y-16026841D01*
X14756619Y-16045888D01*
X14747096Y-16055412D01*
X14728048Y-16064936D01*
X14680429Y-16064936D01*
X14661381Y-16055412D01*
X14651858Y-16045888D01*
X14956619Y-16064936D02*
X14842334Y-16064936D01*
X14899477Y-16064936D02*
X14899477Y-15864936D01*
X14880429Y-15893508D01*
X14861381Y-15912555D01*
X14842334Y-15922079D01*
X15032810Y-15883984D02*
X15042334Y-15874460D01*
X15061381Y-15864936D01*
X15109000Y-15864936D01*
X15128048Y-15874460D01*
X15137572Y-15883984D01*
X15147096Y-15903031D01*
X15147096Y-15922079D01*
X15137572Y-15950650D01*
X15023286Y-16064936D01*
X15147096Y-16064936D01*
X15223286Y-15864936D02*
X15223286Y-15903031D01*
X15299477Y-15864936D02*
X15299477Y-15903031D01*
X15594715Y-16141127D02*
X15585191Y-16131603D01*
X15566143Y-16103031D01*
X15556619Y-16083984D01*
X15547096Y-16055412D01*
X15537572Y-16007793D01*
X15537572Y-15969698D01*
X15547096Y-15922079D01*
X15556619Y-15893508D01*
X15566143Y-15874460D01*
X15585191Y-15845888D01*
X15594715Y-15836365D01*
X15775667Y-16064936D02*
X15661381Y-16064936D01*
X15718524Y-16064936D02*
X15718524Y-15864936D01*
X15699477Y-15893508D01*
X15680429Y-15912555D01*
X15661381Y-15922079D01*
X15851858Y-15883984D02*
X15861381Y-15874460D01*
X15880429Y-15864936D01*
X15928048Y-15864936D01*
X15947096Y-15874460D01*
X15956619Y-15883984D01*
X15966143Y-15903031D01*
X15966143Y-15922079D01*
X15956619Y-15950650D01*
X15842334Y-16064936D01*
X15966143Y-16064936D01*
X16204238Y-16064936D02*
X16204238Y-15864936D01*
X16289953Y-16064936D02*
X16289953Y-15960174D01*
X16280429Y-15941127D01*
X16261381Y-15931603D01*
X16232810Y-15931603D01*
X16213762Y-15941127D01*
X16204238Y-15950650D01*
X16413762Y-16064936D02*
X16394715Y-16055412D01*
X16385191Y-16045888D01*
X16375667Y-16026841D01*
X16375667Y-15969698D01*
X16385191Y-15950650D01*
X16394715Y-15941127D01*
X16413762Y-15931603D01*
X16442334Y-15931603D01*
X16461381Y-15941127D01*
X16470905Y-15950650D01*
X16480429Y-15969698D01*
X16480429Y-16026841D01*
X16470905Y-16045888D01*
X16461381Y-16055412D01*
X16442334Y-16064936D01*
X16413762Y-16064936D01*
X16594715Y-16064936D02*
X16575667Y-16055412D01*
X16566143Y-16036365D01*
X16566143Y-15864936D01*
X16747096Y-16055412D02*
X16728048Y-16064936D01*
X16689953Y-16064936D01*
X16670905Y-16055412D01*
X16661381Y-16036365D01*
X16661381Y-15960174D01*
X16670905Y-15941127D01*
X16689953Y-15931603D01*
X16728048Y-15931603D01*
X16747096Y-15941127D01*
X16756619Y-15960174D01*
X16756619Y-15979222D01*
X16661381Y-15998269D01*
X16832810Y-16055412D02*
X16851858Y-16064936D01*
X16889953Y-16064936D01*
X16909000Y-16055412D01*
X16918524Y-16036365D01*
X16918524Y-16026841D01*
X16909000Y-16007793D01*
X16889953Y-15998269D01*
X16861381Y-15998269D01*
X16842334Y-15988746D01*
X16832810Y-15969698D01*
X16832810Y-15960174D01*
X16842334Y-15941127D01*
X16861381Y-15931603D01*
X16889953Y-15931603D01*
X16909000Y-15941127D01*
X16985191Y-16141127D02*
X16994715Y-16131603D01*
X17013762Y-16103031D01*
X17023286Y-16083984D01*
X17032810Y-16055412D01*
X17042334Y-16007793D01*
X17042334Y-15969698D01*
X17032810Y-15922079D01*
X17023286Y-15893508D01*
X17013762Y-15874460D01*
X16994715Y-15845888D01*
X16985191Y-15836365D01*
M02*
