%FSLAX45Y45*%
G04 Gerber Fmt 4.5, Leading zero omitted, Abs format (unit mm)*
G04 Created by KiCad (PCBNEW 6.0.2+dfsg-1) date 2025-05-07 10:44:56*
%MOMM*%
%LPD*%
G01*
G04 APERTURE LIST*
%ADD10C,0.200000*%
%ADD11C,0.040000*%
%ADD12C,0.080000*%
%ADD13C,0.100000*%
%ADD14C,0.120000*%
%ADD15C,0.130000*%
G04 APERTURE END LIST*
D10*
D11*
X12299760Y-13687670D02*
X12339760Y-13727670D01*
X12339760Y-13687670D02*
X12299760Y-13727670D01*
X12380680Y-11336530D02*
X12420680Y-11376530D01*
X12420680Y-11336530D02*
X12380680Y-11376530D01*
X12707400Y-10895490D02*
X12747400Y-10935490D01*
X12747400Y-10895490D02*
X12707400Y-10935490D01*
X13188330Y-11467100D02*
X13228330Y-11507100D01*
X13228330Y-11467100D02*
X13188330Y-11507100D01*
X13223490Y-13161400D02*
X13263490Y-13201400D01*
X13263490Y-13161400D02*
X13223490Y-13201400D01*
X13477040Y-12768120D02*
X13517040Y-12808120D01*
X13517040Y-12768120D02*
X13477040Y-12808120D01*
X13530210Y-11450090D02*
X13570210Y-11490090D01*
X13570210Y-11450090D02*
X13530210Y-11490090D01*
X13563780Y-11674360D02*
X13603780Y-11714360D01*
X13603780Y-11674360D02*
X13563780Y-11714360D01*
X13722890Y-11901140D02*
X13762890Y-11941140D01*
X13762890Y-11901140D02*
X13722890Y-11941140D01*
X13774460Y-12059980D02*
X13814460Y-12099980D01*
X13814460Y-12059980D02*
X13774460Y-12099980D01*
X13857770Y-11301950D02*
X13897770Y-11341950D01*
X13897770Y-11301950D02*
X13857770Y-11341950D01*
X13864160Y-11402150D02*
X13904160Y-11442150D01*
X13904160Y-11402150D02*
X13864160Y-11442150D01*
X13906850Y-12439190D02*
X13946850Y-12479190D01*
X13946850Y-12439190D02*
X13906850Y-12479190D01*
X13991690Y-12378730D02*
X14031690Y-12418730D01*
X14031690Y-12378730D02*
X13991690Y-12418730D01*
X14009550Y-11425720D02*
X14049550Y-11465720D01*
X14049550Y-11425720D02*
X14009550Y-11465720D01*
X14123890Y-11795200D02*
X14163890Y-11835200D01*
X14163890Y-11795200D02*
X14123890Y-11835200D01*
X14154940Y-11380470D02*
X14194940Y-11420470D01*
X14194940Y-11380470D02*
X14154940Y-11420470D01*
X14262400Y-11542530D02*
X14302400Y-11582530D01*
X14302400Y-11542530D02*
X14262400Y-11582530D01*
X14262550Y-12693730D02*
X14302550Y-12733730D01*
X14302550Y-12693730D02*
X14262550Y-12733730D01*
X14278520Y-11256540D02*
X14318520Y-11296540D01*
X14318520Y-11256540D02*
X14278520Y-11296540D01*
X14278850Y-12044540D02*
X14318850Y-12084540D01*
X14318850Y-12044540D02*
X14278850Y-12084540D01*
X14301070Y-10827660D02*
X14341070Y-10867660D01*
X14341070Y-10827660D02*
X14301070Y-10867660D01*
X14334260Y-12445150D02*
X14374260Y-12485150D01*
X14374260Y-12445150D02*
X14334260Y-12485150D01*
X14353700Y-11615490D02*
X14393700Y-11655490D01*
X14393700Y-11615490D02*
X14353700Y-11655490D01*
X14362000Y-12208660D02*
X14402000Y-12248660D01*
X14402000Y-12208660D02*
X14362000Y-12248660D01*
X14363490Y-12103310D02*
X14403490Y-12143310D01*
X14403490Y-12103310D02*
X14363490Y-12143310D01*
X14417120Y-12774990D02*
X14457120Y-12814990D01*
X14457120Y-12774990D02*
X14417120Y-12814990D01*
X14418830Y-10665110D02*
X14458830Y-10705110D01*
X14458830Y-10665110D02*
X14418830Y-10705110D01*
X14421180Y-11185290D02*
X14461180Y-11225290D01*
X14461180Y-11185290D02*
X14421180Y-11225290D01*
X14472620Y-12936070D02*
X14512620Y-12976070D01*
X14512620Y-12936070D02*
X14472620Y-12976070D01*
X14503930Y-13195250D02*
X14543930Y-13235250D01*
X14543930Y-13195250D02*
X14503930Y-13235250D01*
X14535400Y-11059690D02*
X14575400Y-11099690D01*
X14575400Y-11059690D02*
X14535400Y-11099690D01*
X14537450Y-11164480D02*
X14577450Y-11204480D01*
X14577450Y-11164480D02*
X14537450Y-11204480D01*
X14546110Y-11435770D02*
X14586110Y-11475770D01*
X14586110Y-11435770D02*
X14546110Y-11475770D01*
X14555020Y-11807200D02*
X14595020Y-11847200D01*
X14595020Y-11807200D02*
X14555020Y-11847200D01*
X14560590Y-13013390D02*
X14600590Y-13053390D01*
X14600590Y-13013390D02*
X14560590Y-13053390D01*
X14608250Y-13184790D02*
X14648250Y-13224790D01*
X14648250Y-13184790D02*
X14608250Y-13224790D01*
X14629180Y-10958010D02*
X14669180Y-10998010D01*
X14669180Y-10958010D02*
X14629180Y-10998010D01*
X14661760Y-12507990D02*
X14701760Y-12547990D01*
X14701760Y-12507990D02*
X14661760Y-12547990D01*
X14668580Y-11089980D02*
X14708580Y-11129980D01*
X14708580Y-11089980D02*
X14668580Y-11129980D01*
X14691660Y-7913410D02*
X14731660Y-7953410D01*
X14731660Y-7913410D02*
X14691660Y-7953410D01*
X14718310Y-10847850D02*
X14758310Y-10887850D01*
X14758310Y-10847850D02*
X14718310Y-10887850D01*
X14807800Y-11159640D02*
X14847800Y-11199640D01*
X14847800Y-11159640D02*
X14807800Y-11199640D01*
X14860670Y-11897010D02*
X14900670Y-11937010D01*
X14900670Y-11897010D02*
X14860670Y-11937010D01*
X14884420Y-7426920D02*
X14924420Y-7466920D01*
X14924420Y-7426920D02*
X14884420Y-7466920D01*
X14920100Y-11659120D02*
X14960100Y-11699120D01*
X14960100Y-11659120D02*
X14920100Y-11699120D01*
X14934820Y-11407950D02*
X14974820Y-11447950D01*
X14974820Y-11407950D02*
X14934820Y-11447950D01*
X15060790Y-12186210D02*
X15100790Y-12226210D01*
X15100790Y-12186210D02*
X15060790Y-12226210D01*
X15064240Y-12082230D02*
X15104240Y-12122230D01*
X15104240Y-12082230D02*
X15064240Y-12122230D01*
X15073830Y-11683980D02*
X15113830Y-11723980D01*
X15113830Y-11683980D02*
X15073830Y-11723980D01*
X15128220Y-11591880D02*
X15168220Y-11631880D01*
X15168220Y-11591880D02*
X15128220Y-11631880D01*
X15134780Y-8471100D02*
X15174780Y-8511100D01*
X15174780Y-8471100D02*
X15134780Y-8511100D01*
X15159370Y-7601460D02*
X15199370Y-7641460D01*
X15199370Y-7601460D02*
X15159370Y-7641460D01*
X15165330Y-12044420D02*
X15205330Y-12084420D01*
X15205330Y-12044420D02*
X15165330Y-12084420D01*
X15175080Y-10441700D02*
X15215080Y-10481700D01*
X15215080Y-10441700D02*
X15175080Y-10481700D01*
X15217800Y-11539750D02*
X15257800Y-11579750D01*
X15257800Y-11539750D02*
X15217800Y-11579750D01*
X15223540Y-11344670D02*
X15263540Y-11384670D01*
X15263540Y-11344670D02*
X15223540Y-11384670D01*
X15237420Y-9290670D02*
X15277420Y-9330670D01*
X15277420Y-9290670D02*
X15237420Y-9330670D01*
X15246540Y-12262650D02*
X15286540Y-12302650D01*
X15286540Y-12262650D02*
X15246540Y-12302650D01*
X15286330Y-11959370D02*
X15326330Y-11999370D01*
X15326330Y-11959370D02*
X15286330Y-11999370D01*
X15295610Y-9171750D02*
X15335610Y-9211750D01*
X15335610Y-9171750D02*
X15295610Y-9211750D01*
X15318420Y-11826050D02*
X15358420Y-11866050D01*
X15358420Y-11826050D02*
X15318420Y-11866050D01*
X15333700Y-10660670D02*
X15373700Y-10700670D01*
X15373700Y-10660670D02*
X15333700Y-10700670D01*
X15355240Y-12262770D02*
X15395240Y-12302770D01*
X15395240Y-12262770D02*
X15355240Y-12302770D01*
X15432760Y-12506800D02*
X15472760Y-12546800D01*
X15472760Y-12506800D02*
X15432760Y-12546800D01*
X15482710Y-10019540D02*
X15522710Y-10059540D01*
X15522710Y-10019540D02*
X15482710Y-10059540D01*
X15516500Y-9329780D02*
X15556500Y-9369780D01*
X15556500Y-9329780D02*
X15516500Y-9369780D01*
X15552140Y-11920350D02*
X15592140Y-11960350D01*
X15592140Y-11920350D02*
X15552140Y-11960350D01*
X15623840Y-11756020D02*
X15663840Y-11796020D01*
X15663840Y-11756020D02*
X15623840Y-11796020D01*
X15693970Y-12600190D02*
X15733970Y-12640190D01*
X15733970Y-12600190D02*
X15693970Y-12640190D01*
X15829870Y-11165720D02*
X15869870Y-11205720D01*
X15869870Y-11165720D02*
X15829870Y-11205720D01*
X15880400Y-12171940D02*
X15920400Y-12211940D01*
X15920400Y-12171940D02*
X15880400Y-12211940D01*
X16040100Y-8851210D02*
X16080100Y-8891210D01*
X16080100Y-8851210D02*
X16040100Y-8891210D01*
X16123210Y-11007790D02*
X16163210Y-11047790D01*
X16163210Y-11007790D02*
X16123210Y-11047790D01*
X16127120Y-10905980D02*
X16167120Y-10945980D01*
X16167120Y-10905980D02*
X16127120Y-10945980D01*
X16191500Y-11712610D02*
X16231500Y-11752610D01*
X16231500Y-11712610D02*
X16191500Y-11752610D01*
X16307510Y-13266100D02*
X16347510Y-13306100D01*
X16347510Y-13266100D02*
X16307510Y-13306100D01*
X16307610Y-11934090D02*
X16347610Y-11974090D01*
X16347610Y-11934090D02*
X16307610Y-11974090D01*
X16347550Y-11422540D02*
X16387550Y-11462540D01*
X16387550Y-11422540D02*
X16347550Y-11462540D01*
X16445300Y-13021060D02*
X16485300Y-13061060D01*
X16485300Y-13021060D02*
X16445300Y-13061060D01*
X16518380Y-12874240D02*
X16558380Y-12914240D01*
X16558380Y-12874240D02*
X16518380Y-12914240D01*
X16586000Y-12665950D02*
X16626000Y-12705950D01*
X16626000Y-12665950D02*
X16586000Y-12705950D01*
X16733290Y-11612000D02*
X16773290Y-11652000D01*
X16773290Y-11612000D02*
X16733290Y-11652000D01*
X16797240Y-9880940D02*
X16837240Y-9920940D01*
X16837240Y-9880940D02*
X16797240Y-9920940D01*
X16805900Y-11444000D02*
X16845900Y-11484000D01*
X16845900Y-11444000D02*
X16805900Y-11484000D01*
X16923240Y-10034270D02*
X16963240Y-10074270D01*
X16963240Y-10034270D02*
X16923240Y-10074270D01*
X16942780Y-11399140D02*
X16982780Y-11439140D01*
X16982780Y-11399140D02*
X16942780Y-11439140D01*
X17125650Y-11473700D02*
X17165650Y-11513700D01*
X17165650Y-11473700D02*
X17125650Y-11513700D01*
X17313360Y-13671200D02*
X17353360Y-13711200D01*
X17353360Y-13671200D02*
X17313360Y-13711200D01*
D12*
X12559310Y-12649200D02*
G75*
G03*
X12559310Y-12649200I-40000J0D01*
G01*
X12759310Y-12649200D02*
G75*
G03*
X12759310Y-12649200I-40000J0D01*
G01*
X15939900Y-7285460D02*
G75*
G03*
X15939900Y-7285460I-40000J0D01*
G01*
X15939900Y-7539460D02*
G75*
G03*
X15939900Y-7539460I-40000J0D01*
G01*
X15939900Y-7793460D02*
G75*
G03*
X15939900Y-7793460I-40000J0D01*
G01*
X15939900Y-8047460D02*
G75*
G03*
X15939900Y-8047460I-40000J0D01*
G01*
X15939900Y-8301460D02*
G75*
G03*
X15939900Y-8301460I-40000J0D01*
G01*
X15939900Y-8555460D02*
G75*
G03*
X15939900Y-8555460I-40000J0D01*
G01*
X15939900Y-8809460D02*
G75*
G03*
X15939900Y-8809460I-40000J0D01*
G01*
X15939900Y-9063460D02*
G75*
G03*
X15939900Y-9063460I-40000J0D01*
G01*
X15939900Y-9317460D02*
G75*
G03*
X15939900Y-9317460I-40000J0D01*
G01*
X15939900Y-9571460D02*
G75*
G03*
X15939900Y-9571460I-40000J0D01*
G01*
X15939900Y-9825460D02*
G75*
G03*
X15939900Y-9825460I-40000J0D01*
G01*
X15939900Y-10079460D02*
G75*
G03*
X15939900Y-10079460I-40000J0D01*
G01*
X15939900Y-10333460D02*
G75*
G03*
X15939900Y-10333460I-40000J0D01*
G01*
X15939900Y-10587460D02*
G75*
G03*
X15939900Y-10587460I-40000J0D01*
G01*
X17463900Y-7285460D02*
G75*
G03*
X17463900Y-7285460I-40000J0D01*
G01*
X17463900Y-7539460D02*
G75*
G03*
X17463900Y-7539460I-40000J0D01*
G01*
X17463900Y-7793460D02*
G75*
G03*
X17463900Y-7793460I-40000J0D01*
G01*
X17463900Y-8047460D02*
G75*
G03*
X17463900Y-8047460I-40000J0D01*
G01*
X17463900Y-8301460D02*
G75*
G03*
X17463900Y-8301460I-40000J0D01*
G01*
X17463900Y-8555460D02*
G75*
G03*
X17463900Y-8555460I-40000J0D01*
G01*
X17463900Y-8809460D02*
G75*
G03*
X17463900Y-8809460I-40000J0D01*
G01*
X17463900Y-9063460D02*
G75*
G03*
X17463900Y-9063460I-40000J0D01*
G01*
X17463900Y-9317460D02*
G75*
G03*
X17463900Y-9317460I-40000J0D01*
G01*
X17463900Y-9571460D02*
G75*
G03*
X17463900Y-9571460I-40000J0D01*
G01*
X17463900Y-9825460D02*
G75*
G03*
X17463900Y-9825460I-40000J0D01*
G01*
X17463900Y-10079460D02*
G75*
G03*
X17463900Y-10079460I-40000J0D01*
G01*
X17463900Y-10333460D02*
G75*
G03*
X17463900Y-10333460I-40000J0D01*
G01*
X17463900Y-10587460D02*
G75*
G03*
X17463900Y-10587460I-40000J0D01*
G01*
D13*
X12396700Y-12015000D02*
X12396700Y-12115000D01*
X12346700Y-12065000D02*
X12446700Y-12065000D01*
X12650700Y-12015000D02*
X12650700Y-12115000D01*
X12600700Y-12065000D02*
X12700700Y-12065000D01*
X12904700Y-12015000D02*
X12904700Y-12115000D01*
X12854700Y-12065000D02*
X12954700Y-12065000D01*
X17399000Y-11049800D02*
X17399000Y-11149800D01*
X17349000Y-11099800D02*
X17449000Y-11099800D01*
X17399000Y-11303800D02*
X17399000Y-11403800D01*
X17349000Y-11353800D02*
X17449000Y-11353800D01*
X17399000Y-11557800D02*
X17399000Y-11657800D01*
X17349000Y-11607800D02*
X17449000Y-11607800D01*
X17399000Y-11811800D02*
X17399000Y-11911800D01*
X17349000Y-11861800D02*
X17449000Y-11861800D01*
X17399000Y-12065800D02*
X17399000Y-12165800D01*
X17349000Y-12115800D02*
X17449000Y-12115800D01*
X17399000Y-12319800D02*
X17399000Y-12419800D01*
X17349000Y-12369800D02*
X17449000Y-12369800D01*
D14*
X12590027Y-5401827D02*
X12590027Y-5316973D01*
X12505173Y-5316973D01*
X12505173Y-5401827D01*
X12590027Y-5401827D01*
X12840027Y-5371827D02*
X12840027Y-5286973D01*
X12755173Y-5286973D01*
X12755173Y-5371827D01*
X12840027Y-5371827D01*
X13340027Y-5371827D02*
X13340027Y-5286973D01*
X13255173Y-5286973D01*
X13255173Y-5371827D01*
X13340027Y-5371827D01*
X13590027Y-5401827D02*
X13590027Y-5316973D01*
X13505173Y-5316973D01*
X13505173Y-5401827D01*
X13590027Y-5401827D01*
X16128627Y-5401827D02*
X16128627Y-5316973D01*
X16043773Y-5316973D01*
X16043773Y-5401827D01*
X16128627Y-5401827D01*
X16378627Y-5371827D02*
X16378627Y-5286973D01*
X16293773Y-5286973D01*
X16293773Y-5371827D01*
X16378627Y-5371827D01*
X16878627Y-5371827D02*
X16878627Y-5286973D01*
X16793773Y-5286973D01*
X16793773Y-5371827D01*
X16878627Y-5371827D01*
X17128627Y-5401827D02*
X17128627Y-5316973D01*
X17043773Y-5316973D01*
X17043773Y-5401827D01*
X17128627Y-5401827D01*
D15*
X12297600Y-6394400D02*
X12362600Y-6329400D01*
X12297600Y-6264400D01*
X12232600Y-6329400D01*
X12297600Y-6394400D01*
X12547600Y-6644400D02*
X12612600Y-6579400D01*
X12547600Y-6514400D01*
X12482600Y-6579400D01*
X12547600Y-6644400D01*
X13047600Y-6394400D02*
X13112600Y-6329400D01*
X13047600Y-6264400D01*
X12982600Y-6329400D01*
X13047600Y-6394400D01*
X13047600Y-6894400D02*
X13112600Y-6829400D01*
X13047600Y-6764400D01*
X12982600Y-6829400D01*
X13047600Y-6894400D01*
X13547600Y-6644400D02*
X13612600Y-6579400D01*
X13547600Y-6514400D01*
X13482600Y-6579400D01*
X13547600Y-6644400D01*
X13797600Y-6394400D02*
X13862600Y-6329400D01*
X13797600Y-6264400D01*
X13732600Y-6329400D01*
X13797600Y-6394400D01*
X15836200Y-6394400D02*
X15901200Y-6329400D01*
X15836200Y-6264400D01*
X15771200Y-6329400D01*
X15836200Y-6394400D01*
X16086200Y-6644400D02*
X16151200Y-6579400D01*
X16086200Y-6514400D01*
X16021200Y-6579400D01*
X16086200Y-6644400D01*
X16586200Y-6394400D02*
X16651200Y-6329400D01*
X16586200Y-6264400D01*
X16521200Y-6329400D01*
X16586200Y-6394400D01*
X16586200Y-6894400D02*
X16651200Y-6829400D01*
X16586200Y-6764400D01*
X16521200Y-6829400D01*
X16586200Y-6894400D01*
X17086200Y-6644400D02*
X17151200Y-6579400D01*
X17086200Y-6514400D01*
X17021200Y-6579400D01*
X17086200Y-6644400D01*
X17336200Y-6394400D02*
X17401200Y-6329400D01*
X17336200Y-6264400D01*
X17271200Y-6329400D01*
X17336200Y-6394400D01*
D10*
X12280429Y-14588936D02*
X12280429Y-14388936D01*
X12328048Y-14388936D01*
X12356619Y-14398460D01*
X12375667Y-14417508D01*
X12385191Y-14436555D01*
X12394715Y-14474650D01*
X12394715Y-14503222D01*
X12385191Y-14541317D01*
X12375667Y-14560365D01*
X12356619Y-14579412D01*
X12328048Y-14588936D01*
X12280429Y-14588936D01*
X12480429Y-14588936D02*
X12480429Y-14455603D01*
X12480429Y-14493698D02*
X12489953Y-14474650D01*
X12499477Y-14465127D01*
X12518524Y-14455603D01*
X12537572Y-14455603D01*
X12604238Y-14588936D02*
X12604238Y-14455603D01*
X12604238Y-14388936D02*
X12594715Y-14398460D01*
X12604238Y-14407984D01*
X12613762Y-14398460D01*
X12604238Y-14388936D01*
X12604238Y-14407984D01*
X12728048Y-14588936D02*
X12709000Y-14579412D01*
X12699477Y-14560365D01*
X12699477Y-14388936D01*
X12832810Y-14588936D02*
X12813762Y-14579412D01*
X12804238Y-14560365D01*
X12804238Y-14388936D01*
X13061381Y-14588936D02*
X13061381Y-14388936D01*
X13128048Y-14531793D01*
X13194715Y-14388936D01*
X13194715Y-14588936D01*
X13375667Y-14588936D02*
X13375667Y-14484174D01*
X13366143Y-14465127D01*
X13347096Y-14455603D01*
X13309000Y-14455603D01*
X13289953Y-14465127D01*
X13375667Y-14579412D02*
X13356619Y-14588936D01*
X13309000Y-14588936D01*
X13289953Y-14579412D01*
X13280429Y-14560365D01*
X13280429Y-14541317D01*
X13289953Y-14522269D01*
X13309000Y-14512746D01*
X13356619Y-14512746D01*
X13375667Y-14503222D01*
X13470905Y-14455603D02*
X13470905Y-14655603D01*
X13470905Y-14465127D02*
X13489953Y-14455603D01*
X13528048Y-14455603D01*
X13547096Y-14465127D01*
X13556619Y-14474650D01*
X13566143Y-14493698D01*
X13566143Y-14550841D01*
X13556619Y-14569888D01*
X13547096Y-14579412D01*
X13528048Y-14588936D01*
X13489953Y-14588936D01*
X13470905Y-14579412D01*
X13651858Y-14569888D02*
X13661381Y-14579412D01*
X13651858Y-14588936D01*
X13642334Y-14579412D01*
X13651858Y-14569888D01*
X13651858Y-14588936D01*
X13651858Y-14465127D02*
X13661381Y-14474650D01*
X13651858Y-14484174D01*
X13642334Y-14474650D01*
X13651858Y-14465127D01*
X13651858Y-14484174D01*
D11*
X11982810Y-14898460D02*
X12022810Y-14938460D01*
X12022810Y-14898460D02*
X11982810Y-14938460D01*
D10*
X12318524Y-14808936D02*
X12337572Y-14808936D01*
X12356619Y-14818460D01*
X12366143Y-14827984D01*
X12375667Y-14847031D01*
X12385191Y-14885127D01*
X12385191Y-14932746D01*
X12375667Y-14970841D01*
X12366143Y-14989888D01*
X12356619Y-14999412D01*
X12337572Y-15008936D01*
X12318524Y-15008936D01*
X12299477Y-14999412D01*
X12289953Y-14989888D01*
X12280429Y-14970841D01*
X12270905Y-14932746D01*
X12270905Y-14885127D01*
X12280429Y-14847031D01*
X12289953Y-14827984D01*
X12299477Y-14818460D01*
X12318524Y-14808936D01*
X12470905Y-14989888D02*
X12480429Y-14999412D01*
X12470905Y-15008936D01*
X12461381Y-14999412D01*
X12470905Y-14989888D01*
X12470905Y-15008936D01*
X12651858Y-14875603D02*
X12651858Y-15008936D01*
X12604238Y-14799412D02*
X12556619Y-14942269D01*
X12680429Y-14942269D01*
X12794715Y-14808936D02*
X12813762Y-14808936D01*
X12832810Y-14818460D01*
X12842334Y-14827984D01*
X12851858Y-14847031D01*
X12861381Y-14885127D01*
X12861381Y-14932746D01*
X12851858Y-14970841D01*
X12842334Y-14989888D01*
X12832810Y-14999412D01*
X12813762Y-15008936D01*
X12794715Y-15008936D01*
X12775667Y-14999412D01*
X12766143Y-14989888D01*
X12756619Y-14970841D01*
X12747096Y-14932746D01*
X12747096Y-14885127D01*
X12756619Y-14847031D01*
X12766143Y-14827984D01*
X12775667Y-14818460D01*
X12794715Y-14808936D01*
X12985191Y-14808936D02*
X13004238Y-14808936D01*
X13023286Y-14818460D01*
X13032810Y-14827984D01*
X13042334Y-14847031D01*
X13051858Y-14885127D01*
X13051858Y-14932746D01*
X13042334Y-14970841D01*
X13032810Y-14989888D01*
X13023286Y-14999412D01*
X13004238Y-15008936D01*
X12985191Y-15008936D01*
X12966143Y-14999412D01*
X12956619Y-14989888D01*
X12947096Y-14970841D01*
X12937572Y-14932746D01*
X12937572Y-14885127D01*
X12947096Y-14847031D01*
X12956619Y-14827984D01*
X12966143Y-14818460D01*
X12985191Y-14808936D01*
X13137572Y-15008936D02*
X13137572Y-14875603D01*
X13137572Y-14894650D02*
X13147096Y-14885127D01*
X13166143Y-14875603D01*
X13194715Y-14875603D01*
X13213762Y-14885127D01*
X13223286Y-14904174D01*
X13223286Y-15008936D01*
X13223286Y-14904174D02*
X13232810Y-14885127D01*
X13251858Y-14875603D01*
X13280429Y-14875603D01*
X13299477Y-14885127D01*
X13309000Y-14904174D01*
X13309000Y-15008936D01*
X13404238Y-15008936D02*
X13404238Y-14875603D01*
X13404238Y-14894650D02*
X13413762Y-14885127D01*
X13432810Y-14875603D01*
X13461381Y-14875603D01*
X13480429Y-14885127D01*
X13489953Y-14904174D01*
X13489953Y-15008936D01*
X13489953Y-14904174D02*
X13499477Y-14885127D01*
X13518524Y-14875603D01*
X13547096Y-14875603D01*
X13566143Y-14885127D01*
X13575667Y-14904174D01*
X13575667Y-15008936D01*
X13966143Y-14799412D02*
X13794715Y-15056555D01*
X14223286Y-14808936D02*
X14242334Y-14808936D01*
X14261381Y-14818460D01*
X14270905Y-14827984D01*
X14280429Y-14847031D01*
X14289953Y-14885127D01*
X14289953Y-14932746D01*
X14280429Y-14970841D01*
X14270905Y-14989888D01*
X14261381Y-14999412D01*
X14242334Y-15008936D01*
X14223286Y-15008936D01*
X14204238Y-14999412D01*
X14194715Y-14989888D01*
X14185191Y-14970841D01*
X14175667Y-14932746D01*
X14175667Y-14885127D01*
X14185191Y-14847031D01*
X14194715Y-14827984D01*
X14204238Y-14818460D01*
X14223286Y-14808936D01*
X14375667Y-14989888D02*
X14385191Y-14999412D01*
X14375667Y-15008936D01*
X14366143Y-14999412D01*
X14375667Y-14989888D01*
X14375667Y-15008936D01*
X14509000Y-14808936D02*
X14528048Y-14808936D01*
X14547096Y-14818460D01*
X14556619Y-14827984D01*
X14566143Y-14847031D01*
X14575667Y-14885127D01*
X14575667Y-14932746D01*
X14566143Y-14970841D01*
X14556619Y-14989888D01*
X14547096Y-14999412D01*
X14528048Y-15008936D01*
X14509000Y-15008936D01*
X14489953Y-14999412D01*
X14480429Y-14989888D01*
X14470905Y-14970841D01*
X14461381Y-14932746D01*
X14461381Y-14885127D01*
X14470905Y-14847031D01*
X14480429Y-14827984D01*
X14489953Y-14818460D01*
X14509000Y-14808936D01*
X14766143Y-15008936D02*
X14651858Y-15008936D01*
X14709000Y-15008936D02*
X14709000Y-14808936D01*
X14689953Y-14837508D01*
X14670905Y-14856555D01*
X14651858Y-14866079D01*
X14947096Y-14808936D02*
X14851858Y-14808936D01*
X14842334Y-14904174D01*
X14851858Y-14894650D01*
X14870905Y-14885127D01*
X14918524Y-14885127D01*
X14937572Y-14894650D01*
X14947096Y-14904174D01*
X14956619Y-14923222D01*
X14956619Y-14970841D01*
X14947096Y-14989888D01*
X14937572Y-14999412D01*
X14918524Y-15008936D01*
X14870905Y-15008936D01*
X14851858Y-14999412D01*
X14842334Y-14989888D01*
X15023286Y-14808936D02*
X15156619Y-14808936D01*
X15070905Y-15008936D01*
X15223286Y-14808936D02*
X15223286Y-14847031D01*
X15299477Y-14808936D02*
X15299477Y-14847031D01*
X15594715Y-15085127D02*
X15585191Y-15075603D01*
X15566143Y-15047031D01*
X15556619Y-15027984D01*
X15547096Y-14999412D01*
X15537572Y-14951793D01*
X15537572Y-14913698D01*
X15547096Y-14866079D01*
X15556619Y-14837508D01*
X15566143Y-14818460D01*
X15585191Y-14789888D01*
X15594715Y-14780365D01*
X15699477Y-14894650D02*
X15680429Y-14885127D01*
X15670905Y-14875603D01*
X15661381Y-14856555D01*
X15661381Y-14847031D01*
X15670905Y-14827984D01*
X15680429Y-14818460D01*
X15699477Y-14808936D01*
X15737572Y-14808936D01*
X15756619Y-14818460D01*
X15766143Y-14827984D01*
X15775667Y-14847031D01*
X15775667Y-14856555D01*
X15766143Y-14875603D01*
X15756619Y-14885127D01*
X15737572Y-14894650D01*
X15699477Y-14894650D01*
X15680429Y-14904174D01*
X15670905Y-14913698D01*
X15661381Y-14932746D01*
X15661381Y-14970841D01*
X15670905Y-14989888D01*
X15680429Y-14999412D01*
X15699477Y-15008936D01*
X15737572Y-15008936D01*
X15756619Y-14999412D01*
X15766143Y-14989888D01*
X15775667Y-14970841D01*
X15775667Y-14932746D01*
X15766143Y-14913698D01*
X15756619Y-14904174D01*
X15737572Y-14894650D01*
X15870905Y-15008936D02*
X15909000Y-15008936D01*
X15928048Y-14999412D01*
X15937572Y-14989888D01*
X15956619Y-14961317D01*
X15966143Y-14923222D01*
X15966143Y-14847031D01*
X15956619Y-14827984D01*
X15947096Y-14818460D01*
X15928048Y-14808936D01*
X15889953Y-14808936D01*
X15870905Y-14818460D01*
X15861381Y-14827984D01*
X15851858Y-14847031D01*
X15851858Y-14894650D01*
X15861381Y-14913698D01*
X15870905Y-14923222D01*
X15889953Y-14932746D01*
X15928048Y-14932746D01*
X15947096Y-14923222D01*
X15956619Y-14913698D01*
X15966143Y-14894650D01*
X16204238Y-15008936D02*
X16204238Y-14808936D01*
X16289953Y-15008936D02*
X16289953Y-14904174D01*
X16280429Y-14885127D01*
X16261381Y-14875603D01*
X16232810Y-14875603D01*
X16213762Y-14885127D01*
X16204238Y-14894650D01*
X16413762Y-15008936D02*
X16394715Y-14999412D01*
X16385191Y-14989888D01*
X16375667Y-14970841D01*
X16375667Y-14913698D01*
X16385191Y-14894650D01*
X16394715Y-14885127D01*
X16413762Y-14875603D01*
X16442334Y-14875603D01*
X16461381Y-14885127D01*
X16470905Y-14894650D01*
X16480429Y-14913698D01*
X16480429Y-14970841D01*
X16470905Y-14989888D01*
X16461381Y-14999412D01*
X16442334Y-15008936D01*
X16413762Y-15008936D01*
X16594715Y-15008936D02*
X16575667Y-14999412D01*
X16566143Y-14980365D01*
X16566143Y-14808936D01*
X16747096Y-14999412D02*
X16728048Y-15008936D01*
X16689953Y-15008936D01*
X16670905Y-14999412D01*
X16661381Y-14980365D01*
X16661381Y-14904174D01*
X16670905Y-14885127D01*
X16689953Y-14875603D01*
X16728048Y-14875603D01*
X16747096Y-14885127D01*
X16756619Y-14904174D01*
X16756619Y-14923222D01*
X16661381Y-14942269D01*
X16832810Y-14999412D02*
X16851858Y-15008936D01*
X16889953Y-15008936D01*
X16909000Y-14999412D01*
X16918524Y-14980365D01*
X16918524Y-14970841D01*
X16909000Y-14951793D01*
X16889953Y-14942269D01*
X16861381Y-14942269D01*
X16842334Y-14932746D01*
X16832810Y-14913698D01*
X16832810Y-14904174D01*
X16842334Y-14885127D01*
X16861381Y-14875603D01*
X16889953Y-14875603D01*
X16909000Y-14885127D01*
X16985191Y-15085127D02*
X16994715Y-15075603D01*
X17013762Y-15047031D01*
X17023286Y-15027984D01*
X17032810Y-14999412D01*
X17042334Y-14951793D01*
X17042334Y-14913698D01*
X17032810Y-14866079D01*
X17023286Y-14837508D01*
X17013762Y-14818460D01*
X16994715Y-14789888D01*
X16985191Y-14780365D01*
D12*
X12022810Y-15182460D02*
G75*
G03*
X12022810Y-15182460I-40000J0D01*
G01*
D10*
X12318524Y-15072936D02*
X12337572Y-15072936D01*
X12356619Y-15082460D01*
X12366143Y-15091984D01*
X12375667Y-15111031D01*
X12385191Y-15149127D01*
X12385191Y-15196746D01*
X12375667Y-15234841D01*
X12366143Y-15253888D01*
X12356619Y-15263412D01*
X12337572Y-15272936D01*
X12318524Y-15272936D01*
X12299477Y-15263412D01*
X12289953Y-15253888D01*
X12280429Y-15234841D01*
X12270905Y-15196746D01*
X12270905Y-15149127D01*
X12280429Y-15111031D01*
X12289953Y-15091984D01*
X12299477Y-15082460D01*
X12318524Y-15072936D01*
X12470905Y-15253888D02*
X12480429Y-15263412D01*
X12470905Y-15272936D01*
X12461381Y-15263412D01*
X12470905Y-15253888D01*
X12470905Y-15272936D01*
X12594715Y-15158650D02*
X12575667Y-15149127D01*
X12566143Y-15139603D01*
X12556619Y-15120555D01*
X12556619Y-15111031D01*
X12566143Y-15091984D01*
X12575667Y-15082460D01*
X12594715Y-15072936D01*
X12632810Y-15072936D01*
X12651858Y-15082460D01*
X12661381Y-15091984D01*
X12670905Y-15111031D01*
X12670905Y-15120555D01*
X12661381Y-15139603D01*
X12651858Y-15149127D01*
X12632810Y-15158650D01*
X12594715Y-15158650D01*
X12575667Y-15168174D01*
X12566143Y-15177698D01*
X12556619Y-15196746D01*
X12556619Y-15234841D01*
X12566143Y-15253888D01*
X12575667Y-15263412D01*
X12594715Y-15272936D01*
X12632810Y-15272936D01*
X12651858Y-15263412D01*
X12661381Y-15253888D01*
X12670905Y-15234841D01*
X12670905Y-15196746D01*
X12661381Y-15177698D01*
X12651858Y-15168174D01*
X12632810Y-15158650D01*
X12794715Y-15072936D02*
X12813762Y-15072936D01*
X12832810Y-15082460D01*
X12842334Y-15091984D01*
X12851858Y-15111031D01*
X12861381Y-15149127D01*
X12861381Y-15196746D01*
X12851858Y-15234841D01*
X12842334Y-15253888D01*
X12832810Y-15263412D01*
X12813762Y-15272936D01*
X12794715Y-15272936D01*
X12775667Y-15263412D01*
X12766143Y-15253888D01*
X12756619Y-15234841D01*
X12747096Y-15196746D01*
X12747096Y-15149127D01*
X12756619Y-15111031D01*
X12766143Y-15091984D01*
X12775667Y-15082460D01*
X12794715Y-15072936D01*
X12985191Y-15072936D02*
X13004238Y-15072936D01*
X13023286Y-15082460D01*
X13032810Y-15091984D01*
X13042334Y-15111031D01*
X13051858Y-15149127D01*
X13051858Y-15196746D01*
X13042334Y-15234841D01*
X13032810Y-15253888D01*
X13023286Y-15263412D01*
X13004238Y-15272936D01*
X12985191Y-15272936D01*
X12966143Y-15263412D01*
X12956619Y-15253888D01*
X12947096Y-15234841D01*
X12937572Y-15196746D01*
X12937572Y-15149127D01*
X12947096Y-15111031D01*
X12956619Y-15091984D01*
X12966143Y-15082460D01*
X12985191Y-15072936D01*
X13137572Y-15272936D02*
X13137572Y-15139603D01*
X13137572Y-15158650D02*
X13147096Y-15149127D01*
X13166143Y-15139603D01*
X13194715Y-15139603D01*
X13213762Y-15149127D01*
X13223286Y-15168174D01*
X13223286Y-15272936D01*
X13223286Y-15168174D02*
X13232810Y-15149127D01*
X13251858Y-15139603D01*
X13280429Y-15139603D01*
X13299477Y-15149127D01*
X13309000Y-15168174D01*
X13309000Y-15272936D01*
X13404238Y-15272936D02*
X13404238Y-15139603D01*
X13404238Y-15158650D02*
X13413762Y-15149127D01*
X13432810Y-15139603D01*
X13461381Y-15139603D01*
X13480429Y-15149127D01*
X13489953Y-15168174D01*
X13489953Y-15272936D01*
X13489953Y-15168174D02*
X13499477Y-15149127D01*
X13518524Y-15139603D01*
X13547096Y-15139603D01*
X13566143Y-15149127D01*
X13575667Y-15168174D01*
X13575667Y-15272936D01*
X13966143Y-15063412D02*
X13794715Y-15320555D01*
X14223286Y-15072936D02*
X14242334Y-15072936D01*
X14261381Y-15082460D01*
X14270905Y-15091984D01*
X14280429Y-15111031D01*
X14289953Y-15149127D01*
X14289953Y-15196746D01*
X14280429Y-15234841D01*
X14270905Y-15253888D01*
X14261381Y-15263412D01*
X14242334Y-15272936D01*
X14223286Y-15272936D01*
X14204238Y-15263412D01*
X14194715Y-15253888D01*
X14185191Y-15234841D01*
X14175667Y-15196746D01*
X14175667Y-15149127D01*
X14185191Y-15111031D01*
X14194715Y-15091984D01*
X14204238Y-15082460D01*
X14223286Y-15072936D01*
X14375667Y-15253888D02*
X14385191Y-15263412D01*
X14375667Y-15272936D01*
X14366143Y-15263412D01*
X14375667Y-15253888D01*
X14375667Y-15272936D01*
X14509000Y-15072936D02*
X14528048Y-15072936D01*
X14547096Y-15082460D01*
X14556619Y-15091984D01*
X14566143Y-15111031D01*
X14575667Y-15149127D01*
X14575667Y-15196746D01*
X14566143Y-15234841D01*
X14556619Y-15253888D01*
X14547096Y-15263412D01*
X14528048Y-15272936D01*
X14509000Y-15272936D01*
X14489953Y-15263412D01*
X14480429Y-15253888D01*
X14470905Y-15234841D01*
X14461381Y-15196746D01*
X14461381Y-15149127D01*
X14470905Y-15111031D01*
X14480429Y-15091984D01*
X14489953Y-15082460D01*
X14509000Y-15072936D01*
X14642334Y-15072936D02*
X14766143Y-15072936D01*
X14699477Y-15149127D01*
X14728048Y-15149127D01*
X14747096Y-15158650D01*
X14756619Y-15168174D01*
X14766143Y-15187222D01*
X14766143Y-15234841D01*
X14756619Y-15253888D01*
X14747096Y-15263412D01*
X14728048Y-15272936D01*
X14670905Y-15272936D01*
X14651858Y-15263412D01*
X14642334Y-15253888D01*
X14956619Y-15272936D02*
X14842334Y-15272936D01*
X14899477Y-15272936D02*
X14899477Y-15072936D01*
X14880429Y-15101508D01*
X14861381Y-15120555D01*
X14842334Y-15130079D01*
X15137572Y-15072936D02*
X15042334Y-15072936D01*
X15032810Y-15168174D01*
X15042334Y-15158650D01*
X15061381Y-15149127D01*
X15109000Y-15149127D01*
X15128048Y-15158650D01*
X15137572Y-15168174D01*
X15147096Y-15187222D01*
X15147096Y-15234841D01*
X15137572Y-15253888D01*
X15128048Y-15263412D01*
X15109000Y-15272936D01*
X15061381Y-15272936D01*
X15042334Y-15263412D01*
X15032810Y-15253888D01*
X15223286Y-15072936D02*
X15223286Y-15111031D01*
X15299477Y-15072936D02*
X15299477Y-15111031D01*
X15594715Y-15349127D02*
X15585191Y-15339603D01*
X15566143Y-15311031D01*
X15556619Y-15291984D01*
X15547096Y-15263412D01*
X15537572Y-15215793D01*
X15537572Y-15177698D01*
X15547096Y-15130079D01*
X15556619Y-15101508D01*
X15566143Y-15082460D01*
X15585191Y-15053888D01*
X15594715Y-15044365D01*
X15651858Y-15072936D02*
X15775667Y-15072936D01*
X15709000Y-15149127D01*
X15737572Y-15149127D01*
X15756619Y-15158650D01*
X15766143Y-15168174D01*
X15775667Y-15187222D01*
X15775667Y-15234841D01*
X15766143Y-15253888D01*
X15756619Y-15263412D01*
X15737572Y-15272936D01*
X15680429Y-15272936D01*
X15661381Y-15263412D01*
X15651858Y-15253888D01*
X15899477Y-15072936D02*
X15918524Y-15072936D01*
X15937572Y-15082460D01*
X15947096Y-15091984D01*
X15956619Y-15111031D01*
X15966143Y-15149127D01*
X15966143Y-15196746D01*
X15956619Y-15234841D01*
X15947096Y-15253888D01*
X15937572Y-15263412D01*
X15918524Y-15272936D01*
X15899477Y-15272936D01*
X15880429Y-15263412D01*
X15870905Y-15253888D01*
X15861381Y-15234841D01*
X15851858Y-15196746D01*
X15851858Y-15149127D01*
X15861381Y-15111031D01*
X15870905Y-15091984D01*
X15880429Y-15082460D01*
X15899477Y-15072936D01*
X16204238Y-15272936D02*
X16204238Y-15072936D01*
X16289953Y-15272936D02*
X16289953Y-15168174D01*
X16280429Y-15149127D01*
X16261381Y-15139603D01*
X16232810Y-15139603D01*
X16213762Y-15149127D01*
X16204238Y-15158650D01*
X16413762Y-15272936D02*
X16394715Y-15263412D01*
X16385191Y-15253888D01*
X16375667Y-15234841D01*
X16375667Y-15177698D01*
X16385191Y-15158650D01*
X16394715Y-15149127D01*
X16413762Y-15139603D01*
X16442334Y-15139603D01*
X16461381Y-15149127D01*
X16470905Y-15158650D01*
X16480429Y-15177698D01*
X16480429Y-15234841D01*
X16470905Y-15253888D01*
X16461381Y-15263412D01*
X16442334Y-15272936D01*
X16413762Y-15272936D01*
X16594715Y-15272936D02*
X16575667Y-15263412D01*
X16566143Y-15244365D01*
X16566143Y-15072936D01*
X16747096Y-15263412D02*
X16728048Y-15272936D01*
X16689953Y-15272936D01*
X16670905Y-15263412D01*
X16661381Y-15244365D01*
X16661381Y-15168174D01*
X16670905Y-15149127D01*
X16689953Y-15139603D01*
X16728048Y-15139603D01*
X16747096Y-15149127D01*
X16756619Y-15168174D01*
X16756619Y-15187222D01*
X16661381Y-15206269D01*
X16832810Y-15263412D02*
X16851858Y-15272936D01*
X16889953Y-15272936D01*
X16909000Y-15263412D01*
X16918524Y-15244365D01*
X16918524Y-15234841D01*
X16909000Y-15215793D01*
X16889953Y-15206269D01*
X16861381Y-15206269D01*
X16842334Y-15196746D01*
X16832810Y-15177698D01*
X16832810Y-15168174D01*
X16842334Y-15149127D01*
X16861381Y-15139603D01*
X16889953Y-15139603D01*
X16909000Y-15149127D01*
X16985191Y-15349127D02*
X16994715Y-15339603D01*
X17013762Y-15311031D01*
X17023286Y-15291984D01*
X17032810Y-15263412D01*
X17042334Y-15215793D01*
X17042334Y-15177698D01*
X17032810Y-15130079D01*
X17023286Y-15101508D01*
X17013762Y-15082460D01*
X16994715Y-15053888D01*
X16985191Y-15044365D01*
D13*
X11972810Y-15396460D02*
X11972810Y-15496460D01*
X11922810Y-15446460D02*
X12022810Y-15446460D01*
D10*
X12385191Y-15536936D02*
X12270905Y-15536936D01*
X12328048Y-15536936D02*
X12328048Y-15336936D01*
X12309000Y-15365508D01*
X12289953Y-15384555D01*
X12270905Y-15394079D01*
X12470905Y-15517888D02*
X12480429Y-15527412D01*
X12470905Y-15536936D01*
X12461381Y-15527412D01*
X12470905Y-15517888D01*
X12470905Y-15536936D01*
X12604238Y-15336936D02*
X12623286Y-15336936D01*
X12642334Y-15346460D01*
X12651858Y-15355984D01*
X12661381Y-15375031D01*
X12670905Y-15413127D01*
X12670905Y-15460746D01*
X12661381Y-15498841D01*
X12651858Y-15517888D01*
X12642334Y-15527412D01*
X12623286Y-15536936D01*
X12604238Y-15536936D01*
X12585191Y-15527412D01*
X12575667Y-15517888D01*
X12566143Y-15498841D01*
X12556619Y-15460746D01*
X12556619Y-15413127D01*
X12566143Y-15375031D01*
X12575667Y-15355984D01*
X12585191Y-15346460D01*
X12604238Y-15336936D01*
X12794715Y-15336936D02*
X12813762Y-15336936D01*
X12832810Y-15346460D01*
X12842334Y-15355984D01*
X12851858Y-15375031D01*
X12861381Y-15413127D01*
X12861381Y-15460746D01*
X12851858Y-15498841D01*
X12842334Y-15517888D01*
X12832810Y-15527412D01*
X12813762Y-15536936D01*
X12794715Y-15536936D01*
X12775667Y-15527412D01*
X12766143Y-15517888D01*
X12756619Y-15498841D01*
X12747096Y-15460746D01*
X12747096Y-15413127D01*
X12756619Y-15375031D01*
X12766143Y-15355984D01*
X12775667Y-15346460D01*
X12794715Y-15336936D01*
X12985191Y-15336936D02*
X13004238Y-15336936D01*
X13023286Y-15346460D01*
X13032810Y-15355984D01*
X13042334Y-15375031D01*
X13051858Y-15413127D01*
X13051858Y-15460746D01*
X13042334Y-15498841D01*
X13032810Y-15517888D01*
X13023286Y-15527412D01*
X13004238Y-15536936D01*
X12985191Y-15536936D01*
X12966143Y-15527412D01*
X12956619Y-15517888D01*
X12947096Y-15498841D01*
X12937572Y-15460746D01*
X12937572Y-15413127D01*
X12947096Y-15375031D01*
X12956619Y-15355984D01*
X12966143Y-15346460D01*
X12985191Y-15336936D01*
X13137572Y-15536936D02*
X13137572Y-15403603D01*
X13137572Y-15422650D02*
X13147096Y-15413127D01*
X13166143Y-15403603D01*
X13194715Y-15403603D01*
X13213762Y-15413127D01*
X13223286Y-15432174D01*
X13223286Y-15536936D01*
X13223286Y-15432174D02*
X13232810Y-15413127D01*
X13251858Y-15403603D01*
X13280429Y-15403603D01*
X13299477Y-15413127D01*
X13309000Y-15432174D01*
X13309000Y-15536936D01*
X13404238Y-15536936D02*
X13404238Y-15403603D01*
X13404238Y-15422650D02*
X13413762Y-15413127D01*
X13432810Y-15403603D01*
X13461381Y-15403603D01*
X13480429Y-15413127D01*
X13489953Y-15432174D01*
X13489953Y-15536936D01*
X13489953Y-15432174D02*
X13499477Y-15413127D01*
X13518524Y-15403603D01*
X13547096Y-15403603D01*
X13566143Y-15413127D01*
X13575667Y-15432174D01*
X13575667Y-15536936D01*
X13966143Y-15327412D02*
X13794715Y-15584555D01*
X14223286Y-15336936D02*
X14242334Y-15336936D01*
X14261381Y-15346460D01*
X14270905Y-15355984D01*
X14280429Y-15375031D01*
X14289953Y-15413127D01*
X14289953Y-15460746D01*
X14280429Y-15498841D01*
X14270905Y-15517888D01*
X14261381Y-15527412D01*
X14242334Y-15536936D01*
X14223286Y-15536936D01*
X14204238Y-15527412D01*
X14194715Y-15517888D01*
X14185191Y-15498841D01*
X14175667Y-15460746D01*
X14175667Y-15413127D01*
X14185191Y-15375031D01*
X14194715Y-15355984D01*
X14204238Y-15346460D01*
X14223286Y-15336936D01*
X14375667Y-15517888D02*
X14385191Y-15527412D01*
X14375667Y-15536936D01*
X14366143Y-15527412D01*
X14375667Y-15517888D01*
X14375667Y-15536936D01*
X14509000Y-15336936D02*
X14528048Y-15336936D01*
X14547096Y-15346460D01*
X14556619Y-15355984D01*
X14566143Y-15375031D01*
X14575667Y-15413127D01*
X14575667Y-15460746D01*
X14566143Y-15498841D01*
X14556619Y-15517888D01*
X14547096Y-15527412D01*
X14528048Y-15536936D01*
X14509000Y-15536936D01*
X14489953Y-15527412D01*
X14480429Y-15517888D01*
X14470905Y-15498841D01*
X14461381Y-15460746D01*
X14461381Y-15413127D01*
X14470905Y-15375031D01*
X14480429Y-15355984D01*
X14489953Y-15346460D01*
X14509000Y-15336936D01*
X14642334Y-15336936D02*
X14766143Y-15336936D01*
X14699477Y-15413127D01*
X14728048Y-15413127D01*
X14747096Y-15422650D01*
X14756619Y-15432174D01*
X14766143Y-15451222D01*
X14766143Y-15498841D01*
X14756619Y-15517888D01*
X14747096Y-15527412D01*
X14728048Y-15536936D01*
X14670905Y-15536936D01*
X14651858Y-15527412D01*
X14642334Y-15517888D01*
X14861381Y-15536936D02*
X14899477Y-15536936D01*
X14918524Y-15527412D01*
X14928048Y-15517888D01*
X14947096Y-15489317D01*
X14956619Y-15451222D01*
X14956619Y-15375031D01*
X14947096Y-15355984D01*
X14937572Y-15346460D01*
X14918524Y-15336936D01*
X14880429Y-15336936D01*
X14861381Y-15346460D01*
X14851858Y-15355984D01*
X14842334Y-15375031D01*
X14842334Y-15422650D01*
X14851858Y-15441698D01*
X14861381Y-15451222D01*
X14880429Y-15460746D01*
X14918524Y-15460746D01*
X14937572Y-15451222D01*
X14947096Y-15441698D01*
X14956619Y-15422650D01*
X15128048Y-15403603D02*
X15128048Y-15536936D01*
X15080429Y-15327412D02*
X15032810Y-15470269D01*
X15156619Y-15470269D01*
X15223286Y-15336936D02*
X15223286Y-15375031D01*
X15299477Y-15336936D02*
X15299477Y-15375031D01*
X15594715Y-15613127D02*
X15585191Y-15603603D01*
X15566143Y-15575031D01*
X15556619Y-15555984D01*
X15547096Y-15527412D01*
X15537572Y-15479793D01*
X15537572Y-15441698D01*
X15547096Y-15394079D01*
X15556619Y-15365508D01*
X15566143Y-15346460D01*
X15585191Y-15317888D01*
X15594715Y-15308365D01*
X15680429Y-15536936D02*
X15718524Y-15536936D01*
X15737572Y-15527412D01*
X15747096Y-15517888D01*
X15766143Y-15489317D01*
X15775667Y-15451222D01*
X15775667Y-15375031D01*
X15766143Y-15355984D01*
X15756619Y-15346460D01*
X15737572Y-15336936D01*
X15699477Y-15336936D01*
X15680429Y-15346460D01*
X15670905Y-15355984D01*
X15661381Y-15375031D01*
X15661381Y-15422650D01*
X15670905Y-15441698D01*
X15680429Y-15451222D01*
X15699477Y-15460746D01*
X15737572Y-15460746D01*
X15756619Y-15451222D01*
X15766143Y-15441698D01*
X15775667Y-15422650D01*
X16013762Y-15536936D02*
X16013762Y-15336936D01*
X16099477Y-15536936D02*
X16099477Y-15432174D01*
X16089953Y-15413127D01*
X16070905Y-15403603D01*
X16042334Y-15403603D01*
X16023286Y-15413127D01*
X16013762Y-15422650D01*
X16223286Y-15536936D02*
X16204238Y-15527412D01*
X16194715Y-15517888D01*
X16185191Y-15498841D01*
X16185191Y-15441698D01*
X16194715Y-15422650D01*
X16204238Y-15413127D01*
X16223286Y-15403603D01*
X16251858Y-15403603D01*
X16270905Y-15413127D01*
X16280429Y-15422650D01*
X16289953Y-15441698D01*
X16289953Y-15498841D01*
X16280429Y-15517888D01*
X16270905Y-15527412D01*
X16251858Y-15536936D01*
X16223286Y-15536936D01*
X16404238Y-15536936D02*
X16385191Y-15527412D01*
X16375667Y-15508365D01*
X16375667Y-15336936D01*
X16556619Y-15527412D02*
X16537572Y-15536936D01*
X16499477Y-15536936D01*
X16480429Y-15527412D01*
X16470905Y-15508365D01*
X16470905Y-15432174D01*
X16480429Y-15413127D01*
X16499477Y-15403603D01*
X16537572Y-15403603D01*
X16556619Y-15413127D01*
X16566143Y-15432174D01*
X16566143Y-15451222D01*
X16470905Y-15470269D01*
X16642334Y-15527412D02*
X16661381Y-15536936D01*
X16699477Y-15536936D01*
X16718524Y-15527412D01*
X16728048Y-15508365D01*
X16728048Y-15498841D01*
X16718524Y-15479793D01*
X16699477Y-15470269D01*
X16670905Y-15470269D01*
X16651858Y-15460746D01*
X16642334Y-15441698D01*
X16642334Y-15432174D01*
X16651858Y-15413127D01*
X16670905Y-15403603D01*
X16699477Y-15403603D01*
X16718524Y-15413127D01*
X16794715Y-15613127D02*
X16804239Y-15603603D01*
X16823286Y-15575031D01*
X16832810Y-15555984D01*
X16842334Y-15527412D01*
X16851858Y-15479793D01*
X16851858Y-15441698D01*
X16842334Y-15394079D01*
X16832810Y-15365508D01*
X16823286Y-15346460D01*
X16804239Y-15317888D01*
X16794715Y-15308365D01*
D14*
X12005237Y-15752887D02*
X12005237Y-15668033D01*
X11920383Y-15668033D01*
X11920383Y-15752887D01*
X12005237Y-15752887D01*
D10*
X12385191Y-15800936D02*
X12270905Y-15800936D01*
X12328048Y-15800936D02*
X12328048Y-15600936D01*
X12309000Y-15629508D01*
X12289953Y-15648555D01*
X12270905Y-15658079D01*
X12470905Y-15781888D02*
X12480429Y-15791412D01*
X12470905Y-15800936D01*
X12461381Y-15791412D01*
X12470905Y-15781888D01*
X12470905Y-15800936D01*
X12556619Y-15619984D02*
X12566143Y-15610460D01*
X12585191Y-15600936D01*
X12632810Y-15600936D01*
X12651858Y-15610460D01*
X12661381Y-15619984D01*
X12670905Y-15639031D01*
X12670905Y-15658079D01*
X12661381Y-15686650D01*
X12547096Y-15800936D01*
X12670905Y-15800936D01*
X12794715Y-15600936D02*
X12813762Y-15600936D01*
X12832810Y-15610460D01*
X12842334Y-15619984D01*
X12851858Y-15639031D01*
X12861381Y-15677127D01*
X12861381Y-15724746D01*
X12851858Y-15762841D01*
X12842334Y-15781888D01*
X12832810Y-15791412D01*
X12813762Y-15800936D01*
X12794715Y-15800936D01*
X12775667Y-15791412D01*
X12766143Y-15781888D01*
X12756619Y-15762841D01*
X12747096Y-15724746D01*
X12747096Y-15677127D01*
X12756619Y-15639031D01*
X12766143Y-15619984D01*
X12775667Y-15610460D01*
X12794715Y-15600936D01*
X12985191Y-15600936D02*
X13004238Y-15600936D01*
X13023286Y-15610460D01*
X13032810Y-15619984D01*
X13042334Y-15639031D01*
X13051858Y-15677127D01*
X13051858Y-15724746D01*
X13042334Y-15762841D01*
X13032810Y-15781888D01*
X13023286Y-15791412D01*
X13004238Y-15800936D01*
X12985191Y-15800936D01*
X12966143Y-15791412D01*
X12956619Y-15781888D01*
X12947096Y-15762841D01*
X12937572Y-15724746D01*
X12937572Y-15677127D01*
X12947096Y-15639031D01*
X12956619Y-15619984D01*
X12966143Y-15610460D01*
X12985191Y-15600936D01*
X13137572Y-15800936D02*
X13137572Y-15667603D01*
X13137572Y-15686650D02*
X13147096Y-15677127D01*
X13166143Y-15667603D01*
X13194715Y-15667603D01*
X13213762Y-15677127D01*
X13223286Y-15696174D01*
X13223286Y-15800936D01*
X13223286Y-15696174D02*
X13232810Y-15677127D01*
X13251858Y-15667603D01*
X13280429Y-15667603D01*
X13299477Y-15677127D01*
X13309000Y-15696174D01*
X13309000Y-15800936D01*
X13404238Y-15800936D02*
X13404238Y-15667603D01*
X13404238Y-15686650D02*
X13413762Y-15677127D01*
X13432810Y-15667603D01*
X13461381Y-15667603D01*
X13480429Y-15677127D01*
X13489953Y-15696174D01*
X13489953Y-15800936D01*
X13489953Y-15696174D02*
X13499477Y-15677127D01*
X13518524Y-15667603D01*
X13547096Y-15667603D01*
X13566143Y-15677127D01*
X13575667Y-15696174D01*
X13575667Y-15800936D01*
X13966143Y-15591412D02*
X13794715Y-15848555D01*
X14223286Y-15600936D02*
X14242334Y-15600936D01*
X14261381Y-15610460D01*
X14270905Y-15619984D01*
X14280429Y-15639031D01*
X14289953Y-15677127D01*
X14289953Y-15724746D01*
X14280429Y-15762841D01*
X14270905Y-15781888D01*
X14261381Y-15791412D01*
X14242334Y-15800936D01*
X14223286Y-15800936D01*
X14204238Y-15791412D01*
X14194715Y-15781888D01*
X14185191Y-15762841D01*
X14175667Y-15724746D01*
X14175667Y-15677127D01*
X14185191Y-15639031D01*
X14194715Y-15619984D01*
X14204238Y-15610460D01*
X14223286Y-15600936D01*
X14375667Y-15781888D02*
X14385191Y-15791412D01*
X14375667Y-15800936D01*
X14366143Y-15791412D01*
X14375667Y-15781888D01*
X14375667Y-15800936D01*
X14509000Y-15600936D02*
X14528048Y-15600936D01*
X14547096Y-15610460D01*
X14556619Y-15619984D01*
X14566143Y-15639031D01*
X14575667Y-15677127D01*
X14575667Y-15724746D01*
X14566143Y-15762841D01*
X14556619Y-15781888D01*
X14547096Y-15791412D01*
X14528048Y-15800936D01*
X14509000Y-15800936D01*
X14489953Y-15791412D01*
X14480429Y-15781888D01*
X14470905Y-15762841D01*
X14461381Y-15724746D01*
X14461381Y-15677127D01*
X14470905Y-15639031D01*
X14480429Y-15619984D01*
X14489953Y-15610460D01*
X14509000Y-15600936D01*
X14747096Y-15667603D02*
X14747096Y-15800936D01*
X14699477Y-15591412D02*
X14651858Y-15734269D01*
X14775667Y-15734269D01*
X14832810Y-15600936D02*
X14966143Y-15600936D01*
X14880429Y-15800936D01*
X15032810Y-15619984D02*
X15042334Y-15610460D01*
X15061381Y-15600936D01*
X15109000Y-15600936D01*
X15128048Y-15610460D01*
X15137572Y-15619984D01*
X15147096Y-15639031D01*
X15147096Y-15658079D01*
X15137572Y-15686650D01*
X15023286Y-15800936D01*
X15147096Y-15800936D01*
X15223286Y-15600936D02*
X15223286Y-15639031D01*
X15299477Y-15600936D02*
X15299477Y-15639031D01*
X15594715Y-15877127D02*
X15585191Y-15867603D01*
X15566143Y-15839031D01*
X15556619Y-15819984D01*
X15547096Y-15791412D01*
X15537572Y-15743793D01*
X15537572Y-15705698D01*
X15547096Y-15658079D01*
X15556619Y-15629508D01*
X15566143Y-15610460D01*
X15585191Y-15581888D01*
X15594715Y-15572365D01*
X15699477Y-15686650D02*
X15680429Y-15677127D01*
X15670905Y-15667603D01*
X15661381Y-15648555D01*
X15661381Y-15639031D01*
X15670905Y-15619984D01*
X15680429Y-15610460D01*
X15699477Y-15600936D01*
X15737572Y-15600936D01*
X15756619Y-15610460D01*
X15766143Y-15619984D01*
X15775667Y-15639031D01*
X15775667Y-15648555D01*
X15766143Y-15667603D01*
X15756619Y-15677127D01*
X15737572Y-15686650D01*
X15699477Y-15686650D01*
X15680429Y-15696174D01*
X15670905Y-15705698D01*
X15661381Y-15724746D01*
X15661381Y-15762841D01*
X15670905Y-15781888D01*
X15680429Y-15791412D01*
X15699477Y-15800936D01*
X15737572Y-15800936D01*
X15756619Y-15791412D01*
X15766143Y-15781888D01*
X15775667Y-15762841D01*
X15775667Y-15724746D01*
X15766143Y-15705698D01*
X15756619Y-15696174D01*
X15737572Y-15686650D01*
X16013762Y-15800936D02*
X16013762Y-15600936D01*
X16099477Y-15800936D02*
X16099477Y-15696174D01*
X16089953Y-15677127D01*
X16070905Y-15667603D01*
X16042334Y-15667603D01*
X16023286Y-15677127D01*
X16013762Y-15686650D01*
X16223286Y-15800936D02*
X16204238Y-15791412D01*
X16194715Y-15781888D01*
X16185191Y-15762841D01*
X16185191Y-15705698D01*
X16194715Y-15686650D01*
X16204238Y-15677127D01*
X16223286Y-15667603D01*
X16251858Y-15667603D01*
X16270905Y-15677127D01*
X16280429Y-15686650D01*
X16289953Y-15705698D01*
X16289953Y-15762841D01*
X16280429Y-15781888D01*
X16270905Y-15791412D01*
X16251858Y-15800936D01*
X16223286Y-15800936D01*
X16404238Y-15800936D02*
X16385191Y-15791412D01*
X16375667Y-15772365D01*
X16375667Y-15600936D01*
X16556619Y-15791412D02*
X16537572Y-15800936D01*
X16499477Y-15800936D01*
X16480429Y-15791412D01*
X16470905Y-15772365D01*
X16470905Y-15696174D01*
X16480429Y-15677127D01*
X16499477Y-15667603D01*
X16537572Y-15667603D01*
X16556619Y-15677127D01*
X16566143Y-15696174D01*
X16566143Y-15715222D01*
X16470905Y-15734269D01*
X16642334Y-15791412D02*
X16661381Y-15800936D01*
X16699477Y-15800936D01*
X16718524Y-15791412D01*
X16728048Y-15772365D01*
X16728048Y-15762841D01*
X16718524Y-15743793D01*
X16699477Y-15734269D01*
X16670905Y-15734269D01*
X16651858Y-15724746D01*
X16642334Y-15705698D01*
X16642334Y-15696174D01*
X16651858Y-15677127D01*
X16670905Y-15667603D01*
X16699477Y-15667603D01*
X16718524Y-15677127D01*
X16794715Y-15877127D02*
X16804239Y-15867603D01*
X16823286Y-15839031D01*
X16832810Y-15819984D01*
X16842334Y-15791412D01*
X16851858Y-15743793D01*
X16851858Y-15705698D01*
X16842334Y-15658079D01*
X16832810Y-15629508D01*
X16823286Y-15610460D01*
X16804239Y-15581888D01*
X16794715Y-15572365D01*
D15*
X11957810Y-16039460D02*
X12022810Y-15974460D01*
X11957810Y-15909460D01*
X11892810Y-15974460D01*
X11957810Y-16039460D01*
D10*
X12385191Y-16064936D02*
X12270905Y-16064936D01*
X12328048Y-16064936D02*
X12328048Y-15864936D01*
X12309000Y-15893508D01*
X12289953Y-15912555D01*
X12270905Y-15922079D01*
X12470905Y-16045888D02*
X12480429Y-16055412D01*
X12470905Y-16064936D01*
X12461381Y-16055412D01*
X12470905Y-16045888D01*
X12470905Y-16064936D01*
X12547096Y-15864936D02*
X12670905Y-15864936D01*
X12604238Y-15941127D01*
X12632810Y-15941127D01*
X12651858Y-15950650D01*
X12661381Y-15960174D01*
X12670905Y-15979222D01*
X12670905Y-16026841D01*
X12661381Y-16045888D01*
X12651858Y-16055412D01*
X12632810Y-16064936D01*
X12575667Y-16064936D01*
X12556619Y-16055412D01*
X12547096Y-16045888D01*
X12794715Y-15864936D02*
X12813762Y-15864936D01*
X12832810Y-15874460D01*
X12842334Y-15883984D01*
X12851858Y-15903031D01*
X12861381Y-15941127D01*
X12861381Y-15988746D01*
X12851858Y-16026841D01*
X12842334Y-16045888D01*
X12832810Y-16055412D01*
X12813762Y-16064936D01*
X12794715Y-16064936D01*
X12775667Y-16055412D01*
X12766143Y-16045888D01*
X12756619Y-16026841D01*
X12747096Y-15988746D01*
X12747096Y-15941127D01*
X12756619Y-15903031D01*
X12766143Y-15883984D01*
X12775667Y-15874460D01*
X12794715Y-15864936D01*
X12985191Y-15864936D02*
X13004238Y-15864936D01*
X13023286Y-15874460D01*
X13032810Y-15883984D01*
X13042334Y-15903031D01*
X13051858Y-15941127D01*
X13051858Y-15988746D01*
X13042334Y-16026841D01*
X13032810Y-16045888D01*
X13023286Y-16055412D01*
X13004238Y-16064936D01*
X12985191Y-16064936D01*
X12966143Y-16055412D01*
X12956619Y-16045888D01*
X12947096Y-16026841D01*
X12937572Y-15988746D01*
X12937572Y-15941127D01*
X12947096Y-15903031D01*
X12956619Y-15883984D01*
X12966143Y-15874460D01*
X12985191Y-15864936D01*
X13137572Y-16064936D02*
X13137572Y-15931603D01*
X13137572Y-15950650D02*
X13147096Y-15941127D01*
X13166143Y-15931603D01*
X13194715Y-15931603D01*
X13213762Y-15941127D01*
X13223286Y-15960174D01*
X13223286Y-16064936D01*
X13223286Y-15960174D02*
X13232810Y-15941127D01*
X13251858Y-15931603D01*
X13280429Y-15931603D01*
X13299477Y-15941127D01*
X13309000Y-15960174D01*
X13309000Y-16064936D01*
X13404238Y-16064936D02*
X13404238Y-15931603D01*
X13404238Y-15950650D02*
X13413762Y-15941127D01*
X13432810Y-15931603D01*
X13461381Y-15931603D01*
X13480429Y-15941127D01*
X13489953Y-15960174D01*
X13489953Y-16064936D01*
X13489953Y-15960174D02*
X13499477Y-15941127D01*
X13518524Y-15931603D01*
X13547096Y-15931603D01*
X13566143Y-15941127D01*
X13575667Y-15960174D01*
X13575667Y-16064936D01*
X13966143Y-15855412D02*
X13794715Y-16112555D01*
X14223286Y-15864936D02*
X14242334Y-15864936D01*
X14261381Y-15874460D01*
X14270905Y-15883984D01*
X14280429Y-15903031D01*
X14289953Y-15941127D01*
X14289953Y-15988746D01*
X14280429Y-16026841D01*
X14270905Y-16045888D01*
X14261381Y-16055412D01*
X14242334Y-16064936D01*
X14223286Y-16064936D01*
X14204238Y-16055412D01*
X14194715Y-16045888D01*
X14185191Y-16026841D01*
X14175667Y-15988746D01*
X14175667Y-15941127D01*
X14185191Y-15903031D01*
X14194715Y-15883984D01*
X14204238Y-15874460D01*
X14223286Y-15864936D01*
X14375667Y-16045888D02*
X14385191Y-16055412D01*
X14375667Y-16064936D01*
X14366143Y-16055412D01*
X14375667Y-16045888D01*
X14375667Y-16064936D01*
X14509000Y-15864936D02*
X14528048Y-15864936D01*
X14547096Y-15874460D01*
X14556619Y-15883984D01*
X14566143Y-15903031D01*
X14575667Y-15941127D01*
X14575667Y-15988746D01*
X14566143Y-16026841D01*
X14556619Y-16045888D01*
X14547096Y-16055412D01*
X14528048Y-16064936D01*
X14509000Y-16064936D01*
X14489953Y-16055412D01*
X14480429Y-16045888D01*
X14470905Y-16026841D01*
X14461381Y-15988746D01*
X14461381Y-15941127D01*
X14470905Y-15903031D01*
X14480429Y-15883984D01*
X14489953Y-15874460D01*
X14509000Y-15864936D01*
X14756619Y-15864936D02*
X14661381Y-15864936D01*
X14651858Y-15960174D01*
X14661381Y-15950650D01*
X14680429Y-15941127D01*
X14728048Y-15941127D01*
X14747096Y-15950650D01*
X14756619Y-15960174D01*
X14766143Y-15979222D01*
X14766143Y-16026841D01*
X14756619Y-16045888D01*
X14747096Y-16055412D01*
X14728048Y-16064936D01*
X14680429Y-16064936D01*
X14661381Y-16055412D01*
X14651858Y-16045888D01*
X14956619Y-16064936D02*
X14842334Y-16064936D01*
X14899477Y-16064936D02*
X14899477Y-15864936D01*
X14880429Y-15893508D01*
X14861381Y-15912555D01*
X14842334Y-15922079D01*
X15032810Y-15883984D02*
X15042334Y-15874460D01*
X15061381Y-15864936D01*
X15109000Y-15864936D01*
X15128048Y-15874460D01*
X15137572Y-15883984D01*
X15147096Y-15903031D01*
X15147096Y-15922079D01*
X15137572Y-15950650D01*
X15023286Y-16064936D01*
X15147096Y-16064936D01*
X15223286Y-15864936D02*
X15223286Y-15903031D01*
X15299477Y-15864936D02*
X15299477Y-15903031D01*
X15594715Y-16141127D02*
X15585191Y-16131603D01*
X15566143Y-16103031D01*
X15556619Y-16083984D01*
X15547096Y-16055412D01*
X15537572Y-16007793D01*
X15537572Y-15969698D01*
X15547096Y-15922079D01*
X15556619Y-15893508D01*
X15566143Y-15874460D01*
X15585191Y-15845888D01*
X15594715Y-15836365D01*
X15775667Y-16064936D02*
X15661381Y-16064936D01*
X15718524Y-16064936D02*
X15718524Y-15864936D01*
X15699477Y-15893508D01*
X15680429Y-15912555D01*
X15661381Y-15922079D01*
X15851858Y-15883984D02*
X15861381Y-15874460D01*
X15880429Y-15864936D01*
X15928048Y-15864936D01*
X15947096Y-15874460D01*
X15956619Y-15883984D01*
X15966143Y-15903031D01*
X15966143Y-15922079D01*
X15956619Y-15950650D01*
X15842334Y-16064936D01*
X15966143Y-16064936D01*
X16204238Y-16064936D02*
X16204238Y-15864936D01*
X16289953Y-16064936D02*
X16289953Y-15960174D01*
X16280429Y-15941127D01*
X16261381Y-15931603D01*
X16232810Y-15931603D01*
X16213762Y-15941127D01*
X16204238Y-15950650D01*
X16413762Y-16064936D02*
X16394715Y-16055412D01*
X16385191Y-16045888D01*
X16375667Y-16026841D01*
X16375667Y-15969698D01*
X16385191Y-15950650D01*
X16394715Y-15941127D01*
X16413762Y-15931603D01*
X16442334Y-15931603D01*
X16461381Y-15941127D01*
X16470905Y-15950650D01*
X16480429Y-15969698D01*
X16480429Y-16026841D01*
X16470905Y-16045888D01*
X16461381Y-16055412D01*
X16442334Y-16064936D01*
X16413762Y-16064936D01*
X16594715Y-16064936D02*
X16575667Y-16055412D01*
X16566143Y-16036365D01*
X16566143Y-15864936D01*
X16747096Y-16055412D02*
X16728048Y-16064936D01*
X16689953Y-16064936D01*
X16670905Y-16055412D01*
X16661381Y-16036365D01*
X16661381Y-15960174D01*
X16670905Y-15941127D01*
X16689953Y-15931603D01*
X16728048Y-15931603D01*
X16747096Y-15941127D01*
X16756619Y-15960174D01*
X16756619Y-15979222D01*
X16661381Y-15998269D01*
X16832810Y-16055412D02*
X16851858Y-16064936D01*
X16889953Y-16064936D01*
X16909000Y-16055412D01*
X16918524Y-16036365D01*
X16918524Y-16026841D01*
X16909000Y-16007793D01*
X16889953Y-15998269D01*
X16861381Y-15998269D01*
X16842334Y-15988746D01*
X16832810Y-15969698D01*
X16832810Y-15960174D01*
X16842334Y-15941127D01*
X16861381Y-15931603D01*
X16889953Y-15931603D01*
X16909000Y-15941127D01*
X16985191Y-16141127D02*
X16994715Y-16131603D01*
X17013762Y-16103031D01*
X17023286Y-16083984D01*
X17032810Y-16055412D01*
X17042334Y-16007793D01*
X17042334Y-15969698D01*
X17032810Y-15922079D01*
X17023286Y-15893508D01*
X17013762Y-15874460D01*
X16994715Y-15845888D01*
X16985191Y-15836365D01*
M02*
