G04 #@! TF.GenerationSoftware,KiCad,Pcbnew,6.0.2+dfsg-1*
G04 #@! TF.CreationDate,2025-05-07T10:44:28+02:00*
G04 #@! TF.ProjectId,burstcart-cpld-44,62757273-7463-4617-9274-2d63706c642d,1.1*
G04 #@! TF.SameCoordinates,Original*
G04 #@! TF.FileFunction,Soldermask,Bot*
G04 #@! TF.FilePolarity,Negative*
%FSLAX46Y46*%
G04 Gerber Fmt 4.6, Leading zero omitted, Abs format (unit mm)*
G04 Created by KiCad (PCBNEW 6.0.2+dfsg-1) date 2025-05-07 10:44:28*
%MOMM*%
%LPD*%
G01*
G04 APERTURE LIST*
G04 Aperture macros list*
%AMRoundRect*
0 Rectangle with rounded corners*
0 $1 Rounding radius*
0 $2 $3 $4 $5 $6 $7 $8 $9 X,Y pos of 4 corners*
0 Add a 4 corners polygon primitive as box body*
4,1,4,$2,$3,$4,$5,$6,$7,$8,$9,$2,$3,0*
0 Add four circle primitives for the rounded corners*
1,1,$1+$1,$2,$3*
1,1,$1+$1,$4,$5*
1,1,$1+$1,$6,$7*
1,1,$1+$1,$8,$9*
0 Add four rect primitives between the rounded corners*
20,1,$1+$1,$2,$3,$4,$5,0*
20,1,$1+$1,$4,$5,$6,$7,0*
20,1,$1+$1,$6,$7,$8,$9,0*
20,1,$1+$1,$8,$9,$2,$3,0*%
G04 Aperture macros list end*
%ADD10C,2.100000*%
%ADD11C,2.500000*%
%ADD12R,1.600000X1.600000*%
%ADD13O,1.600000X1.600000*%
%ADD14R,1.700000X1.700000*%
%ADD15O,1.700000X1.700000*%
%ADD16C,5.000000*%
%ADD17RoundRect,0.163300X-0.337500X-4.512500X0.337500X-4.512500X0.337500X4.512500X-0.337500X4.512500X0*%
%ADD18C,1.600000*%
G04 APERTURE END LIST*
D10*
X127976000Y-53294000D03*
X125476000Y-53594000D03*
X132976000Y-53294000D03*
X135476000Y-53594000D03*
D11*
X122976000Y-63294000D03*
X125476000Y-65794000D03*
X130476000Y-63294000D03*
X135476000Y-65794000D03*
X137976000Y-63294000D03*
X130476000Y-68294000D03*
D12*
X158999000Y-72854600D03*
D13*
X158999000Y-75394600D03*
X158999000Y-77934600D03*
X158999000Y-80474600D03*
X158999000Y-83014600D03*
X158999000Y-85554600D03*
X158999000Y-88094600D03*
X158999000Y-90634600D03*
X158999000Y-93174600D03*
X158999000Y-95714600D03*
X158999000Y-98254600D03*
X158999000Y-100794600D03*
X158999000Y-103334600D03*
X158999000Y-105874600D03*
X174239000Y-105874600D03*
X174239000Y-103334600D03*
X174239000Y-100794600D03*
X174239000Y-98254600D03*
X174239000Y-95714600D03*
X174239000Y-93174600D03*
X174239000Y-90634600D03*
X174239000Y-88094600D03*
X174239000Y-85554600D03*
X174239000Y-83014600D03*
X174239000Y-80474600D03*
X174239000Y-77934600D03*
X174239000Y-75394600D03*
X174239000Y-72854600D03*
D14*
X123967000Y-120650000D03*
D15*
X126507000Y-120650000D03*
X129047000Y-120650000D03*
D16*
X148253100Y-94259600D03*
D17*
X124253100Y-137759600D03*
X168253100Y-137759600D03*
X126253100Y-137759600D03*
X170253100Y-137759600D03*
X128253100Y-137759600D03*
X172253100Y-137759600D03*
X130253100Y-137759600D03*
X132253100Y-137759600D03*
X134253100Y-137759600D03*
X136253100Y-137759600D03*
X138253100Y-137759600D03*
X140253100Y-137759600D03*
X142253100Y-137759600D03*
X144253100Y-137759600D03*
X146253100Y-137759600D03*
X148253100Y-137759600D03*
X150253100Y-137759600D03*
X152253100Y-137759600D03*
X154253100Y-137759600D03*
X156253100Y-137759600D03*
X158253100Y-137759600D03*
X160253100Y-137759600D03*
X162253100Y-137759600D03*
X164253100Y-137759600D03*
X166253100Y-137759600D03*
D10*
X170862000Y-53594000D03*
X168362000Y-53294000D03*
X160862000Y-53594000D03*
X163362000Y-53294000D03*
D11*
X158362000Y-63294000D03*
X160862000Y-65794000D03*
X165862000Y-63294000D03*
X170862000Y-65794000D03*
X173362000Y-63294000D03*
X165862000Y-68294000D03*
D12*
X127193100Y-126492000D03*
D18*
X125193100Y-126492000D03*
D14*
X173990000Y-110998000D03*
D15*
X173990000Y-113538000D03*
X173990000Y-116078000D03*
X173990000Y-118618000D03*
X173990000Y-121158000D03*
X173990000Y-123698000D03*
M02*
