G04 #@! TF.GenerationSoftware,KiCad,Pcbnew,6.0.2+dfsg-1*
G04 #@! TF.CreationDate,2025-05-07T10:44:27+02:00*
G04 #@! TF.ProjectId,burstcart-cpld-44,62757273-7463-4617-9274-2d63706c642d,1.1*
G04 #@! TF.SameCoordinates,Original*
G04 #@! TF.FileFunction,Copper,L1,Top*
G04 #@! TF.FilePolarity,Positive*
%FSLAX46Y46*%
G04 Gerber Fmt 4.6, Leading zero omitted, Abs format (unit mm)*
G04 Created by KiCad (PCBNEW 6.0.2+dfsg-1) date 2025-05-07 10:44:27*
%MOMM*%
%LPD*%
G01*
G04 APERTURE LIST*
G04 Aperture macros list*
%AMRoundRect*
0 Rectangle with rounded corners*
0 $1 Rounding radius*
0 $2 $3 $4 $5 $6 $7 $8 $9 X,Y pos of 4 corners*
0 Add a 4 corners polygon primitive as box body*
4,1,4,$2,$3,$4,$5,$6,$7,$8,$9,$2,$3,0*
0 Add four circle primitives for the rounded corners*
1,1,$1+$1,$2,$3*
1,1,$1+$1,$4,$5*
1,1,$1+$1,$6,$7*
1,1,$1+$1,$8,$9*
0 Add four rect primitives between the rounded corners*
20,1,$1+$1,$2,$3,$4,$5,0*
20,1,$1+$1,$4,$5,$6,$7,0*
20,1,$1+$1,$6,$7,$8,$9,0*
20,1,$1+$1,$8,$9,$2,$3,0*%
%AMRotRect*
0 Rectangle, with rotation*
0 The origin of the aperture is its center*
0 $1 length*
0 $2 width*
0 $3 Rotation angle, in degrees counterclockwise*
0 Add horizontal line*
21,1,$1,$2,0,0,$3*%
G04 Aperture macros list end*
G04 #@! TA.AperFunction,SMDPad,CuDef*
%ADD10R,2.000000X1.500000*%
G04 #@! TD*
G04 #@! TA.AperFunction,SMDPad,CuDef*
%ADD11R,2.000000X3.800000*%
G04 #@! TD*
G04 #@! TA.AperFunction,SMDPad,CuDef*
%ADD12RotRect,1.500000X0.550000X315.000000*%
G04 #@! TD*
G04 #@! TA.AperFunction,SMDPad,CuDef*
%ADD13RotRect,1.500000X0.550000X45.000000*%
G04 #@! TD*
G04 #@! TA.AperFunction,ComponentPad*
%ADD14C,2.100000*%
G04 #@! TD*
G04 #@! TA.AperFunction,ComponentPad*
%ADD15C,2.200000*%
G04 #@! TD*
G04 #@! TA.AperFunction,ComponentPad*
%ADD16R,1.600000X1.600000*%
G04 #@! TD*
G04 #@! TA.AperFunction,ComponentPad*
%ADD17O,1.600000X1.600000*%
G04 #@! TD*
G04 #@! TA.AperFunction,SMDPad,CuDef*
%ADD18RoundRect,0.250000X-0.475000X0.337500X-0.475000X-0.337500X0.475000X-0.337500X0.475000X0.337500X0*%
G04 #@! TD*
G04 #@! TA.AperFunction,ComponentPad*
%ADD19R,1.700000X1.700000*%
G04 #@! TD*
G04 #@! TA.AperFunction,ComponentPad*
%ADD20O,1.700000X1.700000*%
G04 #@! TD*
G04 #@! TA.AperFunction,SMDPad,CuDef*
%ADD21RoundRect,0.112500X-0.337500X-4.512500X0.337500X-4.512500X0.337500X4.512500X-0.337500X4.512500X0*%
G04 #@! TD*
G04 #@! TA.AperFunction,ComponentPad*
%ADD22C,1.600000*%
G04 #@! TD*
G04 #@! TA.AperFunction,SMDPad,CuDef*
%ADD23RoundRect,0.250000X-0.350000X-0.450000X0.350000X-0.450000X0.350000X0.450000X-0.350000X0.450000X0*%
G04 #@! TD*
G04 #@! TA.AperFunction,SMDPad,CuDef*
%ADD24RoundRect,0.250000X0.537500X0.425000X-0.537500X0.425000X-0.537500X-0.425000X0.537500X-0.425000X0*%
G04 #@! TD*
G04 #@! TA.AperFunction,SMDPad,CuDef*
%ADD25RoundRect,0.250000X0.425000X-0.537500X0.425000X0.537500X-0.425000X0.537500X-0.425000X-0.537500X0*%
G04 #@! TD*
G04 #@! TA.AperFunction,ViaPad*
%ADD26C,0.800000*%
G04 #@! TD*
G04 #@! TA.AperFunction,Conductor*
%ADD27C,0.250000*%
G04 #@! TD*
G04 APERTURE END LIST*
D10*
X125628000Y-109474000D03*
X125628000Y-111774000D03*
D11*
X131928000Y-111774000D03*
D10*
X125628000Y-114074000D03*
D12*
X146371918Y-107419564D03*
X145806233Y-107985250D03*
X145240548Y-108550935D03*
X144674862Y-109116620D03*
X144109177Y-109682306D03*
X143543491Y-110247991D03*
X142977806Y-110813677D03*
X142412120Y-111379362D03*
X141846435Y-111945048D03*
X141280750Y-112510733D03*
X140715064Y-113076418D03*
D13*
X140715064Y-115480582D03*
X141280750Y-116046267D03*
X141846435Y-116611952D03*
X142412120Y-117177638D03*
X142977806Y-117743323D03*
X143543491Y-118309009D03*
X144109177Y-118874694D03*
X144674862Y-119440380D03*
X145240548Y-120006065D03*
X145806233Y-120571750D03*
X146371918Y-121137436D03*
D12*
X148776082Y-121137436D03*
X149341767Y-120571750D03*
X149907452Y-120006065D03*
X150473138Y-119440380D03*
X151038823Y-118874694D03*
X151604509Y-118309009D03*
X152170194Y-117743323D03*
X152735880Y-117177638D03*
X153301565Y-116611952D03*
X153867250Y-116046267D03*
X154432936Y-115480582D03*
D13*
X154432936Y-113076418D03*
X153867250Y-112510733D03*
X153301565Y-111945048D03*
X152735880Y-111379362D03*
X152170194Y-110813677D03*
X151604509Y-110247991D03*
X151038823Y-109682306D03*
X150473138Y-109116620D03*
X149907452Y-108550935D03*
X149341767Y-107985250D03*
X148776082Y-107419564D03*
D14*
X127976000Y-53294000D03*
X125476000Y-53594000D03*
X132976000Y-53294000D03*
X135476000Y-53594000D03*
D15*
X122976000Y-63294000D03*
X125476000Y-65794000D03*
X130476000Y-63294000D03*
X135476000Y-65794000D03*
X137976000Y-63294000D03*
X130476000Y-68294000D03*
D16*
X158999000Y-72854600D03*
D17*
X158999000Y-75394600D03*
X158999000Y-77934600D03*
X158999000Y-80474600D03*
X158999000Y-83014600D03*
X158999000Y-85554600D03*
X158999000Y-88094600D03*
X158999000Y-90634600D03*
X158999000Y-93174600D03*
X158999000Y-95714600D03*
X158999000Y-98254600D03*
X158999000Y-100794600D03*
X158999000Y-103334600D03*
X158999000Y-105874600D03*
X174239000Y-105874600D03*
X174239000Y-103334600D03*
X174239000Y-100794600D03*
X174239000Y-98254600D03*
X174239000Y-95714600D03*
X174239000Y-93174600D03*
X174239000Y-90634600D03*
X174239000Y-88094600D03*
X174239000Y-85554600D03*
X174239000Y-83014600D03*
X174239000Y-80474600D03*
X174239000Y-77934600D03*
X174239000Y-75394600D03*
X174239000Y-72854600D03*
D18*
X137922000Y-122914500D03*
X137922000Y-124989500D03*
X157226000Y-122914500D03*
X157226000Y-124989500D03*
D19*
X123967000Y-120650000D03*
D20*
X126507000Y-120650000D03*
X129047000Y-120650000D03*
D21*
X124253100Y-137759600D03*
X126253100Y-137759600D03*
X128253100Y-137759600D03*
X130253100Y-137759600D03*
X132253100Y-137759600D03*
X134253100Y-137759600D03*
X136253100Y-137759600D03*
X138253100Y-137759600D03*
X140253100Y-137759600D03*
X142253100Y-137759600D03*
X144253100Y-137759600D03*
X146253100Y-137759600D03*
X148253100Y-137759600D03*
X150253100Y-137759600D03*
X152253100Y-137759600D03*
X154253100Y-137759600D03*
X156253100Y-137759600D03*
X158253100Y-137759600D03*
X160253100Y-137759600D03*
X162253100Y-137759600D03*
X164253100Y-137759600D03*
X166253100Y-137759600D03*
X168253100Y-137759600D03*
X170253100Y-137759600D03*
X172253100Y-137759600D03*
D14*
X170862000Y-53594000D03*
X168362000Y-53294000D03*
X160862000Y-53594000D03*
X163362000Y-53294000D03*
D15*
X158362000Y-63294000D03*
X160862000Y-65794000D03*
X165862000Y-63294000D03*
X170862000Y-65794000D03*
X173362000Y-63294000D03*
X165862000Y-68294000D03*
D16*
X127193100Y-126492000D03*
D22*
X125193100Y-126492000D03*
D23*
X147590000Y-72898000D03*
X149590000Y-72898000D03*
D24*
X127929500Y-130810000D03*
X125054500Y-130810000D03*
D25*
X122936000Y-112435500D03*
X122936000Y-109560500D03*
D23*
X147590000Y-77978000D03*
X149590000Y-77978000D03*
D18*
X161798000Y-111484500D03*
X161798000Y-113559500D03*
D19*
X173990000Y-110998000D03*
D20*
X173990000Y-113538000D03*
X173990000Y-116078000D03*
X173990000Y-118618000D03*
X173990000Y-121158000D03*
X173990000Y-123698000D03*
D26*
X159004000Y-121919400D03*
X152665400Y-122826500D03*
X161471200Y-109259800D03*
X169432400Y-100542700D03*
X158498700Y-111857200D03*
X154527600Y-125268000D03*
X153752400Y-122827700D03*
X153384200Y-118460500D03*
X168259000Y-114640000D03*
X155721400Y-119403500D03*
X169627800Y-114191400D03*
X150938300Y-117039800D03*
X156438400Y-117760200D03*
X145750200Y-118272000D03*
X163675500Y-114425400D03*
X147383100Y-108678500D03*
X151950800Y-104617000D03*
X152378000Y-115597500D03*
X146491800Y-109780100D03*
X142988500Y-120645400D03*
X139268500Y-124591900D03*
X150842400Y-121022300D03*
X127274000Y-109154900D03*
X157139700Y-126201900D03*
X123197600Y-137076700D03*
X137944600Y-120799800D03*
X173333600Y-136912000D03*
X147116600Y-79334100D03*
X124006800Y-113565300D03*
X149044200Y-74469200D03*
X134970400Y-127881200D03*
X151482200Y-116118800D03*
X135837800Y-116943600D03*
X135502100Y-114700900D03*
X144388300Y-106851100D03*
X138777700Y-113219500D03*
X152435400Y-113646700D03*
X132434900Y-131814000D03*
X149401000Y-116791200D03*
X140116900Y-123987300D03*
X138841600Y-114221500D03*
X143820000Y-122286600D03*
X142825500Y-127137300D03*
X145661100Y-114557700D03*
X146885800Y-111099800D03*
X144371200Y-127949900D03*
X153537000Y-106806700D03*
X148278000Y-111796400D03*
X168172400Y-99009400D03*
X144926200Y-129560700D03*
X145805900Y-130333900D03*
X167532900Y-116320000D03*
X151853300Y-120644200D03*
X141749400Y-114004700D03*
X145239300Y-132152500D03*
X142824000Y-115625300D03*
X146282500Y-132047900D03*
X160601000Y-88712100D03*
X143542600Y-124651500D03*
X143737000Y-116354900D03*
X146817600Y-125279900D03*
X152574200Y-93106700D03*
X155027100Y-100395400D03*
X145554000Y-110796900D03*
X143834900Y-121233100D03*
X153156100Y-91917500D03*
X148806700Y-119170100D03*
X166060000Y-126859500D03*
X165383800Y-128942400D03*
X164653000Y-130410600D03*
X163275100Y-132861000D03*
X153063300Y-119793700D03*
X163276100Y-119540900D03*
X162115000Y-117326100D03*
X143210700Y-108476600D03*
X155365000Y-93497800D03*
X145574500Y-111844800D03*
X151547800Y-84911000D03*
X151793700Y-76214600D03*
X149548200Y-114279500D03*
X132083300Y-114871000D03*
X161432100Y-110277900D03*
X141438900Y-118152000D03*
X137428900Y-119211400D03*
X144411800Y-112052900D03*
X171456500Y-114937000D03*
X140295500Y-114457200D03*
X142985200Y-112765400D03*
X150807900Y-122062100D03*
D27*
X133705300Y-117542300D02*
X133705300Y-132612100D01*
X137662700Y-113584900D02*
X133705300Y-117542300D01*
X141482800Y-109486500D02*
X137662700Y-113306600D01*
X137662700Y-113306600D02*
X137662700Y-113584900D01*
X142782000Y-109486500D02*
X141482800Y-109486500D01*
X133705300Y-132612100D02*
X132253100Y-134064300D01*
X132253100Y-134064300D02*
X132253100Y-137759600D01*
X143543500Y-110248000D02*
X142782000Y-109486500D01*
X162852500Y-110641100D02*
X162852500Y-112090300D01*
X150253100Y-137759600D02*
X150253100Y-127528800D01*
X152665400Y-125116500D02*
X152665400Y-122826500D01*
X150253100Y-127528800D02*
X152665400Y-125116500D01*
X160513700Y-113184700D02*
X160513700Y-120409700D01*
X152735900Y-111379400D02*
X154855500Y-109259800D01*
X161202400Y-112496000D02*
X160513700Y-113184700D01*
X161471200Y-109259800D02*
X162852500Y-110641100D01*
X154855500Y-109259800D02*
X161471200Y-109259800D01*
X162446800Y-112496000D02*
X161202400Y-112496000D01*
X162852500Y-112090300D02*
X162446800Y-112496000D01*
X160513700Y-120409700D02*
X159004000Y-121919400D01*
X158498700Y-112937900D02*
X158498700Y-111857200D01*
X174239000Y-98254600D02*
X171720500Y-98254600D01*
X171720500Y-98254600D02*
X169432400Y-100542700D01*
X153867300Y-116046300D02*
X154628800Y-116807800D01*
X154628800Y-123903600D02*
X154628800Y-116807800D01*
X152253100Y-137759600D02*
X152253100Y-126279300D01*
X152253100Y-126279300D02*
X154628800Y-123903600D01*
X154628800Y-116807800D02*
X158498700Y-112937900D01*
X154117200Y-117427600D02*
X154063000Y-117373400D01*
X154253100Y-137759600D02*
X154253100Y-125542500D01*
X154117200Y-122462900D02*
X154117200Y-117427600D01*
X153752400Y-122827700D02*
X154117200Y-122462900D01*
X153301600Y-116612000D02*
X154063000Y-117373400D01*
X154253100Y-125542500D02*
X154527600Y-125268000D01*
X155708880Y-130562880D02*
X155708880Y-119416020D01*
X168259000Y-110208000D02*
X174005500Y-104461500D01*
X153384200Y-118460500D02*
X153384200Y-118052300D01*
X174005500Y-104461500D02*
X174239000Y-104461500D01*
X153384200Y-118052300D02*
X153497400Y-117939100D01*
X174239000Y-103334600D02*
X174239000Y-104461500D01*
X156253100Y-131107100D02*
X155708880Y-130562880D01*
X168259000Y-114640000D02*
X168259000Y-110208000D01*
X156253100Y-137759600D02*
X156253100Y-131107100D01*
X152735900Y-117177600D02*
X153497400Y-117939100D01*
X156158400Y-121713400D02*
X156158400Y-127693700D01*
X158253100Y-129788400D02*
X158253100Y-137759600D01*
X156532300Y-121339500D02*
X156158400Y-121713400D01*
X156532300Y-117854100D02*
X156532300Y-121339500D01*
X150996300Y-116981800D02*
X150938300Y-117039800D01*
X174239000Y-105874600D02*
X174239000Y-107001500D01*
X169627800Y-114191400D02*
X169627800Y-111612700D01*
X151408700Y-116981800D02*
X150996300Y-116981800D01*
X169627800Y-111612700D02*
X174239000Y-107001500D01*
X156158400Y-127693700D02*
X158253100Y-129788400D01*
X152170200Y-117743300D02*
X151408700Y-116981800D01*
X156438400Y-117760200D02*
X156532300Y-117854100D01*
X164218700Y-108554300D02*
X158999000Y-103334600D01*
X163675500Y-114425400D02*
X164218700Y-113882200D01*
X144674900Y-119440400D02*
X145436400Y-118678900D01*
X145436300Y-118678900D02*
X145436400Y-118678900D01*
X160253100Y-137759600D02*
X160253100Y-123011400D01*
X162026600Y-118691600D02*
X163675500Y-117042700D01*
X160253100Y-123011400D02*
X162026600Y-121237900D01*
X164218700Y-113882200D02*
X164218700Y-108554300D01*
X162026600Y-121237900D02*
X162026600Y-118691600D01*
X145436300Y-118585900D02*
X145436300Y-118678900D01*
X163675500Y-117042700D02*
X163675500Y-114425400D01*
X145750200Y-118272000D02*
X145436300Y-118585900D01*
X145806200Y-107985200D02*
X146567700Y-108746700D01*
X162253100Y-137759600D02*
X162535300Y-137477400D01*
X146567700Y-108746700D02*
X146635900Y-108678500D01*
X162535300Y-119234000D02*
X164672100Y-117097200D01*
X164672100Y-107363300D02*
X159230300Y-101921500D01*
X159230300Y-101921500D02*
X158999000Y-101921500D01*
X158999000Y-100794600D02*
X158999000Y-101921500D01*
X146635900Y-108678500D02*
X147383100Y-108678500D01*
X164672100Y-117097200D02*
X164672100Y-107363300D01*
X162535300Y-137477400D02*
X162535300Y-119234000D01*
X151604500Y-110248000D02*
X152366000Y-109486500D01*
X164253100Y-137759600D02*
X164253100Y-131975300D01*
X151950800Y-109071300D02*
X152366000Y-109486500D01*
X164253100Y-131975300D02*
X163923400Y-131645600D01*
X163923400Y-120082900D02*
X165124000Y-118882300D01*
X165124000Y-118882300D02*
X165124000Y-105273000D01*
X151950800Y-104617000D02*
X151950800Y-109071300D01*
X163923400Y-131645600D02*
X163923400Y-120082900D01*
X165124000Y-105273000D02*
X159232500Y-99381500D01*
X158999000Y-98254600D02*
X158999000Y-99381500D01*
X159232500Y-99381500D02*
X158999000Y-99381500D01*
X153430400Y-114960200D02*
X153671500Y-114719100D01*
X153110900Y-115277400D02*
X153428100Y-114960200D01*
X153428100Y-114960200D02*
X153430400Y-114960200D01*
X152646300Y-115597500D02*
X152966400Y-115277400D01*
X154432900Y-115480600D02*
X153671500Y-114719100D01*
X152378000Y-115597500D02*
X152646300Y-115597500D01*
X152966400Y-115277400D02*
X153110900Y-115277400D01*
X145534300Y-109780100D02*
X145436400Y-109878000D01*
X163304400Y-109980300D02*
X163304400Y-112280100D01*
X123829300Y-137335800D02*
X124253100Y-137759600D01*
X159198700Y-105874600D02*
X163304400Y-109980300D01*
X125193100Y-126492000D02*
X125193100Y-130671400D01*
X123829300Y-132035200D02*
X123829300Y-137076700D01*
X163304400Y-112280100D02*
X162025000Y-113559500D01*
X125476000Y-65794000D02*
X125476000Y-108245100D01*
X143543500Y-118309000D02*
X142782000Y-119070500D01*
X125193100Y-130671400D02*
X125054500Y-130810000D01*
X138817000Y-124140400D02*
X139268500Y-124591900D01*
X123829300Y-137076700D02*
X123829300Y-137335800D01*
X142782000Y-119070500D02*
X142782000Y-120438900D01*
X125628000Y-109474000D02*
X126954900Y-109474000D01*
X158999000Y-105874600D02*
X159198700Y-105874600D01*
X149907500Y-120006100D02*
X150842400Y-120941000D01*
X157226000Y-126115600D02*
X157139700Y-126201900D01*
X162025000Y-113559500D02*
X161798000Y-113559500D01*
X161190700Y-114166800D02*
X161798000Y-113559500D01*
X150842400Y-120941000D02*
X150842400Y-121022300D01*
X125054500Y-130810000D02*
X123829300Y-132035200D01*
X173100700Y-136912000D02*
X172253100Y-137759600D01*
X126954900Y-109474000D02*
X127274000Y-109154900D01*
X173333600Y-136912000D02*
X173100700Y-136912000D01*
X125476000Y-108245100D02*
X125628000Y-108397100D01*
X157226000Y-124989500D02*
X157226000Y-126115600D01*
X125628000Y-109474000D02*
X123022500Y-109474000D01*
X138974900Y-123982500D02*
X138974900Y-121830100D01*
X144674900Y-109116600D02*
X145436400Y-109878000D01*
X138974900Y-121830100D02*
X137944600Y-120799800D01*
X142782000Y-120438900D02*
X142988500Y-120645400D01*
X123022500Y-109474000D02*
X122936000Y-109560500D01*
X123829300Y-137076700D02*
X123197600Y-137076700D01*
X138817000Y-124140400D02*
X138974900Y-123982500D01*
X146491800Y-109780100D02*
X145534300Y-109780100D01*
X125628000Y-109474000D02*
X125628000Y-108397100D01*
X137922000Y-124989500D02*
X138771100Y-124140400D01*
X157226000Y-124989500D02*
X161190700Y-121024800D01*
X161190700Y-121024800D02*
X161190700Y-114166800D01*
X138771100Y-124140400D02*
X138817000Y-124140400D01*
X153898700Y-75892600D02*
X153898700Y-77978000D01*
X137976000Y-66364000D02*
X137976000Y-63294000D01*
X173362000Y-63294000D02*
X168706015Y-63294000D01*
X153898600Y-77978000D02*
X149590000Y-77978000D01*
X160839415Y-71160600D02*
X158630700Y-71160600D01*
X153898700Y-77978000D02*
X153898600Y-77978000D01*
X152800900Y-108210300D02*
X152931700Y-108341100D01*
X149590000Y-77978000D02*
X137976000Y-66364000D01*
X152931700Y-108341100D02*
X152931700Y-110052200D01*
X168706015Y-63294000D02*
X160839415Y-71160600D01*
X152800900Y-97233200D02*
X152800900Y-108210300D01*
X153898600Y-96135500D02*
X152800900Y-97233200D01*
X153898600Y-77978000D02*
X153898600Y-96135500D01*
X158630700Y-71160600D02*
X153898700Y-75892600D01*
X152170200Y-110813700D02*
X152931700Y-110052200D01*
X125628000Y-114074000D02*
X124301100Y-114074000D01*
X127193100Y-125053000D02*
X123967000Y-121826900D01*
X127929500Y-130810000D02*
X127929500Y-137436000D01*
X123967000Y-120650000D02*
X123967000Y-121826900D01*
X127929500Y-128355300D02*
X127929500Y-130810000D01*
X126253100Y-137759600D02*
X128253100Y-137759600D01*
X123967000Y-120650000D02*
X123967000Y-119473100D01*
X127929500Y-137436000D02*
X128253100Y-137759600D01*
X127193100Y-126855500D02*
X127193100Y-127618900D01*
X127193100Y-126855500D02*
X127193100Y-126492000D01*
X147116600Y-78451400D02*
X147116600Y-79334100D01*
X147590000Y-77978000D02*
X147116600Y-78451400D01*
X124301100Y-114074000D02*
X124006800Y-113779700D01*
X123967000Y-119473100D02*
X124301100Y-119139000D01*
X147590000Y-73015000D02*
X147590000Y-72898000D01*
X124301100Y-119139000D02*
X124301100Y-114074000D01*
X127193100Y-127618900D02*
X127929500Y-128355300D01*
X149044200Y-74469200D02*
X147590000Y-73015000D01*
X127193100Y-126492000D02*
X127193100Y-125053000D01*
X124006800Y-113779700D02*
X124006800Y-113565300D01*
X154432900Y-113076400D02*
X153671500Y-113837800D01*
X152923700Y-114825500D02*
X153614200Y-114135000D01*
X152279700Y-114870600D02*
X152324800Y-114825500D01*
X134253100Y-137759600D02*
X134253100Y-128598500D01*
X153614200Y-114135000D02*
X153614200Y-113895100D01*
X152324800Y-114825500D02*
X152923700Y-114825500D01*
X151482200Y-115465400D02*
X152077000Y-114870600D01*
X152077000Y-114870600D02*
X152279700Y-114870600D01*
X134253100Y-128598500D02*
X134970400Y-127881200D01*
X151482200Y-116118800D02*
X151482200Y-115465400D01*
X153614200Y-113895100D02*
X153671500Y-113837800D01*
X135837800Y-129487800D02*
X135837800Y-116943600D01*
X144439300Y-107749700D02*
X142453300Y-107749700D01*
X145240500Y-108550900D02*
X144439300Y-107749700D01*
X136253100Y-129903100D02*
X135837800Y-129487800D01*
X142453300Y-107749700D02*
X135502100Y-114700900D01*
X136253100Y-137759600D02*
X136253100Y-129903100D01*
X145610400Y-106658100D02*
X144581300Y-106658100D01*
X138777700Y-113219500D02*
X136660700Y-115336500D01*
X136660700Y-115336500D02*
X136660700Y-126741800D01*
X146371900Y-107419600D02*
X145610400Y-106658100D01*
X144581300Y-106658100D02*
X144388300Y-106851100D01*
X136660700Y-126741800D02*
X138253100Y-128334200D01*
X138253100Y-128334200D02*
X138253100Y-137759600D01*
X139568600Y-120196100D02*
X140852500Y-121480000D01*
X142412100Y-111379400D02*
X141650600Y-110617900D01*
X140852500Y-121480000D02*
X140852500Y-128840300D01*
X139568600Y-112699900D02*
X139568600Y-120196100D01*
X141650600Y-110617900D02*
X139568600Y-112699900D01*
X140852500Y-128840300D02*
X146253100Y-134240900D01*
X146253100Y-134240900D02*
X146253100Y-137759600D01*
X152435400Y-112811200D02*
X153301600Y-111945000D01*
X152435400Y-112811200D02*
X152435400Y-113646700D01*
X147588900Y-107755300D02*
X145933900Y-106100300D01*
X145933900Y-106100300D02*
X143071000Y-106100300D01*
X148776100Y-107419600D02*
X148014700Y-108181000D01*
X132434900Y-116736400D02*
X132434900Y-131814000D01*
X143071000Y-106100300D02*
X132434900Y-116736400D01*
X148014700Y-108181000D02*
X147588900Y-107755300D01*
X149468400Y-113331400D02*
X148821300Y-113978500D01*
X149401000Y-115160200D02*
X149401000Y-116791200D01*
X148821300Y-114580500D02*
X149401000Y-115160200D01*
X151038800Y-109682300D02*
X149468400Y-111252700D01*
X148821300Y-113978500D02*
X148821300Y-114580500D01*
X149468400Y-111252700D02*
X149468400Y-113331400D01*
X144581500Y-120869900D02*
X144581500Y-121525100D01*
X144581500Y-121525100D02*
X143820000Y-122286600D01*
X138841600Y-120537500D02*
X138841600Y-114221500D01*
X140116900Y-121812800D02*
X138841600Y-120537500D01*
X140116900Y-123987300D02*
X140116900Y-121812800D01*
X144479100Y-120767500D02*
X144581500Y-120869900D01*
X145240500Y-120006100D02*
X144479100Y-120767500D01*
X145661100Y-114557700D02*
X145661100Y-114615800D01*
X145806200Y-120571800D02*
X146567700Y-119810300D01*
X145806200Y-120571800D02*
X145044700Y-121333300D01*
X145044700Y-124918100D02*
X145044700Y-121333300D01*
X142825500Y-127137300D02*
X145044700Y-124918100D01*
X146567700Y-115522400D02*
X146567700Y-119810300D01*
X145661100Y-114615800D02*
X146567700Y-115522400D01*
X146885800Y-111099800D02*
X146885800Y-111727800D01*
X144371200Y-127949900D02*
X145610400Y-126710700D01*
X156091900Y-95861600D02*
X156091900Y-79195100D01*
X147120300Y-120362900D02*
X147133400Y-120375900D01*
X147120300Y-118462700D02*
X147120300Y-120362900D01*
X145610400Y-126710700D02*
X145610400Y-121898900D01*
X147013700Y-115329300D02*
X147028000Y-115343600D01*
X147028000Y-118370400D02*
X147120300Y-118462700D01*
X153537000Y-106806700D02*
X153537000Y-98416500D01*
X147028000Y-115343600D02*
X147028000Y-118370400D01*
X158999000Y-75394600D02*
X158999000Y-76521500D01*
X146371900Y-121137400D02*
X147133400Y-120375900D01*
X156091900Y-79195100D02*
X158765500Y-76521500D01*
X146371900Y-121137400D02*
X145610400Y-121898900D01*
X153537000Y-98416500D02*
X156091900Y-95861600D01*
X146885800Y-111727800D02*
X147013700Y-111855700D01*
X158765500Y-76521500D02*
X158999000Y-76521500D01*
X147013700Y-111855700D02*
X147013700Y-115329300D01*
X148278000Y-111796400D02*
X147917500Y-112156900D01*
X147917500Y-112156900D02*
X147917500Y-114954900D01*
X148776100Y-121137400D02*
X149537600Y-121898900D01*
X149537600Y-124949300D02*
X144926200Y-129560700D01*
X148045200Y-120406500D02*
X148776100Y-121137400D01*
X147917500Y-114954900D02*
X148045200Y-115082600D01*
X174239000Y-86681500D02*
X173957300Y-86681500D01*
X148045200Y-115082600D02*
X148045200Y-120406500D01*
X149537600Y-121898900D02*
X149537600Y-124949300D01*
X174239000Y-85554600D02*
X174239000Y-86681500D01*
X168172400Y-92466400D02*
X168172400Y-99009400D01*
X173957300Y-86681500D02*
X168172400Y-92466400D01*
X174239000Y-90634600D02*
X174239000Y-91761500D01*
X151853300Y-124286500D02*
X151853300Y-120644200D01*
X151800300Y-120591200D02*
X151853300Y-120644200D01*
X172824400Y-95890700D02*
X167532100Y-101183000D01*
X145805900Y-130333900D02*
X151853300Y-124286500D01*
X174005500Y-91761500D02*
X172824400Y-92942600D01*
X167532100Y-101183000D02*
X167532100Y-116319200D01*
X167532100Y-116319200D02*
X167532900Y-116320000D01*
X151038800Y-118874700D02*
X151800300Y-119636200D01*
X172824400Y-92942600D02*
X172824400Y-95890700D01*
X174239000Y-91761500D02*
X174005500Y-91761500D01*
X151800300Y-119636200D02*
X151800300Y-120591200D01*
X141311600Y-128224800D02*
X141311600Y-120998300D01*
X145239300Y-132152500D02*
X141311600Y-128224800D01*
X141476600Y-114719100D02*
X141476500Y-114719100D01*
X140206600Y-115989100D02*
X140715100Y-115480600D01*
X140206600Y-119893300D02*
X140206600Y-115989100D01*
X141749400Y-114181000D02*
X141749400Y-114004700D01*
X141476500Y-114453900D02*
X141749400Y-114181000D01*
X141476500Y-114719100D02*
X141476500Y-114453900D01*
X141311600Y-120998300D02*
X140206600Y-119893300D01*
X140715100Y-115480600D02*
X141476600Y-114719100D01*
X141846400Y-116612000D02*
X142824000Y-115634400D01*
X168838500Y-80474600D02*
X174239000Y-80474600D01*
X160601000Y-88712100D02*
X168838500Y-80474600D01*
X140683300Y-117775100D02*
X141846400Y-116612000D01*
X142824000Y-115634400D02*
X142824000Y-115625300D01*
X141778100Y-127543500D02*
X146282500Y-132047900D01*
X140683300Y-119679400D02*
X141778100Y-120774200D01*
X141778100Y-120774200D02*
X141778100Y-127543500D01*
X140683300Y-117775100D02*
X140683300Y-119679400D01*
X142245900Y-118534400D02*
X142216300Y-118504800D01*
X142977800Y-117743300D02*
X143739300Y-116981800D01*
X143739300Y-116981800D02*
X143737000Y-116979500D01*
X143737000Y-116979500D02*
X143737000Y-116354900D01*
X142245900Y-123354800D02*
X142245900Y-118534400D01*
X143542600Y-124651500D02*
X142245900Y-123354800D01*
X142977800Y-117743300D02*
X142216300Y-118504800D01*
X147690100Y-111356400D02*
X147465600Y-111580900D01*
X147593300Y-115269800D02*
X147593300Y-124504200D01*
X152574200Y-93106700D02*
X152574200Y-95317700D01*
X147465600Y-111580900D02*
X147465600Y-115142100D01*
X149907500Y-108550900D02*
X147690100Y-110768300D01*
X152574200Y-95317700D02*
X150772000Y-97119900D01*
X147465600Y-115142100D02*
X147593300Y-115269800D01*
X147593300Y-124504200D02*
X146817600Y-125279900D01*
X147690100Y-110768300D02*
X147690100Y-111356400D01*
X150772000Y-107686400D02*
X149907500Y-108550900D01*
X150772000Y-97119900D02*
X150772000Y-107686400D01*
X146301800Y-112474200D02*
X146301800Y-111544100D01*
X156863800Y-85995000D02*
X156863800Y-98558700D01*
X143728500Y-119255400D02*
X144109200Y-118874700D01*
X158999000Y-83014600D02*
X158999000Y-84141500D01*
X146301800Y-111544100D02*
X145554700Y-110797000D01*
X156863800Y-98558700D02*
X155027100Y-100395400D01*
X143834900Y-120123400D02*
X143834900Y-121233100D01*
X158999000Y-84141500D02*
X158717300Y-84141500D01*
X144870700Y-118113200D02*
X144870700Y-113905300D01*
X143347700Y-119636200D02*
X143834900Y-120123400D01*
X143728500Y-119255400D02*
X143347700Y-119636200D01*
X145554000Y-110797000D02*
X145554000Y-110796900D01*
X158717300Y-84141500D02*
X156863800Y-85995000D01*
X144870700Y-113905300D02*
X146301800Y-112474200D01*
X144109200Y-118874700D02*
X144870700Y-118113200D01*
X145554700Y-110797000D02*
X145554000Y-110797000D01*
X151223900Y-97341500D02*
X151223900Y-108344400D01*
X153345500Y-92106900D02*
X153345500Y-95219900D01*
X148369400Y-114767700D02*
X148497100Y-114895400D01*
X150473100Y-109116600D02*
X149006500Y-110583200D01*
X150473100Y-109116600D02*
X151234600Y-108355100D01*
X153345500Y-95219900D02*
X151223900Y-97341500D01*
X148369400Y-113791300D02*
X148369400Y-114767700D01*
X149006500Y-113154200D02*
X148369400Y-113791300D01*
X149006500Y-110583200D02*
X149006500Y-113154200D01*
X148497100Y-118860500D02*
X148806700Y-119170100D01*
X148497100Y-114895400D02*
X148497100Y-118860500D01*
X153156100Y-91917500D02*
X153345500Y-92106900D01*
X151223900Y-108344400D02*
X151234600Y-108355100D01*
X159232500Y-89221500D02*
X166495700Y-96484700D01*
X166495700Y-96484700D02*
X166495700Y-126423800D01*
X158999000Y-89221500D02*
X159232500Y-89221500D01*
X158999000Y-88094600D02*
X158999000Y-89221500D01*
X166495700Y-126423800D02*
X166060000Y-126859500D01*
X165315000Y-126576300D02*
X166027800Y-125863500D01*
X165315000Y-128873600D02*
X165315000Y-126576300D01*
X165383800Y-128942400D02*
X165315000Y-128873600D01*
X159232500Y-91761500D02*
X158999000Y-91761500D01*
X158999000Y-90634600D02*
X158999000Y-91761500D01*
X166027800Y-98556800D02*
X159232500Y-91761500D01*
X166027800Y-125863500D02*
X166027800Y-98556800D01*
X164653000Y-126599200D02*
X165575900Y-125676300D01*
X165575900Y-100644900D02*
X159232500Y-94301500D01*
X159232500Y-94301500D02*
X158999000Y-94301500D01*
X165575900Y-125676300D02*
X165575900Y-100644900D01*
X158999000Y-93174600D02*
X158999000Y-94301500D01*
X164653000Y-130410600D02*
X164653000Y-126599200D01*
X163762300Y-113180100D02*
X163762300Y-108968400D01*
X153063300Y-119793700D02*
X152366000Y-119096400D01*
X152366000Y-119096400D02*
X152366000Y-119070500D01*
X162115000Y-117326100D02*
X162850900Y-116590200D01*
X158636000Y-104604600D02*
X157847300Y-103815900D01*
X157847300Y-103815900D02*
X157847300Y-97759700D01*
X158765500Y-96841500D02*
X158999000Y-96841500D01*
X163275100Y-132861000D02*
X163275100Y-119541900D01*
X159398500Y-104604600D02*
X158636000Y-104604600D01*
X162850900Y-114091500D02*
X163762300Y-113180100D01*
X151604500Y-118309000D02*
X152366000Y-119070500D01*
X157847300Y-97759700D02*
X158765500Y-96841500D01*
X163762300Y-108968400D02*
X159398500Y-104604600D01*
X158999000Y-95714600D02*
X158999000Y-96841500D01*
X163275100Y-119541900D02*
X163276100Y-119540900D01*
X162850900Y-116590200D02*
X162850900Y-114091500D01*
X143347700Y-108613600D02*
X143210700Y-108476600D01*
X158999000Y-73981500D02*
X158717300Y-73981500D01*
X158717300Y-73981500D02*
X155365000Y-77333800D01*
X144109200Y-109682300D02*
X143347700Y-108920800D01*
X143347700Y-108920800D02*
X143347700Y-108613600D01*
X155365000Y-77333800D02*
X155365000Y-93497800D01*
X158999000Y-72854600D02*
X158999000Y-73981500D01*
X141280700Y-116046300D02*
X143152400Y-114174600D01*
X145574500Y-111934700D02*
X145574500Y-111844800D01*
X143152400Y-114174600D02*
X143334600Y-114174600D01*
X143334600Y-114174600D02*
X145574500Y-111934700D01*
X149590000Y-68564000D02*
X141732000Y-60706000D01*
X125564000Y-60706000D02*
X122976000Y-63294000D01*
X158362000Y-63294000D02*
X149590000Y-72066000D01*
X149590000Y-72898000D02*
X149590000Y-68564000D01*
X151603800Y-95631500D02*
X151603800Y-84967000D01*
X151793700Y-75101700D02*
X151793700Y-76214600D01*
X149590000Y-72898000D02*
X151793700Y-75101700D01*
X150103300Y-107223700D02*
X150103300Y-97132000D01*
X151603800Y-84967000D02*
X151547800Y-84911000D01*
X149341800Y-107985200D02*
X150103300Y-107223700D01*
X150103300Y-97132000D02*
X151603800Y-95631500D01*
X141732000Y-60706000D02*
X125564000Y-60706000D01*
X153105800Y-113272200D02*
X155260400Y-111117600D01*
X141438900Y-118152000D02*
X141650600Y-117940300D01*
X149711700Y-118678900D02*
X149815400Y-118575200D01*
X131109100Y-114871000D02*
X126507000Y-119473100D01*
X122936000Y-112435500D02*
X123639600Y-112435500D01*
X149848900Y-114580200D02*
X149548200Y-114279500D01*
X127600500Y-112419600D02*
X126954900Y-111774000D01*
X149815400Y-117404800D02*
X150127900Y-117092300D01*
X161432100Y-110460800D02*
X159882800Y-110460800D01*
X126507000Y-120650000D02*
X126507000Y-119473100D01*
X152736500Y-114373600D02*
X150334500Y-114373600D01*
X132083300Y-114871000D02*
X131109100Y-114871000D01*
X131928000Y-112419600D02*
X131928000Y-114000900D01*
X137428900Y-119211400D02*
X137199200Y-119441100D01*
X150127900Y-114580200D02*
X149848900Y-114580200D01*
X153162300Y-113328700D02*
X153162300Y-113947800D01*
X161432100Y-110460800D02*
X161432100Y-110277900D01*
X161798000Y-111484500D02*
X161797900Y-111484500D01*
X123639600Y-112435500D02*
X124301100Y-111774000D01*
X153105800Y-113272200D02*
X153162300Y-113328700D01*
X142412100Y-117177600D02*
X141650600Y-117939100D01*
X159226000Y-111117600D02*
X155260400Y-111117600D01*
X131928000Y-112419600D02*
X127600500Y-112419600D01*
X153162300Y-113947800D02*
X152736500Y-114373600D01*
X132083300Y-114871000D02*
X132083300Y-114156200D01*
X149815400Y-118575200D02*
X149815400Y-117404800D01*
X137199200Y-122191700D02*
X137922000Y-122914500D01*
X141650600Y-117940300D02*
X141650600Y-117939100D01*
X159882800Y-110460800D02*
X159226000Y-111117600D01*
X150127900Y-117092300D02*
X150127900Y-114580200D01*
X125628000Y-111774000D02*
X124301100Y-111774000D01*
X137199200Y-119441100D02*
X137199200Y-122191700D01*
X125628000Y-111774000D02*
X126954900Y-111774000D01*
X150334500Y-114373600D02*
X150127900Y-114580200D01*
X131928000Y-111774000D02*
X131928000Y-112419600D01*
X157226000Y-122669500D02*
X159226000Y-120669500D01*
X132083300Y-114156200D02*
X131928000Y-114000900D01*
X150473100Y-119440400D02*
X149711700Y-118678900D01*
X159226000Y-120669500D02*
X159226000Y-111117600D01*
X161797900Y-111484500D02*
X161797900Y-110826600D01*
X161797900Y-110826600D02*
X161432100Y-110460800D01*
X157226000Y-122914500D02*
X157226000Y-122669500D01*
X141280700Y-112510700D02*
X142042200Y-113272200D01*
X143331900Y-113492400D02*
X142406300Y-113492400D01*
X142406300Y-113492400D02*
X142186100Y-113272200D01*
X142186100Y-113272200D02*
X142042200Y-113272200D01*
X144411800Y-112052900D02*
X144411800Y-112412500D01*
X144411800Y-112412500D02*
X143331900Y-113492400D01*
X171456500Y-114937100D02*
X171456500Y-114937000D01*
X172813100Y-116078000D02*
X171672200Y-114937100D01*
X140295500Y-113496000D02*
X140295500Y-114457200D01*
X171672200Y-114937100D02*
X171456500Y-114937100D01*
X173990000Y-116078000D02*
X172813100Y-116078000D01*
X140715100Y-113076400D02*
X140295500Y-113496000D01*
X141846400Y-111945000D02*
X142666800Y-112765400D01*
X142666800Y-112765400D02*
X142985200Y-112765400D01*
X150103300Y-121333300D02*
X150103300Y-121357500D01*
X150103300Y-121357500D02*
X150807900Y-122062100D01*
X149341800Y-120571800D02*
X150103300Y-121333300D01*
G04 #@! TA.AperFunction,Conductor*
G36*
X131444570Y-115535600D02*
G01*
X131474598Y-115551720D01*
X131626548Y-115662118D01*
X131632576Y-115664802D01*
X131632578Y-115664803D01*
X131794981Y-115737109D01*
X131801012Y-115739794D01*
X131890475Y-115758810D01*
X131981356Y-115778128D01*
X131981361Y-115778128D01*
X131987813Y-115779500D01*
X132178787Y-115779500D01*
X132181464Y-115778931D01*
X132249891Y-115791446D01*
X132301737Y-115839948D01*
X132319131Y-115908781D01*
X132296549Y-115976091D01*
X132282317Y-115993078D01*
X132042647Y-116232748D01*
X132034361Y-116240288D01*
X132027882Y-116244400D01*
X132022457Y-116250177D01*
X131981257Y-116294051D01*
X131978502Y-116296893D01*
X131958765Y-116316630D01*
X131956285Y-116319827D01*
X131948582Y-116328847D01*
X131918314Y-116361079D01*
X131914495Y-116368025D01*
X131914493Y-116368028D01*
X131908552Y-116378834D01*
X131897701Y-116395353D01*
X131885286Y-116411359D01*
X131882141Y-116418628D01*
X131882138Y-116418632D01*
X131867726Y-116451937D01*
X131862509Y-116462587D01*
X131841205Y-116501340D01*
X131839234Y-116509015D01*
X131839234Y-116509016D01*
X131836167Y-116520962D01*
X131829763Y-116539666D01*
X131821719Y-116558255D01*
X131820480Y-116566078D01*
X131820477Y-116566088D01*
X131814801Y-116601924D01*
X131812395Y-116613544D01*
X131804276Y-116645168D01*
X131801400Y-116656370D01*
X131801400Y-116676624D01*
X131799849Y-116696334D01*
X131796680Y-116716343D01*
X131797426Y-116724235D01*
X131800841Y-116760361D01*
X131801400Y-116772219D01*
X131801400Y-131111476D01*
X131781398Y-131179597D01*
X131769042Y-131195779D01*
X131695860Y-131277056D01*
X131600373Y-131442444D01*
X131541358Y-131624072D01*
X131540668Y-131630633D01*
X131540668Y-131630635D01*
X131526633Y-131764170D01*
X131521396Y-131814000D01*
X131522086Y-131820565D01*
X131534726Y-131940830D01*
X131521954Y-132010668D01*
X131473452Y-132062515D01*
X131409416Y-132080000D01*
X128986032Y-132080000D01*
X128917911Y-132059998D01*
X128871418Y-132006342D01*
X128861314Y-131936068D01*
X128890808Y-131871488D01*
X128919729Y-131846856D01*
X128941348Y-131833478D01*
X129066305Y-131708303D01*
X129070338Y-131701760D01*
X129155275Y-131563968D01*
X129155276Y-131563966D01*
X129159115Y-131557738D01*
X129186141Y-131476256D01*
X129212632Y-131396389D01*
X129212632Y-131396387D01*
X129214797Y-131389861D01*
X129225500Y-131285400D01*
X129225500Y-130334600D01*
X129223775Y-130317974D01*
X129215238Y-130235692D01*
X129215237Y-130235688D01*
X129214526Y-130228834D01*
X129209709Y-130214394D01*
X129160868Y-130068002D01*
X129158550Y-130061054D01*
X129065478Y-129910652D01*
X128940303Y-129785695D01*
X128879503Y-129748217D01*
X128795968Y-129696725D01*
X128795966Y-129696724D01*
X128789738Y-129692885D01*
X128649333Y-129646315D01*
X128590973Y-129605885D01*
X128563736Y-129540320D01*
X128563000Y-129526722D01*
X128563000Y-128434067D01*
X128563527Y-128422884D01*
X128565202Y-128415391D01*
X128564849Y-128404143D01*
X128563062Y-128347301D01*
X128563000Y-128343343D01*
X128563000Y-128315444D01*
X128562496Y-128311453D01*
X128561563Y-128299611D01*
X128561523Y-128298310D01*
X128560174Y-128255411D01*
X128557962Y-128247797D01*
X128557961Y-128247792D01*
X128554523Y-128235959D01*
X128550512Y-128216595D01*
X128548967Y-128204364D01*
X128547974Y-128196503D01*
X128545057Y-128189136D01*
X128545056Y-128189131D01*
X128531698Y-128155392D01*
X128527854Y-128144165D01*
X128523906Y-128130577D01*
X128515518Y-128101707D01*
X128505207Y-128084272D01*
X128496512Y-128066524D01*
X128489052Y-128047683D01*
X128469062Y-128020168D01*
X128463064Y-128011913D01*
X128456548Y-128001993D01*
X128438080Y-127970765D01*
X128438078Y-127970762D01*
X128434042Y-127963938D01*
X128419721Y-127949617D01*
X128406880Y-127934583D01*
X128399632Y-127924607D01*
X128394972Y-127918193D01*
X128360907Y-127890012D01*
X128352128Y-127882023D01*
X128327087Y-127856982D01*
X128293061Y-127794670D01*
X128298126Y-127723855D01*
X128340615Y-127667062D01*
X128340861Y-127666878D01*
X128356361Y-127655261D01*
X128443715Y-127538705D01*
X128494845Y-127402316D01*
X128501600Y-127340134D01*
X128501600Y-125643866D01*
X128494845Y-125581684D01*
X128443715Y-125445295D01*
X128356361Y-125328739D01*
X128239805Y-125241385D01*
X128103416Y-125190255D01*
X128041234Y-125183500D01*
X127953116Y-125183500D01*
X127884995Y-125163498D01*
X127838502Y-125109842D01*
X127827178Y-125061456D01*
X127826662Y-125045031D01*
X127826600Y-125041075D01*
X127826600Y-125013144D01*
X127826094Y-125009138D01*
X127825161Y-124997292D01*
X127824022Y-124961037D01*
X127823773Y-124953110D01*
X127818122Y-124933658D01*
X127814114Y-124914306D01*
X127812568Y-124902068D01*
X127812567Y-124902066D01*
X127811574Y-124894203D01*
X127795291Y-124853078D01*
X127791459Y-124841885D01*
X127779118Y-124799406D01*
X127775085Y-124792587D01*
X127775083Y-124792582D01*
X127768807Y-124781971D01*
X127760110Y-124764221D01*
X127752652Y-124745383D01*
X127726671Y-124709623D01*
X127720153Y-124699701D01*
X127701678Y-124668460D01*
X127701674Y-124668455D01*
X127697642Y-124661637D01*
X127683318Y-124647313D01*
X127670476Y-124632278D01*
X127666685Y-124627060D01*
X127658572Y-124615893D01*
X127624506Y-124587711D01*
X127615727Y-124579722D01*
X125122406Y-122086401D01*
X125088380Y-122024089D01*
X125093445Y-121953274D01*
X125135935Y-121896481D01*
X125180261Y-121863261D01*
X125267615Y-121746705D01*
X125289799Y-121687529D01*
X125311598Y-121629382D01*
X125354240Y-121572618D01*
X125420802Y-121547918D01*
X125490150Y-121563126D01*
X125524817Y-121591114D01*
X125553250Y-121623938D01*
X125725126Y-121766632D01*
X125918000Y-121879338D01*
X125922825Y-121881180D01*
X125922826Y-121881181D01*
X125981206Y-121903474D01*
X126126692Y-121959030D01*
X126131760Y-121960061D01*
X126131763Y-121960062D01*
X126218433Y-121977695D01*
X126345597Y-122003567D01*
X126350772Y-122003757D01*
X126350774Y-122003757D01*
X126563673Y-122011564D01*
X126563677Y-122011564D01*
X126568837Y-122011753D01*
X126573957Y-122011097D01*
X126573959Y-122011097D01*
X126785288Y-121984025D01*
X126785289Y-121984025D01*
X126790416Y-121983368D01*
X126795366Y-121981883D01*
X126999429Y-121920661D01*
X126999434Y-121920659D01*
X127004384Y-121919174D01*
X127204994Y-121820896D01*
X127386860Y-121691173D01*
X127445472Y-121632766D01*
X127530616Y-121547918D01*
X127545096Y-121533489D01*
X127562108Y-121509815D01*
X127675453Y-121352077D01*
X127676640Y-121352930D01*
X127723960Y-121309362D01*
X127793897Y-121297145D01*
X127859338Y-121324678D01*
X127887166Y-121356511D01*
X127944694Y-121450388D01*
X127950777Y-121458699D01*
X128090213Y-121619667D01*
X128097580Y-121626883D01*
X128261434Y-121762916D01*
X128269881Y-121768831D01*
X128453756Y-121876279D01*
X128463042Y-121880729D01*
X128662001Y-121956703D01*
X128671899Y-121959579D01*
X128775250Y-121980606D01*
X128789299Y-121979410D01*
X128793000Y-121969065D01*
X128793000Y-121968517D01*
X129301000Y-121968517D01*
X129305064Y-121982359D01*
X129318478Y-121984393D01*
X129325184Y-121983534D01*
X129335262Y-121981392D01*
X129539255Y-121920191D01*
X129548842Y-121916433D01*
X129740095Y-121822739D01*
X129748945Y-121817464D01*
X129922328Y-121693792D01*
X129930200Y-121687139D01*
X130081052Y-121536812D01*
X130087730Y-121528965D01*
X130212003Y-121356020D01*
X130217313Y-121347183D01*
X130311670Y-121156267D01*
X130315469Y-121146672D01*
X130377377Y-120942910D01*
X130379555Y-120932837D01*
X130380986Y-120921962D01*
X130378775Y-120907778D01*
X130365617Y-120904000D01*
X129319115Y-120904000D01*
X129303876Y-120908475D01*
X129302671Y-120909865D01*
X129301000Y-120917548D01*
X129301000Y-121968517D01*
X128793000Y-121968517D01*
X128793000Y-120377885D01*
X129301000Y-120377885D01*
X129305475Y-120393124D01*
X129306865Y-120394329D01*
X129314548Y-120396000D01*
X130365344Y-120396000D01*
X130378875Y-120392027D01*
X130380180Y-120382947D01*
X130338214Y-120215875D01*
X130334894Y-120206124D01*
X130249972Y-120010814D01*
X130245105Y-120001739D01*
X130129426Y-119822926D01*
X130123136Y-119814757D01*
X129979806Y-119657240D01*
X129972273Y-119650215D01*
X129805139Y-119518222D01*
X129796552Y-119512517D01*
X129610117Y-119409599D01*
X129600705Y-119405369D01*
X129399959Y-119334280D01*
X129389988Y-119331646D01*
X129318837Y-119318972D01*
X129305540Y-119320432D01*
X129301000Y-119334989D01*
X129301000Y-120377885D01*
X128793000Y-120377885D01*
X128793000Y-119333102D01*
X128789082Y-119319758D01*
X128774806Y-119317771D01*
X128736324Y-119323660D01*
X128726288Y-119326051D01*
X128523868Y-119392212D01*
X128514359Y-119396209D01*
X128325463Y-119494542D01*
X128316738Y-119500036D01*
X128146433Y-119627905D01*
X128138726Y-119634748D01*
X127991590Y-119788717D01*
X127985109Y-119796722D01*
X127880498Y-119950074D01*
X127825587Y-119995076D01*
X127755062Y-120003247D01*
X127691315Y-119971993D01*
X127670618Y-119947509D01*
X127589822Y-119822617D01*
X127589820Y-119822614D01*
X127587014Y-119818277D01*
X127436670Y-119653051D01*
X127428433Y-119646545D01*
X127387372Y-119588627D01*
X127384142Y-119517704D01*
X127417433Y-119458571D01*
X131311443Y-115564561D01*
X131373755Y-115530535D01*
X131444570Y-115535600D01*
G37*
G04 #@! TD.AperFunction*
G04 #@! TA.AperFunction,Conductor*
G36*
X124356013Y-52287602D02*
G01*
X124402506Y-52341258D01*
X124412610Y-52411532D01*
X124383116Y-52476112D01*
X124376987Y-52482695D01*
X124374323Y-52485359D01*
X124370567Y-52488567D01*
X124367359Y-52492323D01*
X124335467Y-52529664D01*
X124211248Y-52675104D01*
X124083073Y-52884268D01*
X123989195Y-53110908D01*
X123988040Y-53115720D01*
X123945239Y-53294000D01*
X123931928Y-53349443D01*
X123912681Y-53594000D01*
X123931928Y-53838557D01*
X123989195Y-54077092D01*
X124083073Y-54303732D01*
X124211248Y-54512896D01*
X124370567Y-54699433D01*
X124374323Y-54702641D01*
X124531539Y-54836917D01*
X124557104Y-54858752D01*
X124561327Y-54861340D01*
X124561330Y-54861342D01*
X124630515Y-54903738D01*
X124766268Y-54986927D01*
X124910967Y-55046864D01*
X124988335Y-55078911D01*
X124988337Y-55078912D01*
X124992908Y-55080805D01*
X125075563Y-55100649D01*
X125226630Y-55136917D01*
X125226636Y-55136918D01*
X125231443Y-55138072D01*
X125476000Y-55157319D01*
X125720557Y-55138072D01*
X125725364Y-55136918D01*
X125725370Y-55136917D01*
X125876437Y-55100649D01*
X125959092Y-55080805D01*
X125963663Y-55078912D01*
X125963665Y-55078911D01*
X126041033Y-55046864D01*
X126185732Y-54986927D01*
X126321485Y-54903738D01*
X126390670Y-54861342D01*
X126390673Y-54861340D01*
X126394896Y-54858752D01*
X126420462Y-54836917D01*
X126577677Y-54702641D01*
X126581433Y-54699433D01*
X126737535Y-54516663D01*
X126737542Y-54516655D01*
X126737545Y-54516651D01*
X126740752Y-54512896D01*
X126743342Y-54508670D01*
X126753912Y-54491422D01*
X126806560Y-54443791D01*
X126876602Y-54432185D01*
X126943175Y-54461447D01*
X127053337Y-54555535D01*
X127057104Y-54558752D01*
X127061327Y-54561340D01*
X127061330Y-54561342D01*
X127130515Y-54603738D01*
X127266268Y-54686927D01*
X127304205Y-54702641D01*
X127488335Y-54778911D01*
X127488337Y-54778912D01*
X127492908Y-54780805D01*
X127575563Y-54800649D01*
X127726630Y-54836917D01*
X127726636Y-54836918D01*
X127731443Y-54838072D01*
X127976000Y-54857319D01*
X128220557Y-54838072D01*
X128225364Y-54836918D01*
X128225370Y-54836917D01*
X128376437Y-54800649D01*
X128459092Y-54780805D01*
X128463663Y-54778912D01*
X128463665Y-54778911D01*
X128647795Y-54702641D01*
X128685732Y-54686927D01*
X128821485Y-54603738D01*
X128890670Y-54561342D01*
X128890673Y-54561340D01*
X128894896Y-54558752D01*
X128944176Y-54516663D01*
X129077677Y-54402641D01*
X129081433Y-54399433D01*
X129084641Y-54395677D01*
X129237535Y-54216663D01*
X129237537Y-54216660D01*
X129240752Y-54212896D01*
X129368927Y-54003732D01*
X129462805Y-53777092D01*
X129505578Y-53598930D01*
X129518917Y-53543370D01*
X129518918Y-53543364D01*
X129520072Y-53538557D01*
X129539319Y-53294000D01*
X129520072Y-53049443D01*
X129462805Y-52810908D01*
X129368927Y-52584268D01*
X129292428Y-52459433D01*
X129273891Y-52390901D01*
X129295348Y-52323224D01*
X129349987Y-52277891D01*
X129399862Y-52267600D01*
X131552138Y-52267600D01*
X131620259Y-52287602D01*
X131666752Y-52341258D01*
X131676856Y-52411532D01*
X131659572Y-52459432D01*
X131583073Y-52584268D01*
X131489195Y-52810908D01*
X131431928Y-53049443D01*
X131412681Y-53294000D01*
X131431928Y-53538557D01*
X131433082Y-53543364D01*
X131433083Y-53543370D01*
X131446422Y-53598930D01*
X131489195Y-53777092D01*
X131583073Y-54003732D01*
X131711248Y-54212896D01*
X131714463Y-54216660D01*
X131714465Y-54216663D01*
X131867359Y-54395677D01*
X131870567Y-54399433D01*
X131874323Y-54402641D01*
X132007825Y-54516663D01*
X132057104Y-54558752D01*
X132061327Y-54561340D01*
X132061330Y-54561342D01*
X132130515Y-54603738D01*
X132266268Y-54686927D01*
X132304205Y-54702641D01*
X132488335Y-54778911D01*
X132488337Y-54778912D01*
X132492908Y-54780805D01*
X132575563Y-54800649D01*
X132726630Y-54836917D01*
X132726636Y-54836918D01*
X132731443Y-54838072D01*
X132976000Y-54857319D01*
X133220557Y-54838072D01*
X133225364Y-54836918D01*
X133225370Y-54836917D01*
X133376437Y-54800649D01*
X133459092Y-54780805D01*
X133463663Y-54778912D01*
X133463665Y-54778911D01*
X133647795Y-54702641D01*
X133685732Y-54686927D01*
X133821485Y-54603738D01*
X133890670Y-54561342D01*
X133890673Y-54561340D01*
X133894896Y-54558752D01*
X133898663Y-54555535D01*
X134008825Y-54461447D01*
X134073615Y-54432416D01*
X134143815Y-54443021D01*
X134198088Y-54491422D01*
X134208658Y-54508670D01*
X134211248Y-54512896D01*
X134214455Y-54516651D01*
X134214458Y-54516655D01*
X134214465Y-54516663D01*
X134370567Y-54699433D01*
X134374323Y-54702641D01*
X134531539Y-54836917D01*
X134557104Y-54858752D01*
X134561327Y-54861340D01*
X134561330Y-54861342D01*
X134630515Y-54903738D01*
X134766268Y-54986927D01*
X134910967Y-55046864D01*
X134988335Y-55078911D01*
X134988337Y-55078912D01*
X134992908Y-55080805D01*
X135075563Y-55100649D01*
X135226630Y-55136917D01*
X135226636Y-55136918D01*
X135231443Y-55138072D01*
X135476000Y-55157319D01*
X135720557Y-55138072D01*
X135725364Y-55136918D01*
X135725370Y-55136917D01*
X135876437Y-55100649D01*
X135959092Y-55080805D01*
X135963663Y-55078912D01*
X135963665Y-55078911D01*
X136041033Y-55046864D01*
X136185732Y-54986927D01*
X136321485Y-54903738D01*
X136390670Y-54861342D01*
X136390673Y-54861340D01*
X136394896Y-54858752D01*
X136420462Y-54836917D01*
X136577677Y-54702641D01*
X136581433Y-54699433D01*
X136740752Y-54512896D01*
X136868927Y-54303732D01*
X136962805Y-54077092D01*
X137020072Y-53838557D01*
X137039319Y-53594000D01*
X137020072Y-53349443D01*
X137006762Y-53294000D01*
X136963960Y-53115720D01*
X136962805Y-53110908D01*
X136868927Y-52884268D01*
X136740752Y-52675104D01*
X136616534Y-52529664D01*
X136584641Y-52492323D01*
X136581433Y-52488567D01*
X136577677Y-52485359D01*
X136575013Y-52482695D01*
X136540987Y-52420383D01*
X136546052Y-52349568D01*
X136588599Y-52292732D01*
X136655119Y-52267921D01*
X136664108Y-52267600D01*
X159673892Y-52267600D01*
X159742013Y-52287602D01*
X159788506Y-52341258D01*
X159798610Y-52411532D01*
X159769116Y-52476112D01*
X159762987Y-52482695D01*
X159760323Y-52485359D01*
X159756567Y-52488567D01*
X159753359Y-52492323D01*
X159721467Y-52529664D01*
X159597248Y-52675104D01*
X159469073Y-52884268D01*
X159375195Y-53110908D01*
X159374040Y-53115720D01*
X159331239Y-53294000D01*
X159317928Y-53349443D01*
X159298681Y-53594000D01*
X159317928Y-53838557D01*
X159375195Y-54077092D01*
X159469073Y-54303732D01*
X159597248Y-54512896D01*
X159756567Y-54699433D01*
X159760323Y-54702641D01*
X159917539Y-54836917D01*
X159943104Y-54858752D01*
X159947327Y-54861340D01*
X159947330Y-54861342D01*
X160016515Y-54903738D01*
X160152268Y-54986927D01*
X160296967Y-55046864D01*
X160374335Y-55078911D01*
X160374337Y-55078912D01*
X160378908Y-55080805D01*
X160461563Y-55100649D01*
X160612630Y-55136917D01*
X160612636Y-55136918D01*
X160617443Y-55138072D01*
X160862000Y-55157319D01*
X161106557Y-55138072D01*
X161111364Y-55136918D01*
X161111370Y-55136917D01*
X161262437Y-55100649D01*
X161345092Y-55080805D01*
X161349663Y-55078912D01*
X161349665Y-55078911D01*
X161427033Y-55046864D01*
X161571732Y-54986927D01*
X161707485Y-54903738D01*
X161776670Y-54861342D01*
X161776673Y-54861340D01*
X161780896Y-54858752D01*
X161806462Y-54836917D01*
X161963677Y-54702641D01*
X161967433Y-54699433D01*
X162123535Y-54516663D01*
X162123542Y-54516655D01*
X162123545Y-54516651D01*
X162126752Y-54512896D01*
X162129342Y-54508670D01*
X162139912Y-54491422D01*
X162192560Y-54443791D01*
X162262602Y-54432185D01*
X162329175Y-54461447D01*
X162439337Y-54555535D01*
X162443104Y-54558752D01*
X162447327Y-54561340D01*
X162447330Y-54561342D01*
X162516515Y-54603738D01*
X162652268Y-54686927D01*
X162690205Y-54702641D01*
X162874335Y-54778911D01*
X162874337Y-54778912D01*
X162878908Y-54780805D01*
X162961563Y-54800649D01*
X163112630Y-54836917D01*
X163112636Y-54836918D01*
X163117443Y-54838072D01*
X163362000Y-54857319D01*
X163606557Y-54838072D01*
X163611364Y-54836918D01*
X163611370Y-54836917D01*
X163762437Y-54800649D01*
X163845092Y-54780805D01*
X163849663Y-54778912D01*
X163849665Y-54778911D01*
X164033795Y-54702641D01*
X164071732Y-54686927D01*
X164207485Y-54603738D01*
X164276670Y-54561342D01*
X164276673Y-54561340D01*
X164280896Y-54558752D01*
X164330176Y-54516663D01*
X164463677Y-54402641D01*
X164467433Y-54399433D01*
X164470641Y-54395677D01*
X164623535Y-54216663D01*
X164623537Y-54216660D01*
X164626752Y-54212896D01*
X164754927Y-54003732D01*
X164848805Y-53777092D01*
X164891578Y-53598930D01*
X164904917Y-53543370D01*
X164904918Y-53543364D01*
X164906072Y-53538557D01*
X164925319Y-53294000D01*
X164906072Y-53049443D01*
X164848805Y-52810908D01*
X164754927Y-52584268D01*
X164678428Y-52459433D01*
X164659891Y-52390901D01*
X164681348Y-52323224D01*
X164735987Y-52277891D01*
X164785862Y-52267600D01*
X166938138Y-52267600D01*
X167006259Y-52287602D01*
X167052752Y-52341258D01*
X167062856Y-52411532D01*
X167045572Y-52459432D01*
X166969073Y-52584268D01*
X166875195Y-52810908D01*
X166817928Y-53049443D01*
X166798681Y-53294000D01*
X166817928Y-53538557D01*
X166819082Y-53543364D01*
X166819083Y-53543370D01*
X166832422Y-53598930D01*
X166875195Y-53777092D01*
X166969073Y-54003732D01*
X167097248Y-54212896D01*
X167100463Y-54216660D01*
X167100465Y-54216663D01*
X167253359Y-54395677D01*
X167256567Y-54399433D01*
X167260323Y-54402641D01*
X167393825Y-54516663D01*
X167443104Y-54558752D01*
X167447327Y-54561340D01*
X167447330Y-54561342D01*
X167516515Y-54603738D01*
X167652268Y-54686927D01*
X167690205Y-54702641D01*
X167874335Y-54778911D01*
X167874337Y-54778912D01*
X167878908Y-54780805D01*
X167961563Y-54800649D01*
X168112630Y-54836917D01*
X168112636Y-54836918D01*
X168117443Y-54838072D01*
X168362000Y-54857319D01*
X168606557Y-54838072D01*
X168611364Y-54836918D01*
X168611370Y-54836917D01*
X168762437Y-54800649D01*
X168845092Y-54780805D01*
X168849663Y-54778912D01*
X168849665Y-54778911D01*
X169033795Y-54702641D01*
X169071732Y-54686927D01*
X169207485Y-54603738D01*
X169276670Y-54561342D01*
X169276673Y-54561340D01*
X169280896Y-54558752D01*
X169284663Y-54555535D01*
X169394825Y-54461447D01*
X169459615Y-54432416D01*
X169529815Y-54443021D01*
X169584088Y-54491422D01*
X169594658Y-54508670D01*
X169597248Y-54512896D01*
X169600455Y-54516651D01*
X169600458Y-54516655D01*
X169600465Y-54516663D01*
X169756567Y-54699433D01*
X169760323Y-54702641D01*
X169917539Y-54836917D01*
X169943104Y-54858752D01*
X169947327Y-54861340D01*
X169947330Y-54861342D01*
X170016515Y-54903738D01*
X170152268Y-54986927D01*
X170296967Y-55046864D01*
X170374335Y-55078911D01*
X170374337Y-55078912D01*
X170378908Y-55080805D01*
X170461563Y-55100649D01*
X170612630Y-55136917D01*
X170612636Y-55136918D01*
X170617443Y-55138072D01*
X170862000Y-55157319D01*
X171106557Y-55138072D01*
X171111364Y-55136918D01*
X171111370Y-55136917D01*
X171262437Y-55100649D01*
X171345092Y-55080805D01*
X171349663Y-55078912D01*
X171349665Y-55078911D01*
X171427033Y-55046864D01*
X171571732Y-54986927D01*
X171707485Y-54903738D01*
X171776670Y-54861342D01*
X171776673Y-54861340D01*
X171780896Y-54858752D01*
X171806462Y-54836917D01*
X171963677Y-54702641D01*
X171967433Y-54699433D01*
X172126752Y-54512896D01*
X172254927Y-54303732D01*
X172348805Y-54077092D01*
X172406072Y-53838557D01*
X172425319Y-53594000D01*
X172406072Y-53349443D01*
X172392762Y-53294000D01*
X172349960Y-53115720D01*
X172348805Y-53110908D01*
X172254927Y-52884268D01*
X172126752Y-52675104D01*
X172002534Y-52529664D01*
X171970641Y-52492323D01*
X171967433Y-52488567D01*
X171963677Y-52485359D01*
X171961013Y-52482695D01*
X171926987Y-52420383D01*
X171932052Y-52349568D01*
X171974599Y-52292732D01*
X172041119Y-52267921D01*
X172050108Y-52267600D01*
X175619100Y-52267600D01*
X175687221Y-52287602D01*
X175733714Y-52341258D01*
X175745100Y-52393600D01*
X175745100Y-72462721D01*
X175725098Y-72530842D01*
X175671442Y-72577335D01*
X175601168Y-72587439D01*
X175536588Y-72557945D01*
X175497393Y-72495333D01*
X175474706Y-72410664D01*
X175473284Y-72405357D01*
X175468176Y-72394402D01*
X175378849Y-72202838D01*
X175378846Y-72202833D01*
X175376523Y-72197851D01*
X175245198Y-72010300D01*
X175083300Y-71848402D01*
X175078792Y-71845245D01*
X175078789Y-71845243D01*
X174941095Y-71748829D01*
X174895749Y-71717077D01*
X174890767Y-71714754D01*
X174890762Y-71714751D01*
X174693225Y-71622639D01*
X174693224Y-71622639D01*
X174688243Y-71620316D01*
X174682935Y-71618894D01*
X174682933Y-71618893D01*
X174472402Y-71562481D01*
X174472400Y-71562481D01*
X174467087Y-71561057D01*
X174239000Y-71541102D01*
X174010913Y-71561057D01*
X174005600Y-71562481D01*
X174005598Y-71562481D01*
X173795067Y-71618893D01*
X173795065Y-71618894D01*
X173789757Y-71620316D01*
X173784776Y-71622639D01*
X173784775Y-71622639D01*
X173587238Y-71714751D01*
X173587233Y-71714754D01*
X173582251Y-71717077D01*
X173536905Y-71748829D01*
X173399211Y-71845243D01*
X173399208Y-71845245D01*
X173394700Y-71848402D01*
X173232802Y-72010300D01*
X173101477Y-72197851D01*
X173099154Y-72202833D01*
X173099151Y-72202838D01*
X173009824Y-72394402D01*
X173004716Y-72405357D01*
X172945457Y-72626513D01*
X172925502Y-72854600D01*
X172945457Y-73082687D01*
X172946881Y-73088000D01*
X172946881Y-73088002D01*
X172972293Y-73182838D01*
X173004716Y-73303843D01*
X173007039Y-73308824D01*
X173007039Y-73308825D01*
X173099151Y-73506362D01*
X173099154Y-73506367D01*
X173101477Y-73511349D01*
X173104634Y-73515857D01*
X173213929Y-73671946D01*
X173232802Y-73698900D01*
X173394700Y-73860798D01*
X173399208Y-73863955D01*
X173399211Y-73863957D01*
X173440542Y-73892897D01*
X173582251Y-73992123D01*
X173587233Y-73994446D01*
X173587238Y-73994449D01*
X173621457Y-74010405D01*
X173674742Y-74057322D01*
X173694203Y-74125599D01*
X173673661Y-74193559D01*
X173621457Y-74238795D01*
X173587238Y-74254751D01*
X173587233Y-74254754D01*
X173582251Y-74257077D01*
X173477389Y-74330502D01*
X173399211Y-74385243D01*
X173399208Y-74385245D01*
X173394700Y-74388402D01*
X173232802Y-74550300D01*
X173101477Y-74737851D01*
X173099154Y-74742833D01*
X173099151Y-74742838D01*
X173025027Y-74901800D01*
X173004716Y-74945357D01*
X173003294Y-74950664D01*
X173003293Y-74950667D01*
X172991630Y-74994193D01*
X172945457Y-75166513D01*
X172925502Y-75394600D01*
X172945457Y-75622687D01*
X172946881Y-75628000D01*
X172946881Y-75628002D01*
X172960054Y-75677162D01*
X173004716Y-75843843D01*
X173007039Y-75848824D01*
X173007039Y-75848825D01*
X173099151Y-76046362D01*
X173099154Y-76046367D01*
X173101477Y-76051349D01*
X173104634Y-76055857D01*
X173220384Y-76221165D01*
X173232802Y-76238900D01*
X173394700Y-76400798D01*
X173399208Y-76403955D01*
X173399211Y-76403957D01*
X173477389Y-76458698D01*
X173582251Y-76532123D01*
X173587233Y-76534446D01*
X173587238Y-76534449D01*
X173621457Y-76550405D01*
X173674742Y-76597322D01*
X173694203Y-76665599D01*
X173673661Y-76733559D01*
X173621457Y-76778795D01*
X173587238Y-76794751D01*
X173587233Y-76794754D01*
X173582251Y-76797077D01*
X173521344Y-76839725D01*
X173399211Y-76925243D01*
X173399208Y-76925245D01*
X173394700Y-76928402D01*
X173232802Y-77090300D01*
X173229645Y-77094808D01*
X173229643Y-77094811D01*
X173223912Y-77102996D01*
X173101477Y-77277851D01*
X173099154Y-77282833D01*
X173099151Y-77282838D01*
X173009824Y-77474402D01*
X173004716Y-77485357D01*
X172945457Y-77706513D01*
X172925502Y-77934600D01*
X172945457Y-78162687D01*
X173004716Y-78383843D01*
X173007039Y-78388824D01*
X173007039Y-78388825D01*
X173099151Y-78586362D01*
X173099154Y-78586367D01*
X173101477Y-78591349D01*
X173135174Y-78639473D01*
X173213083Y-78750738D01*
X173232802Y-78778900D01*
X173394700Y-78940798D01*
X173399208Y-78943955D01*
X173399211Y-78943957D01*
X173417583Y-78956821D01*
X173582251Y-79072123D01*
X173587233Y-79074446D01*
X173587238Y-79074449D01*
X173621457Y-79090405D01*
X173674742Y-79137322D01*
X173694203Y-79205599D01*
X173673661Y-79273559D01*
X173621457Y-79318795D01*
X173587238Y-79334751D01*
X173587233Y-79334754D01*
X173582251Y-79337077D01*
X173577127Y-79340665D01*
X173399211Y-79465243D01*
X173399208Y-79465245D01*
X173394700Y-79468402D01*
X173232802Y-79630300D01*
X173229645Y-79634808D01*
X173229643Y-79634811D01*
X173122819Y-79787371D01*
X173067362Y-79831699D01*
X173019606Y-79841100D01*
X168917267Y-79841100D01*
X168906084Y-79840573D01*
X168898591Y-79838898D01*
X168890665Y-79839147D01*
X168890664Y-79839147D01*
X168830514Y-79841038D01*
X168826555Y-79841100D01*
X168798644Y-79841100D01*
X168794710Y-79841597D01*
X168794709Y-79841597D01*
X168794644Y-79841605D01*
X168782807Y-79842538D01*
X168750990Y-79843538D01*
X168746529Y-79843678D01*
X168738610Y-79843927D01*
X168720954Y-79849056D01*
X168719158Y-79849578D01*
X168699806Y-79853586D01*
X168692735Y-79854480D01*
X168679703Y-79856126D01*
X168672334Y-79859043D01*
X168672332Y-79859044D01*
X168638597Y-79872400D01*
X168627369Y-79876245D01*
X168584907Y-79888582D01*
X168578085Y-79892616D01*
X168578079Y-79892619D01*
X168567468Y-79898894D01*
X168549718Y-79907590D01*
X168538256Y-79912128D01*
X168538251Y-79912131D01*
X168530883Y-79915048D01*
X168524468Y-79919709D01*
X168495125Y-79941027D01*
X168485207Y-79947543D01*
X168466519Y-79958595D01*
X168447137Y-79970058D01*
X168432813Y-79984382D01*
X168417781Y-79997221D01*
X168401393Y-80009128D01*
X168373212Y-80043193D01*
X168365222Y-80051973D01*
X160650500Y-87766695D01*
X160588188Y-87800721D01*
X160561405Y-87803600D01*
X160505513Y-87803600D01*
X160499061Y-87804972D01*
X160499056Y-87804972D01*
X160405027Y-87824959D01*
X160334236Y-87819557D01*
X160277604Y-87776740D01*
X160257123Y-87734324D01*
X160234707Y-87650668D01*
X160234706Y-87650664D01*
X160233284Y-87645357D01*
X160187975Y-87548191D01*
X160138849Y-87442838D01*
X160138846Y-87442833D01*
X160136523Y-87437851D01*
X160005198Y-87250300D01*
X159843300Y-87088402D01*
X159838792Y-87085245D01*
X159838789Y-87085243D01*
X159665713Y-86964054D01*
X159655749Y-86957077D01*
X159650767Y-86954754D01*
X159650762Y-86954751D01*
X159616543Y-86938795D01*
X159563258Y-86891878D01*
X159543797Y-86823601D01*
X159564339Y-86755641D01*
X159616543Y-86710405D01*
X159650762Y-86694449D01*
X159650767Y-86694446D01*
X159655749Y-86692123D01*
X159760611Y-86618698D01*
X159838789Y-86563957D01*
X159838792Y-86563955D01*
X159843300Y-86560798D01*
X160005198Y-86398900D01*
X160136523Y-86211349D01*
X160138846Y-86206367D01*
X160138849Y-86206362D01*
X160230961Y-86008825D01*
X160230961Y-86008824D01*
X160233284Y-86003843D01*
X160292543Y-85782687D01*
X160312498Y-85554600D01*
X160292543Y-85326513D01*
X160233284Y-85105357D01*
X160230961Y-85100375D01*
X160138849Y-84902838D01*
X160138846Y-84902833D01*
X160136523Y-84897851D01*
X160005198Y-84710300D01*
X159843300Y-84548402D01*
X159838792Y-84545245D01*
X159838789Y-84545243D01*
X159665713Y-84424054D01*
X159621385Y-84368597D01*
X159614215Y-84297238D01*
X159616804Y-84283662D01*
X159618532Y-84275929D01*
X159632500Y-84221530D01*
X159632500Y-84217727D01*
X159660152Y-84154331D01*
X159684502Y-84131990D01*
X159838789Y-84023957D01*
X159838792Y-84023955D01*
X159843300Y-84020798D01*
X160005198Y-83858900D01*
X160136523Y-83671349D01*
X160138846Y-83666367D01*
X160138849Y-83666362D01*
X160230961Y-83468825D01*
X160230961Y-83468824D01*
X160233284Y-83463843D01*
X160292543Y-83242687D01*
X160312498Y-83014600D01*
X160292543Y-82786513D01*
X160233284Y-82565357D01*
X160230961Y-82560375D01*
X160138849Y-82362838D01*
X160138846Y-82362833D01*
X160136523Y-82357851D01*
X160005198Y-82170300D01*
X159843300Y-82008402D01*
X159838792Y-82005245D01*
X159838789Y-82005243D01*
X159760611Y-81950502D01*
X159655749Y-81877077D01*
X159650767Y-81874754D01*
X159650762Y-81874751D01*
X159616543Y-81858795D01*
X159563258Y-81811878D01*
X159543797Y-81743601D01*
X159564339Y-81675641D01*
X159616543Y-81630405D01*
X159650762Y-81614449D01*
X159650767Y-81614446D01*
X159655749Y-81612123D01*
X159760611Y-81538698D01*
X159838789Y-81483957D01*
X159838792Y-81483955D01*
X159843300Y-81480798D01*
X160005198Y-81318900D01*
X160136523Y-81131349D01*
X160138846Y-81126367D01*
X160138849Y-81126362D01*
X160230961Y-80928825D01*
X160230961Y-80928824D01*
X160233284Y-80923843D01*
X160292543Y-80702687D01*
X160312498Y-80474600D01*
X160292543Y-80246513D01*
X160233284Y-80025357D01*
X160223544Y-80004470D01*
X160138849Y-79822838D01*
X160138846Y-79822833D01*
X160136523Y-79817851D01*
X160005198Y-79630300D01*
X159843300Y-79468402D01*
X159838792Y-79465245D01*
X159838789Y-79465243D01*
X159660873Y-79340665D01*
X159655749Y-79337077D01*
X159650767Y-79334754D01*
X159650762Y-79334751D01*
X159616543Y-79318795D01*
X159563258Y-79271878D01*
X159543797Y-79203601D01*
X159564339Y-79135641D01*
X159616543Y-79090405D01*
X159650762Y-79074449D01*
X159650767Y-79074446D01*
X159655749Y-79072123D01*
X159820417Y-78956821D01*
X159838789Y-78943957D01*
X159838792Y-78943955D01*
X159843300Y-78940798D01*
X160005198Y-78778900D01*
X160024918Y-78750738D01*
X160102826Y-78639473D01*
X160136523Y-78591349D01*
X160138846Y-78586367D01*
X160138849Y-78586362D01*
X160230961Y-78388825D01*
X160230961Y-78388824D01*
X160233284Y-78383843D01*
X160292543Y-78162687D01*
X160312498Y-77934600D01*
X160292543Y-77706513D01*
X160233284Y-77485357D01*
X160228176Y-77474402D01*
X160138849Y-77282838D01*
X160138846Y-77282833D01*
X160136523Y-77277851D01*
X160014088Y-77102996D01*
X160008357Y-77094811D01*
X160008355Y-77094808D01*
X160005198Y-77090300D01*
X159843300Y-76928402D01*
X159838792Y-76925245D01*
X159838789Y-76925243D01*
X159665713Y-76804054D01*
X159621385Y-76748597D01*
X159614215Y-76677238D01*
X159616804Y-76663662D01*
X159618532Y-76655929D01*
X159632500Y-76601530D01*
X159632500Y-76597727D01*
X159660152Y-76534331D01*
X159684502Y-76511990D01*
X159838789Y-76403957D01*
X159838792Y-76403955D01*
X159843300Y-76400798D01*
X160005198Y-76238900D01*
X160017617Y-76221165D01*
X160133366Y-76055857D01*
X160136523Y-76051349D01*
X160138846Y-76046367D01*
X160138849Y-76046362D01*
X160230961Y-75848825D01*
X160230961Y-75848824D01*
X160233284Y-75843843D01*
X160277947Y-75677162D01*
X160291119Y-75628002D01*
X160291119Y-75628000D01*
X160292543Y-75622687D01*
X160312498Y-75394600D01*
X160292543Y-75166513D01*
X160246370Y-74994193D01*
X160234707Y-74950667D01*
X160234706Y-74950664D01*
X160233284Y-74945357D01*
X160212973Y-74901800D01*
X160138849Y-74742838D01*
X160138846Y-74742833D01*
X160136523Y-74737851D01*
X160005198Y-74550300D01*
X159843300Y-74388402D01*
X159838789Y-74385243D01*
X159834576Y-74381708D01*
X159835527Y-74380574D01*
X159795529Y-74330529D01*
X159788224Y-74259910D01*
X159820258Y-74196551D01*
X159881462Y-74160570D01*
X159898517Y-74157518D01*
X159909316Y-74156345D01*
X160045705Y-74105215D01*
X160162261Y-74017861D01*
X160249615Y-73901305D01*
X160300745Y-73764916D01*
X160307500Y-73702734D01*
X160307500Y-72006466D01*
X160304049Y-71974697D01*
X160301599Y-71952141D01*
X160301598Y-71952137D01*
X160300745Y-71944284D01*
X160301173Y-71944238D01*
X160304611Y-71878350D01*
X160346055Y-71820705D01*
X160412085Y-71794618D01*
X160423493Y-71794100D01*
X160760648Y-71794100D01*
X160771831Y-71794627D01*
X160779324Y-71796302D01*
X160787250Y-71796053D01*
X160787251Y-71796053D01*
X160847401Y-71794162D01*
X160851360Y-71794100D01*
X160879271Y-71794100D01*
X160883206Y-71793603D01*
X160883271Y-71793595D01*
X160895108Y-71792662D01*
X160927366Y-71791648D01*
X160931385Y-71791522D01*
X160939304Y-71791273D01*
X160958758Y-71785621D01*
X160978115Y-71781613D01*
X160990345Y-71780068D01*
X160990346Y-71780068D01*
X160998212Y-71779074D01*
X161005583Y-71776155D01*
X161005585Y-71776155D01*
X161039327Y-71762796D01*
X161050557Y-71758951D01*
X161085398Y-71748829D01*
X161085399Y-71748829D01*
X161093008Y-71746618D01*
X161099827Y-71742585D01*
X161099832Y-71742583D01*
X161110443Y-71736307D01*
X161128191Y-71727612D01*
X161147032Y-71720152D01*
X161182802Y-71694164D01*
X161192722Y-71687648D01*
X161223950Y-71669180D01*
X161223953Y-71669178D01*
X161230777Y-71665142D01*
X161245098Y-71650821D01*
X161260132Y-71637980D01*
X161270109Y-71630731D01*
X161276522Y-71626072D01*
X161304713Y-71591995D01*
X161312703Y-71583216D01*
X164296870Y-68599049D01*
X164359182Y-68565023D01*
X164429997Y-68570088D01*
X164486833Y-68612635D01*
X164508882Y-68660444D01*
X164521006Y-68714242D01*
X164522948Y-68719024D01*
X164522949Y-68719028D01*
X164560427Y-68811325D01*
X164607649Y-68927618D01*
X164727979Y-69123978D01*
X164878763Y-69298048D01*
X165055953Y-69445154D01*
X165254790Y-69561345D01*
X165469934Y-69643501D01*
X165475000Y-69644532D01*
X165475001Y-69644532D01*
X165575697Y-69665018D01*
X165695607Y-69689414D01*
X165825352Y-69694172D01*
X165920585Y-69697664D01*
X165920589Y-69697664D01*
X165925749Y-69697853D01*
X165930869Y-69697197D01*
X165930871Y-69697197D01*
X166000272Y-69688307D01*
X166154178Y-69668591D01*
X166159126Y-69667106D01*
X166159133Y-69667105D01*
X166369811Y-69603898D01*
X166369810Y-69603898D01*
X166374761Y-69602413D01*
X166581574Y-69501096D01*
X166769062Y-69367363D01*
X166932190Y-69204803D01*
X166990269Y-69123978D01*
X167063559Y-69021983D01*
X167066577Y-69017783D01*
X167168615Y-68811325D01*
X167214457Y-68660444D01*
X167234059Y-68595927D01*
X167234060Y-68595921D01*
X167235563Y-68590975D01*
X167256079Y-68435137D01*
X167265185Y-68365971D01*
X167265185Y-68365965D01*
X167265622Y-68362649D01*
X167267300Y-68294000D01*
X167248430Y-68064478D01*
X167192326Y-67841120D01*
X167100496Y-67629924D01*
X166975405Y-67436563D01*
X166954774Y-67413889D01*
X166823890Y-67270051D01*
X166823889Y-67270050D01*
X166820412Y-67266229D01*
X166816361Y-67263030D01*
X166816357Y-67263026D01*
X166643735Y-67126697D01*
X166643730Y-67126693D01*
X166639681Y-67123496D01*
X166635165Y-67121003D01*
X166635162Y-67121001D01*
X166442589Y-67014695D01*
X166442585Y-67014693D01*
X166438065Y-67012198D01*
X166433196Y-67010474D01*
X166433192Y-67010472D01*
X166220978Y-66935323D01*
X166221401Y-66934129D01*
X166165768Y-66900487D01*
X166134523Y-66836736D01*
X166142704Y-66766212D01*
X166169609Y-66726310D01*
X167136254Y-65759665D01*
X169457119Y-65759665D01*
X169457416Y-65764817D01*
X169457416Y-65764821D01*
X169462864Y-65859296D01*
X169470376Y-65989580D01*
X169471513Y-65994626D01*
X169471514Y-65994632D01*
X169493226Y-66090975D01*
X169521006Y-66214242D01*
X169522948Y-66219024D01*
X169522949Y-66219028D01*
X169598000Y-66403856D01*
X169607649Y-66427618D01*
X169727979Y-66623978D01*
X169878763Y-66798048D01*
X170055953Y-66945154D01*
X170254790Y-67061345D01*
X170469934Y-67143501D01*
X170475000Y-67144532D01*
X170475001Y-67144532D01*
X170575697Y-67165018D01*
X170695607Y-67189414D01*
X170825352Y-67194172D01*
X170920585Y-67197664D01*
X170920589Y-67197664D01*
X170925749Y-67197853D01*
X170930869Y-67197197D01*
X170930871Y-67197197D01*
X171000272Y-67188307D01*
X171154178Y-67168591D01*
X171159126Y-67167106D01*
X171159133Y-67167105D01*
X171351849Y-67109287D01*
X171374761Y-67102413D01*
X171581574Y-67001096D01*
X171769062Y-66867363D01*
X171932190Y-66704803D01*
X171951426Y-66678034D01*
X172063559Y-66521983D01*
X172066577Y-66517783D01*
X172074032Y-66502700D01*
X172166321Y-66315966D01*
X172168615Y-66311325D01*
X172213744Y-66162790D01*
X172234059Y-66095927D01*
X172234060Y-66095921D01*
X172235563Y-66090975D01*
X172265622Y-65862649D01*
X172267066Y-65803580D01*
X172267218Y-65797364D01*
X172267218Y-65797360D01*
X172267300Y-65794000D01*
X172248430Y-65564478D01*
X172192326Y-65341120D01*
X172100496Y-65129924D01*
X171975405Y-64936563D01*
X171954774Y-64913889D01*
X171823890Y-64770051D01*
X171823889Y-64770050D01*
X171820412Y-64766229D01*
X171816361Y-64763030D01*
X171816357Y-64763026D01*
X171643735Y-64626697D01*
X171643730Y-64626693D01*
X171639681Y-64623496D01*
X171635165Y-64621003D01*
X171635162Y-64621001D01*
X171442589Y-64514695D01*
X171442585Y-64514693D01*
X171438065Y-64512198D01*
X171433196Y-64510474D01*
X171433192Y-64510472D01*
X171225853Y-64437049D01*
X171225849Y-64437048D01*
X171220978Y-64435323D01*
X171215885Y-64434416D01*
X171215882Y-64434415D01*
X171119707Y-64417284D01*
X170994250Y-64394937D01*
X170907802Y-64393881D01*
X170769141Y-64392186D01*
X170769139Y-64392186D01*
X170763971Y-64392123D01*
X170536325Y-64426958D01*
X170317424Y-64498506D01*
X170113149Y-64604845D01*
X169928984Y-64743119D01*
X169769877Y-64909616D01*
X169640099Y-65099863D01*
X169637923Y-65104552D01*
X169637919Y-65104558D01*
X169626145Y-65129924D01*
X169543136Y-65308752D01*
X169481592Y-65530673D01*
X169457119Y-65759665D01*
X167136254Y-65759665D01*
X168931514Y-63964405D01*
X168993826Y-63930379D01*
X169020609Y-63927500D01*
X172037013Y-63927500D01*
X172105134Y-63947502D01*
X172144446Y-63987665D01*
X172227979Y-64123978D01*
X172378763Y-64298048D01*
X172555953Y-64445154D01*
X172754790Y-64561345D01*
X172969934Y-64643501D01*
X172975000Y-64644532D01*
X172975001Y-64644532D01*
X173075697Y-64665018D01*
X173195607Y-64689414D01*
X173325352Y-64694172D01*
X173420585Y-64697664D01*
X173420589Y-64697664D01*
X173425749Y-64697853D01*
X173430869Y-64697197D01*
X173430871Y-64697197D01*
X173500272Y-64688307D01*
X173654178Y-64668591D01*
X173659126Y-64667106D01*
X173659133Y-64667105D01*
X173846882Y-64610777D01*
X173874761Y-64602413D01*
X174081574Y-64501096D01*
X174269062Y-64367363D01*
X174432190Y-64204803D01*
X174435284Y-64200498D01*
X174563559Y-64021983D01*
X174566577Y-64017783D01*
X174668615Y-63811325D01*
X174690998Y-63737656D01*
X174734059Y-63595927D01*
X174734060Y-63595921D01*
X174735563Y-63590975D01*
X174765622Y-63362649D01*
X174767300Y-63294000D01*
X174748430Y-63064478D01*
X174697720Y-62862593D01*
X174693585Y-62846132D01*
X174693585Y-62846131D01*
X174692326Y-62841120D01*
X174614912Y-62663078D01*
X174602556Y-62634661D01*
X174602554Y-62634658D01*
X174600496Y-62629924D01*
X174475405Y-62436563D01*
X174454774Y-62413889D01*
X174323890Y-62270051D01*
X174323889Y-62270050D01*
X174320412Y-62266229D01*
X174316361Y-62263030D01*
X174316357Y-62263026D01*
X174143735Y-62126697D01*
X174143730Y-62126693D01*
X174139681Y-62123496D01*
X174135165Y-62121003D01*
X174135162Y-62121001D01*
X173942589Y-62014695D01*
X173942585Y-62014693D01*
X173938065Y-62012198D01*
X173933196Y-62010474D01*
X173933192Y-62010472D01*
X173725853Y-61937049D01*
X173725849Y-61937048D01*
X173720978Y-61935323D01*
X173715885Y-61934416D01*
X173715882Y-61934415D01*
X173619707Y-61917284D01*
X173494250Y-61894937D01*
X173407802Y-61893881D01*
X173269141Y-61892186D01*
X173269139Y-61892186D01*
X173263971Y-61892123D01*
X173036325Y-61926958D01*
X172817424Y-61998506D01*
X172613149Y-62104845D01*
X172428984Y-62243119D01*
X172269877Y-62409616D01*
X172140099Y-62599863D01*
X172139532Y-62599476D01*
X172091316Y-62646091D01*
X172032806Y-62660500D01*
X168784778Y-62660500D01*
X168773594Y-62659973D01*
X168766106Y-62658299D01*
X168758183Y-62658548D01*
X168698048Y-62660438D01*
X168694090Y-62660500D01*
X168666159Y-62660500D01*
X168662244Y-62660995D01*
X168662240Y-62660995D01*
X168662182Y-62661003D01*
X168662153Y-62661006D01*
X168650311Y-62661939D01*
X168606125Y-62663327D01*
X168588759Y-62668372D01*
X168586673Y-62668978D01*
X168567321Y-62672986D01*
X168555083Y-62674532D01*
X168555081Y-62674533D01*
X168547218Y-62675526D01*
X168506101Y-62691806D01*
X168494900Y-62695641D01*
X168452421Y-62707982D01*
X168445602Y-62712015D01*
X168445597Y-62712017D01*
X168434986Y-62718293D01*
X168417236Y-62726990D01*
X168398398Y-62734448D01*
X168391982Y-62739109D01*
X168391981Y-62739110D01*
X168362640Y-62760428D01*
X168352716Y-62766947D01*
X168321475Y-62785422D01*
X168321470Y-62785426D01*
X168314652Y-62789458D01*
X168300328Y-62803782D01*
X168285296Y-62816621D01*
X168268908Y-62828528D01*
X168254345Y-62846132D01*
X168240727Y-62862593D01*
X168232737Y-62871373D01*
X167455945Y-63648165D01*
X167393633Y-63682191D01*
X167322818Y-63677126D01*
X167265982Y-63634579D01*
X167241171Y-63568059D01*
X167241928Y-63542624D01*
X167248247Y-63494632D01*
X167265622Y-63362649D01*
X167267300Y-63294000D01*
X167248430Y-63064478D01*
X167197720Y-62862593D01*
X167193585Y-62846132D01*
X167193585Y-62846131D01*
X167192326Y-62841120D01*
X167114912Y-62663078D01*
X167102556Y-62634661D01*
X167102554Y-62634658D01*
X167100496Y-62629924D01*
X166975405Y-62436563D01*
X166954774Y-62413889D01*
X166823890Y-62270051D01*
X166823889Y-62270050D01*
X166820412Y-62266229D01*
X166816361Y-62263030D01*
X166816357Y-62263026D01*
X166643735Y-62126697D01*
X166643730Y-62126693D01*
X166639681Y-62123496D01*
X166635165Y-62121003D01*
X166635162Y-62121001D01*
X166442589Y-62014695D01*
X166442585Y-62014693D01*
X166438065Y-62012198D01*
X166433196Y-62010474D01*
X166433192Y-62010472D01*
X166225853Y-61937049D01*
X166225849Y-61937048D01*
X166220978Y-61935323D01*
X166215885Y-61934416D01*
X166215882Y-61934415D01*
X166119707Y-61917284D01*
X165994250Y-61894937D01*
X165907802Y-61893881D01*
X165769141Y-61892186D01*
X165769139Y-61892186D01*
X165763971Y-61892123D01*
X165536325Y-61926958D01*
X165317424Y-61998506D01*
X165113149Y-62104845D01*
X164928984Y-62243119D01*
X164769877Y-62409616D01*
X164640099Y-62599863D01*
X164637923Y-62604552D01*
X164637919Y-62604558D01*
X164545443Y-62803782D01*
X164543136Y-62808752D01*
X164481592Y-63030673D01*
X164457119Y-63259665D01*
X164457416Y-63264817D01*
X164457416Y-63264821D01*
X164462864Y-63359296D01*
X164470376Y-63489580D01*
X164471513Y-63494626D01*
X164471514Y-63494632D01*
X164493226Y-63590975D01*
X164521006Y-63714242D01*
X164522948Y-63719024D01*
X164522949Y-63719028D01*
X164560427Y-63811325D01*
X164607649Y-63927618D01*
X164727979Y-64123978D01*
X164878763Y-64298048D01*
X165055953Y-64445154D01*
X165254790Y-64561345D01*
X165469934Y-64643501D01*
X165475000Y-64644532D01*
X165475001Y-64644532D01*
X165575697Y-64665018D01*
X165695607Y-64689414D01*
X165825352Y-64694172D01*
X165920585Y-64697664D01*
X165920589Y-64697664D01*
X165925749Y-64697853D01*
X165930869Y-64697197D01*
X165930871Y-64697197D01*
X166002466Y-64688025D01*
X166110782Y-64674150D01*
X166180891Y-64685335D01*
X166233825Y-64732648D01*
X166252776Y-64801068D01*
X166231728Y-64868873D01*
X166215886Y-64888224D01*
X160613915Y-70490195D01*
X160551603Y-70524221D01*
X160524820Y-70527100D01*
X158709468Y-70527100D01*
X158698285Y-70526573D01*
X158690792Y-70524898D01*
X158682866Y-70525147D01*
X158682865Y-70525147D01*
X158622702Y-70527038D01*
X158618744Y-70527100D01*
X158590844Y-70527100D01*
X158586854Y-70527604D01*
X158575020Y-70528536D01*
X158530811Y-70529926D01*
X158523195Y-70532139D01*
X158523193Y-70532139D01*
X158511352Y-70535579D01*
X158491993Y-70539588D01*
X158490683Y-70539754D01*
X158471903Y-70542126D01*
X158464537Y-70545042D01*
X158464531Y-70545044D01*
X158430798Y-70558400D01*
X158419568Y-70562245D01*
X158384717Y-70572370D01*
X158377107Y-70574581D01*
X158370284Y-70578616D01*
X158359666Y-70584895D01*
X158341913Y-70593592D01*
X158334268Y-70596619D01*
X158323083Y-70601048D01*
X158316668Y-70605709D01*
X158287312Y-70627037D01*
X158277395Y-70633551D01*
X158239338Y-70656058D01*
X158225017Y-70670379D01*
X158209984Y-70683219D01*
X158193593Y-70695128D01*
X158188542Y-70701234D01*
X158165402Y-70729205D01*
X158157412Y-70737984D01*
X153506447Y-75388948D01*
X153498161Y-75396488D01*
X153491682Y-75400600D01*
X153486257Y-75406377D01*
X153445057Y-75450251D01*
X153442302Y-75453093D01*
X153422565Y-75472830D01*
X153420085Y-75476027D01*
X153412382Y-75485047D01*
X153382114Y-75517279D01*
X153378295Y-75524225D01*
X153378293Y-75524228D01*
X153372352Y-75535034D01*
X153361501Y-75551553D01*
X153349086Y-75567559D01*
X153345941Y-75574828D01*
X153345938Y-75574832D01*
X153331526Y-75608137D01*
X153326309Y-75618787D01*
X153305005Y-75657540D01*
X153303034Y-75665215D01*
X153303034Y-75665216D01*
X153299967Y-75677162D01*
X153293563Y-75695866D01*
X153285519Y-75714455D01*
X153284280Y-75722278D01*
X153284277Y-75722288D01*
X153278601Y-75758124D01*
X153276195Y-75769744D01*
X153265200Y-75812570D01*
X153265200Y-75832824D01*
X153263649Y-75852534D01*
X153260480Y-75872543D01*
X153261226Y-75880435D01*
X153264641Y-75916561D01*
X153265200Y-75928419D01*
X153265200Y-77218500D01*
X153245198Y-77286621D01*
X153191542Y-77333114D01*
X153139200Y-77344500D01*
X152046393Y-77344500D01*
X151978272Y-77324498D01*
X151931779Y-77270842D01*
X151921675Y-77200568D01*
X151951169Y-77135988D01*
X152010895Y-77097604D01*
X152020196Y-77095253D01*
X152075988Y-77083394D01*
X152128802Y-77059880D01*
X152244422Y-77008403D01*
X152244424Y-77008402D01*
X152250452Y-77005718D01*
X152404953Y-76893466D01*
X152451473Y-76841800D01*
X152528321Y-76756452D01*
X152528322Y-76756451D01*
X152532740Y-76751544D01*
X152628227Y-76586156D01*
X152687242Y-76404528D01*
X152707204Y-76214600D01*
X152699266Y-76139073D01*
X152687932Y-76031235D01*
X152687932Y-76031233D01*
X152687242Y-76024672D01*
X152628227Y-75843044D01*
X152622327Y-75832824D01*
X152579198Y-75758124D01*
X152532740Y-75677656D01*
X152459563Y-75596385D01*
X152428847Y-75532379D01*
X152427200Y-75512076D01*
X152427200Y-75180463D01*
X152427727Y-75169279D01*
X152429401Y-75161791D01*
X152427262Y-75093732D01*
X152427200Y-75089775D01*
X152427200Y-75061844D01*
X152426694Y-75057838D01*
X152425761Y-75045992D01*
X152424622Y-75009737D01*
X152424373Y-75001810D01*
X152418722Y-74982358D01*
X152414714Y-74963006D01*
X152413168Y-74950768D01*
X152413167Y-74950766D01*
X152412174Y-74942903D01*
X152395894Y-74901786D01*
X152392059Y-74890585D01*
X152379718Y-74848106D01*
X152375685Y-74841287D01*
X152375683Y-74841282D01*
X152369407Y-74830671D01*
X152360710Y-74812921D01*
X152353252Y-74794083D01*
X152327271Y-74758323D01*
X152320753Y-74748401D01*
X152302278Y-74717160D01*
X152302274Y-74717155D01*
X152298242Y-74710337D01*
X152283918Y-74696013D01*
X152271076Y-74680978D01*
X152259172Y-74664593D01*
X152225106Y-74636411D01*
X152216327Y-74628422D01*
X150735405Y-73147500D01*
X150701379Y-73085188D01*
X150698500Y-73058405D01*
X150698500Y-72397600D01*
X150687526Y-72291834D01*
X150657835Y-72202838D01*
X150633868Y-72131002D01*
X150631550Y-72124054D01*
X150606185Y-72083066D01*
X150587348Y-72014616D01*
X150608509Y-71946846D01*
X150624235Y-71927669D01*
X155452514Y-67099390D01*
X159921440Y-67099390D01*
X159927167Y-67107040D01*
X160125506Y-67228583D01*
X160134300Y-67233064D01*
X160358991Y-67326134D01*
X160368376Y-67329183D01*
X160604863Y-67385959D01*
X160614610Y-67387502D01*
X160857070Y-67406584D01*
X160866930Y-67406584D01*
X161109390Y-67387502D01*
X161119137Y-67385959D01*
X161355624Y-67329183D01*
X161365009Y-67326134D01*
X161589700Y-67233064D01*
X161598494Y-67228583D01*
X161793167Y-67109287D01*
X161802627Y-67098830D01*
X161798844Y-67090054D01*
X160874812Y-66166022D01*
X160860868Y-66158408D01*
X160859035Y-66158539D01*
X160852420Y-66162790D01*
X159928200Y-67087010D01*
X159921440Y-67099390D01*
X155452514Y-67099390D01*
X156752974Y-65798930D01*
X159249416Y-65798930D01*
X159268498Y-66041390D01*
X159270041Y-66051137D01*
X159326817Y-66287624D01*
X159329866Y-66297009D01*
X159422936Y-66521700D01*
X159427417Y-66530494D01*
X159546713Y-66725167D01*
X159557170Y-66734627D01*
X159565946Y-66730844D01*
X160489978Y-65806812D01*
X160496356Y-65795132D01*
X161226408Y-65795132D01*
X161226539Y-65796965D01*
X161230790Y-65803580D01*
X162155010Y-66727800D01*
X162167390Y-66734560D01*
X162175040Y-66728833D01*
X162296583Y-66530494D01*
X162301064Y-66521700D01*
X162394134Y-66297009D01*
X162397183Y-66287624D01*
X162453959Y-66051137D01*
X162455502Y-66041390D01*
X162474584Y-65798930D01*
X162474584Y-65789070D01*
X162455502Y-65546610D01*
X162453959Y-65536863D01*
X162397183Y-65300376D01*
X162394134Y-65290991D01*
X162301064Y-65066300D01*
X162296583Y-65057506D01*
X162177287Y-64862833D01*
X162166830Y-64853373D01*
X162158054Y-64857156D01*
X161234022Y-65781188D01*
X161226408Y-65795132D01*
X160496356Y-65795132D01*
X160497592Y-65792868D01*
X160497461Y-65791035D01*
X160493210Y-65784420D01*
X159568990Y-64860200D01*
X159556610Y-64853440D01*
X159548960Y-64859167D01*
X159427417Y-65057506D01*
X159422936Y-65066300D01*
X159329866Y-65290991D01*
X159326817Y-65300376D01*
X159270041Y-65536863D01*
X159268498Y-65546610D01*
X159249416Y-65789070D01*
X159249416Y-65798930D01*
X156752974Y-65798930D01*
X157870932Y-64680972D01*
X157933244Y-64646946D01*
X157985147Y-64646596D01*
X158195607Y-64689414D01*
X158325352Y-64694172D01*
X158420585Y-64697664D01*
X158420589Y-64697664D01*
X158425749Y-64697853D01*
X158430869Y-64697197D01*
X158430871Y-64697197D01*
X158500272Y-64688307D01*
X158654178Y-64668591D01*
X158659126Y-64667106D01*
X158659133Y-64667105D01*
X158846882Y-64610777D01*
X158874761Y-64602413D01*
X159081574Y-64501096D01*
X159098294Y-64489170D01*
X159921373Y-64489170D01*
X159925156Y-64497946D01*
X160849188Y-65421978D01*
X160863132Y-65429592D01*
X160864965Y-65429461D01*
X160871580Y-65425210D01*
X161795800Y-64500990D01*
X161802560Y-64488610D01*
X161796833Y-64480960D01*
X161598494Y-64359417D01*
X161589700Y-64354936D01*
X161365009Y-64261866D01*
X161355624Y-64258817D01*
X161119137Y-64202041D01*
X161109390Y-64200498D01*
X160866930Y-64181416D01*
X160857070Y-64181416D01*
X160614610Y-64200498D01*
X160604863Y-64202041D01*
X160368376Y-64258817D01*
X160358991Y-64261866D01*
X160134300Y-64354936D01*
X160125506Y-64359417D01*
X159930833Y-64478713D01*
X159921373Y-64489170D01*
X159098294Y-64489170D01*
X159269062Y-64367363D01*
X159432190Y-64204803D01*
X159435284Y-64200498D01*
X159563559Y-64021983D01*
X159566577Y-64017783D01*
X159668615Y-63811325D01*
X159690998Y-63737656D01*
X159734059Y-63595927D01*
X159734060Y-63595921D01*
X159735563Y-63590975D01*
X159765622Y-63362649D01*
X159767300Y-63294000D01*
X159748430Y-63064478D01*
X159697720Y-62862593D01*
X159693585Y-62846132D01*
X159693585Y-62846131D01*
X159692326Y-62841120D01*
X159614912Y-62663078D01*
X159602556Y-62634661D01*
X159602554Y-62634658D01*
X159600496Y-62629924D01*
X159475405Y-62436563D01*
X159454774Y-62413889D01*
X159323890Y-62270051D01*
X159323889Y-62270050D01*
X159320412Y-62266229D01*
X159316361Y-62263030D01*
X159316357Y-62263026D01*
X159143735Y-62126697D01*
X159143730Y-62126693D01*
X159139681Y-62123496D01*
X159135165Y-62121003D01*
X159135162Y-62121001D01*
X158942589Y-62014695D01*
X158942585Y-62014693D01*
X158938065Y-62012198D01*
X158933196Y-62010474D01*
X158933192Y-62010472D01*
X158725853Y-61937049D01*
X158725849Y-61937048D01*
X158720978Y-61935323D01*
X158715885Y-61934416D01*
X158715882Y-61934415D01*
X158619707Y-61917284D01*
X158494250Y-61894937D01*
X158407802Y-61893881D01*
X158269141Y-61892186D01*
X158269139Y-61892186D01*
X158263971Y-61892123D01*
X158036325Y-61926958D01*
X157817424Y-61998506D01*
X157613149Y-62104845D01*
X157428984Y-62243119D01*
X157269877Y-62409616D01*
X157140099Y-62599863D01*
X157137923Y-62604552D01*
X157137919Y-62604558D01*
X157045443Y-62803782D01*
X157043136Y-62808752D01*
X156981592Y-63030673D01*
X156957119Y-63259665D01*
X156957416Y-63264817D01*
X156957416Y-63264821D01*
X156962864Y-63359296D01*
X156970376Y-63489580D01*
X156971513Y-63494626D01*
X156971514Y-63494632D01*
X157010316Y-63666805D01*
X157005780Y-63737656D01*
X156976494Y-63783601D01*
X150438595Y-70321500D01*
X150376283Y-70355526D01*
X150305468Y-70350461D01*
X150248632Y-70307914D01*
X150223821Y-70241394D01*
X150223500Y-70232405D01*
X150223500Y-68642767D01*
X150224027Y-68631584D01*
X150225702Y-68624091D01*
X150223562Y-68556014D01*
X150223500Y-68552055D01*
X150223500Y-68524144D01*
X150222995Y-68520144D01*
X150222062Y-68508301D01*
X150221633Y-68494632D01*
X150220673Y-68464110D01*
X150215022Y-68444658D01*
X150211014Y-68425306D01*
X150209467Y-68413063D01*
X150208474Y-68405203D01*
X150205556Y-68397832D01*
X150192200Y-68364097D01*
X150188355Y-68352870D01*
X150187721Y-68350687D01*
X150176018Y-68310407D01*
X150171984Y-68303585D01*
X150171981Y-68303579D01*
X150165706Y-68292968D01*
X150157010Y-68275218D01*
X150152472Y-68263756D01*
X150152469Y-68263751D01*
X150149552Y-68256383D01*
X150123573Y-68220625D01*
X150117057Y-68210707D01*
X150098575Y-68179457D01*
X150094542Y-68172637D01*
X150080218Y-68158313D01*
X150067376Y-68143278D01*
X150055472Y-68126893D01*
X150021406Y-68098711D01*
X150012627Y-68090722D01*
X142235652Y-60313747D01*
X142228112Y-60305461D01*
X142224000Y-60298982D01*
X142174348Y-60252356D01*
X142171507Y-60249602D01*
X142151770Y-60229865D01*
X142148573Y-60227385D01*
X142139551Y-60219680D01*
X142126122Y-60207069D01*
X142107321Y-60189414D01*
X142100375Y-60185595D01*
X142100372Y-60185593D01*
X142089566Y-60179652D01*
X142073047Y-60168801D01*
X142072583Y-60168441D01*
X142057041Y-60156386D01*
X142049772Y-60153241D01*
X142049768Y-60153238D01*
X142016463Y-60138826D01*
X142005813Y-60133609D01*
X141967060Y-60112305D01*
X141947437Y-60107267D01*
X141928734Y-60100863D01*
X141917420Y-60095967D01*
X141917419Y-60095967D01*
X141910145Y-60092819D01*
X141902322Y-60091580D01*
X141902312Y-60091577D01*
X141866476Y-60085901D01*
X141854856Y-60083495D01*
X141819711Y-60074472D01*
X141819710Y-60074472D01*
X141812030Y-60072500D01*
X141791776Y-60072500D01*
X141772065Y-60070949D01*
X141759886Y-60069020D01*
X141752057Y-60067780D01*
X141722786Y-60070547D01*
X141708039Y-60071941D01*
X141696181Y-60072500D01*
X125642768Y-60072500D01*
X125631585Y-60071973D01*
X125624092Y-60070298D01*
X125616166Y-60070547D01*
X125616165Y-60070547D01*
X125556002Y-60072438D01*
X125552044Y-60072500D01*
X125524144Y-60072500D01*
X125520154Y-60073004D01*
X125508320Y-60073936D01*
X125464111Y-60075326D01*
X125456497Y-60077538D01*
X125456492Y-60077539D01*
X125444659Y-60080977D01*
X125425296Y-60084988D01*
X125405203Y-60087526D01*
X125397836Y-60090443D01*
X125397831Y-60090444D01*
X125364092Y-60103802D01*
X125352865Y-60107646D01*
X125310407Y-60119982D01*
X125303581Y-60124019D01*
X125292972Y-60130293D01*
X125275224Y-60138988D01*
X125256383Y-60146448D01*
X125249967Y-60151110D01*
X125249966Y-60151110D01*
X125220613Y-60172436D01*
X125210693Y-60178952D01*
X125179465Y-60197420D01*
X125179462Y-60197422D01*
X125172638Y-60201458D01*
X125158317Y-60215779D01*
X125143284Y-60228619D01*
X125126893Y-60240528D01*
X125118217Y-60251016D01*
X125098702Y-60274605D01*
X125090712Y-60283384D01*
X123467845Y-61906251D01*
X123405533Y-61940277D01*
X123345356Y-61936480D01*
X123344856Y-61938371D01*
X123339852Y-61937049D01*
X123334978Y-61935323D01*
X123329885Y-61934416D01*
X123329882Y-61934415D01*
X123233707Y-61917284D01*
X123108250Y-61894937D01*
X123021802Y-61893881D01*
X122883141Y-61892186D01*
X122883139Y-61892186D01*
X122877971Y-61892123D01*
X122650325Y-61926958D01*
X122431424Y-61998506D01*
X122227149Y-62104845D01*
X122042984Y-62243119D01*
X121883877Y-62409616D01*
X121754099Y-62599863D01*
X121751923Y-62604552D01*
X121751919Y-62604558D01*
X121659443Y-62803782D01*
X121657136Y-62808752D01*
X121595592Y-63030673D01*
X121571119Y-63259665D01*
X121571416Y-63264817D01*
X121571416Y-63264821D01*
X121576864Y-63359296D01*
X121584376Y-63489580D01*
X121585513Y-63494626D01*
X121585514Y-63494632D01*
X121607226Y-63590975D01*
X121635006Y-63714242D01*
X121636948Y-63719024D01*
X121636949Y-63719028D01*
X121674427Y-63811325D01*
X121721649Y-63927618D01*
X121841979Y-64123978D01*
X121992763Y-64298048D01*
X122169953Y-64445154D01*
X122368790Y-64561345D01*
X122583934Y-64643501D01*
X122589000Y-64644532D01*
X122589001Y-64644532D01*
X122689697Y-64665018D01*
X122809607Y-64689414D01*
X122939352Y-64694172D01*
X123034585Y-64697664D01*
X123034589Y-64697664D01*
X123039749Y-64697853D01*
X123044869Y-64697197D01*
X123044871Y-64697197D01*
X123114272Y-64688307D01*
X123268178Y-64668591D01*
X123273126Y-64667106D01*
X123273133Y-64667105D01*
X123460882Y-64610777D01*
X123488761Y-64602413D01*
X123695574Y-64501096D01*
X123712294Y-64489170D01*
X124535373Y-64489170D01*
X124539156Y-64497946D01*
X125463188Y-65421978D01*
X125477132Y-65429592D01*
X125478965Y-65429461D01*
X125485580Y-65425210D01*
X126409800Y-64500990D01*
X126416560Y-64488610D01*
X126410833Y-64480960D01*
X126212494Y-64359417D01*
X126203700Y-64354936D01*
X125979009Y-64261866D01*
X125969624Y-64258817D01*
X125733137Y-64202041D01*
X125723390Y-64200498D01*
X125480930Y-64181416D01*
X125471070Y-64181416D01*
X125228610Y-64200498D01*
X125218863Y-64202041D01*
X124982376Y-64258817D01*
X124972991Y-64261866D01*
X124748300Y-64354936D01*
X124739506Y-64359417D01*
X124544833Y-64478713D01*
X124535373Y-64489170D01*
X123712294Y-64489170D01*
X123883062Y-64367363D01*
X124046190Y-64204803D01*
X124049284Y-64200498D01*
X124177559Y-64021983D01*
X124180577Y-64017783D01*
X124282615Y-63811325D01*
X124304998Y-63737656D01*
X124348059Y-63595927D01*
X124348060Y-63595921D01*
X124349563Y-63590975D01*
X124379622Y-63362649D01*
X124381300Y-63294000D01*
X124378477Y-63259665D01*
X129071119Y-63259665D01*
X129071416Y-63264817D01*
X129071416Y-63264821D01*
X129076864Y-63359296D01*
X129084376Y-63489580D01*
X129085513Y-63494626D01*
X129085514Y-63494632D01*
X129107226Y-63590975D01*
X129135006Y-63714242D01*
X129136948Y-63719024D01*
X129136949Y-63719028D01*
X129174427Y-63811325D01*
X129221649Y-63927618D01*
X129341979Y-64123978D01*
X129492763Y-64298048D01*
X129669953Y-64445154D01*
X129868790Y-64561345D01*
X130083934Y-64643501D01*
X130089000Y-64644532D01*
X130089001Y-64644532D01*
X130189697Y-64665018D01*
X130309607Y-64689414D01*
X130439352Y-64694172D01*
X130534585Y-64697664D01*
X130534589Y-64697664D01*
X130539749Y-64697853D01*
X130544869Y-64697197D01*
X130544871Y-64697197D01*
X130614272Y-64688307D01*
X130768178Y-64668591D01*
X130773126Y-64667106D01*
X130773133Y-64667105D01*
X130960882Y-64610777D01*
X130988761Y-64602413D01*
X131195574Y-64501096D01*
X131383062Y-64367363D01*
X131546190Y-64204803D01*
X131549284Y-64200498D01*
X131677559Y-64021983D01*
X131680577Y-64017783D01*
X131782615Y-63811325D01*
X131804998Y-63737656D01*
X131848059Y-63595927D01*
X131848060Y-63595921D01*
X131849563Y-63590975D01*
X131879622Y-63362649D01*
X131881300Y-63294000D01*
X131862430Y-63064478D01*
X131811720Y-62862593D01*
X131807585Y-62846132D01*
X131807585Y-62846131D01*
X131806326Y-62841120D01*
X131728912Y-62663078D01*
X131716556Y-62634661D01*
X131716554Y-62634658D01*
X131714496Y-62629924D01*
X131589405Y-62436563D01*
X131568774Y-62413889D01*
X131437890Y-62270051D01*
X131437889Y-62270050D01*
X131434412Y-62266229D01*
X131430361Y-62263030D01*
X131430357Y-62263026D01*
X131257735Y-62126697D01*
X131257730Y-62126693D01*
X131253681Y-62123496D01*
X131249165Y-62121003D01*
X131249162Y-62121001D01*
X131056589Y-62014695D01*
X131056585Y-62014693D01*
X131052065Y-62012198D01*
X131047196Y-62010474D01*
X131047192Y-62010472D01*
X130839853Y-61937049D01*
X130839849Y-61937048D01*
X130834978Y-61935323D01*
X130829885Y-61934416D01*
X130829882Y-61934415D01*
X130733707Y-61917284D01*
X130608250Y-61894937D01*
X130521802Y-61893881D01*
X130383141Y-61892186D01*
X130383139Y-61892186D01*
X130377971Y-61892123D01*
X130150325Y-61926958D01*
X129931424Y-61998506D01*
X129727149Y-62104845D01*
X129542984Y-62243119D01*
X129383877Y-62409616D01*
X129254099Y-62599863D01*
X129251923Y-62604552D01*
X129251919Y-62604558D01*
X129159443Y-62803782D01*
X129157136Y-62808752D01*
X129095592Y-63030673D01*
X129071119Y-63259665D01*
X124378477Y-63259665D01*
X124375028Y-63217716D01*
X124362854Y-63069629D01*
X124362853Y-63069623D01*
X124362430Y-63064478D01*
X124327434Y-62925151D01*
X124330238Y-62854210D01*
X124360543Y-62805361D01*
X125789499Y-61376405D01*
X125851811Y-61342379D01*
X125878594Y-61339500D01*
X141417406Y-61339500D01*
X141485527Y-61359502D01*
X141506501Y-61376405D01*
X148919595Y-68789499D01*
X148953621Y-68851811D01*
X148956500Y-68878594D01*
X148956500Y-71661219D01*
X148936498Y-71729340D01*
X148896803Y-71768363D01*
X148765652Y-71849522D01*
X148760479Y-71854704D01*
X148679216Y-71936109D01*
X148616934Y-71970188D01*
X148546114Y-71965185D01*
X148501025Y-71936264D01*
X148418483Y-71853866D01*
X148413303Y-71848695D01*
X148367895Y-71820705D01*
X148268968Y-71759725D01*
X148268966Y-71759724D01*
X148262738Y-71755885D01*
X148102254Y-71702655D01*
X148101389Y-71702368D01*
X148101387Y-71702368D01*
X148094861Y-71700203D01*
X148088025Y-71699503D01*
X148088022Y-71699502D01*
X148044969Y-71695091D01*
X147990400Y-71689500D01*
X147189600Y-71689500D01*
X147186354Y-71689837D01*
X147186350Y-71689837D01*
X147090692Y-71699762D01*
X147090688Y-71699763D01*
X147083834Y-71700474D01*
X147077298Y-71702655D01*
X147077296Y-71702655D01*
X146997312Y-71729340D01*
X146916054Y-71756450D01*
X146765652Y-71849522D01*
X146640695Y-71974697D01*
X146547885Y-72125262D01*
X146492203Y-72293139D01*
X146481500Y-72397600D01*
X146481500Y-73398400D01*
X146492474Y-73504166D01*
X146548450Y-73671946D01*
X146575987Y-73716445D01*
X146594825Y-73784897D01*
X146573664Y-73852666D01*
X146519223Y-73898238D01*
X146448787Y-73907142D01*
X146379748Y-73871843D01*
X138646405Y-66138500D01*
X138612379Y-66076188D01*
X138609500Y-66049405D01*
X138609500Y-64621844D01*
X138629502Y-64553723D01*
X138680069Y-64508692D01*
X138690935Y-64503369D01*
X138690939Y-64503367D01*
X138695574Y-64501096D01*
X138883062Y-64367363D01*
X139046190Y-64204803D01*
X139049284Y-64200498D01*
X139177559Y-64021983D01*
X139180577Y-64017783D01*
X139282615Y-63811325D01*
X139304998Y-63737656D01*
X139348059Y-63595927D01*
X139348060Y-63595921D01*
X139349563Y-63590975D01*
X139379622Y-63362649D01*
X139381300Y-63294000D01*
X139362430Y-63064478D01*
X139311720Y-62862593D01*
X139307585Y-62846132D01*
X139307585Y-62846131D01*
X139306326Y-62841120D01*
X139228912Y-62663078D01*
X139216556Y-62634661D01*
X139216554Y-62634658D01*
X139214496Y-62629924D01*
X139089405Y-62436563D01*
X139068774Y-62413889D01*
X138937890Y-62270051D01*
X138937889Y-62270050D01*
X138934412Y-62266229D01*
X138930361Y-62263030D01*
X138930357Y-62263026D01*
X138757735Y-62126697D01*
X138757730Y-62126693D01*
X138753681Y-62123496D01*
X138749165Y-62121003D01*
X138749162Y-62121001D01*
X138556589Y-62014695D01*
X138556585Y-62014693D01*
X138552065Y-62012198D01*
X138547196Y-62010474D01*
X138547192Y-62010472D01*
X138339853Y-61937049D01*
X138339849Y-61937048D01*
X138334978Y-61935323D01*
X138329885Y-61934416D01*
X138329882Y-61934415D01*
X138233707Y-61917284D01*
X138108250Y-61894937D01*
X138021802Y-61893881D01*
X137883141Y-61892186D01*
X137883139Y-61892186D01*
X137877971Y-61892123D01*
X137650325Y-61926958D01*
X137431424Y-61998506D01*
X137227149Y-62104845D01*
X137042984Y-62243119D01*
X136883877Y-62409616D01*
X136754099Y-62599863D01*
X136751923Y-62604552D01*
X136751919Y-62604558D01*
X136659443Y-62803782D01*
X136657136Y-62808752D01*
X136595592Y-63030673D01*
X136571119Y-63259665D01*
X136571416Y-63264817D01*
X136571416Y-63264821D01*
X136576864Y-63359296D01*
X136584376Y-63489580D01*
X136585513Y-63494626D01*
X136585514Y-63494632D01*
X136607226Y-63590975D01*
X136635006Y-63714242D01*
X136636948Y-63719024D01*
X136636949Y-63719028D01*
X136674427Y-63811325D01*
X136721649Y-63927618D01*
X136841979Y-64123978D01*
X136992763Y-64298048D01*
X137169953Y-64445154D01*
X137227383Y-64478713D01*
X137280070Y-64509501D01*
X137328794Y-64561140D01*
X137342500Y-64618289D01*
X137342500Y-66285233D01*
X137341973Y-66296416D01*
X137340298Y-66303909D01*
X137340547Y-66311835D01*
X137340547Y-66311836D01*
X137342438Y-66371986D01*
X137342500Y-66375945D01*
X137342500Y-66403856D01*
X137342997Y-66407790D01*
X137342997Y-66407791D01*
X137343005Y-66407856D01*
X137343938Y-66419693D01*
X137345327Y-66463889D01*
X137350978Y-66483339D01*
X137354987Y-66502700D01*
X137357526Y-66522797D01*
X137360445Y-66530168D01*
X137360445Y-66530170D01*
X137373804Y-66563912D01*
X137377649Y-66575142D01*
X137389982Y-66617593D01*
X137394015Y-66624412D01*
X137394017Y-66624417D01*
X137400293Y-66635028D01*
X137408988Y-66652776D01*
X137416448Y-66671617D01*
X137421110Y-66678033D01*
X137421110Y-66678034D01*
X137442436Y-66707387D01*
X137448952Y-66717307D01*
X137459156Y-66734560D01*
X137471458Y-66755362D01*
X137485779Y-66769683D01*
X137498619Y-66784716D01*
X137510528Y-66801107D01*
X137516634Y-66806158D01*
X137544605Y-66829298D01*
X137553384Y-66837288D01*
X147270904Y-76554808D01*
X147304930Y-76617120D01*
X147299865Y-76687935D01*
X147257318Y-76744771D01*
X147189577Y-76769281D01*
X147189600Y-76769500D01*
X147188721Y-76769591D01*
X147188720Y-76769591D01*
X147186376Y-76769835D01*
X147186367Y-76769835D01*
X147090692Y-76779762D01*
X147090688Y-76779763D01*
X147083834Y-76780474D01*
X147077298Y-76782655D01*
X147077296Y-76782655D01*
X147024606Y-76800234D01*
X146916054Y-76836450D01*
X146765652Y-76929522D01*
X146640695Y-77054697D01*
X146636855Y-77060927D01*
X146636854Y-77060928D01*
X146556596Y-77191131D01*
X146547885Y-77205262D01*
X146545581Y-77212209D01*
X146505479Y-77333114D01*
X146492203Y-77373139D01*
X146481500Y-77477600D01*
X146481500Y-78401726D01*
X146479949Y-78421436D01*
X146478380Y-78431343D01*
X146479126Y-78439235D01*
X146480941Y-78458435D01*
X146481500Y-78470293D01*
X146481500Y-78478400D01*
X146481837Y-78481644D01*
X146481837Y-78481652D01*
X146482427Y-78487335D01*
X146483100Y-78500338D01*
X146483100Y-78631576D01*
X146463098Y-78699697D01*
X146450742Y-78715879D01*
X146377560Y-78797156D01*
X146282073Y-78962544D01*
X146223058Y-79144172D01*
X146222368Y-79150733D01*
X146222368Y-79150735D01*
X146218644Y-79186172D01*
X146203096Y-79334100D01*
X146203786Y-79340665D01*
X146217212Y-79468402D01*
X146223058Y-79524028D01*
X146282073Y-79705656D01*
X146377560Y-79871044D01*
X146381978Y-79875951D01*
X146381979Y-79875952D01*
X146471760Y-79975664D01*
X146505347Y-80012966D01*
X146601356Y-80082721D01*
X146646243Y-80115333D01*
X146659848Y-80125218D01*
X146665876Y-80127902D01*
X146665878Y-80127903D01*
X146778275Y-80177945D01*
X146834312Y-80202894D01*
X146927713Y-80222747D01*
X147014656Y-80241228D01*
X147014661Y-80241228D01*
X147021113Y-80242600D01*
X147212087Y-80242600D01*
X147218539Y-80241228D01*
X147218544Y-80241228D01*
X147305487Y-80222747D01*
X147398888Y-80202894D01*
X147454925Y-80177945D01*
X147567322Y-80127903D01*
X147567324Y-80127902D01*
X147573352Y-80125218D01*
X147586958Y-80115333D01*
X147631844Y-80082721D01*
X147727853Y-80012966D01*
X147761440Y-79975664D01*
X147851221Y-79875952D01*
X147851222Y-79875951D01*
X147855640Y-79871044D01*
X147951127Y-79705656D01*
X148010142Y-79524028D01*
X148015989Y-79468402D01*
X148029414Y-79340665D01*
X148030104Y-79334100D01*
X148026820Y-79302853D01*
X148039593Y-79233015D01*
X148088095Y-79181168D01*
X148112253Y-79170160D01*
X148256993Y-79121870D01*
X148256995Y-79121869D01*
X148263946Y-79119550D01*
X148414348Y-79026478D01*
X148500784Y-78939891D01*
X148563066Y-78905812D01*
X148633886Y-78910815D01*
X148678975Y-78939736D01*
X148696090Y-78956821D01*
X148766697Y-79027305D01*
X148772927Y-79031145D01*
X148772928Y-79031146D01*
X148910090Y-79115694D01*
X148917262Y-79120115D01*
X148989792Y-79144172D01*
X149078611Y-79173632D01*
X149078613Y-79173632D01*
X149085139Y-79175797D01*
X149091975Y-79176497D01*
X149091978Y-79176498D01*
X149135031Y-79180909D01*
X149189600Y-79186500D01*
X149990400Y-79186500D01*
X149993646Y-79186163D01*
X149993650Y-79186163D01*
X150089308Y-79176238D01*
X150089312Y-79176237D01*
X150096166Y-79175526D01*
X150102702Y-79173345D01*
X150102704Y-79173345D01*
X150234806Y-79129272D01*
X150263946Y-79119550D01*
X150414348Y-79026478D01*
X150539305Y-78901303D01*
X150599978Y-78802874D01*
X150628275Y-78756968D01*
X150628276Y-78756966D01*
X150632115Y-78750738D01*
X150649663Y-78697832D01*
X150690094Y-78639473D01*
X150755658Y-78612236D01*
X150769256Y-78611500D01*
X153139100Y-78611500D01*
X153207221Y-78631502D01*
X153253714Y-78685158D01*
X153265100Y-78737500D01*
X153265100Y-90883000D01*
X153245098Y-90951121D01*
X153191442Y-90997614D01*
X153139100Y-91009000D01*
X153060613Y-91009000D01*
X153054161Y-91010372D01*
X153054156Y-91010372D01*
X152978381Y-91026479D01*
X152873812Y-91048706D01*
X152867782Y-91051391D01*
X152867781Y-91051391D01*
X152705378Y-91123697D01*
X152705376Y-91123698D01*
X152699348Y-91126382D01*
X152544847Y-91238634D01*
X152540426Y-91243544D01*
X152540425Y-91243545D01*
X152456936Y-91336269D01*
X152396490Y-91373509D01*
X152325506Y-91372157D01*
X152266522Y-91332644D01*
X152238264Y-91267513D01*
X152237300Y-91251959D01*
X152237300Y-85551330D01*
X152257302Y-85483209D01*
X152269658Y-85467027D01*
X152286840Y-85447944D01*
X152345114Y-85347010D01*
X152379023Y-85288279D01*
X152379024Y-85288278D01*
X152382327Y-85282556D01*
X152441342Y-85100928D01*
X152451024Y-85008814D01*
X152460614Y-84917565D01*
X152461304Y-84911000D01*
X152441342Y-84721072D01*
X152382327Y-84539444D01*
X152286840Y-84374056D01*
X152268385Y-84353559D01*
X152163475Y-84237045D01*
X152163474Y-84237044D01*
X152159053Y-84232134D01*
X152004552Y-84119882D01*
X151998524Y-84117198D01*
X151998522Y-84117197D01*
X151836119Y-84044891D01*
X151836118Y-84044891D01*
X151830088Y-84042206D01*
X151729372Y-84020798D01*
X151649744Y-84003872D01*
X151649739Y-84003872D01*
X151643287Y-84002500D01*
X151452313Y-84002500D01*
X151445861Y-84003872D01*
X151445856Y-84003872D01*
X151366228Y-84020798D01*
X151265512Y-84042206D01*
X151259482Y-84044891D01*
X151259481Y-84044891D01*
X151097078Y-84117197D01*
X151097076Y-84117198D01*
X151091048Y-84119882D01*
X150936547Y-84232134D01*
X150932126Y-84237044D01*
X150932125Y-84237045D01*
X150827216Y-84353559D01*
X150808760Y-84374056D01*
X150713273Y-84539444D01*
X150654258Y-84721072D01*
X150634296Y-84911000D01*
X150634986Y-84917565D01*
X150644577Y-85008814D01*
X150654258Y-85100928D01*
X150713273Y-85282556D01*
X150716576Y-85288278D01*
X150716577Y-85288279D01*
X150750486Y-85347010D01*
X150808760Y-85447944D01*
X150813178Y-85452851D01*
X150813179Y-85452852D01*
X150936547Y-85589866D01*
X150934645Y-85591579D01*
X150965855Y-85642253D01*
X150970300Y-85675427D01*
X150970300Y-92491551D01*
X150950298Y-92559672D01*
X150896642Y-92606165D01*
X150826368Y-92616269D01*
X150761788Y-92586775D01*
X150737563Y-92558507D01*
X150713424Y-92520026D01*
X150709568Y-92513879D01*
X150707296Y-92511043D01*
X150707291Y-92511036D01*
X150494913Y-92245945D01*
X150492641Y-92243109D01*
X150246029Y-91999066D01*
X150141670Y-91917238D01*
X149975859Y-91787226D01*
X149975857Y-91787225D01*
X149973002Y-91784986D01*
X149969703Y-91782964D01*
X149747619Y-91646871D01*
X149677179Y-91603705D01*
X149673894Y-91602180D01*
X149673890Y-91602178D01*
X149365763Y-91459151D01*
X149362480Y-91457627D01*
X149108132Y-91373509D01*
X149036522Y-91349826D01*
X149036517Y-91349825D01*
X149033077Y-91348687D01*
X149029522Y-91347951D01*
X149029519Y-91347950D01*
X148696886Y-91279065D01*
X148696883Y-91279065D01*
X148693336Y-91278330D01*
X148539047Y-91264560D01*
X148391024Y-91251349D01*
X148391018Y-91251349D01*
X148388231Y-91251100D01*
X148164668Y-91251100D01*
X148162849Y-91251205D01*
X148162845Y-91251205D01*
X147910346Y-91265764D01*
X147910341Y-91265765D01*
X147906726Y-91265973D01*
X147837769Y-91278008D01*
X147568515Y-91325000D01*
X147568508Y-91325002D01*
X147564942Y-91325624D01*
X147561467Y-91326653D01*
X147561460Y-91326655D01*
X147483237Y-91349826D01*
X147232280Y-91424163D01*
X147228944Y-91425586D01*
X147228941Y-91425587D01*
X146916486Y-91558860D01*
X146916483Y-91558862D01*
X146913148Y-91560284D01*
X146910001Y-91562079D01*
X146909997Y-91562081D01*
X146771991Y-91640798D01*
X146611776Y-91732183D01*
X146608864Y-91734322D01*
X146608861Y-91734324D01*
X146544251Y-91781785D01*
X146332160Y-91937582D01*
X146329507Y-91940048D01*
X146329505Y-91940049D01*
X146239108Y-92024051D01*
X146078004Y-92173758D01*
X145852678Y-92437581D01*
X145659169Y-92725553D01*
X145657508Y-92728770D01*
X145657508Y-92728771D01*
X145648685Y-92745866D01*
X145500040Y-93033859D01*
X145377402Y-93358411D01*
X145376518Y-93361932D01*
X145376516Y-93361937D01*
X145338125Y-93514779D01*
X145292880Y-93694908D01*
X145292407Y-93698501D01*
X145248140Y-94034744D01*
X145247594Y-94038889D01*
X145247537Y-94042527D01*
X145242304Y-94375641D01*
X145242144Y-94385796D01*
X145242505Y-94389410D01*
X145242505Y-94389416D01*
X145261004Y-94574751D01*
X145276603Y-94731031D01*
X145350514Y-95070017D01*
X145462897Y-95398261D01*
X145612263Y-95711412D01*
X145796632Y-96005321D01*
X145798904Y-96008157D01*
X145798909Y-96008164D01*
X145956714Y-96205137D01*
X146013559Y-96276091D01*
X146056446Y-96318531D01*
X146224039Y-96484378D01*
X146260171Y-96520134D01*
X146263029Y-96522375D01*
X146523831Y-96726869D01*
X146533198Y-96734214D01*
X146536287Y-96736107D01*
X146536290Y-96736109D01*
X146631343Y-96794357D01*
X146829021Y-96915495D01*
X146832306Y-96917020D01*
X146832310Y-96917022D01*
X147005122Y-96997238D01*
X147143720Y-97061573D01*
X147248026Y-97096069D01*
X147469678Y-97169374D01*
X147469683Y-97169375D01*
X147473123Y-97170513D01*
X147476678Y-97171249D01*
X147476681Y-97171250D01*
X147809314Y-97240135D01*
X147809317Y-97240135D01*
X147812864Y-97240870D01*
X147951321Y-97253227D01*
X148115176Y-97267851D01*
X148115182Y-97267851D01*
X148117969Y-97268100D01*
X148341532Y-97268100D01*
X148343351Y-97267995D01*
X148343355Y-97267995D01*
X148595854Y-97253436D01*
X148595859Y-97253435D01*
X148599474Y-97253227D01*
X148674488Y-97240135D01*
X148937685Y-97194200D01*
X148937692Y-97194198D01*
X148941258Y-97193576D01*
X148944733Y-97192547D01*
X148944740Y-97192545D01*
X149077963Y-97153082D01*
X149273920Y-97095037D01*
X149277253Y-97093616D01*
X149277268Y-97093610D01*
X149294365Y-97086317D01*
X149364872Y-97077988D01*
X149428688Y-97109101D01*
X149465553Y-97169776D01*
X149469800Y-97202214D01*
X149469800Y-106103142D01*
X149449798Y-106171263D01*
X149396142Y-106217756D01*
X149325868Y-106227860D01*
X149291649Y-106217843D01*
X149264313Y-106205414D01*
X149264312Y-106205414D01*
X149256144Y-106201700D01*
X149247261Y-106200428D01*
X149247258Y-106200427D01*
X149120847Y-106182324D01*
X149111958Y-106181051D01*
X149103069Y-106182324D01*
X148976658Y-106200427D01*
X148976655Y-106200428D01*
X148967772Y-106201700D01*
X148835176Y-106261987D01*
X148829023Y-106266934D01*
X148829020Y-106266936D01*
X148805565Y-106285795D01*
X148786430Y-106301180D01*
X148784025Y-106303585D01*
X148784015Y-106303594D01*
X147997652Y-107089957D01*
X147935340Y-107123983D01*
X147864525Y-107118918D01*
X147819462Y-107089957D01*
X146437552Y-105708047D01*
X146430012Y-105699761D01*
X146425900Y-105693282D01*
X146376248Y-105646656D01*
X146373407Y-105643902D01*
X146353670Y-105624165D01*
X146350473Y-105621685D01*
X146341451Y-105613980D01*
X146323726Y-105597335D01*
X146309221Y-105583714D01*
X146302275Y-105579895D01*
X146302272Y-105579893D01*
X146291466Y-105573952D01*
X146274947Y-105563101D01*
X146274483Y-105562741D01*
X146258941Y-105550686D01*
X146251672Y-105547541D01*
X146251668Y-105547538D01*
X146218363Y-105533126D01*
X146207713Y-105527909D01*
X146168960Y-105506605D01*
X146149337Y-105501567D01*
X146130634Y-105495163D01*
X146119320Y-105490267D01*
X146119319Y-105490267D01*
X146112045Y-105487119D01*
X146104222Y-105485880D01*
X146104212Y-105485877D01*
X146068376Y-105480201D01*
X146056756Y-105477795D01*
X146021611Y-105468772D01*
X146021610Y-105468772D01*
X146013930Y-105466800D01*
X145993676Y-105466800D01*
X145973965Y-105465249D01*
X145961786Y-105463320D01*
X145953957Y-105462080D01*
X145924686Y-105464847D01*
X145909939Y-105466241D01*
X145898081Y-105466800D01*
X143149767Y-105466800D01*
X143138584Y-105466273D01*
X143131091Y-105464598D01*
X143123165Y-105464847D01*
X143123164Y-105464847D01*
X143063001Y-105466738D01*
X143059043Y-105466800D01*
X143031144Y-105466800D01*
X143027154Y-105467304D01*
X143015320Y-105468236D01*
X142971111Y-105469626D01*
X142963497Y-105471838D01*
X142963492Y-105471839D01*
X142951659Y-105475277D01*
X142932296Y-105479288D01*
X142912203Y-105481826D01*
X142904836Y-105484743D01*
X142904831Y-105484744D01*
X142871092Y-105498102D01*
X142859865Y-105501946D01*
X142817407Y-105514282D01*
X142810581Y-105518319D01*
X142799972Y-105524593D01*
X142782224Y-105533288D01*
X142763383Y-105540748D01*
X142756967Y-105545410D01*
X142756966Y-105545410D01*
X142727613Y-105566736D01*
X142717693Y-105573252D01*
X142686465Y-105591720D01*
X142686462Y-105591722D01*
X142679638Y-105595758D01*
X142665317Y-105610079D01*
X142650284Y-105622919D01*
X142633893Y-105634828D01*
X142624107Y-105646657D01*
X142605702Y-105668905D01*
X142597712Y-105677684D01*
X133200529Y-115074866D01*
X133138219Y-115108891D01*
X133067404Y-115103826D01*
X133010568Y-115061279D01*
X132985757Y-114994759D01*
X132986126Y-114972600D01*
X132996114Y-114877565D01*
X132996804Y-114871000D01*
X132985203Y-114760618D01*
X132977532Y-114687635D01*
X132977532Y-114687633D01*
X132976842Y-114681072D01*
X132917827Y-114499444D01*
X132902037Y-114472094D01*
X132874926Y-114425137D01*
X132843958Y-114371499D01*
X132827220Y-114302505D01*
X132850440Y-114235413D01*
X132906247Y-114191526D01*
X132953077Y-114182500D01*
X132976134Y-114182500D01*
X133038316Y-114175745D01*
X133174705Y-114124615D01*
X133291261Y-114037261D01*
X133378615Y-113920705D01*
X133429745Y-113784316D01*
X133436500Y-113722134D01*
X133436500Y-109825866D01*
X133429745Y-109763684D01*
X133378615Y-109627295D01*
X133291261Y-109510739D01*
X133174705Y-109423385D01*
X133038316Y-109372255D01*
X132976134Y-109365500D01*
X130879866Y-109365500D01*
X130817684Y-109372255D01*
X130681295Y-109423385D01*
X130564739Y-109510739D01*
X130477385Y-109627295D01*
X130426255Y-109763684D01*
X130419500Y-109825866D01*
X130419500Y-111660100D01*
X130399498Y-111728221D01*
X130345842Y-111774714D01*
X130293500Y-111786100D01*
X127915095Y-111786100D01*
X127846974Y-111766098D01*
X127826000Y-111749195D01*
X127458552Y-111381747D01*
X127451012Y-111373461D01*
X127446900Y-111366982D01*
X127397248Y-111320356D01*
X127394407Y-111317602D01*
X127374670Y-111297865D01*
X127371473Y-111295385D01*
X127362451Y-111287680D01*
X127343339Y-111269733D01*
X127330221Y-111257414D01*
X127323275Y-111253595D01*
X127323272Y-111253593D01*
X127312466Y-111247652D01*
X127295947Y-111236801D01*
X127293938Y-111235243D01*
X127279941Y-111224386D01*
X127272672Y-111221241D01*
X127272668Y-111221238D01*
X127239363Y-111206826D01*
X127228713Y-111201609D01*
X127201798Y-111186813D01*
X127151741Y-111136468D01*
X127136500Y-111076399D01*
X127136500Y-110975866D01*
X127129745Y-110913684D01*
X127078615Y-110777295D01*
X127020047Y-110699148D01*
X126995199Y-110632642D01*
X127010252Y-110563259D01*
X127020047Y-110548018D01*
X127072786Y-110477648D01*
X127081324Y-110462054D01*
X127126478Y-110341606D01*
X127130105Y-110326351D01*
X127135631Y-110275486D01*
X127136000Y-110268672D01*
X127136000Y-109746115D01*
X127131525Y-109730876D01*
X127130135Y-109729671D01*
X127122452Y-109728000D01*
X124177115Y-109728000D01*
X124161876Y-109732475D01*
X124144163Y-109752917D01*
X124130685Y-109777598D01*
X124068372Y-109811621D01*
X124041592Y-109814500D01*
X123208115Y-109814500D01*
X123192876Y-109818975D01*
X123191671Y-109820365D01*
X123190000Y-109828048D01*
X123190000Y-110837884D01*
X123194475Y-110853123D01*
X123195865Y-110854328D01*
X123203548Y-110855999D01*
X123408095Y-110855999D01*
X123414614Y-110855662D01*
X123510206Y-110845743D01*
X123523600Y-110842851D01*
X123677784Y-110791412D01*
X123690962Y-110785239D01*
X123828807Y-110699937D01*
X123840208Y-110690901D01*
X123954739Y-110576171D01*
X123963748Y-110564763D01*
X123995153Y-110513816D01*
X124047926Y-110466323D01*
X124117998Y-110454901D01*
X124183121Y-110483175D01*
X124203239Y-110504368D01*
X124235953Y-110548018D01*
X124260801Y-110614524D01*
X124245748Y-110683907D01*
X124235953Y-110699148D01*
X124177385Y-110777295D01*
X124126255Y-110913684D01*
X124119500Y-110975866D01*
X124119500Y-111075143D01*
X124099498Y-111143264D01*
X124047281Y-111187606D01*
X124047504Y-111187983D01*
X124045305Y-111189283D01*
X124045300Y-111189287D01*
X124040687Y-111192015D01*
X124040683Y-111192017D01*
X124030068Y-111198294D01*
X124012318Y-111206990D01*
X124000856Y-111211528D01*
X124000851Y-111211531D01*
X123993483Y-111214448D01*
X123976070Y-111227099D01*
X123957725Y-111240427D01*
X123947806Y-111246943D01*
X123912521Y-111267811D01*
X123843705Y-111285271D01*
X123782265Y-111266618D01*
X123689968Y-111209725D01*
X123689966Y-111209724D01*
X123683738Y-111205885D01*
X123576606Y-111170351D01*
X123522389Y-111152368D01*
X123522387Y-111152368D01*
X123515861Y-111150203D01*
X123509025Y-111149503D01*
X123509022Y-111149502D01*
X123465969Y-111145091D01*
X123411400Y-111139500D01*
X122460600Y-111139500D01*
X122457354Y-111139837D01*
X122457350Y-111139837D01*
X122361692Y-111149762D01*
X122361688Y-111149763D01*
X122354834Y-111150474D01*
X122348298Y-111152655D01*
X122348296Y-111152655D01*
X122230315Y-111192017D01*
X122187054Y-111206450D01*
X122036652Y-111299522D01*
X122031479Y-111304704D01*
X121993151Y-111343099D01*
X121911695Y-111424697D01*
X121907855Y-111430927D01*
X121907854Y-111430928D01*
X121823797Y-111567294D01*
X121818885Y-111575262D01*
X121763203Y-111743139D01*
X121762503Y-111749975D01*
X121762502Y-111749978D01*
X121760338Y-111771102D01*
X121752500Y-111847600D01*
X121752500Y-113023400D01*
X121752837Y-113026646D01*
X121752837Y-113026650D01*
X121761950Y-113114474D01*
X121763474Y-113129166D01*
X121765655Y-113135702D01*
X121765655Y-113135704D01*
X121791969Y-113214575D01*
X121819450Y-113296946D01*
X121912522Y-113447348D01*
X122037697Y-113572305D01*
X122043927Y-113576145D01*
X122043928Y-113576146D01*
X122164233Y-113650303D01*
X122188262Y-113665115D01*
X122268005Y-113691564D01*
X122349611Y-113718632D01*
X122349613Y-113718632D01*
X122356139Y-113720797D01*
X122362975Y-113721497D01*
X122362978Y-113721498D01*
X122406031Y-113725909D01*
X122460600Y-113731500D01*
X123014004Y-113731500D01*
X123082125Y-113751502D01*
X123128618Y-113805158D01*
X123133837Y-113818562D01*
X123172273Y-113936856D01*
X123267760Y-114102244D01*
X123272178Y-114107151D01*
X123272179Y-114107152D01*
X123353947Y-114197965D01*
X123395547Y-114244166D01*
X123479667Y-114305283D01*
X123537072Y-114346990D01*
X123550048Y-114356418D01*
X123583923Y-114371500D01*
X123592849Y-114375474D01*
X123646945Y-114421455D01*
X123667600Y-114490581D01*
X123667600Y-118824405D01*
X123647598Y-118892526D01*
X123630695Y-118913500D01*
X123574747Y-118969448D01*
X123566461Y-118976988D01*
X123559982Y-118981100D01*
X123554557Y-118986877D01*
X123513356Y-119030752D01*
X123510602Y-119033593D01*
X123490865Y-119053330D01*
X123488385Y-119056527D01*
X123480682Y-119065547D01*
X123450414Y-119097779D01*
X123446595Y-119104725D01*
X123446593Y-119104728D01*
X123440652Y-119115534D01*
X123429801Y-119132053D01*
X123417386Y-119148059D01*
X123414241Y-119155328D01*
X123414238Y-119155332D01*
X123399826Y-119188637D01*
X123394609Y-119199287D01*
X123379813Y-119226202D01*
X123329468Y-119276259D01*
X123269399Y-119291500D01*
X123068866Y-119291500D01*
X123006684Y-119298255D01*
X122870295Y-119349385D01*
X122753739Y-119436739D01*
X122666385Y-119553295D01*
X122615255Y-119689684D01*
X122608500Y-119751866D01*
X122608500Y-121548134D01*
X122615255Y-121610316D01*
X122666385Y-121746705D01*
X122753739Y-121863261D01*
X122870295Y-121950615D01*
X123006684Y-122001745D01*
X123068866Y-122008500D01*
X123268144Y-122008500D01*
X123336265Y-122028502D01*
X123380602Y-122080716D01*
X123380981Y-122080492D01*
X123380982Y-122080493D01*
X123385019Y-122087319D01*
X123391293Y-122097928D01*
X123399988Y-122115676D01*
X123407448Y-122134517D01*
X123412110Y-122140933D01*
X123412110Y-122140934D01*
X123433436Y-122170287D01*
X123439952Y-122180207D01*
X123452942Y-122202171D01*
X123462458Y-122218262D01*
X123476779Y-122232583D01*
X123489619Y-122247616D01*
X123501528Y-122264007D01*
X123528838Y-122286600D01*
X123535605Y-122292198D01*
X123544384Y-122300188D01*
X126254716Y-125010520D01*
X126288742Y-125072832D01*
X126283677Y-125143647D01*
X126241130Y-125200483D01*
X126209851Y-125217596D01*
X126194232Y-125223452D01*
X126154804Y-125238232D01*
X126154801Y-125238234D01*
X126146395Y-125241385D01*
X126125875Y-125256764D01*
X126037022Y-125323355D01*
X126037019Y-125323358D01*
X126029839Y-125328739D01*
X126024458Y-125335919D01*
X126018107Y-125342270D01*
X126015965Y-125340128D01*
X125971254Y-125373564D01*
X125900436Y-125378594D01*
X125859065Y-125360477D01*
X125858868Y-125360818D01*
X125855802Y-125359048D01*
X125855010Y-125358701D01*
X125854111Y-125358071D01*
X125844611Y-125352586D01*
X125647153Y-125260510D01*
X125636861Y-125256764D01*
X125426412Y-125200375D01*
X125415619Y-125198472D01*
X125198575Y-125179483D01*
X125187625Y-125179483D01*
X124970581Y-125198472D01*
X124959788Y-125200375D01*
X124749339Y-125256764D01*
X124739047Y-125260510D01*
X124541589Y-125352586D01*
X124532094Y-125358069D01*
X124480052Y-125394509D01*
X124471676Y-125404988D01*
X124478744Y-125418434D01*
X125463215Y-126402905D01*
X125497241Y-126465217D01*
X125492176Y-126536032D01*
X125463215Y-126581095D01*
X124478023Y-127566287D01*
X124471593Y-127578062D01*
X124480889Y-127590077D01*
X124532094Y-127625931D01*
X124541589Y-127631414D01*
X124739047Y-127723490D01*
X124749339Y-127727236D01*
X124959788Y-127783625D01*
X124970581Y-127785528D01*
X125187625Y-127804517D01*
X125198575Y-127804517D01*
X125415619Y-127785528D01*
X125426412Y-127783625D01*
X125636861Y-127727236D01*
X125647153Y-127723490D01*
X125844611Y-127631414D01*
X125854111Y-127625929D01*
X125855010Y-127625299D01*
X125855470Y-127625144D01*
X125858868Y-127623182D01*
X125859262Y-127623865D01*
X125922284Y-127602612D01*
X125991144Y-127619898D01*
X126016903Y-127642934D01*
X126018107Y-127641730D01*
X126024458Y-127648081D01*
X126029839Y-127655261D01*
X126037018Y-127660641D01*
X126037022Y-127660645D01*
X126068683Y-127684373D01*
X126146395Y-127742615D01*
X126282784Y-127793745D01*
X126344966Y-127800500D01*
X126494244Y-127800500D01*
X126562365Y-127820502D01*
X126606702Y-127872716D01*
X126607081Y-127872492D01*
X126607082Y-127872493D01*
X126611119Y-127879319D01*
X126617393Y-127889928D01*
X126626088Y-127907676D01*
X126633548Y-127926517D01*
X126638210Y-127932933D01*
X126638210Y-127932934D01*
X126659536Y-127962287D01*
X126666052Y-127972207D01*
X126683668Y-128001993D01*
X126688558Y-128010262D01*
X126702879Y-128024583D01*
X126715719Y-128039616D01*
X126727628Y-128056007D01*
X126740328Y-128066513D01*
X126761693Y-128084188D01*
X126770474Y-128092178D01*
X127259096Y-128580801D01*
X127293121Y-128643113D01*
X127296000Y-128669896D01*
X127296000Y-129526610D01*
X127275998Y-129594731D01*
X127222342Y-129641224D01*
X127209877Y-129646133D01*
X127075007Y-129691130D01*
X127075005Y-129691131D01*
X127068054Y-129693450D01*
X126917652Y-129786522D01*
X126792695Y-129911697D01*
X126788855Y-129917927D01*
X126788854Y-129917928D01*
X126710323Y-130045329D01*
X126699885Y-130062262D01*
X126686375Y-130102994D01*
X126657214Y-130190913D01*
X126644203Y-130230139D01*
X126633500Y-130334600D01*
X126633500Y-131285400D01*
X126633837Y-131288646D01*
X126633837Y-131288650D01*
X126643752Y-131384206D01*
X126644474Y-131391166D01*
X126646655Y-131397702D01*
X126646655Y-131397704D01*
X126672862Y-131476256D01*
X126700450Y-131558946D01*
X126793522Y-131709348D01*
X126918697Y-131834305D01*
X126924929Y-131838147D01*
X126924931Y-131838148D01*
X126938871Y-131846741D01*
X126986364Y-131899513D01*
X126997786Y-131969585D01*
X126969512Y-132034708D01*
X126910518Y-132074208D01*
X126872754Y-132080000D01*
X126110081Y-132080000D01*
X126041960Y-132059998D01*
X125995467Y-132006342D01*
X125985363Y-131936068D01*
X126014857Y-131871488D01*
X126043778Y-131846856D01*
X126059807Y-131836937D01*
X126071208Y-131827901D01*
X126185739Y-131713171D01*
X126194751Y-131701760D01*
X126279816Y-131563757D01*
X126285963Y-131550576D01*
X126337138Y-131396290D01*
X126340005Y-131382914D01*
X126349672Y-131288562D01*
X126350000Y-131282146D01*
X126350000Y-131082115D01*
X126345525Y-131066876D01*
X126344135Y-131065671D01*
X126336452Y-131064000D01*
X123777116Y-131064000D01*
X123761877Y-131068475D01*
X123760672Y-131069865D01*
X123759001Y-131077548D01*
X123759001Y-131282095D01*
X123759338Y-131288614D01*
X123769257Y-131384206D01*
X123772149Y-131397600D01*
X123823588Y-131551784D01*
X123829761Y-131564962D01*
X123915063Y-131702807D01*
X123924099Y-131714208D01*
X124038829Y-131828739D01*
X124050240Y-131837751D01*
X124064823Y-131846740D01*
X124112316Y-131899512D01*
X124123740Y-131969584D01*
X124095466Y-132034708D01*
X124036472Y-132074207D01*
X123998707Y-132080000D01*
X120887100Y-132080000D01*
X120818979Y-132059998D01*
X120772486Y-132006342D01*
X120761100Y-131954000D01*
X120761100Y-130537885D01*
X123759000Y-130537885D01*
X123763475Y-130553124D01*
X123764865Y-130554329D01*
X123772548Y-130556000D01*
X124782385Y-130556000D01*
X124797624Y-130551525D01*
X124798829Y-130550135D01*
X124800500Y-130542452D01*
X124800500Y-130537885D01*
X125308500Y-130537885D01*
X125312975Y-130553124D01*
X125314365Y-130554329D01*
X125322048Y-130556000D01*
X126331884Y-130556000D01*
X126347123Y-130551525D01*
X126348328Y-130550135D01*
X126349999Y-130542452D01*
X126349999Y-130337905D01*
X126349662Y-130331386D01*
X126339743Y-130235794D01*
X126336851Y-130222400D01*
X126285412Y-130068216D01*
X126279239Y-130055038D01*
X126193937Y-129917193D01*
X126184901Y-129905792D01*
X126070171Y-129791261D01*
X126058760Y-129782249D01*
X125920757Y-129697184D01*
X125907576Y-129691037D01*
X125753290Y-129639862D01*
X125739914Y-129636995D01*
X125645562Y-129627328D01*
X125639145Y-129627000D01*
X125326615Y-129627000D01*
X125311376Y-129631475D01*
X125310171Y-129632865D01*
X125308500Y-129640548D01*
X125308500Y-130537885D01*
X124800500Y-130537885D01*
X124800500Y-129645116D01*
X124796025Y-129629877D01*
X124794635Y-129628672D01*
X124786952Y-129627001D01*
X124469905Y-129627001D01*
X124463386Y-129627338D01*
X124367794Y-129637257D01*
X124354400Y-129640149D01*
X124200216Y-129691588D01*
X124187038Y-129697761D01*
X124049193Y-129783063D01*
X124037792Y-129792099D01*
X123923261Y-129906829D01*
X123914249Y-129918240D01*
X123829184Y-130056243D01*
X123823037Y-130069424D01*
X123771862Y-130223710D01*
X123768995Y-130237086D01*
X123759328Y-130331438D01*
X123759000Y-130337855D01*
X123759000Y-130537885D01*
X120761100Y-130537885D01*
X120761100Y-126497475D01*
X123880583Y-126497475D01*
X123899572Y-126714519D01*
X123901475Y-126725312D01*
X123957864Y-126935761D01*
X123961610Y-126946053D01*
X124053686Y-127143511D01*
X124059169Y-127153006D01*
X124095609Y-127205048D01*
X124106088Y-127213424D01*
X124119534Y-127206356D01*
X124821078Y-126504812D01*
X124828692Y-126490868D01*
X124828561Y-126489035D01*
X124824310Y-126482420D01*
X124118813Y-125776923D01*
X124107038Y-125770493D01*
X124095023Y-125779789D01*
X124059169Y-125830994D01*
X124053686Y-125840489D01*
X123961610Y-126037947D01*
X123957864Y-126048239D01*
X123901475Y-126258688D01*
X123899572Y-126269481D01*
X123880583Y-126486525D01*
X123880583Y-126497475D01*
X120761100Y-126497475D01*
X120761100Y-110145095D01*
X121753001Y-110145095D01*
X121753338Y-110151614D01*
X121763257Y-110247206D01*
X121766149Y-110260600D01*
X121817588Y-110414784D01*
X121823761Y-110427962D01*
X121909063Y-110565807D01*
X121918099Y-110577208D01*
X122032829Y-110691739D01*
X122044240Y-110700751D01*
X122182243Y-110785816D01*
X122195424Y-110791963D01*
X122349710Y-110843138D01*
X122363086Y-110846005D01*
X122457438Y-110855672D01*
X122463854Y-110856000D01*
X122663885Y-110856000D01*
X122679124Y-110851525D01*
X122680329Y-110850135D01*
X122682000Y-110842452D01*
X122682000Y-109832615D01*
X122677525Y-109817376D01*
X122676135Y-109816171D01*
X122668452Y-109814500D01*
X121771116Y-109814500D01*
X121755877Y-109818975D01*
X121754672Y-109820365D01*
X121753001Y-109828048D01*
X121753001Y-110145095D01*
X120761100Y-110145095D01*
X120761100Y-109288385D01*
X121753000Y-109288385D01*
X121757475Y-109303624D01*
X121758865Y-109304829D01*
X121766548Y-109306500D01*
X122663885Y-109306500D01*
X122679124Y-109302025D01*
X122680329Y-109300635D01*
X122682000Y-109292952D01*
X122682000Y-109288385D01*
X123190000Y-109288385D01*
X123194475Y-109303624D01*
X123195865Y-109304829D01*
X123203548Y-109306500D01*
X124061885Y-109306500D01*
X124077124Y-109302025D01*
X124094837Y-109281583D01*
X124108315Y-109256902D01*
X124170628Y-109222879D01*
X124197408Y-109220000D01*
X125355885Y-109220000D01*
X125371124Y-109215525D01*
X125372329Y-109214135D01*
X125374000Y-109206452D01*
X125374000Y-109201885D01*
X125882000Y-109201885D01*
X125886475Y-109217124D01*
X125887865Y-109218329D01*
X125895548Y-109220000D01*
X127117884Y-109220000D01*
X127133123Y-109215525D01*
X127134328Y-109214135D01*
X127135999Y-109206452D01*
X127135999Y-108679331D01*
X127135629Y-108672510D01*
X127130105Y-108621648D01*
X127126479Y-108606396D01*
X127081324Y-108485946D01*
X127072786Y-108470351D01*
X126996285Y-108368276D01*
X126983724Y-108355715D01*
X126881649Y-108279214D01*
X126866054Y-108270676D01*
X126745606Y-108225522D01*
X126730351Y-108221895D01*
X126679486Y-108216369D01*
X126672672Y-108216000D01*
X125900115Y-108216000D01*
X125884876Y-108220475D01*
X125883671Y-108221865D01*
X125882000Y-108229548D01*
X125882000Y-109201885D01*
X125374000Y-109201885D01*
X125374000Y-108234116D01*
X125369525Y-108218877D01*
X125368135Y-108217672D01*
X125360452Y-108216001D01*
X124583331Y-108216001D01*
X124576510Y-108216371D01*
X124525648Y-108221895D01*
X124510396Y-108225521D01*
X124389946Y-108270676D01*
X124374351Y-108279214D01*
X124272276Y-108355715D01*
X124259715Y-108368276D01*
X124183214Y-108470351D01*
X124174676Y-108485946D01*
X124167316Y-108505578D01*
X124124674Y-108562343D01*
X124058112Y-108587042D01*
X123988763Y-108571834D01*
X123960267Y-108547779D01*
X123959083Y-108548965D01*
X123839171Y-108429261D01*
X123827760Y-108420249D01*
X123689757Y-108335184D01*
X123676576Y-108329037D01*
X123522290Y-108277862D01*
X123508914Y-108274995D01*
X123414562Y-108265328D01*
X123408145Y-108265000D01*
X123208115Y-108265000D01*
X123192876Y-108269475D01*
X123191671Y-108270865D01*
X123190000Y-108278548D01*
X123190000Y-109288385D01*
X122682000Y-109288385D01*
X122682000Y-108283116D01*
X122677525Y-108267877D01*
X122676135Y-108266672D01*
X122668452Y-108265001D01*
X122463905Y-108265001D01*
X122457386Y-108265338D01*
X122361794Y-108275257D01*
X122348400Y-108278149D01*
X122194216Y-108329588D01*
X122181038Y-108335761D01*
X122043193Y-108421063D01*
X122031792Y-108430099D01*
X121917261Y-108544829D01*
X121908249Y-108556240D01*
X121823184Y-108694243D01*
X121817037Y-108707424D01*
X121765862Y-108861710D01*
X121762995Y-108875086D01*
X121753328Y-108969438D01*
X121753000Y-108975855D01*
X121753000Y-109288385D01*
X120761100Y-109288385D01*
X120761100Y-68259665D01*
X129071119Y-68259665D01*
X129071416Y-68264817D01*
X129071416Y-68264821D01*
X129077249Y-68365971D01*
X129084376Y-68489580D01*
X129085513Y-68494626D01*
X129085514Y-68494632D01*
X129116226Y-68630907D01*
X129135006Y-68714242D01*
X129136948Y-68719024D01*
X129136949Y-68719028D01*
X129174427Y-68811325D01*
X129221649Y-68927618D01*
X129341979Y-69123978D01*
X129492763Y-69298048D01*
X129669953Y-69445154D01*
X129868790Y-69561345D01*
X130083934Y-69643501D01*
X130089000Y-69644532D01*
X130089001Y-69644532D01*
X130189697Y-69665018D01*
X130309607Y-69689414D01*
X130439352Y-69694172D01*
X130534585Y-69697664D01*
X130534589Y-69697664D01*
X130539749Y-69697853D01*
X130544869Y-69697197D01*
X130544871Y-69697197D01*
X130614272Y-69688307D01*
X130768178Y-69668591D01*
X130773126Y-69667106D01*
X130773133Y-69667105D01*
X130983811Y-69603898D01*
X130983810Y-69603898D01*
X130988761Y-69602413D01*
X131195574Y-69501096D01*
X131383062Y-69367363D01*
X131546190Y-69204803D01*
X131604269Y-69123978D01*
X131677559Y-69021983D01*
X131680577Y-69017783D01*
X131782615Y-68811325D01*
X131828457Y-68660444D01*
X131848059Y-68595927D01*
X131848060Y-68595921D01*
X131849563Y-68590975D01*
X131870079Y-68435137D01*
X131879185Y-68365971D01*
X131879185Y-68365965D01*
X131879622Y-68362649D01*
X131881300Y-68294000D01*
X131862430Y-68064478D01*
X131806326Y-67841120D01*
X131714496Y-67629924D01*
X131589405Y-67436563D01*
X131568774Y-67413889D01*
X131437890Y-67270051D01*
X131437889Y-67270050D01*
X131434412Y-67266229D01*
X131430361Y-67263030D01*
X131430357Y-67263026D01*
X131257735Y-67126697D01*
X131257730Y-67126693D01*
X131253681Y-67123496D01*
X131249165Y-67121003D01*
X131249162Y-67121001D01*
X131056589Y-67014695D01*
X131056585Y-67014693D01*
X131052065Y-67012198D01*
X131047196Y-67010474D01*
X131047192Y-67010472D01*
X130839853Y-66937049D01*
X130839849Y-66937048D01*
X130834978Y-66935323D01*
X130829885Y-66934416D01*
X130829882Y-66934415D01*
X130733707Y-66917284D01*
X130608250Y-66894937D01*
X130521802Y-66893881D01*
X130383141Y-66892186D01*
X130383139Y-66892186D01*
X130377971Y-66892123D01*
X130150325Y-66926958D01*
X129931424Y-66998506D01*
X129727149Y-67104845D01*
X129542984Y-67243119D01*
X129383877Y-67409616D01*
X129254099Y-67599863D01*
X129251923Y-67604552D01*
X129251919Y-67604558D01*
X129240145Y-67629924D01*
X129157136Y-67808752D01*
X129095592Y-68030673D01*
X129095043Y-68035810D01*
X129075806Y-68215811D01*
X129071119Y-68259665D01*
X120761100Y-68259665D01*
X120761100Y-67099390D01*
X124535440Y-67099390D01*
X124541167Y-67107040D01*
X124739506Y-67228583D01*
X124748300Y-67233064D01*
X124972991Y-67326134D01*
X124982376Y-67329183D01*
X125218863Y-67385959D01*
X125228610Y-67387502D01*
X125471070Y-67406584D01*
X125480930Y-67406584D01*
X125723390Y-67387502D01*
X125733137Y-67385959D01*
X125969624Y-67329183D01*
X125979009Y-67326134D01*
X126203700Y-67233064D01*
X126212494Y-67228583D01*
X126407167Y-67109287D01*
X126416627Y-67098830D01*
X126412844Y-67090054D01*
X125488812Y-66166022D01*
X125474868Y-66158408D01*
X125473035Y-66158539D01*
X125466420Y-66162790D01*
X124542200Y-67087010D01*
X124535440Y-67099390D01*
X120761100Y-67099390D01*
X120761100Y-65798930D01*
X123863416Y-65798930D01*
X123882498Y-66041390D01*
X123884041Y-66051137D01*
X123940817Y-66287624D01*
X123943866Y-66297009D01*
X124036936Y-66521700D01*
X124041417Y-66530494D01*
X124160713Y-66725167D01*
X124171170Y-66734627D01*
X124179946Y-66730844D01*
X125103978Y-65806812D01*
X125110356Y-65795132D01*
X125840408Y-65795132D01*
X125840539Y-65796965D01*
X125844790Y-65803580D01*
X126769010Y-66727800D01*
X126781390Y-66734560D01*
X126789040Y-66728833D01*
X126910583Y-66530494D01*
X126915064Y-66521700D01*
X127008134Y-66297009D01*
X127011183Y-66287624D01*
X127067959Y-66051137D01*
X127069502Y-66041390D01*
X127088584Y-65798930D01*
X127088584Y-65789070D01*
X127086270Y-65759665D01*
X134071119Y-65759665D01*
X134071416Y-65764817D01*
X134071416Y-65764821D01*
X134076864Y-65859296D01*
X134084376Y-65989580D01*
X134085513Y-65994626D01*
X134085514Y-65994632D01*
X134107226Y-66090975D01*
X134135006Y-66214242D01*
X134136948Y-66219024D01*
X134136949Y-66219028D01*
X134212000Y-66403856D01*
X134221649Y-66427618D01*
X134341979Y-66623978D01*
X134492763Y-66798048D01*
X134669953Y-66945154D01*
X134868790Y-67061345D01*
X135083934Y-67143501D01*
X135089000Y-67144532D01*
X135089001Y-67144532D01*
X135189697Y-67165018D01*
X135309607Y-67189414D01*
X135439352Y-67194172D01*
X135534585Y-67197664D01*
X135534589Y-67197664D01*
X135539749Y-67197853D01*
X135544869Y-67197197D01*
X135544871Y-67197197D01*
X135614272Y-67188307D01*
X135768178Y-67168591D01*
X135773126Y-67167106D01*
X135773133Y-67167105D01*
X135965849Y-67109287D01*
X135988761Y-67102413D01*
X136195574Y-67001096D01*
X136383062Y-66867363D01*
X136546190Y-66704803D01*
X136565426Y-66678034D01*
X136677559Y-66521983D01*
X136680577Y-66517783D01*
X136688032Y-66502700D01*
X136780321Y-66315966D01*
X136782615Y-66311325D01*
X136827744Y-66162790D01*
X136848059Y-66095927D01*
X136848060Y-66095921D01*
X136849563Y-66090975D01*
X136879622Y-65862649D01*
X136881066Y-65803580D01*
X136881218Y-65797364D01*
X136881218Y-65797360D01*
X136881300Y-65794000D01*
X136862430Y-65564478D01*
X136806326Y-65341120D01*
X136714496Y-65129924D01*
X136589405Y-64936563D01*
X136568774Y-64913889D01*
X136437890Y-64770051D01*
X136437889Y-64770050D01*
X136434412Y-64766229D01*
X136430361Y-64763030D01*
X136430357Y-64763026D01*
X136257735Y-64626697D01*
X136257730Y-64626693D01*
X136253681Y-64623496D01*
X136249165Y-64621003D01*
X136249162Y-64621001D01*
X136056589Y-64514695D01*
X136056585Y-64514693D01*
X136052065Y-64512198D01*
X136047196Y-64510474D01*
X136047192Y-64510472D01*
X135839853Y-64437049D01*
X135839849Y-64437048D01*
X135834978Y-64435323D01*
X135829885Y-64434416D01*
X135829882Y-64434415D01*
X135733707Y-64417284D01*
X135608250Y-64394937D01*
X135521802Y-64393881D01*
X135383141Y-64392186D01*
X135383139Y-64392186D01*
X135377971Y-64392123D01*
X135150325Y-64426958D01*
X134931424Y-64498506D01*
X134727149Y-64604845D01*
X134542984Y-64743119D01*
X134383877Y-64909616D01*
X134254099Y-65099863D01*
X134251923Y-65104552D01*
X134251919Y-65104558D01*
X134240145Y-65129924D01*
X134157136Y-65308752D01*
X134095592Y-65530673D01*
X134071119Y-65759665D01*
X127086270Y-65759665D01*
X127069502Y-65546610D01*
X127067959Y-65536863D01*
X127011183Y-65300376D01*
X127008134Y-65290991D01*
X126915064Y-65066300D01*
X126910583Y-65057506D01*
X126791287Y-64862833D01*
X126780830Y-64853373D01*
X126772054Y-64857156D01*
X125848022Y-65781188D01*
X125840408Y-65795132D01*
X125110356Y-65795132D01*
X125111592Y-65792868D01*
X125111461Y-65791035D01*
X125107210Y-65784420D01*
X124182990Y-64860200D01*
X124170610Y-64853440D01*
X124162960Y-64859167D01*
X124041417Y-65057506D01*
X124036936Y-65066300D01*
X123943866Y-65290991D01*
X123940817Y-65300376D01*
X123884041Y-65536863D01*
X123882498Y-65546610D01*
X123863416Y-65789070D01*
X123863416Y-65798930D01*
X120761100Y-65798930D01*
X120761100Y-52393600D01*
X120781102Y-52325479D01*
X120834758Y-52278986D01*
X120887100Y-52267600D01*
X124287892Y-52267600D01*
X124356013Y-52287602D01*
G37*
G04 #@! TD.AperFunction*
G04 #@! TA.AperFunction,Conductor*
G36*
X175668700Y-106150652D02*
G01*
X175723447Y-106195855D01*
X175745100Y-106266479D01*
X175745100Y-131954000D01*
X175725098Y-132022121D01*
X175671442Y-132068614D01*
X175619100Y-132080000D01*
X165012600Y-132080000D01*
X164944479Y-132059998D01*
X164897986Y-132006342D01*
X164886600Y-131954000D01*
X164886600Y-131935444D01*
X164886095Y-131931444D01*
X164885162Y-131919601D01*
X164884022Y-131883329D01*
X164883773Y-131875410D01*
X164878122Y-131855958D01*
X164874114Y-131836606D01*
X164872567Y-131824363D01*
X164871574Y-131816503D01*
X164867984Y-131807435D01*
X164855300Y-131775397D01*
X164851455Y-131764170D01*
X164850821Y-131761987D01*
X164839118Y-131721707D01*
X164835084Y-131714885D01*
X164835081Y-131714879D01*
X164828806Y-131704268D01*
X164820110Y-131686518D01*
X164815572Y-131675056D01*
X164815569Y-131675051D01*
X164812652Y-131667683D01*
X164786673Y-131631925D01*
X164780157Y-131622007D01*
X164761675Y-131590757D01*
X164757642Y-131583937D01*
X164743318Y-131569613D01*
X164730476Y-131554578D01*
X164718572Y-131538193D01*
X164712463Y-131533139D01*
X164707037Y-131527361D01*
X164708605Y-131525889D01*
X164675079Y-131476256D01*
X164673454Y-131405278D01*
X164710461Y-131344690D01*
X164768934Y-131314754D01*
X164810099Y-131306004D01*
X164935288Y-131279394D01*
X164986076Y-131256782D01*
X165103722Y-131204403D01*
X165103724Y-131204402D01*
X165109752Y-131201718D01*
X165117916Y-131195787D01*
X165195525Y-131139400D01*
X165264253Y-131089466D01*
X165345169Y-130999600D01*
X165387621Y-130952452D01*
X165387622Y-130952451D01*
X165392040Y-130947544D01*
X165472426Y-130808312D01*
X165484223Y-130787879D01*
X165484224Y-130787878D01*
X165487527Y-130782156D01*
X165546542Y-130600528D01*
X165551693Y-130551525D01*
X165565814Y-130417165D01*
X165566504Y-130410600D01*
X165558864Y-130337905D01*
X165547232Y-130227235D01*
X165547232Y-130227233D01*
X165546542Y-130220672D01*
X165487527Y-130039044D01*
X165476586Y-130020093D01*
X165459849Y-129951099D01*
X165483070Y-129884007D01*
X165538878Y-129840120D01*
X165559507Y-129833849D01*
X165666088Y-129811194D01*
X165672119Y-129808509D01*
X165834522Y-129736203D01*
X165834524Y-129736202D01*
X165840552Y-129733518D01*
X165995053Y-129621266D01*
X166087527Y-129518563D01*
X166118421Y-129484252D01*
X166118422Y-129484251D01*
X166122840Y-129479344D01*
X166193068Y-129357706D01*
X166215023Y-129319679D01*
X166215024Y-129319678D01*
X166218327Y-129313956D01*
X166277342Y-129132328D01*
X166280665Y-129100717D01*
X166296614Y-128948965D01*
X166297304Y-128942400D01*
X166288475Y-128858400D01*
X166278032Y-128759035D01*
X166278032Y-128759033D01*
X166277342Y-128752472D01*
X166218327Y-128570844D01*
X166211893Y-128559699D01*
X166169829Y-128486844D01*
X166122840Y-128405456D01*
X166112788Y-128394292D01*
X165999476Y-128268446D01*
X165999475Y-128268445D01*
X165995053Y-128263534D01*
X165990095Y-128259932D01*
X165952950Y-128199637D01*
X165948500Y-128166448D01*
X165948500Y-127894000D01*
X165968502Y-127825879D01*
X166022158Y-127779386D01*
X166074500Y-127768000D01*
X166155487Y-127768000D01*
X166161939Y-127766628D01*
X166161944Y-127766628D01*
X166274913Y-127742615D01*
X166342288Y-127728294D01*
X166348319Y-127725609D01*
X166510722Y-127653303D01*
X166510724Y-127653302D01*
X166516752Y-127650618D01*
X166524781Y-127644785D01*
X166643300Y-127558675D01*
X166671253Y-127538366D01*
X166799040Y-127396444D01*
X166894527Y-127231056D01*
X166953542Y-127049428D01*
X166954242Y-127042773D01*
X166971330Y-126880186D01*
X166998343Y-126814530D01*
X167004787Y-126807107D01*
X167006858Y-126804901D01*
X167012286Y-126799121D01*
X167016105Y-126792175D01*
X167016107Y-126792172D01*
X167022048Y-126781366D01*
X167032899Y-126764847D01*
X167040458Y-126755101D01*
X167045314Y-126748841D01*
X167048459Y-126741572D01*
X167048462Y-126741568D01*
X167062874Y-126708263D01*
X167068091Y-126697613D01*
X167089395Y-126658860D01*
X167094433Y-126639237D01*
X167100837Y-126620534D01*
X167105733Y-126609220D01*
X167105733Y-126609219D01*
X167108881Y-126601945D01*
X167110120Y-126594122D01*
X167110123Y-126594112D01*
X167115799Y-126558276D01*
X167118205Y-126546656D01*
X167127228Y-126511511D01*
X167127228Y-126511510D01*
X167129200Y-126503830D01*
X167129200Y-126483576D01*
X167130751Y-126463865D01*
X167132680Y-126451686D01*
X167133920Y-126443857D01*
X167129759Y-126399838D01*
X167129200Y-126387981D01*
X167129200Y-123965966D01*
X172658257Y-123965966D01*
X172688565Y-124100446D01*
X172691645Y-124110275D01*
X172771770Y-124307603D01*
X172776413Y-124316794D01*
X172887694Y-124498388D01*
X172893777Y-124506699D01*
X173033213Y-124667667D01*
X173040580Y-124674883D01*
X173204432Y-124810915D01*
X173212881Y-124816831D01*
X173396756Y-124924279D01*
X173406042Y-124928729D01*
X173605001Y-125004703D01*
X173614899Y-125007579D01*
X173718250Y-125028606D01*
X173732299Y-125027410D01*
X173736000Y-125017065D01*
X173736000Y-125016517D01*
X174244000Y-125016517D01*
X174248064Y-125030359D01*
X174261478Y-125032393D01*
X174268184Y-125031534D01*
X174278262Y-125029392D01*
X174482255Y-124968191D01*
X174491842Y-124964433D01*
X174683095Y-124870739D01*
X174691945Y-124865464D01*
X174865328Y-124741792D01*
X174873200Y-124735139D01*
X175024052Y-124584812D01*
X175030730Y-124576965D01*
X175155003Y-124404020D01*
X175160313Y-124395183D01*
X175254670Y-124204267D01*
X175258469Y-124194672D01*
X175320377Y-123990910D01*
X175322555Y-123980837D01*
X175323986Y-123969962D01*
X175321775Y-123955778D01*
X175308617Y-123952000D01*
X174262115Y-123952000D01*
X174246876Y-123956475D01*
X174245671Y-123957865D01*
X174244000Y-123965548D01*
X174244000Y-125016517D01*
X173736000Y-125016517D01*
X173736000Y-123970115D01*
X173731525Y-123954876D01*
X173730135Y-123953671D01*
X173722452Y-123952000D01*
X172673225Y-123952000D01*
X172659694Y-123955973D01*
X172658257Y-123965966D01*
X167129200Y-123965966D01*
X167129200Y-117318585D01*
X167149202Y-117250464D01*
X167202858Y-117203971D01*
X167273132Y-117193867D01*
X167281397Y-117195338D01*
X167430956Y-117227128D01*
X167430961Y-117227128D01*
X167437413Y-117228500D01*
X167628387Y-117228500D01*
X167634839Y-117227128D01*
X167634844Y-117227128D01*
X167743786Y-117203971D01*
X167815188Y-117188794D01*
X167933380Y-117136172D01*
X167983622Y-117113803D01*
X167983624Y-117113802D01*
X167989652Y-117111118D01*
X168035991Y-117077451D01*
X168076483Y-117048031D01*
X168144153Y-116998866D01*
X168242146Y-116890034D01*
X168267521Y-116861852D01*
X168267522Y-116861851D01*
X168271940Y-116856944D01*
X168363114Y-116699027D01*
X168364123Y-116697279D01*
X168364124Y-116697278D01*
X168367427Y-116691556D01*
X168426442Y-116509928D01*
X168436038Y-116418632D01*
X168445714Y-116326565D01*
X168446404Y-116320000D01*
X168426442Y-116130072D01*
X168367427Y-115948444D01*
X168271940Y-115783056D01*
X168250107Y-115758808D01*
X168219391Y-115694802D01*
X168228156Y-115624349D01*
X168273619Y-115569818D01*
X168341323Y-115549236D01*
X168341318Y-115549190D01*
X168341558Y-115549165D01*
X168343745Y-115548500D01*
X168354487Y-115548500D01*
X168360939Y-115547128D01*
X168360944Y-115547128D01*
X168447887Y-115528647D01*
X168541288Y-115508794D01*
X168551584Y-115504210D01*
X168709722Y-115433803D01*
X168709724Y-115433802D01*
X168715752Y-115431118D01*
X168722249Y-115426398D01*
X168851995Y-115332131D01*
X168870253Y-115318866D01*
X168934042Y-115248021D01*
X168993621Y-115181852D01*
X168993622Y-115181851D01*
X168998040Y-115176944D01*
X169065990Y-115059251D01*
X169117372Y-115010258D01*
X169187086Y-114996822D01*
X169226357Y-115007144D01*
X169339477Y-115057508D01*
X169339485Y-115057511D01*
X169345512Y-115060194D01*
X169438913Y-115080047D01*
X169525856Y-115098528D01*
X169525861Y-115098528D01*
X169532313Y-115099900D01*
X169723287Y-115099900D01*
X169729739Y-115098528D01*
X169729744Y-115098528D01*
X169816687Y-115080047D01*
X169910088Y-115060194D01*
X169925078Y-115053520D01*
X170078522Y-114985203D01*
X170078524Y-114985202D01*
X170084552Y-114982518D01*
X170239053Y-114870266D01*
X170331625Y-114767455D01*
X170392070Y-114730215D01*
X170463053Y-114731567D01*
X170522038Y-114771080D01*
X170550296Y-114836211D01*
X170550570Y-114864935D01*
X170549443Y-114875658D01*
X170542996Y-114937000D01*
X170543686Y-114943565D01*
X170558538Y-115084870D01*
X170562958Y-115126928D01*
X170621973Y-115308556D01*
X170625276Y-115314278D01*
X170625277Y-115314279D01*
X170635584Y-115332131D01*
X170717460Y-115473944D01*
X170721878Y-115478851D01*
X170721879Y-115478852D01*
X170798350Y-115563782D01*
X170845247Y-115615866D01*
X170999748Y-115728118D01*
X171005776Y-115730802D01*
X171005778Y-115730803D01*
X171168181Y-115803109D01*
X171174212Y-115805794D01*
X171251570Y-115822237D01*
X171354556Y-115844128D01*
X171354561Y-115844128D01*
X171361013Y-115845500D01*
X171551987Y-115845500D01*
X171558441Y-115844128D01*
X171558443Y-115844128D01*
X171572721Y-115841093D01*
X171594517Y-115836460D01*
X171665307Y-115841862D01*
X171709808Y-115870612D01*
X172309443Y-116470247D01*
X172316987Y-116478537D01*
X172321100Y-116485018D01*
X172326877Y-116490443D01*
X172370767Y-116531658D01*
X172373609Y-116534413D01*
X172393330Y-116554134D01*
X172396525Y-116556612D01*
X172405547Y-116564318D01*
X172437779Y-116594586D01*
X172444728Y-116598406D01*
X172455532Y-116604346D01*
X172472056Y-116615199D01*
X172488059Y-116627613D01*
X172528643Y-116645176D01*
X172539273Y-116650383D01*
X172578040Y-116671695D01*
X172585717Y-116673666D01*
X172585722Y-116673668D01*
X172597658Y-116676732D01*
X172616366Y-116683137D01*
X172634955Y-116691181D01*
X172642783Y-116692421D01*
X172642790Y-116692423D01*
X172678624Y-116698099D01*
X172690244Y-116700505D01*
X172725394Y-116709530D01*
X172725400Y-116709531D01*
X172730740Y-116710902D01*
X172730743Y-116710903D01*
X172733069Y-116711500D01*
X172732973Y-116711875D01*
X172793568Y-116738305D01*
X172820130Y-116769092D01*
X172832425Y-116789156D01*
X172889987Y-116883088D01*
X173036250Y-117051938D01*
X173208126Y-117194632D01*
X173266084Y-117228500D01*
X173281445Y-117237476D01*
X173330169Y-117289114D01*
X173343240Y-117358897D01*
X173316509Y-117424669D01*
X173276055Y-117458027D01*
X173263607Y-117464507D01*
X173259474Y-117467610D01*
X173259471Y-117467612D01*
X173089100Y-117595530D01*
X173084965Y-117598635D01*
X173039583Y-117646124D01*
X172956587Y-117732975D01*
X172930629Y-117760138D01*
X172804743Y-117944680D01*
X172789003Y-117978590D01*
X172717906Y-118131756D01*
X172710688Y-118147305D01*
X172650989Y-118362570D01*
X172627251Y-118584695D01*
X172627548Y-118589848D01*
X172627548Y-118589851D01*
X172635813Y-118733188D01*
X172640110Y-118807715D01*
X172641247Y-118812761D01*
X172641248Y-118812767D01*
X172659223Y-118892526D01*
X172689222Y-119025639D01*
X172773266Y-119232616D01*
X172815189Y-119301029D01*
X172873516Y-119396209D01*
X172889987Y-119423088D01*
X173036250Y-119591938D01*
X173208126Y-119734632D01*
X173235271Y-119750494D01*
X173281445Y-119777476D01*
X173330169Y-119829114D01*
X173343240Y-119898897D01*
X173316509Y-119964669D01*
X173276055Y-119998027D01*
X173263607Y-120004507D01*
X173259474Y-120007610D01*
X173259471Y-120007612D01*
X173089100Y-120135530D01*
X173084965Y-120138635D01*
X173081393Y-120142373D01*
X172950924Y-120278901D01*
X172930629Y-120300138D01*
X172927715Y-120304410D01*
X172927714Y-120304411D01*
X172872191Y-120385805D01*
X172804743Y-120484680D01*
X172763564Y-120573392D01*
X172714593Y-120678893D01*
X172710688Y-120687305D01*
X172650989Y-120902570D01*
X172627251Y-121124695D01*
X172627548Y-121129848D01*
X172627548Y-121129851D01*
X172637899Y-121309362D01*
X172640110Y-121347715D01*
X172641247Y-121352761D01*
X172641248Y-121352767D01*
X172656294Y-121419530D01*
X172689222Y-121565639D01*
X172726559Y-121657590D01*
X172765663Y-121753891D01*
X172773266Y-121772616D01*
X172809269Y-121831368D01*
X172886370Y-121957185D01*
X172889987Y-121963088D01*
X173036250Y-122131938D01*
X173157478Y-122232583D01*
X173191055Y-122260459D01*
X173208126Y-122274632D01*
X173265350Y-122308071D01*
X173281955Y-122317774D01*
X173330679Y-122369412D01*
X173343750Y-122439195D01*
X173317019Y-122504967D01*
X173276562Y-122538327D01*
X173268457Y-122542546D01*
X173259738Y-122548036D01*
X173089433Y-122675905D01*
X173081726Y-122682748D01*
X172934590Y-122836717D01*
X172928104Y-122844727D01*
X172808098Y-123020649D01*
X172803000Y-123029623D01*
X172713338Y-123222783D01*
X172709775Y-123232470D01*
X172654389Y-123432183D01*
X172655912Y-123440607D01*
X172668292Y-123444000D01*
X175308344Y-123444000D01*
X175321875Y-123440027D01*
X175323180Y-123430947D01*
X175281214Y-123263875D01*
X175277894Y-123254124D01*
X175192972Y-123058814D01*
X175188105Y-123049739D01*
X175072426Y-122870926D01*
X175066136Y-122862757D01*
X174922806Y-122705240D01*
X174915273Y-122698215D01*
X174748139Y-122566222D01*
X174739556Y-122560520D01*
X174702602Y-122540120D01*
X174652631Y-122489687D01*
X174637859Y-122420245D01*
X174662975Y-122353839D01*
X174690327Y-122327232D01*
X174728241Y-122300188D01*
X174869860Y-122199173D01*
X174875113Y-122193939D01*
X174953720Y-122115606D01*
X175028096Y-122041489D01*
X175033552Y-122033897D01*
X175155435Y-121864277D01*
X175158453Y-121860077D01*
X175169039Y-121838659D01*
X175255136Y-121664453D01*
X175255137Y-121664451D01*
X175257430Y-121659811D01*
X175299269Y-121522103D01*
X175320865Y-121451023D01*
X175320865Y-121451021D01*
X175322370Y-121446069D01*
X175351529Y-121224590D01*
X175351611Y-121221240D01*
X175353074Y-121161365D01*
X175353074Y-121161361D01*
X175353156Y-121158000D01*
X175334852Y-120935361D01*
X175280431Y-120718702D01*
X175191354Y-120513840D01*
X175121186Y-120405377D01*
X175072822Y-120330617D01*
X175072820Y-120330614D01*
X175070014Y-120326277D01*
X174919670Y-120161051D01*
X174915619Y-120157852D01*
X174915615Y-120157848D01*
X174748414Y-120025800D01*
X174748410Y-120025798D01*
X174744359Y-120022598D01*
X174703053Y-119999796D01*
X174653084Y-119949364D01*
X174638312Y-119879921D01*
X174663428Y-119813516D01*
X174690780Y-119786909D01*
X174746678Y-119747037D01*
X174869860Y-119659173D01*
X174876004Y-119653051D01*
X174996351Y-119533123D01*
X175028096Y-119501489D01*
X175087594Y-119418689D01*
X175155435Y-119324277D01*
X175158453Y-119320077D01*
X175169769Y-119297182D01*
X175255136Y-119124453D01*
X175255137Y-119124451D01*
X175257430Y-119119811D01*
X175322370Y-118906069D01*
X175351529Y-118684590D01*
X175351848Y-118671543D01*
X175353074Y-118621365D01*
X175353074Y-118621361D01*
X175353156Y-118618000D01*
X175334852Y-118395361D01*
X175280431Y-118178702D01*
X175191354Y-117973840D01*
X175070014Y-117786277D01*
X174919670Y-117621051D01*
X174915619Y-117617852D01*
X174915615Y-117617848D01*
X174748414Y-117485800D01*
X174748410Y-117485798D01*
X174744359Y-117482598D01*
X174703053Y-117459796D01*
X174653084Y-117409364D01*
X174638312Y-117339921D01*
X174663428Y-117273516D01*
X174690780Y-117246909D01*
X174750977Y-117203971D01*
X174869860Y-117119173D01*
X174907832Y-117081334D01*
X174956035Y-117033299D01*
X175028096Y-116961489D01*
X175033087Y-116954544D01*
X175155435Y-116784277D01*
X175158453Y-116780077D01*
X175165275Y-116766275D01*
X175255136Y-116584453D01*
X175255137Y-116584451D01*
X175257430Y-116579811D01*
X175322370Y-116366069D01*
X175351529Y-116144590D01*
X175351611Y-116141240D01*
X175353074Y-116081365D01*
X175353074Y-116081361D01*
X175353156Y-116078000D01*
X175334852Y-115855361D01*
X175280431Y-115638702D01*
X175191354Y-115433840D01*
X175125794Y-115332500D01*
X175072822Y-115250617D01*
X175072820Y-115250614D01*
X175070014Y-115246277D01*
X174919670Y-115081051D01*
X174915619Y-115077852D01*
X174915615Y-115077848D01*
X174748414Y-114945800D01*
X174748410Y-114945798D01*
X174744359Y-114942598D01*
X174703053Y-114919796D01*
X174653084Y-114869364D01*
X174638312Y-114799921D01*
X174663428Y-114733516D01*
X174690780Y-114706909D01*
X174749785Y-114664821D01*
X174869860Y-114579173D01*
X175028096Y-114421489D01*
X175035176Y-114411637D01*
X175155435Y-114244277D01*
X175158453Y-114240077D01*
X175182449Y-114191526D01*
X175255136Y-114044453D01*
X175255137Y-114044451D01*
X175257430Y-114039811D01*
X175322370Y-113826069D01*
X175351529Y-113604590D01*
X175351626Y-113600634D01*
X175353074Y-113541365D01*
X175353074Y-113541361D01*
X175353156Y-113538000D01*
X175334852Y-113315361D01*
X175280431Y-113098702D01*
X175191354Y-112893840D01*
X175120168Y-112783803D01*
X175072822Y-112710617D01*
X175072820Y-112710614D01*
X175070014Y-112706277D01*
X175066532Y-112702450D01*
X174922798Y-112544488D01*
X174891746Y-112480642D01*
X174900141Y-112410143D01*
X174945317Y-112355375D01*
X174971761Y-112341706D01*
X175078297Y-112301767D01*
X175086705Y-112298615D01*
X175203261Y-112211261D01*
X175290615Y-112094705D01*
X175341745Y-111958316D01*
X175348500Y-111896134D01*
X175348500Y-110099866D01*
X175341745Y-110037684D01*
X175290615Y-109901295D01*
X175203261Y-109784739D01*
X175086705Y-109697385D01*
X174950316Y-109646255D01*
X174888134Y-109639500D01*
X173091866Y-109639500D01*
X173029684Y-109646255D01*
X172893295Y-109697385D01*
X172776739Y-109784739D01*
X172689385Y-109901295D01*
X172638255Y-110037684D01*
X172631500Y-110099866D01*
X172631500Y-111896134D01*
X172638255Y-111958316D01*
X172689385Y-112094705D01*
X172776739Y-112211261D01*
X172893295Y-112298615D01*
X172901704Y-112301767D01*
X172901705Y-112301768D01*
X173010451Y-112342535D01*
X173067216Y-112385176D01*
X173091916Y-112451738D01*
X173076709Y-112521087D01*
X173057316Y-112547568D01*
X173018500Y-112588187D01*
X172930629Y-112680138D01*
X172927715Y-112684410D01*
X172927714Y-112684411D01*
X172882001Y-112751424D01*
X172804743Y-112864680D01*
X172777752Y-112922827D01*
X172715091Y-113057820D01*
X172710688Y-113067305D01*
X172650989Y-113282570D01*
X172627251Y-113504695D01*
X172627548Y-113509848D01*
X172627548Y-113509851D01*
X172636633Y-113667419D01*
X172640110Y-113727715D01*
X172641247Y-113732761D01*
X172641248Y-113732767D01*
X172654533Y-113791715D01*
X172689222Y-113945639D01*
X172728611Y-114042642D01*
X172770532Y-114145882D01*
X172773266Y-114152616D01*
X172812286Y-114216291D01*
X172850408Y-114278500D01*
X172889987Y-114343088D01*
X173036250Y-114511938D01*
X173208126Y-114654632D01*
X173250070Y-114679142D01*
X173281445Y-114697476D01*
X173330169Y-114749114D01*
X173343240Y-114818897D01*
X173316509Y-114884669D01*
X173276055Y-114918027D01*
X173263607Y-114924507D01*
X173259474Y-114927610D01*
X173259471Y-114927612D01*
X173089100Y-115055530D01*
X173084965Y-115058635D01*
X172980836Y-115167600D01*
X172919313Y-115203029D01*
X172848400Y-115199572D01*
X172800648Y-115169643D01*
X172357939Y-114726934D01*
X172327201Y-114676775D01*
X172293069Y-114571729D01*
X172291027Y-114565444D01*
X172195540Y-114400056D01*
X172160325Y-114360945D01*
X172072175Y-114263045D01*
X172072174Y-114263044D01*
X172067753Y-114258134D01*
X171913252Y-114145882D01*
X171907224Y-114143198D01*
X171907222Y-114143197D01*
X171744819Y-114070891D01*
X171744818Y-114070891D01*
X171738788Y-114068206D01*
X171618520Y-114042642D01*
X171558444Y-114029872D01*
X171558439Y-114029872D01*
X171551987Y-114028500D01*
X171361013Y-114028500D01*
X171354561Y-114029872D01*
X171354556Y-114029872D01*
X171294480Y-114042642D01*
X171174212Y-114068206D01*
X171168182Y-114070891D01*
X171168181Y-114070891D01*
X171005778Y-114143197D01*
X171005776Y-114143198D01*
X170999748Y-114145882D01*
X170845247Y-114258134D01*
X170752787Y-114360822D01*
X170752676Y-114360945D01*
X170692230Y-114398185D01*
X170621247Y-114396833D01*
X170562262Y-114357320D01*
X170534004Y-114292189D01*
X170533730Y-114263465D01*
X170540614Y-114197965D01*
X170541304Y-114191400D01*
X170532449Y-114107152D01*
X170522032Y-114008035D01*
X170522032Y-114008033D01*
X170521342Y-114001472D01*
X170462327Y-113819844D01*
X170438181Y-113778021D01*
X170405914Y-113722134D01*
X170366840Y-113654456D01*
X170293663Y-113573185D01*
X170262947Y-113509179D01*
X170261300Y-113488876D01*
X170261300Y-111927294D01*
X170281302Y-111859173D01*
X170298205Y-111838199D01*
X174631247Y-107505157D01*
X174639537Y-107497613D01*
X174646018Y-107493500D01*
X174653469Y-107485566D01*
X174692658Y-107443833D01*
X174695413Y-107440991D01*
X174715135Y-107421269D01*
X174717612Y-107418076D01*
X174725317Y-107409055D01*
X174750159Y-107382600D01*
X174755586Y-107376821D01*
X174759407Y-107369871D01*
X174765346Y-107359068D01*
X174776202Y-107342541D01*
X174783757Y-107332802D01*
X174783758Y-107332800D01*
X174788614Y-107326540D01*
X174806174Y-107285960D01*
X174811391Y-107275312D01*
X174828875Y-107243509D01*
X174828876Y-107243507D01*
X174832695Y-107236560D01*
X174837733Y-107216937D01*
X174844137Y-107198234D01*
X174849033Y-107186920D01*
X174849033Y-107186919D01*
X174852181Y-107179645D01*
X174853420Y-107171822D01*
X174853423Y-107171812D01*
X174859099Y-107135976D01*
X174861505Y-107124356D01*
X174870528Y-107089211D01*
X174870528Y-107089210D01*
X174872500Y-107081530D01*
X174872500Y-107077729D01*
X174900148Y-107014335D01*
X174924502Y-106991990D01*
X175078789Y-106883957D01*
X175078792Y-106883955D01*
X175083300Y-106880798D01*
X175245198Y-106718900D01*
X175376523Y-106531349D01*
X175378846Y-106526367D01*
X175378849Y-106526362D01*
X175470961Y-106328825D01*
X175470961Y-106328824D01*
X175473284Y-106323843D01*
X175497393Y-106233866D01*
X175534345Y-106173245D01*
X175598206Y-106142223D01*
X175668700Y-106150652D01*
G37*
G04 #@! TD.AperFunction*
G04 #@! TA.AperFunction,Conductor*
G36*
X159586819Y-122722014D02*
G01*
X159630696Y-122777829D01*
X159638161Y-122844351D01*
X159633001Y-122876925D01*
X159630595Y-122888544D01*
X159621572Y-122923689D01*
X159619600Y-122931370D01*
X159619600Y-122951624D01*
X159618049Y-122971334D01*
X159614880Y-122991343D01*
X159615626Y-122999235D01*
X159619041Y-123035361D01*
X159619600Y-123047219D01*
X159619600Y-131954000D01*
X159599598Y-132022121D01*
X159545942Y-132068614D01*
X159493600Y-132080000D01*
X159012600Y-132080000D01*
X158944479Y-132059998D01*
X158897986Y-132006342D01*
X158886600Y-131954000D01*
X158886600Y-129867167D01*
X158887127Y-129855984D01*
X158888802Y-129848491D01*
X158886662Y-129780414D01*
X158886600Y-129776455D01*
X158886600Y-129748544D01*
X158886095Y-129744544D01*
X158885162Y-129732701D01*
X158884022Y-129696429D01*
X158883773Y-129688510D01*
X158878122Y-129669058D01*
X158874114Y-129649706D01*
X158872567Y-129637463D01*
X158871574Y-129629603D01*
X158868656Y-129622232D01*
X158855300Y-129588497D01*
X158851455Y-129577270D01*
X158844958Y-129554908D01*
X158839118Y-129534807D01*
X158834337Y-129526722D01*
X158828807Y-129517372D01*
X158820112Y-129499624D01*
X158812652Y-129480783D01*
X158786664Y-129445013D01*
X158780148Y-129435093D01*
X158761680Y-129403865D01*
X158761678Y-129403862D01*
X158757642Y-129397038D01*
X158743321Y-129382717D01*
X158730480Y-129367683D01*
X158723231Y-129357706D01*
X158718572Y-129351293D01*
X158684495Y-129323102D01*
X158675716Y-129315112D01*
X156828805Y-127468200D01*
X156794779Y-127405888D01*
X156791900Y-127379105D01*
X156791900Y-126211000D01*
X156811902Y-126142879D01*
X156865558Y-126096386D01*
X156917900Y-126085000D01*
X156953885Y-126085000D01*
X156969124Y-126080525D01*
X156970329Y-126079135D01*
X156972000Y-126071452D01*
X156972000Y-126066884D01*
X157480000Y-126066884D01*
X157484475Y-126082123D01*
X157485865Y-126083328D01*
X157493548Y-126084999D01*
X157748095Y-126084999D01*
X157754614Y-126084662D01*
X157850206Y-126074743D01*
X157863600Y-126071851D01*
X158017784Y-126020412D01*
X158030962Y-126014239D01*
X158168807Y-125928937D01*
X158180208Y-125919901D01*
X158294739Y-125805171D01*
X158303751Y-125793760D01*
X158388816Y-125655757D01*
X158394963Y-125642576D01*
X158446138Y-125488290D01*
X158449005Y-125474914D01*
X158458672Y-125380562D01*
X158459000Y-125374146D01*
X158459000Y-125261615D01*
X158454525Y-125246376D01*
X158453135Y-125245171D01*
X158445452Y-125243500D01*
X157498115Y-125243500D01*
X157482876Y-125247975D01*
X157481671Y-125249365D01*
X157480000Y-125257048D01*
X157480000Y-126066884D01*
X156972000Y-126066884D01*
X156972000Y-124861500D01*
X156992002Y-124793379D01*
X157045658Y-124746886D01*
X157098000Y-124735500D01*
X158440884Y-124735500D01*
X158456123Y-124731025D01*
X158457328Y-124729635D01*
X158458999Y-124721952D01*
X158458999Y-124604905D01*
X158458662Y-124598386D01*
X158448743Y-124502791D01*
X158445851Y-124489400D01*
X158394412Y-124335216D01*
X158388239Y-124322038D01*
X158302937Y-124184193D01*
X158293901Y-124172792D01*
X158179172Y-124058262D01*
X158170238Y-124051206D01*
X158129177Y-123993288D01*
X158125947Y-123922365D01*
X158161574Y-123860954D01*
X158169407Y-123854154D01*
X158175348Y-123850478D01*
X158300305Y-123725303D01*
X158304146Y-123719072D01*
X158389275Y-123580968D01*
X158389276Y-123580966D01*
X158393115Y-123574738D01*
X158419564Y-123494995D01*
X158446632Y-123413389D01*
X158446632Y-123413387D01*
X158448797Y-123406861D01*
X158459500Y-123302400D01*
X158459500Y-122865473D01*
X158479502Y-122797352D01*
X158533158Y-122750859D01*
X158603432Y-122740755D01*
X158636748Y-122750366D01*
X158721712Y-122788194D01*
X158815113Y-122808047D01*
X158902056Y-122826528D01*
X158902061Y-122826528D01*
X158908513Y-122827900D01*
X159099487Y-122827900D01*
X159105939Y-122826528D01*
X159105944Y-122826528D01*
X159192887Y-122808047D01*
X159286288Y-122788194D01*
X159309569Y-122777829D01*
X159460752Y-122710518D01*
X159461781Y-122712828D01*
X159519732Y-122698781D01*
X159586819Y-122722014D01*
G37*
G04 #@! TD.AperFunction*
G04 #@! TA.AperFunction,Conductor*
G36*
X139363511Y-124508891D02*
G01*
X139377719Y-124524371D01*
X139377860Y-124524244D01*
X139413629Y-124563969D01*
X139505647Y-124666166D01*
X139556105Y-124702826D01*
X139646642Y-124768605D01*
X139660148Y-124778418D01*
X139666176Y-124781102D01*
X139666178Y-124781103D01*
X139815471Y-124847572D01*
X139834612Y-124856094D01*
X139928012Y-124875947D01*
X140014956Y-124894428D01*
X140014961Y-124894428D01*
X140021413Y-124895800D01*
X140093000Y-124895800D01*
X140161121Y-124915802D01*
X140207614Y-124969458D01*
X140219000Y-125021800D01*
X140219000Y-128761533D01*
X140218473Y-128772716D01*
X140216798Y-128780209D01*
X140217047Y-128788135D01*
X140217047Y-128788136D01*
X140218938Y-128848286D01*
X140219000Y-128852245D01*
X140219000Y-128880156D01*
X140219497Y-128884090D01*
X140219497Y-128884091D01*
X140219505Y-128884156D01*
X140220438Y-128895993D01*
X140221827Y-128940189D01*
X140227478Y-128959639D01*
X140231487Y-128979000D01*
X140231936Y-128982550D01*
X140234026Y-128999097D01*
X140236945Y-129006468D01*
X140236945Y-129006470D01*
X140250304Y-129040212D01*
X140254149Y-129051442D01*
X140266482Y-129093893D01*
X140270515Y-129100712D01*
X140270517Y-129100717D01*
X140276793Y-129111328D01*
X140285488Y-129129076D01*
X140292948Y-129147917D01*
X140297610Y-129154333D01*
X140297610Y-129154334D01*
X140318936Y-129183687D01*
X140325452Y-129193607D01*
X140347958Y-129231662D01*
X140362279Y-129245983D01*
X140375119Y-129261016D01*
X140387028Y-129277407D01*
X140393134Y-129282458D01*
X140421105Y-129305598D01*
X140429884Y-129313588D01*
X142981200Y-131864905D01*
X143015226Y-131927217D01*
X143010161Y-131998033D01*
X142967614Y-132054868D01*
X142901094Y-132079679D01*
X142892105Y-132080000D01*
X139012600Y-132080000D01*
X138944479Y-132059998D01*
X138897986Y-132006342D01*
X138886600Y-131954000D01*
X138886600Y-128412968D01*
X138887127Y-128401785D01*
X138888802Y-128394292D01*
X138886662Y-128326201D01*
X138886600Y-128322244D01*
X138886600Y-128294344D01*
X138886096Y-128290353D01*
X138885163Y-128278511D01*
X138884693Y-128263534D01*
X138883774Y-128234311D01*
X138881561Y-128226693D01*
X138878121Y-128214852D01*
X138874112Y-128195493D01*
X138873308Y-128189131D01*
X138871574Y-128175403D01*
X138868658Y-128168037D01*
X138868656Y-128168031D01*
X138855300Y-128134298D01*
X138851455Y-128123068D01*
X138841330Y-128088217D01*
X138841330Y-128088216D01*
X138839119Y-128080607D01*
X138828805Y-128063166D01*
X138820108Y-128045413D01*
X138815572Y-128033958D01*
X138812652Y-128026583D01*
X138786663Y-127990812D01*
X138780147Y-127980892D01*
X138771986Y-127967092D01*
X138757642Y-127942838D01*
X138743321Y-127928517D01*
X138730480Y-127913483D01*
X138723231Y-127903506D01*
X138718572Y-127897093D01*
X138684495Y-127868902D01*
X138675716Y-127860912D01*
X137331105Y-126516300D01*
X137297079Y-126453988D01*
X137294200Y-126427205D01*
X137294200Y-126211000D01*
X137314202Y-126142879D01*
X137367858Y-126096386D01*
X137420200Y-126085000D01*
X137649885Y-126085000D01*
X137665124Y-126080525D01*
X137666329Y-126079135D01*
X137668000Y-126071452D01*
X137668000Y-126066884D01*
X138176000Y-126066884D01*
X138180475Y-126082123D01*
X138181865Y-126083328D01*
X138189548Y-126084999D01*
X138444095Y-126084999D01*
X138450614Y-126084662D01*
X138546206Y-126074743D01*
X138559600Y-126071851D01*
X138713784Y-126020412D01*
X138726962Y-126014239D01*
X138864807Y-125928937D01*
X138876208Y-125919901D01*
X138990739Y-125805171D01*
X138999751Y-125793760D01*
X139084816Y-125655757D01*
X139090963Y-125642576D01*
X139142138Y-125488290D01*
X139145005Y-125474914D01*
X139154672Y-125380562D01*
X139155000Y-125374146D01*
X139155000Y-125261615D01*
X139150525Y-125246376D01*
X139149135Y-125245171D01*
X139141452Y-125243500D01*
X138194115Y-125243500D01*
X138178876Y-125247975D01*
X138177671Y-125249365D01*
X138176000Y-125257048D01*
X138176000Y-126066884D01*
X137668000Y-126066884D01*
X137668000Y-124861500D01*
X137688002Y-124793379D01*
X137741658Y-124746886D01*
X137794000Y-124735500D01*
X139136884Y-124735500D01*
X139152123Y-124731025D01*
X139153328Y-124729635D01*
X139154999Y-124721952D01*
X139154999Y-124604115D01*
X139175001Y-124535994D01*
X139228657Y-124489501D01*
X139298931Y-124479397D01*
X139363511Y-124508891D01*
G37*
G04 #@! TD.AperFunction*
G04 #@! TA.AperFunction,Conductor*
G36*
X139187695Y-123713823D02*
G01*
X139220098Y-123776994D01*
X139221636Y-123813755D01*
X139206804Y-123954876D01*
X139203396Y-123987300D01*
X139213179Y-124080377D01*
X139200407Y-124150213D01*
X139151905Y-124202060D01*
X139083073Y-124219455D01*
X139015763Y-124196874D01*
X138995365Y-124177683D01*
X138995083Y-124177965D01*
X138875172Y-124058262D01*
X138866238Y-124051206D01*
X138825177Y-123993288D01*
X138821947Y-123922365D01*
X138857574Y-123860954D01*
X138865407Y-123854154D01*
X138871348Y-123850478D01*
X138996305Y-123725303D01*
X138998498Y-123721746D01*
X139055361Y-123681430D01*
X139126284Y-123678198D01*
X139187695Y-123713823D01*
G37*
G04 #@! TD.AperFunction*
G04 #@! TA.AperFunction,Conductor*
G36*
X138144058Y-119905820D02*
G01*
X138193538Y-119956734D01*
X138208100Y-120015534D01*
X138208100Y-120458733D01*
X138207573Y-120469916D01*
X138205898Y-120477409D01*
X138206147Y-120485335D01*
X138206147Y-120485336D01*
X138208038Y-120545486D01*
X138208100Y-120549445D01*
X138208100Y-120577356D01*
X138208597Y-120581290D01*
X138208597Y-120581291D01*
X138208605Y-120581356D01*
X138209538Y-120593193D01*
X138210927Y-120637389D01*
X138216578Y-120656839D01*
X138220587Y-120676200D01*
X138223126Y-120696297D01*
X138226045Y-120703668D01*
X138226045Y-120703670D01*
X138239404Y-120737412D01*
X138243249Y-120748642D01*
X138255582Y-120791093D01*
X138259615Y-120797912D01*
X138259617Y-120797917D01*
X138265893Y-120808528D01*
X138274588Y-120826276D01*
X138282048Y-120845117D01*
X138286710Y-120851533D01*
X138286710Y-120851534D01*
X138308036Y-120880887D01*
X138314552Y-120890807D01*
X138332174Y-120920603D01*
X138337058Y-120928862D01*
X138351379Y-120943183D01*
X138364219Y-120958216D01*
X138376128Y-120974607D01*
X138396460Y-120991427D01*
X138410205Y-121002798D01*
X138418984Y-121010788D01*
X139446495Y-122038299D01*
X139480521Y-122100611D01*
X139483400Y-122127394D01*
X139483400Y-123284776D01*
X139463398Y-123352897D01*
X139451042Y-123369079D01*
X139377860Y-123450356D01*
X139375569Y-123454324D01*
X139319939Y-123497218D01*
X139249203Y-123503292D01*
X139186412Y-123470158D01*
X139151503Y-123408337D01*
X139148885Y-123366959D01*
X139152350Y-123333142D01*
X139155500Y-123302400D01*
X139155500Y-122526600D01*
X139153940Y-122511567D01*
X139145238Y-122427692D01*
X139145237Y-122427688D01*
X139144526Y-122420834D01*
X139088550Y-122253054D01*
X138995478Y-122102652D01*
X138870303Y-121977695D01*
X138855414Y-121968517D01*
X138725968Y-121888725D01*
X138725966Y-121888724D01*
X138719738Y-121884885D01*
X138595641Y-121843724D01*
X138558389Y-121831368D01*
X138558387Y-121831368D01*
X138551861Y-121829203D01*
X138545025Y-121828503D01*
X138545022Y-121828502D01*
X138493008Y-121823173D01*
X138447400Y-121818500D01*
X137958700Y-121818500D01*
X137890579Y-121798498D01*
X137844086Y-121744842D01*
X137832700Y-121692500D01*
X137832700Y-120105039D01*
X137852702Y-120036918D01*
X137886931Y-120004278D01*
X137885652Y-120002518D01*
X137937746Y-119964669D01*
X138008040Y-119913598D01*
X138074906Y-119889740D01*
X138144058Y-119905820D01*
G37*
G04 #@! TD.AperFunction*
G04 #@! TA.AperFunction,Conductor*
G36*
X161315483Y-120413067D02*
G01*
X161370701Y-120457693D01*
X161393100Y-120529407D01*
X161393100Y-120923306D01*
X161373098Y-120991427D01*
X161356195Y-121012401D01*
X160094550Y-122274045D01*
X160032238Y-122308071D01*
X159961422Y-122303006D01*
X159904587Y-122260459D01*
X159879776Y-122193939D01*
X159885622Y-122146014D01*
X159889833Y-122133055D01*
X159897542Y-122109328D01*
X159898788Y-122097479D01*
X159910781Y-121983368D01*
X159914907Y-121944106D01*
X159941920Y-121878450D01*
X159951122Y-121868182D01*
X160905947Y-120913357D01*
X160914237Y-120905813D01*
X160920718Y-120901700D01*
X160967359Y-120852032D01*
X160970113Y-120849191D01*
X160989834Y-120829470D01*
X160992312Y-120826275D01*
X161000018Y-120817253D01*
X161024858Y-120790801D01*
X161030286Y-120785021D01*
X161040046Y-120767268D01*
X161050899Y-120750745D01*
X161058453Y-120741006D01*
X161063313Y-120734741D01*
X161080876Y-120694157D01*
X161086083Y-120683527D01*
X161107395Y-120644760D01*
X161109366Y-120637083D01*
X161109368Y-120637078D01*
X161112432Y-120625142D01*
X161118838Y-120606430D01*
X161123733Y-120595119D01*
X161126881Y-120587845D01*
X161128121Y-120580017D01*
X161128123Y-120580010D01*
X161133799Y-120544176D01*
X161136205Y-120532556D01*
X161145058Y-120498074D01*
X161181372Y-120437067D01*
X161244904Y-120405377D01*
X161315483Y-120413067D01*
G37*
G04 #@! TD.AperFunction*
G04 #@! TA.AperFunction,Conductor*
G36*
X150708470Y-120664494D02*
G01*
X150800125Y-120677620D01*
X150809014Y-120678893D01*
X150817903Y-120677620D01*
X150826876Y-120677620D01*
X150826876Y-120680629D01*
X150882204Y-120688608D01*
X150935840Y-120735123D01*
X150955123Y-120790029D01*
X150959758Y-120834128D01*
X150961798Y-120840405D01*
X150961798Y-120840407D01*
X151009970Y-120988664D01*
X151011998Y-121059631D01*
X150975335Y-121120429D01*
X150911623Y-121151755D01*
X150890137Y-121153600D01*
X150847495Y-121153600D01*
X150779374Y-121133598D01*
X150758400Y-121116695D01*
X150657815Y-121016110D01*
X150644976Y-121001079D01*
X150636860Y-120989909D01*
X150630347Y-120979992D01*
X150630150Y-120979658D01*
X150607842Y-120941938D01*
X150602238Y-120936334D01*
X150600789Y-120934466D01*
X150575623Y-120875106D01*
X150571328Y-120845117D01*
X150565881Y-120807083D01*
X150576023Y-120736816D01*
X150622545Y-120683186D01*
X150690677Y-120663221D01*
X150708470Y-120664494D01*
G37*
G04 #@! TD.AperFunction*
G04 #@! TA.AperFunction,Conductor*
G36*
X143087912Y-120272772D02*
G01*
X143094495Y-120278901D01*
X143164495Y-120348901D01*
X143198521Y-120411213D01*
X143201400Y-120437996D01*
X143201400Y-120530576D01*
X143181398Y-120598697D01*
X143169037Y-120614885D01*
X143102657Y-120688608D01*
X143099036Y-120692629D01*
X143038590Y-120729869D01*
X142967607Y-120728517D01*
X142908622Y-120689004D01*
X142880364Y-120623873D01*
X142879400Y-120608319D01*
X142879400Y-120367996D01*
X142899402Y-120299875D01*
X142953058Y-120253382D01*
X143023332Y-120243278D01*
X143087912Y-120272772D01*
G37*
G04 #@! TD.AperFunction*
G04 #@! TA.AperFunction,Conductor*
G36*
X161994121Y-113325502D02*
G01*
X162040614Y-113379158D01*
X162052000Y-113431500D01*
X162052000Y-114636884D01*
X162056475Y-114652123D01*
X162057865Y-114653328D01*
X162065548Y-114654999D01*
X162091400Y-114654999D01*
X162159521Y-114675001D01*
X162206014Y-114728657D01*
X162217400Y-114780999D01*
X162217400Y-116275606D01*
X162197398Y-116343727D01*
X162180495Y-116364701D01*
X162164501Y-116380695D01*
X162102189Y-116414721D01*
X162075406Y-116417600D01*
X162019513Y-116417600D01*
X162013061Y-116418972D01*
X162013056Y-116418972D01*
X161926113Y-116437453D01*
X161832712Y-116457306D01*
X161826682Y-116459991D01*
X161826681Y-116459991D01*
X161664278Y-116532297D01*
X161664276Y-116532298D01*
X161658248Y-116534982D01*
X161652907Y-116538862D01*
X161652906Y-116538863D01*
X161623471Y-116560249D01*
X161503747Y-116647234D01*
X161375960Y-116789156D01*
X161374218Y-116792173D01*
X161318913Y-116834819D01*
X161248177Y-116840894D01*
X161185385Y-116807762D01*
X161150474Y-116745942D01*
X161147200Y-116717404D01*
X161147200Y-114781000D01*
X161167202Y-114712879D01*
X161220858Y-114666386D01*
X161273200Y-114655000D01*
X161525885Y-114655000D01*
X161541124Y-114650525D01*
X161542329Y-114649135D01*
X161544000Y-114641452D01*
X161544000Y-113431500D01*
X161564002Y-113363379D01*
X161617658Y-113316886D01*
X161670000Y-113305500D01*
X161926000Y-113305500D01*
X161994121Y-113325502D01*
G37*
G04 #@! TD.AperFunction*
G04 #@! TA.AperFunction,Conductor*
G36*
X146335258Y-109340179D02*
G01*
X146340737Y-109342588D01*
X146344335Y-109343883D01*
X146351404Y-109347485D01*
X146359449Y-109349283D01*
X146381994Y-109356609D01*
X146389555Y-109359881D01*
X146425031Y-109365500D01*
X146445026Y-109368667D01*
X146452801Y-109370151D01*
X146474844Y-109375078D01*
X146507609Y-109382402D01*
X146515532Y-109382153D01*
X146515533Y-109382153D01*
X146515594Y-109382151D01*
X146515844Y-109382143D01*
X146539515Y-109383633D01*
X146539811Y-109383680D01*
X146539814Y-109383680D01*
X146547643Y-109384920D01*
X146555535Y-109384174D01*
X146555536Y-109384174D01*
X146603558Y-109379635D01*
X146611455Y-109379138D01*
X146651954Y-109377865D01*
X146667589Y-109377373D01*
X146675496Y-109375076D01*
X146698787Y-109370633D01*
X146706993Y-109369857D01*
X146713564Y-109367491D01*
X146783991Y-109372126D01*
X146814690Y-109388494D01*
X146926348Y-109469618D01*
X146932376Y-109472302D01*
X146932378Y-109472303D01*
X147091318Y-109543067D01*
X147100812Y-109547294D01*
X147194213Y-109567147D01*
X147281156Y-109585628D01*
X147281161Y-109585628D01*
X147287613Y-109587000D01*
X147478587Y-109587000D01*
X147485039Y-109585628D01*
X147485044Y-109585628D01*
X147571987Y-109567147D01*
X147665388Y-109547294D01*
X147674882Y-109543067D01*
X147677065Y-109542774D01*
X147677700Y-109542568D01*
X147677738Y-109542684D01*
X147745249Y-109533633D01*
X147809546Y-109563739D01*
X147847360Y-109623828D01*
X147846684Y-109694822D01*
X147815226Y-109747269D01*
X147342384Y-110220111D01*
X147280072Y-110254137D01*
X147209257Y-110249072D01*
X147202049Y-110246127D01*
X147168088Y-110231006D01*
X147074688Y-110211153D01*
X146987744Y-110192672D01*
X146987739Y-110192672D01*
X146981287Y-110191300D01*
X146790313Y-110191300D01*
X146783861Y-110192672D01*
X146783856Y-110192672D01*
X146696912Y-110211153D01*
X146603512Y-110231006D01*
X146597485Y-110233689D01*
X146597477Y-110233692D01*
X146445597Y-110301313D01*
X146375230Y-110310747D01*
X146310933Y-110280640D01*
X146294624Y-110262700D01*
X146293040Y-110259956D01*
X146165253Y-110118034D01*
X146010752Y-110005782D01*
X146004726Y-110003099D01*
X146004719Y-110003095D01*
X145864728Y-109940768D01*
X145810632Y-109894788D01*
X145789982Y-109826861D01*
X145809334Y-109758553D01*
X145817779Y-109746709D01*
X145832011Y-109729008D01*
X145834020Y-109730623D01*
X145854548Y-109710181D01*
X145853206Y-109708512D01*
X145899290Y-109671459D01*
X145901952Y-109669319D01*
X146202131Y-109369140D01*
X146264443Y-109335114D01*
X146335258Y-109340179D01*
G37*
G04 #@! TD.AperFunction*
G04 #@! TA.AperFunction,Conductor*
G36*
X157131833Y-99290739D02*
G01*
X157188668Y-99333286D01*
X157213479Y-99399806D01*
X157213800Y-99408795D01*
X157213800Y-103737133D01*
X157213273Y-103748316D01*
X157211598Y-103755809D01*
X157211847Y-103763735D01*
X157211847Y-103763736D01*
X157213738Y-103823886D01*
X157213800Y-103827845D01*
X157213800Y-103855756D01*
X157214297Y-103859690D01*
X157214297Y-103859691D01*
X157214305Y-103859756D01*
X157215238Y-103871593D01*
X157216627Y-103915789D01*
X157222278Y-103935239D01*
X157226287Y-103954600D01*
X157228826Y-103974697D01*
X157231745Y-103982068D01*
X157231745Y-103982070D01*
X157245104Y-104015812D01*
X157248949Y-104027042D01*
X157261282Y-104069493D01*
X157265315Y-104076312D01*
X157265317Y-104076317D01*
X157271593Y-104086928D01*
X157280288Y-104104676D01*
X157287748Y-104123517D01*
X157292410Y-104129933D01*
X157292410Y-104129934D01*
X157313736Y-104159287D01*
X157320252Y-104169207D01*
X157325985Y-104178900D01*
X157342758Y-104207262D01*
X157357079Y-104221583D01*
X157369919Y-104236616D01*
X157381828Y-104253007D01*
X157415905Y-104281198D01*
X157424684Y-104289188D01*
X157990787Y-104855291D01*
X158024813Y-104917603D01*
X158019748Y-104988418D01*
X157998214Y-105025377D01*
X157990031Y-105035129D01*
X157865069Y-105213593D01*
X157859586Y-105223089D01*
X157767510Y-105420547D01*
X157763764Y-105430839D01*
X157717606Y-105603103D01*
X157717942Y-105617199D01*
X157725884Y-105620600D01*
X159127000Y-105620600D01*
X159195121Y-105640602D01*
X159241614Y-105694258D01*
X159253000Y-105746600D01*
X159253000Y-107142567D01*
X159256973Y-107156098D01*
X159265522Y-107157327D01*
X159442761Y-107109836D01*
X159453053Y-107106090D01*
X159650511Y-107014014D01*
X159660007Y-107008531D01*
X159838467Y-106883572D01*
X159846875Y-106876516D01*
X160000916Y-106722475D01*
X160007972Y-106714067D01*
X160132931Y-106535607D01*
X160138417Y-106526106D01*
X160153221Y-106494358D01*
X160200138Y-106441073D01*
X160268415Y-106421613D01*
X160336375Y-106442155D01*
X160356510Y-106458514D01*
X163091895Y-109193899D01*
X163125921Y-109256211D01*
X163128800Y-109282994D01*
X163128800Y-109717305D01*
X163108798Y-109785426D01*
X163055142Y-109831919D01*
X162984868Y-109842023D01*
X162920288Y-109812529D01*
X162913705Y-109806400D01*
X162418322Y-109311017D01*
X162384296Y-109248705D01*
X162382107Y-109235092D01*
X162380051Y-109215525D01*
X162369554Y-109115654D01*
X162365432Y-109076435D01*
X162365432Y-109076433D01*
X162364742Y-109069872D01*
X162305727Y-108888244D01*
X162290952Y-108862652D01*
X162251504Y-108794328D01*
X162210240Y-108722856D01*
X162194082Y-108704910D01*
X162086875Y-108585845D01*
X162086874Y-108585844D01*
X162082453Y-108580934D01*
X161927952Y-108468682D01*
X161921924Y-108465998D01*
X161921922Y-108465997D01*
X161759519Y-108393691D01*
X161759518Y-108393691D01*
X161753488Y-108391006D01*
X161660088Y-108371153D01*
X161573144Y-108352672D01*
X161573139Y-108352672D01*
X161566687Y-108351300D01*
X161375713Y-108351300D01*
X161369261Y-108352672D01*
X161369256Y-108352672D01*
X161282313Y-108371153D01*
X161188912Y-108391006D01*
X161182882Y-108393691D01*
X161182881Y-108393691D01*
X161020478Y-108465997D01*
X161020476Y-108465998D01*
X161014448Y-108468682D01*
X161009107Y-108472562D01*
X161009106Y-108472563D01*
X160915480Y-108540587D01*
X160859947Y-108580934D01*
X160855532Y-108585837D01*
X160850620Y-108590260D01*
X160849495Y-108589011D01*
X160796186Y-108621851D01*
X160763000Y-108626300D01*
X154934267Y-108626300D01*
X154923084Y-108625773D01*
X154915591Y-108624098D01*
X154907665Y-108624347D01*
X154907664Y-108624347D01*
X154847514Y-108626238D01*
X154843555Y-108626300D01*
X154815644Y-108626300D01*
X154811710Y-108626797D01*
X154811709Y-108626797D01*
X154811644Y-108626805D01*
X154799807Y-108627738D01*
X154767549Y-108628752D01*
X154763530Y-108628878D01*
X154755611Y-108629127D01*
X154736157Y-108634779D01*
X154716800Y-108638787D01*
X154704570Y-108640332D01*
X154704569Y-108640332D01*
X154696703Y-108641326D01*
X154689332Y-108644245D01*
X154689330Y-108644245D01*
X154655588Y-108657604D01*
X154644358Y-108661449D01*
X154609517Y-108671571D01*
X154609516Y-108671571D01*
X154601907Y-108673782D01*
X154595088Y-108677815D01*
X154595083Y-108677817D01*
X154584472Y-108684093D01*
X154566724Y-108692788D01*
X154547883Y-108700248D01*
X154541467Y-108704910D01*
X154541466Y-108704910D01*
X154512113Y-108726236D01*
X154502193Y-108732752D01*
X154470965Y-108751220D01*
X154470962Y-108751222D01*
X154464138Y-108755258D01*
X154449817Y-108769579D01*
X154434784Y-108782419D01*
X154418393Y-108794328D01*
X154413342Y-108800434D01*
X154390202Y-108828405D01*
X154382212Y-108837184D01*
X153780295Y-109439101D01*
X153717983Y-109473127D01*
X153647168Y-109468062D01*
X153590332Y-109425515D01*
X153565521Y-109358995D01*
X153565200Y-109350006D01*
X153565200Y-108419867D01*
X153565727Y-108408684D01*
X153567402Y-108401191D01*
X153565973Y-108355715D01*
X153565262Y-108333114D01*
X153565200Y-108329155D01*
X153565200Y-108301244D01*
X153564695Y-108297244D01*
X153563762Y-108285401D01*
X153563262Y-108269475D01*
X153562373Y-108241210D01*
X153556722Y-108221758D01*
X153552714Y-108202406D01*
X153551167Y-108190163D01*
X153550174Y-108182303D01*
X153547256Y-108174932D01*
X153533900Y-108141197D01*
X153530055Y-108129970D01*
X153529421Y-108127787D01*
X153517718Y-108087507D01*
X153507407Y-108070072D01*
X153498712Y-108052324D01*
X153491252Y-108033483D01*
X153465264Y-107997713D01*
X153458747Y-107987792D01*
X153451946Y-107976292D01*
X153434400Y-107912153D01*
X153434400Y-107841200D01*
X153454402Y-107773079D01*
X153508058Y-107726586D01*
X153560400Y-107715200D01*
X153632487Y-107715200D01*
X153638939Y-107713828D01*
X153638944Y-107713828D01*
X153725887Y-107695347D01*
X153819288Y-107675494D01*
X153825319Y-107672809D01*
X153987722Y-107600503D01*
X153987724Y-107600502D01*
X153993752Y-107597818D01*
X154148253Y-107485566D01*
X154187115Y-107442405D01*
X154271621Y-107348552D01*
X154271622Y-107348551D01*
X154276040Y-107343644D01*
X154371527Y-107178256D01*
X154430542Y-106996628D01*
X154442829Y-106879729D01*
X154449814Y-106813265D01*
X154450504Y-106806700D01*
X154447156Y-106774844D01*
X154431232Y-106623335D01*
X154431232Y-106623333D01*
X154430542Y-106616772D01*
X154371527Y-106435144D01*
X154276040Y-106269756D01*
X154202863Y-106188485D01*
X154180134Y-106141122D01*
X157716273Y-106141122D01*
X157763764Y-106318361D01*
X157767510Y-106328653D01*
X157859586Y-106526111D01*
X157865069Y-106535607D01*
X157990028Y-106714067D01*
X157997084Y-106722475D01*
X158151125Y-106876516D01*
X158159533Y-106883572D01*
X158337993Y-107008531D01*
X158347489Y-107014014D01*
X158544947Y-107106090D01*
X158555239Y-107109836D01*
X158727503Y-107155994D01*
X158741599Y-107155658D01*
X158745000Y-107147716D01*
X158745000Y-106146715D01*
X158740525Y-106131476D01*
X158739135Y-106130271D01*
X158731452Y-106128600D01*
X157731033Y-106128600D01*
X157717502Y-106132573D01*
X157716273Y-106141122D01*
X154180134Y-106141122D01*
X154172147Y-106124479D01*
X154170500Y-106104176D01*
X154170500Y-101130021D01*
X154190502Y-101061900D01*
X154244158Y-101015407D01*
X154314432Y-101005303D01*
X154379012Y-101034797D01*
X154390136Y-101045711D01*
X154397834Y-101054260D01*
X154415847Y-101074266D01*
X154570348Y-101186518D01*
X154576376Y-101189202D01*
X154576378Y-101189203D01*
X154710292Y-101248825D01*
X154744812Y-101264194D01*
X154838213Y-101284047D01*
X154925156Y-101302528D01*
X154925161Y-101302528D01*
X154931613Y-101303900D01*
X155122587Y-101303900D01*
X155129039Y-101302528D01*
X155129044Y-101302528D01*
X155215987Y-101284047D01*
X155309388Y-101264194D01*
X155343908Y-101248825D01*
X155477822Y-101189203D01*
X155477824Y-101189202D01*
X155483852Y-101186518D01*
X155638353Y-101074266D01*
X155649197Y-101062223D01*
X155761721Y-100937252D01*
X155761722Y-100937251D01*
X155766140Y-100932344D01*
X155861627Y-100766956D01*
X155920642Y-100585328D01*
X155938007Y-100420106D01*
X155965020Y-100354450D01*
X155974222Y-100344182D01*
X156998705Y-99319700D01*
X157061017Y-99285674D01*
X157131833Y-99290739D01*
G37*
G04 #@! TD.AperFunction*
M02*
