G04 #@! TF.GenerationSoftware,KiCad,Pcbnew,9.0.1*
G04 #@! TF.CreationDate,2025-07-08T00:04:11+02:00*
G04 #@! TF.ProjectId,burstcart-via,62757273-7463-4617-9274-2d7669612e6b,1.1b*
G04 #@! TF.SameCoordinates,Original*
G04 #@! TF.FileFunction,Legend,Top*
G04 #@! TF.FilePolarity,Positive*
%FSLAX46Y46*%
G04 Gerber Fmt 4.6, Leading zero omitted, Abs format (unit mm)*
G04 Created by KiCad (PCBNEW 9.0.1) date 2025-07-08 00:04:11*
%MOMM*%
%LPD*%
G01*
G04 APERTURE LIST*
G04 Aperture macros list*
%AMRoundRect*
0 Rectangle with rounded corners*
0 $1 Rounding radius*
0 $2 $3 $4 $5 $6 $7 $8 $9 X,Y pos of 4 corners*
0 Add a 4 corners polygon primitive as box body*
4,1,4,$2,$3,$4,$5,$6,$7,$8,$9,$2,$3,0*
0 Add four circle primitives for the rounded corners*
1,1,$1+$1,$2,$3*
1,1,$1+$1,$4,$5*
1,1,$1+$1,$6,$7*
1,1,$1+$1,$8,$9*
0 Add four rect primitives between the rounded corners*
20,1,$1+$1,$2,$3,$4,$5,0*
20,1,$1+$1,$4,$5,$6,$7,0*
20,1,$1+$1,$6,$7,$8,$9,0*
20,1,$1+$1,$8,$9,$2,$3,0*%
G04 Aperture macros list end*
%ADD10C,0.175000*%
%ADD11C,0.200000*%
%ADD12C,0.125000*%
%ADD13C,0.150000*%
%ADD14C,0.120000*%
%ADD15C,0.127000*%
%ADD16R,1.600000X1.600000*%
%ADD17C,1.600000*%
%ADD18R,1.700000X1.700000*%
%ADD19C,1.700000*%
%ADD20RoundRect,0.250000X-0.550000X-0.550000X0.550000X-0.550000X0.550000X0.550000X-0.550000X0.550000X0*%
%ADD21RoundRect,0.250000X0.550000X0.550000X-0.550000X0.550000X-0.550000X-0.550000X0.550000X-0.550000X0*%
%ADD22RoundRect,0.250000X0.550000X-0.550000X0.550000X0.550000X-0.550000X0.550000X-0.550000X-0.550000X0*%
%ADD23O,1.600000X1.600000*%
%ADD24C,2.100000*%
%ADD25C,2.500000*%
%ADD26C,5.000000*%
%ADD27RoundRect,0.125200X-0.375600X-4.550600X0.375600X-4.550600X0.375600X4.550600X-0.375600X4.550600X0*%
G04 APERTURE END LIST*
D10*
X173325933Y-78548869D02*
X173359266Y-78482202D01*
X173359266Y-78482202D02*
X173359266Y-78382202D01*
X173359266Y-78382202D02*
X173325933Y-78282202D01*
X173325933Y-78282202D02*
X173259266Y-78215536D01*
X173259266Y-78215536D02*
X173192600Y-78182202D01*
X173192600Y-78182202D02*
X173059266Y-78148869D01*
X173059266Y-78148869D02*
X172959266Y-78148869D01*
X172959266Y-78148869D02*
X172825933Y-78182202D01*
X172825933Y-78182202D02*
X172759266Y-78215536D01*
X172759266Y-78215536D02*
X172692600Y-78282202D01*
X172692600Y-78282202D02*
X172659266Y-78382202D01*
X172659266Y-78382202D02*
X172659266Y-78448869D01*
X172659266Y-78448869D02*
X172692600Y-78548869D01*
X172692600Y-78548869D02*
X172725933Y-78582202D01*
X172725933Y-78582202D02*
X172959266Y-78582202D01*
X172959266Y-78582202D02*
X172959266Y-78448869D01*
X172659266Y-78882202D02*
X173359266Y-78882202D01*
X173359266Y-78882202D02*
X172659266Y-79282202D01*
X172659266Y-79282202D02*
X173359266Y-79282202D01*
X172659266Y-79615535D02*
X173359266Y-79615535D01*
X173359266Y-79615535D02*
X173359266Y-79782202D01*
X173359266Y-79782202D02*
X173325933Y-79882202D01*
X173325933Y-79882202D02*
X173259266Y-79948869D01*
X173259266Y-79948869D02*
X173192600Y-79982202D01*
X173192600Y-79982202D02*
X173059266Y-80015535D01*
X173059266Y-80015535D02*
X172959266Y-80015535D01*
X172959266Y-80015535D02*
X172825933Y-79982202D01*
X172825933Y-79982202D02*
X172759266Y-79948869D01*
X172759266Y-79948869D02*
X172692600Y-79882202D01*
X172692600Y-79882202D02*
X172659266Y-79782202D01*
X172659266Y-79782202D02*
X172659266Y-79615535D01*
X163019933Y-86133797D02*
X163019933Y-86667131D01*
X162753266Y-86400464D02*
X163286600Y-86400464D01*
X163453266Y-87333798D02*
X163453266Y-87000464D01*
X163453266Y-87000464D02*
X163119933Y-86967131D01*
X163119933Y-86967131D02*
X163153266Y-87000464D01*
X163153266Y-87000464D02*
X163186600Y-87067131D01*
X163186600Y-87067131D02*
X163186600Y-87233798D01*
X163186600Y-87233798D02*
X163153266Y-87300464D01*
X163153266Y-87300464D02*
X163119933Y-87333798D01*
X163119933Y-87333798D02*
X163053266Y-87367131D01*
X163053266Y-87367131D02*
X162886600Y-87367131D01*
X162886600Y-87367131D02*
X162819933Y-87333798D01*
X162819933Y-87333798D02*
X162786600Y-87300464D01*
X162786600Y-87300464D02*
X162753266Y-87233798D01*
X162753266Y-87233798D02*
X162753266Y-87067131D01*
X162753266Y-87067131D02*
X162786600Y-87000464D01*
X162786600Y-87000464D02*
X162819933Y-86967131D01*
X163453266Y-87567131D02*
X162753266Y-87800465D01*
X162753266Y-87800465D02*
X163453266Y-88033798D01*
X167833266Y-86133797D02*
X168533266Y-86133797D01*
X168533266Y-86133797D02*
X168533266Y-86400464D01*
X168533266Y-86400464D02*
X168499933Y-86467131D01*
X168499933Y-86467131D02*
X168466600Y-86500464D01*
X168466600Y-86500464D02*
X168399933Y-86533797D01*
X168399933Y-86533797D02*
X168299933Y-86533797D01*
X168299933Y-86533797D02*
X168233266Y-86500464D01*
X168233266Y-86500464D02*
X168199933Y-86467131D01*
X168199933Y-86467131D02*
X168166600Y-86400464D01*
X168166600Y-86400464D02*
X168166600Y-86133797D01*
X168199933Y-87067131D02*
X168166600Y-87167131D01*
X168166600Y-87167131D02*
X168133266Y-87200464D01*
X168133266Y-87200464D02*
X168066600Y-87233797D01*
X168066600Y-87233797D02*
X167966600Y-87233797D01*
X167966600Y-87233797D02*
X167899933Y-87200464D01*
X167899933Y-87200464D02*
X167866600Y-87167131D01*
X167866600Y-87167131D02*
X167833266Y-87100464D01*
X167833266Y-87100464D02*
X167833266Y-86833797D01*
X167833266Y-86833797D02*
X168533266Y-86833797D01*
X168533266Y-86833797D02*
X168533266Y-87067131D01*
X168533266Y-87067131D02*
X168499933Y-87133797D01*
X168499933Y-87133797D02*
X168466600Y-87167131D01*
X168466600Y-87167131D02*
X168399933Y-87200464D01*
X168399933Y-87200464D02*
X168333266Y-87200464D01*
X168333266Y-87200464D02*
X168266600Y-87167131D01*
X168266600Y-87167131D02*
X168233266Y-87133797D01*
X168233266Y-87133797D02*
X168199933Y-87067131D01*
X168199933Y-87067131D02*
X168199933Y-86833797D01*
X168299933Y-87833797D02*
X167833266Y-87833797D01*
X168566600Y-87667131D02*
X168066600Y-87500464D01*
X168066600Y-87500464D02*
X168066600Y-87933797D01*
X143626868Y-66100733D02*
X143626868Y-65400733D01*
X143626868Y-65400733D02*
X143893535Y-65400733D01*
X143893535Y-65400733D02*
X143960202Y-65434066D01*
X143960202Y-65434066D02*
X143993535Y-65467400D01*
X143993535Y-65467400D02*
X144026868Y-65534066D01*
X144026868Y-65534066D02*
X144026868Y-65634066D01*
X144026868Y-65634066D02*
X143993535Y-65700733D01*
X143993535Y-65700733D02*
X143960202Y-65734066D01*
X143960202Y-65734066D02*
X143893535Y-65767400D01*
X143893535Y-65767400D02*
X143626868Y-65767400D01*
X144293535Y-65900733D02*
X144626868Y-65900733D01*
X144226868Y-66100733D02*
X144460202Y-65400733D01*
X144460202Y-65400733D02*
X144693535Y-66100733D01*
X144860202Y-65400733D02*
X145326868Y-65400733D01*
X145326868Y-65400733D02*
X145026868Y-66100733D01*
X151411797Y-61020733D02*
X151411797Y-60320733D01*
X151411797Y-60320733D02*
X151678464Y-60320733D01*
X151678464Y-60320733D02*
X151745131Y-60354066D01*
X151745131Y-60354066D02*
X151778464Y-60387400D01*
X151778464Y-60387400D02*
X151811797Y-60454066D01*
X151811797Y-60454066D02*
X151811797Y-60554066D01*
X151811797Y-60554066D02*
X151778464Y-60620733D01*
X151778464Y-60620733D02*
X151745131Y-60654066D01*
X151745131Y-60654066D02*
X151678464Y-60687400D01*
X151678464Y-60687400D02*
X151411797Y-60687400D01*
X152078464Y-60820733D02*
X152411797Y-60820733D01*
X152011797Y-61020733D02*
X152245131Y-60320733D01*
X152245131Y-60320733D02*
X152478464Y-61020733D01*
X153011797Y-60554066D02*
X153011797Y-61020733D01*
X152845131Y-60287400D02*
X152678464Y-60787400D01*
X152678464Y-60787400D02*
X153111797Y-60787400D01*
X143626868Y-58480733D02*
X143626868Y-57780733D01*
X143626868Y-57780733D02*
X143893535Y-57780733D01*
X143893535Y-57780733D02*
X143960202Y-57814066D01*
X143960202Y-57814066D02*
X143993535Y-57847400D01*
X143993535Y-57847400D02*
X144026868Y-57914066D01*
X144026868Y-57914066D02*
X144026868Y-58014066D01*
X144026868Y-58014066D02*
X143993535Y-58080733D01*
X143993535Y-58080733D02*
X143960202Y-58114066D01*
X143960202Y-58114066D02*
X143893535Y-58147400D01*
X143893535Y-58147400D02*
X143626868Y-58147400D01*
X144293535Y-58280733D02*
X144626868Y-58280733D01*
X144226868Y-58480733D02*
X144460202Y-57780733D01*
X144460202Y-57780733D02*
X144693535Y-58480733D01*
X145293535Y-58480733D02*
X144893535Y-58480733D01*
X145093535Y-58480733D02*
X145093535Y-57780733D01*
X145093535Y-57780733D02*
X145026868Y-57880733D01*
X145026868Y-57880733D02*
X144960202Y-57947400D01*
X144960202Y-57947400D02*
X144893535Y-57980733D01*
X165293266Y-78248868D02*
X165993266Y-78248868D01*
X165993266Y-78248868D02*
X165993266Y-78515535D01*
X165993266Y-78515535D02*
X165959933Y-78582202D01*
X165959933Y-78582202D02*
X165926600Y-78615535D01*
X165926600Y-78615535D02*
X165859933Y-78648868D01*
X165859933Y-78648868D02*
X165759933Y-78648868D01*
X165759933Y-78648868D02*
X165693266Y-78615535D01*
X165693266Y-78615535D02*
X165659933Y-78582202D01*
X165659933Y-78582202D02*
X165626600Y-78515535D01*
X165626600Y-78515535D02*
X165626600Y-78248868D01*
X165659933Y-79182202D02*
X165626600Y-79282202D01*
X165626600Y-79282202D02*
X165593266Y-79315535D01*
X165593266Y-79315535D02*
X165526600Y-79348868D01*
X165526600Y-79348868D02*
X165426600Y-79348868D01*
X165426600Y-79348868D02*
X165359933Y-79315535D01*
X165359933Y-79315535D02*
X165326600Y-79282202D01*
X165326600Y-79282202D02*
X165293266Y-79215535D01*
X165293266Y-79215535D02*
X165293266Y-78948868D01*
X165293266Y-78948868D02*
X165993266Y-78948868D01*
X165993266Y-78948868D02*
X165993266Y-79182202D01*
X165993266Y-79182202D02*
X165959933Y-79248868D01*
X165959933Y-79248868D02*
X165926600Y-79282202D01*
X165926600Y-79282202D02*
X165859933Y-79315535D01*
X165859933Y-79315535D02*
X165793266Y-79315535D01*
X165793266Y-79315535D02*
X165726600Y-79282202D01*
X165726600Y-79282202D02*
X165693266Y-79248868D01*
X165693266Y-79248868D02*
X165659933Y-79182202D01*
X165659933Y-79182202D02*
X165659933Y-78948868D01*
X165993266Y-79982202D02*
X165993266Y-79648868D01*
X165993266Y-79648868D02*
X165659933Y-79615535D01*
X165659933Y-79615535D02*
X165693266Y-79648868D01*
X165693266Y-79648868D02*
X165726600Y-79715535D01*
X165726600Y-79715535D02*
X165726600Y-79882202D01*
X165726600Y-79882202D02*
X165693266Y-79948868D01*
X165693266Y-79948868D02*
X165659933Y-79982202D01*
X165659933Y-79982202D02*
X165593266Y-80015535D01*
X165593266Y-80015535D02*
X165426600Y-80015535D01*
X165426600Y-80015535D02*
X165359933Y-79982202D01*
X165359933Y-79982202D02*
X165326600Y-79948868D01*
X165326600Y-79948868D02*
X165293266Y-79882202D01*
X165293266Y-79882202D02*
X165293266Y-79715535D01*
X165293266Y-79715535D02*
X165326600Y-79648868D01*
X165326600Y-79648868D02*
X165359933Y-79615535D01*
X151411797Y-55940733D02*
X151411797Y-55240733D01*
X151411797Y-55240733D02*
X151678464Y-55240733D01*
X151678464Y-55240733D02*
X151745131Y-55274066D01*
X151745131Y-55274066D02*
X151778464Y-55307400D01*
X151778464Y-55307400D02*
X151811797Y-55374066D01*
X151811797Y-55374066D02*
X151811797Y-55474066D01*
X151811797Y-55474066D02*
X151778464Y-55540733D01*
X151778464Y-55540733D02*
X151745131Y-55574066D01*
X151745131Y-55574066D02*
X151678464Y-55607400D01*
X151678464Y-55607400D02*
X151411797Y-55607400D01*
X152078464Y-55740733D02*
X152411797Y-55740733D01*
X152011797Y-55940733D02*
X152245131Y-55240733D01*
X152245131Y-55240733D02*
X152478464Y-55940733D01*
X152845131Y-55240733D02*
X152911797Y-55240733D01*
X152911797Y-55240733D02*
X152978464Y-55274066D01*
X152978464Y-55274066D02*
X153011797Y-55307400D01*
X153011797Y-55307400D02*
X153045131Y-55374066D01*
X153045131Y-55374066D02*
X153078464Y-55507400D01*
X153078464Y-55507400D02*
X153078464Y-55674066D01*
X153078464Y-55674066D02*
X153045131Y-55807400D01*
X153045131Y-55807400D02*
X153011797Y-55874066D01*
X153011797Y-55874066D02*
X152978464Y-55907400D01*
X152978464Y-55907400D02*
X152911797Y-55940733D01*
X152911797Y-55940733D02*
X152845131Y-55940733D01*
X152845131Y-55940733D02*
X152778464Y-55907400D01*
X152778464Y-55907400D02*
X152745131Y-55874066D01*
X152745131Y-55874066D02*
X152711797Y-55807400D01*
X152711797Y-55807400D02*
X152678464Y-55674066D01*
X152678464Y-55674066D02*
X152678464Y-55507400D01*
X152678464Y-55507400D02*
X152711797Y-55374066D01*
X152711797Y-55374066D02*
X152745131Y-55307400D01*
X152745131Y-55307400D02*
X152778464Y-55274066D01*
X152778464Y-55274066D02*
X152845131Y-55240733D01*
X172913266Y-86133797D02*
X173613266Y-86133797D01*
X173613266Y-86133797D02*
X173613266Y-86400464D01*
X173613266Y-86400464D02*
X173579933Y-86467131D01*
X173579933Y-86467131D02*
X173546600Y-86500464D01*
X173546600Y-86500464D02*
X173479933Y-86533797D01*
X173479933Y-86533797D02*
X173379933Y-86533797D01*
X173379933Y-86533797D02*
X173313266Y-86500464D01*
X173313266Y-86500464D02*
X173279933Y-86467131D01*
X173279933Y-86467131D02*
X173246600Y-86400464D01*
X173246600Y-86400464D02*
X173246600Y-86133797D01*
X173113266Y-86800464D02*
X173113266Y-87133797D01*
X172913266Y-86733797D02*
X173613266Y-86967131D01*
X173613266Y-86967131D02*
X172913266Y-87200464D01*
X173613266Y-87567131D02*
X173613266Y-87633797D01*
X173613266Y-87633797D02*
X173579933Y-87700464D01*
X173579933Y-87700464D02*
X173546600Y-87733797D01*
X173546600Y-87733797D02*
X173479933Y-87767131D01*
X173479933Y-87767131D02*
X173346600Y-87800464D01*
X173346600Y-87800464D02*
X173179933Y-87800464D01*
X173179933Y-87800464D02*
X173046600Y-87767131D01*
X173046600Y-87767131D02*
X172979933Y-87733797D01*
X172979933Y-87733797D02*
X172946600Y-87700464D01*
X172946600Y-87700464D02*
X172913266Y-87633797D01*
X172913266Y-87633797D02*
X172913266Y-87567131D01*
X172913266Y-87567131D02*
X172946600Y-87500464D01*
X172946600Y-87500464D02*
X172979933Y-87467131D01*
X172979933Y-87467131D02*
X173046600Y-87433797D01*
X173046600Y-87433797D02*
X173179933Y-87400464D01*
X173179933Y-87400464D02*
X173346600Y-87400464D01*
X173346600Y-87400464D02*
X173479933Y-87433797D01*
X173479933Y-87433797D02*
X173546600Y-87467131D01*
X173546600Y-87467131D02*
X173579933Y-87500464D01*
X173579933Y-87500464D02*
X173613266Y-87567131D01*
X162753266Y-78248868D02*
X163453266Y-78248868D01*
X163453266Y-78248868D02*
X163453266Y-78515535D01*
X163453266Y-78515535D02*
X163419933Y-78582202D01*
X163419933Y-78582202D02*
X163386600Y-78615535D01*
X163386600Y-78615535D02*
X163319933Y-78648868D01*
X163319933Y-78648868D02*
X163219933Y-78648868D01*
X163219933Y-78648868D02*
X163153266Y-78615535D01*
X163153266Y-78615535D02*
X163119933Y-78582202D01*
X163119933Y-78582202D02*
X163086600Y-78515535D01*
X163086600Y-78515535D02*
X163086600Y-78248868D01*
X163119933Y-79182202D02*
X163086600Y-79282202D01*
X163086600Y-79282202D02*
X163053266Y-79315535D01*
X163053266Y-79315535D02*
X162986600Y-79348868D01*
X162986600Y-79348868D02*
X162886600Y-79348868D01*
X162886600Y-79348868D02*
X162819933Y-79315535D01*
X162819933Y-79315535D02*
X162786600Y-79282202D01*
X162786600Y-79282202D02*
X162753266Y-79215535D01*
X162753266Y-79215535D02*
X162753266Y-78948868D01*
X162753266Y-78948868D02*
X163453266Y-78948868D01*
X163453266Y-78948868D02*
X163453266Y-79182202D01*
X163453266Y-79182202D02*
X163419933Y-79248868D01*
X163419933Y-79248868D02*
X163386600Y-79282202D01*
X163386600Y-79282202D02*
X163319933Y-79315535D01*
X163319933Y-79315535D02*
X163253266Y-79315535D01*
X163253266Y-79315535D02*
X163186600Y-79282202D01*
X163186600Y-79282202D02*
X163153266Y-79248868D01*
X163153266Y-79248868D02*
X163119933Y-79182202D01*
X163119933Y-79182202D02*
X163119933Y-78948868D01*
X163453266Y-79582202D02*
X163453266Y-80048868D01*
X163453266Y-80048868D02*
X162753266Y-79748868D01*
X170373266Y-78248868D02*
X171073266Y-78248868D01*
X171073266Y-78248868D02*
X171073266Y-78515535D01*
X171073266Y-78515535D02*
X171039933Y-78582202D01*
X171039933Y-78582202D02*
X171006600Y-78615535D01*
X171006600Y-78615535D02*
X170939933Y-78648868D01*
X170939933Y-78648868D02*
X170839933Y-78648868D01*
X170839933Y-78648868D02*
X170773266Y-78615535D01*
X170773266Y-78615535D02*
X170739933Y-78582202D01*
X170739933Y-78582202D02*
X170706600Y-78515535D01*
X170706600Y-78515535D02*
X170706600Y-78248868D01*
X170739933Y-79182202D02*
X170706600Y-79282202D01*
X170706600Y-79282202D02*
X170673266Y-79315535D01*
X170673266Y-79315535D02*
X170606600Y-79348868D01*
X170606600Y-79348868D02*
X170506600Y-79348868D01*
X170506600Y-79348868D02*
X170439933Y-79315535D01*
X170439933Y-79315535D02*
X170406600Y-79282202D01*
X170406600Y-79282202D02*
X170373266Y-79215535D01*
X170373266Y-79215535D02*
X170373266Y-78948868D01*
X170373266Y-78948868D02*
X171073266Y-78948868D01*
X171073266Y-78948868D02*
X171073266Y-79182202D01*
X171073266Y-79182202D02*
X171039933Y-79248868D01*
X171039933Y-79248868D02*
X171006600Y-79282202D01*
X171006600Y-79282202D02*
X170939933Y-79315535D01*
X170939933Y-79315535D02*
X170873266Y-79315535D01*
X170873266Y-79315535D02*
X170806600Y-79282202D01*
X170806600Y-79282202D02*
X170773266Y-79248868D01*
X170773266Y-79248868D02*
X170739933Y-79182202D01*
X170739933Y-79182202D02*
X170739933Y-78948868D01*
X170373266Y-80015535D02*
X170373266Y-79615535D01*
X170373266Y-79815535D02*
X171073266Y-79815535D01*
X171073266Y-79815535D02*
X170973266Y-79748868D01*
X170973266Y-79748868D02*
X170906600Y-79682202D01*
X170906600Y-79682202D02*
X170873266Y-79615535D01*
X143626868Y-61020733D02*
X143626868Y-60320733D01*
X143626868Y-60320733D02*
X143893535Y-60320733D01*
X143893535Y-60320733D02*
X143960202Y-60354066D01*
X143960202Y-60354066D02*
X143993535Y-60387400D01*
X143993535Y-60387400D02*
X144026868Y-60454066D01*
X144026868Y-60454066D02*
X144026868Y-60554066D01*
X144026868Y-60554066D02*
X143993535Y-60620733D01*
X143993535Y-60620733D02*
X143960202Y-60654066D01*
X143960202Y-60654066D02*
X143893535Y-60687400D01*
X143893535Y-60687400D02*
X143626868Y-60687400D01*
X144293535Y-60820733D02*
X144626868Y-60820733D01*
X144226868Y-61020733D02*
X144460202Y-60320733D01*
X144460202Y-60320733D02*
X144693535Y-61020733D01*
X144860202Y-60320733D02*
X145293535Y-60320733D01*
X145293535Y-60320733D02*
X145060202Y-60587400D01*
X145060202Y-60587400D02*
X145160202Y-60587400D01*
X145160202Y-60587400D02*
X145226868Y-60620733D01*
X145226868Y-60620733D02*
X145260202Y-60654066D01*
X145260202Y-60654066D02*
X145293535Y-60720733D01*
X145293535Y-60720733D02*
X145293535Y-60887400D01*
X145293535Y-60887400D02*
X145260202Y-60954066D01*
X145260202Y-60954066D02*
X145226868Y-60987400D01*
X145226868Y-60987400D02*
X145160202Y-61020733D01*
X145160202Y-61020733D02*
X144960202Y-61020733D01*
X144960202Y-61020733D02*
X144893535Y-60987400D01*
X144893535Y-60987400D02*
X144860202Y-60954066D01*
D11*
X167748659Y-107716263D02*
X167748659Y-108211501D01*
X167748659Y-108211501D02*
X167443897Y-107944835D01*
X167443897Y-107944835D02*
X167443897Y-108059120D01*
X167443897Y-108059120D02*
X167405802Y-108135311D01*
X167405802Y-108135311D02*
X167367707Y-108173406D01*
X167367707Y-108173406D02*
X167291516Y-108211501D01*
X167291516Y-108211501D02*
X167101040Y-108211501D01*
X167101040Y-108211501D02*
X167024850Y-108173406D01*
X167024850Y-108173406D02*
X166986755Y-108135311D01*
X166986755Y-108135311D02*
X166948659Y-108059120D01*
X166948659Y-108059120D02*
X166948659Y-107830549D01*
X166948659Y-107830549D02*
X166986755Y-107754358D01*
X166986755Y-107754358D02*
X167024850Y-107716263D01*
X167672469Y-108516263D02*
X167710564Y-108554359D01*
X167710564Y-108554359D02*
X167748659Y-108630549D01*
X167748659Y-108630549D02*
X167748659Y-108821025D01*
X167748659Y-108821025D02*
X167710564Y-108897216D01*
X167710564Y-108897216D02*
X167672469Y-108935311D01*
X167672469Y-108935311D02*
X167596278Y-108973406D01*
X167596278Y-108973406D02*
X167520088Y-108973406D01*
X167520088Y-108973406D02*
X167405802Y-108935311D01*
X167405802Y-108935311D02*
X166948659Y-108478168D01*
X166948659Y-108478168D02*
X166948659Y-108973406D01*
X166948659Y-109316264D02*
X167748659Y-109316264D01*
X166948659Y-109773407D02*
X167405802Y-109430549D01*
X167748659Y-109773407D02*
X167291516Y-109316264D01*
X167024850Y-110116264D02*
X166986755Y-110154359D01*
X166986755Y-110154359D02*
X166948659Y-110116264D01*
X166948659Y-110116264D02*
X166986755Y-110078168D01*
X166986755Y-110078168D02*
X167024850Y-110116264D01*
X167024850Y-110116264D02*
X166948659Y-110116264D01*
X167443897Y-110116264D02*
X167405802Y-110154359D01*
X167405802Y-110154359D02*
X167367707Y-110116264D01*
X167367707Y-110116264D02*
X167405802Y-110078168D01*
X167405802Y-110078168D02*
X167443897Y-110116264D01*
X167443897Y-110116264D02*
X167367707Y-110116264D01*
X166986755Y-111068644D02*
X166948659Y-111182930D01*
X166948659Y-111182930D02*
X166948659Y-111373406D01*
X166948659Y-111373406D02*
X166986755Y-111449597D01*
X166986755Y-111449597D02*
X167024850Y-111487692D01*
X167024850Y-111487692D02*
X167101040Y-111525787D01*
X167101040Y-111525787D02*
X167177231Y-111525787D01*
X167177231Y-111525787D02*
X167253421Y-111487692D01*
X167253421Y-111487692D02*
X167291516Y-111449597D01*
X167291516Y-111449597D02*
X167329612Y-111373406D01*
X167329612Y-111373406D02*
X167367707Y-111221025D01*
X167367707Y-111221025D02*
X167405802Y-111144835D01*
X167405802Y-111144835D02*
X167443897Y-111106740D01*
X167443897Y-111106740D02*
X167520088Y-111068644D01*
X167520088Y-111068644D02*
X167596278Y-111068644D01*
X167596278Y-111068644D02*
X167672469Y-111106740D01*
X167672469Y-111106740D02*
X167710564Y-111144835D01*
X167710564Y-111144835D02*
X167748659Y-111221025D01*
X167748659Y-111221025D02*
X167748659Y-111411502D01*
X167748659Y-111411502D02*
X167710564Y-111525787D01*
X167862945Y-111297216D02*
X166834374Y-111297216D01*
X167748659Y-112021026D02*
X167748659Y-112097216D01*
X167748659Y-112097216D02*
X167710564Y-112173407D01*
X167710564Y-112173407D02*
X167672469Y-112211502D01*
X167672469Y-112211502D02*
X167596278Y-112249597D01*
X167596278Y-112249597D02*
X167443897Y-112287692D01*
X167443897Y-112287692D02*
X167253421Y-112287692D01*
X167253421Y-112287692D02*
X167101040Y-112249597D01*
X167101040Y-112249597D02*
X167024850Y-112211502D01*
X167024850Y-112211502D02*
X166986755Y-112173407D01*
X166986755Y-112173407D02*
X166948659Y-112097216D01*
X166948659Y-112097216D02*
X166948659Y-112021026D01*
X166948659Y-112021026D02*
X166986755Y-111944835D01*
X166986755Y-111944835D02*
X167024850Y-111906740D01*
X167024850Y-111906740D02*
X167101040Y-111868645D01*
X167101040Y-111868645D02*
X167253421Y-111830549D01*
X167253421Y-111830549D02*
X167443897Y-111830549D01*
X167443897Y-111830549D02*
X167596278Y-111868645D01*
X167596278Y-111868645D02*
X167672469Y-111906740D01*
X167672469Y-111906740D02*
X167710564Y-111944835D01*
X167710564Y-111944835D02*
X167748659Y-112021026D01*
X167748659Y-112782931D02*
X167748659Y-112859121D01*
X167748659Y-112859121D02*
X167710564Y-112935312D01*
X167710564Y-112935312D02*
X167672469Y-112973407D01*
X167672469Y-112973407D02*
X167596278Y-113011502D01*
X167596278Y-113011502D02*
X167443897Y-113049597D01*
X167443897Y-113049597D02*
X167253421Y-113049597D01*
X167253421Y-113049597D02*
X167101040Y-113011502D01*
X167101040Y-113011502D02*
X167024850Y-112973407D01*
X167024850Y-112973407D02*
X166986755Y-112935312D01*
X166986755Y-112935312D02*
X166948659Y-112859121D01*
X166948659Y-112859121D02*
X166948659Y-112782931D01*
X166948659Y-112782931D02*
X166986755Y-112706740D01*
X166986755Y-112706740D02*
X167024850Y-112668645D01*
X167024850Y-112668645D02*
X167101040Y-112630550D01*
X167101040Y-112630550D02*
X167253421Y-112592454D01*
X167253421Y-112592454D02*
X167443897Y-112592454D01*
X167443897Y-112592454D02*
X167596278Y-112630550D01*
X167596278Y-112630550D02*
X167672469Y-112668645D01*
X167672469Y-112668645D02*
X167710564Y-112706740D01*
X167710564Y-112706740D02*
X167748659Y-112782931D01*
X167748659Y-113544836D02*
X167748659Y-113621026D01*
X167748659Y-113621026D02*
X167710564Y-113697217D01*
X167710564Y-113697217D02*
X167672469Y-113735312D01*
X167672469Y-113735312D02*
X167596278Y-113773407D01*
X167596278Y-113773407D02*
X167443897Y-113811502D01*
X167443897Y-113811502D02*
X167253421Y-113811502D01*
X167253421Y-113811502D02*
X167101040Y-113773407D01*
X167101040Y-113773407D02*
X167024850Y-113735312D01*
X167024850Y-113735312D02*
X166986755Y-113697217D01*
X166986755Y-113697217D02*
X166948659Y-113621026D01*
X166948659Y-113621026D02*
X166948659Y-113544836D01*
X166948659Y-113544836D02*
X166986755Y-113468645D01*
X166986755Y-113468645D02*
X167024850Y-113430550D01*
X167024850Y-113430550D02*
X167101040Y-113392455D01*
X167101040Y-113392455D02*
X167253421Y-113354359D01*
X167253421Y-113354359D02*
X167443897Y-113354359D01*
X167443897Y-113354359D02*
X167596278Y-113392455D01*
X167596278Y-113392455D02*
X167672469Y-113430550D01*
X167672469Y-113430550D02*
X167710564Y-113468645D01*
X167710564Y-113468645D02*
X167748659Y-113544836D01*
X167748659Y-114306741D02*
X167748659Y-114382931D01*
X167748659Y-114382931D02*
X167710564Y-114459122D01*
X167710564Y-114459122D02*
X167672469Y-114497217D01*
X167672469Y-114497217D02*
X167596278Y-114535312D01*
X167596278Y-114535312D02*
X167443897Y-114573407D01*
X167443897Y-114573407D02*
X167253421Y-114573407D01*
X167253421Y-114573407D02*
X167101040Y-114535312D01*
X167101040Y-114535312D02*
X167024850Y-114497217D01*
X167024850Y-114497217D02*
X166986755Y-114459122D01*
X166986755Y-114459122D02*
X166948659Y-114382931D01*
X166948659Y-114382931D02*
X166948659Y-114306741D01*
X166948659Y-114306741D02*
X166986755Y-114230550D01*
X166986755Y-114230550D02*
X167024850Y-114192455D01*
X167024850Y-114192455D02*
X167101040Y-114154360D01*
X167101040Y-114154360D02*
X167253421Y-114116264D01*
X167253421Y-114116264D02*
X167443897Y-114116264D01*
X167443897Y-114116264D02*
X167596278Y-114154360D01*
X167596278Y-114154360D02*
X167672469Y-114192455D01*
X167672469Y-114192455D02*
X167710564Y-114230550D01*
X167710564Y-114230550D02*
X167748659Y-114306741D01*
X167253421Y-114916265D02*
X167253421Y-115525789D01*
X166986755Y-115868645D02*
X166948659Y-115982931D01*
X166948659Y-115982931D02*
X166948659Y-116173407D01*
X166948659Y-116173407D02*
X166986755Y-116249598D01*
X166986755Y-116249598D02*
X167024850Y-116287693D01*
X167024850Y-116287693D02*
X167101040Y-116325788D01*
X167101040Y-116325788D02*
X167177231Y-116325788D01*
X167177231Y-116325788D02*
X167253421Y-116287693D01*
X167253421Y-116287693D02*
X167291516Y-116249598D01*
X167291516Y-116249598D02*
X167329612Y-116173407D01*
X167329612Y-116173407D02*
X167367707Y-116021026D01*
X167367707Y-116021026D02*
X167405802Y-115944836D01*
X167405802Y-115944836D02*
X167443897Y-115906741D01*
X167443897Y-115906741D02*
X167520088Y-115868645D01*
X167520088Y-115868645D02*
X167596278Y-115868645D01*
X167596278Y-115868645D02*
X167672469Y-115906741D01*
X167672469Y-115906741D02*
X167710564Y-115944836D01*
X167710564Y-115944836D02*
X167748659Y-116021026D01*
X167748659Y-116021026D02*
X167748659Y-116211503D01*
X167748659Y-116211503D02*
X167710564Y-116325788D01*
X167862945Y-116097217D02*
X166834374Y-116097217D01*
X167748659Y-116592455D02*
X167748659Y-117125789D01*
X167748659Y-117125789D02*
X166948659Y-116782931D01*
X167367707Y-117697217D02*
X167367707Y-117430551D01*
X166948659Y-117430551D02*
X167748659Y-117430551D01*
X167748659Y-117430551D02*
X167748659Y-117811503D01*
X167367707Y-118382931D02*
X167367707Y-118116265D01*
X166948659Y-118116265D02*
X167748659Y-118116265D01*
X167748659Y-118116265D02*
X167748659Y-118497217D01*
X167367707Y-119068645D02*
X167367707Y-118801979D01*
X166948659Y-118801979D02*
X167748659Y-118801979D01*
X167748659Y-118801979D02*
X167748659Y-119182931D01*
X167024850Y-120554360D02*
X166986755Y-120516264D01*
X166986755Y-120516264D02*
X166948659Y-120401979D01*
X166948659Y-120401979D02*
X166948659Y-120325788D01*
X166948659Y-120325788D02*
X166986755Y-120211502D01*
X166986755Y-120211502D02*
X167062945Y-120135312D01*
X167062945Y-120135312D02*
X167139135Y-120097217D01*
X167139135Y-120097217D02*
X167291516Y-120059121D01*
X167291516Y-120059121D02*
X167405802Y-120059121D01*
X167405802Y-120059121D02*
X167558183Y-120097217D01*
X167558183Y-120097217D02*
X167634374Y-120135312D01*
X167634374Y-120135312D02*
X167710564Y-120211502D01*
X167710564Y-120211502D02*
X167748659Y-120325788D01*
X167748659Y-120325788D02*
X167748659Y-120401979D01*
X167748659Y-120401979D02*
X167710564Y-120516264D01*
X167710564Y-120516264D02*
X167672469Y-120554360D01*
X166948659Y-121316264D02*
X166948659Y-120859121D01*
X166948659Y-121087693D02*
X167748659Y-121087693D01*
X167748659Y-121087693D02*
X167634374Y-121011502D01*
X167634374Y-121011502D02*
X167558183Y-120935312D01*
X167558183Y-120935312D02*
X167520088Y-120859121D01*
X166460704Y-108135311D02*
X166460704Y-107982930D01*
X166460704Y-107982930D02*
X166422609Y-107906739D01*
X166422609Y-107906739D02*
X166384514Y-107868644D01*
X166384514Y-107868644D02*
X166270228Y-107792454D01*
X166270228Y-107792454D02*
X166117847Y-107754358D01*
X166117847Y-107754358D02*
X165813085Y-107754358D01*
X165813085Y-107754358D02*
X165736895Y-107792454D01*
X165736895Y-107792454D02*
X165698800Y-107830549D01*
X165698800Y-107830549D02*
X165660704Y-107906739D01*
X165660704Y-107906739D02*
X165660704Y-108059120D01*
X165660704Y-108059120D02*
X165698800Y-108135311D01*
X165698800Y-108135311D02*
X165736895Y-108173406D01*
X165736895Y-108173406D02*
X165813085Y-108211501D01*
X165813085Y-108211501D02*
X166003561Y-108211501D01*
X166003561Y-108211501D02*
X166079752Y-108173406D01*
X166079752Y-108173406D02*
X166117847Y-108135311D01*
X166117847Y-108135311D02*
X166155942Y-108059120D01*
X166155942Y-108059120D02*
X166155942Y-107906739D01*
X166155942Y-107906739D02*
X166117847Y-107830549D01*
X166117847Y-107830549D02*
X166079752Y-107792454D01*
X166079752Y-107792454D02*
X166003561Y-107754358D01*
X166194038Y-108897216D02*
X165660704Y-108897216D01*
X166498800Y-108706740D02*
X165927371Y-108516263D01*
X165927371Y-108516263D02*
X165927371Y-109011502D01*
X165660704Y-109316264D02*
X166460704Y-109316264D01*
X165660704Y-109773407D02*
X166117847Y-109430549D01*
X166460704Y-109773407D02*
X166003561Y-109316264D01*
X165736895Y-110116264D02*
X165698800Y-110154359D01*
X165698800Y-110154359D02*
X165660704Y-110116264D01*
X165660704Y-110116264D02*
X165698800Y-110078168D01*
X165698800Y-110078168D02*
X165736895Y-110116264D01*
X165736895Y-110116264D02*
X165660704Y-110116264D01*
X166155942Y-110116264D02*
X166117847Y-110154359D01*
X166117847Y-110154359D02*
X166079752Y-110116264D01*
X166079752Y-110116264D02*
X166117847Y-110078168D01*
X166117847Y-110078168D02*
X166155942Y-110116264D01*
X166155942Y-110116264D02*
X166079752Y-110116264D01*
X165698800Y-111068644D02*
X165660704Y-111182930D01*
X165660704Y-111182930D02*
X165660704Y-111373406D01*
X165660704Y-111373406D02*
X165698800Y-111449597D01*
X165698800Y-111449597D02*
X165736895Y-111487692D01*
X165736895Y-111487692D02*
X165813085Y-111525787D01*
X165813085Y-111525787D02*
X165889276Y-111525787D01*
X165889276Y-111525787D02*
X165965466Y-111487692D01*
X165965466Y-111487692D02*
X166003561Y-111449597D01*
X166003561Y-111449597D02*
X166041657Y-111373406D01*
X166041657Y-111373406D02*
X166079752Y-111221025D01*
X166079752Y-111221025D02*
X166117847Y-111144835D01*
X166117847Y-111144835D02*
X166155942Y-111106740D01*
X166155942Y-111106740D02*
X166232133Y-111068644D01*
X166232133Y-111068644D02*
X166308323Y-111068644D01*
X166308323Y-111068644D02*
X166384514Y-111106740D01*
X166384514Y-111106740D02*
X166422609Y-111144835D01*
X166422609Y-111144835D02*
X166460704Y-111221025D01*
X166460704Y-111221025D02*
X166460704Y-111411502D01*
X166460704Y-111411502D02*
X166422609Y-111525787D01*
X166574990Y-111297216D02*
X165546419Y-111297216D01*
X166460704Y-112021026D02*
X166460704Y-112097216D01*
X166460704Y-112097216D02*
X166422609Y-112173407D01*
X166422609Y-112173407D02*
X166384514Y-112211502D01*
X166384514Y-112211502D02*
X166308323Y-112249597D01*
X166308323Y-112249597D02*
X166155942Y-112287692D01*
X166155942Y-112287692D02*
X165965466Y-112287692D01*
X165965466Y-112287692D02*
X165813085Y-112249597D01*
X165813085Y-112249597D02*
X165736895Y-112211502D01*
X165736895Y-112211502D02*
X165698800Y-112173407D01*
X165698800Y-112173407D02*
X165660704Y-112097216D01*
X165660704Y-112097216D02*
X165660704Y-112021026D01*
X165660704Y-112021026D02*
X165698800Y-111944835D01*
X165698800Y-111944835D02*
X165736895Y-111906740D01*
X165736895Y-111906740D02*
X165813085Y-111868645D01*
X165813085Y-111868645D02*
X165965466Y-111830549D01*
X165965466Y-111830549D02*
X166155942Y-111830549D01*
X166155942Y-111830549D02*
X166308323Y-111868645D01*
X166308323Y-111868645D02*
X166384514Y-111906740D01*
X166384514Y-111906740D02*
X166422609Y-111944835D01*
X166422609Y-111944835D02*
X166460704Y-112021026D01*
X166460704Y-112782931D02*
X166460704Y-112859121D01*
X166460704Y-112859121D02*
X166422609Y-112935312D01*
X166422609Y-112935312D02*
X166384514Y-112973407D01*
X166384514Y-112973407D02*
X166308323Y-113011502D01*
X166308323Y-113011502D02*
X166155942Y-113049597D01*
X166155942Y-113049597D02*
X165965466Y-113049597D01*
X165965466Y-113049597D02*
X165813085Y-113011502D01*
X165813085Y-113011502D02*
X165736895Y-112973407D01*
X165736895Y-112973407D02*
X165698800Y-112935312D01*
X165698800Y-112935312D02*
X165660704Y-112859121D01*
X165660704Y-112859121D02*
X165660704Y-112782931D01*
X165660704Y-112782931D02*
X165698800Y-112706740D01*
X165698800Y-112706740D02*
X165736895Y-112668645D01*
X165736895Y-112668645D02*
X165813085Y-112630550D01*
X165813085Y-112630550D02*
X165965466Y-112592454D01*
X165965466Y-112592454D02*
X166155942Y-112592454D01*
X166155942Y-112592454D02*
X166308323Y-112630550D01*
X166308323Y-112630550D02*
X166384514Y-112668645D01*
X166384514Y-112668645D02*
X166422609Y-112706740D01*
X166422609Y-112706740D02*
X166460704Y-112782931D01*
X166460704Y-113544836D02*
X166460704Y-113621026D01*
X166460704Y-113621026D02*
X166422609Y-113697217D01*
X166422609Y-113697217D02*
X166384514Y-113735312D01*
X166384514Y-113735312D02*
X166308323Y-113773407D01*
X166308323Y-113773407D02*
X166155942Y-113811502D01*
X166155942Y-113811502D02*
X165965466Y-113811502D01*
X165965466Y-113811502D02*
X165813085Y-113773407D01*
X165813085Y-113773407D02*
X165736895Y-113735312D01*
X165736895Y-113735312D02*
X165698800Y-113697217D01*
X165698800Y-113697217D02*
X165660704Y-113621026D01*
X165660704Y-113621026D02*
X165660704Y-113544836D01*
X165660704Y-113544836D02*
X165698800Y-113468645D01*
X165698800Y-113468645D02*
X165736895Y-113430550D01*
X165736895Y-113430550D02*
X165813085Y-113392455D01*
X165813085Y-113392455D02*
X165965466Y-113354359D01*
X165965466Y-113354359D02*
X166155942Y-113354359D01*
X166155942Y-113354359D02*
X166308323Y-113392455D01*
X166308323Y-113392455D02*
X166384514Y-113430550D01*
X166384514Y-113430550D02*
X166422609Y-113468645D01*
X166422609Y-113468645D02*
X166460704Y-113544836D01*
X166460704Y-114306741D02*
X166460704Y-114382931D01*
X166460704Y-114382931D02*
X166422609Y-114459122D01*
X166422609Y-114459122D02*
X166384514Y-114497217D01*
X166384514Y-114497217D02*
X166308323Y-114535312D01*
X166308323Y-114535312D02*
X166155942Y-114573407D01*
X166155942Y-114573407D02*
X165965466Y-114573407D01*
X165965466Y-114573407D02*
X165813085Y-114535312D01*
X165813085Y-114535312D02*
X165736895Y-114497217D01*
X165736895Y-114497217D02*
X165698800Y-114459122D01*
X165698800Y-114459122D02*
X165660704Y-114382931D01*
X165660704Y-114382931D02*
X165660704Y-114306741D01*
X165660704Y-114306741D02*
X165698800Y-114230550D01*
X165698800Y-114230550D02*
X165736895Y-114192455D01*
X165736895Y-114192455D02*
X165813085Y-114154360D01*
X165813085Y-114154360D02*
X165965466Y-114116264D01*
X165965466Y-114116264D02*
X166155942Y-114116264D01*
X166155942Y-114116264D02*
X166308323Y-114154360D01*
X166308323Y-114154360D02*
X166384514Y-114192455D01*
X166384514Y-114192455D02*
X166422609Y-114230550D01*
X166422609Y-114230550D02*
X166460704Y-114306741D01*
X165965466Y-114916265D02*
X165965466Y-115525789D01*
X165698800Y-115868645D02*
X165660704Y-115982931D01*
X165660704Y-115982931D02*
X165660704Y-116173407D01*
X165660704Y-116173407D02*
X165698800Y-116249598D01*
X165698800Y-116249598D02*
X165736895Y-116287693D01*
X165736895Y-116287693D02*
X165813085Y-116325788D01*
X165813085Y-116325788D02*
X165889276Y-116325788D01*
X165889276Y-116325788D02*
X165965466Y-116287693D01*
X165965466Y-116287693D02*
X166003561Y-116249598D01*
X166003561Y-116249598D02*
X166041657Y-116173407D01*
X166041657Y-116173407D02*
X166079752Y-116021026D01*
X166079752Y-116021026D02*
X166117847Y-115944836D01*
X166117847Y-115944836D02*
X166155942Y-115906741D01*
X166155942Y-115906741D02*
X166232133Y-115868645D01*
X166232133Y-115868645D02*
X166308323Y-115868645D01*
X166308323Y-115868645D02*
X166384514Y-115906741D01*
X166384514Y-115906741D02*
X166422609Y-115944836D01*
X166422609Y-115944836D02*
X166460704Y-116021026D01*
X166460704Y-116021026D02*
X166460704Y-116211503D01*
X166460704Y-116211503D02*
X166422609Y-116325788D01*
X166574990Y-116097217D02*
X165546419Y-116097217D01*
X166460704Y-116592455D02*
X166460704Y-117125789D01*
X166460704Y-117125789D02*
X165660704Y-116782931D01*
X166079752Y-117697217D02*
X166079752Y-117430551D01*
X165660704Y-117430551D02*
X166460704Y-117430551D01*
X166460704Y-117430551D02*
X166460704Y-117811503D01*
X166079752Y-118382931D02*
X166079752Y-118116265D01*
X165660704Y-118116265D02*
X166460704Y-118116265D01*
X166460704Y-118116265D02*
X166460704Y-118497217D01*
X166079752Y-119068645D02*
X166079752Y-118801979D01*
X165660704Y-118801979D02*
X166460704Y-118801979D01*
X166460704Y-118801979D02*
X166460704Y-119182931D01*
X165736895Y-120554360D02*
X165698800Y-120516264D01*
X165698800Y-120516264D02*
X165660704Y-120401979D01*
X165660704Y-120401979D02*
X165660704Y-120325788D01*
X165660704Y-120325788D02*
X165698800Y-120211502D01*
X165698800Y-120211502D02*
X165774990Y-120135312D01*
X165774990Y-120135312D02*
X165851180Y-120097217D01*
X165851180Y-120097217D02*
X166003561Y-120059121D01*
X166003561Y-120059121D02*
X166117847Y-120059121D01*
X166117847Y-120059121D02*
X166270228Y-120097217D01*
X166270228Y-120097217D02*
X166346419Y-120135312D01*
X166346419Y-120135312D02*
X166422609Y-120211502D01*
X166422609Y-120211502D02*
X166460704Y-120325788D01*
X166460704Y-120325788D02*
X166460704Y-120401979D01*
X166460704Y-120401979D02*
X166422609Y-120516264D01*
X166422609Y-120516264D02*
X166384514Y-120554360D01*
X165660704Y-121316264D02*
X165660704Y-120859121D01*
X165660704Y-121087693D02*
X166460704Y-121087693D01*
X166460704Y-121087693D02*
X166346419Y-121011502D01*
X166346419Y-121011502D02*
X166270228Y-120935312D01*
X166270228Y-120935312D02*
X166232133Y-120859121D01*
X164410845Y-110801978D02*
X164372749Y-110916264D01*
X164372749Y-110916264D02*
X164372749Y-111106740D01*
X164372749Y-111106740D02*
X164410845Y-111182931D01*
X164410845Y-111182931D02*
X164448940Y-111221026D01*
X164448940Y-111221026D02*
X164525130Y-111259121D01*
X164525130Y-111259121D02*
X164601321Y-111259121D01*
X164601321Y-111259121D02*
X164677511Y-111221026D01*
X164677511Y-111221026D02*
X164715606Y-111182931D01*
X164715606Y-111182931D02*
X164753702Y-111106740D01*
X164753702Y-111106740D02*
X164791797Y-110954359D01*
X164791797Y-110954359D02*
X164829892Y-110878169D01*
X164829892Y-110878169D02*
X164867987Y-110840074D01*
X164867987Y-110840074D02*
X164944178Y-110801978D01*
X164944178Y-110801978D02*
X165020368Y-110801978D01*
X165020368Y-110801978D02*
X165096559Y-110840074D01*
X165096559Y-110840074D02*
X165134654Y-110878169D01*
X165134654Y-110878169D02*
X165172749Y-110954359D01*
X165172749Y-110954359D02*
X165172749Y-111144836D01*
X165172749Y-111144836D02*
X165134654Y-111259121D01*
X165287035Y-111030550D02*
X164258464Y-111030550D01*
X164829892Y-111716264D02*
X164867987Y-111640074D01*
X164867987Y-111640074D02*
X164906083Y-111601979D01*
X164906083Y-111601979D02*
X164982273Y-111563883D01*
X164982273Y-111563883D02*
X165020368Y-111563883D01*
X165020368Y-111563883D02*
X165096559Y-111601979D01*
X165096559Y-111601979D02*
X165134654Y-111640074D01*
X165134654Y-111640074D02*
X165172749Y-111716264D01*
X165172749Y-111716264D02*
X165172749Y-111868645D01*
X165172749Y-111868645D02*
X165134654Y-111944836D01*
X165134654Y-111944836D02*
X165096559Y-111982931D01*
X165096559Y-111982931D02*
X165020368Y-112021026D01*
X165020368Y-112021026D02*
X164982273Y-112021026D01*
X164982273Y-112021026D02*
X164906083Y-111982931D01*
X164906083Y-111982931D02*
X164867987Y-111944836D01*
X164867987Y-111944836D02*
X164829892Y-111868645D01*
X164829892Y-111868645D02*
X164829892Y-111716264D01*
X164829892Y-111716264D02*
X164791797Y-111640074D01*
X164791797Y-111640074D02*
X164753702Y-111601979D01*
X164753702Y-111601979D02*
X164677511Y-111563883D01*
X164677511Y-111563883D02*
X164525130Y-111563883D01*
X164525130Y-111563883D02*
X164448940Y-111601979D01*
X164448940Y-111601979D02*
X164410845Y-111640074D01*
X164410845Y-111640074D02*
X164372749Y-111716264D01*
X164372749Y-111716264D02*
X164372749Y-111868645D01*
X164372749Y-111868645D02*
X164410845Y-111944836D01*
X164410845Y-111944836D02*
X164448940Y-111982931D01*
X164448940Y-111982931D02*
X164525130Y-112021026D01*
X164525130Y-112021026D02*
X164677511Y-112021026D01*
X164677511Y-112021026D02*
X164753702Y-111982931D01*
X164753702Y-111982931D02*
X164791797Y-111944836D01*
X164791797Y-111944836D02*
X164829892Y-111868645D01*
X165172749Y-112516265D02*
X165172749Y-112592455D01*
X165172749Y-112592455D02*
X165134654Y-112668646D01*
X165134654Y-112668646D02*
X165096559Y-112706741D01*
X165096559Y-112706741D02*
X165020368Y-112744836D01*
X165020368Y-112744836D02*
X164867987Y-112782931D01*
X164867987Y-112782931D02*
X164677511Y-112782931D01*
X164677511Y-112782931D02*
X164525130Y-112744836D01*
X164525130Y-112744836D02*
X164448940Y-112706741D01*
X164448940Y-112706741D02*
X164410845Y-112668646D01*
X164410845Y-112668646D02*
X164372749Y-112592455D01*
X164372749Y-112592455D02*
X164372749Y-112516265D01*
X164372749Y-112516265D02*
X164410845Y-112440074D01*
X164410845Y-112440074D02*
X164448940Y-112401979D01*
X164448940Y-112401979D02*
X164525130Y-112363884D01*
X164525130Y-112363884D02*
X164677511Y-112325788D01*
X164677511Y-112325788D02*
X164867987Y-112325788D01*
X164867987Y-112325788D02*
X165020368Y-112363884D01*
X165020368Y-112363884D02*
X165096559Y-112401979D01*
X165096559Y-112401979D02*
X165134654Y-112440074D01*
X165134654Y-112440074D02*
X165172749Y-112516265D01*
X165172749Y-113278170D02*
X165172749Y-113354360D01*
X165172749Y-113354360D02*
X165134654Y-113430551D01*
X165134654Y-113430551D02*
X165096559Y-113468646D01*
X165096559Y-113468646D02*
X165020368Y-113506741D01*
X165020368Y-113506741D02*
X164867987Y-113544836D01*
X164867987Y-113544836D02*
X164677511Y-113544836D01*
X164677511Y-113544836D02*
X164525130Y-113506741D01*
X164525130Y-113506741D02*
X164448940Y-113468646D01*
X164448940Y-113468646D02*
X164410845Y-113430551D01*
X164410845Y-113430551D02*
X164372749Y-113354360D01*
X164372749Y-113354360D02*
X164372749Y-113278170D01*
X164372749Y-113278170D02*
X164410845Y-113201979D01*
X164410845Y-113201979D02*
X164448940Y-113163884D01*
X164448940Y-113163884D02*
X164525130Y-113125789D01*
X164525130Y-113125789D02*
X164677511Y-113087693D01*
X164677511Y-113087693D02*
X164867987Y-113087693D01*
X164867987Y-113087693D02*
X165020368Y-113125789D01*
X165020368Y-113125789D02*
X165096559Y-113163884D01*
X165096559Y-113163884D02*
X165134654Y-113201979D01*
X165134654Y-113201979D02*
X165172749Y-113278170D01*
X165172749Y-114040075D02*
X165172749Y-114116265D01*
X165172749Y-114116265D02*
X165134654Y-114192456D01*
X165134654Y-114192456D02*
X165096559Y-114230551D01*
X165096559Y-114230551D02*
X165020368Y-114268646D01*
X165020368Y-114268646D02*
X164867987Y-114306741D01*
X164867987Y-114306741D02*
X164677511Y-114306741D01*
X164677511Y-114306741D02*
X164525130Y-114268646D01*
X164525130Y-114268646D02*
X164448940Y-114230551D01*
X164448940Y-114230551D02*
X164410845Y-114192456D01*
X164410845Y-114192456D02*
X164372749Y-114116265D01*
X164372749Y-114116265D02*
X164372749Y-114040075D01*
X164372749Y-114040075D02*
X164410845Y-113963884D01*
X164410845Y-113963884D02*
X164448940Y-113925789D01*
X164448940Y-113925789D02*
X164525130Y-113887694D01*
X164525130Y-113887694D02*
X164677511Y-113849598D01*
X164677511Y-113849598D02*
X164867987Y-113849598D01*
X164867987Y-113849598D02*
X165020368Y-113887694D01*
X165020368Y-113887694D02*
X165096559Y-113925789D01*
X165096559Y-113925789D02*
X165134654Y-113963884D01*
X165134654Y-113963884D02*
X165172749Y-114040075D01*
X164677511Y-114649599D02*
X164677511Y-115259123D01*
X164410845Y-115601979D02*
X164372749Y-115716265D01*
X164372749Y-115716265D02*
X164372749Y-115906741D01*
X164372749Y-115906741D02*
X164410845Y-115982932D01*
X164410845Y-115982932D02*
X164448940Y-116021027D01*
X164448940Y-116021027D02*
X164525130Y-116059122D01*
X164525130Y-116059122D02*
X164601321Y-116059122D01*
X164601321Y-116059122D02*
X164677511Y-116021027D01*
X164677511Y-116021027D02*
X164715606Y-115982932D01*
X164715606Y-115982932D02*
X164753702Y-115906741D01*
X164753702Y-115906741D02*
X164791797Y-115754360D01*
X164791797Y-115754360D02*
X164829892Y-115678170D01*
X164829892Y-115678170D02*
X164867987Y-115640075D01*
X164867987Y-115640075D02*
X164944178Y-115601979D01*
X164944178Y-115601979D02*
X165020368Y-115601979D01*
X165020368Y-115601979D02*
X165096559Y-115640075D01*
X165096559Y-115640075D02*
X165134654Y-115678170D01*
X165134654Y-115678170D02*
X165172749Y-115754360D01*
X165172749Y-115754360D02*
X165172749Y-115944837D01*
X165172749Y-115944837D02*
X165134654Y-116059122D01*
X165287035Y-115830551D02*
X164258464Y-115830551D01*
X164791797Y-116668646D02*
X164791797Y-116401980D01*
X164372749Y-116401980D02*
X165172749Y-116401980D01*
X165172749Y-116401980D02*
X165172749Y-116782932D01*
X164791797Y-117354360D02*
X164791797Y-117087694D01*
X164372749Y-117087694D02*
X165172749Y-117087694D01*
X165172749Y-117087694D02*
X165172749Y-117468646D01*
X164791797Y-118040074D02*
X164791797Y-117773408D01*
X164372749Y-117773408D02*
X165172749Y-117773408D01*
X165172749Y-117773408D02*
X165172749Y-118154360D01*
X164791797Y-118725788D02*
X164791797Y-118459122D01*
X164372749Y-118459122D02*
X165172749Y-118459122D01*
X165172749Y-118459122D02*
X165172749Y-118840074D01*
X164448940Y-120211503D02*
X164410845Y-120173407D01*
X164410845Y-120173407D02*
X164372749Y-120059122D01*
X164372749Y-120059122D02*
X164372749Y-119982931D01*
X164372749Y-119982931D02*
X164410845Y-119868645D01*
X164410845Y-119868645D02*
X164487035Y-119792455D01*
X164487035Y-119792455D02*
X164563225Y-119754360D01*
X164563225Y-119754360D02*
X164715606Y-119716264D01*
X164715606Y-119716264D02*
X164829892Y-119716264D01*
X164829892Y-119716264D02*
X164982273Y-119754360D01*
X164982273Y-119754360D02*
X165058464Y-119792455D01*
X165058464Y-119792455D02*
X165134654Y-119868645D01*
X165134654Y-119868645D02*
X165172749Y-119982931D01*
X165172749Y-119982931D02*
X165172749Y-120059122D01*
X165172749Y-120059122D02*
X165134654Y-120173407D01*
X165134654Y-120173407D02*
X165096559Y-120211503D01*
X165096559Y-120516264D02*
X165134654Y-120554360D01*
X165134654Y-120554360D02*
X165172749Y-120630550D01*
X165172749Y-120630550D02*
X165172749Y-120821026D01*
X165172749Y-120821026D02*
X165134654Y-120897217D01*
X165134654Y-120897217D02*
X165096559Y-120935312D01*
X165096559Y-120935312D02*
X165020368Y-120973407D01*
X165020368Y-120973407D02*
X164944178Y-120973407D01*
X164944178Y-120973407D02*
X164829892Y-120935312D01*
X164829892Y-120935312D02*
X164372749Y-120478169D01*
X164372749Y-120478169D02*
X164372749Y-120973407D01*
D10*
X143626868Y-63560733D02*
X143626868Y-62860733D01*
X143626868Y-62860733D02*
X143893535Y-62860733D01*
X143893535Y-62860733D02*
X143960202Y-62894066D01*
X143960202Y-62894066D02*
X143993535Y-62927400D01*
X143993535Y-62927400D02*
X144026868Y-62994066D01*
X144026868Y-62994066D02*
X144026868Y-63094066D01*
X144026868Y-63094066D02*
X143993535Y-63160733D01*
X143993535Y-63160733D02*
X143960202Y-63194066D01*
X143960202Y-63194066D02*
X143893535Y-63227400D01*
X143893535Y-63227400D02*
X143626868Y-63227400D01*
X144293535Y-63360733D02*
X144626868Y-63360733D01*
X144226868Y-63560733D02*
X144460202Y-62860733D01*
X144460202Y-62860733D02*
X144693535Y-63560733D01*
X145260202Y-62860733D02*
X144926868Y-62860733D01*
X144926868Y-62860733D02*
X144893535Y-63194066D01*
X144893535Y-63194066D02*
X144926868Y-63160733D01*
X144926868Y-63160733D02*
X144993535Y-63127400D01*
X144993535Y-63127400D02*
X145160202Y-63127400D01*
X145160202Y-63127400D02*
X145226868Y-63160733D01*
X145226868Y-63160733D02*
X145260202Y-63194066D01*
X145260202Y-63194066D02*
X145293535Y-63260733D01*
X145293535Y-63260733D02*
X145293535Y-63427400D01*
X145293535Y-63427400D02*
X145260202Y-63494066D01*
X145260202Y-63494066D02*
X145226868Y-63527400D01*
X145226868Y-63527400D02*
X145160202Y-63560733D01*
X145160202Y-63560733D02*
X144993535Y-63560733D01*
X144993535Y-63560733D02*
X144926868Y-63527400D01*
X144926868Y-63527400D02*
X144893535Y-63494066D01*
X151411797Y-66100733D02*
X151411797Y-65400733D01*
X151411797Y-65400733D02*
X151678464Y-65400733D01*
X151678464Y-65400733D02*
X151745131Y-65434066D01*
X151745131Y-65434066D02*
X151778464Y-65467400D01*
X151778464Y-65467400D02*
X151811797Y-65534066D01*
X151811797Y-65534066D02*
X151811797Y-65634066D01*
X151811797Y-65634066D02*
X151778464Y-65700733D01*
X151778464Y-65700733D02*
X151745131Y-65734066D01*
X151745131Y-65734066D02*
X151678464Y-65767400D01*
X151678464Y-65767400D02*
X151411797Y-65767400D01*
X152511797Y-66034066D02*
X152478464Y-66067400D01*
X152478464Y-66067400D02*
X152378464Y-66100733D01*
X152378464Y-66100733D02*
X152311797Y-66100733D01*
X152311797Y-66100733D02*
X152211797Y-66067400D01*
X152211797Y-66067400D02*
X152145131Y-66000733D01*
X152145131Y-66000733D02*
X152111797Y-65934066D01*
X152111797Y-65934066D02*
X152078464Y-65800733D01*
X152078464Y-65800733D02*
X152078464Y-65700733D01*
X152078464Y-65700733D02*
X152111797Y-65567400D01*
X152111797Y-65567400D02*
X152145131Y-65500733D01*
X152145131Y-65500733D02*
X152211797Y-65434066D01*
X152211797Y-65434066D02*
X152311797Y-65400733D01*
X152311797Y-65400733D02*
X152378464Y-65400733D01*
X152378464Y-65400733D02*
X152478464Y-65434066D01*
X152478464Y-65434066D02*
X152511797Y-65467400D01*
X151315131Y-65206400D02*
X152575131Y-65206400D01*
X170373266Y-86133797D02*
X171073266Y-86133797D01*
X171073266Y-86133797D02*
X171073266Y-86400464D01*
X171073266Y-86400464D02*
X171039933Y-86467131D01*
X171039933Y-86467131D02*
X171006600Y-86500464D01*
X171006600Y-86500464D02*
X170939933Y-86533797D01*
X170939933Y-86533797D02*
X170839933Y-86533797D01*
X170839933Y-86533797D02*
X170773266Y-86500464D01*
X170773266Y-86500464D02*
X170739933Y-86467131D01*
X170739933Y-86467131D02*
X170706600Y-86400464D01*
X170706600Y-86400464D02*
X170706600Y-86133797D01*
X170739933Y-87067131D02*
X170706600Y-87167131D01*
X170706600Y-87167131D02*
X170673266Y-87200464D01*
X170673266Y-87200464D02*
X170606600Y-87233797D01*
X170606600Y-87233797D02*
X170506600Y-87233797D01*
X170506600Y-87233797D02*
X170439933Y-87200464D01*
X170439933Y-87200464D02*
X170406600Y-87167131D01*
X170406600Y-87167131D02*
X170373266Y-87100464D01*
X170373266Y-87100464D02*
X170373266Y-86833797D01*
X170373266Y-86833797D02*
X171073266Y-86833797D01*
X171073266Y-86833797D02*
X171073266Y-87067131D01*
X171073266Y-87067131D02*
X171039933Y-87133797D01*
X171039933Y-87133797D02*
X171006600Y-87167131D01*
X171006600Y-87167131D02*
X170939933Y-87200464D01*
X170939933Y-87200464D02*
X170873266Y-87200464D01*
X170873266Y-87200464D02*
X170806600Y-87167131D01*
X170806600Y-87167131D02*
X170773266Y-87133797D01*
X170773266Y-87133797D02*
X170739933Y-87067131D01*
X170739933Y-87067131D02*
X170739933Y-86833797D01*
X171006600Y-87500464D02*
X171039933Y-87533797D01*
X171039933Y-87533797D02*
X171073266Y-87600464D01*
X171073266Y-87600464D02*
X171073266Y-87767131D01*
X171073266Y-87767131D02*
X171039933Y-87833797D01*
X171039933Y-87833797D02*
X171006600Y-87867131D01*
X171006600Y-87867131D02*
X170939933Y-87900464D01*
X170939933Y-87900464D02*
X170873266Y-87900464D01*
X170873266Y-87900464D02*
X170773266Y-87867131D01*
X170773266Y-87867131D02*
X170373266Y-87467131D01*
X170373266Y-87467131D02*
X170373266Y-87900464D01*
X167833266Y-78248868D02*
X168533266Y-78248868D01*
X168533266Y-78248868D02*
X168533266Y-78515535D01*
X168533266Y-78515535D02*
X168499933Y-78582202D01*
X168499933Y-78582202D02*
X168466600Y-78615535D01*
X168466600Y-78615535D02*
X168399933Y-78648868D01*
X168399933Y-78648868D02*
X168299933Y-78648868D01*
X168299933Y-78648868D02*
X168233266Y-78615535D01*
X168233266Y-78615535D02*
X168199933Y-78582202D01*
X168199933Y-78582202D02*
X168166600Y-78515535D01*
X168166600Y-78515535D02*
X168166600Y-78248868D01*
X168199933Y-79182202D02*
X168166600Y-79282202D01*
X168166600Y-79282202D02*
X168133266Y-79315535D01*
X168133266Y-79315535D02*
X168066600Y-79348868D01*
X168066600Y-79348868D02*
X167966600Y-79348868D01*
X167966600Y-79348868D02*
X167899933Y-79315535D01*
X167899933Y-79315535D02*
X167866600Y-79282202D01*
X167866600Y-79282202D02*
X167833266Y-79215535D01*
X167833266Y-79215535D02*
X167833266Y-78948868D01*
X167833266Y-78948868D02*
X168533266Y-78948868D01*
X168533266Y-78948868D02*
X168533266Y-79182202D01*
X168533266Y-79182202D02*
X168499933Y-79248868D01*
X168499933Y-79248868D02*
X168466600Y-79282202D01*
X168466600Y-79282202D02*
X168399933Y-79315535D01*
X168399933Y-79315535D02*
X168333266Y-79315535D01*
X168333266Y-79315535D02*
X168266600Y-79282202D01*
X168266600Y-79282202D02*
X168233266Y-79248868D01*
X168233266Y-79248868D02*
X168199933Y-79182202D01*
X168199933Y-79182202D02*
X168199933Y-78948868D01*
X168533266Y-79582202D02*
X168533266Y-80015535D01*
X168533266Y-80015535D02*
X168266600Y-79782202D01*
X168266600Y-79782202D02*
X168266600Y-79882202D01*
X168266600Y-79882202D02*
X168233266Y-79948868D01*
X168233266Y-79948868D02*
X168199933Y-79982202D01*
X168199933Y-79982202D02*
X168133266Y-80015535D01*
X168133266Y-80015535D02*
X167966600Y-80015535D01*
X167966600Y-80015535D02*
X167899933Y-79982202D01*
X167899933Y-79982202D02*
X167866600Y-79948868D01*
X167866600Y-79948868D02*
X167833266Y-79882202D01*
X167833266Y-79882202D02*
X167833266Y-79682202D01*
X167833266Y-79682202D02*
X167866600Y-79615535D01*
X167866600Y-79615535D02*
X167899933Y-79582202D01*
X151411797Y-58480733D02*
X151411797Y-57780733D01*
X151411797Y-57780733D02*
X151678464Y-57780733D01*
X151678464Y-57780733D02*
X151745131Y-57814066D01*
X151745131Y-57814066D02*
X151778464Y-57847400D01*
X151778464Y-57847400D02*
X151811797Y-57914066D01*
X151811797Y-57914066D02*
X151811797Y-58014066D01*
X151811797Y-58014066D02*
X151778464Y-58080733D01*
X151778464Y-58080733D02*
X151745131Y-58114066D01*
X151745131Y-58114066D02*
X151678464Y-58147400D01*
X151678464Y-58147400D02*
X151411797Y-58147400D01*
X152078464Y-58280733D02*
X152411797Y-58280733D01*
X152011797Y-58480733D02*
X152245131Y-57780733D01*
X152245131Y-57780733D02*
X152478464Y-58480733D01*
X152678464Y-57847400D02*
X152711797Y-57814066D01*
X152711797Y-57814066D02*
X152778464Y-57780733D01*
X152778464Y-57780733D02*
X152945131Y-57780733D01*
X152945131Y-57780733D02*
X153011797Y-57814066D01*
X153011797Y-57814066D02*
X153045131Y-57847400D01*
X153045131Y-57847400D02*
X153078464Y-57914066D01*
X153078464Y-57914066D02*
X153078464Y-57980733D01*
X153078464Y-57980733D02*
X153045131Y-58080733D01*
X153045131Y-58080733D02*
X152645131Y-58480733D01*
X152645131Y-58480733D02*
X153078464Y-58480733D01*
X165293266Y-86133797D02*
X165993266Y-86133797D01*
X165993266Y-86133797D02*
X165993266Y-86400464D01*
X165993266Y-86400464D02*
X165959933Y-86467131D01*
X165959933Y-86467131D02*
X165926600Y-86500464D01*
X165926600Y-86500464D02*
X165859933Y-86533797D01*
X165859933Y-86533797D02*
X165759933Y-86533797D01*
X165759933Y-86533797D02*
X165693266Y-86500464D01*
X165693266Y-86500464D02*
X165659933Y-86467131D01*
X165659933Y-86467131D02*
X165626600Y-86400464D01*
X165626600Y-86400464D02*
X165626600Y-86133797D01*
X165659933Y-87067131D02*
X165626600Y-87167131D01*
X165626600Y-87167131D02*
X165593266Y-87200464D01*
X165593266Y-87200464D02*
X165526600Y-87233797D01*
X165526600Y-87233797D02*
X165426600Y-87233797D01*
X165426600Y-87233797D02*
X165359933Y-87200464D01*
X165359933Y-87200464D02*
X165326600Y-87167131D01*
X165326600Y-87167131D02*
X165293266Y-87100464D01*
X165293266Y-87100464D02*
X165293266Y-86833797D01*
X165293266Y-86833797D02*
X165993266Y-86833797D01*
X165993266Y-86833797D02*
X165993266Y-87067131D01*
X165993266Y-87067131D02*
X165959933Y-87133797D01*
X165959933Y-87133797D02*
X165926600Y-87167131D01*
X165926600Y-87167131D02*
X165859933Y-87200464D01*
X165859933Y-87200464D02*
X165793266Y-87200464D01*
X165793266Y-87200464D02*
X165726600Y-87167131D01*
X165726600Y-87167131D02*
X165693266Y-87133797D01*
X165693266Y-87133797D02*
X165659933Y-87067131D01*
X165659933Y-87067131D02*
X165659933Y-86833797D01*
X165993266Y-87833797D02*
X165993266Y-87700464D01*
X165993266Y-87700464D02*
X165959933Y-87633797D01*
X165959933Y-87633797D02*
X165926600Y-87600464D01*
X165926600Y-87600464D02*
X165826600Y-87533797D01*
X165826600Y-87533797D02*
X165693266Y-87500464D01*
X165693266Y-87500464D02*
X165426600Y-87500464D01*
X165426600Y-87500464D02*
X165359933Y-87533797D01*
X165359933Y-87533797D02*
X165326600Y-87567131D01*
X165326600Y-87567131D02*
X165293266Y-87633797D01*
X165293266Y-87633797D02*
X165293266Y-87767131D01*
X165293266Y-87767131D02*
X165326600Y-87833797D01*
X165326600Y-87833797D02*
X165359933Y-87867131D01*
X165359933Y-87867131D02*
X165426600Y-87900464D01*
X165426600Y-87900464D02*
X165593266Y-87900464D01*
X165593266Y-87900464D02*
X165659933Y-87867131D01*
X165659933Y-87867131D02*
X165693266Y-87833797D01*
X165693266Y-87833797D02*
X165726600Y-87767131D01*
X165726600Y-87767131D02*
X165726600Y-87633797D01*
X165726600Y-87633797D02*
X165693266Y-87567131D01*
X165693266Y-87567131D02*
X165659933Y-87533797D01*
X165659933Y-87533797D02*
X165593266Y-87500464D01*
X143360202Y-55828066D02*
X143126868Y-55828066D01*
X143126868Y-56194733D02*
X143126868Y-55494733D01*
X143126868Y-55494733D02*
X143460202Y-55494733D01*
X144060202Y-56194733D02*
X143726868Y-56194733D01*
X143726868Y-56194733D02*
X143726868Y-55494733D01*
X144260202Y-55994733D02*
X144593535Y-55994733D01*
X144193535Y-56194733D02*
X144426869Y-55494733D01*
X144426869Y-55494733D02*
X144660202Y-56194733D01*
X145260202Y-55528066D02*
X145193535Y-55494733D01*
X145193535Y-55494733D02*
X145093535Y-55494733D01*
X145093535Y-55494733D02*
X144993535Y-55528066D01*
X144993535Y-55528066D02*
X144926869Y-55594733D01*
X144926869Y-55594733D02*
X144893535Y-55661400D01*
X144893535Y-55661400D02*
X144860202Y-55794733D01*
X144860202Y-55794733D02*
X144860202Y-55894733D01*
X144860202Y-55894733D02*
X144893535Y-56028066D01*
X144893535Y-56028066D02*
X144926869Y-56094733D01*
X144926869Y-56094733D02*
X144993535Y-56161400D01*
X144993535Y-56161400D02*
X145093535Y-56194733D01*
X145093535Y-56194733D02*
X145160202Y-56194733D01*
X145160202Y-56194733D02*
X145260202Y-56161400D01*
X145260202Y-56161400D02*
X145293535Y-56128066D01*
X145293535Y-56128066D02*
X145293535Y-55894733D01*
X145293535Y-55894733D02*
X145160202Y-55894733D01*
X143030202Y-55300400D02*
X145356869Y-55300400D01*
D12*
X169299239Y-88823190D02*
X169275430Y-88847000D01*
X169275430Y-88847000D02*
X169204001Y-88870809D01*
X169204001Y-88870809D02*
X169156382Y-88870809D01*
X169156382Y-88870809D02*
X169084954Y-88847000D01*
X169084954Y-88847000D02*
X169037335Y-88799380D01*
X169037335Y-88799380D02*
X169013525Y-88751761D01*
X169013525Y-88751761D02*
X168989716Y-88656523D01*
X168989716Y-88656523D02*
X168989716Y-88585095D01*
X168989716Y-88585095D02*
X169013525Y-88489857D01*
X169013525Y-88489857D02*
X169037335Y-88442238D01*
X169037335Y-88442238D02*
X169084954Y-88394619D01*
X169084954Y-88394619D02*
X169156382Y-88370809D01*
X169156382Y-88370809D02*
X169204001Y-88370809D01*
X169204001Y-88370809D02*
X169275430Y-88394619D01*
X169275430Y-88394619D02*
X169299239Y-88418428D01*
X169775430Y-88870809D02*
X169489716Y-88870809D01*
X169632573Y-88870809D02*
X169632573Y-88370809D01*
X169632573Y-88370809D02*
X169584954Y-88442238D01*
X169584954Y-88442238D02*
X169537335Y-88489857D01*
X169537335Y-88489857D02*
X169489716Y-88513666D01*
X170489715Y-89037476D02*
X170489715Y-88323190D01*
X171299238Y-88870809D02*
X171251619Y-88847000D01*
X171251619Y-88847000D02*
X171227809Y-88823190D01*
X171227809Y-88823190D02*
X171204000Y-88775571D01*
X171204000Y-88775571D02*
X171204000Y-88632714D01*
X171204000Y-88632714D02*
X171227809Y-88585095D01*
X171227809Y-88585095D02*
X171251619Y-88561285D01*
X171251619Y-88561285D02*
X171299238Y-88537476D01*
X171299238Y-88537476D02*
X171370666Y-88537476D01*
X171370666Y-88537476D02*
X171418285Y-88561285D01*
X171418285Y-88561285D02*
X171442095Y-88585095D01*
X171442095Y-88585095D02*
X171465904Y-88632714D01*
X171465904Y-88632714D02*
X171465904Y-88775571D01*
X171465904Y-88775571D02*
X171442095Y-88823190D01*
X171442095Y-88823190D02*
X171418285Y-88847000D01*
X171418285Y-88847000D02*
X171370666Y-88870809D01*
X171370666Y-88870809D02*
X171299238Y-88870809D01*
X171894476Y-88537476D02*
X171894476Y-88870809D01*
X171680190Y-88537476D02*
X171680190Y-88799380D01*
X171680190Y-88799380D02*
X171704000Y-88847000D01*
X171704000Y-88847000D02*
X171751619Y-88870809D01*
X171751619Y-88870809D02*
X171823047Y-88870809D01*
X171823047Y-88870809D02*
X171870666Y-88847000D01*
X171870666Y-88847000D02*
X171894476Y-88823190D01*
X172061143Y-88537476D02*
X172251619Y-88537476D01*
X172132571Y-88370809D02*
X172132571Y-88799380D01*
X172132571Y-88799380D02*
X172156381Y-88847000D01*
X172156381Y-88847000D02*
X172204000Y-88870809D01*
X172204000Y-88870809D02*
X172251619Y-88870809D01*
X172918285Y-89037476D02*
X172918285Y-88323190D01*
X173942093Y-88823190D02*
X173918284Y-88847000D01*
X173918284Y-88847000D02*
X173846855Y-88870809D01*
X173846855Y-88870809D02*
X173799236Y-88870809D01*
X173799236Y-88870809D02*
X173727808Y-88847000D01*
X173727808Y-88847000D02*
X173680189Y-88799380D01*
X173680189Y-88799380D02*
X173656379Y-88751761D01*
X173656379Y-88751761D02*
X173632570Y-88656523D01*
X173632570Y-88656523D02*
X173632570Y-88585095D01*
X173632570Y-88585095D02*
X173656379Y-88489857D01*
X173656379Y-88489857D02*
X173680189Y-88442238D01*
X173680189Y-88442238D02*
X173727808Y-88394619D01*
X173727808Y-88394619D02*
X173799236Y-88370809D01*
X173799236Y-88370809D02*
X173846855Y-88370809D01*
X173846855Y-88370809D02*
X173918284Y-88394619D01*
X173918284Y-88394619D02*
X173942093Y-88418428D01*
X174132570Y-88418428D02*
X174156379Y-88394619D01*
X174156379Y-88394619D02*
X174203998Y-88370809D01*
X174203998Y-88370809D02*
X174323046Y-88370809D01*
X174323046Y-88370809D02*
X174370665Y-88394619D01*
X174370665Y-88394619D02*
X174394474Y-88418428D01*
X174394474Y-88418428D02*
X174418284Y-88466047D01*
X174418284Y-88466047D02*
X174418284Y-88513666D01*
X174418284Y-88513666D02*
X174394474Y-88585095D01*
X174394474Y-88585095D02*
X174108760Y-88870809D01*
X174108760Y-88870809D02*
X174418284Y-88870809D01*
D10*
X151411797Y-63560733D02*
X151411797Y-62860733D01*
X151411797Y-62860733D02*
X151678464Y-62860733D01*
X151678464Y-62860733D02*
X151745131Y-62894066D01*
X151745131Y-62894066D02*
X151778464Y-62927400D01*
X151778464Y-62927400D02*
X151811797Y-62994066D01*
X151811797Y-62994066D02*
X151811797Y-63094066D01*
X151811797Y-63094066D02*
X151778464Y-63160733D01*
X151778464Y-63160733D02*
X151745131Y-63194066D01*
X151745131Y-63194066D02*
X151678464Y-63227400D01*
X151678464Y-63227400D02*
X151411797Y-63227400D01*
X152078464Y-63360733D02*
X152411797Y-63360733D01*
X152011797Y-63560733D02*
X152245131Y-62860733D01*
X152245131Y-62860733D02*
X152478464Y-63560733D01*
X153011797Y-62860733D02*
X152878464Y-62860733D01*
X152878464Y-62860733D02*
X152811797Y-62894066D01*
X152811797Y-62894066D02*
X152778464Y-62927400D01*
X152778464Y-62927400D02*
X152711797Y-63027400D01*
X152711797Y-63027400D02*
X152678464Y-63160733D01*
X152678464Y-63160733D02*
X152678464Y-63427400D01*
X152678464Y-63427400D02*
X152711797Y-63494066D01*
X152711797Y-63494066D02*
X152745131Y-63527400D01*
X152745131Y-63527400D02*
X152811797Y-63560733D01*
X152811797Y-63560733D02*
X152945131Y-63560733D01*
X152945131Y-63560733D02*
X153011797Y-63527400D01*
X153011797Y-63527400D02*
X153045131Y-63494066D01*
X153045131Y-63494066D02*
X153078464Y-63427400D01*
X153078464Y-63427400D02*
X153078464Y-63260733D01*
X153078464Y-63260733D02*
X153045131Y-63194066D01*
X153045131Y-63194066D02*
X153011797Y-63160733D01*
X153011797Y-63160733D02*
X152945131Y-63127400D01*
X152945131Y-63127400D02*
X152811797Y-63127400D01*
X152811797Y-63127400D02*
X152745131Y-63160733D01*
X152745131Y-63160733D02*
X152711797Y-63194066D01*
X152711797Y-63194066D02*
X152678464Y-63260733D01*
D13*
X156043333Y-87227568D02*
X155995714Y-87275188D01*
X155995714Y-87275188D02*
X155852857Y-87322807D01*
X155852857Y-87322807D02*
X155757619Y-87322807D01*
X155757619Y-87322807D02*
X155614762Y-87275188D01*
X155614762Y-87275188D02*
X155519524Y-87179949D01*
X155519524Y-87179949D02*
X155471905Y-87084711D01*
X155471905Y-87084711D02*
X155424286Y-86894235D01*
X155424286Y-86894235D02*
X155424286Y-86751378D01*
X155424286Y-86751378D02*
X155471905Y-86560902D01*
X155471905Y-86560902D02*
X155519524Y-86465664D01*
X155519524Y-86465664D02*
X155614762Y-86370426D01*
X155614762Y-86370426D02*
X155757619Y-86322807D01*
X155757619Y-86322807D02*
X155852857Y-86322807D01*
X155852857Y-86322807D02*
X155995714Y-86370426D01*
X155995714Y-86370426D02*
X156043333Y-86418045D01*
X156995714Y-87322807D02*
X156424286Y-87322807D01*
X156710000Y-87322807D02*
X156710000Y-86322807D01*
X156710000Y-86322807D02*
X156614762Y-86465664D01*
X156614762Y-86465664D02*
X156519524Y-86560902D01*
X156519524Y-86560902D02*
X156424286Y-86608521D01*
X155392571Y-80210807D02*
X154821143Y-80210807D01*
X155106857Y-80210807D02*
X155106857Y-79210807D01*
X155106857Y-79210807D02*
X155011619Y-79353664D01*
X155011619Y-79353664D02*
X154916381Y-79448902D01*
X154916381Y-79448902D02*
X154821143Y-79496521D01*
X156011619Y-79210807D02*
X156106857Y-79210807D01*
X156106857Y-79210807D02*
X156202095Y-79258426D01*
X156202095Y-79258426D02*
X156249714Y-79306045D01*
X156249714Y-79306045D02*
X156297333Y-79401283D01*
X156297333Y-79401283D02*
X156344952Y-79591759D01*
X156344952Y-79591759D02*
X156344952Y-79829854D01*
X156344952Y-79829854D02*
X156297333Y-80020330D01*
X156297333Y-80020330D02*
X156249714Y-80115568D01*
X156249714Y-80115568D02*
X156202095Y-80163188D01*
X156202095Y-80163188D02*
X156106857Y-80210807D01*
X156106857Y-80210807D02*
X156011619Y-80210807D01*
X156011619Y-80210807D02*
X155916381Y-80163188D01*
X155916381Y-80163188D02*
X155868762Y-80115568D01*
X155868762Y-80115568D02*
X155821143Y-80020330D01*
X155821143Y-80020330D02*
X155773524Y-79829854D01*
X155773524Y-79829854D02*
X155773524Y-79591759D01*
X155773524Y-79591759D02*
X155821143Y-79401283D01*
X155821143Y-79401283D02*
X155868762Y-79306045D01*
X155868762Y-79306045D02*
X155916381Y-79258426D01*
X155916381Y-79258426D02*
X156011619Y-79210807D01*
X157202095Y-79544140D02*
X157202095Y-80210807D01*
X156773524Y-79544140D02*
X156773524Y-80067949D01*
X156773524Y-80067949D02*
X156821143Y-80163188D01*
X156821143Y-80163188D02*
X156916381Y-80210807D01*
X156916381Y-80210807D02*
X157059238Y-80210807D01*
X157059238Y-80210807D02*
X157154476Y-80163188D01*
X157154476Y-80163188D02*
X157202095Y-80115568D01*
X158011619Y-79686997D02*
X157678286Y-79686997D01*
X157678286Y-80210807D02*
X157678286Y-79210807D01*
X157678286Y-79210807D02*
X158154476Y-79210807D01*
X166288819Y-92019333D02*
X167003104Y-92019333D01*
X167003104Y-92019333D02*
X167145961Y-92066952D01*
X167145961Y-92066952D02*
X167241200Y-92162190D01*
X167241200Y-92162190D02*
X167288819Y-92305047D01*
X167288819Y-92305047D02*
X167288819Y-92400285D01*
X167288819Y-91543142D02*
X166288819Y-91543142D01*
X166288819Y-91543142D02*
X166288819Y-91162190D01*
X166288819Y-91162190D02*
X166336438Y-91066952D01*
X166336438Y-91066952D02*
X166384057Y-91019333D01*
X166384057Y-91019333D02*
X166479295Y-90971714D01*
X166479295Y-90971714D02*
X166622152Y-90971714D01*
X166622152Y-90971714D02*
X166717390Y-91019333D01*
X166717390Y-91019333D02*
X166765009Y-91066952D01*
X166765009Y-91066952D02*
X166812628Y-91162190D01*
X166812628Y-91162190D02*
X166812628Y-91543142D01*
X166622152Y-90114571D02*
X167288819Y-90114571D01*
X166241200Y-90352666D02*
X166955485Y-90590761D01*
X166955485Y-90590761D02*
X166955485Y-89971714D01*
X129281095Y-75654819D02*
X129281095Y-76464342D01*
X129281095Y-76464342D02*
X129328714Y-76559580D01*
X129328714Y-76559580D02*
X129376333Y-76607200D01*
X129376333Y-76607200D02*
X129471571Y-76654819D01*
X129471571Y-76654819D02*
X129662047Y-76654819D01*
X129662047Y-76654819D02*
X129757285Y-76607200D01*
X129757285Y-76607200D02*
X129804904Y-76559580D01*
X129804904Y-76559580D02*
X129852523Y-76464342D01*
X129852523Y-76464342D02*
X129852523Y-75654819D01*
X130233476Y-75654819D02*
X130852523Y-75654819D01*
X130852523Y-75654819D02*
X130519190Y-76035771D01*
X130519190Y-76035771D02*
X130662047Y-76035771D01*
X130662047Y-76035771D02*
X130757285Y-76083390D01*
X130757285Y-76083390D02*
X130804904Y-76131009D01*
X130804904Y-76131009D02*
X130852523Y-76226247D01*
X130852523Y-76226247D02*
X130852523Y-76464342D01*
X130852523Y-76464342D02*
X130804904Y-76559580D01*
X130804904Y-76559580D02*
X130757285Y-76607200D01*
X130757285Y-76607200D02*
X130662047Y-76654819D01*
X130662047Y-76654819D02*
X130376333Y-76654819D01*
X130376333Y-76654819D02*
X130281095Y-76607200D01*
X130281095Y-76607200D02*
X130233476Y-76559580D01*
X128804904Y-125228819D02*
X128614428Y-125228819D01*
X128614428Y-125228819D02*
X128519190Y-125276438D01*
X128519190Y-125276438D02*
X128471571Y-125324057D01*
X128471571Y-125324057D02*
X128376333Y-125466914D01*
X128376333Y-125466914D02*
X128328714Y-125657390D01*
X128328714Y-125657390D02*
X128328714Y-126038342D01*
X128328714Y-126038342D02*
X128376333Y-126133580D01*
X128376333Y-126133580D02*
X128423952Y-126181200D01*
X128423952Y-126181200D02*
X128519190Y-126228819D01*
X128519190Y-126228819D02*
X128709666Y-126228819D01*
X128709666Y-126228819D02*
X128804904Y-126181200D01*
X128804904Y-126181200D02*
X128852523Y-126133580D01*
X128852523Y-126133580D02*
X128900142Y-126038342D01*
X128900142Y-126038342D02*
X128900142Y-125800247D01*
X128900142Y-125800247D02*
X128852523Y-125705009D01*
X128852523Y-125705009D02*
X128804904Y-125657390D01*
X128804904Y-125657390D02*
X128709666Y-125609771D01*
X128709666Y-125609771D02*
X128519190Y-125609771D01*
X128519190Y-125609771D02*
X128423952Y-125657390D01*
X128423952Y-125657390D02*
X128376333Y-125705009D01*
X128376333Y-125705009D02*
X128328714Y-125800247D01*
X129804904Y-125228819D02*
X129328714Y-125228819D01*
X129328714Y-125228819D02*
X129281095Y-125705009D01*
X129281095Y-125705009D02*
X129328714Y-125657390D01*
X129328714Y-125657390D02*
X129423952Y-125609771D01*
X129423952Y-125609771D02*
X129662047Y-125609771D01*
X129662047Y-125609771D02*
X129757285Y-125657390D01*
X129757285Y-125657390D02*
X129804904Y-125705009D01*
X129804904Y-125705009D02*
X129852523Y-125800247D01*
X129852523Y-125800247D02*
X129852523Y-126038342D01*
X129852523Y-126038342D02*
X129804904Y-126133580D01*
X129804904Y-126133580D02*
X129757285Y-126181200D01*
X129757285Y-126181200D02*
X129662047Y-126228819D01*
X129662047Y-126228819D02*
X129423952Y-126228819D01*
X129423952Y-126228819D02*
X129328714Y-126181200D01*
X129328714Y-126181200D02*
X129281095Y-126133580D01*
X130233476Y-125324057D02*
X130281095Y-125276438D01*
X130281095Y-125276438D02*
X130376333Y-125228819D01*
X130376333Y-125228819D02*
X130614428Y-125228819D01*
X130614428Y-125228819D02*
X130709666Y-125276438D01*
X130709666Y-125276438D02*
X130757285Y-125324057D01*
X130757285Y-125324057D02*
X130804904Y-125419295D01*
X130804904Y-125419295D02*
X130804904Y-125514533D01*
X130804904Y-125514533D02*
X130757285Y-125657390D01*
X130757285Y-125657390D02*
X130185857Y-126228819D01*
X130185857Y-126228819D02*
X130804904Y-126228819D01*
X131185857Y-125324057D02*
X131233476Y-125276438D01*
X131233476Y-125276438D02*
X131328714Y-125228819D01*
X131328714Y-125228819D02*
X131566809Y-125228819D01*
X131566809Y-125228819D02*
X131662047Y-125276438D01*
X131662047Y-125276438D02*
X131709666Y-125324057D01*
X131709666Y-125324057D02*
X131757285Y-125419295D01*
X131757285Y-125419295D02*
X131757285Y-125514533D01*
X131757285Y-125514533D02*
X131709666Y-125657390D01*
X131709666Y-125657390D02*
X131138238Y-126228819D01*
X131138238Y-126228819D02*
X131757285Y-126228819D01*
X147828095Y-114008819D02*
X147828095Y-114818342D01*
X147828095Y-114818342D02*
X147875714Y-114913580D01*
X147875714Y-114913580D02*
X147923333Y-114961200D01*
X147923333Y-114961200D02*
X148018571Y-115008819D01*
X148018571Y-115008819D02*
X148209047Y-115008819D01*
X148209047Y-115008819D02*
X148304285Y-114961200D01*
X148304285Y-114961200D02*
X148351904Y-114913580D01*
X148351904Y-114913580D02*
X148399523Y-114818342D01*
X148399523Y-114818342D02*
X148399523Y-114008819D01*
X149304285Y-114342152D02*
X149304285Y-115008819D01*
X149066190Y-113961200D02*
X148828095Y-114675485D01*
X148828095Y-114675485D02*
X149447142Y-114675485D01*
X146396343Y-105188657D02*
X146443962Y-105141038D01*
X146443962Y-105141038D02*
X146539200Y-105093419D01*
X146539200Y-105093419D02*
X146777295Y-105093419D01*
X146777295Y-105093419D02*
X146872533Y-105141038D01*
X146872533Y-105141038D02*
X146920152Y-105188657D01*
X146920152Y-105188657D02*
X146967771Y-105283895D01*
X146967771Y-105283895D02*
X146967771Y-105379133D01*
X146967771Y-105379133D02*
X146920152Y-105521990D01*
X146920152Y-105521990D02*
X146348724Y-106093419D01*
X146348724Y-106093419D02*
X146967771Y-106093419D01*
X147348724Y-105188657D02*
X147396343Y-105141038D01*
X147396343Y-105141038D02*
X147491581Y-105093419D01*
X147491581Y-105093419D02*
X147729676Y-105093419D01*
X147729676Y-105093419D02*
X147824914Y-105141038D01*
X147824914Y-105141038D02*
X147872533Y-105188657D01*
X147872533Y-105188657D02*
X147920152Y-105283895D01*
X147920152Y-105283895D02*
X147920152Y-105379133D01*
X147920152Y-105379133D02*
X147872533Y-105521990D01*
X147872533Y-105521990D02*
X147301105Y-106093419D01*
X147301105Y-106093419D02*
X147920152Y-106093419D01*
X148205867Y-105093419D02*
X148539200Y-106093419D01*
X148539200Y-106093419D02*
X148872533Y-105093419D01*
X149729676Y-106093419D02*
X149158248Y-106093419D01*
X149443962Y-106093419D02*
X149443962Y-105093419D01*
X149443962Y-105093419D02*
X149348724Y-105236276D01*
X149348724Y-105236276D02*
X149253486Y-105331514D01*
X149253486Y-105331514D02*
X149158248Y-105379133D01*
X150348724Y-105093419D02*
X150443962Y-105093419D01*
X150443962Y-105093419D02*
X150539200Y-105141038D01*
X150539200Y-105141038D02*
X150586819Y-105188657D01*
X150586819Y-105188657D02*
X150634438Y-105283895D01*
X150634438Y-105283895D02*
X150682057Y-105474371D01*
X150682057Y-105474371D02*
X150682057Y-105712466D01*
X150682057Y-105712466D02*
X150634438Y-105902942D01*
X150634438Y-105902942D02*
X150586819Y-105998180D01*
X150586819Y-105998180D02*
X150539200Y-106045800D01*
X150539200Y-106045800D02*
X150443962Y-106093419D01*
X150443962Y-106093419D02*
X150348724Y-106093419D01*
X150348724Y-106093419D02*
X150253486Y-106045800D01*
X150253486Y-106045800D02*
X150205867Y-105998180D01*
X150205867Y-105998180D02*
X150158248Y-105902942D01*
X150158248Y-105902942D02*
X150110629Y-105712466D01*
X150110629Y-105712466D02*
X150110629Y-105474371D01*
X150110629Y-105474371D02*
X150158248Y-105283895D01*
X150158248Y-105283895D02*
X150205867Y-105188657D01*
X150205867Y-105188657D02*
X150253486Y-105141038D01*
X150253486Y-105141038D02*
X150348724Y-105093419D01*
X165857095Y-101816819D02*
X165857095Y-102626342D01*
X165857095Y-102626342D02*
X165904714Y-102721580D01*
X165904714Y-102721580D02*
X165952333Y-102769200D01*
X165952333Y-102769200D02*
X166047571Y-102816819D01*
X166047571Y-102816819D02*
X166238047Y-102816819D01*
X166238047Y-102816819D02*
X166333285Y-102769200D01*
X166333285Y-102769200D02*
X166380904Y-102721580D01*
X166380904Y-102721580D02*
X166428523Y-102626342D01*
X166428523Y-102626342D02*
X166428523Y-101816819D01*
X167428523Y-102816819D02*
X166857095Y-102816819D01*
X167142809Y-102816819D02*
X167142809Y-101816819D01*
X167142809Y-101816819D02*
X167047571Y-101959676D01*
X167047571Y-101959676D02*
X166952333Y-102054914D01*
X166952333Y-102054914D02*
X166857095Y-102102533D01*
X163928524Y-129627057D02*
X163976143Y-129579438D01*
X163976143Y-129579438D02*
X164071381Y-129531819D01*
X164071381Y-129531819D02*
X164309476Y-129531819D01*
X164309476Y-129531819D02*
X164404714Y-129579438D01*
X164404714Y-129579438D02*
X164452333Y-129627057D01*
X164452333Y-129627057D02*
X164499952Y-129722295D01*
X164499952Y-129722295D02*
X164499952Y-129817533D01*
X164499952Y-129817533D02*
X164452333Y-129960390D01*
X164452333Y-129960390D02*
X163880905Y-130531819D01*
X163880905Y-130531819D02*
X164499952Y-130531819D01*
X164833286Y-129531819D02*
X165499952Y-129531819D01*
X165499952Y-129531819D02*
X165071381Y-130531819D01*
X166452333Y-130436580D02*
X166404714Y-130484200D01*
X166404714Y-130484200D02*
X166261857Y-130531819D01*
X166261857Y-130531819D02*
X166166619Y-130531819D01*
X166166619Y-130531819D02*
X166023762Y-130484200D01*
X166023762Y-130484200D02*
X165928524Y-130388961D01*
X165928524Y-130388961D02*
X165880905Y-130293723D01*
X165880905Y-130293723D02*
X165833286Y-130103247D01*
X165833286Y-130103247D02*
X165833286Y-129960390D01*
X165833286Y-129960390D02*
X165880905Y-129769914D01*
X165880905Y-129769914D02*
X165928524Y-129674676D01*
X165928524Y-129674676D02*
X166023762Y-129579438D01*
X166023762Y-129579438D02*
X166166619Y-129531819D01*
X166166619Y-129531819D02*
X166261857Y-129531819D01*
X166261857Y-129531819D02*
X166404714Y-129579438D01*
X166404714Y-129579438D02*
X166452333Y-129627057D01*
X167357095Y-129531819D02*
X166880905Y-129531819D01*
X166880905Y-129531819D02*
X166833286Y-130008009D01*
X166833286Y-130008009D02*
X166880905Y-129960390D01*
X166880905Y-129960390D02*
X166976143Y-129912771D01*
X166976143Y-129912771D02*
X167214238Y-129912771D01*
X167214238Y-129912771D02*
X167309476Y-129960390D01*
X167309476Y-129960390D02*
X167357095Y-130008009D01*
X167357095Y-130008009D02*
X167404714Y-130103247D01*
X167404714Y-130103247D02*
X167404714Y-130341342D01*
X167404714Y-130341342D02*
X167357095Y-130436580D01*
X167357095Y-130436580D02*
X167309476Y-130484200D01*
X167309476Y-130484200D02*
X167214238Y-130531819D01*
X167214238Y-130531819D02*
X166976143Y-130531819D01*
X166976143Y-130531819D02*
X166880905Y-130484200D01*
X166880905Y-130484200D02*
X166833286Y-130436580D01*
X168357095Y-130531819D02*
X167785667Y-130531819D01*
X168071381Y-130531819D02*
X168071381Y-129531819D01*
X168071381Y-129531819D02*
X167976143Y-129674676D01*
X167976143Y-129674676D02*
X167880905Y-129769914D01*
X167880905Y-129769914D02*
X167785667Y-129817533D01*
X168738048Y-129627057D02*
X168785667Y-129579438D01*
X168785667Y-129579438D02*
X168880905Y-129531819D01*
X168880905Y-129531819D02*
X169119000Y-129531819D01*
X169119000Y-129531819D02*
X169214238Y-129579438D01*
X169214238Y-129579438D02*
X169261857Y-129627057D01*
X169261857Y-129627057D02*
X169309476Y-129722295D01*
X169309476Y-129722295D02*
X169309476Y-129817533D01*
X169309476Y-129817533D02*
X169261857Y-129960390D01*
X169261857Y-129960390D02*
X168690429Y-130531819D01*
X168690429Y-130531819D02*
X169309476Y-130531819D01*
X148002666Y-52750819D02*
X148002666Y-53465104D01*
X148002666Y-53465104D02*
X147955047Y-53607961D01*
X147955047Y-53607961D02*
X147859809Y-53703200D01*
X147859809Y-53703200D02*
X147716952Y-53750819D01*
X147716952Y-53750819D02*
X147621714Y-53750819D01*
X148383619Y-52750819D02*
X149002666Y-52750819D01*
X149002666Y-52750819D02*
X148669333Y-53131771D01*
X148669333Y-53131771D02*
X148812190Y-53131771D01*
X148812190Y-53131771D02*
X148907428Y-53179390D01*
X148907428Y-53179390D02*
X148955047Y-53227009D01*
X148955047Y-53227009D02*
X149002666Y-53322247D01*
X149002666Y-53322247D02*
X149002666Y-53560342D01*
X149002666Y-53560342D02*
X148955047Y-53655580D01*
X148955047Y-53655580D02*
X148907428Y-53703200D01*
X148907428Y-53703200D02*
X148812190Y-53750819D01*
X148812190Y-53750819D02*
X148526476Y-53750819D01*
X148526476Y-53750819D02*
X148431238Y-53703200D01*
X148431238Y-53703200D02*
X148383619Y-53655580D01*
X146526476Y-68047009D02*
X146669333Y-68094628D01*
X146669333Y-68094628D02*
X146716952Y-68142247D01*
X146716952Y-68142247D02*
X146764571Y-68237485D01*
X146764571Y-68237485D02*
X146764571Y-68380342D01*
X146764571Y-68380342D02*
X146716952Y-68475580D01*
X146716952Y-68475580D02*
X146669333Y-68523200D01*
X146669333Y-68523200D02*
X146574095Y-68570819D01*
X146574095Y-68570819D02*
X146193143Y-68570819D01*
X146193143Y-68570819D02*
X146193143Y-67570819D01*
X146193143Y-67570819D02*
X146526476Y-67570819D01*
X146526476Y-67570819D02*
X146621714Y-67618438D01*
X146621714Y-67618438D02*
X146669333Y-67666057D01*
X146669333Y-67666057D02*
X146716952Y-67761295D01*
X146716952Y-67761295D02*
X146716952Y-67856533D01*
X146716952Y-67856533D02*
X146669333Y-67951771D01*
X146669333Y-67951771D02*
X146621714Y-67999390D01*
X146621714Y-67999390D02*
X146526476Y-68047009D01*
X146526476Y-68047009D02*
X146193143Y-68047009D01*
X147193143Y-67570819D02*
X147193143Y-68380342D01*
X147193143Y-68380342D02*
X147240762Y-68475580D01*
X147240762Y-68475580D02*
X147288381Y-68523200D01*
X147288381Y-68523200D02*
X147383619Y-68570819D01*
X147383619Y-68570819D02*
X147574095Y-68570819D01*
X147574095Y-68570819D02*
X147669333Y-68523200D01*
X147669333Y-68523200D02*
X147716952Y-68475580D01*
X147716952Y-68475580D02*
X147764571Y-68380342D01*
X147764571Y-68380342D02*
X147764571Y-67570819D01*
X148812190Y-68570819D02*
X148478857Y-68094628D01*
X148240762Y-68570819D02*
X148240762Y-67570819D01*
X148240762Y-67570819D02*
X148621714Y-67570819D01*
X148621714Y-67570819D02*
X148716952Y-67618438D01*
X148716952Y-67618438D02*
X148764571Y-67666057D01*
X148764571Y-67666057D02*
X148812190Y-67761295D01*
X148812190Y-67761295D02*
X148812190Y-67904152D01*
X148812190Y-67904152D02*
X148764571Y-67999390D01*
X148764571Y-67999390D02*
X148716952Y-68047009D01*
X148716952Y-68047009D02*
X148621714Y-68094628D01*
X148621714Y-68094628D02*
X148240762Y-68094628D01*
X149193143Y-68523200D02*
X149336000Y-68570819D01*
X149336000Y-68570819D02*
X149574095Y-68570819D01*
X149574095Y-68570819D02*
X149669333Y-68523200D01*
X149669333Y-68523200D02*
X149716952Y-68475580D01*
X149716952Y-68475580D02*
X149764571Y-68380342D01*
X149764571Y-68380342D02*
X149764571Y-68285104D01*
X149764571Y-68285104D02*
X149716952Y-68189866D01*
X149716952Y-68189866D02*
X149669333Y-68142247D01*
X149669333Y-68142247D02*
X149574095Y-68094628D01*
X149574095Y-68094628D02*
X149383619Y-68047009D01*
X149383619Y-68047009D02*
X149288381Y-67999390D01*
X149288381Y-67999390D02*
X149240762Y-67951771D01*
X149240762Y-67951771D02*
X149193143Y-67856533D01*
X149193143Y-67856533D02*
X149193143Y-67761295D01*
X149193143Y-67761295D02*
X149240762Y-67666057D01*
X149240762Y-67666057D02*
X149288381Y-67618438D01*
X149288381Y-67618438D02*
X149383619Y-67570819D01*
X149383619Y-67570819D02*
X149621714Y-67570819D01*
X149621714Y-67570819D02*
X149764571Y-67618438D01*
X150050286Y-67570819D02*
X150621714Y-67570819D01*
X150336000Y-68570819D02*
X150336000Y-67570819D01*
X175007819Y-83386333D02*
X175722104Y-83386333D01*
X175722104Y-83386333D02*
X175864961Y-83433952D01*
X175864961Y-83433952D02*
X175960200Y-83529190D01*
X175960200Y-83529190D02*
X176007819Y-83672047D01*
X176007819Y-83672047D02*
X176007819Y-83767285D01*
X175341152Y-82481571D02*
X176007819Y-82481571D01*
X174960200Y-82719666D02*
X175674485Y-82957761D01*
X175674485Y-82957761D02*
X175674485Y-82338714D01*
X161187819Y-85219666D02*
X160187819Y-85219666D01*
X160187819Y-85219666D02*
X160187819Y-84838714D01*
X160187819Y-84838714D02*
X160235438Y-84743476D01*
X160235438Y-84743476D02*
X160283057Y-84695857D01*
X160283057Y-84695857D02*
X160378295Y-84648238D01*
X160378295Y-84648238D02*
X160521152Y-84648238D01*
X160521152Y-84648238D02*
X160616390Y-84695857D01*
X160616390Y-84695857D02*
X160664009Y-84743476D01*
X160664009Y-84743476D02*
X160711628Y-84838714D01*
X160711628Y-84838714D02*
X160711628Y-85219666D01*
X160187819Y-84029190D02*
X160187819Y-83838714D01*
X160187819Y-83838714D02*
X160235438Y-83743476D01*
X160235438Y-83743476D02*
X160330676Y-83648238D01*
X160330676Y-83648238D02*
X160521152Y-83600619D01*
X160521152Y-83600619D02*
X160854485Y-83600619D01*
X160854485Y-83600619D02*
X161044961Y-83648238D01*
X161044961Y-83648238D02*
X161140200Y-83743476D01*
X161140200Y-83743476D02*
X161187819Y-83838714D01*
X161187819Y-83838714D02*
X161187819Y-84029190D01*
X161187819Y-84029190D02*
X161140200Y-84124428D01*
X161140200Y-84124428D02*
X161044961Y-84219666D01*
X161044961Y-84219666D02*
X160854485Y-84267285D01*
X160854485Y-84267285D02*
X160521152Y-84267285D01*
X160521152Y-84267285D02*
X160330676Y-84219666D01*
X160330676Y-84219666D02*
X160235438Y-84124428D01*
X160235438Y-84124428D02*
X160187819Y-84029190D01*
X161187819Y-82600619D02*
X160711628Y-82933952D01*
X161187819Y-83172047D02*
X160187819Y-83172047D01*
X160187819Y-83172047D02*
X160187819Y-82791095D01*
X160187819Y-82791095D02*
X160235438Y-82695857D01*
X160235438Y-82695857D02*
X160283057Y-82648238D01*
X160283057Y-82648238D02*
X160378295Y-82600619D01*
X160378295Y-82600619D02*
X160521152Y-82600619D01*
X160521152Y-82600619D02*
X160616390Y-82648238D01*
X160616390Y-82648238D02*
X160664009Y-82695857D01*
X160664009Y-82695857D02*
X160711628Y-82791095D01*
X160711628Y-82791095D02*
X160711628Y-83172047D01*
X160187819Y-82314904D02*
X160187819Y-81743476D01*
X161187819Y-82029190D02*
X160187819Y-82029190D01*
X160664009Y-81076809D02*
X160711628Y-80933952D01*
X160711628Y-80933952D02*
X160759247Y-80886333D01*
X160759247Y-80886333D02*
X160854485Y-80838714D01*
X160854485Y-80838714D02*
X160997342Y-80838714D01*
X160997342Y-80838714D02*
X161092580Y-80886333D01*
X161092580Y-80886333D02*
X161140200Y-80933952D01*
X161140200Y-80933952D02*
X161187819Y-81029190D01*
X161187819Y-81029190D02*
X161187819Y-81410142D01*
X161187819Y-81410142D02*
X160187819Y-81410142D01*
X160187819Y-81410142D02*
X160187819Y-81076809D01*
X160187819Y-81076809D02*
X160235438Y-80981571D01*
X160235438Y-80981571D02*
X160283057Y-80933952D01*
X160283057Y-80933952D02*
X160378295Y-80886333D01*
X160378295Y-80886333D02*
X160473533Y-80886333D01*
X160473533Y-80886333D02*
X160568771Y-80933952D01*
X160568771Y-80933952D02*
X160616390Y-80981571D01*
X160616390Y-80981571D02*
X160664009Y-81076809D01*
X160664009Y-81076809D02*
X160664009Y-81410142D01*
X159220819Y-71185904D02*
X160030342Y-71185904D01*
X160030342Y-71185904D02*
X160125580Y-71138285D01*
X160125580Y-71138285D02*
X160173200Y-71090666D01*
X160173200Y-71090666D02*
X160220819Y-70995428D01*
X160220819Y-70995428D02*
X160220819Y-70804952D01*
X160220819Y-70804952D02*
X160173200Y-70709714D01*
X160173200Y-70709714D02*
X160125580Y-70662095D01*
X160125580Y-70662095D02*
X160030342Y-70614476D01*
X160030342Y-70614476D02*
X159220819Y-70614476D01*
X159220819Y-69662095D02*
X159220819Y-70138285D01*
X159220819Y-70138285D02*
X159697009Y-70185904D01*
X159697009Y-70185904D02*
X159649390Y-70138285D01*
X159649390Y-70138285D02*
X159601771Y-70043047D01*
X159601771Y-70043047D02*
X159601771Y-69804952D01*
X159601771Y-69804952D02*
X159649390Y-69709714D01*
X159649390Y-69709714D02*
X159697009Y-69662095D01*
X159697009Y-69662095D02*
X159792247Y-69614476D01*
X159792247Y-69614476D02*
X160030342Y-69614476D01*
X160030342Y-69614476D02*
X160125580Y-69662095D01*
X160125580Y-69662095D02*
X160173200Y-69709714D01*
X160173200Y-69709714D02*
X160220819Y-69804952D01*
X160220819Y-69804952D02*
X160220819Y-70043047D01*
X160220819Y-70043047D02*
X160173200Y-70138285D01*
X160173200Y-70138285D02*
X160125580Y-70185904D01*
X163250952Y-69878819D02*
X163917618Y-69878819D01*
X163917618Y-69878819D02*
X163489047Y-70878819D01*
X164727142Y-70212152D02*
X164727142Y-70878819D01*
X164489047Y-69831200D02*
X164250952Y-70545485D01*
X164250952Y-70545485D02*
X164869999Y-70545485D01*
X165727142Y-70878819D02*
X165250952Y-70878819D01*
X165250952Y-70878819D02*
X165250952Y-69878819D01*
X166012857Y-70831200D02*
X166155714Y-70878819D01*
X166155714Y-70878819D02*
X166393809Y-70878819D01*
X166393809Y-70878819D02*
X166489047Y-70831200D01*
X166489047Y-70831200D02*
X166536666Y-70783580D01*
X166536666Y-70783580D02*
X166584285Y-70688342D01*
X166584285Y-70688342D02*
X166584285Y-70593104D01*
X166584285Y-70593104D02*
X166536666Y-70497866D01*
X166536666Y-70497866D02*
X166489047Y-70450247D01*
X166489047Y-70450247D02*
X166393809Y-70402628D01*
X166393809Y-70402628D02*
X166203333Y-70355009D01*
X166203333Y-70355009D02*
X166108095Y-70307390D01*
X166108095Y-70307390D02*
X166060476Y-70259771D01*
X166060476Y-70259771D02*
X166012857Y-70164533D01*
X166012857Y-70164533D02*
X166012857Y-70069295D01*
X166012857Y-70069295D02*
X166060476Y-69974057D01*
X166060476Y-69974057D02*
X166108095Y-69926438D01*
X166108095Y-69926438D02*
X166203333Y-69878819D01*
X166203333Y-69878819D02*
X166441428Y-69878819D01*
X166441428Y-69878819D02*
X166584285Y-69926438D01*
X167536666Y-70878819D02*
X166965238Y-70878819D01*
X167250952Y-70878819D02*
X167250952Y-69878819D01*
X167250952Y-69878819D02*
X167155714Y-70021676D01*
X167155714Y-70021676D02*
X167060476Y-70116914D01*
X167060476Y-70116914D02*
X166965238Y-70164533D01*
X167917619Y-69974057D02*
X167965238Y-69926438D01*
X167965238Y-69926438D02*
X168060476Y-69878819D01*
X168060476Y-69878819D02*
X168298571Y-69878819D01*
X168298571Y-69878819D02*
X168393809Y-69926438D01*
X168393809Y-69926438D02*
X168441428Y-69974057D01*
X168441428Y-69974057D02*
X168489047Y-70069295D01*
X168489047Y-70069295D02*
X168489047Y-70164533D01*
X168489047Y-70164533D02*
X168441428Y-70307390D01*
X168441428Y-70307390D02*
X167870000Y-70878819D01*
X167870000Y-70878819D02*
X168489047Y-70878819D01*
X169346190Y-69878819D02*
X169155714Y-69878819D01*
X169155714Y-69878819D02*
X169060476Y-69926438D01*
X169060476Y-69926438D02*
X169012857Y-69974057D01*
X169012857Y-69974057D02*
X168917619Y-70116914D01*
X168917619Y-70116914D02*
X168870000Y-70307390D01*
X168870000Y-70307390D02*
X168870000Y-70688342D01*
X168870000Y-70688342D02*
X168917619Y-70783580D01*
X168917619Y-70783580D02*
X168965238Y-70831200D01*
X168965238Y-70831200D02*
X169060476Y-70878819D01*
X169060476Y-70878819D02*
X169250952Y-70878819D01*
X169250952Y-70878819D02*
X169346190Y-70831200D01*
X169346190Y-70831200D02*
X169393809Y-70783580D01*
X169393809Y-70783580D02*
X169441428Y-70688342D01*
X169441428Y-70688342D02*
X169441428Y-70450247D01*
X169441428Y-70450247D02*
X169393809Y-70355009D01*
X169393809Y-70355009D02*
X169346190Y-70307390D01*
X169346190Y-70307390D02*
X169250952Y-70259771D01*
X169250952Y-70259771D02*
X169060476Y-70259771D01*
X169060476Y-70259771D02*
X168965238Y-70307390D01*
X168965238Y-70307390D02*
X168917619Y-70355009D01*
X168917619Y-70355009D02*
X168870000Y-70450247D01*
X159220819Y-59435904D02*
X160030342Y-59435904D01*
X160030342Y-59435904D02*
X160125580Y-59388285D01*
X160125580Y-59388285D02*
X160173200Y-59340666D01*
X160173200Y-59340666D02*
X160220819Y-59245428D01*
X160220819Y-59245428D02*
X160220819Y-59054952D01*
X160220819Y-59054952D02*
X160173200Y-58959714D01*
X160173200Y-58959714D02*
X160125580Y-58912095D01*
X160125580Y-58912095D02*
X160030342Y-58864476D01*
X160030342Y-58864476D02*
X159220819Y-58864476D01*
X159316057Y-58435904D02*
X159268438Y-58388285D01*
X159268438Y-58388285D02*
X159220819Y-58293047D01*
X159220819Y-58293047D02*
X159220819Y-58054952D01*
X159220819Y-58054952D02*
X159268438Y-57959714D01*
X159268438Y-57959714D02*
X159316057Y-57912095D01*
X159316057Y-57912095D02*
X159411295Y-57864476D01*
X159411295Y-57864476D02*
X159506533Y-57864476D01*
X159506533Y-57864476D02*
X159649390Y-57912095D01*
X159649390Y-57912095D02*
X160220819Y-58483523D01*
X160220819Y-58483523D02*
X160220819Y-57864476D01*
X163727143Y-58128819D02*
X164393809Y-58128819D01*
X164393809Y-58128819D02*
X163965238Y-59128819D01*
X165203333Y-58462152D02*
X165203333Y-59128819D01*
X164965238Y-58081200D02*
X164727143Y-58795485D01*
X164727143Y-58795485D02*
X165346190Y-58795485D01*
X166203333Y-59128819D02*
X165727143Y-59128819D01*
X165727143Y-59128819D02*
X165727143Y-58128819D01*
X166489048Y-59081200D02*
X166631905Y-59128819D01*
X166631905Y-59128819D02*
X166870000Y-59128819D01*
X166870000Y-59128819D02*
X166965238Y-59081200D01*
X166965238Y-59081200D02*
X167012857Y-59033580D01*
X167012857Y-59033580D02*
X167060476Y-58938342D01*
X167060476Y-58938342D02*
X167060476Y-58843104D01*
X167060476Y-58843104D02*
X167012857Y-58747866D01*
X167012857Y-58747866D02*
X166965238Y-58700247D01*
X166965238Y-58700247D02*
X166870000Y-58652628D01*
X166870000Y-58652628D02*
X166679524Y-58605009D01*
X166679524Y-58605009D02*
X166584286Y-58557390D01*
X166584286Y-58557390D02*
X166536667Y-58509771D01*
X166536667Y-58509771D02*
X166489048Y-58414533D01*
X166489048Y-58414533D02*
X166489048Y-58319295D01*
X166489048Y-58319295D02*
X166536667Y-58224057D01*
X166536667Y-58224057D02*
X166584286Y-58176438D01*
X166584286Y-58176438D02*
X166679524Y-58128819D01*
X166679524Y-58128819D02*
X166917619Y-58128819D01*
X166917619Y-58128819D02*
X167060476Y-58176438D01*
X167393810Y-58128819D02*
X168060476Y-58128819D01*
X168060476Y-58128819D02*
X167631905Y-59128819D01*
X168870000Y-58462152D02*
X168870000Y-59128819D01*
X168631905Y-58081200D02*
X168393810Y-58795485D01*
X168393810Y-58795485D02*
X169012857Y-58795485D01*
X153362819Y-75350666D02*
X152886628Y-75683999D01*
X153362819Y-75922094D02*
X152362819Y-75922094D01*
X152362819Y-75922094D02*
X152362819Y-75541142D01*
X152362819Y-75541142D02*
X152410438Y-75445904D01*
X152410438Y-75445904D02*
X152458057Y-75398285D01*
X152458057Y-75398285D02*
X152553295Y-75350666D01*
X152553295Y-75350666D02*
X152696152Y-75350666D01*
X152696152Y-75350666D02*
X152791390Y-75398285D01*
X152791390Y-75398285D02*
X152839009Y-75445904D01*
X152839009Y-75445904D02*
X152886628Y-75541142D01*
X152886628Y-75541142D02*
X152886628Y-75922094D01*
X152696152Y-74493523D02*
X153362819Y-74493523D01*
X152315200Y-74731618D02*
X153029485Y-74969713D01*
X153029485Y-74969713D02*
X153029485Y-74350666D01*
X144740476Y-74638819D02*
X145359523Y-74638819D01*
X145359523Y-74638819D02*
X145026190Y-75019771D01*
X145026190Y-75019771D02*
X145169047Y-75019771D01*
X145169047Y-75019771D02*
X145264285Y-75067390D01*
X145264285Y-75067390D02*
X145311904Y-75115009D01*
X145311904Y-75115009D02*
X145359523Y-75210247D01*
X145359523Y-75210247D02*
X145359523Y-75448342D01*
X145359523Y-75448342D02*
X145311904Y-75543580D01*
X145311904Y-75543580D02*
X145264285Y-75591200D01*
X145264285Y-75591200D02*
X145169047Y-75638819D01*
X145169047Y-75638819D02*
X144883333Y-75638819D01*
X144883333Y-75638819D02*
X144788095Y-75591200D01*
X144788095Y-75591200D02*
X144740476Y-75543580D01*
X145788095Y-75638819D02*
X145788095Y-74638819D01*
X146359523Y-75638819D02*
X145930952Y-75067390D01*
X146359523Y-74638819D02*
X145788095Y-75210247D01*
X146692857Y-74638819D02*
X147311904Y-74638819D01*
X147311904Y-74638819D02*
X146978571Y-75019771D01*
X146978571Y-75019771D02*
X147121428Y-75019771D01*
X147121428Y-75019771D02*
X147216666Y-75067390D01*
X147216666Y-75067390D02*
X147264285Y-75115009D01*
X147264285Y-75115009D02*
X147311904Y-75210247D01*
X147311904Y-75210247D02*
X147311904Y-75448342D01*
X147311904Y-75448342D02*
X147264285Y-75543580D01*
X147264285Y-75543580D02*
X147216666Y-75591200D01*
X147216666Y-75591200D02*
X147121428Y-75638819D01*
X147121428Y-75638819D02*
X146835714Y-75638819D01*
X146835714Y-75638819D02*
X146740476Y-75591200D01*
X146740476Y-75591200D02*
X146692857Y-75543580D01*
X125095333Y-71987580D02*
X125047714Y-72035200D01*
X125047714Y-72035200D02*
X124904857Y-72082819D01*
X124904857Y-72082819D02*
X124809619Y-72082819D01*
X124809619Y-72082819D02*
X124666762Y-72035200D01*
X124666762Y-72035200D02*
X124571524Y-71939961D01*
X124571524Y-71939961D02*
X124523905Y-71844723D01*
X124523905Y-71844723D02*
X124476286Y-71654247D01*
X124476286Y-71654247D02*
X124476286Y-71511390D01*
X124476286Y-71511390D02*
X124523905Y-71320914D01*
X124523905Y-71320914D02*
X124571524Y-71225676D01*
X124571524Y-71225676D02*
X124666762Y-71130438D01*
X124666762Y-71130438D02*
X124809619Y-71082819D01*
X124809619Y-71082819D02*
X124904857Y-71082819D01*
X124904857Y-71082819D02*
X125047714Y-71130438D01*
X125047714Y-71130438D02*
X125095333Y-71178057D01*
X125428667Y-71082819D02*
X126047714Y-71082819D01*
X126047714Y-71082819D02*
X125714381Y-71463771D01*
X125714381Y-71463771D02*
X125857238Y-71463771D01*
X125857238Y-71463771D02*
X125952476Y-71511390D01*
X125952476Y-71511390D02*
X126000095Y-71559009D01*
X126000095Y-71559009D02*
X126047714Y-71654247D01*
X126047714Y-71654247D02*
X126047714Y-71892342D01*
X126047714Y-71892342D02*
X126000095Y-71987580D01*
X126000095Y-71987580D02*
X125952476Y-72035200D01*
X125952476Y-72035200D02*
X125857238Y-72082819D01*
X125857238Y-72082819D02*
X125571524Y-72082819D01*
X125571524Y-72082819D02*
X125476286Y-72035200D01*
X125476286Y-72035200D02*
X125428667Y-71987580D01*
X124142952Y-69582819D02*
X123571524Y-69582819D01*
X123857238Y-69582819D02*
X123857238Y-68582819D01*
X123857238Y-68582819D02*
X123762000Y-68725676D01*
X123762000Y-68725676D02*
X123666762Y-68820914D01*
X123666762Y-68820914D02*
X123571524Y-68868533D01*
X124762000Y-68582819D02*
X124857238Y-68582819D01*
X124857238Y-68582819D02*
X124952476Y-68630438D01*
X124952476Y-68630438D02*
X125000095Y-68678057D01*
X125000095Y-68678057D02*
X125047714Y-68773295D01*
X125047714Y-68773295D02*
X125095333Y-68963771D01*
X125095333Y-68963771D02*
X125095333Y-69201866D01*
X125095333Y-69201866D02*
X125047714Y-69392342D01*
X125047714Y-69392342D02*
X125000095Y-69487580D01*
X125000095Y-69487580D02*
X124952476Y-69535200D01*
X124952476Y-69535200D02*
X124857238Y-69582819D01*
X124857238Y-69582819D02*
X124762000Y-69582819D01*
X124762000Y-69582819D02*
X124666762Y-69535200D01*
X124666762Y-69535200D02*
X124619143Y-69487580D01*
X124619143Y-69487580D02*
X124571524Y-69392342D01*
X124571524Y-69392342D02*
X124523905Y-69201866D01*
X124523905Y-69201866D02*
X124523905Y-68963771D01*
X124523905Y-68963771D02*
X124571524Y-68773295D01*
X124571524Y-68773295D02*
X124619143Y-68678057D01*
X124619143Y-68678057D02*
X124666762Y-68630438D01*
X124666762Y-68630438D02*
X124762000Y-68582819D01*
X125714381Y-68582819D02*
X125809619Y-68582819D01*
X125809619Y-68582819D02*
X125904857Y-68630438D01*
X125904857Y-68630438D02*
X125952476Y-68678057D01*
X125952476Y-68678057D02*
X126000095Y-68773295D01*
X126000095Y-68773295D02*
X126047714Y-68963771D01*
X126047714Y-68963771D02*
X126047714Y-69201866D01*
X126047714Y-69201866D02*
X126000095Y-69392342D01*
X126000095Y-69392342D02*
X125952476Y-69487580D01*
X125952476Y-69487580D02*
X125904857Y-69535200D01*
X125904857Y-69535200D02*
X125809619Y-69582819D01*
X125809619Y-69582819D02*
X125714381Y-69582819D01*
X125714381Y-69582819D02*
X125619143Y-69535200D01*
X125619143Y-69535200D02*
X125571524Y-69487580D01*
X125571524Y-69487580D02*
X125523905Y-69392342D01*
X125523905Y-69392342D02*
X125476286Y-69201866D01*
X125476286Y-69201866D02*
X125476286Y-68963771D01*
X125476286Y-68963771D02*
X125523905Y-68773295D01*
X125523905Y-68773295D02*
X125571524Y-68678057D01*
X125571524Y-68678057D02*
X125619143Y-68630438D01*
X125619143Y-68630438D02*
X125714381Y-68582819D01*
X126476286Y-68916152D02*
X126476286Y-69582819D01*
X126476286Y-69011390D02*
X126523905Y-68963771D01*
X126523905Y-68963771D02*
X126619143Y-68916152D01*
X126619143Y-68916152D02*
X126762000Y-68916152D01*
X126762000Y-68916152D02*
X126857238Y-68963771D01*
X126857238Y-68963771D02*
X126904857Y-69059009D01*
X126904857Y-69059009D02*
X126904857Y-69582819D01*
X129968666Y-55498819D02*
X129968666Y-56213104D01*
X129968666Y-56213104D02*
X129921047Y-56355961D01*
X129921047Y-56355961D02*
X129825809Y-56451200D01*
X129825809Y-56451200D02*
X129682952Y-56498819D01*
X129682952Y-56498819D02*
X129587714Y-56498819D01*
X130968666Y-56498819D02*
X130397238Y-56498819D01*
X130682952Y-56498819D02*
X130682952Y-55498819D01*
X130682952Y-55498819D02*
X130587714Y-55641676D01*
X130587714Y-55641676D02*
X130492476Y-55736914D01*
X130492476Y-55736914D02*
X130397238Y-55784533D01*
X155807580Y-98210666D02*
X155855200Y-98258285D01*
X155855200Y-98258285D02*
X155902819Y-98401142D01*
X155902819Y-98401142D02*
X155902819Y-98496380D01*
X155902819Y-98496380D02*
X155855200Y-98639237D01*
X155855200Y-98639237D02*
X155759961Y-98734475D01*
X155759961Y-98734475D02*
X155664723Y-98782094D01*
X155664723Y-98782094D02*
X155474247Y-98829713D01*
X155474247Y-98829713D02*
X155331390Y-98829713D01*
X155331390Y-98829713D02*
X155140914Y-98782094D01*
X155140914Y-98782094D02*
X155045676Y-98734475D01*
X155045676Y-98734475D02*
X154950438Y-98639237D01*
X154950438Y-98639237D02*
X154902819Y-98496380D01*
X154902819Y-98496380D02*
X154902819Y-98401142D01*
X154902819Y-98401142D02*
X154950438Y-98258285D01*
X154950438Y-98258285D02*
X154998057Y-98210666D01*
X155236152Y-97353523D02*
X155902819Y-97353523D01*
X154855200Y-97591618D02*
X155569485Y-97829713D01*
X155569485Y-97829713D02*
X155569485Y-97210666D01*
X154532819Y-99123047D02*
X154532819Y-99694475D01*
X154532819Y-99408761D02*
X153532819Y-99408761D01*
X153532819Y-99408761D02*
X153675676Y-99503999D01*
X153675676Y-99503999D02*
X153770914Y-99599237D01*
X153770914Y-99599237D02*
X153818533Y-99694475D01*
X153532819Y-98503999D02*
X153532819Y-98408761D01*
X153532819Y-98408761D02*
X153580438Y-98313523D01*
X153580438Y-98313523D02*
X153628057Y-98265904D01*
X153628057Y-98265904D02*
X153723295Y-98218285D01*
X153723295Y-98218285D02*
X153913771Y-98170666D01*
X153913771Y-98170666D02*
X154151866Y-98170666D01*
X154151866Y-98170666D02*
X154342342Y-98218285D01*
X154342342Y-98218285D02*
X154437580Y-98265904D01*
X154437580Y-98265904D02*
X154485200Y-98313523D01*
X154485200Y-98313523D02*
X154532819Y-98408761D01*
X154532819Y-98408761D02*
X154532819Y-98503999D01*
X154532819Y-98503999D02*
X154485200Y-98599237D01*
X154485200Y-98599237D02*
X154437580Y-98646856D01*
X154437580Y-98646856D02*
X154342342Y-98694475D01*
X154342342Y-98694475D02*
X154151866Y-98742094D01*
X154151866Y-98742094D02*
X153913771Y-98742094D01*
X153913771Y-98742094D02*
X153723295Y-98694475D01*
X153723295Y-98694475D02*
X153628057Y-98646856D01*
X153628057Y-98646856D02*
X153580438Y-98599237D01*
X153580438Y-98599237D02*
X153532819Y-98503999D01*
X153532819Y-97551618D02*
X153532819Y-97456380D01*
X153532819Y-97456380D02*
X153580438Y-97361142D01*
X153580438Y-97361142D02*
X153628057Y-97313523D01*
X153628057Y-97313523D02*
X153723295Y-97265904D01*
X153723295Y-97265904D02*
X153913771Y-97218285D01*
X153913771Y-97218285D02*
X154151866Y-97218285D01*
X154151866Y-97218285D02*
X154342342Y-97265904D01*
X154342342Y-97265904D02*
X154437580Y-97313523D01*
X154437580Y-97313523D02*
X154485200Y-97361142D01*
X154485200Y-97361142D02*
X154532819Y-97456380D01*
X154532819Y-97456380D02*
X154532819Y-97551618D01*
X154532819Y-97551618D02*
X154485200Y-97646856D01*
X154485200Y-97646856D02*
X154437580Y-97694475D01*
X154437580Y-97694475D02*
X154342342Y-97742094D01*
X154342342Y-97742094D02*
X154151866Y-97789713D01*
X154151866Y-97789713D02*
X153913771Y-97789713D01*
X153913771Y-97789713D02*
X153723295Y-97742094D01*
X153723295Y-97742094D02*
X153628057Y-97694475D01*
X153628057Y-97694475D02*
X153580438Y-97646856D01*
X153580438Y-97646856D02*
X153532819Y-97551618D01*
X153866152Y-96789713D02*
X154532819Y-96789713D01*
X153961390Y-96789713D02*
X153913771Y-96742094D01*
X153913771Y-96742094D02*
X153866152Y-96646856D01*
X153866152Y-96646856D02*
X153866152Y-96503999D01*
X153866152Y-96503999D02*
X153913771Y-96408761D01*
X153913771Y-96408761D02*
X154009009Y-96361142D01*
X154009009Y-96361142D02*
X154532819Y-96361142D01*
X130071905Y-128728819D02*
X130071905Y-127728819D01*
X130071905Y-127728819D02*
X130310000Y-127728819D01*
X130310000Y-127728819D02*
X130452857Y-127776438D01*
X130452857Y-127776438D02*
X130548095Y-127871676D01*
X130548095Y-127871676D02*
X130595714Y-127966914D01*
X130595714Y-127966914D02*
X130643333Y-128157390D01*
X130643333Y-128157390D02*
X130643333Y-128300247D01*
X130643333Y-128300247D02*
X130595714Y-128490723D01*
X130595714Y-128490723D02*
X130548095Y-128585961D01*
X130548095Y-128585961D02*
X130452857Y-128681200D01*
X130452857Y-128681200D02*
X130310000Y-128728819D01*
X130310000Y-128728819D02*
X130071905Y-128728819D01*
X131595714Y-128728819D02*
X131024286Y-128728819D01*
X131310000Y-128728819D02*
X131310000Y-127728819D01*
X131310000Y-127728819D02*
X131214762Y-127871676D01*
X131214762Y-127871676D02*
X131119524Y-127966914D01*
X131119524Y-127966914D02*
X131024286Y-128014533D01*
X129119523Y-129979009D02*
X129262380Y-130026628D01*
X129262380Y-130026628D02*
X129309999Y-130074247D01*
X129309999Y-130074247D02*
X129357618Y-130169485D01*
X129357618Y-130169485D02*
X129357618Y-130312342D01*
X129357618Y-130312342D02*
X129309999Y-130407580D01*
X129309999Y-130407580D02*
X129262380Y-130455200D01*
X129262380Y-130455200D02*
X129167142Y-130502819D01*
X129167142Y-130502819D02*
X128786190Y-130502819D01*
X128786190Y-130502819D02*
X128786190Y-129502819D01*
X128786190Y-129502819D02*
X129119523Y-129502819D01*
X129119523Y-129502819D02*
X129214761Y-129550438D01*
X129214761Y-129550438D02*
X129262380Y-129598057D01*
X129262380Y-129598057D02*
X129309999Y-129693295D01*
X129309999Y-129693295D02*
X129309999Y-129788533D01*
X129309999Y-129788533D02*
X129262380Y-129883771D01*
X129262380Y-129883771D02*
X129214761Y-129931390D01*
X129214761Y-129931390D02*
X129119523Y-129979009D01*
X129119523Y-129979009D02*
X128786190Y-129979009D01*
X129738571Y-130217104D02*
X130214761Y-130217104D01*
X129643333Y-130502819D02*
X129976666Y-129502819D01*
X129976666Y-129502819D02*
X130309999Y-130502819D01*
X130500476Y-129502819D02*
X131071904Y-129502819D01*
X130786190Y-130502819D02*
X130786190Y-129502819D01*
X131833809Y-129836152D02*
X131833809Y-130502819D01*
X131595714Y-129455200D02*
X131357619Y-130169485D01*
X131357619Y-130169485D02*
X131976666Y-130169485D01*
X132262381Y-129502819D02*
X132881428Y-129502819D01*
X132881428Y-129502819D02*
X132548095Y-129883771D01*
X132548095Y-129883771D02*
X132690952Y-129883771D01*
X132690952Y-129883771D02*
X132786190Y-129931390D01*
X132786190Y-129931390D02*
X132833809Y-129979009D01*
X132833809Y-129979009D02*
X132881428Y-130074247D01*
X132881428Y-130074247D02*
X132881428Y-130312342D01*
X132881428Y-130312342D02*
X132833809Y-130407580D01*
X132833809Y-130407580D02*
X132786190Y-130455200D01*
X132786190Y-130455200D02*
X132690952Y-130502819D01*
X132690952Y-130502819D02*
X132405238Y-130502819D01*
X132405238Y-130502819D02*
X132310000Y-130455200D01*
X132310000Y-130455200D02*
X132262381Y-130407580D01*
X134358095Y-126442819D02*
X134358095Y-125442819D01*
X134929523Y-126442819D02*
X134500952Y-125871390D01*
X134929523Y-125442819D02*
X134358095Y-126014247D01*
X153362819Y-85256666D02*
X152886628Y-85589999D01*
X153362819Y-85828094D02*
X152362819Y-85828094D01*
X152362819Y-85828094D02*
X152362819Y-85447142D01*
X152362819Y-85447142D02*
X152410438Y-85351904D01*
X152410438Y-85351904D02*
X152458057Y-85304285D01*
X152458057Y-85304285D02*
X152553295Y-85256666D01*
X152553295Y-85256666D02*
X152696152Y-85256666D01*
X152696152Y-85256666D02*
X152791390Y-85304285D01*
X152791390Y-85304285D02*
X152839009Y-85351904D01*
X152839009Y-85351904D02*
X152886628Y-85447142D01*
X152886628Y-85447142D02*
X152886628Y-85828094D01*
X153362819Y-84304285D02*
X153362819Y-84875713D01*
X153362819Y-84589999D02*
X152362819Y-84589999D01*
X152362819Y-84589999D02*
X152505676Y-84685237D01*
X152505676Y-84685237D02*
X152600914Y-84780475D01*
X152600914Y-84780475D02*
X152648533Y-84875713D01*
X144740476Y-84544819D02*
X145359523Y-84544819D01*
X145359523Y-84544819D02*
X145026190Y-84925771D01*
X145026190Y-84925771D02*
X145169047Y-84925771D01*
X145169047Y-84925771D02*
X145264285Y-84973390D01*
X145264285Y-84973390D02*
X145311904Y-85021009D01*
X145311904Y-85021009D02*
X145359523Y-85116247D01*
X145359523Y-85116247D02*
X145359523Y-85354342D01*
X145359523Y-85354342D02*
X145311904Y-85449580D01*
X145311904Y-85449580D02*
X145264285Y-85497200D01*
X145264285Y-85497200D02*
X145169047Y-85544819D01*
X145169047Y-85544819D02*
X144883333Y-85544819D01*
X144883333Y-85544819D02*
X144788095Y-85497200D01*
X144788095Y-85497200D02*
X144740476Y-85449580D01*
X145788095Y-85544819D02*
X145788095Y-84544819D01*
X146359523Y-85544819D02*
X145930952Y-84973390D01*
X146359523Y-84544819D02*
X145788095Y-85116247D01*
X146692857Y-84544819D02*
X147311904Y-84544819D01*
X147311904Y-84544819D02*
X146978571Y-84925771D01*
X146978571Y-84925771D02*
X147121428Y-84925771D01*
X147121428Y-84925771D02*
X147216666Y-84973390D01*
X147216666Y-84973390D02*
X147264285Y-85021009D01*
X147264285Y-85021009D02*
X147311904Y-85116247D01*
X147311904Y-85116247D02*
X147311904Y-85354342D01*
X147311904Y-85354342D02*
X147264285Y-85449580D01*
X147264285Y-85449580D02*
X147216666Y-85497200D01*
X147216666Y-85497200D02*
X147121428Y-85544819D01*
X147121428Y-85544819D02*
X146835714Y-85544819D01*
X146835714Y-85544819D02*
X146740476Y-85497200D01*
X146740476Y-85497200D02*
X146692857Y-85449580D01*
X153362819Y-78652666D02*
X152886628Y-78985999D01*
X153362819Y-79224094D02*
X152362819Y-79224094D01*
X152362819Y-79224094D02*
X152362819Y-78843142D01*
X152362819Y-78843142D02*
X152410438Y-78747904D01*
X152410438Y-78747904D02*
X152458057Y-78700285D01*
X152458057Y-78700285D02*
X152553295Y-78652666D01*
X152553295Y-78652666D02*
X152696152Y-78652666D01*
X152696152Y-78652666D02*
X152791390Y-78700285D01*
X152791390Y-78700285D02*
X152839009Y-78747904D01*
X152839009Y-78747904D02*
X152886628Y-78843142D01*
X152886628Y-78843142D02*
X152886628Y-79224094D01*
X152362819Y-78319332D02*
X152362819Y-77700285D01*
X152362819Y-77700285D02*
X152743771Y-78033618D01*
X152743771Y-78033618D02*
X152743771Y-77890761D01*
X152743771Y-77890761D02*
X152791390Y-77795523D01*
X152791390Y-77795523D02*
X152839009Y-77747904D01*
X152839009Y-77747904D02*
X152934247Y-77700285D01*
X152934247Y-77700285D02*
X153172342Y-77700285D01*
X153172342Y-77700285D02*
X153267580Y-77747904D01*
X153267580Y-77747904D02*
X153315200Y-77795523D01*
X153315200Y-77795523D02*
X153362819Y-77890761D01*
X153362819Y-77890761D02*
X153362819Y-78176475D01*
X153362819Y-78176475D02*
X153315200Y-78271713D01*
X153315200Y-78271713D02*
X153267580Y-78319332D01*
X144740476Y-77940819D02*
X145359523Y-77940819D01*
X145359523Y-77940819D02*
X145026190Y-78321771D01*
X145026190Y-78321771D02*
X145169047Y-78321771D01*
X145169047Y-78321771D02*
X145264285Y-78369390D01*
X145264285Y-78369390D02*
X145311904Y-78417009D01*
X145311904Y-78417009D02*
X145359523Y-78512247D01*
X145359523Y-78512247D02*
X145359523Y-78750342D01*
X145359523Y-78750342D02*
X145311904Y-78845580D01*
X145311904Y-78845580D02*
X145264285Y-78893200D01*
X145264285Y-78893200D02*
X145169047Y-78940819D01*
X145169047Y-78940819D02*
X144883333Y-78940819D01*
X144883333Y-78940819D02*
X144788095Y-78893200D01*
X144788095Y-78893200D02*
X144740476Y-78845580D01*
X145788095Y-78940819D02*
X145788095Y-77940819D01*
X146359523Y-78940819D02*
X145930952Y-78369390D01*
X146359523Y-77940819D02*
X145788095Y-78512247D01*
X146692857Y-77940819D02*
X147311904Y-77940819D01*
X147311904Y-77940819D02*
X146978571Y-78321771D01*
X146978571Y-78321771D02*
X147121428Y-78321771D01*
X147121428Y-78321771D02*
X147216666Y-78369390D01*
X147216666Y-78369390D02*
X147264285Y-78417009D01*
X147264285Y-78417009D02*
X147311904Y-78512247D01*
X147311904Y-78512247D02*
X147311904Y-78750342D01*
X147311904Y-78750342D02*
X147264285Y-78845580D01*
X147264285Y-78845580D02*
X147216666Y-78893200D01*
X147216666Y-78893200D02*
X147121428Y-78940819D01*
X147121428Y-78940819D02*
X146835714Y-78940819D01*
X146835714Y-78940819D02*
X146740476Y-78893200D01*
X146740476Y-78893200D02*
X146692857Y-78845580D01*
X155807580Y-69280666D02*
X155855200Y-69328285D01*
X155855200Y-69328285D02*
X155902819Y-69471142D01*
X155902819Y-69471142D02*
X155902819Y-69566380D01*
X155902819Y-69566380D02*
X155855200Y-69709237D01*
X155855200Y-69709237D02*
X155759961Y-69804475D01*
X155759961Y-69804475D02*
X155664723Y-69852094D01*
X155664723Y-69852094D02*
X155474247Y-69899713D01*
X155474247Y-69899713D02*
X155331390Y-69899713D01*
X155331390Y-69899713D02*
X155140914Y-69852094D01*
X155140914Y-69852094D02*
X155045676Y-69804475D01*
X155045676Y-69804475D02*
X154950438Y-69709237D01*
X154950438Y-69709237D02*
X154902819Y-69566380D01*
X154902819Y-69566380D02*
X154902819Y-69471142D01*
X154902819Y-69471142D02*
X154950438Y-69328285D01*
X154950438Y-69328285D02*
X154998057Y-69280666D01*
X154902819Y-68375904D02*
X154902819Y-68852094D01*
X154902819Y-68852094D02*
X155379009Y-68899713D01*
X155379009Y-68899713D02*
X155331390Y-68852094D01*
X155331390Y-68852094D02*
X155283771Y-68756856D01*
X155283771Y-68756856D02*
X155283771Y-68518761D01*
X155283771Y-68518761D02*
X155331390Y-68423523D01*
X155331390Y-68423523D02*
X155379009Y-68375904D01*
X155379009Y-68375904D02*
X155474247Y-68328285D01*
X155474247Y-68328285D02*
X155712342Y-68328285D01*
X155712342Y-68328285D02*
X155807580Y-68375904D01*
X155807580Y-68375904D02*
X155855200Y-68423523D01*
X155855200Y-68423523D02*
X155902819Y-68518761D01*
X155902819Y-68518761D02*
X155902819Y-68756856D01*
X155902819Y-68756856D02*
X155855200Y-68852094D01*
X155855200Y-68852094D02*
X155807580Y-68899713D01*
X154532819Y-70233047D02*
X154532819Y-70804475D01*
X154532819Y-70518761D02*
X153532819Y-70518761D01*
X153532819Y-70518761D02*
X153675676Y-70613999D01*
X153675676Y-70613999D02*
X153770914Y-70709237D01*
X153770914Y-70709237D02*
X153818533Y-70804475D01*
X153532819Y-69613999D02*
X153532819Y-69518761D01*
X153532819Y-69518761D02*
X153580438Y-69423523D01*
X153580438Y-69423523D02*
X153628057Y-69375904D01*
X153628057Y-69375904D02*
X153723295Y-69328285D01*
X153723295Y-69328285D02*
X153913771Y-69280666D01*
X153913771Y-69280666D02*
X154151866Y-69280666D01*
X154151866Y-69280666D02*
X154342342Y-69328285D01*
X154342342Y-69328285D02*
X154437580Y-69375904D01*
X154437580Y-69375904D02*
X154485200Y-69423523D01*
X154485200Y-69423523D02*
X154532819Y-69518761D01*
X154532819Y-69518761D02*
X154532819Y-69613999D01*
X154532819Y-69613999D02*
X154485200Y-69709237D01*
X154485200Y-69709237D02*
X154437580Y-69756856D01*
X154437580Y-69756856D02*
X154342342Y-69804475D01*
X154342342Y-69804475D02*
X154151866Y-69852094D01*
X154151866Y-69852094D02*
X153913771Y-69852094D01*
X153913771Y-69852094D02*
X153723295Y-69804475D01*
X153723295Y-69804475D02*
X153628057Y-69756856D01*
X153628057Y-69756856D02*
X153580438Y-69709237D01*
X153580438Y-69709237D02*
X153532819Y-69613999D01*
X153532819Y-68661618D02*
X153532819Y-68566380D01*
X153532819Y-68566380D02*
X153580438Y-68471142D01*
X153580438Y-68471142D02*
X153628057Y-68423523D01*
X153628057Y-68423523D02*
X153723295Y-68375904D01*
X153723295Y-68375904D02*
X153913771Y-68328285D01*
X153913771Y-68328285D02*
X154151866Y-68328285D01*
X154151866Y-68328285D02*
X154342342Y-68375904D01*
X154342342Y-68375904D02*
X154437580Y-68423523D01*
X154437580Y-68423523D02*
X154485200Y-68471142D01*
X154485200Y-68471142D02*
X154532819Y-68566380D01*
X154532819Y-68566380D02*
X154532819Y-68661618D01*
X154532819Y-68661618D02*
X154485200Y-68756856D01*
X154485200Y-68756856D02*
X154437580Y-68804475D01*
X154437580Y-68804475D02*
X154342342Y-68852094D01*
X154342342Y-68852094D02*
X154151866Y-68899713D01*
X154151866Y-68899713D02*
X153913771Y-68899713D01*
X153913771Y-68899713D02*
X153723295Y-68852094D01*
X153723295Y-68852094D02*
X153628057Y-68804475D01*
X153628057Y-68804475D02*
X153580438Y-68756856D01*
X153580438Y-68756856D02*
X153532819Y-68661618D01*
X153866152Y-67899713D02*
X154532819Y-67899713D01*
X153961390Y-67899713D02*
X153913771Y-67852094D01*
X153913771Y-67852094D02*
X153866152Y-67756856D01*
X153866152Y-67756856D02*
X153866152Y-67613999D01*
X153866152Y-67613999D02*
X153913771Y-67518761D01*
X153913771Y-67518761D02*
X154009009Y-67471142D01*
X154009009Y-67471142D02*
X154532819Y-67471142D01*
X155807580Y-57596666D02*
X155855200Y-57644285D01*
X155855200Y-57644285D02*
X155902819Y-57787142D01*
X155902819Y-57787142D02*
X155902819Y-57882380D01*
X155902819Y-57882380D02*
X155855200Y-58025237D01*
X155855200Y-58025237D02*
X155759961Y-58120475D01*
X155759961Y-58120475D02*
X155664723Y-58168094D01*
X155664723Y-58168094D02*
X155474247Y-58215713D01*
X155474247Y-58215713D02*
X155331390Y-58215713D01*
X155331390Y-58215713D02*
X155140914Y-58168094D01*
X155140914Y-58168094D02*
X155045676Y-58120475D01*
X155045676Y-58120475D02*
X154950438Y-58025237D01*
X154950438Y-58025237D02*
X154902819Y-57882380D01*
X154902819Y-57882380D02*
X154902819Y-57787142D01*
X154902819Y-57787142D02*
X154950438Y-57644285D01*
X154950438Y-57644285D02*
X154998057Y-57596666D01*
X154998057Y-57215713D02*
X154950438Y-57168094D01*
X154950438Y-57168094D02*
X154902819Y-57072856D01*
X154902819Y-57072856D02*
X154902819Y-56834761D01*
X154902819Y-56834761D02*
X154950438Y-56739523D01*
X154950438Y-56739523D02*
X154998057Y-56691904D01*
X154998057Y-56691904D02*
X155093295Y-56644285D01*
X155093295Y-56644285D02*
X155188533Y-56644285D01*
X155188533Y-56644285D02*
X155331390Y-56691904D01*
X155331390Y-56691904D02*
X155902819Y-57263332D01*
X155902819Y-57263332D02*
X155902819Y-56644285D01*
X154532819Y-58549047D02*
X154532819Y-59120475D01*
X154532819Y-58834761D02*
X153532819Y-58834761D01*
X153532819Y-58834761D02*
X153675676Y-58929999D01*
X153675676Y-58929999D02*
X153770914Y-59025237D01*
X153770914Y-59025237D02*
X153818533Y-59120475D01*
X153532819Y-57929999D02*
X153532819Y-57834761D01*
X153532819Y-57834761D02*
X153580438Y-57739523D01*
X153580438Y-57739523D02*
X153628057Y-57691904D01*
X153628057Y-57691904D02*
X153723295Y-57644285D01*
X153723295Y-57644285D02*
X153913771Y-57596666D01*
X153913771Y-57596666D02*
X154151866Y-57596666D01*
X154151866Y-57596666D02*
X154342342Y-57644285D01*
X154342342Y-57644285D02*
X154437580Y-57691904D01*
X154437580Y-57691904D02*
X154485200Y-57739523D01*
X154485200Y-57739523D02*
X154532819Y-57834761D01*
X154532819Y-57834761D02*
X154532819Y-57929999D01*
X154532819Y-57929999D02*
X154485200Y-58025237D01*
X154485200Y-58025237D02*
X154437580Y-58072856D01*
X154437580Y-58072856D02*
X154342342Y-58120475D01*
X154342342Y-58120475D02*
X154151866Y-58168094D01*
X154151866Y-58168094D02*
X153913771Y-58168094D01*
X153913771Y-58168094D02*
X153723295Y-58120475D01*
X153723295Y-58120475D02*
X153628057Y-58072856D01*
X153628057Y-58072856D02*
X153580438Y-58025237D01*
X153580438Y-58025237D02*
X153532819Y-57929999D01*
X153532819Y-56977618D02*
X153532819Y-56882380D01*
X153532819Y-56882380D02*
X153580438Y-56787142D01*
X153580438Y-56787142D02*
X153628057Y-56739523D01*
X153628057Y-56739523D02*
X153723295Y-56691904D01*
X153723295Y-56691904D02*
X153913771Y-56644285D01*
X153913771Y-56644285D02*
X154151866Y-56644285D01*
X154151866Y-56644285D02*
X154342342Y-56691904D01*
X154342342Y-56691904D02*
X154437580Y-56739523D01*
X154437580Y-56739523D02*
X154485200Y-56787142D01*
X154485200Y-56787142D02*
X154532819Y-56882380D01*
X154532819Y-56882380D02*
X154532819Y-56977618D01*
X154532819Y-56977618D02*
X154485200Y-57072856D01*
X154485200Y-57072856D02*
X154437580Y-57120475D01*
X154437580Y-57120475D02*
X154342342Y-57168094D01*
X154342342Y-57168094D02*
X154151866Y-57215713D01*
X154151866Y-57215713D02*
X153913771Y-57215713D01*
X153913771Y-57215713D02*
X153723295Y-57168094D01*
X153723295Y-57168094D02*
X153628057Y-57120475D01*
X153628057Y-57120475D02*
X153580438Y-57072856D01*
X153580438Y-57072856D02*
X153532819Y-56977618D01*
X153866152Y-56215713D02*
X154532819Y-56215713D01*
X153961390Y-56215713D02*
X153913771Y-56168094D01*
X153913771Y-56168094D02*
X153866152Y-56072856D01*
X153866152Y-56072856D02*
X153866152Y-55929999D01*
X153866152Y-55929999D02*
X153913771Y-55834761D01*
X153913771Y-55834761D02*
X154009009Y-55787142D01*
X154009009Y-55787142D02*
X154532819Y-55787142D01*
X153362819Y-81954666D02*
X152886628Y-82287999D01*
X153362819Y-82526094D02*
X152362819Y-82526094D01*
X152362819Y-82526094D02*
X152362819Y-82145142D01*
X152362819Y-82145142D02*
X152410438Y-82049904D01*
X152410438Y-82049904D02*
X152458057Y-82002285D01*
X152458057Y-82002285D02*
X152553295Y-81954666D01*
X152553295Y-81954666D02*
X152696152Y-81954666D01*
X152696152Y-81954666D02*
X152791390Y-82002285D01*
X152791390Y-82002285D02*
X152839009Y-82049904D01*
X152839009Y-82049904D02*
X152886628Y-82145142D01*
X152886628Y-82145142D02*
X152886628Y-82526094D01*
X152458057Y-81573713D02*
X152410438Y-81526094D01*
X152410438Y-81526094D02*
X152362819Y-81430856D01*
X152362819Y-81430856D02*
X152362819Y-81192761D01*
X152362819Y-81192761D02*
X152410438Y-81097523D01*
X152410438Y-81097523D02*
X152458057Y-81049904D01*
X152458057Y-81049904D02*
X152553295Y-81002285D01*
X152553295Y-81002285D02*
X152648533Y-81002285D01*
X152648533Y-81002285D02*
X152791390Y-81049904D01*
X152791390Y-81049904D02*
X153362819Y-81621332D01*
X153362819Y-81621332D02*
X153362819Y-81002285D01*
X144740476Y-81242819D02*
X145359523Y-81242819D01*
X145359523Y-81242819D02*
X145026190Y-81623771D01*
X145026190Y-81623771D02*
X145169047Y-81623771D01*
X145169047Y-81623771D02*
X145264285Y-81671390D01*
X145264285Y-81671390D02*
X145311904Y-81719009D01*
X145311904Y-81719009D02*
X145359523Y-81814247D01*
X145359523Y-81814247D02*
X145359523Y-82052342D01*
X145359523Y-82052342D02*
X145311904Y-82147580D01*
X145311904Y-82147580D02*
X145264285Y-82195200D01*
X145264285Y-82195200D02*
X145169047Y-82242819D01*
X145169047Y-82242819D02*
X144883333Y-82242819D01*
X144883333Y-82242819D02*
X144788095Y-82195200D01*
X144788095Y-82195200D02*
X144740476Y-82147580D01*
X145788095Y-82242819D02*
X145788095Y-81242819D01*
X146359523Y-82242819D02*
X145930952Y-81671390D01*
X146359523Y-81242819D02*
X145788095Y-81814247D01*
X146692857Y-81242819D02*
X147311904Y-81242819D01*
X147311904Y-81242819D02*
X146978571Y-81623771D01*
X146978571Y-81623771D02*
X147121428Y-81623771D01*
X147121428Y-81623771D02*
X147216666Y-81671390D01*
X147216666Y-81671390D02*
X147264285Y-81719009D01*
X147264285Y-81719009D02*
X147311904Y-81814247D01*
X147311904Y-81814247D02*
X147311904Y-82052342D01*
X147311904Y-82052342D02*
X147264285Y-82147580D01*
X147264285Y-82147580D02*
X147216666Y-82195200D01*
X147216666Y-82195200D02*
X147121428Y-82242819D01*
X147121428Y-82242819D02*
X146835714Y-82242819D01*
X146835714Y-82242819D02*
X146740476Y-82195200D01*
X146740476Y-82195200D02*
X146692857Y-82147580D01*
X153362819Y-72048666D02*
X152886628Y-72381999D01*
X153362819Y-72620094D02*
X152362819Y-72620094D01*
X152362819Y-72620094D02*
X152362819Y-72239142D01*
X152362819Y-72239142D02*
X152410438Y-72143904D01*
X152410438Y-72143904D02*
X152458057Y-72096285D01*
X152458057Y-72096285D02*
X152553295Y-72048666D01*
X152553295Y-72048666D02*
X152696152Y-72048666D01*
X152696152Y-72048666D02*
X152791390Y-72096285D01*
X152791390Y-72096285D02*
X152839009Y-72143904D01*
X152839009Y-72143904D02*
X152886628Y-72239142D01*
X152886628Y-72239142D02*
X152886628Y-72620094D01*
X152362819Y-71143904D02*
X152362819Y-71620094D01*
X152362819Y-71620094D02*
X152839009Y-71667713D01*
X152839009Y-71667713D02*
X152791390Y-71620094D01*
X152791390Y-71620094D02*
X152743771Y-71524856D01*
X152743771Y-71524856D02*
X152743771Y-71286761D01*
X152743771Y-71286761D02*
X152791390Y-71191523D01*
X152791390Y-71191523D02*
X152839009Y-71143904D01*
X152839009Y-71143904D02*
X152934247Y-71096285D01*
X152934247Y-71096285D02*
X153172342Y-71096285D01*
X153172342Y-71096285D02*
X153267580Y-71143904D01*
X153267580Y-71143904D02*
X153315200Y-71191523D01*
X153315200Y-71191523D02*
X153362819Y-71286761D01*
X153362819Y-71286761D02*
X153362819Y-71524856D01*
X153362819Y-71524856D02*
X153315200Y-71620094D01*
X153315200Y-71620094D02*
X153267580Y-71667713D01*
X144740476Y-71336819D02*
X145359523Y-71336819D01*
X145359523Y-71336819D02*
X145026190Y-71717771D01*
X145026190Y-71717771D02*
X145169047Y-71717771D01*
X145169047Y-71717771D02*
X145264285Y-71765390D01*
X145264285Y-71765390D02*
X145311904Y-71813009D01*
X145311904Y-71813009D02*
X145359523Y-71908247D01*
X145359523Y-71908247D02*
X145359523Y-72146342D01*
X145359523Y-72146342D02*
X145311904Y-72241580D01*
X145311904Y-72241580D02*
X145264285Y-72289200D01*
X145264285Y-72289200D02*
X145169047Y-72336819D01*
X145169047Y-72336819D02*
X144883333Y-72336819D01*
X144883333Y-72336819D02*
X144788095Y-72289200D01*
X144788095Y-72289200D02*
X144740476Y-72241580D01*
X145788095Y-72336819D02*
X145788095Y-71336819D01*
X146359523Y-72336819D02*
X145930952Y-71765390D01*
X146359523Y-71336819D02*
X145788095Y-71908247D01*
X146692857Y-71336819D02*
X147311904Y-71336819D01*
X147311904Y-71336819D02*
X146978571Y-71717771D01*
X146978571Y-71717771D02*
X147121428Y-71717771D01*
X147121428Y-71717771D02*
X147216666Y-71765390D01*
X147216666Y-71765390D02*
X147264285Y-71813009D01*
X147264285Y-71813009D02*
X147311904Y-71908247D01*
X147311904Y-71908247D02*
X147311904Y-72146342D01*
X147311904Y-72146342D02*
X147264285Y-72241580D01*
X147264285Y-72241580D02*
X147216666Y-72289200D01*
X147216666Y-72289200D02*
X147121428Y-72336819D01*
X147121428Y-72336819D02*
X146835714Y-72336819D01*
X146835714Y-72336819D02*
X146740476Y-72289200D01*
X146740476Y-72289200D02*
X146692857Y-72241580D01*
D14*
X154735000Y-86071875D02*
X154735000Y-85571875D01*
X154485000Y-85821875D02*
X154985000Y-85821875D01*
X153630000Y-83267100D02*
X155170000Y-83267100D01*
X157250000Y-83267100D02*
X158790000Y-83267100D01*
X153630000Y-83227100D02*
X155170000Y-83227100D01*
X157250000Y-83227100D02*
X158790000Y-83227100D01*
X153631000Y-83187100D02*
X155170000Y-83187100D01*
X157250000Y-83187100D02*
X158789000Y-83187100D01*
X153633000Y-83147100D02*
X155170000Y-83147100D01*
X157250000Y-83147100D02*
X158787000Y-83147100D01*
X153635000Y-83107100D02*
X155170000Y-83107100D01*
X157250000Y-83107100D02*
X158785000Y-83107100D01*
X153638000Y-83067100D02*
X155170000Y-83067100D01*
X157250000Y-83067100D02*
X158782000Y-83067100D01*
X153641000Y-83027100D02*
X155170000Y-83027100D01*
X157250000Y-83027100D02*
X158779000Y-83027100D01*
X153645000Y-82987100D02*
X155170000Y-82987100D01*
X157250000Y-82987100D02*
X158775000Y-82987100D01*
X153650000Y-82947100D02*
X155170000Y-82947100D01*
X157250000Y-82947100D02*
X158770000Y-82947100D01*
X153655000Y-82907100D02*
X155170000Y-82907100D01*
X157250000Y-82907100D02*
X158765000Y-82907100D01*
X153661000Y-82867100D02*
X155170000Y-82867100D01*
X157250000Y-82867100D02*
X158759000Y-82867100D01*
X153667000Y-82827100D02*
X155170000Y-82827100D01*
X157250000Y-82827100D02*
X158753000Y-82827100D01*
X153674000Y-82787100D02*
X155170000Y-82787100D01*
X157250000Y-82787100D02*
X158746000Y-82787100D01*
X153682000Y-82747100D02*
X155170000Y-82747100D01*
X157250000Y-82747100D02*
X158738000Y-82747100D01*
X153691000Y-82707100D02*
X155170000Y-82707100D01*
X157250000Y-82707100D02*
X158729000Y-82707100D01*
X153700000Y-82667100D02*
X155170000Y-82667100D01*
X157250000Y-82667100D02*
X158720000Y-82667100D01*
X153709000Y-82627100D02*
X155170000Y-82627100D01*
X157250000Y-82627100D02*
X158711000Y-82627100D01*
X153720000Y-82587100D02*
X155170000Y-82587100D01*
X157250000Y-82587100D02*
X158700000Y-82587100D01*
X153731000Y-82547100D02*
X155170000Y-82547100D01*
X157250000Y-82547100D02*
X158689000Y-82547100D01*
X153743000Y-82507100D02*
X155170000Y-82507100D01*
X157250000Y-82507100D02*
X158677000Y-82507100D01*
X153755000Y-82467100D02*
X155170000Y-82467100D01*
X157250000Y-82467100D02*
X158665000Y-82467100D01*
X153768000Y-82427100D02*
X155170000Y-82427100D01*
X157250000Y-82427100D02*
X158652000Y-82427100D01*
X153782000Y-82387100D02*
X155170000Y-82387100D01*
X157250000Y-82387100D02*
X158638000Y-82387100D01*
X153797000Y-82347100D02*
X155170000Y-82347100D01*
X157250000Y-82347100D02*
X158623000Y-82347100D01*
X153812000Y-82307100D02*
X155170000Y-82307100D01*
X157250000Y-82307100D02*
X158608000Y-82307100D01*
X153828000Y-82267100D02*
X155170000Y-82267100D01*
X157250000Y-82267100D02*
X158592000Y-82267100D01*
X153845000Y-82227100D02*
X155170000Y-82227100D01*
X157250000Y-82227100D02*
X158575000Y-82227100D01*
X153863000Y-82187100D02*
X155170000Y-82187100D01*
X157250000Y-82187100D02*
X158557000Y-82187100D01*
X153881000Y-82147100D02*
X155170000Y-82147100D01*
X157250000Y-82147100D02*
X158539000Y-82147100D01*
X153901000Y-82107100D02*
X155170000Y-82107100D01*
X157250000Y-82107100D02*
X158519000Y-82107100D01*
X153921000Y-82067100D02*
X155170000Y-82067100D01*
X157250000Y-82067100D02*
X158499000Y-82067100D01*
X153942000Y-82027100D02*
X155170000Y-82027100D01*
X157250000Y-82027100D02*
X158478000Y-82027100D01*
X153964000Y-81987100D02*
X155170000Y-81987100D01*
X157250000Y-81987100D02*
X158456000Y-81987100D01*
X153987000Y-81947100D02*
X155170000Y-81947100D01*
X157250000Y-81947100D02*
X158433000Y-81947100D01*
X154011000Y-81907100D02*
X155170000Y-81907100D01*
X157250000Y-81907100D02*
X158409000Y-81907100D01*
X154035000Y-81867100D02*
X155170000Y-81867100D01*
X157250000Y-81867100D02*
X158385000Y-81867100D01*
X154061000Y-81827100D02*
X155170000Y-81827100D01*
X157250000Y-81827100D02*
X158359000Y-81827100D01*
X154088000Y-81787100D02*
X155170000Y-81787100D01*
X157250000Y-81787100D02*
X158332000Y-81787100D01*
X154116000Y-81747100D02*
X155170000Y-81747100D01*
X157250000Y-81747100D02*
X158304000Y-81747100D01*
X154145000Y-81707100D02*
X155170000Y-81707100D01*
X157250000Y-81707100D02*
X158275000Y-81707100D01*
X154175000Y-81667100D02*
X155170000Y-81667100D01*
X157250000Y-81667100D02*
X158245000Y-81667100D01*
X154207000Y-81627100D02*
X155170000Y-81627100D01*
X157250000Y-81627100D02*
X158213000Y-81627100D01*
X154240000Y-81587100D02*
X155170000Y-81587100D01*
X157250000Y-81587100D02*
X158180000Y-81587100D01*
X154274000Y-81547100D02*
X155170000Y-81547100D01*
X157250000Y-81547100D02*
X158146000Y-81547100D01*
X154309000Y-81507100D02*
X155170000Y-81507100D01*
X157250000Y-81507100D02*
X158111000Y-81507100D01*
X154346000Y-81467100D02*
X155170000Y-81467100D01*
X157250000Y-81467100D02*
X158074000Y-81467100D01*
X154385000Y-81427100D02*
X155170000Y-81427100D01*
X157250000Y-81427100D02*
X158035000Y-81427100D01*
X154425000Y-81387100D02*
X155170000Y-81387100D01*
X157250000Y-81387100D02*
X157995000Y-81387100D01*
X154467000Y-81347100D02*
X155170000Y-81347100D01*
X157250000Y-81347100D02*
X157953000Y-81347100D01*
X154511000Y-81307100D02*
X155170000Y-81307100D01*
X157250000Y-81307100D02*
X157909000Y-81307100D01*
X154558000Y-81267100D02*
X155170000Y-81267100D01*
X157250000Y-81267100D02*
X157862000Y-81267100D01*
X154606000Y-81227100D02*
X157814000Y-81227100D01*
X154657000Y-81187100D02*
X157763000Y-81187100D01*
X154711000Y-81147100D02*
X157709000Y-81147100D01*
X154767000Y-81107100D02*
X157653000Y-81107100D01*
X154827000Y-81067100D02*
X157593000Y-81067100D01*
X154891000Y-81027100D02*
X157529000Y-81027100D01*
X154959000Y-80987100D02*
X157461000Y-80987100D01*
X155033000Y-80947100D02*
X157387000Y-80947100D01*
X155112000Y-80907100D02*
X157308000Y-80907100D01*
X155199000Y-80867100D02*
X157221000Y-80867100D01*
X155296000Y-80827100D02*
X157124000Y-80827100D01*
X155405000Y-80787100D02*
X157015000Y-80787100D01*
X155533000Y-80747100D02*
X156887000Y-80747100D01*
X155693000Y-80707100D02*
X156727000Y-80707100D01*
X155927000Y-80667100D02*
X156493000Y-80667100D01*
X158830000Y-83267100D02*
G75*
G02*
X153590000Y-83267100I-2620000J0D01*
G01*
X153590000Y-83267100D02*
G75*
G02*
X158830000Y-83267100I2620000J0D01*
G01*
X167784000Y-92566000D02*
X167784000Y-91186000D01*
X169164000Y-92566000D02*
X167784000Y-92566000D01*
X170434000Y-92566000D02*
X175624000Y-92566000D01*
X170434000Y-92566000D02*
X170434000Y-89806000D01*
X175624000Y-92566000D02*
X175624000Y-89806000D01*
X170434000Y-89806000D02*
X175624000Y-89806000D01*
X123583000Y-73854000D02*
X123583000Y-124774000D01*
X123583000Y-124774000D02*
X136503000Y-124774000D01*
X129043000Y-73854000D02*
X123583000Y-73854000D01*
X136503000Y-73854000D02*
X131043000Y-73854000D01*
X136503000Y-124774000D02*
X136503000Y-73854000D01*
X121093000Y-73794000D02*
X138993000Y-73794000D01*
X138993000Y-124834000D01*
X121093000Y-124834000D01*
X121093000Y-73794000D01*
X131043000Y-73854000D02*
G75*
G02*
X129043000Y-73854000I-1000000J0D01*
G01*
X151230000Y-129859000D02*
X151230000Y-99259000D01*
X151230000Y-99259000D02*
X145930000Y-99259000D01*
X149580000Y-129859000D02*
X151230000Y-129859000D01*
X145930000Y-129859000D02*
X147580000Y-129859000D01*
X145930000Y-99259000D02*
X145930000Y-129859000D01*
X153720000Y-129919000D02*
X143440000Y-129919000D01*
X143440000Y-99199000D01*
X153720000Y-99199000D01*
X153720000Y-129919000D01*
X147580000Y-129859000D02*
G75*
G02*
X149580000Y-129859000I1000000J0D01*
G01*
X160159000Y-93397000D02*
X160159000Y-129077000D01*
X160159000Y-129077000D02*
X173079000Y-129077000D01*
X165619000Y-93397000D02*
X160159000Y-93397000D01*
X173079000Y-93397000D02*
X167619000Y-93397000D01*
X173079000Y-129077000D02*
X173079000Y-93397000D01*
X157669000Y-93337000D02*
X175569000Y-93337000D01*
X175569000Y-129137000D01*
X157669000Y-129137000D01*
X157669000Y-93337000D01*
X167619000Y-93397000D02*
G75*
G02*
X165619000Y-93397000I-1000000J0D01*
G01*
X145686000Y-54246000D02*
X147066000Y-54246000D01*
X145686000Y-55626000D02*
X145686000Y-54246000D01*
X145686000Y-56896000D02*
X145686000Y-67166000D01*
X145686000Y-56896000D02*
X148336000Y-56896000D01*
X145686000Y-67166000D02*
X150986000Y-67166000D01*
X148336000Y-54246000D02*
X150986000Y-54246000D01*
X148336000Y-56896000D02*
X148336000Y-54246000D01*
X150986000Y-54246000D02*
X150986000Y-67166000D01*
X174603000Y-80403000D02*
X174603000Y-81783000D01*
X173223000Y-80403000D02*
X174603000Y-80403000D01*
X171953000Y-80403000D02*
X161683000Y-80403000D01*
X171953000Y-80403000D02*
X171953000Y-83053000D01*
X161683000Y-80403000D02*
X161683000Y-85703000D01*
X174603000Y-83053000D02*
X174603000Y-85703000D01*
X171953000Y-83053000D02*
X174603000Y-83053000D01*
X174603000Y-85703000D02*
X161683000Y-85703000D01*
X157420000Y-73074000D02*
X175320000Y-73074000D01*
X175320000Y-73074000D02*
X175320000Y-67774000D01*
X157420000Y-71424000D02*
X157420000Y-73074000D01*
X157420000Y-67774000D02*
X157420000Y-69424000D01*
X175320000Y-67774000D02*
X157420000Y-67774000D01*
X157360000Y-75564000D02*
X175380000Y-75564000D01*
X175380000Y-65284000D01*
X157360000Y-65284000D01*
X157360000Y-75564000D01*
X157420000Y-69424000D02*
G75*
G02*
X157420000Y-71424000I0J-1000000D01*
G01*
X157420000Y-61324000D02*
X175320000Y-61324000D01*
X175320000Y-61324000D02*
X175320000Y-56024000D01*
X157420000Y-59674000D02*
X157420000Y-61324000D01*
X157420000Y-56024000D02*
X157420000Y-57674000D01*
X175320000Y-56024000D02*
X157420000Y-56024000D01*
X157360000Y-63814000D02*
X175380000Y-63814000D01*
X175380000Y-53534000D01*
X157360000Y-53534000D01*
X157360000Y-63814000D01*
X157420000Y-57674000D02*
G75*
G02*
X157420000Y-59674000I0J-1000000D01*
G01*
X142010000Y-75184000D02*
X142780000Y-75184000D01*
X142780000Y-76554000D02*
X149320000Y-76554000D01*
X149320000Y-76554000D02*
X149320000Y-73814000D01*
X150090000Y-75184000D02*
X149320000Y-75184000D01*
X142780000Y-73814000D02*
X142780000Y-76554000D01*
X149320000Y-73814000D02*
X142780000Y-73814000D01*
X128882000Y-72998000D02*
X128882000Y-70258000D01*
X128882000Y-72998000D02*
X121642000Y-72998000D01*
X121642000Y-72998000D02*
X121642000Y-70258000D01*
X128882000Y-70258000D02*
X121642000Y-70258000D01*
D13*
X136976000Y-52794000D02*
X139976000Y-52794000D01*
X129276000Y-52794000D02*
X131676000Y-52794000D01*
X120476000Y-69794000D02*
X140476000Y-69794000D01*
X120476000Y-52294000D02*
X120476000Y-69794000D01*
X120976000Y-52794000D02*
X123976000Y-52794000D01*
X140476000Y-69794000D02*
X140476000Y-52294000D01*
D14*
X154078000Y-94384000D02*
X154078000Y-101624000D01*
X156818000Y-94384000D02*
X156818000Y-101624000D01*
X156818000Y-94384000D02*
X154078000Y-94384000D01*
X156818000Y-101624000D02*
X154078000Y-101624000D01*
X132330000Y-129136000D02*
X132330000Y-126896000D01*
X128690000Y-126896000D02*
X128690000Y-129136000D01*
X128690000Y-129136000D02*
X132930000Y-129136000D01*
X132090000Y-129136000D02*
X132090000Y-126896000D01*
X128040000Y-128016000D02*
X128690000Y-128016000D01*
X132210000Y-129136000D02*
X132210000Y-126896000D01*
X132930000Y-126896000D02*
X128690000Y-126896000D01*
X133580000Y-128016000D02*
X132930000Y-128016000D01*
X132930000Y-129136000D02*
X132930000Y-126896000D01*
X142780000Y-86460000D02*
X149320000Y-86460000D01*
X142780000Y-83720000D02*
X142780000Y-86460000D01*
X149320000Y-83720000D02*
X142780000Y-83720000D01*
X142010000Y-85090000D02*
X142780000Y-85090000D01*
X149320000Y-86460000D02*
X149320000Y-83720000D01*
X150090000Y-85090000D02*
X149320000Y-85090000D01*
D15*
X153253100Y-94259600D02*
G75*
G02*
X143253100Y-94259600I-5000000J0D01*
G01*
X143253100Y-94259600D02*
G75*
G02*
X153253100Y-94259600I5000000J0D01*
G01*
D14*
X142780000Y-77116000D02*
X142780000Y-79856000D01*
X142010000Y-78486000D02*
X142780000Y-78486000D01*
X150090000Y-78486000D02*
X149320000Y-78486000D01*
X149320000Y-77116000D02*
X142780000Y-77116000D01*
X142780000Y-79856000D02*
X149320000Y-79856000D01*
X149320000Y-79856000D02*
X149320000Y-77116000D01*
X156818000Y-65494000D02*
X154078000Y-65494000D01*
X154078000Y-65494000D02*
X154078000Y-72734000D01*
X156818000Y-72734000D02*
X154078000Y-72734000D01*
X156818000Y-65494000D02*
X156818000Y-72734000D01*
X154078000Y-53810000D02*
X154078000Y-61050000D01*
X156818000Y-53810000D02*
X154078000Y-53810000D01*
X156818000Y-53810000D02*
X156818000Y-61050000D01*
X156818000Y-61050000D02*
X154078000Y-61050000D01*
X149320000Y-83158000D02*
X149320000Y-80418000D01*
X142780000Y-83158000D02*
X149320000Y-83158000D01*
X150090000Y-81788000D02*
X149320000Y-81788000D01*
X149320000Y-80418000D02*
X142780000Y-80418000D01*
X142010000Y-81788000D02*
X142780000Y-81788000D01*
X142780000Y-80418000D02*
X142780000Y-83158000D01*
X149320000Y-73252000D02*
X149320000Y-70512000D01*
X142780000Y-73252000D02*
X149320000Y-73252000D01*
X142780000Y-70512000D02*
X142780000Y-73252000D01*
X149320000Y-70512000D02*
X142780000Y-70512000D01*
X142010000Y-71882000D02*
X142780000Y-71882000D01*
X150090000Y-71882000D02*
X149320000Y-71882000D01*
%LPC*%
D16*
X156210000Y-84267100D03*
D17*
X156210000Y-82267100D03*
D18*
X169164000Y-91186000D03*
D19*
X171704000Y-91186000D03*
X174244000Y-91186000D03*
D20*
X122423000Y-75184000D03*
D17*
X122423000Y-77724000D03*
X122423000Y-80264000D03*
X122423000Y-82804000D03*
X122423000Y-85344000D03*
X122423000Y-87884000D03*
X122423000Y-90424000D03*
X122423000Y-92964000D03*
X122423000Y-95504000D03*
X122423000Y-98044000D03*
X122423000Y-100584000D03*
X122423000Y-103124000D03*
X122423000Y-105664000D03*
X122423000Y-108204000D03*
X122423000Y-110744000D03*
X122423000Y-113284000D03*
X122423000Y-115824000D03*
X122423000Y-118364000D03*
X122423000Y-120904000D03*
X122423000Y-123444000D03*
X137663000Y-123444000D03*
X137663000Y-120904000D03*
X137663000Y-118364000D03*
X137663000Y-115824000D03*
X137663000Y-113284000D03*
X137663000Y-110744000D03*
X137663000Y-108204000D03*
X137663000Y-105664000D03*
X137663000Y-103124000D03*
X137663000Y-100584000D03*
X137663000Y-98044000D03*
X137663000Y-95504000D03*
X137663000Y-92964000D03*
X137663000Y-90424000D03*
X137663000Y-87884000D03*
X137663000Y-85344000D03*
X137663000Y-82804000D03*
X137663000Y-80264000D03*
X137663000Y-77724000D03*
X137663000Y-75184000D03*
D21*
X152390000Y-128529000D03*
D17*
X152390000Y-125989000D03*
X152390000Y-123449000D03*
X152390000Y-120909000D03*
X152390000Y-118369000D03*
X152390000Y-115829000D03*
X152390000Y-113289000D03*
X152390000Y-110749000D03*
X152390000Y-108209000D03*
X152390000Y-105669000D03*
X152390000Y-103129000D03*
X152390000Y-100589000D03*
X144770000Y-100589000D03*
X144770000Y-103129000D03*
X144770000Y-105669000D03*
X144770000Y-108209000D03*
X144770000Y-110749000D03*
X144770000Y-113289000D03*
X144770000Y-115829000D03*
X144770000Y-118369000D03*
X144770000Y-120909000D03*
X144770000Y-123449000D03*
X144770000Y-125989000D03*
X144770000Y-128529000D03*
D20*
X158999000Y-94727000D03*
D17*
X158999000Y-97267000D03*
X158999000Y-99807000D03*
X158999000Y-102347000D03*
X158999000Y-104887000D03*
X158999000Y-107427000D03*
X158999000Y-109967000D03*
X158999000Y-112507000D03*
X158999000Y-115047000D03*
X158999000Y-117587000D03*
X158999000Y-120127000D03*
X158999000Y-122667000D03*
X158999000Y-125207000D03*
X158999000Y-127747000D03*
X174239000Y-127747000D03*
X174239000Y-125207000D03*
X174239000Y-122667000D03*
X174239000Y-120127000D03*
X174239000Y-117587000D03*
X174239000Y-115047000D03*
X174239000Y-112507000D03*
X174239000Y-109967000D03*
X174239000Y-107427000D03*
X174239000Y-104887000D03*
X174239000Y-102347000D03*
X174239000Y-99807000D03*
X174239000Y-97267000D03*
X174239000Y-94727000D03*
D18*
X147066000Y-55626000D03*
D19*
X149606000Y-55626000D03*
X147066000Y-58166000D03*
X149606000Y-58166000D03*
X147066000Y-60706000D03*
X149606000Y-60706000D03*
X147066000Y-63246000D03*
X149606000Y-63246000D03*
X147066000Y-65786000D03*
X149606000Y-65786000D03*
D18*
X173223000Y-81783000D03*
D19*
X173223000Y-84323000D03*
X170683000Y-81783000D03*
X170683000Y-84323000D03*
X168143000Y-81783000D03*
X168143000Y-84323000D03*
X165603000Y-81783000D03*
X165603000Y-84323000D03*
X163063000Y-81783000D03*
X163063000Y-84323000D03*
D22*
X158750000Y-74234000D03*
D17*
X161290000Y-74234000D03*
X163830000Y-74234000D03*
X166370000Y-74234000D03*
X168910000Y-74234000D03*
X171450000Y-74234000D03*
X173990000Y-74234000D03*
X173990000Y-66614000D03*
X171450000Y-66614000D03*
X168910000Y-66614000D03*
X166370000Y-66614000D03*
X163830000Y-66614000D03*
X161290000Y-66614000D03*
X158750000Y-66614000D03*
D22*
X158750000Y-62484000D03*
D17*
X161290000Y-62484000D03*
X163830000Y-62484000D03*
X166370000Y-62484000D03*
X168910000Y-62484000D03*
X171450000Y-62484000D03*
X173990000Y-62484000D03*
X173990000Y-54864000D03*
X171450000Y-54864000D03*
X168910000Y-54864000D03*
X166370000Y-54864000D03*
X163830000Y-54864000D03*
X161290000Y-54864000D03*
X158750000Y-54864000D03*
X140970000Y-75184000D03*
D23*
X151130000Y-75184000D03*
D17*
X127762000Y-71628000D03*
X122762000Y-71628000D03*
D24*
X127976000Y-53294000D03*
X125476000Y-53594000D03*
X132976000Y-53294000D03*
X135476000Y-53594000D03*
D25*
X122976000Y-63294000D03*
X125476000Y-65794000D03*
X130476000Y-63294000D03*
X135476000Y-65794000D03*
X137976000Y-63294000D03*
X130476000Y-68294000D03*
D17*
X155448000Y-95504000D03*
X155448000Y-100504000D03*
D16*
X134620000Y-128016000D03*
D23*
X127000000Y-128016000D03*
D17*
X140970000Y-85090000D03*
D23*
X151130000Y-85090000D03*
D26*
X148253100Y-94259600D03*
D27*
X124253100Y-137759600D03*
X126253100Y-137759600D03*
X128253100Y-137759600D03*
X130253100Y-137759600D03*
X132253100Y-137759600D03*
X134253100Y-137759600D03*
X136253100Y-137759600D03*
X138253100Y-137759600D03*
X140253100Y-137759600D03*
X142253100Y-137759600D03*
X144253100Y-137759600D03*
X146253100Y-137759600D03*
X148253100Y-137759600D03*
X150253100Y-137759600D03*
X152253100Y-137759600D03*
X154253100Y-137759600D03*
X156253100Y-137759600D03*
X158253100Y-137759600D03*
X160253100Y-137759600D03*
X162253100Y-137759600D03*
X164253100Y-137759600D03*
X166253100Y-137759600D03*
X168253100Y-137759600D03*
X170253100Y-137759600D03*
X172253100Y-137759600D03*
D17*
X140970000Y-78486000D03*
D23*
X151130000Y-78486000D03*
D17*
X155448000Y-66614000D03*
X155448000Y-71614000D03*
X155448000Y-54930000D03*
X155448000Y-59930000D03*
X140970000Y-81788000D03*
D23*
X151130000Y-81788000D03*
D17*
X140970000Y-71882000D03*
D23*
X151130000Y-71882000D03*
%LPD*%
M02*
