%TF.GenerationSoftware,KiCad,Pcbnew,9.0.1*%
%TF.CreationDate,2025-07-08T00:04:54+02:00*%
%TF.ProjectId,burstcart-via,62757273-7463-4617-9274-2d7669612e6b,1.1b*%
%TF.SameCoordinates,Original*%
%TF.FileFunction,Drillmap*%
%TF.FilePolarity,Positive*%
%FSLAX45Y45*%
G04 Gerber Fmt 4.5, Leading zero omitted, Abs format (unit mm)*
G04 Created by KiCad (PCBNEW 9.0.1) date 2025-07-08 00:04:54*
%MOMM*%
%LPD*%
G01*
G04 APERTURE LIST*
%ADD10C,0.050000*%
%ADD11C,0.200000*%
%ADD12C,0.100000*%
%ADD13C,0.120000*%
%ADD14C,0.130000*%
G04 APERTURE END LIST*
D10*
X17625310Y-13275960D02*
X17425310Y-13275960D01*
X12025310Y-13275960D02*
X12025310Y-5175960D01*
X12025310Y-13275960D02*
X12225310Y-13275960D01*
X17325310Y-14275960D02*
X17425310Y-14175960D01*
X12025310Y-5175960D02*
X17625310Y-5175960D01*
X17425310Y-14175960D02*
X17425310Y-13275960D01*
X12225310Y-14175960D02*
X12225310Y-13275960D01*
X12325310Y-14275960D02*
X17325310Y-14275960D01*
X17625310Y-13275960D02*
X17625310Y-5175960D01*
X12325310Y-14275960D02*
X12225310Y-14175960D01*
D11*
D12*
X12297260Y-13671200D02*
X12337260Y-13711200D01*
X12337260Y-13671200D02*
X12297260Y-13711200D01*
X12518740Y-12481610D02*
X12558740Y-12521610D01*
X12558740Y-12481610D02*
X12518740Y-12521610D01*
X12595050Y-12184380D02*
X12635050Y-12224380D01*
X12635050Y-12184380D02*
X12595050Y-12224380D01*
X12814600Y-10733550D02*
X12854600Y-10773550D01*
X12854600Y-10733550D02*
X12814600Y-10773550D01*
X12855760Y-13184910D02*
X12895760Y-13224910D01*
X12895760Y-13184910D02*
X12855760Y-13224910D01*
X12955180Y-9456720D02*
X12995180Y-9496720D01*
X12995180Y-9456720D02*
X12955180Y-9496720D01*
X13005310Y-12335380D02*
X13045310Y-12375380D01*
X13045310Y-12335380D02*
X13005310Y-12375380D01*
X13068560Y-12527630D02*
X13108560Y-12567630D01*
X13108560Y-12527630D02*
X13068560Y-12567630D01*
X13362420Y-8537870D02*
X13402420Y-8577870D01*
X13402420Y-8537870D02*
X13362420Y-8577870D01*
X13389390Y-11680890D02*
X13429390Y-11720890D01*
X13429390Y-11680890D02*
X13389390Y-11720890D01*
X13505520Y-8501180D02*
X13545520Y-8541180D01*
X13545520Y-8501180D02*
X13505520Y-8541180D01*
X13526780Y-9513850D02*
X13566780Y-9553850D01*
X13566780Y-9513850D02*
X13526780Y-9553850D01*
X13549130Y-9324930D02*
X13589130Y-9364930D01*
X13589130Y-9324930D02*
X13549130Y-9364930D01*
X13569000Y-13179470D02*
X13609000Y-13219470D01*
X13609000Y-13179470D02*
X13569000Y-13219470D01*
X13578010Y-13014550D02*
X13618010Y-13054550D01*
X13618010Y-13014550D02*
X13578010Y-13054550D01*
X13823650Y-13201100D02*
X13863650Y-13241100D01*
X13863650Y-13201100D02*
X13823650Y-13241100D01*
X13829990Y-8629280D02*
X13869990Y-8669280D01*
X13869990Y-8629280D02*
X13829990Y-8669280D01*
X13888670Y-8208880D02*
X13928670Y-8248880D01*
X13928670Y-8208880D02*
X13888670Y-8248880D01*
X13896410Y-11064050D02*
X13936410Y-11104050D01*
X13936410Y-11064050D02*
X13896410Y-11104050D01*
X13903110Y-9622110D02*
X13943110Y-9662110D01*
X13943110Y-9622110D02*
X13903110Y-9662110D01*
X13908540Y-9008140D02*
X13948540Y-9048140D01*
X13948540Y-9008140D02*
X13908540Y-9048140D01*
X13912090Y-9113150D02*
X13952090Y-9153150D01*
X13952090Y-9113150D02*
X13912090Y-9153150D01*
X13933270Y-10853190D02*
X13973270Y-10893190D01*
X13973270Y-10853190D02*
X13933270Y-10893190D01*
X13936820Y-11798890D02*
X13976820Y-11838890D01*
X13976820Y-11798890D02*
X13936820Y-11838890D01*
X13941320Y-9263630D02*
X13981320Y-9303630D01*
X13981320Y-9263630D02*
X13941320Y-9303630D01*
X13954160Y-8729500D02*
X13994160Y-8769500D01*
X13994160Y-8729500D02*
X13954160Y-8769500D01*
X13977590Y-10211750D02*
X14017590Y-10251750D01*
X14017590Y-10211750D02*
X13977590Y-10251750D01*
X13981040Y-12076630D02*
X14021040Y-12116630D01*
X14021040Y-12076630D02*
X13981040Y-12116630D01*
X14005390Y-9560270D02*
X14045390Y-9600270D01*
X14045390Y-9560270D02*
X14005390Y-9600270D01*
X14055560Y-8730890D02*
X14095560Y-8770890D01*
X14095560Y-8730890D02*
X14055560Y-8770890D01*
X14082210Y-11811090D02*
X14122210Y-11851090D01*
X14122210Y-11811090D02*
X14082210Y-11851090D01*
X14104890Y-12650310D02*
X14144890Y-12690310D01*
X14144890Y-12650310D02*
X14104890Y-12690310D01*
X14115240Y-12004970D02*
X14155240Y-12044970D01*
X14155240Y-12004970D02*
X14115240Y-12044970D01*
X14133450Y-11619200D02*
X14173450Y-11659200D01*
X14173450Y-11619200D02*
X14133450Y-11659200D01*
X14135760Y-10813360D02*
X14175760Y-10853360D01*
X14175760Y-10813360D02*
X14135760Y-10853360D01*
X14176260Y-11062860D02*
X14216260Y-11102860D01*
X14216260Y-11062860D02*
X14176260Y-11102860D01*
X14211100Y-12647660D02*
X14251100Y-12687660D01*
X14251100Y-12647660D02*
X14211100Y-12687660D01*
X14219010Y-7169830D02*
X14259010Y-7209830D01*
X14259010Y-7169830D02*
X14219010Y-7209830D01*
X14220220Y-10754210D02*
X14260220Y-10794210D01*
X14260220Y-10754210D02*
X14220220Y-10794210D01*
X14254070Y-12213540D02*
X14294070Y-12253540D01*
X14294070Y-12213540D02*
X14254070Y-12253540D01*
X14275250Y-9389210D02*
X14315250Y-9429210D01*
X14315250Y-9389210D02*
X14275250Y-9429210D01*
X14287730Y-11190740D02*
X14327730Y-11230740D01*
X14327730Y-11190740D02*
X14287730Y-11230740D01*
X14312500Y-10213400D02*
X14352500Y-10253400D01*
X14352500Y-10213400D02*
X14312500Y-10253400D01*
X14494680Y-7442520D02*
X14534680Y-7482520D01*
X14534680Y-7442520D02*
X14494680Y-7482520D01*
X14566060Y-7515220D02*
X14606060Y-7555220D01*
X14606060Y-7515220D02*
X14566060Y-7555220D01*
X14579380Y-8187010D02*
X14619380Y-8227010D01*
X14619380Y-8187010D02*
X14579380Y-8227010D01*
X14615600Y-11194550D02*
X14655600Y-11234550D01*
X14655600Y-11194550D02*
X14615600Y-11234550D01*
X14662000Y-11421170D02*
X14702000Y-11461170D01*
X14702000Y-11421170D02*
X14662000Y-11461170D01*
X14707260Y-12789490D02*
X14747260Y-12829490D01*
X14747260Y-12789490D02*
X14707260Y-12829490D01*
X14817560Y-11017630D02*
X14857560Y-11057630D01*
X14857560Y-11017630D02*
X14817560Y-11057630D01*
X14818490Y-11148490D02*
X14858490Y-11188490D01*
X14858490Y-11148490D02*
X14818490Y-11188490D01*
X14832640Y-8135480D02*
X14872640Y-8175480D01*
X14872640Y-8135480D02*
X14832640Y-8175480D01*
X14837140Y-11880260D02*
X14877140Y-11920260D01*
X14877140Y-11880260D02*
X14837140Y-11920260D01*
X14885790Y-11471260D02*
X14925790Y-11511260D01*
X14925790Y-11471260D02*
X14885790Y-11511260D01*
X14924270Y-11576060D02*
X14964270Y-11616060D01*
X14964270Y-11576060D02*
X14924270Y-11616060D01*
X14948010Y-10218680D02*
X14988010Y-10258680D01*
X14988010Y-10218680D02*
X14948010Y-10258680D01*
X14959150Y-9947870D02*
X14999150Y-9987870D01*
X14999150Y-9947870D02*
X14959150Y-9987870D01*
X14969050Y-10363150D02*
X15009050Y-10403150D01*
X15009050Y-10363150D02*
X14969050Y-10403150D01*
X14982530Y-11916070D02*
X15022530Y-11956070D01*
X15022530Y-11916070D02*
X14982530Y-11956070D01*
X14997180Y-8772810D02*
X15037180Y-8812810D01*
X15037180Y-8772810D02*
X14997180Y-8812810D01*
X15019150Y-11251110D02*
X15059150Y-11291110D01*
X15059150Y-11251110D02*
X15019150Y-11291110D01*
X15079230Y-10370740D02*
X15119230Y-10410740D01*
X15119230Y-10370740D02*
X15079230Y-10410740D01*
X15102690Y-6677700D02*
X15142690Y-6717700D01*
X15142690Y-6677700D02*
X15102690Y-6717700D01*
X15150780Y-13145210D02*
X15190780Y-13185210D01*
X15190780Y-13145210D02*
X15150780Y-13185210D01*
X15175040Y-8739590D02*
X15215040Y-8779590D01*
X15215040Y-8739590D02*
X15175040Y-8779590D01*
X15192370Y-6475440D02*
X15232370Y-6515440D01*
X15232370Y-6475440D02*
X15192370Y-6515440D01*
X15233270Y-9895900D02*
X15273270Y-9935900D01*
X15273270Y-9895900D02*
X15233270Y-9935900D01*
X15280710Y-6988970D02*
X15320710Y-7028970D01*
X15320710Y-6988970D02*
X15280710Y-7028970D01*
X15302960Y-7719120D02*
X15342960Y-7759120D01*
X15342960Y-7719120D02*
X15302960Y-7759120D01*
X15306560Y-11449690D02*
X15346560Y-11489690D01*
X15346560Y-11449690D02*
X15306560Y-11489690D01*
X15356500Y-9888760D02*
X15396500Y-9928760D01*
X15396500Y-9888760D02*
X15356500Y-9928760D01*
X15356500Y-10385680D02*
X15396500Y-10425680D01*
X15396500Y-10385680D02*
X15356500Y-10425680D01*
X15361280Y-13107990D02*
X15401280Y-13147990D01*
X15401280Y-13107990D02*
X15361280Y-13147990D01*
X15363910Y-11093900D02*
X15403910Y-11133900D01*
X15403910Y-11093900D02*
X15363910Y-11133900D01*
X15409100Y-10873890D02*
X15449100Y-10913890D01*
X15449100Y-10873890D02*
X15409100Y-10913890D01*
X15439270Y-12964370D02*
X15479270Y-13004370D01*
X15479270Y-12964370D02*
X15439270Y-13004370D01*
X15455120Y-11787170D02*
X15495120Y-11827170D01*
X15495120Y-11787170D02*
X15455120Y-11827170D01*
X15503820Y-12095540D02*
X15543820Y-12135540D01*
X15543820Y-12095540D02*
X15503820Y-12135540D01*
X15550600Y-11638110D02*
X15590600Y-11678110D01*
X15590600Y-11638110D02*
X15550600Y-11678110D01*
X15554670Y-8756460D02*
X15594670Y-8796460D01*
X15594670Y-8756460D02*
X15554670Y-8796460D01*
X15602580Y-11441630D02*
X15642580Y-11481630D01*
X15642580Y-11441630D02*
X15602580Y-11481630D01*
X15603800Y-12751930D02*
X15643800Y-12791930D01*
X15643800Y-12751930D02*
X15603800Y-12791930D01*
X15634300Y-12608890D02*
X15674300Y-12648890D01*
X15674300Y-12608890D02*
X15634300Y-12648890D01*
X15638710Y-9240930D02*
X15678710Y-9280930D01*
X15678710Y-9240930D02*
X15638710Y-9280930D01*
X15653710Y-12443260D02*
X15693710Y-12483260D01*
X15693710Y-12443260D02*
X15653710Y-12483260D01*
X15672720Y-10492010D02*
X15712720Y-10532010D01*
X15712720Y-10492010D02*
X15672720Y-10532010D01*
X15674300Y-7963800D02*
X15714300Y-8003800D01*
X15714300Y-7963800D02*
X15674300Y-8003800D01*
X15679190Y-13160250D02*
X15719190Y-13200250D01*
X15719190Y-13160250D02*
X15679190Y-13200250D01*
X15696560Y-10637400D02*
X15736560Y-10677400D01*
X15736560Y-10637400D02*
X15696560Y-10677400D01*
X15712510Y-11729750D02*
X15752510Y-11769750D01*
X15752510Y-11729750D02*
X15712510Y-11769750D01*
X15726330Y-12935400D02*
X15766330Y-12975400D01*
X15766330Y-12935400D02*
X15726330Y-12975400D01*
X15840400Y-8521620D02*
X15880400Y-8561620D01*
X15880400Y-8521620D02*
X15840400Y-8561620D01*
X15878060Y-13189950D02*
X15918060Y-13229950D01*
X15918060Y-13189950D02*
X15878060Y-13229950D01*
X15947410Y-12996890D02*
X15987410Y-13036890D01*
X15987410Y-12996890D02*
X15947410Y-13036890D01*
X16000420Y-13093620D02*
X16040420Y-13133620D01*
X16040420Y-13093620D02*
X16000420Y-13133620D01*
X16038290Y-10475250D02*
X16078290Y-10515250D01*
X16078290Y-10475250D02*
X16038290Y-10515250D01*
X16051660Y-6491420D02*
X16091660Y-6531420D01*
X16091660Y-6491420D02*
X16051660Y-6531420D01*
X16052750Y-13183650D02*
X16092750Y-13223650D01*
X16092750Y-13183650D02*
X16052750Y-13223650D01*
X16123720Y-12680080D02*
X16163720Y-12720080D01*
X16163720Y-12680080D02*
X16123720Y-12720080D01*
X16125950Y-10758640D02*
X16165950Y-10798640D01*
X16165950Y-10758640D02*
X16125950Y-10798640D01*
X16129890Y-9781320D02*
X16169890Y-9821320D01*
X16169890Y-9781320D02*
X16129890Y-9821320D01*
X16130040Y-10874740D02*
X16170040Y-10914740D01*
X16170040Y-10874740D02*
X16130040Y-10914740D01*
X16157420Y-6902500D02*
X16197420Y-6942500D01*
X16197420Y-6902500D02*
X16157420Y-6942500D01*
X16179900Y-11453400D02*
X16219900Y-11493400D01*
X16219900Y-11453400D02*
X16179900Y-11493400D01*
X16188910Y-11831860D02*
X16228910Y-11871860D01*
X16228910Y-11831860D02*
X16188910Y-11871860D01*
X16199420Y-6439740D02*
X16239420Y-6479740D01*
X16239420Y-6439740D02*
X16199420Y-6479740D01*
X16210600Y-8884340D02*
X16250600Y-8924340D01*
X16250600Y-8884340D02*
X16210600Y-8924340D01*
X16233420Y-13111620D02*
X16273420Y-13151620D01*
X16273420Y-13111620D02*
X16233420Y-13151620D01*
X16240660Y-12158150D02*
X16280660Y-12198150D01*
X16280660Y-12158150D02*
X16240660Y-12198150D01*
X16243920Y-9666430D02*
X16283920Y-9706430D01*
X16283920Y-9666430D02*
X16243920Y-9706430D01*
X16246700Y-9381000D02*
X16286700Y-9421000D01*
X16286700Y-9381000D02*
X16246700Y-9421000D01*
X16276620Y-12023830D02*
X16316620Y-12063830D01*
X16316620Y-12023830D02*
X16276620Y-12063830D01*
X16282680Y-12655920D02*
X16322680Y-12695920D01*
X16322680Y-12655920D02*
X16282680Y-12695920D01*
X16297530Y-11896800D02*
X16337530Y-11936800D01*
X16337530Y-11896800D02*
X16297530Y-11936800D01*
X16356820Y-9227610D02*
X16396820Y-9267610D01*
X16396820Y-9227610D02*
X16356820Y-9267610D01*
X16370850Y-9999140D02*
X16410850Y-10039140D01*
X16410850Y-9999140D02*
X16370850Y-10039140D01*
X16383720Y-12640530D02*
X16423720Y-12680530D01*
X16423720Y-12640530D02*
X16383720Y-12680530D01*
X16404220Y-9866420D02*
X16444220Y-9906420D01*
X16444220Y-9866420D02*
X16404220Y-9906420D01*
X16405220Y-13109280D02*
X16445220Y-13149280D01*
X16445220Y-13109280D02*
X16405220Y-13149280D01*
X16444480Y-12330210D02*
X16484480Y-12370210D01*
X16484480Y-12330210D02*
X16444480Y-12370210D01*
X16446750Y-12814300D02*
X16486750Y-12854300D01*
X16486750Y-12814300D02*
X16446750Y-12854300D01*
X16511290Y-12580670D02*
X16551290Y-12620670D01*
X16551290Y-12580670D02*
X16511290Y-12620670D01*
X16546950Y-12825280D02*
X16586950Y-12865280D01*
X16586950Y-12825280D02*
X16546950Y-12865280D01*
X16678680Y-5742630D02*
X16718680Y-5782630D01*
X16718680Y-5742630D02*
X16678680Y-5782630D01*
X16704120Y-11375270D02*
X16744120Y-11415270D01*
X16744120Y-11375270D02*
X16704120Y-11415270D01*
X16715760Y-12781170D02*
X16755760Y-12821170D01*
X16755760Y-12781170D02*
X16715760Y-12821170D01*
X16743220Y-12505220D02*
X16783220Y-12545220D01*
X16783220Y-12505220D02*
X16743220Y-12545220D01*
X17158730Y-12920730D02*
X17198730Y-12960730D01*
X17198730Y-12920730D02*
X17158730Y-12960730D01*
X17310860Y-13687670D02*
X17350860Y-13727670D01*
X17350860Y-13687670D02*
X17310860Y-13727670D01*
X17347390Y-7997410D02*
X17387390Y-8037410D01*
X17387390Y-7997410D02*
X17347390Y-8037410D01*
X12282300Y-7518400D02*
G75*
G02*
X12202300Y-7518400I-40000J0D01*
G01*
X12202300Y-7518400D02*
G75*
G02*
X12282300Y-7518400I40000J0D01*
G01*
X12282300Y-7772400D02*
G75*
G02*
X12202300Y-7772400I-40000J0D01*
G01*
X12202300Y-7772400D02*
G75*
G02*
X12282300Y-7772400I40000J0D01*
G01*
X12282300Y-8026400D02*
G75*
G02*
X12202300Y-8026400I-40000J0D01*
G01*
X12202300Y-8026400D02*
G75*
G02*
X12282300Y-8026400I40000J0D01*
G01*
X12282300Y-8280400D02*
G75*
G02*
X12202300Y-8280400I-40000J0D01*
G01*
X12202300Y-8280400D02*
G75*
G02*
X12282300Y-8280400I40000J0D01*
G01*
X12282300Y-8534400D02*
G75*
G02*
X12202300Y-8534400I-40000J0D01*
G01*
X12202300Y-8534400D02*
G75*
G02*
X12282300Y-8534400I40000J0D01*
G01*
X12282300Y-8788400D02*
G75*
G02*
X12202300Y-8788400I-40000J0D01*
G01*
X12202300Y-8788400D02*
G75*
G02*
X12282300Y-8788400I40000J0D01*
G01*
X12282300Y-9042400D02*
G75*
G02*
X12202300Y-9042400I-40000J0D01*
G01*
X12202300Y-9042400D02*
G75*
G02*
X12282300Y-9042400I40000J0D01*
G01*
X12282300Y-9296400D02*
G75*
G02*
X12202300Y-9296400I-40000J0D01*
G01*
X12202300Y-9296400D02*
G75*
G02*
X12282300Y-9296400I40000J0D01*
G01*
X12282300Y-9550400D02*
G75*
G02*
X12202300Y-9550400I-40000J0D01*
G01*
X12202300Y-9550400D02*
G75*
G02*
X12282300Y-9550400I40000J0D01*
G01*
X12282300Y-9804400D02*
G75*
G02*
X12202300Y-9804400I-40000J0D01*
G01*
X12202300Y-9804400D02*
G75*
G02*
X12282300Y-9804400I40000J0D01*
G01*
X12282300Y-10058400D02*
G75*
G02*
X12202300Y-10058400I-40000J0D01*
G01*
X12202300Y-10058400D02*
G75*
G02*
X12282300Y-10058400I40000J0D01*
G01*
X12282300Y-10312400D02*
G75*
G02*
X12202300Y-10312400I-40000J0D01*
G01*
X12202300Y-10312400D02*
G75*
G02*
X12282300Y-10312400I40000J0D01*
G01*
X12282300Y-10566400D02*
G75*
G02*
X12202300Y-10566400I-40000J0D01*
G01*
X12202300Y-10566400D02*
G75*
G02*
X12282300Y-10566400I40000J0D01*
G01*
X12282300Y-10820400D02*
G75*
G02*
X12202300Y-10820400I-40000J0D01*
G01*
X12202300Y-10820400D02*
G75*
G02*
X12282300Y-10820400I40000J0D01*
G01*
X12282300Y-11074400D02*
G75*
G02*
X12202300Y-11074400I-40000J0D01*
G01*
X12202300Y-11074400D02*
G75*
G02*
X12282300Y-11074400I40000J0D01*
G01*
X12282300Y-11328400D02*
G75*
G02*
X12202300Y-11328400I-40000J0D01*
G01*
X12202300Y-11328400D02*
G75*
G02*
X12282300Y-11328400I40000J0D01*
G01*
X12282300Y-11582400D02*
G75*
G02*
X12202300Y-11582400I-40000J0D01*
G01*
X12202300Y-11582400D02*
G75*
G02*
X12282300Y-11582400I40000J0D01*
G01*
X12282300Y-11836400D02*
G75*
G02*
X12202300Y-11836400I-40000J0D01*
G01*
X12202300Y-11836400D02*
G75*
G02*
X12282300Y-11836400I40000J0D01*
G01*
X12282300Y-12090400D02*
G75*
G02*
X12202300Y-12090400I-40000J0D01*
G01*
X12202300Y-12090400D02*
G75*
G02*
X12282300Y-12090400I40000J0D01*
G01*
X12282300Y-12344400D02*
G75*
G02*
X12202300Y-12344400I-40000J0D01*
G01*
X12202300Y-12344400D02*
G75*
G02*
X12282300Y-12344400I40000J0D01*
G01*
X12316200Y-7162800D02*
G75*
G02*
X12236200Y-7162800I-40000J0D01*
G01*
X12236200Y-7162800D02*
G75*
G02*
X12316200Y-7162800I40000J0D01*
G01*
X12740000Y-12801600D02*
G75*
G02*
X12660000Y-12801600I-40000J0D01*
G01*
X12660000Y-12801600D02*
G75*
G02*
X12740000Y-12801600I40000J0D01*
G01*
X12816200Y-7162800D02*
G75*
G02*
X12736200Y-7162800I-40000J0D01*
G01*
X12736200Y-7162800D02*
G75*
G02*
X12816200Y-7162800I40000J0D01*
G01*
X13502000Y-12801600D02*
G75*
G02*
X13422000Y-12801600I-40000J0D01*
G01*
X13422000Y-12801600D02*
G75*
G02*
X13502000Y-12801600I40000J0D01*
G01*
X13806300Y-7518400D02*
G75*
G02*
X13726300Y-7518400I-40000J0D01*
G01*
X13726300Y-7518400D02*
G75*
G02*
X13806300Y-7518400I40000J0D01*
G01*
X13806300Y-7772400D02*
G75*
G02*
X13726300Y-7772400I-40000J0D01*
G01*
X13726300Y-7772400D02*
G75*
G02*
X13806300Y-7772400I40000J0D01*
G01*
X13806300Y-8026400D02*
G75*
G02*
X13726300Y-8026400I-40000J0D01*
G01*
X13726300Y-8026400D02*
G75*
G02*
X13806300Y-8026400I40000J0D01*
G01*
X13806300Y-8280400D02*
G75*
G02*
X13726300Y-8280400I-40000J0D01*
G01*
X13726300Y-8280400D02*
G75*
G02*
X13806300Y-8280400I40000J0D01*
G01*
X13806300Y-8534400D02*
G75*
G02*
X13726300Y-8534400I-40000J0D01*
G01*
X13726300Y-8534400D02*
G75*
G02*
X13806300Y-8534400I40000J0D01*
G01*
X13806300Y-8788400D02*
G75*
G02*
X13726300Y-8788400I-40000J0D01*
G01*
X13726300Y-8788400D02*
G75*
G02*
X13806300Y-8788400I40000J0D01*
G01*
X13806300Y-9042400D02*
G75*
G02*
X13726300Y-9042400I-40000J0D01*
G01*
X13726300Y-9042400D02*
G75*
G02*
X13806300Y-9042400I40000J0D01*
G01*
X13806300Y-9296400D02*
G75*
G02*
X13726300Y-9296400I-40000J0D01*
G01*
X13726300Y-9296400D02*
G75*
G02*
X13806300Y-9296400I40000J0D01*
G01*
X13806300Y-9550400D02*
G75*
G02*
X13726300Y-9550400I-40000J0D01*
G01*
X13726300Y-9550400D02*
G75*
G02*
X13806300Y-9550400I40000J0D01*
G01*
X13806300Y-9804400D02*
G75*
G02*
X13726300Y-9804400I-40000J0D01*
G01*
X13726300Y-9804400D02*
G75*
G02*
X13806300Y-9804400I40000J0D01*
G01*
X13806300Y-10058400D02*
G75*
G02*
X13726300Y-10058400I-40000J0D01*
G01*
X13726300Y-10058400D02*
G75*
G02*
X13806300Y-10058400I40000J0D01*
G01*
X13806300Y-10312400D02*
G75*
G02*
X13726300Y-10312400I-40000J0D01*
G01*
X13726300Y-10312400D02*
G75*
G02*
X13806300Y-10312400I40000J0D01*
G01*
X13806300Y-10566400D02*
G75*
G02*
X13726300Y-10566400I-40000J0D01*
G01*
X13726300Y-10566400D02*
G75*
G02*
X13806300Y-10566400I40000J0D01*
G01*
X13806300Y-10820400D02*
G75*
G02*
X13726300Y-10820400I-40000J0D01*
G01*
X13726300Y-10820400D02*
G75*
G02*
X13806300Y-10820400I40000J0D01*
G01*
X13806300Y-11074400D02*
G75*
G02*
X13726300Y-11074400I-40000J0D01*
G01*
X13726300Y-11074400D02*
G75*
G02*
X13806300Y-11074400I40000J0D01*
G01*
X13806300Y-11328400D02*
G75*
G02*
X13726300Y-11328400I-40000J0D01*
G01*
X13726300Y-11328400D02*
G75*
G02*
X13806300Y-11328400I40000J0D01*
G01*
X13806300Y-11582400D02*
G75*
G02*
X13726300Y-11582400I-40000J0D01*
G01*
X13726300Y-11582400D02*
G75*
G02*
X13806300Y-11582400I40000J0D01*
G01*
X13806300Y-11836400D02*
G75*
G02*
X13726300Y-11836400I-40000J0D01*
G01*
X13726300Y-11836400D02*
G75*
G02*
X13806300Y-11836400I40000J0D01*
G01*
X13806300Y-12090400D02*
G75*
G02*
X13726300Y-12090400I-40000J0D01*
G01*
X13726300Y-12090400D02*
G75*
G02*
X13806300Y-12090400I40000J0D01*
G01*
X13806300Y-12344400D02*
G75*
G02*
X13726300Y-12344400I-40000J0D01*
G01*
X13726300Y-12344400D02*
G75*
G02*
X13806300Y-12344400I40000J0D01*
G01*
X14137000Y-7188200D02*
G75*
G02*
X14057000Y-7188200I-40000J0D01*
G01*
X14057000Y-7188200D02*
G75*
G02*
X14137000Y-7188200I40000J0D01*
G01*
X14137000Y-7518400D02*
G75*
G02*
X14057000Y-7518400I-40000J0D01*
G01*
X14057000Y-7518400D02*
G75*
G02*
X14137000Y-7518400I40000J0D01*
G01*
X14137000Y-7848600D02*
G75*
G02*
X14057000Y-7848600I-40000J0D01*
G01*
X14057000Y-7848600D02*
G75*
G02*
X14137000Y-7848600I40000J0D01*
G01*
X14137000Y-8178800D02*
G75*
G02*
X14057000Y-8178800I-40000J0D01*
G01*
X14057000Y-8178800D02*
G75*
G02*
X14137000Y-8178800I40000J0D01*
G01*
X14137000Y-8509000D02*
G75*
G02*
X14057000Y-8509000I-40000J0D01*
G01*
X14057000Y-8509000D02*
G75*
G02*
X14137000Y-8509000I40000J0D01*
G01*
X14517000Y-10058900D02*
G75*
G02*
X14437000Y-10058900I-40000J0D01*
G01*
X14437000Y-10058900D02*
G75*
G02*
X14517000Y-10058900I40000J0D01*
G01*
X14517000Y-10312900D02*
G75*
G02*
X14437000Y-10312900I-40000J0D01*
G01*
X14437000Y-10312900D02*
G75*
G02*
X14517000Y-10312900I40000J0D01*
G01*
X14517000Y-10566900D02*
G75*
G02*
X14437000Y-10566900I-40000J0D01*
G01*
X14437000Y-10566900D02*
G75*
G02*
X14517000Y-10566900I40000J0D01*
G01*
X14517000Y-10820900D02*
G75*
G02*
X14437000Y-10820900I-40000J0D01*
G01*
X14437000Y-10820900D02*
G75*
G02*
X14517000Y-10820900I40000J0D01*
G01*
X14517000Y-11074900D02*
G75*
G02*
X14437000Y-11074900I-40000J0D01*
G01*
X14437000Y-11074900D02*
G75*
G02*
X14517000Y-11074900I40000J0D01*
G01*
X14517000Y-11328900D02*
G75*
G02*
X14437000Y-11328900I-40000J0D01*
G01*
X14437000Y-11328900D02*
G75*
G02*
X14517000Y-11328900I40000J0D01*
G01*
X14517000Y-11582900D02*
G75*
G02*
X14437000Y-11582900I-40000J0D01*
G01*
X14437000Y-11582900D02*
G75*
G02*
X14517000Y-11582900I40000J0D01*
G01*
X14517000Y-11836900D02*
G75*
G02*
X14437000Y-11836900I-40000J0D01*
G01*
X14437000Y-11836900D02*
G75*
G02*
X14517000Y-11836900I40000J0D01*
G01*
X14517000Y-12090900D02*
G75*
G02*
X14437000Y-12090900I-40000J0D01*
G01*
X14437000Y-12090900D02*
G75*
G02*
X14517000Y-12090900I40000J0D01*
G01*
X14517000Y-12344900D02*
G75*
G02*
X14437000Y-12344900I-40000J0D01*
G01*
X14437000Y-12344900D02*
G75*
G02*
X14517000Y-12344900I40000J0D01*
G01*
X14517000Y-12598900D02*
G75*
G02*
X14437000Y-12598900I-40000J0D01*
G01*
X14437000Y-12598900D02*
G75*
G02*
X14517000Y-12598900I40000J0D01*
G01*
X14517000Y-12852900D02*
G75*
G02*
X14437000Y-12852900I-40000J0D01*
G01*
X14437000Y-12852900D02*
G75*
G02*
X14517000Y-12852900I40000J0D01*
G01*
X15153000Y-7188200D02*
G75*
G02*
X15073000Y-7188200I-40000J0D01*
G01*
X15073000Y-7188200D02*
G75*
G02*
X15153000Y-7188200I40000J0D01*
G01*
X15153000Y-7518400D02*
G75*
G02*
X15073000Y-7518400I-40000J0D01*
G01*
X15073000Y-7518400D02*
G75*
G02*
X15153000Y-7518400I40000J0D01*
G01*
X15153000Y-7848600D02*
G75*
G02*
X15073000Y-7848600I-40000J0D01*
G01*
X15073000Y-7848600D02*
G75*
G02*
X15153000Y-7848600I40000J0D01*
G01*
X15153000Y-8178800D02*
G75*
G02*
X15073000Y-8178800I-40000J0D01*
G01*
X15073000Y-8178800D02*
G75*
G02*
X15153000Y-8178800I40000J0D01*
G01*
X15153000Y-8509000D02*
G75*
G02*
X15073000Y-8509000I-40000J0D01*
G01*
X15073000Y-8509000D02*
G75*
G02*
X15153000Y-8509000I40000J0D01*
G01*
X15279000Y-10058900D02*
G75*
G02*
X15199000Y-10058900I-40000J0D01*
G01*
X15199000Y-10058900D02*
G75*
G02*
X15279000Y-10058900I40000J0D01*
G01*
X15279000Y-10312900D02*
G75*
G02*
X15199000Y-10312900I-40000J0D01*
G01*
X15199000Y-10312900D02*
G75*
G02*
X15279000Y-10312900I40000J0D01*
G01*
X15279000Y-10566900D02*
G75*
G02*
X15199000Y-10566900I-40000J0D01*
G01*
X15199000Y-10566900D02*
G75*
G02*
X15279000Y-10566900I40000J0D01*
G01*
X15279000Y-10820900D02*
G75*
G02*
X15199000Y-10820900I-40000J0D01*
G01*
X15199000Y-10820900D02*
G75*
G02*
X15279000Y-10820900I40000J0D01*
G01*
X15279000Y-11074900D02*
G75*
G02*
X15199000Y-11074900I-40000J0D01*
G01*
X15199000Y-11074900D02*
G75*
G02*
X15279000Y-11074900I40000J0D01*
G01*
X15279000Y-11328900D02*
G75*
G02*
X15199000Y-11328900I-40000J0D01*
G01*
X15199000Y-11328900D02*
G75*
G02*
X15279000Y-11328900I40000J0D01*
G01*
X15279000Y-11582900D02*
G75*
G02*
X15199000Y-11582900I-40000J0D01*
G01*
X15199000Y-11582900D02*
G75*
G02*
X15279000Y-11582900I40000J0D01*
G01*
X15279000Y-11836900D02*
G75*
G02*
X15199000Y-11836900I-40000J0D01*
G01*
X15199000Y-11836900D02*
G75*
G02*
X15279000Y-11836900I40000J0D01*
G01*
X15279000Y-12090900D02*
G75*
G02*
X15199000Y-12090900I-40000J0D01*
G01*
X15199000Y-12090900D02*
G75*
G02*
X15279000Y-12090900I40000J0D01*
G01*
X15279000Y-12344900D02*
G75*
G02*
X15199000Y-12344900I-40000J0D01*
G01*
X15199000Y-12344900D02*
G75*
G02*
X15279000Y-12344900I40000J0D01*
G01*
X15279000Y-12598900D02*
G75*
G02*
X15199000Y-12598900I-40000J0D01*
G01*
X15199000Y-12598900D02*
G75*
G02*
X15279000Y-12598900I40000J0D01*
G01*
X15279000Y-12852900D02*
G75*
G02*
X15199000Y-12852900I-40000J0D01*
G01*
X15199000Y-12852900D02*
G75*
G02*
X15279000Y-12852900I40000J0D01*
G01*
X15584800Y-5493000D02*
G75*
G02*
X15504800Y-5493000I-40000J0D01*
G01*
X15504800Y-5493000D02*
G75*
G02*
X15584800Y-5493000I40000J0D01*
G01*
X15584800Y-5993000D02*
G75*
G02*
X15504800Y-5993000I-40000J0D01*
G01*
X15504800Y-5993000D02*
G75*
G02*
X15584800Y-5993000I40000J0D01*
G01*
X15584800Y-6661400D02*
G75*
G02*
X15504800Y-6661400I-40000J0D01*
G01*
X15504800Y-6661400D02*
G75*
G02*
X15584800Y-6661400I40000J0D01*
G01*
X15584800Y-7161400D02*
G75*
G02*
X15504800Y-7161400I-40000J0D01*
G01*
X15504800Y-7161400D02*
G75*
G02*
X15584800Y-7161400I40000J0D01*
G01*
X15584800Y-9550400D02*
G75*
G02*
X15504800Y-9550400I-40000J0D01*
G01*
X15504800Y-9550400D02*
G75*
G02*
X15584800Y-9550400I40000J0D01*
G01*
X15584800Y-10050400D02*
G75*
G02*
X15504800Y-10050400I-40000J0D01*
G01*
X15504800Y-10050400D02*
G75*
G02*
X15584800Y-10050400I40000J0D01*
G01*
X15661000Y-8226710D02*
G75*
G02*
X15581000Y-8226710I-40000J0D01*
G01*
X15581000Y-8226710D02*
G75*
G02*
X15661000Y-8226710I40000J0D01*
G01*
X15661000Y-8426710D02*
G75*
G02*
X15581000Y-8426710I-40000J0D01*
G01*
X15581000Y-8426710D02*
G75*
G02*
X15661000Y-8426710I40000J0D01*
G01*
X15915000Y-5486400D02*
G75*
G02*
X15835000Y-5486400I-40000J0D01*
G01*
X15835000Y-5486400D02*
G75*
G02*
X15915000Y-5486400I40000J0D01*
G01*
X15915000Y-6248400D02*
G75*
G02*
X15835000Y-6248400I-40000J0D01*
G01*
X15835000Y-6248400D02*
G75*
G02*
X15915000Y-6248400I40000J0D01*
G01*
X15915000Y-6661400D02*
G75*
G02*
X15835000Y-6661400I-40000J0D01*
G01*
X15835000Y-6661400D02*
G75*
G02*
X15915000Y-6661400I40000J0D01*
G01*
X15915000Y-7423400D02*
G75*
G02*
X15835000Y-7423400I-40000J0D01*
G01*
X15835000Y-7423400D02*
G75*
G02*
X15915000Y-7423400I40000J0D01*
G01*
X15939900Y-9472700D02*
G75*
G02*
X15859900Y-9472700I-40000J0D01*
G01*
X15859900Y-9472700D02*
G75*
G02*
X15939900Y-9472700I40000J0D01*
G01*
X15939900Y-9726700D02*
G75*
G02*
X15859900Y-9726700I-40000J0D01*
G01*
X15859900Y-9726700D02*
G75*
G02*
X15939900Y-9726700I40000J0D01*
G01*
X15939900Y-9980700D02*
G75*
G02*
X15859900Y-9980700I-40000J0D01*
G01*
X15859900Y-9980700D02*
G75*
G02*
X15939900Y-9980700I40000J0D01*
G01*
X15939900Y-10234700D02*
G75*
G02*
X15859900Y-10234700I-40000J0D01*
G01*
X15859900Y-10234700D02*
G75*
G02*
X15939900Y-10234700I40000J0D01*
G01*
X15939900Y-10488700D02*
G75*
G02*
X15859900Y-10488700I-40000J0D01*
G01*
X15859900Y-10488700D02*
G75*
G02*
X15939900Y-10488700I40000J0D01*
G01*
X15939900Y-10742700D02*
G75*
G02*
X15859900Y-10742700I-40000J0D01*
G01*
X15859900Y-10742700D02*
G75*
G02*
X15939900Y-10742700I40000J0D01*
G01*
X15939900Y-10996700D02*
G75*
G02*
X15859900Y-10996700I-40000J0D01*
G01*
X15859900Y-10996700D02*
G75*
G02*
X15939900Y-10996700I40000J0D01*
G01*
X15939900Y-11250700D02*
G75*
G02*
X15859900Y-11250700I-40000J0D01*
G01*
X15859900Y-11250700D02*
G75*
G02*
X15939900Y-11250700I40000J0D01*
G01*
X15939900Y-11504700D02*
G75*
G02*
X15859900Y-11504700I-40000J0D01*
G01*
X15859900Y-11504700D02*
G75*
G02*
X15939900Y-11504700I40000J0D01*
G01*
X15939900Y-11758700D02*
G75*
G02*
X15859900Y-11758700I-40000J0D01*
G01*
X15859900Y-11758700D02*
G75*
G02*
X15939900Y-11758700I40000J0D01*
G01*
X15939900Y-12012700D02*
G75*
G02*
X15859900Y-12012700I-40000J0D01*
G01*
X15859900Y-12012700D02*
G75*
G02*
X15939900Y-12012700I40000J0D01*
G01*
X15939900Y-12266700D02*
G75*
G02*
X15859900Y-12266700I-40000J0D01*
G01*
X15859900Y-12266700D02*
G75*
G02*
X15939900Y-12266700I40000J0D01*
G01*
X15939900Y-12520700D02*
G75*
G02*
X15859900Y-12520700I-40000J0D01*
G01*
X15859900Y-12520700D02*
G75*
G02*
X15939900Y-12520700I40000J0D01*
G01*
X15939900Y-12774700D02*
G75*
G02*
X15859900Y-12774700I-40000J0D01*
G01*
X15859900Y-12774700D02*
G75*
G02*
X15939900Y-12774700I40000J0D01*
G01*
X16169000Y-5486400D02*
G75*
G02*
X16089000Y-5486400I-40000J0D01*
G01*
X16089000Y-5486400D02*
G75*
G02*
X16169000Y-5486400I40000J0D01*
G01*
X16169000Y-6248400D02*
G75*
G02*
X16089000Y-6248400I-40000J0D01*
G01*
X16089000Y-6248400D02*
G75*
G02*
X16169000Y-6248400I40000J0D01*
G01*
X16169000Y-6661400D02*
G75*
G02*
X16089000Y-6661400I-40000J0D01*
G01*
X16089000Y-6661400D02*
G75*
G02*
X16169000Y-6661400I40000J0D01*
G01*
X16169000Y-7423400D02*
G75*
G02*
X16089000Y-7423400I-40000J0D01*
G01*
X16089000Y-7423400D02*
G75*
G02*
X16169000Y-7423400I40000J0D01*
G01*
X16423000Y-5486400D02*
G75*
G02*
X16343000Y-5486400I-40000J0D01*
G01*
X16343000Y-5486400D02*
G75*
G02*
X16423000Y-5486400I40000J0D01*
G01*
X16423000Y-6248400D02*
G75*
G02*
X16343000Y-6248400I-40000J0D01*
G01*
X16343000Y-6248400D02*
G75*
G02*
X16423000Y-6248400I40000J0D01*
G01*
X16423000Y-6661400D02*
G75*
G02*
X16343000Y-6661400I-40000J0D01*
G01*
X16343000Y-6661400D02*
G75*
G02*
X16423000Y-6661400I40000J0D01*
G01*
X16423000Y-7423400D02*
G75*
G02*
X16343000Y-7423400I-40000J0D01*
G01*
X16343000Y-7423400D02*
G75*
G02*
X16423000Y-7423400I40000J0D01*
G01*
X16677000Y-5486400D02*
G75*
G02*
X16597000Y-5486400I-40000J0D01*
G01*
X16597000Y-5486400D02*
G75*
G02*
X16677000Y-5486400I40000J0D01*
G01*
X16677000Y-6248400D02*
G75*
G02*
X16597000Y-6248400I-40000J0D01*
G01*
X16597000Y-6248400D02*
G75*
G02*
X16677000Y-6248400I40000J0D01*
G01*
X16677000Y-6661400D02*
G75*
G02*
X16597000Y-6661400I-40000J0D01*
G01*
X16597000Y-6661400D02*
G75*
G02*
X16677000Y-6661400I40000J0D01*
G01*
X16677000Y-7423400D02*
G75*
G02*
X16597000Y-7423400I-40000J0D01*
G01*
X16597000Y-7423400D02*
G75*
G02*
X16677000Y-7423400I40000J0D01*
G01*
X16931000Y-5486400D02*
G75*
G02*
X16851000Y-5486400I-40000J0D01*
G01*
X16851000Y-5486400D02*
G75*
G02*
X16931000Y-5486400I40000J0D01*
G01*
X16931000Y-6248400D02*
G75*
G02*
X16851000Y-6248400I-40000J0D01*
G01*
X16851000Y-6248400D02*
G75*
G02*
X16931000Y-6248400I40000J0D01*
G01*
X16931000Y-6661400D02*
G75*
G02*
X16851000Y-6661400I-40000J0D01*
G01*
X16851000Y-6661400D02*
G75*
G02*
X16931000Y-6661400I40000J0D01*
G01*
X16931000Y-7423400D02*
G75*
G02*
X16851000Y-7423400I-40000J0D01*
G01*
X16851000Y-7423400D02*
G75*
G02*
X16931000Y-7423400I40000J0D01*
G01*
X17185000Y-5486400D02*
G75*
G02*
X17105000Y-5486400I-40000J0D01*
G01*
X17105000Y-5486400D02*
G75*
G02*
X17185000Y-5486400I40000J0D01*
G01*
X17185000Y-6248400D02*
G75*
G02*
X17105000Y-6248400I-40000J0D01*
G01*
X17105000Y-6248400D02*
G75*
G02*
X17185000Y-6248400I40000J0D01*
G01*
X17185000Y-6661400D02*
G75*
G02*
X17105000Y-6661400I-40000J0D01*
G01*
X17105000Y-6661400D02*
G75*
G02*
X17185000Y-6661400I40000J0D01*
G01*
X17185000Y-7423400D02*
G75*
G02*
X17105000Y-7423400I-40000J0D01*
G01*
X17105000Y-7423400D02*
G75*
G02*
X17185000Y-7423400I40000J0D01*
G01*
X17439000Y-5486400D02*
G75*
G02*
X17359000Y-5486400I-40000J0D01*
G01*
X17359000Y-5486400D02*
G75*
G02*
X17439000Y-5486400I40000J0D01*
G01*
X17439000Y-6248400D02*
G75*
G02*
X17359000Y-6248400I-40000J0D01*
G01*
X17359000Y-6248400D02*
G75*
G02*
X17439000Y-6248400I40000J0D01*
G01*
X17439000Y-6661400D02*
G75*
G02*
X17359000Y-6661400I-40000J0D01*
G01*
X17359000Y-6661400D02*
G75*
G02*
X17439000Y-6661400I40000J0D01*
G01*
X17439000Y-7423400D02*
G75*
G02*
X17359000Y-7423400I-40000J0D01*
G01*
X17359000Y-7423400D02*
G75*
G02*
X17439000Y-7423400I40000J0D01*
G01*
X17463900Y-9472700D02*
G75*
G02*
X17383900Y-9472700I-40000J0D01*
G01*
X17383900Y-9472700D02*
G75*
G02*
X17463900Y-9472700I40000J0D01*
G01*
X17463900Y-9726700D02*
G75*
G02*
X17383900Y-9726700I-40000J0D01*
G01*
X17383900Y-9726700D02*
G75*
G02*
X17463900Y-9726700I40000J0D01*
G01*
X17463900Y-9980700D02*
G75*
G02*
X17383900Y-9980700I-40000J0D01*
G01*
X17383900Y-9980700D02*
G75*
G02*
X17463900Y-9980700I40000J0D01*
G01*
X17463900Y-10234700D02*
G75*
G02*
X17383900Y-10234700I-40000J0D01*
G01*
X17383900Y-10234700D02*
G75*
G02*
X17463900Y-10234700I40000J0D01*
G01*
X17463900Y-10488700D02*
G75*
G02*
X17383900Y-10488700I-40000J0D01*
G01*
X17383900Y-10488700D02*
G75*
G02*
X17463900Y-10488700I40000J0D01*
G01*
X17463900Y-10742700D02*
G75*
G02*
X17383900Y-10742700I-40000J0D01*
G01*
X17383900Y-10742700D02*
G75*
G02*
X17463900Y-10742700I40000J0D01*
G01*
X17463900Y-10996700D02*
G75*
G02*
X17383900Y-10996700I-40000J0D01*
G01*
X17383900Y-10996700D02*
G75*
G02*
X17463900Y-10996700I40000J0D01*
G01*
X17463900Y-11250700D02*
G75*
G02*
X17383900Y-11250700I-40000J0D01*
G01*
X17383900Y-11250700D02*
G75*
G02*
X17463900Y-11250700I40000J0D01*
G01*
X17463900Y-11504700D02*
G75*
G02*
X17383900Y-11504700I-40000J0D01*
G01*
X17383900Y-11504700D02*
G75*
G02*
X17463900Y-11504700I40000J0D01*
G01*
X17463900Y-11758700D02*
G75*
G02*
X17383900Y-11758700I-40000J0D01*
G01*
X17383900Y-11758700D02*
G75*
G02*
X17463900Y-11758700I40000J0D01*
G01*
X17463900Y-12012700D02*
G75*
G02*
X17383900Y-12012700I-40000J0D01*
G01*
X17383900Y-12012700D02*
G75*
G02*
X17463900Y-12012700I40000J0D01*
G01*
X17463900Y-12266700D02*
G75*
G02*
X17383900Y-12266700I-40000J0D01*
G01*
X17383900Y-12266700D02*
G75*
G02*
X17463900Y-12266700I40000J0D01*
G01*
X17463900Y-12520700D02*
G75*
G02*
X17383900Y-12520700I-40000J0D01*
G01*
X17383900Y-12520700D02*
G75*
G02*
X17463900Y-12520700I40000J0D01*
G01*
X17463900Y-12774700D02*
G75*
G02*
X17383900Y-12774700I-40000J0D01*
G01*
X17383900Y-12774700D02*
G75*
G02*
X17463900Y-12774700I40000J0D01*
G01*
X14706600Y-5512600D02*
X14706600Y-5612600D01*
X14656600Y-5562600D02*
X14756600Y-5562600D01*
X14706600Y-5766600D02*
X14706600Y-5866600D01*
X14656600Y-5816600D02*
X14756600Y-5816600D01*
X14706600Y-6020600D02*
X14706600Y-6120600D01*
X14656600Y-6070600D02*
X14756600Y-6070600D01*
X14706600Y-6274600D02*
X14706600Y-6374600D01*
X14656600Y-6324600D02*
X14756600Y-6324600D01*
X14706600Y-6528600D02*
X14706600Y-6628600D01*
X14656600Y-6578600D02*
X14756600Y-6578600D01*
X14960600Y-5512600D02*
X14960600Y-5612600D01*
X14910600Y-5562600D02*
X15010600Y-5562600D01*
X14960600Y-5766600D02*
X14960600Y-5866600D01*
X14910600Y-5816600D02*
X15010600Y-5816600D01*
X14960600Y-6020600D02*
X14960600Y-6120600D01*
X14910600Y-6070600D02*
X15010600Y-6070600D01*
X14960600Y-6274600D02*
X14960600Y-6374600D01*
X14910600Y-6324600D02*
X15010600Y-6324600D01*
X14960600Y-6528600D02*
X14960600Y-6628600D01*
X14910600Y-6578600D02*
X15010600Y-6578600D01*
X16306300Y-8128300D02*
X16306300Y-8228300D01*
X16256300Y-8178300D02*
X16356300Y-8178300D01*
X16306300Y-8382300D02*
X16306300Y-8482300D01*
X16256300Y-8432300D02*
X16356300Y-8432300D01*
X16560300Y-8128300D02*
X16560300Y-8228300D01*
X16510300Y-8178300D02*
X16610300Y-8178300D01*
X16560300Y-8382300D02*
X16560300Y-8482300D01*
X16510300Y-8432300D02*
X16610300Y-8432300D01*
X16814300Y-8128300D02*
X16814300Y-8228300D01*
X16764300Y-8178300D02*
X16864300Y-8178300D01*
X16814300Y-8382300D02*
X16814300Y-8482300D01*
X16764300Y-8432300D02*
X16864300Y-8432300D01*
X16916400Y-9068600D02*
X16916400Y-9168600D01*
X16866400Y-9118600D02*
X16966400Y-9118600D01*
X17068300Y-8128300D02*
X17068300Y-8228300D01*
X17018300Y-8178300D02*
X17118300Y-8178300D01*
X17068300Y-8382300D02*
X17068300Y-8482300D01*
X17018300Y-8432300D02*
X17118300Y-8432300D01*
X17170400Y-9068600D02*
X17170400Y-9168600D01*
X17120400Y-9118600D02*
X17220400Y-9118600D01*
X17322300Y-8128300D02*
X17322300Y-8228300D01*
X17272300Y-8178300D02*
X17372300Y-8178300D01*
X17322300Y-8382300D02*
X17322300Y-8482300D01*
X17272300Y-8432300D02*
X17372300Y-8432300D01*
X17424400Y-9068600D02*
X17424400Y-9168600D01*
X17374400Y-9118600D02*
X17474400Y-9118600D01*
D13*
X12590027Y-5401827D02*
X12590027Y-5316973D01*
X12505173Y-5316973D01*
X12505173Y-5401827D01*
X12590027Y-5401827D01*
X12840027Y-5371827D02*
X12840027Y-5286973D01*
X12755173Y-5286973D01*
X12755173Y-5371827D01*
X12840027Y-5371827D01*
X13340027Y-5371827D02*
X13340027Y-5286973D01*
X13255173Y-5286973D01*
X13255173Y-5371827D01*
X13340027Y-5371827D01*
X13590027Y-5401827D02*
X13590027Y-5316973D01*
X13505173Y-5316973D01*
X13505173Y-5401827D01*
X13590027Y-5401827D01*
D14*
X12297600Y-6394400D02*
X12362600Y-6329400D01*
X12297600Y-6264400D01*
X12232600Y-6329400D01*
X12297600Y-6394400D01*
X12547600Y-6644400D02*
X12612600Y-6579400D01*
X12547600Y-6514400D01*
X12482600Y-6579400D01*
X12547600Y-6644400D01*
X13047600Y-6394400D02*
X13112600Y-6329400D01*
X13047600Y-6264400D01*
X12982600Y-6329400D01*
X13047600Y-6394400D01*
X13047600Y-6894400D02*
X13112600Y-6829400D01*
X13047600Y-6764400D01*
X12982600Y-6829400D01*
X13047600Y-6894400D01*
X13547600Y-6644400D02*
X13612600Y-6579400D01*
X13547600Y-6514400D01*
X13482600Y-6579400D01*
X13547600Y-6644400D01*
X13797600Y-6394400D02*
X13862600Y-6329400D01*
X13797600Y-6264400D01*
X13732600Y-6329400D01*
X13797600Y-6394400D01*
D11*
X12283587Y-14589944D02*
X12283587Y-14389944D01*
X12283587Y-14389944D02*
X12331206Y-14389944D01*
X12331206Y-14389944D02*
X12359777Y-14399468D01*
X12359777Y-14399468D02*
X12378825Y-14418515D01*
X12378825Y-14418515D02*
X12388349Y-14437563D01*
X12388349Y-14437563D02*
X12397872Y-14475658D01*
X12397872Y-14475658D02*
X12397872Y-14504229D01*
X12397872Y-14504229D02*
X12388349Y-14542325D01*
X12388349Y-14542325D02*
X12378825Y-14561372D01*
X12378825Y-14561372D02*
X12359777Y-14580420D01*
X12359777Y-14580420D02*
X12331206Y-14589944D01*
X12331206Y-14589944D02*
X12283587Y-14589944D01*
X12483587Y-14589944D02*
X12483587Y-14456610D01*
X12483587Y-14494706D02*
X12493111Y-14475658D01*
X12493111Y-14475658D02*
X12502634Y-14466134D01*
X12502634Y-14466134D02*
X12521682Y-14456610D01*
X12521682Y-14456610D02*
X12540730Y-14456610D01*
X12607396Y-14589944D02*
X12607396Y-14456610D01*
X12607396Y-14389944D02*
X12597872Y-14399468D01*
X12597872Y-14399468D02*
X12607396Y-14408991D01*
X12607396Y-14408991D02*
X12616920Y-14399468D01*
X12616920Y-14399468D02*
X12607396Y-14389944D01*
X12607396Y-14389944D02*
X12607396Y-14408991D01*
X12731206Y-14589944D02*
X12712158Y-14580420D01*
X12712158Y-14580420D02*
X12702634Y-14561372D01*
X12702634Y-14561372D02*
X12702634Y-14389944D01*
X12835968Y-14589944D02*
X12816920Y-14580420D01*
X12816920Y-14580420D02*
X12807396Y-14561372D01*
X12807396Y-14561372D02*
X12807396Y-14389944D01*
X13064539Y-14589944D02*
X13064539Y-14389944D01*
X13064539Y-14389944D02*
X13131206Y-14532801D01*
X13131206Y-14532801D02*
X13197872Y-14389944D01*
X13197872Y-14389944D02*
X13197872Y-14589944D01*
X13378825Y-14589944D02*
X13378825Y-14485182D01*
X13378825Y-14485182D02*
X13369301Y-14466134D01*
X13369301Y-14466134D02*
X13350253Y-14456610D01*
X13350253Y-14456610D02*
X13312158Y-14456610D01*
X13312158Y-14456610D02*
X13293111Y-14466134D01*
X13378825Y-14580420D02*
X13359777Y-14589944D01*
X13359777Y-14589944D02*
X13312158Y-14589944D01*
X13312158Y-14589944D02*
X13293111Y-14580420D01*
X13293111Y-14580420D02*
X13283587Y-14561372D01*
X13283587Y-14561372D02*
X13283587Y-14542325D01*
X13283587Y-14542325D02*
X13293111Y-14523277D01*
X13293111Y-14523277D02*
X13312158Y-14513753D01*
X13312158Y-14513753D02*
X13359777Y-14513753D01*
X13359777Y-14513753D02*
X13378825Y-14504229D01*
X13474063Y-14456610D02*
X13474063Y-14656610D01*
X13474063Y-14466134D02*
X13493111Y-14456610D01*
X13493111Y-14456610D02*
X13531206Y-14456610D01*
X13531206Y-14456610D02*
X13550253Y-14466134D01*
X13550253Y-14466134D02*
X13559777Y-14475658D01*
X13559777Y-14475658D02*
X13569301Y-14494706D01*
X13569301Y-14494706D02*
X13569301Y-14551848D01*
X13569301Y-14551848D02*
X13559777Y-14570896D01*
X13559777Y-14570896D02*
X13550253Y-14580420D01*
X13550253Y-14580420D02*
X13531206Y-14589944D01*
X13531206Y-14589944D02*
X13493111Y-14589944D01*
X13493111Y-14589944D02*
X13474063Y-14580420D01*
X13655015Y-14570896D02*
X13664539Y-14580420D01*
X13664539Y-14580420D02*
X13655015Y-14589944D01*
X13655015Y-14589944D02*
X13645492Y-14580420D01*
X13645492Y-14580420D02*
X13655015Y-14570896D01*
X13655015Y-14570896D02*
X13655015Y-14589944D01*
X13655015Y-14466134D02*
X13664539Y-14475658D01*
X13664539Y-14475658D02*
X13655015Y-14485182D01*
X13655015Y-14485182D02*
X13645492Y-14475658D01*
X13645492Y-14475658D02*
X13655015Y-14466134D01*
X13655015Y-14466134D02*
X13655015Y-14485182D01*
D12*
X11982810Y-14898460D02*
X12022810Y-14938460D01*
X12022810Y-14898460D02*
X11982810Y-14938460D01*
D11*
X12321682Y-14809944D02*
X12340730Y-14809944D01*
X12340730Y-14809944D02*
X12359777Y-14819468D01*
X12359777Y-14819468D02*
X12369301Y-14828991D01*
X12369301Y-14828991D02*
X12378825Y-14848039D01*
X12378825Y-14848039D02*
X12388349Y-14886134D01*
X12388349Y-14886134D02*
X12388349Y-14933753D01*
X12388349Y-14933753D02*
X12378825Y-14971848D01*
X12378825Y-14971848D02*
X12369301Y-14990896D01*
X12369301Y-14990896D02*
X12359777Y-15000420D01*
X12359777Y-15000420D02*
X12340730Y-15009944D01*
X12340730Y-15009944D02*
X12321682Y-15009944D01*
X12321682Y-15009944D02*
X12302634Y-15000420D01*
X12302634Y-15000420D02*
X12293111Y-14990896D01*
X12293111Y-14990896D02*
X12283587Y-14971848D01*
X12283587Y-14971848D02*
X12274063Y-14933753D01*
X12274063Y-14933753D02*
X12274063Y-14886134D01*
X12274063Y-14886134D02*
X12283587Y-14848039D01*
X12283587Y-14848039D02*
X12293111Y-14828991D01*
X12293111Y-14828991D02*
X12302634Y-14819468D01*
X12302634Y-14819468D02*
X12321682Y-14809944D01*
X12474063Y-14990896D02*
X12483587Y-15000420D01*
X12483587Y-15000420D02*
X12474063Y-15009944D01*
X12474063Y-15009944D02*
X12464539Y-15000420D01*
X12464539Y-15000420D02*
X12474063Y-14990896D01*
X12474063Y-14990896D02*
X12474063Y-15009944D01*
X12655015Y-14876610D02*
X12655015Y-15009944D01*
X12607396Y-14800420D02*
X12559777Y-14943277D01*
X12559777Y-14943277D02*
X12683587Y-14943277D01*
X12797872Y-14809944D02*
X12816920Y-14809944D01*
X12816920Y-14809944D02*
X12835968Y-14819468D01*
X12835968Y-14819468D02*
X12845492Y-14828991D01*
X12845492Y-14828991D02*
X12855015Y-14848039D01*
X12855015Y-14848039D02*
X12864539Y-14886134D01*
X12864539Y-14886134D02*
X12864539Y-14933753D01*
X12864539Y-14933753D02*
X12855015Y-14971848D01*
X12855015Y-14971848D02*
X12845492Y-14990896D01*
X12845492Y-14990896D02*
X12835968Y-15000420D01*
X12835968Y-15000420D02*
X12816920Y-15009944D01*
X12816920Y-15009944D02*
X12797872Y-15009944D01*
X12797872Y-15009944D02*
X12778825Y-15000420D01*
X12778825Y-15000420D02*
X12769301Y-14990896D01*
X12769301Y-14990896D02*
X12759777Y-14971848D01*
X12759777Y-14971848D02*
X12750253Y-14933753D01*
X12750253Y-14933753D02*
X12750253Y-14886134D01*
X12750253Y-14886134D02*
X12759777Y-14848039D01*
X12759777Y-14848039D02*
X12769301Y-14828991D01*
X12769301Y-14828991D02*
X12778825Y-14819468D01*
X12778825Y-14819468D02*
X12797872Y-14809944D01*
X12988349Y-14809944D02*
X13007396Y-14809944D01*
X13007396Y-14809944D02*
X13026444Y-14819468D01*
X13026444Y-14819468D02*
X13035968Y-14828991D01*
X13035968Y-14828991D02*
X13045492Y-14848039D01*
X13045492Y-14848039D02*
X13055015Y-14886134D01*
X13055015Y-14886134D02*
X13055015Y-14933753D01*
X13055015Y-14933753D02*
X13045492Y-14971848D01*
X13045492Y-14971848D02*
X13035968Y-14990896D01*
X13035968Y-14990896D02*
X13026444Y-15000420D01*
X13026444Y-15000420D02*
X13007396Y-15009944D01*
X13007396Y-15009944D02*
X12988349Y-15009944D01*
X12988349Y-15009944D02*
X12969301Y-15000420D01*
X12969301Y-15000420D02*
X12959777Y-14990896D01*
X12959777Y-14990896D02*
X12950253Y-14971848D01*
X12950253Y-14971848D02*
X12940730Y-14933753D01*
X12940730Y-14933753D02*
X12940730Y-14886134D01*
X12940730Y-14886134D02*
X12950253Y-14848039D01*
X12950253Y-14848039D02*
X12959777Y-14828991D01*
X12959777Y-14828991D02*
X12969301Y-14819468D01*
X12969301Y-14819468D02*
X12988349Y-14809944D01*
X13140730Y-15009944D02*
X13140730Y-14876610D01*
X13140730Y-14895658D02*
X13150253Y-14886134D01*
X13150253Y-14886134D02*
X13169301Y-14876610D01*
X13169301Y-14876610D02*
X13197873Y-14876610D01*
X13197873Y-14876610D02*
X13216920Y-14886134D01*
X13216920Y-14886134D02*
X13226444Y-14905182D01*
X13226444Y-14905182D02*
X13226444Y-15009944D01*
X13226444Y-14905182D02*
X13235968Y-14886134D01*
X13235968Y-14886134D02*
X13255015Y-14876610D01*
X13255015Y-14876610D02*
X13283587Y-14876610D01*
X13283587Y-14876610D02*
X13302634Y-14886134D01*
X13302634Y-14886134D02*
X13312158Y-14905182D01*
X13312158Y-14905182D02*
X13312158Y-15009944D01*
X13407396Y-15009944D02*
X13407396Y-14876610D01*
X13407396Y-14895658D02*
X13416920Y-14886134D01*
X13416920Y-14886134D02*
X13435968Y-14876610D01*
X13435968Y-14876610D02*
X13464539Y-14876610D01*
X13464539Y-14876610D02*
X13483587Y-14886134D01*
X13483587Y-14886134D02*
X13493111Y-14905182D01*
X13493111Y-14905182D02*
X13493111Y-15009944D01*
X13493111Y-14905182D02*
X13502634Y-14886134D01*
X13502634Y-14886134D02*
X13521682Y-14876610D01*
X13521682Y-14876610D02*
X13550253Y-14876610D01*
X13550253Y-14876610D02*
X13569301Y-14886134D01*
X13569301Y-14886134D02*
X13578825Y-14905182D01*
X13578825Y-14905182D02*
X13578825Y-15009944D01*
X13969301Y-14800420D02*
X13797873Y-15057563D01*
X14226444Y-14809944D02*
X14245492Y-14809944D01*
X14245492Y-14809944D02*
X14264539Y-14819468D01*
X14264539Y-14819468D02*
X14274063Y-14828991D01*
X14274063Y-14828991D02*
X14283587Y-14848039D01*
X14283587Y-14848039D02*
X14293111Y-14886134D01*
X14293111Y-14886134D02*
X14293111Y-14933753D01*
X14293111Y-14933753D02*
X14283587Y-14971848D01*
X14283587Y-14971848D02*
X14274063Y-14990896D01*
X14274063Y-14990896D02*
X14264539Y-15000420D01*
X14264539Y-15000420D02*
X14245492Y-15009944D01*
X14245492Y-15009944D02*
X14226444Y-15009944D01*
X14226444Y-15009944D02*
X14207396Y-15000420D01*
X14207396Y-15000420D02*
X14197873Y-14990896D01*
X14197873Y-14990896D02*
X14188349Y-14971848D01*
X14188349Y-14971848D02*
X14178825Y-14933753D01*
X14178825Y-14933753D02*
X14178825Y-14886134D01*
X14178825Y-14886134D02*
X14188349Y-14848039D01*
X14188349Y-14848039D02*
X14197873Y-14828991D01*
X14197873Y-14828991D02*
X14207396Y-14819468D01*
X14207396Y-14819468D02*
X14226444Y-14809944D01*
X14378825Y-14990896D02*
X14388349Y-15000420D01*
X14388349Y-15000420D02*
X14378825Y-15009944D01*
X14378825Y-15009944D02*
X14369301Y-15000420D01*
X14369301Y-15000420D02*
X14378825Y-14990896D01*
X14378825Y-14990896D02*
X14378825Y-15009944D01*
X14512158Y-14809944D02*
X14531206Y-14809944D01*
X14531206Y-14809944D02*
X14550254Y-14819468D01*
X14550254Y-14819468D02*
X14559777Y-14828991D01*
X14559777Y-14828991D02*
X14569301Y-14848039D01*
X14569301Y-14848039D02*
X14578825Y-14886134D01*
X14578825Y-14886134D02*
X14578825Y-14933753D01*
X14578825Y-14933753D02*
X14569301Y-14971848D01*
X14569301Y-14971848D02*
X14559777Y-14990896D01*
X14559777Y-14990896D02*
X14550254Y-15000420D01*
X14550254Y-15000420D02*
X14531206Y-15009944D01*
X14531206Y-15009944D02*
X14512158Y-15009944D01*
X14512158Y-15009944D02*
X14493111Y-15000420D01*
X14493111Y-15000420D02*
X14483587Y-14990896D01*
X14483587Y-14990896D02*
X14474063Y-14971848D01*
X14474063Y-14971848D02*
X14464539Y-14933753D01*
X14464539Y-14933753D02*
X14464539Y-14886134D01*
X14464539Y-14886134D02*
X14474063Y-14848039D01*
X14474063Y-14848039D02*
X14483587Y-14828991D01*
X14483587Y-14828991D02*
X14493111Y-14819468D01*
X14493111Y-14819468D02*
X14512158Y-14809944D01*
X14769301Y-15009944D02*
X14655016Y-15009944D01*
X14712158Y-15009944D02*
X14712158Y-14809944D01*
X14712158Y-14809944D02*
X14693111Y-14838515D01*
X14693111Y-14838515D02*
X14674063Y-14857563D01*
X14674063Y-14857563D02*
X14655016Y-14867087D01*
X14950254Y-14809944D02*
X14855016Y-14809944D01*
X14855016Y-14809944D02*
X14845492Y-14905182D01*
X14845492Y-14905182D02*
X14855016Y-14895658D01*
X14855016Y-14895658D02*
X14874063Y-14886134D01*
X14874063Y-14886134D02*
X14921682Y-14886134D01*
X14921682Y-14886134D02*
X14940730Y-14895658D01*
X14940730Y-14895658D02*
X14950254Y-14905182D01*
X14950254Y-14905182D02*
X14959777Y-14924229D01*
X14959777Y-14924229D02*
X14959777Y-14971848D01*
X14959777Y-14971848D02*
X14950254Y-14990896D01*
X14950254Y-14990896D02*
X14940730Y-15000420D01*
X14940730Y-15000420D02*
X14921682Y-15009944D01*
X14921682Y-15009944D02*
X14874063Y-15009944D01*
X14874063Y-15009944D02*
X14855016Y-15000420D01*
X14855016Y-15000420D02*
X14845492Y-14990896D01*
X15026444Y-14809944D02*
X15159777Y-14809944D01*
X15159777Y-14809944D02*
X15074063Y-15009944D01*
X15226444Y-14809944D02*
X15226444Y-14848039D01*
X15302635Y-14809944D02*
X15302635Y-14848039D01*
X15597873Y-15086134D02*
X15588349Y-15076610D01*
X15588349Y-15076610D02*
X15569301Y-15048039D01*
X15569301Y-15048039D02*
X15559778Y-15028991D01*
X15559778Y-15028991D02*
X15550254Y-15000420D01*
X15550254Y-15000420D02*
X15540730Y-14952801D01*
X15540730Y-14952801D02*
X15540730Y-14914706D01*
X15540730Y-14914706D02*
X15550254Y-14867087D01*
X15550254Y-14867087D02*
X15559778Y-14838515D01*
X15559778Y-14838515D02*
X15569301Y-14819468D01*
X15569301Y-14819468D02*
X15588349Y-14790896D01*
X15588349Y-14790896D02*
X15597873Y-14781372D01*
X15778825Y-15009944D02*
X15664539Y-15009944D01*
X15721682Y-15009944D02*
X15721682Y-14809944D01*
X15721682Y-14809944D02*
X15702635Y-14838515D01*
X15702635Y-14838515D02*
X15683587Y-14857563D01*
X15683587Y-14857563D02*
X15664539Y-14867087D01*
X15845492Y-14809944D02*
X15969301Y-14809944D01*
X15969301Y-14809944D02*
X15902635Y-14886134D01*
X15902635Y-14886134D02*
X15931206Y-14886134D01*
X15931206Y-14886134D02*
X15950254Y-14895658D01*
X15950254Y-14895658D02*
X15959778Y-14905182D01*
X15959778Y-14905182D02*
X15969301Y-14924229D01*
X15969301Y-14924229D02*
X15969301Y-14971848D01*
X15969301Y-14971848D02*
X15959778Y-14990896D01*
X15959778Y-14990896D02*
X15950254Y-15000420D01*
X15950254Y-15000420D02*
X15931206Y-15009944D01*
X15931206Y-15009944D02*
X15874063Y-15009944D01*
X15874063Y-15009944D02*
X15855016Y-15000420D01*
X15855016Y-15000420D02*
X15845492Y-14990896D01*
X16093111Y-14809944D02*
X16112159Y-14809944D01*
X16112159Y-14809944D02*
X16131206Y-14819468D01*
X16131206Y-14819468D02*
X16140730Y-14828991D01*
X16140730Y-14828991D02*
X16150254Y-14848039D01*
X16150254Y-14848039D02*
X16159778Y-14886134D01*
X16159778Y-14886134D02*
X16159778Y-14933753D01*
X16159778Y-14933753D02*
X16150254Y-14971848D01*
X16150254Y-14971848D02*
X16140730Y-14990896D01*
X16140730Y-14990896D02*
X16131206Y-15000420D01*
X16131206Y-15000420D02*
X16112159Y-15009944D01*
X16112159Y-15009944D02*
X16093111Y-15009944D01*
X16093111Y-15009944D02*
X16074063Y-15000420D01*
X16074063Y-15000420D02*
X16064539Y-14990896D01*
X16064539Y-14990896D02*
X16055016Y-14971848D01*
X16055016Y-14971848D02*
X16045492Y-14933753D01*
X16045492Y-14933753D02*
X16045492Y-14886134D01*
X16045492Y-14886134D02*
X16055016Y-14848039D01*
X16055016Y-14848039D02*
X16064539Y-14828991D01*
X16064539Y-14828991D02*
X16074063Y-14819468D01*
X16074063Y-14819468D02*
X16093111Y-14809944D01*
X16397873Y-15009944D02*
X16397873Y-14809944D01*
X16483587Y-15009944D02*
X16483587Y-14905182D01*
X16483587Y-14905182D02*
X16474063Y-14886134D01*
X16474063Y-14886134D02*
X16455016Y-14876610D01*
X16455016Y-14876610D02*
X16426444Y-14876610D01*
X16426444Y-14876610D02*
X16407397Y-14886134D01*
X16407397Y-14886134D02*
X16397873Y-14895658D01*
X16607397Y-15009944D02*
X16588349Y-15000420D01*
X16588349Y-15000420D02*
X16578825Y-14990896D01*
X16578825Y-14990896D02*
X16569301Y-14971848D01*
X16569301Y-14971848D02*
X16569301Y-14914706D01*
X16569301Y-14914706D02*
X16578825Y-14895658D01*
X16578825Y-14895658D02*
X16588349Y-14886134D01*
X16588349Y-14886134D02*
X16607397Y-14876610D01*
X16607397Y-14876610D02*
X16635968Y-14876610D01*
X16635968Y-14876610D02*
X16655016Y-14886134D01*
X16655016Y-14886134D02*
X16664540Y-14895658D01*
X16664540Y-14895658D02*
X16674063Y-14914706D01*
X16674063Y-14914706D02*
X16674063Y-14971848D01*
X16674063Y-14971848D02*
X16664540Y-14990896D01*
X16664540Y-14990896D02*
X16655016Y-15000420D01*
X16655016Y-15000420D02*
X16635968Y-15009944D01*
X16635968Y-15009944D02*
X16607397Y-15009944D01*
X16788349Y-15009944D02*
X16769301Y-15000420D01*
X16769301Y-15000420D02*
X16759778Y-14981372D01*
X16759778Y-14981372D02*
X16759778Y-14809944D01*
X16940730Y-15000420D02*
X16921683Y-15009944D01*
X16921683Y-15009944D02*
X16883587Y-15009944D01*
X16883587Y-15009944D02*
X16864540Y-15000420D01*
X16864540Y-15000420D02*
X16855016Y-14981372D01*
X16855016Y-14981372D02*
X16855016Y-14905182D01*
X16855016Y-14905182D02*
X16864540Y-14886134D01*
X16864540Y-14886134D02*
X16883587Y-14876610D01*
X16883587Y-14876610D02*
X16921683Y-14876610D01*
X16921683Y-14876610D02*
X16940730Y-14886134D01*
X16940730Y-14886134D02*
X16950254Y-14905182D01*
X16950254Y-14905182D02*
X16950254Y-14924229D01*
X16950254Y-14924229D02*
X16855016Y-14943277D01*
X17026444Y-15000420D02*
X17045492Y-15009944D01*
X17045492Y-15009944D02*
X17083587Y-15009944D01*
X17083587Y-15009944D02*
X17102635Y-15000420D01*
X17102635Y-15000420D02*
X17112159Y-14981372D01*
X17112159Y-14981372D02*
X17112159Y-14971848D01*
X17112159Y-14971848D02*
X17102635Y-14952801D01*
X17102635Y-14952801D02*
X17083587Y-14943277D01*
X17083587Y-14943277D02*
X17055016Y-14943277D01*
X17055016Y-14943277D02*
X17035968Y-14933753D01*
X17035968Y-14933753D02*
X17026444Y-14914706D01*
X17026444Y-14914706D02*
X17026444Y-14905182D01*
X17026444Y-14905182D02*
X17035968Y-14886134D01*
X17035968Y-14886134D02*
X17055016Y-14876610D01*
X17055016Y-14876610D02*
X17083587Y-14876610D01*
X17083587Y-14876610D02*
X17102635Y-14886134D01*
X17178825Y-15086134D02*
X17188349Y-15076610D01*
X17188349Y-15076610D02*
X17207397Y-15048039D01*
X17207397Y-15048039D02*
X17216921Y-15028991D01*
X17216921Y-15028991D02*
X17226444Y-15000420D01*
X17226444Y-15000420D02*
X17235968Y-14952801D01*
X17235968Y-14952801D02*
X17235968Y-14914706D01*
X17235968Y-14914706D02*
X17226444Y-14867087D01*
X17226444Y-14867087D02*
X17216921Y-14838515D01*
X17216921Y-14838515D02*
X17207397Y-14819468D01*
X17207397Y-14819468D02*
X17188349Y-14790896D01*
X17188349Y-14790896D02*
X17178825Y-14781372D01*
D12*
X12022810Y-15182460D02*
G75*
G02*
X11942810Y-15182460I-40000J0D01*
G01*
X11942810Y-15182460D02*
G75*
G02*
X12022810Y-15182460I40000J0D01*
G01*
D11*
X12321682Y-15073944D02*
X12340730Y-15073944D01*
X12340730Y-15073944D02*
X12359777Y-15083468D01*
X12359777Y-15083468D02*
X12369301Y-15092991D01*
X12369301Y-15092991D02*
X12378825Y-15112039D01*
X12378825Y-15112039D02*
X12388349Y-15150134D01*
X12388349Y-15150134D02*
X12388349Y-15197753D01*
X12388349Y-15197753D02*
X12378825Y-15235848D01*
X12378825Y-15235848D02*
X12369301Y-15254896D01*
X12369301Y-15254896D02*
X12359777Y-15264420D01*
X12359777Y-15264420D02*
X12340730Y-15273944D01*
X12340730Y-15273944D02*
X12321682Y-15273944D01*
X12321682Y-15273944D02*
X12302634Y-15264420D01*
X12302634Y-15264420D02*
X12293111Y-15254896D01*
X12293111Y-15254896D02*
X12283587Y-15235848D01*
X12283587Y-15235848D02*
X12274063Y-15197753D01*
X12274063Y-15197753D02*
X12274063Y-15150134D01*
X12274063Y-15150134D02*
X12283587Y-15112039D01*
X12283587Y-15112039D02*
X12293111Y-15092991D01*
X12293111Y-15092991D02*
X12302634Y-15083468D01*
X12302634Y-15083468D02*
X12321682Y-15073944D01*
X12474063Y-15254896D02*
X12483587Y-15264420D01*
X12483587Y-15264420D02*
X12474063Y-15273944D01*
X12474063Y-15273944D02*
X12464539Y-15264420D01*
X12464539Y-15264420D02*
X12474063Y-15254896D01*
X12474063Y-15254896D02*
X12474063Y-15273944D01*
X12597872Y-15159658D02*
X12578825Y-15150134D01*
X12578825Y-15150134D02*
X12569301Y-15140610D01*
X12569301Y-15140610D02*
X12559777Y-15121563D01*
X12559777Y-15121563D02*
X12559777Y-15112039D01*
X12559777Y-15112039D02*
X12569301Y-15092991D01*
X12569301Y-15092991D02*
X12578825Y-15083468D01*
X12578825Y-15083468D02*
X12597872Y-15073944D01*
X12597872Y-15073944D02*
X12635968Y-15073944D01*
X12635968Y-15073944D02*
X12655015Y-15083468D01*
X12655015Y-15083468D02*
X12664539Y-15092991D01*
X12664539Y-15092991D02*
X12674063Y-15112039D01*
X12674063Y-15112039D02*
X12674063Y-15121563D01*
X12674063Y-15121563D02*
X12664539Y-15140610D01*
X12664539Y-15140610D02*
X12655015Y-15150134D01*
X12655015Y-15150134D02*
X12635968Y-15159658D01*
X12635968Y-15159658D02*
X12597872Y-15159658D01*
X12597872Y-15159658D02*
X12578825Y-15169182D01*
X12578825Y-15169182D02*
X12569301Y-15178706D01*
X12569301Y-15178706D02*
X12559777Y-15197753D01*
X12559777Y-15197753D02*
X12559777Y-15235848D01*
X12559777Y-15235848D02*
X12569301Y-15254896D01*
X12569301Y-15254896D02*
X12578825Y-15264420D01*
X12578825Y-15264420D02*
X12597872Y-15273944D01*
X12597872Y-15273944D02*
X12635968Y-15273944D01*
X12635968Y-15273944D02*
X12655015Y-15264420D01*
X12655015Y-15264420D02*
X12664539Y-15254896D01*
X12664539Y-15254896D02*
X12674063Y-15235848D01*
X12674063Y-15235848D02*
X12674063Y-15197753D01*
X12674063Y-15197753D02*
X12664539Y-15178706D01*
X12664539Y-15178706D02*
X12655015Y-15169182D01*
X12655015Y-15169182D02*
X12635968Y-15159658D01*
X12797872Y-15073944D02*
X12816920Y-15073944D01*
X12816920Y-15073944D02*
X12835968Y-15083468D01*
X12835968Y-15083468D02*
X12845492Y-15092991D01*
X12845492Y-15092991D02*
X12855015Y-15112039D01*
X12855015Y-15112039D02*
X12864539Y-15150134D01*
X12864539Y-15150134D02*
X12864539Y-15197753D01*
X12864539Y-15197753D02*
X12855015Y-15235848D01*
X12855015Y-15235848D02*
X12845492Y-15254896D01*
X12845492Y-15254896D02*
X12835968Y-15264420D01*
X12835968Y-15264420D02*
X12816920Y-15273944D01*
X12816920Y-15273944D02*
X12797872Y-15273944D01*
X12797872Y-15273944D02*
X12778825Y-15264420D01*
X12778825Y-15264420D02*
X12769301Y-15254896D01*
X12769301Y-15254896D02*
X12759777Y-15235848D01*
X12759777Y-15235848D02*
X12750253Y-15197753D01*
X12750253Y-15197753D02*
X12750253Y-15150134D01*
X12750253Y-15150134D02*
X12759777Y-15112039D01*
X12759777Y-15112039D02*
X12769301Y-15092991D01*
X12769301Y-15092991D02*
X12778825Y-15083468D01*
X12778825Y-15083468D02*
X12797872Y-15073944D01*
X12988349Y-15073944D02*
X13007396Y-15073944D01*
X13007396Y-15073944D02*
X13026444Y-15083468D01*
X13026444Y-15083468D02*
X13035968Y-15092991D01*
X13035968Y-15092991D02*
X13045492Y-15112039D01*
X13045492Y-15112039D02*
X13055015Y-15150134D01*
X13055015Y-15150134D02*
X13055015Y-15197753D01*
X13055015Y-15197753D02*
X13045492Y-15235848D01*
X13045492Y-15235848D02*
X13035968Y-15254896D01*
X13035968Y-15254896D02*
X13026444Y-15264420D01*
X13026444Y-15264420D02*
X13007396Y-15273944D01*
X13007396Y-15273944D02*
X12988349Y-15273944D01*
X12988349Y-15273944D02*
X12969301Y-15264420D01*
X12969301Y-15264420D02*
X12959777Y-15254896D01*
X12959777Y-15254896D02*
X12950253Y-15235848D01*
X12950253Y-15235848D02*
X12940730Y-15197753D01*
X12940730Y-15197753D02*
X12940730Y-15150134D01*
X12940730Y-15150134D02*
X12950253Y-15112039D01*
X12950253Y-15112039D02*
X12959777Y-15092991D01*
X12959777Y-15092991D02*
X12969301Y-15083468D01*
X12969301Y-15083468D02*
X12988349Y-15073944D01*
X13140730Y-15273944D02*
X13140730Y-15140610D01*
X13140730Y-15159658D02*
X13150253Y-15150134D01*
X13150253Y-15150134D02*
X13169301Y-15140610D01*
X13169301Y-15140610D02*
X13197873Y-15140610D01*
X13197873Y-15140610D02*
X13216920Y-15150134D01*
X13216920Y-15150134D02*
X13226444Y-15169182D01*
X13226444Y-15169182D02*
X13226444Y-15273944D01*
X13226444Y-15169182D02*
X13235968Y-15150134D01*
X13235968Y-15150134D02*
X13255015Y-15140610D01*
X13255015Y-15140610D02*
X13283587Y-15140610D01*
X13283587Y-15140610D02*
X13302634Y-15150134D01*
X13302634Y-15150134D02*
X13312158Y-15169182D01*
X13312158Y-15169182D02*
X13312158Y-15273944D01*
X13407396Y-15273944D02*
X13407396Y-15140610D01*
X13407396Y-15159658D02*
X13416920Y-15150134D01*
X13416920Y-15150134D02*
X13435968Y-15140610D01*
X13435968Y-15140610D02*
X13464539Y-15140610D01*
X13464539Y-15140610D02*
X13483587Y-15150134D01*
X13483587Y-15150134D02*
X13493111Y-15169182D01*
X13493111Y-15169182D02*
X13493111Y-15273944D01*
X13493111Y-15169182D02*
X13502634Y-15150134D01*
X13502634Y-15150134D02*
X13521682Y-15140610D01*
X13521682Y-15140610D02*
X13550253Y-15140610D01*
X13550253Y-15140610D02*
X13569301Y-15150134D01*
X13569301Y-15150134D02*
X13578825Y-15169182D01*
X13578825Y-15169182D02*
X13578825Y-15273944D01*
X13969301Y-15064420D02*
X13797873Y-15321563D01*
X14226444Y-15073944D02*
X14245492Y-15073944D01*
X14245492Y-15073944D02*
X14264539Y-15083468D01*
X14264539Y-15083468D02*
X14274063Y-15092991D01*
X14274063Y-15092991D02*
X14283587Y-15112039D01*
X14283587Y-15112039D02*
X14293111Y-15150134D01*
X14293111Y-15150134D02*
X14293111Y-15197753D01*
X14293111Y-15197753D02*
X14283587Y-15235848D01*
X14283587Y-15235848D02*
X14274063Y-15254896D01*
X14274063Y-15254896D02*
X14264539Y-15264420D01*
X14264539Y-15264420D02*
X14245492Y-15273944D01*
X14245492Y-15273944D02*
X14226444Y-15273944D01*
X14226444Y-15273944D02*
X14207396Y-15264420D01*
X14207396Y-15264420D02*
X14197873Y-15254896D01*
X14197873Y-15254896D02*
X14188349Y-15235848D01*
X14188349Y-15235848D02*
X14178825Y-15197753D01*
X14178825Y-15197753D02*
X14178825Y-15150134D01*
X14178825Y-15150134D02*
X14188349Y-15112039D01*
X14188349Y-15112039D02*
X14197873Y-15092991D01*
X14197873Y-15092991D02*
X14207396Y-15083468D01*
X14207396Y-15083468D02*
X14226444Y-15073944D01*
X14378825Y-15254896D02*
X14388349Y-15264420D01*
X14388349Y-15264420D02*
X14378825Y-15273944D01*
X14378825Y-15273944D02*
X14369301Y-15264420D01*
X14369301Y-15264420D02*
X14378825Y-15254896D01*
X14378825Y-15254896D02*
X14378825Y-15273944D01*
X14512158Y-15073944D02*
X14531206Y-15073944D01*
X14531206Y-15073944D02*
X14550254Y-15083468D01*
X14550254Y-15083468D02*
X14559777Y-15092991D01*
X14559777Y-15092991D02*
X14569301Y-15112039D01*
X14569301Y-15112039D02*
X14578825Y-15150134D01*
X14578825Y-15150134D02*
X14578825Y-15197753D01*
X14578825Y-15197753D02*
X14569301Y-15235848D01*
X14569301Y-15235848D02*
X14559777Y-15254896D01*
X14559777Y-15254896D02*
X14550254Y-15264420D01*
X14550254Y-15264420D02*
X14531206Y-15273944D01*
X14531206Y-15273944D02*
X14512158Y-15273944D01*
X14512158Y-15273944D02*
X14493111Y-15264420D01*
X14493111Y-15264420D02*
X14483587Y-15254896D01*
X14483587Y-15254896D02*
X14474063Y-15235848D01*
X14474063Y-15235848D02*
X14464539Y-15197753D01*
X14464539Y-15197753D02*
X14464539Y-15150134D01*
X14464539Y-15150134D02*
X14474063Y-15112039D01*
X14474063Y-15112039D02*
X14483587Y-15092991D01*
X14483587Y-15092991D02*
X14493111Y-15083468D01*
X14493111Y-15083468D02*
X14512158Y-15073944D01*
X14645492Y-15073944D02*
X14769301Y-15073944D01*
X14769301Y-15073944D02*
X14702635Y-15150134D01*
X14702635Y-15150134D02*
X14731206Y-15150134D01*
X14731206Y-15150134D02*
X14750254Y-15159658D01*
X14750254Y-15159658D02*
X14759777Y-15169182D01*
X14759777Y-15169182D02*
X14769301Y-15188229D01*
X14769301Y-15188229D02*
X14769301Y-15235848D01*
X14769301Y-15235848D02*
X14759777Y-15254896D01*
X14759777Y-15254896D02*
X14750254Y-15264420D01*
X14750254Y-15264420D02*
X14731206Y-15273944D01*
X14731206Y-15273944D02*
X14674063Y-15273944D01*
X14674063Y-15273944D02*
X14655016Y-15264420D01*
X14655016Y-15264420D02*
X14645492Y-15254896D01*
X14959777Y-15273944D02*
X14845492Y-15273944D01*
X14902635Y-15273944D02*
X14902635Y-15073944D01*
X14902635Y-15073944D02*
X14883587Y-15102515D01*
X14883587Y-15102515D02*
X14864539Y-15121563D01*
X14864539Y-15121563D02*
X14845492Y-15131087D01*
X15140730Y-15073944D02*
X15045492Y-15073944D01*
X15045492Y-15073944D02*
X15035968Y-15169182D01*
X15035968Y-15169182D02*
X15045492Y-15159658D01*
X15045492Y-15159658D02*
X15064539Y-15150134D01*
X15064539Y-15150134D02*
X15112158Y-15150134D01*
X15112158Y-15150134D02*
X15131206Y-15159658D01*
X15131206Y-15159658D02*
X15140730Y-15169182D01*
X15140730Y-15169182D02*
X15150254Y-15188229D01*
X15150254Y-15188229D02*
X15150254Y-15235848D01*
X15150254Y-15235848D02*
X15140730Y-15254896D01*
X15140730Y-15254896D02*
X15131206Y-15264420D01*
X15131206Y-15264420D02*
X15112158Y-15273944D01*
X15112158Y-15273944D02*
X15064539Y-15273944D01*
X15064539Y-15273944D02*
X15045492Y-15264420D01*
X15045492Y-15264420D02*
X15035968Y-15254896D01*
X15226444Y-15073944D02*
X15226444Y-15112039D01*
X15302635Y-15073944D02*
X15302635Y-15112039D01*
X15597873Y-15350134D02*
X15588349Y-15340610D01*
X15588349Y-15340610D02*
X15569301Y-15312039D01*
X15569301Y-15312039D02*
X15559778Y-15292991D01*
X15559778Y-15292991D02*
X15550254Y-15264420D01*
X15550254Y-15264420D02*
X15540730Y-15216801D01*
X15540730Y-15216801D02*
X15540730Y-15178706D01*
X15540730Y-15178706D02*
X15550254Y-15131087D01*
X15550254Y-15131087D02*
X15559778Y-15102515D01*
X15559778Y-15102515D02*
X15569301Y-15083468D01*
X15569301Y-15083468D02*
X15588349Y-15054896D01*
X15588349Y-15054896D02*
X15597873Y-15045372D01*
X15778825Y-15273944D02*
X15664539Y-15273944D01*
X15721682Y-15273944D02*
X15721682Y-15073944D01*
X15721682Y-15073944D02*
X15702635Y-15102515D01*
X15702635Y-15102515D02*
X15683587Y-15121563D01*
X15683587Y-15121563D02*
X15664539Y-15131087D01*
X15950254Y-15140610D02*
X15950254Y-15273944D01*
X15902635Y-15064420D02*
X15855016Y-15207277D01*
X15855016Y-15207277D02*
X15978825Y-15207277D01*
X16045492Y-15092991D02*
X16055016Y-15083468D01*
X16055016Y-15083468D02*
X16074063Y-15073944D01*
X16074063Y-15073944D02*
X16121682Y-15073944D01*
X16121682Y-15073944D02*
X16140730Y-15083468D01*
X16140730Y-15083468D02*
X16150254Y-15092991D01*
X16150254Y-15092991D02*
X16159778Y-15112039D01*
X16159778Y-15112039D02*
X16159778Y-15131087D01*
X16159778Y-15131087D02*
X16150254Y-15159658D01*
X16150254Y-15159658D02*
X16035968Y-15273944D01*
X16035968Y-15273944D02*
X16159778Y-15273944D01*
X16397873Y-15273944D02*
X16397873Y-15073944D01*
X16483587Y-15273944D02*
X16483587Y-15169182D01*
X16483587Y-15169182D02*
X16474063Y-15150134D01*
X16474063Y-15150134D02*
X16455016Y-15140610D01*
X16455016Y-15140610D02*
X16426444Y-15140610D01*
X16426444Y-15140610D02*
X16407397Y-15150134D01*
X16407397Y-15150134D02*
X16397873Y-15159658D01*
X16607397Y-15273944D02*
X16588349Y-15264420D01*
X16588349Y-15264420D02*
X16578825Y-15254896D01*
X16578825Y-15254896D02*
X16569301Y-15235848D01*
X16569301Y-15235848D02*
X16569301Y-15178706D01*
X16569301Y-15178706D02*
X16578825Y-15159658D01*
X16578825Y-15159658D02*
X16588349Y-15150134D01*
X16588349Y-15150134D02*
X16607397Y-15140610D01*
X16607397Y-15140610D02*
X16635968Y-15140610D01*
X16635968Y-15140610D02*
X16655016Y-15150134D01*
X16655016Y-15150134D02*
X16664540Y-15159658D01*
X16664540Y-15159658D02*
X16674063Y-15178706D01*
X16674063Y-15178706D02*
X16674063Y-15235848D01*
X16674063Y-15235848D02*
X16664540Y-15254896D01*
X16664540Y-15254896D02*
X16655016Y-15264420D01*
X16655016Y-15264420D02*
X16635968Y-15273944D01*
X16635968Y-15273944D02*
X16607397Y-15273944D01*
X16788349Y-15273944D02*
X16769301Y-15264420D01*
X16769301Y-15264420D02*
X16759778Y-15245372D01*
X16759778Y-15245372D02*
X16759778Y-15073944D01*
X16940730Y-15264420D02*
X16921683Y-15273944D01*
X16921683Y-15273944D02*
X16883587Y-15273944D01*
X16883587Y-15273944D02*
X16864540Y-15264420D01*
X16864540Y-15264420D02*
X16855016Y-15245372D01*
X16855016Y-15245372D02*
X16855016Y-15169182D01*
X16855016Y-15169182D02*
X16864540Y-15150134D01*
X16864540Y-15150134D02*
X16883587Y-15140610D01*
X16883587Y-15140610D02*
X16921683Y-15140610D01*
X16921683Y-15140610D02*
X16940730Y-15150134D01*
X16940730Y-15150134D02*
X16950254Y-15169182D01*
X16950254Y-15169182D02*
X16950254Y-15188229D01*
X16950254Y-15188229D02*
X16855016Y-15207277D01*
X17026444Y-15264420D02*
X17045492Y-15273944D01*
X17045492Y-15273944D02*
X17083587Y-15273944D01*
X17083587Y-15273944D02*
X17102635Y-15264420D01*
X17102635Y-15264420D02*
X17112159Y-15245372D01*
X17112159Y-15245372D02*
X17112159Y-15235848D01*
X17112159Y-15235848D02*
X17102635Y-15216801D01*
X17102635Y-15216801D02*
X17083587Y-15207277D01*
X17083587Y-15207277D02*
X17055016Y-15207277D01*
X17055016Y-15207277D02*
X17035968Y-15197753D01*
X17035968Y-15197753D02*
X17026444Y-15178706D01*
X17026444Y-15178706D02*
X17026444Y-15169182D01*
X17026444Y-15169182D02*
X17035968Y-15150134D01*
X17035968Y-15150134D02*
X17055016Y-15140610D01*
X17055016Y-15140610D02*
X17083587Y-15140610D01*
X17083587Y-15140610D02*
X17102635Y-15150134D01*
X17178825Y-15350134D02*
X17188349Y-15340610D01*
X17188349Y-15340610D02*
X17207397Y-15312039D01*
X17207397Y-15312039D02*
X17216921Y-15292991D01*
X17216921Y-15292991D02*
X17226444Y-15264420D01*
X17226444Y-15264420D02*
X17235968Y-15216801D01*
X17235968Y-15216801D02*
X17235968Y-15178706D01*
X17235968Y-15178706D02*
X17226444Y-15131087D01*
X17226444Y-15131087D02*
X17216921Y-15102515D01*
X17216921Y-15102515D02*
X17207397Y-15083468D01*
X17207397Y-15083468D02*
X17188349Y-15054896D01*
X17188349Y-15054896D02*
X17178825Y-15045372D01*
D12*
X11972810Y-15396460D02*
X11972810Y-15496460D01*
X11922810Y-15446460D02*
X12022810Y-15446460D01*
D11*
X12388349Y-15537944D02*
X12274063Y-15537944D01*
X12331206Y-15537944D02*
X12331206Y-15337944D01*
X12331206Y-15337944D02*
X12312158Y-15366515D01*
X12312158Y-15366515D02*
X12293111Y-15385563D01*
X12293111Y-15385563D02*
X12274063Y-15395087D01*
X12474063Y-15518896D02*
X12483587Y-15528420D01*
X12483587Y-15528420D02*
X12474063Y-15537944D01*
X12474063Y-15537944D02*
X12464539Y-15528420D01*
X12464539Y-15528420D02*
X12474063Y-15518896D01*
X12474063Y-15518896D02*
X12474063Y-15537944D01*
X12607396Y-15337944D02*
X12626444Y-15337944D01*
X12626444Y-15337944D02*
X12645492Y-15347468D01*
X12645492Y-15347468D02*
X12655015Y-15356991D01*
X12655015Y-15356991D02*
X12664539Y-15376039D01*
X12664539Y-15376039D02*
X12674063Y-15414134D01*
X12674063Y-15414134D02*
X12674063Y-15461753D01*
X12674063Y-15461753D02*
X12664539Y-15499848D01*
X12664539Y-15499848D02*
X12655015Y-15518896D01*
X12655015Y-15518896D02*
X12645492Y-15528420D01*
X12645492Y-15528420D02*
X12626444Y-15537944D01*
X12626444Y-15537944D02*
X12607396Y-15537944D01*
X12607396Y-15537944D02*
X12588349Y-15528420D01*
X12588349Y-15528420D02*
X12578825Y-15518896D01*
X12578825Y-15518896D02*
X12569301Y-15499848D01*
X12569301Y-15499848D02*
X12559777Y-15461753D01*
X12559777Y-15461753D02*
X12559777Y-15414134D01*
X12559777Y-15414134D02*
X12569301Y-15376039D01*
X12569301Y-15376039D02*
X12578825Y-15356991D01*
X12578825Y-15356991D02*
X12588349Y-15347468D01*
X12588349Y-15347468D02*
X12607396Y-15337944D01*
X12797872Y-15337944D02*
X12816920Y-15337944D01*
X12816920Y-15337944D02*
X12835968Y-15347468D01*
X12835968Y-15347468D02*
X12845492Y-15356991D01*
X12845492Y-15356991D02*
X12855015Y-15376039D01*
X12855015Y-15376039D02*
X12864539Y-15414134D01*
X12864539Y-15414134D02*
X12864539Y-15461753D01*
X12864539Y-15461753D02*
X12855015Y-15499848D01*
X12855015Y-15499848D02*
X12845492Y-15518896D01*
X12845492Y-15518896D02*
X12835968Y-15528420D01*
X12835968Y-15528420D02*
X12816920Y-15537944D01*
X12816920Y-15537944D02*
X12797872Y-15537944D01*
X12797872Y-15537944D02*
X12778825Y-15528420D01*
X12778825Y-15528420D02*
X12769301Y-15518896D01*
X12769301Y-15518896D02*
X12759777Y-15499848D01*
X12759777Y-15499848D02*
X12750253Y-15461753D01*
X12750253Y-15461753D02*
X12750253Y-15414134D01*
X12750253Y-15414134D02*
X12759777Y-15376039D01*
X12759777Y-15376039D02*
X12769301Y-15356991D01*
X12769301Y-15356991D02*
X12778825Y-15347468D01*
X12778825Y-15347468D02*
X12797872Y-15337944D01*
X12988349Y-15337944D02*
X13007396Y-15337944D01*
X13007396Y-15337944D02*
X13026444Y-15347468D01*
X13026444Y-15347468D02*
X13035968Y-15356991D01*
X13035968Y-15356991D02*
X13045492Y-15376039D01*
X13045492Y-15376039D02*
X13055015Y-15414134D01*
X13055015Y-15414134D02*
X13055015Y-15461753D01*
X13055015Y-15461753D02*
X13045492Y-15499848D01*
X13045492Y-15499848D02*
X13035968Y-15518896D01*
X13035968Y-15518896D02*
X13026444Y-15528420D01*
X13026444Y-15528420D02*
X13007396Y-15537944D01*
X13007396Y-15537944D02*
X12988349Y-15537944D01*
X12988349Y-15537944D02*
X12969301Y-15528420D01*
X12969301Y-15528420D02*
X12959777Y-15518896D01*
X12959777Y-15518896D02*
X12950253Y-15499848D01*
X12950253Y-15499848D02*
X12940730Y-15461753D01*
X12940730Y-15461753D02*
X12940730Y-15414134D01*
X12940730Y-15414134D02*
X12950253Y-15376039D01*
X12950253Y-15376039D02*
X12959777Y-15356991D01*
X12959777Y-15356991D02*
X12969301Y-15347468D01*
X12969301Y-15347468D02*
X12988349Y-15337944D01*
X13140730Y-15537944D02*
X13140730Y-15404610D01*
X13140730Y-15423658D02*
X13150253Y-15414134D01*
X13150253Y-15414134D02*
X13169301Y-15404610D01*
X13169301Y-15404610D02*
X13197873Y-15404610D01*
X13197873Y-15404610D02*
X13216920Y-15414134D01*
X13216920Y-15414134D02*
X13226444Y-15433182D01*
X13226444Y-15433182D02*
X13226444Y-15537944D01*
X13226444Y-15433182D02*
X13235968Y-15414134D01*
X13235968Y-15414134D02*
X13255015Y-15404610D01*
X13255015Y-15404610D02*
X13283587Y-15404610D01*
X13283587Y-15404610D02*
X13302634Y-15414134D01*
X13302634Y-15414134D02*
X13312158Y-15433182D01*
X13312158Y-15433182D02*
X13312158Y-15537944D01*
X13407396Y-15537944D02*
X13407396Y-15404610D01*
X13407396Y-15423658D02*
X13416920Y-15414134D01*
X13416920Y-15414134D02*
X13435968Y-15404610D01*
X13435968Y-15404610D02*
X13464539Y-15404610D01*
X13464539Y-15404610D02*
X13483587Y-15414134D01*
X13483587Y-15414134D02*
X13493111Y-15433182D01*
X13493111Y-15433182D02*
X13493111Y-15537944D01*
X13493111Y-15433182D02*
X13502634Y-15414134D01*
X13502634Y-15414134D02*
X13521682Y-15404610D01*
X13521682Y-15404610D02*
X13550253Y-15404610D01*
X13550253Y-15404610D02*
X13569301Y-15414134D01*
X13569301Y-15414134D02*
X13578825Y-15433182D01*
X13578825Y-15433182D02*
X13578825Y-15537944D01*
X13969301Y-15328420D02*
X13797873Y-15585563D01*
X14226444Y-15337944D02*
X14245492Y-15337944D01*
X14245492Y-15337944D02*
X14264539Y-15347468D01*
X14264539Y-15347468D02*
X14274063Y-15356991D01*
X14274063Y-15356991D02*
X14283587Y-15376039D01*
X14283587Y-15376039D02*
X14293111Y-15414134D01*
X14293111Y-15414134D02*
X14293111Y-15461753D01*
X14293111Y-15461753D02*
X14283587Y-15499848D01*
X14283587Y-15499848D02*
X14274063Y-15518896D01*
X14274063Y-15518896D02*
X14264539Y-15528420D01*
X14264539Y-15528420D02*
X14245492Y-15537944D01*
X14245492Y-15537944D02*
X14226444Y-15537944D01*
X14226444Y-15537944D02*
X14207396Y-15528420D01*
X14207396Y-15528420D02*
X14197873Y-15518896D01*
X14197873Y-15518896D02*
X14188349Y-15499848D01*
X14188349Y-15499848D02*
X14178825Y-15461753D01*
X14178825Y-15461753D02*
X14178825Y-15414134D01*
X14178825Y-15414134D02*
X14188349Y-15376039D01*
X14188349Y-15376039D02*
X14197873Y-15356991D01*
X14197873Y-15356991D02*
X14207396Y-15347468D01*
X14207396Y-15347468D02*
X14226444Y-15337944D01*
X14378825Y-15518896D02*
X14388349Y-15528420D01*
X14388349Y-15528420D02*
X14378825Y-15537944D01*
X14378825Y-15537944D02*
X14369301Y-15528420D01*
X14369301Y-15528420D02*
X14378825Y-15518896D01*
X14378825Y-15518896D02*
X14378825Y-15537944D01*
X14512158Y-15337944D02*
X14531206Y-15337944D01*
X14531206Y-15337944D02*
X14550254Y-15347468D01*
X14550254Y-15347468D02*
X14559777Y-15356991D01*
X14559777Y-15356991D02*
X14569301Y-15376039D01*
X14569301Y-15376039D02*
X14578825Y-15414134D01*
X14578825Y-15414134D02*
X14578825Y-15461753D01*
X14578825Y-15461753D02*
X14569301Y-15499848D01*
X14569301Y-15499848D02*
X14559777Y-15518896D01*
X14559777Y-15518896D02*
X14550254Y-15528420D01*
X14550254Y-15528420D02*
X14531206Y-15537944D01*
X14531206Y-15537944D02*
X14512158Y-15537944D01*
X14512158Y-15537944D02*
X14493111Y-15528420D01*
X14493111Y-15528420D02*
X14483587Y-15518896D01*
X14483587Y-15518896D02*
X14474063Y-15499848D01*
X14474063Y-15499848D02*
X14464539Y-15461753D01*
X14464539Y-15461753D02*
X14464539Y-15414134D01*
X14464539Y-15414134D02*
X14474063Y-15376039D01*
X14474063Y-15376039D02*
X14483587Y-15356991D01*
X14483587Y-15356991D02*
X14493111Y-15347468D01*
X14493111Y-15347468D02*
X14512158Y-15337944D01*
X14645492Y-15337944D02*
X14769301Y-15337944D01*
X14769301Y-15337944D02*
X14702635Y-15414134D01*
X14702635Y-15414134D02*
X14731206Y-15414134D01*
X14731206Y-15414134D02*
X14750254Y-15423658D01*
X14750254Y-15423658D02*
X14759777Y-15433182D01*
X14759777Y-15433182D02*
X14769301Y-15452229D01*
X14769301Y-15452229D02*
X14769301Y-15499848D01*
X14769301Y-15499848D02*
X14759777Y-15518896D01*
X14759777Y-15518896D02*
X14750254Y-15528420D01*
X14750254Y-15528420D02*
X14731206Y-15537944D01*
X14731206Y-15537944D02*
X14674063Y-15537944D01*
X14674063Y-15537944D02*
X14655016Y-15528420D01*
X14655016Y-15528420D02*
X14645492Y-15518896D01*
X14864539Y-15537944D02*
X14902635Y-15537944D01*
X14902635Y-15537944D02*
X14921682Y-15528420D01*
X14921682Y-15528420D02*
X14931206Y-15518896D01*
X14931206Y-15518896D02*
X14950254Y-15490325D01*
X14950254Y-15490325D02*
X14959777Y-15452229D01*
X14959777Y-15452229D02*
X14959777Y-15376039D01*
X14959777Y-15376039D02*
X14950254Y-15356991D01*
X14950254Y-15356991D02*
X14940730Y-15347468D01*
X14940730Y-15347468D02*
X14921682Y-15337944D01*
X14921682Y-15337944D02*
X14883587Y-15337944D01*
X14883587Y-15337944D02*
X14864539Y-15347468D01*
X14864539Y-15347468D02*
X14855016Y-15356991D01*
X14855016Y-15356991D02*
X14845492Y-15376039D01*
X14845492Y-15376039D02*
X14845492Y-15423658D01*
X14845492Y-15423658D02*
X14855016Y-15442706D01*
X14855016Y-15442706D02*
X14864539Y-15452229D01*
X14864539Y-15452229D02*
X14883587Y-15461753D01*
X14883587Y-15461753D02*
X14921682Y-15461753D01*
X14921682Y-15461753D02*
X14940730Y-15452229D01*
X14940730Y-15452229D02*
X14950254Y-15442706D01*
X14950254Y-15442706D02*
X14959777Y-15423658D01*
X15131206Y-15404610D02*
X15131206Y-15537944D01*
X15083587Y-15328420D02*
X15035968Y-15471277D01*
X15035968Y-15471277D02*
X15159777Y-15471277D01*
X15226444Y-15337944D02*
X15226444Y-15376039D01*
X15302635Y-15337944D02*
X15302635Y-15376039D01*
X15597873Y-15614134D02*
X15588349Y-15604610D01*
X15588349Y-15604610D02*
X15569301Y-15576039D01*
X15569301Y-15576039D02*
X15559778Y-15556991D01*
X15559778Y-15556991D02*
X15550254Y-15528420D01*
X15550254Y-15528420D02*
X15540730Y-15480801D01*
X15540730Y-15480801D02*
X15540730Y-15442706D01*
X15540730Y-15442706D02*
X15550254Y-15395087D01*
X15550254Y-15395087D02*
X15559778Y-15366515D01*
X15559778Y-15366515D02*
X15569301Y-15347468D01*
X15569301Y-15347468D02*
X15588349Y-15318896D01*
X15588349Y-15318896D02*
X15597873Y-15309372D01*
X15664539Y-15356991D02*
X15674063Y-15347468D01*
X15674063Y-15347468D02*
X15693111Y-15337944D01*
X15693111Y-15337944D02*
X15740730Y-15337944D01*
X15740730Y-15337944D02*
X15759778Y-15347468D01*
X15759778Y-15347468D02*
X15769301Y-15356991D01*
X15769301Y-15356991D02*
X15778825Y-15376039D01*
X15778825Y-15376039D02*
X15778825Y-15395087D01*
X15778825Y-15395087D02*
X15769301Y-15423658D01*
X15769301Y-15423658D02*
X15655016Y-15537944D01*
X15655016Y-15537944D02*
X15778825Y-15537944D01*
X15845492Y-15337944D02*
X15969301Y-15337944D01*
X15969301Y-15337944D02*
X15902635Y-15414134D01*
X15902635Y-15414134D02*
X15931206Y-15414134D01*
X15931206Y-15414134D02*
X15950254Y-15423658D01*
X15950254Y-15423658D02*
X15959778Y-15433182D01*
X15959778Y-15433182D02*
X15969301Y-15452229D01*
X15969301Y-15452229D02*
X15969301Y-15499848D01*
X15969301Y-15499848D02*
X15959778Y-15518896D01*
X15959778Y-15518896D02*
X15950254Y-15528420D01*
X15950254Y-15528420D02*
X15931206Y-15537944D01*
X15931206Y-15537944D02*
X15874063Y-15537944D01*
X15874063Y-15537944D02*
X15855016Y-15528420D01*
X15855016Y-15528420D02*
X15845492Y-15518896D01*
X16207397Y-15537944D02*
X16207397Y-15337944D01*
X16293111Y-15537944D02*
X16293111Y-15433182D01*
X16293111Y-15433182D02*
X16283587Y-15414134D01*
X16283587Y-15414134D02*
X16264540Y-15404610D01*
X16264540Y-15404610D02*
X16235968Y-15404610D01*
X16235968Y-15404610D02*
X16216920Y-15414134D01*
X16216920Y-15414134D02*
X16207397Y-15423658D01*
X16416920Y-15537944D02*
X16397873Y-15528420D01*
X16397873Y-15528420D02*
X16388349Y-15518896D01*
X16388349Y-15518896D02*
X16378825Y-15499848D01*
X16378825Y-15499848D02*
X16378825Y-15442706D01*
X16378825Y-15442706D02*
X16388349Y-15423658D01*
X16388349Y-15423658D02*
X16397873Y-15414134D01*
X16397873Y-15414134D02*
X16416920Y-15404610D01*
X16416920Y-15404610D02*
X16445492Y-15404610D01*
X16445492Y-15404610D02*
X16464540Y-15414134D01*
X16464540Y-15414134D02*
X16474063Y-15423658D01*
X16474063Y-15423658D02*
X16483587Y-15442706D01*
X16483587Y-15442706D02*
X16483587Y-15499848D01*
X16483587Y-15499848D02*
X16474063Y-15518896D01*
X16474063Y-15518896D02*
X16464540Y-15528420D01*
X16464540Y-15528420D02*
X16445492Y-15537944D01*
X16445492Y-15537944D02*
X16416920Y-15537944D01*
X16597873Y-15537944D02*
X16578825Y-15528420D01*
X16578825Y-15528420D02*
X16569301Y-15509372D01*
X16569301Y-15509372D02*
X16569301Y-15337944D01*
X16750254Y-15528420D02*
X16731206Y-15537944D01*
X16731206Y-15537944D02*
X16693111Y-15537944D01*
X16693111Y-15537944D02*
X16674063Y-15528420D01*
X16674063Y-15528420D02*
X16664540Y-15509372D01*
X16664540Y-15509372D02*
X16664540Y-15433182D01*
X16664540Y-15433182D02*
X16674063Y-15414134D01*
X16674063Y-15414134D02*
X16693111Y-15404610D01*
X16693111Y-15404610D02*
X16731206Y-15404610D01*
X16731206Y-15404610D02*
X16750254Y-15414134D01*
X16750254Y-15414134D02*
X16759778Y-15433182D01*
X16759778Y-15433182D02*
X16759778Y-15452229D01*
X16759778Y-15452229D02*
X16664540Y-15471277D01*
X16835968Y-15528420D02*
X16855016Y-15537944D01*
X16855016Y-15537944D02*
X16893111Y-15537944D01*
X16893111Y-15537944D02*
X16912159Y-15528420D01*
X16912159Y-15528420D02*
X16921683Y-15509372D01*
X16921683Y-15509372D02*
X16921683Y-15499848D01*
X16921683Y-15499848D02*
X16912159Y-15480801D01*
X16912159Y-15480801D02*
X16893111Y-15471277D01*
X16893111Y-15471277D02*
X16864540Y-15471277D01*
X16864540Y-15471277D02*
X16845492Y-15461753D01*
X16845492Y-15461753D02*
X16835968Y-15442706D01*
X16835968Y-15442706D02*
X16835968Y-15433182D01*
X16835968Y-15433182D02*
X16845492Y-15414134D01*
X16845492Y-15414134D02*
X16864540Y-15404610D01*
X16864540Y-15404610D02*
X16893111Y-15404610D01*
X16893111Y-15404610D02*
X16912159Y-15414134D01*
X16988349Y-15614134D02*
X16997873Y-15604610D01*
X16997873Y-15604610D02*
X17016921Y-15576039D01*
X17016921Y-15576039D02*
X17026444Y-15556991D01*
X17026444Y-15556991D02*
X17035968Y-15528420D01*
X17035968Y-15528420D02*
X17045492Y-15480801D01*
X17045492Y-15480801D02*
X17045492Y-15442706D01*
X17045492Y-15442706D02*
X17035968Y-15395087D01*
X17035968Y-15395087D02*
X17026444Y-15366515D01*
X17026444Y-15366515D02*
X17016921Y-15347468D01*
X17016921Y-15347468D02*
X16997873Y-15318896D01*
X16997873Y-15318896D02*
X16988349Y-15309372D01*
D13*
X12005237Y-15752887D02*
X12005237Y-15668033D01*
X11920383Y-15668033D01*
X11920383Y-15752887D01*
X12005237Y-15752887D01*
D11*
X12388349Y-15801944D02*
X12274063Y-15801944D01*
X12331206Y-15801944D02*
X12331206Y-15601944D01*
X12331206Y-15601944D02*
X12312158Y-15630515D01*
X12312158Y-15630515D02*
X12293111Y-15649563D01*
X12293111Y-15649563D02*
X12274063Y-15659087D01*
X12474063Y-15782896D02*
X12483587Y-15792420D01*
X12483587Y-15792420D02*
X12474063Y-15801944D01*
X12474063Y-15801944D02*
X12464539Y-15792420D01*
X12464539Y-15792420D02*
X12474063Y-15782896D01*
X12474063Y-15782896D02*
X12474063Y-15801944D01*
X12559777Y-15620991D02*
X12569301Y-15611468D01*
X12569301Y-15611468D02*
X12588349Y-15601944D01*
X12588349Y-15601944D02*
X12635968Y-15601944D01*
X12635968Y-15601944D02*
X12655015Y-15611468D01*
X12655015Y-15611468D02*
X12664539Y-15620991D01*
X12664539Y-15620991D02*
X12674063Y-15640039D01*
X12674063Y-15640039D02*
X12674063Y-15659087D01*
X12674063Y-15659087D02*
X12664539Y-15687658D01*
X12664539Y-15687658D02*
X12550253Y-15801944D01*
X12550253Y-15801944D02*
X12674063Y-15801944D01*
X12797872Y-15601944D02*
X12816920Y-15601944D01*
X12816920Y-15601944D02*
X12835968Y-15611468D01*
X12835968Y-15611468D02*
X12845492Y-15620991D01*
X12845492Y-15620991D02*
X12855015Y-15640039D01*
X12855015Y-15640039D02*
X12864539Y-15678134D01*
X12864539Y-15678134D02*
X12864539Y-15725753D01*
X12864539Y-15725753D02*
X12855015Y-15763848D01*
X12855015Y-15763848D02*
X12845492Y-15782896D01*
X12845492Y-15782896D02*
X12835968Y-15792420D01*
X12835968Y-15792420D02*
X12816920Y-15801944D01*
X12816920Y-15801944D02*
X12797872Y-15801944D01*
X12797872Y-15801944D02*
X12778825Y-15792420D01*
X12778825Y-15792420D02*
X12769301Y-15782896D01*
X12769301Y-15782896D02*
X12759777Y-15763848D01*
X12759777Y-15763848D02*
X12750253Y-15725753D01*
X12750253Y-15725753D02*
X12750253Y-15678134D01*
X12750253Y-15678134D02*
X12759777Y-15640039D01*
X12759777Y-15640039D02*
X12769301Y-15620991D01*
X12769301Y-15620991D02*
X12778825Y-15611468D01*
X12778825Y-15611468D02*
X12797872Y-15601944D01*
X12988349Y-15601944D02*
X13007396Y-15601944D01*
X13007396Y-15601944D02*
X13026444Y-15611468D01*
X13026444Y-15611468D02*
X13035968Y-15620991D01*
X13035968Y-15620991D02*
X13045492Y-15640039D01*
X13045492Y-15640039D02*
X13055015Y-15678134D01*
X13055015Y-15678134D02*
X13055015Y-15725753D01*
X13055015Y-15725753D02*
X13045492Y-15763848D01*
X13045492Y-15763848D02*
X13035968Y-15782896D01*
X13035968Y-15782896D02*
X13026444Y-15792420D01*
X13026444Y-15792420D02*
X13007396Y-15801944D01*
X13007396Y-15801944D02*
X12988349Y-15801944D01*
X12988349Y-15801944D02*
X12969301Y-15792420D01*
X12969301Y-15792420D02*
X12959777Y-15782896D01*
X12959777Y-15782896D02*
X12950253Y-15763848D01*
X12950253Y-15763848D02*
X12940730Y-15725753D01*
X12940730Y-15725753D02*
X12940730Y-15678134D01*
X12940730Y-15678134D02*
X12950253Y-15640039D01*
X12950253Y-15640039D02*
X12959777Y-15620991D01*
X12959777Y-15620991D02*
X12969301Y-15611468D01*
X12969301Y-15611468D02*
X12988349Y-15601944D01*
X13140730Y-15801944D02*
X13140730Y-15668610D01*
X13140730Y-15687658D02*
X13150253Y-15678134D01*
X13150253Y-15678134D02*
X13169301Y-15668610D01*
X13169301Y-15668610D02*
X13197873Y-15668610D01*
X13197873Y-15668610D02*
X13216920Y-15678134D01*
X13216920Y-15678134D02*
X13226444Y-15697182D01*
X13226444Y-15697182D02*
X13226444Y-15801944D01*
X13226444Y-15697182D02*
X13235968Y-15678134D01*
X13235968Y-15678134D02*
X13255015Y-15668610D01*
X13255015Y-15668610D02*
X13283587Y-15668610D01*
X13283587Y-15668610D02*
X13302634Y-15678134D01*
X13302634Y-15678134D02*
X13312158Y-15697182D01*
X13312158Y-15697182D02*
X13312158Y-15801944D01*
X13407396Y-15801944D02*
X13407396Y-15668610D01*
X13407396Y-15687658D02*
X13416920Y-15678134D01*
X13416920Y-15678134D02*
X13435968Y-15668610D01*
X13435968Y-15668610D02*
X13464539Y-15668610D01*
X13464539Y-15668610D02*
X13483587Y-15678134D01*
X13483587Y-15678134D02*
X13493111Y-15697182D01*
X13493111Y-15697182D02*
X13493111Y-15801944D01*
X13493111Y-15697182D02*
X13502634Y-15678134D01*
X13502634Y-15678134D02*
X13521682Y-15668610D01*
X13521682Y-15668610D02*
X13550253Y-15668610D01*
X13550253Y-15668610D02*
X13569301Y-15678134D01*
X13569301Y-15678134D02*
X13578825Y-15697182D01*
X13578825Y-15697182D02*
X13578825Y-15801944D01*
X13969301Y-15592420D02*
X13797873Y-15849563D01*
X14226444Y-15601944D02*
X14245492Y-15601944D01*
X14245492Y-15601944D02*
X14264539Y-15611468D01*
X14264539Y-15611468D02*
X14274063Y-15620991D01*
X14274063Y-15620991D02*
X14283587Y-15640039D01*
X14283587Y-15640039D02*
X14293111Y-15678134D01*
X14293111Y-15678134D02*
X14293111Y-15725753D01*
X14293111Y-15725753D02*
X14283587Y-15763848D01*
X14283587Y-15763848D02*
X14274063Y-15782896D01*
X14274063Y-15782896D02*
X14264539Y-15792420D01*
X14264539Y-15792420D02*
X14245492Y-15801944D01*
X14245492Y-15801944D02*
X14226444Y-15801944D01*
X14226444Y-15801944D02*
X14207396Y-15792420D01*
X14207396Y-15792420D02*
X14197873Y-15782896D01*
X14197873Y-15782896D02*
X14188349Y-15763848D01*
X14188349Y-15763848D02*
X14178825Y-15725753D01*
X14178825Y-15725753D02*
X14178825Y-15678134D01*
X14178825Y-15678134D02*
X14188349Y-15640039D01*
X14188349Y-15640039D02*
X14197873Y-15620991D01*
X14197873Y-15620991D02*
X14207396Y-15611468D01*
X14207396Y-15611468D02*
X14226444Y-15601944D01*
X14378825Y-15782896D02*
X14388349Y-15792420D01*
X14388349Y-15792420D02*
X14378825Y-15801944D01*
X14378825Y-15801944D02*
X14369301Y-15792420D01*
X14369301Y-15792420D02*
X14378825Y-15782896D01*
X14378825Y-15782896D02*
X14378825Y-15801944D01*
X14512158Y-15601944D02*
X14531206Y-15601944D01*
X14531206Y-15601944D02*
X14550254Y-15611468D01*
X14550254Y-15611468D02*
X14559777Y-15620991D01*
X14559777Y-15620991D02*
X14569301Y-15640039D01*
X14569301Y-15640039D02*
X14578825Y-15678134D01*
X14578825Y-15678134D02*
X14578825Y-15725753D01*
X14578825Y-15725753D02*
X14569301Y-15763848D01*
X14569301Y-15763848D02*
X14559777Y-15782896D01*
X14559777Y-15782896D02*
X14550254Y-15792420D01*
X14550254Y-15792420D02*
X14531206Y-15801944D01*
X14531206Y-15801944D02*
X14512158Y-15801944D01*
X14512158Y-15801944D02*
X14493111Y-15792420D01*
X14493111Y-15792420D02*
X14483587Y-15782896D01*
X14483587Y-15782896D02*
X14474063Y-15763848D01*
X14474063Y-15763848D02*
X14464539Y-15725753D01*
X14464539Y-15725753D02*
X14464539Y-15678134D01*
X14464539Y-15678134D02*
X14474063Y-15640039D01*
X14474063Y-15640039D02*
X14483587Y-15620991D01*
X14483587Y-15620991D02*
X14493111Y-15611468D01*
X14493111Y-15611468D02*
X14512158Y-15601944D01*
X14750254Y-15668610D02*
X14750254Y-15801944D01*
X14702635Y-15592420D02*
X14655016Y-15735277D01*
X14655016Y-15735277D02*
X14778825Y-15735277D01*
X14835968Y-15601944D02*
X14969301Y-15601944D01*
X14969301Y-15601944D02*
X14883587Y-15801944D01*
X15035968Y-15620991D02*
X15045492Y-15611468D01*
X15045492Y-15611468D02*
X15064539Y-15601944D01*
X15064539Y-15601944D02*
X15112158Y-15601944D01*
X15112158Y-15601944D02*
X15131206Y-15611468D01*
X15131206Y-15611468D02*
X15140730Y-15620991D01*
X15140730Y-15620991D02*
X15150254Y-15640039D01*
X15150254Y-15640039D02*
X15150254Y-15659087D01*
X15150254Y-15659087D02*
X15140730Y-15687658D01*
X15140730Y-15687658D02*
X15026444Y-15801944D01*
X15026444Y-15801944D02*
X15150254Y-15801944D01*
X15226444Y-15601944D02*
X15226444Y-15640039D01*
X15302635Y-15601944D02*
X15302635Y-15640039D01*
X15597873Y-15878134D02*
X15588349Y-15868610D01*
X15588349Y-15868610D02*
X15569301Y-15840039D01*
X15569301Y-15840039D02*
X15559778Y-15820991D01*
X15559778Y-15820991D02*
X15550254Y-15792420D01*
X15550254Y-15792420D02*
X15540730Y-15744801D01*
X15540730Y-15744801D02*
X15540730Y-15706706D01*
X15540730Y-15706706D02*
X15550254Y-15659087D01*
X15550254Y-15659087D02*
X15559778Y-15630515D01*
X15559778Y-15630515D02*
X15569301Y-15611468D01*
X15569301Y-15611468D02*
X15588349Y-15582896D01*
X15588349Y-15582896D02*
X15597873Y-15573372D01*
X15759778Y-15668610D02*
X15759778Y-15801944D01*
X15712158Y-15592420D02*
X15664539Y-15735277D01*
X15664539Y-15735277D02*
X15788349Y-15735277D01*
X16016920Y-15801944D02*
X16016920Y-15601944D01*
X16102635Y-15801944D02*
X16102635Y-15697182D01*
X16102635Y-15697182D02*
X16093111Y-15678134D01*
X16093111Y-15678134D02*
X16074063Y-15668610D01*
X16074063Y-15668610D02*
X16045492Y-15668610D01*
X16045492Y-15668610D02*
X16026444Y-15678134D01*
X16026444Y-15678134D02*
X16016920Y-15687658D01*
X16226444Y-15801944D02*
X16207397Y-15792420D01*
X16207397Y-15792420D02*
X16197873Y-15782896D01*
X16197873Y-15782896D02*
X16188349Y-15763848D01*
X16188349Y-15763848D02*
X16188349Y-15706706D01*
X16188349Y-15706706D02*
X16197873Y-15687658D01*
X16197873Y-15687658D02*
X16207397Y-15678134D01*
X16207397Y-15678134D02*
X16226444Y-15668610D01*
X16226444Y-15668610D02*
X16255016Y-15668610D01*
X16255016Y-15668610D02*
X16274063Y-15678134D01*
X16274063Y-15678134D02*
X16283587Y-15687658D01*
X16283587Y-15687658D02*
X16293111Y-15706706D01*
X16293111Y-15706706D02*
X16293111Y-15763848D01*
X16293111Y-15763848D02*
X16283587Y-15782896D01*
X16283587Y-15782896D02*
X16274063Y-15792420D01*
X16274063Y-15792420D02*
X16255016Y-15801944D01*
X16255016Y-15801944D02*
X16226444Y-15801944D01*
X16407397Y-15801944D02*
X16388349Y-15792420D01*
X16388349Y-15792420D02*
X16378825Y-15773372D01*
X16378825Y-15773372D02*
X16378825Y-15601944D01*
X16559778Y-15792420D02*
X16540730Y-15801944D01*
X16540730Y-15801944D02*
X16502635Y-15801944D01*
X16502635Y-15801944D02*
X16483587Y-15792420D01*
X16483587Y-15792420D02*
X16474063Y-15773372D01*
X16474063Y-15773372D02*
X16474063Y-15697182D01*
X16474063Y-15697182D02*
X16483587Y-15678134D01*
X16483587Y-15678134D02*
X16502635Y-15668610D01*
X16502635Y-15668610D02*
X16540730Y-15668610D01*
X16540730Y-15668610D02*
X16559778Y-15678134D01*
X16559778Y-15678134D02*
X16569301Y-15697182D01*
X16569301Y-15697182D02*
X16569301Y-15716229D01*
X16569301Y-15716229D02*
X16474063Y-15735277D01*
X16645492Y-15792420D02*
X16664540Y-15801944D01*
X16664540Y-15801944D02*
X16702635Y-15801944D01*
X16702635Y-15801944D02*
X16721682Y-15792420D01*
X16721682Y-15792420D02*
X16731206Y-15773372D01*
X16731206Y-15773372D02*
X16731206Y-15763848D01*
X16731206Y-15763848D02*
X16721682Y-15744801D01*
X16721682Y-15744801D02*
X16702635Y-15735277D01*
X16702635Y-15735277D02*
X16674063Y-15735277D01*
X16674063Y-15735277D02*
X16655016Y-15725753D01*
X16655016Y-15725753D02*
X16645492Y-15706706D01*
X16645492Y-15706706D02*
X16645492Y-15697182D01*
X16645492Y-15697182D02*
X16655016Y-15678134D01*
X16655016Y-15678134D02*
X16674063Y-15668610D01*
X16674063Y-15668610D02*
X16702635Y-15668610D01*
X16702635Y-15668610D02*
X16721682Y-15678134D01*
X16797873Y-15878134D02*
X16807397Y-15868610D01*
X16807397Y-15868610D02*
X16826444Y-15840039D01*
X16826444Y-15840039D02*
X16835968Y-15820991D01*
X16835968Y-15820991D02*
X16845492Y-15792420D01*
X16845492Y-15792420D02*
X16855016Y-15744801D01*
X16855016Y-15744801D02*
X16855016Y-15706706D01*
X16855016Y-15706706D02*
X16845492Y-15659087D01*
X16845492Y-15659087D02*
X16835968Y-15630515D01*
X16835968Y-15630515D02*
X16826444Y-15611468D01*
X16826444Y-15611468D02*
X16807397Y-15582896D01*
X16807397Y-15582896D02*
X16797873Y-15573372D01*
D14*
X11957810Y-16039460D02*
X12022810Y-15974460D01*
X11957810Y-15909460D01*
X11892810Y-15974460D01*
X11957810Y-16039460D01*
D11*
X12388349Y-16065944D02*
X12274063Y-16065944D01*
X12331206Y-16065944D02*
X12331206Y-15865944D01*
X12331206Y-15865944D02*
X12312158Y-15894515D01*
X12312158Y-15894515D02*
X12293111Y-15913563D01*
X12293111Y-15913563D02*
X12274063Y-15923087D01*
X12474063Y-16046896D02*
X12483587Y-16056420D01*
X12483587Y-16056420D02*
X12474063Y-16065944D01*
X12474063Y-16065944D02*
X12464539Y-16056420D01*
X12464539Y-16056420D02*
X12474063Y-16046896D01*
X12474063Y-16046896D02*
X12474063Y-16065944D01*
X12550253Y-15865944D02*
X12674063Y-15865944D01*
X12674063Y-15865944D02*
X12607396Y-15942134D01*
X12607396Y-15942134D02*
X12635968Y-15942134D01*
X12635968Y-15942134D02*
X12655015Y-15951658D01*
X12655015Y-15951658D02*
X12664539Y-15961182D01*
X12664539Y-15961182D02*
X12674063Y-15980229D01*
X12674063Y-15980229D02*
X12674063Y-16027848D01*
X12674063Y-16027848D02*
X12664539Y-16046896D01*
X12664539Y-16046896D02*
X12655015Y-16056420D01*
X12655015Y-16056420D02*
X12635968Y-16065944D01*
X12635968Y-16065944D02*
X12578825Y-16065944D01*
X12578825Y-16065944D02*
X12559777Y-16056420D01*
X12559777Y-16056420D02*
X12550253Y-16046896D01*
X12797872Y-15865944D02*
X12816920Y-15865944D01*
X12816920Y-15865944D02*
X12835968Y-15875468D01*
X12835968Y-15875468D02*
X12845492Y-15884991D01*
X12845492Y-15884991D02*
X12855015Y-15904039D01*
X12855015Y-15904039D02*
X12864539Y-15942134D01*
X12864539Y-15942134D02*
X12864539Y-15989753D01*
X12864539Y-15989753D02*
X12855015Y-16027848D01*
X12855015Y-16027848D02*
X12845492Y-16046896D01*
X12845492Y-16046896D02*
X12835968Y-16056420D01*
X12835968Y-16056420D02*
X12816920Y-16065944D01*
X12816920Y-16065944D02*
X12797872Y-16065944D01*
X12797872Y-16065944D02*
X12778825Y-16056420D01*
X12778825Y-16056420D02*
X12769301Y-16046896D01*
X12769301Y-16046896D02*
X12759777Y-16027848D01*
X12759777Y-16027848D02*
X12750253Y-15989753D01*
X12750253Y-15989753D02*
X12750253Y-15942134D01*
X12750253Y-15942134D02*
X12759777Y-15904039D01*
X12759777Y-15904039D02*
X12769301Y-15884991D01*
X12769301Y-15884991D02*
X12778825Y-15875468D01*
X12778825Y-15875468D02*
X12797872Y-15865944D01*
X12988349Y-15865944D02*
X13007396Y-15865944D01*
X13007396Y-15865944D02*
X13026444Y-15875468D01*
X13026444Y-15875468D02*
X13035968Y-15884991D01*
X13035968Y-15884991D02*
X13045492Y-15904039D01*
X13045492Y-15904039D02*
X13055015Y-15942134D01*
X13055015Y-15942134D02*
X13055015Y-15989753D01*
X13055015Y-15989753D02*
X13045492Y-16027848D01*
X13045492Y-16027848D02*
X13035968Y-16046896D01*
X13035968Y-16046896D02*
X13026444Y-16056420D01*
X13026444Y-16056420D02*
X13007396Y-16065944D01*
X13007396Y-16065944D02*
X12988349Y-16065944D01*
X12988349Y-16065944D02*
X12969301Y-16056420D01*
X12969301Y-16056420D02*
X12959777Y-16046896D01*
X12959777Y-16046896D02*
X12950253Y-16027848D01*
X12950253Y-16027848D02*
X12940730Y-15989753D01*
X12940730Y-15989753D02*
X12940730Y-15942134D01*
X12940730Y-15942134D02*
X12950253Y-15904039D01*
X12950253Y-15904039D02*
X12959777Y-15884991D01*
X12959777Y-15884991D02*
X12969301Y-15875468D01*
X12969301Y-15875468D02*
X12988349Y-15865944D01*
X13140730Y-16065944D02*
X13140730Y-15932610D01*
X13140730Y-15951658D02*
X13150253Y-15942134D01*
X13150253Y-15942134D02*
X13169301Y-15932610D01*
X13169301Y-15932610D02*
X13197873Y-15932610D01*
X13197873Y-15932610D02*
X13216920Y-15942134D01*
X13216920Y-15942134D02*
X13226444Y-15961182D01*
X13226444Y-15961182D02*
X13226444Y-16065944D01*
X13226444Y-15961182D02*
X13235968Y-15942134D01*
X13235968Y-15942134D02*
X13255015Y-15932610D01*
X13255015Y-15932610D02*
X13283587Y-15932610D01*
X13283587Y-15932610D02*
X13302634Y-15942134D01*
X13302634Y-15942134D02*
X13312158Y-15961182D01*
X13312158Y-15961182D02*
X13312158Y-16065944D01*
X13407396Y-16065944D02*
X13407396Y-15932610D01*
X13407396Y-15951658D02*
X13416920Y-15942134D01*
X13416920Y-15942134D02*
X13435968Y-15932610D01*
X13435968Y-15932610D02*
X13464539Y-15932610D01*
X13464539Y-15932610D02*
X13483587Y-15942134D01*
X13483587Y-15942134D02*
X13493111Y-15961182D01*
X13493111Y-15961182D02*
X13493111Y-16065944D01*
X13493111Y-15961182D02*
X13502634Y-15942134D01*
X13502634Y-15942134D02*
X13521682Y-15932610D01*
X13521682Y-15932610D02*
X13550253Y-15932610D01*
X13550253Y-15932610D02*
X13569301Y-15942134D01*
X13569301Y-15942134D02*
X13578825Y-15961182D01*
X13578825Y-15961182D02*
X13578825Y-16065944D01*
X13969301Y-15856420D02*
X13797873Y-16113563D01*
X14226444Y-15865944D02*
X14245492Y-15865944D01*
X14245492Y-15865944D02*
X14264539Y-15875468D01*
X14264539Y-15875468D02*
X14274063Y-15884991D01*
X14274063Y-15884991D02*
X14283587Y-15904039D01*
X14283587Y-15904039D02*
X14293111Y-15942134D01*
X14293111Y-15942134D02*
X14293111Y-15989753D01*
X14293111Y-15989753D02*
X14283587Y-16027848D01*
X14283587Y-16027848D02*
X14274063Y-16046896D01*
X14274063Y-16046896D02*
X14264539Y-16056420D01*
X14264539Y-16056420D02*
X14245492Y-16065944D01*
X14245492Y-16065944D02*
X14226444Y-16065944D01*
X14226444Y-16065944D02*
X14207396Y-16056420D01*
X14207396Y-16056420D02*
X14197873Y-16046896D01*
X14197873Y-16046896D02*
X14188349Y-16027848D01*
X14188349Y-16027848D02*
X14178825Y-15989753D01*
X14178825Y-15989753D02*
X14178825Y-15942134D01*
X14178825Y-15942134D02*
X14188349Y-15904039D01*
X14188349Y-15904039D02*
X14197873Y-15884991D01*
X14197873Y-15884991D02*
X14207396Y-15875468D01*
X14207396Y-15875468D02*
X14226444Y-15865944D01*
X14378825Y-16046896D02*
X14388349Y-16056420D01*
X14388349Y-16056420D02*
X14378825Y-16065944D01*
X14378825Y-16065944D02*
X14369301Y-16056420D01*
X14369301Y-16056420D02*
X14378825Y-16046896D01*
X14378825Y-16046896D02*
X14378825Y-16065944D01*
X14512158Y-15865944D02*
X14531206Y-15865944D01*
X14531206Y-15865944D02*
X14550254Y-15875468D01*
X14550254Y-15875468D02*
X14559777Y-15884991D01*
X14559777Y-15884991D02*
X14569301Y-15904039D01*
X14569301Y-15904039D02*
X14578825Y-15942134D01*
X14578825Y-15942134D02*
X14578825Y-15989753D01*
X14578825Y-15989753D02*
X14569301Y-16027848D01*
X14569301Y-16027848D02*
X14559777Y-16046896D01*
X14559777Y-16046896D02*
X14550254Y-16056420D01*
X14550254Y-16056420D02*
X14531206Y-16065944D01*
X14531206Y-16065944D02*
X14512158Y-16065944D01*
X14512158Y-16065944D02*
X14493111Y-16056420D01*
X14493111Y-16056420D02*
X14483587Y-16046896D01*
X14483587Y-16046896D02*
X14474063Y-16027848D01*
X14474063Y-16027848D02*
X14464539Y-15989753D01*
X14464539Y-15989753D02*
X14464539Y-15942134D01*
X14464539Y-15942134D02*
X14474063Y-15904039D01*
X14474063Y-15904039D02*
X14483587Y-15884991D01*
X14483587Y-15884991D02*
X14493111Y-15875468D01*
X14493111Y-15875468D02*
X14512158Y-15865944D01*
X14759777Y-15865944D02*
X14664539Y-15865944D01*
X14664539Y-15865944D02*
X14655016Y-15961182D01*
X14655016Y-15961182D02*
X14664539Y-15951658D01*
X14664539Y-15951658D02*
X14683587Y-15942134D01*
X14683587Y-15942134D02*
X14731206Y-15942134D01*
X14731206Y-15942134D02*
X14750254Y-15951658D01*
X14750254Y-15951658D02*
X14759777Y-15961182D01*
X14759777Y-15961182D02*
X14769301Y-15980229D01*
X14769301Y-15980229D02*
X14769301Y-16027848D01*
X14769301Y-16027848D02*
X14759777Y-16046896D01*
X14759777Y-16046896D02*
X14750254Y-16056420D01*
X14750254Y-16056420D02*
X14731206Y-16065944D01*
X14731206Y-16065944D02*
X14683587Y-16065944D01*
X14683587Y-16065944D02*
X14664539Y-16056420D01*
X14664539Y-16056420D02*
X14655016Y-16046896D01*
X14959777Y-16065944D02*
X14845492Y-16065944D01*
X14902635Y-16065944D02*
X14902635Y-15865944D01*
X14902635Y-15865944D02*
X14883587Y-15894515D01*
X14883587Y-15894515D02*
X14864539Y-15913563D01*
X14864539Y-15913563D02*
X14845492Y-15923087D01*
X15035968Y-15884991D02*
X15045492Y-15875468D01*
X15045492Y-15875468D02*
X15064539Y-15865944D01*
X15064539Y-15865944D02*
X15112158Y-15865944D01*
X15112158Y-15865944D02*
X15131206Y-15875468D01*
X15131206Y-15875468D02*
X15140730Y-15884991D01*
X15140730Y-15884991D02*
X15150254Y-15904039D01*
X15150254Y-15904039D02*
X15150254Y-15923087D01*
X15150254Y-15923087D02*
X15140730Y-15951658D01*
X15140730Y-15951658D02*
X15026444Y-16065944D01*
X15026444Y-16065944D02*
X15150254Y-16065944D01*
X15226444Y-15865944D02*
X15226444Y-15904039D01*
X15302635Y-15865944D02*
X15302635Y-15904039D01*
X15597873Y-16142134D02*
X15588349Y-16132610D01*
X15588349Y-16132610D02*
X15569301Y-16104039D01*
X15569301Y-16104039D02*
X15559778Y-16084991D01*
X15559778Y-16084991D02*
X15550254Y-16056420D01*
X15550254Y-16056420D02*
X15540730Y-16008801D01*
X15540730Y-16008801D02*
X15540730Y-15970706D01*
X15540730Y-15970706D02*
X15550254Y-15923087D01*
X15550254Y-15923087D02*
X15559778Y-15894515D01*
X15559778Y-15894515D02*
X15569301Y-15875468D01*
X15569301Y-15875468D02*
X15588349Y-15846896D01*
X15588349Y-15846896D02*
X15597873Y-15837372D01*
X15759778Y-15865944D02*
X15721682Y-15865944D01*
X15721682Y-15865944D02*
X15702635Y-15875468D01*
X15702635Y-15875468D02*
X15693111Y-15884991D01*
X15693111Y-15884991D02*
X15674063Y-15913563D01*
X15674063Y-15913563D02*
X15664539Y-15951658D01*
X15664539Y-15951658D02*
X15664539Y-16027848D01*
X15664539Y-16027848D02*
X15674063Y-16046896D01*
X15674063Y-16046896D02*
X15683587Y-16056420D01*
X15683587Y-16056420D02*
X15702635Y-16065944D01*
X15702635Y-16065944D02*
X15740730Y-16065944D01*
X15740730Y-16065944D02*
X15759778Y-16056420D01*
X15759778Y-16056420D02*
X15769301Y-16046896D01*
X15769301Y-16046896D02*
X15778825Y-16027848D01*
X15778825Y-16027848D02*
X15778825Y-15980229D01*
X15778825Y-15980229D02*
X15769301Y-15961182D01*
X15769301Y-15961182D02*
X15759778Y-15951658D01*
X15759778Y-15951658D02*
X15740730Y-15942134D01*
X15740730Y-15942134D02*
X15702635Y-15942134D01*
X15702635Y-15942134D02*
X15683587Y-15951658D01*
X15683587Y-15951658D02*
X15674063Y-15961182D01*
X15674063Y-15961182D02*
X15664539Y-15980229D01*
X16016920Y-16065944D02*
X16016920Y-15865944D01*
X16102635Y-16065944D02*
X16102635Y-15961182D01*
X16102635Y-15961182D02*
X16093111Y-15942134D01*
X16093111Y-15942134D02*
X16074063Y-15932610D01*
X16074063Y-15932610D02*
X16045492Y-15932610D01*
X16045492Y-15932610D02*
X16026444Y-15942134D01*
X16026444Y-15942134D02*
X16016920Y-15951658D01*
X16226444Y-16065944D02*
X16207397Y-16056420D01*
X16207397Y-16056420D02*
X16197873Y-16046896D01*
X16197873Y-16046896D02*
X16188349Y-16027848D01*
X16188349Y-16027848D02*
X16188349Y-15970706D01*
X16188349Y-15970706D02*
X16197873Y-15951658D01*
X16197873Y-15951658D02*
X16207397Y-15942134D01*
X16207397Y-15942134D02*
X16226444Y-15932610D01*
X16226444Y-15932610D02*
X16255016Y-15932610D01*
X16255016Y-15932610D02*
X16274063Y-15942134D01*
X16274063Y-15942134D02*
X16283587Y-15951658D01*
X16283587Y-15951658D02*
X16293111Y-15970706D01*
X16293111Y-15970706D02*
X16293111Y-16027848D01*
X16293111Y-16027848D02*
X16283587Y-16046896D01*
X16283587Y-16046896D02*
X16274063Y-16056420D01*
X16274063Y-16056420D02*
X16255016Y-16065944D01*
X16255016Y-16065944D02*
X16226444Y-16065944D01*
X16407397Y-16065944D02*
X16388349Y-16056420D01*
X16388349Y-16056420D02*
X16378825Y-16037372D01*
X16378825Y-16037372D02*
X16378825Y-15865944D01*
X16559778Y-16056420D02*
X16540730Y-16065944D01*
X16540730Y-16065944D02*
X16502635Y-16065944D01*
X16502635Y-16065944D02*
X16483587Y-16056420D01*
X16483587Y-16056420D02*
X16474063Y-16037372D01*
X16474063Y-16037372D02*
X16474063Y-15961182D01*
X16474063Y-15961182D02*
X16483587Y-15942134D01*
X16483587Y-15942134D02*
X16502635Y-15932610D01*
X16502635Y-15932610D02*
X16540730Y-15932610D01*
X16540730Y-15932610D02*
X16559778Y-15942134D01*
X16559778Y-15942134D02*
X16569301Y-15961182D01*
X16569301Y-15961182D02*
X16569301Y-15980229D01*
X16569301Y-15980229D02*
X16474063Y-15999277D01*
X16645492Y-16056420D02*
X16664540Y-16065944D01*
X16664540Y-16065944D02*
X16702635Y-16065944D01*
X16702635Y-16065944D02*
X16721682Y-16056420D01*
X16721682Y-16056420D02*
X16731206Y-16037372D01*
X16731206Y-16037372D02*
X16731206Y-16027848D01*
X16731206Y-16027848D02*
X16721682Y-16008801D01*
X16721682Y-16008801D02*
X16702635Y-15999277D01*
X16702635Y-15999277D02*
X16674063Y-15999277D01*
X16674063Y-15999277D02*
X16655016Y-15989753D01*
X16655016Y-15989753D02*
X16645492Y-15970706D01*
X16645492Y-15970706D02*
X16645492Y-15961182D01*
X16645492Y-15961182D02*
X16655016Y-15942134D01*
X16655016Y-15942134D02*
X16674063Y-15932610D01*
X16674063Y-15932610D02*
X16702635Y-15932610D01*
X16702635Y-15932610D02*
X16721682Y-15942134D01*
X16797873Y-16142134D02*
X16807397Y-16132610D01*
X16807397Y-16132610D02*
X16826444Y-16104039D01*
X16826444Y-16104039D02*
X16835968Y-16084991D01*
X16835968Y-16084991D02*
X16845492Y-16056420D01*
X16845492Y-16056420D02*
X16855016Y-16008801D01*
X16855016Y-16008801D02*
X16855016Y-15970706D01*
X16855016Y-15970706D02*
X16845492Y-15923087D01*
X16845492Y-15923087D02*
X16835968Y-15894515D01*
X16835968Y-15894515D02*
X16826444Y-15875468D01*
X16826444Y-15875468D02*
X16807397Y-15846896D01*
X16807397Y-15846896D02*
X16797873Y-15837372D01*
M02*
