%TF.GenerationSoftware,KiCad,Pcbnew,9.0.1*%
%TF.CreationDate,2025-07-08T00:04:54+02:00*%
%TF.ProjectId,burstcart-via,62757273-7463-4617-9274-2d7669612e6b,1.1b*%
%TF.SameCoordinates,Original*%
%TF.FileFunction,Drillmap*%
%TF.FilePolarity,Positive*%
%FSLAX45Y45*%
G04 Gerber Fmt 4.5, Leading zero omitted, Abs format (unit mm)*
G04 Created by KiCad (PCBNEW 9.0.1) date 2025-07-08 00:04:54*
%MOMM*%
%LPD*%
G01*
G04 APERTURE LIST*
%ADD10C,0.050000*%
%ADD11C,0.200000*%
%ADD12C,0.500000*%
G04 APERTURE END LIST*
D10*
X17625310Y-13275960D02*
X17425310Y-13275960D01*
X12025310Y-13275960D02*
X12025310Y-5175960D01*
X12025310Y-13275960D02*
X12225310Y-13275960D01*
X17325310Y-14275960D02*
X17425310Y-14175960D01*
X12025310Y-5175960D02*
X17625310Y-5175960D01*
X17425310Y-14175960D02*
X17425310Y-13275960D01*
X12225310Y-14175960D02*
X12225310Y-13275960D01*
X12325310Y-14275960D02*
X17325310Y-14275960D01*
X17625310Y-13275960D02*
X17625310Y-5175960D01*
X12325310Y-14275960D02*
X12225310Y-14175960D01*
D11*
D12*
X14575310Y-9175960D02*
X15075310Y-9675960D01*
X15075310Y-9175960D02*
X14575310Y-9675960D01*
D11*
X12283587Y-14589944D02*
X12283587Y-14389944D01*
X12283587Y-14389944D02*
X12331206Y-14389944D01*
X12331206Y-14389944D02*
X12359777Y-14399468D01*
X12359777Y-14399468D02*
X12378825Y-14418515D01*
X12378825Y-14418515D02*
X12388349Y-14437563D01*
X12388349Y-14437563D02*
X12397872Y-14475658D01*
X12397872Y-14475658D02*
X12397872Y-14504229D01*
X12397872Y-14504229D02*
X12388349Y-14542325D01*
X12388349Y-14542325D02*
X12378825Y-14561372D01*
X12378825Y-14561372D02*
X12359777Y-14580420D01*
X12359777Y-14580420D02*
X12331206Y-14589944D01*
X12331206Y-14589944D02*
X12283587Y-14589944D01*
X12483587Y-14589944D02*
X12483587Y-14456610D01*
X12483587Y-14494706D02*
X12493111Y-14475658D01*
X12493111Y-14475658D02*
X12502634Y-14466134D01*
X12502634Y-14466134D02*
X12521682Y-14456610D01*
X12521682Y-14456610D02*
X12540730Y-14456610D01*
X12607396Y-14589944D02*
X12607396Y-14456610D01*
X12607396Y-14389944D02*
X12597872Y-14399468D01*
X12597872Y-14399468D02*
X12607396Y-14408991D01*
X12607396Y-14408991D02*
X12616920Y-14399468D01*
X12616920Y-14399468D02*
X12607396Y-14389944D01*
X12607396Y-14389944D02*
X12607396Y-14408991D01*
X12731206Y-14589944D02*
X12712158Y-14580420D01*
X12712158Y-14580420D02*
X12702634Y-14561372D01*
X12702634Y-14561372D02*
X12702634Y-14389944D01*
X12835968Y-14589944D02*
X12816920Y-14580420D01*
X12816920Y-14580420D02*
X12807396Y-14561372D01*
X12807396Y-14561372D02*
X12807396Y-14389944D01*
X13064539Y-14589944D02*
X13064539Y-14389944D01*
X13064539Y-14389944D02*
X13131206Y-14532801D01*
X13131206Y-14532801D02*
X13197872Y-14389944D01*
X13197872Y-14389944D02*
X13197872Y-14589944D01*
X13378825Y-14589944D02*
X13378825Y-14485182D01*
X13378825Y-14485182D02*
X13369301Y-14466134D01*
X13369301Y-14466134D02*
X13350253Y-14456610D01*
X13350253Y-14456610D02*
X13312158Y-14456610D01*
X13312158Y-14456610D02*
X13293111Y-14466134D01*
X13378825Y-14580420D02*
X13359777Y-14589944D01*
X13359777Y-14589944D02*
X13312158Y-14589944D01*
X13312158Y-14589944D02*
X13293111Y-14580420D01*
X13293111Y-14580420D02*
X13283587Y-14561372D01*
X13283587Y-14561372D02*
X13283587Y-14542325D01*
X13283587Y-14542325D02*
X13293111Y-14523277D01*
X13293111Y-14523277D02*
X13312158Y-14513753D01*
X13312158Y-14513753D02*
X13359777Y-14513753D01*
X13359777Y-14513753D02*
X13378825Y-14504229D01*
X13474063Y-14456610D02*
X13474063Y-14656610D01*
X13474063Y-14466134D02*
X13493111Y-14456610D01*
X13493111Y-14456610D02*
X13531206Y-14456610D01*
X13531206Y-14456610D02*
X13550253Y-14466134D01*
X13550253Y-14466134D02*
X13559777Y-14475658D01*
X13559777Y-14475658D02*
X13569301Y-14494706D01*
X13569301Y-14494706D02*
X13569301Y-14551848D01*
X13569301Y-14551848D02*
X13559777Y-14570896D01*
X13559777Y-14570896D02*
X13550253Y-14580420D01*
X13550253Y-14580420D02*
X13531206Y-14589944D01*
X13531206Y-14589944D02*
X13493111Y-14589944D01*
X13493111Y-14589944D02*
X13474063Y-14580420D01*
X13655015Y-14570896D02*
X13664539Y-14580420D01*
X13664539Y-14580420D02*
X13655015Y-14589944D01*
X13655015Y-14589944D02*
X13645492Y-14580420D01*
X13645492Y-14580420D02*
X13655015Y-14570896D01*
X13655015Y-14570896D02*
X13655015Y-14589944D01*
X13655015Y-14466134D02*
X13664539Y-14475658D01*
X13664539Y-14475658D02*
X13655015Y-14485182D01*
X13655015Y-14485182D02*
X13645492Y-14475658D01*
X13645492Y-14475658D02*
X13655015Y-14466134D01*
X13655015Y-14466134D02*
X13655015Y-14485182D01*
X11822810Y-14818460D02*
X12022810Y-15018460D01*
X12022810Y-14818460D02*
X11822810Y-15018460D01*
X12378825Y-14809944D02*
X12283587Y-14809944D01*
X12283587Y-14809944D02*
X12274063Y-14905182D01*
X12274063Y-14905182D02*
X12283587Y-14895658D01*
X12283587Y-14895658D02*
X12302634Y-14886134D01*
X12302634Y-14886134D02*
X12350253Y-14886134D01*
X12350253Y-14886134D02*
X12369301Y-14895658D01*
X12369301Y-14895658D02*
X12378825Y-14905182D01*
X12378825Y-14905182D02*
X12388349Y-14924229D01*
X12388349Y-14924229D02*
X12388349Y-14971848D01*
X12388349Y-14971848D02*
X12378825Y-14990896D01*
X12378825Y-14990896D02*
X12369301Y-15000420D01*
X12369301Y-15000420D02*
X12350253Y-15009944D01*
X12350253Y-15009944D02*
X12302634Y-15009944D01*
X12302634Y-15009944D02*
X12283587Y-15000420D01*
X12283587Y-15000420D02*
X12274063Y-14990896D01*
X12474063Y-14990896D02*
X12483587Y-15000420D01*
X12483587Y-15000420D02*
X12474063Y-15009944D01*
X12474063Y-15009944D02*
X12464539Y-15000420D01*
X12464539Y-15000420D02*
X12474063Y-14990896D01*
X12474063Y-14990896D02*
X12474063Y-15009944D01*
X12607396Y-14809944D02*
X12626444Y-14809944D01*
X12626444Y-14809944D02*
X12645492Y-14819468D01*
X12645492Y-14819468D02*
X12655015Y-14828991D01*
X12655015Y-14828991D02*
X12664539Y-14848039D01*
X12664539Y-14848039D02*
X12674063Y-14886134D01*
X12674063Y-14886134D02*
X12674063Y-14933753D01*
X12674063Y-14933753D02*
X12664539Y-14971848D01*
X12664539Y-14971848D02*
X12655015Y-14990896D01*
X12655015Y-14990896D02*
X12645492Y-15000420D01*
X12645492Y-15000420D02*
X12626444Y-15009944D01*
X12626444Y-15009944D02*
X12607396Y-15009944D01*
X12607396Y-15009944D02*
X12588349Y-15000420D01*
X12588349Y-15000420D02*
X12578825Y-14990896D01*
X12578825Y-14990896D02*
X12569301Y-14971848D01*
X12569301Y-14971848D02*
X12559777Y-14933753D01*
X12559777Y-14933753D02*
X12559777Y-14886134D01*
X12559777Y-14886134D02*
X12569301Y-14848039D01*
X12569301Y-14848039D02*
X12578825Y-14828991D01*
X12578825Y-14828991D02*
X12588349Y-14819468D01*
X12588349Y-14819468D02*
X12607396Y-14809944D01*
X12797872Y-14809944D02*
X12816920Y-14809944D01*
X12816920Y-14809944D02*
X12835968Y-14819468D01*
X12835968Y-14819468D02*
X12845492Y-14828991D01*
X12845492Y-14828991D02*
X12855015Y-14848039D01*
X12855015Y-14848039D02*
X12864539Y-14886134D01*
X12864539Y-14886134D02*
X12864539Y-14933753D01*
X12864539Y-14933753D02*
X12855015Y-14971848D01*
X12855015Y-14971848D02*
X12845492Y-14990896D01*
X12845492Y-14990896D02*
X12835968Y-15000420D01*
X12835968Y-15000420D02*
X12816920Y-15009944D01*
X12816920Y-15009944D02*
X12797872Y-15009944D01*
X12797872Y-15009944D02*
X12778825Y-15000420D01*
X12778825Y-15000420D02*
X12769301Y-14990896D01*
X12769301Y-14990896D02*
X12759777Y-14971848D01*
X12759777Y-14971848D02*
X12750253Y-14933753D01*
X12750253Y-14933753D02*
X12750253Y-14886134D01*
X12750253Y-14886134D02*
X12759777Y-14848039D01*
X12759777Y-14848039D02*
X12769301Y-14828991D01*
X12769301Y-14828991D02*
X12778825Y-14819468D01*
X12778825Y-14819468D02*
X12797872Y-14809944D01*
X12988349Y-14809944D02*
X13007396Y-14809944D01*
X13007396Y-14809944D02*
X13026444Y-14819468D01*
X13026444Y-14819468D02*
X13035968Y-14828991D01*
X13035968Y-14828991D02*
X13045492Y-14848039D01*
X13045492Y-14848039D02*
X13055015Y-14886134D01*
X13055015Y-14886134D02*
X13055015Y-14933753D01*
X13055015Y-14933753D02*
X13045492Y-14971848D01*
X13045492Y-14971848D02*
X13035968Y-14990896D01*
X13035968Y-14990896D02*
X13026444Y-15000420D01*
X13026444Y-15000420D02*
X13007396Y-15009944D01*
X13007396Y-15009944D02*
X12988349Y-15009944D01*
X12988349Y-15009944D02*
X12969301Y-15000420D01*
X12969301Y-15000420D02*
X12959777Y-14990896D01*
X12959777Y-14990896D02*
X12950253Y-14971848D01*
X12950253Y-14971848D02*
X12940730Y-14933753D01*
X12940730Y-14933753D02*
X12940730Y-14886134D01*
X12940730Y-14886134D02*
X12950253Y-14848039D01*
X12950253Y-14848039D02*
X12959777Y-14828991D01*
X12959777Y-14828991D02*
X12969301Y-14819468D01*
X12969301Y-14819468D02*
X12988349Y-14809944D01*
X13140730Y-15009944D02*
X13140730Y-14876610D01*
X13140730Y-14895658D02*
X13150253Y-14886134D01*
X13150253Y-14886134D02*
X13169301Y-14876610D01*
X13169301Y-14876610D02*
X13197873Y-14876610D01*
X13197873Y-14876610D02*
X13216920Y-14886134D01*
X13216920Y-14886134D02*
X13226444Y-14905182D01*
X13226444Y-14905182D02*
X13226444Y-15009944D01*
X13226444Y-14905182D02*
X13235968Y-14886134D01*
X13235968Y-14886134D02*
X13255015Y-14876610D01*
X13255015Y-14876610D02*
X13283587Y-14876610D01*
X13283587Y-14876610D02*
X13302634Y-14886134D01*
X13302634Y-14886134D02*
X13312158Y-14905182D01*
X13312158Y-14905182D02*
X13312158Y-15009944D01*
X13407396Y-15009944D02*
X13407396Y-14876610D01*
X13407396Y-14895658D02*
X13416920Y-14886134D01*
X13416920Y-14886134D02*
X13435968Y-14876610D01*
X13435968Y-14876610D02*
X13464539Y-14876610D01*
X13464539Y-14876610D02*
X13483587Y-14886134D01*
X13483587Y-14886134D02*
X13493111Y-14905182D01*
X13493111Y-14905182D02*
X13493111Y-15009944D01*
X13493111Y-14905182D02*
X13502634Y-14886134D01*
X13502634Y-14886134D02*
X13521682Y-14876610D01*
X13521682Y-14876610D02*
X13550253Y-14876610D01*
X13550253Y-14876610D02*
X13569301Y-14886134D01*
X13569301Y-14886134D02*
X13578825Y-14905182D01*
X13578825Y-14905182D02*
X13578825Y-15009944D01*
X13969301Y-14800420D02*
X13797873Y-15057563D01*
X14226444Y-14809944D02*
X14245492Y-14809944D01*
X14245492Y-14809944D02*
X14264539Y-14819468D01*
X14264539Y-14819468D02*
X14274063Y-14828991D01*
X14274063Y-14828991D02*
X14283587Y-14848039D01*
X14283587Y-14848039D02*
X14293111Y-14886134D01*
X14293111Y-14886134D02*
X14293111Y-14933753D01*
X14293111Y-14933753D02*
X14283587Y-14971848D01*
X14283587Y-14971848D02*
X14274063Y-14990896D01*
X14274063Y-14990896D02*
X14264539Y-15000420D01*
X14264539Y-15000420D02*
X14245492Y-15009944D01*
X14245492Y-15009944D02*
X14226444Y-15009944D01*
X14226444Y-15009944D02*
X14207396Y-15000420D01*
X14207396Y-15000420D02*
X14197873Y-14990896D01*
X14197873Y-14990896D02*
X14188349Y-14971848D01*
X14188349Y-14971848D02*
X14178825Y-14933753D01*
X14178825Y-14933753D02*
X14178825Y-14886134D01*
X14178825Y-14886134D02*
X14188349Y-14848039D01*
X14188349Y-14848039D02*
X14197873Y-14828991D01*
X14197873Y-14828991D02*
X14207396Y-14819468D01*
X14207396Y-14819468D02*
X14226444Y-14809944D01*
X14378825Y-14990896D02*
X14388349Y-15000420D01*
X14388349Y-15000420D02*
X14378825Y-15009944D01*
X14378825Y-15009944D02*
X14369301Y-15000420D01*
X14369301Y-15000420D02*
X14378825Y-14990896D01*
X14378825Y-14990896D02*
X14378825Y-15009944D01*
X14578825Y-15009944D02*
X14464539Y-15009944D01*
X14521682Y-15009944D02*
X14521682Y-14809944D01*
X14521682Y-14809944D02*
X14502635Y-14838515D01*
X14502635Y-14838515D02*
X14483587Y-14857563D01*
X14483587Y-14857563D02*
X14464539Y-14867087D01*
X14674063Y-15009944D02*
X14712158Y-15009944D01*
X14712158Y-15009944D02*
X14731206Y-15000420D01*
X14731206Y-15000420D02*
X14740730Y-14990896D01*
X14740730Y-14990896D02*
X14759777Y-14962325D01*
X14759777Y-14962325D02*
X14769301Y-14924229D01*
X14769301Y-14924229D02*
X14769301Y-14848039D01*
X14769301Y-14848039D02*
X14759777Y-14828991D01*
X14759777Y-14828991D02*
X14750254Y-14819468D01*
X14750254Y-14819468D02*
X14731206Y-14809944D01*
X14731206Y-14809944D02*
X14693111Y-14809944D01*
X14693111Y-14809944D02*
X14674063Y-14819468D01*
X14674063Y-14819468D02*
X14664539Y-14828991D01*
X14664539Y-14828991D02*
X14655016Y-14848039D01*
X14655016Y-14848039D02*
X14655016Y-14895658D01*
X14655016Y-14895658D02*
X14664539Y-14914706D01*
X14664539Y-14914706D02*
X14674063Y-14924229D01*
X14674063Y-14924229D02*
X14693111Y-14933753D01*
X14693111Y-14933753D02*
X14731206Y-14933753D01*
X14731206Y-14933753D02*
X14750254Y-14924229D01*
X14750254Y-14924229D02*
X14759777Y-14914706D01*
X14759777Y-14914706D02*
X14769301Y-14895658D01*
X14940730Y-14809944D02*
X14902635Y-14809944D01*
X14902635Y-14809944D02*
X14883587Y-14819468D01*
X14883587Y-14819468D02*
X14874063Y-14828991D01*
X14874063Y-14828991D02*
X14855016Y-14857563D01*
X14855016Y-14857563D02*
X14845492Y-14895658D01*
X14845492Y-14895658D02*
X14845492Y-14971848D01*
X14845492Y-14971848D02*
X14855016Y-14990896D01*
X14855016Y-14990896D02*
X14864539Y-15000420D01*
X14864539Y-15000420D02*
X14883587Y-15009944D01*
X14883587Y-15009944D02*
X14921682Y-15009944D01*
X14921682Y-15009944D02*
X14940730Y-15000420D01*
X14940730Y-15000420D02*
X14950254Y-14990896D01*
X14950254Y-14990896D02*
X14959777Y-14971848D01*
X14959777Y-14971848D02*
X14959777Y-14924229D01*
X14959777Y-14924229D02*
X14950254Y-14905182D01*
X14950254Y-14905182D02*
X14940730Y-14895658D01*
X14940730Y-14895658D02*
X14921682Y-14886134D01*
X14921682Y-14886134D02*
X14883587Y-14886134D01*
X14883587Y-14886134D02*
X14864539Y-14895658D01*
X14864539Y-14895658D02*
X14855016Y-14905182D01*
X14855016Y-14905182D02*
X14845492Y-14924229D01*
X15055016Y-15009944D02*
X15093111Y-15009944D01*
X15093111Y-15009944D02*
X15112158Y-15000420D01*
X15112158Y-15000420D02*
X15121682Y-14990896D01*
X15121682Y-14990896D02*
X15140730Y-14962325D01*
X15140730Y-14962325D02*
X15150254Y-14924229D01*
X15150254Y-14924229D02*
X15150254Y-14848039D01*
X15150254Y-14848039D02*
X15140730Y-14828991D01*
X15140730Y-14828991D02*
X15131206Y-14819468D01*
X15131206Y-14819468D02*
X15112158Y-14809944D01*
X15112158Y-14809944D02*
X15074063Y-14809944D01*
X15074063Y-14809944D02*
X15055016Y-14819468D01*
X15055016Y-14819468D02*
X15045492Y-14828991D01*
X15045492Y-14828991D02*
X15035968Y-14848039D01*
X15035968Y-14848039D02*
X15035968Y-14895658D01*
X15035968Y-14895658D02*
X15045492Y-14914706D01*
X15045492Y-14914706D02*
X15055016Y-14924229D01*
X15055016Y-14924229D02*
X15074063Y-14933753D01*
X15074063Y-14933753D02*
X15112158Y-14933753D01*
X15112158Y-14933753D02*
X15131206Y-14924229D01*
X15131206Y-14924229D02*
X15140730Y-14914706D01*
X15140730Y-14914706D02*
X15150254Y-14895658D01*
X15226444Y-14809944D02*
X15226444Y-14848039D01*
X15302635Y-14809944D02*
X15302635Y-14848039D01*
X15597873Y-15086134D02*
X15588349Y-15076610D01*
X15588349Y-15076610D02*
X15569301Y-15048039D01*
X15569301Y-15048039D02*
X15559778Y-15028991D01*
X15559778Y-15028991D02*
X15550254Y-15000420D01*
X15550254Y-15000420D02*
X15540730Y-14952801D01*
X15540730Y-14952801D02*
X15540730Y-14914706D01*
X15540730Y-14914706D02*
X15550254Y-14867087D01*
X15550254Y-14867087D02*
X15559778Y-14838515D01*
X15559778Y-14838515D02*
X15569301Y-14819468D01*
X15569301Y-14819468D02*
X15588349Y-14790896D01*
X15588349Y-14790896D02*
X15597873Y-14781372D01*
X15778825Y-15009944D02*
X15664539Y-15009944D01*
X15721682Y-15009944D02*
X15721682Y-14809944D01*
X15721682Y-14809944D02*
X15702635Y-14838515D01*
X15702635Y-14838515D02*
X15683587Y-14857563D01*
X15683587Y-14857563D02*
X15664539Y-14867087D01*
X16016920Y-15009944D02*
X16016920Y-14809944D01*
X16102635Y-15009944D02*
X16102635Y-14905182D01*
X16102635Y-14905182D02*
X16093111Y-14886134D01*
X16093111Y-14886134D02*
X16074063Y-14876610D01*
X16074063Y-14876610D02*
X16045492Y-14876610D01*
X16045492Y-14876610D02*
X16026444Y-14886134D01*
X16026444Y-14886134D02*
X16016920Y-14895658D01*
X16226444Y-15009944D02*
X16207397Y-15000420D01*
X16207397Y-15000420D02*
X16197873Y-14990896D01*
X16197873Y-14990896D02*
X16188349Y-14971848D01*
X16188349Y-14971848D02*
X16188349Y-14914706D01*
X16188349Y-14914706D02*
X16197873Y-14895658D01*
X16197873Y-14895658D02*
X16207397Y-14886134D01*
X16207397Y-14886134D02*
X16226444Y-14876610D01*
X16226444Y-14876610D02*
X16255016Y-14876610D01*
X16255016Y-14876610D02*
X16274063Y-14886134D01*
X16274063Y-14886134D02*
X16283587Y-14895658D01*
X16283587Y-14895658D02*
X16293111Y-14914706D01*
X16293111Y-14914706D02*
X16293111Y-14971848D01*
X16293111Y-14971848D02*
X16283587Y-14990896D01*
X16283587Y-14990896D02*
X16274063Y-15000420D01*
X16274063Y-15000420D02*
X16255016Y-15009944D01*
X16255016Y-15009944D02*
X16226444Y-15009944D01*
X16407397Y-15009944D02*
X16388349Y-15000420D01*
X16388349Y-15000420D02*
X16378825Y-14981372D01*
X16378825Y-14981372D02*
X16378825Y-14809944D01*
X16559778Y-15000420D02*
X16540730Y-15009944D01*
X16540730Y-15009944D02*
X16502635Y-15009944D01*
X16502635Y-15009944D02*
X16483587Y-15000420D01*
X16483587Y-15000420D02*
X16474063Y-14981372D01*
X16474063Y-14981372D02*
X16474063Y-14905182D01*
X16474063Y-14905182D02*
X16483587Y-14886134D01*
X16483587Y-14886134D02*
X16502635Y-14876610D01*
X16502635Y-14876610D02*
X16540730Y-14876610D01*
X16540730Y-14876610D02*
X16559778Y-14886134D01*
X16559778Y-14886134D02*
X16569301Y-14905182D01*
X16569301Y-14905182D02*
X16569301Y-14924229D01*
X16569301Y-14924229D02*
X16474063Y-14943277D01*
X16635968Y-15086134D02*
X16645492Y-15076610D01*
X16645492Y-15076610D02*
X16664540Y-15048039D01*
X16664540Y-15048039D02*
X16674063Y-15028991D01*
X16674063Y-15028991D02*
X16683587Y-15000420D01*
X16683587Y-15000420D02*
X16693111Y-14952801D01*
X16693111Y-14952801D02*
X16693111Y-14914706D01*
X16693111Y-14914706D02*
X16683587Y-14867087D01*
X16683587Y-14867087D02*
X16674063Y-14838515D01*
X16674063Y-14838515D02*
X16664540Y-14819468D01*
X16664540Y-14819468D02*
X16645492Y-14790896D01*
X16645492Y-14790896D02*
X16635968Y-14781372D01*
X16997873Y-15086134D02*
X16988349Y-15076610D01*
X16988349Y-15076610D02*
X16969302Y-15048039D01*
X16969302Y-15048039D02*
X16959778Y-15028991D01*
X16959778Y-15028991D02*
X16950254Y-15000420D01*
X16950254Y-15000420D02*
X16940730Y-14952801D01*
X16940730Y-14952801D02*
X16940730Y-14914706D01*
X16940730Y-14914706D02*
X16950254Y-14867087D01*
X16950254Y-14867087D02*
X16959778Y-14838515D01*
X16959778Y-14838515D02*
X16969302Y-14819468D01*
X16969302Y-14819468D02*
X16988349Y-14790896D01*
X16988349Y-14790896D02*
X16997873Y-14781372D01*
X17074063Y-14876610D02*
X17074063Y-15009944D01*
X17074063Y-14895658D02*
X17083587Y-14886134D01*
X17083587Y-14886134D02*
X17102635Y-14876610D01*
X17102635Y-14876610D02*
X17131206Y-14876610D01*
X17131206Y-14876610D02*
X17150254Y-14886134D01*
X17150254Y-14886134D02*
X17159778Y-14905182D01*
X17159778Y-14905182D02*
X17159778Y-15009944D01*
X17283587Y-15009944D02*
X17264540Y-15000420D01*
X17264540Y-15000420D02*
X17255016Y-14990896D01*
X17255016Y-14990896D02*
X17245492Y-14971848D01*
X17245492Y-14971848D02*
X17245492Y-14914706D01*
X17245492Y-14914706D02*
X17255016Y-14895658D01*
X17255016Y-14895658D02*
X17264540Y-14886134D01*
X17264540Y-14886134D02*
X17283587Y-14876610D01*
X17283587Y-14876610D02*
X17312159Y-14876610D01*
X17312159Y-14876610D02*
X17331206Y-14886134D01*
X17331206Y-14886134D02*
X17340730Y-14895658D01*
X17340730Y-14895658D02*
X17350254Y-14914706D01*
X17350254Y-14914706D02*
X17350254Y-14971848D01*
X17350254Y-14971848D02*
X17340730Y-14990896D01*
X17340730Y-14990896D02*
X17331206Y-15000420D01*
X17331206Y-15000420D02*
X17312159Y-15009944D01*
X17312159Y-15009944D02*
X17283587Y-15009944D01*
X17407397Y-14876610D02*
X17483587Y-14876610D01*
X17435968Y-14809944D02*
X17435968Y-14981372D01*
X17435968Y-14981372D02*
X17445492Y-15000420D01*
X17445492Y-15000420D02*
X17464540Y-15009944D01*
X17464540Y-15009944D02*
X17483587Y-15009944D01*
X17702635Y-14876610D02*
X17702635Y-15076610D01*
X17702635Y-14886134D02*
X17721683Y-14876610D01*
X17721683Y-14876610D02*
X17759778Y-14876610D01*
X17759778Y-14876610D02*
X17778825Y-14886134D01*
X17778825Y-14886134D02*
X17788349Y-14895658D01*
X17788349Y-14895658D02*
X17797873Y-14914706D01*
X17797873Y-14914706D02*
X17797873Y-14971848D01*
X17797873Y-14971848D02*
X17788349Y-14990896D01*
X17788349Y-14990896D02*
X17778825Y-15000420D01*
X17778825Y-15000420D02*
X17759778Y-15009944D01*
X17759778Y-15009944D02*
X17721683Y-15009944D01*
X17721683Y-15009944D02*
X17702635Y-15000420D01*
X17912159Y-15009944D02*
X17893111Y-15000420D01*
X17893111Y-15000420D02*
X17883587Y-14981372D01*
X17883587Y-14981372D02*
X17883587Y-14809944D01*
X18074064Y-15009944D02*
X18074064Y-14905182D01*
X18074064Y-14905182D02*
X18064540Y-14886134D01*
X18064540Y-14886134D02*
X18045492Y-14876610D01*
X18045492Y-14876610D02*
X18007397Y-14876610D01*
X18007397Y-14876610D02*
X17988349Y-14886134D01*
X18074064Y-15000420D02*
X18055016Y-15009944D01*
X18055016Y-15009944D02*
X18007397Y-15009944D01*
X18007397Y-15009944D02*
X17988349Y-15000420D01*
X17988349Y-15000420D02*
X17978825Y-14981372D01*
X17978825Y-14981372D02*
X17978825Y-14962325D01*
X17978825Y-14962325D02*
X17988349Y-14943277D01*
X17988349Y-14943277D02*
X18007397Y-14933753D01*
X18007397Y-14933753D02*
X18055016Y-14933753D01*
X18055016Y-14933753D02*
X18074064Y-14924229D01*
X18140730Y-14876610D02*
X18216921Y-14876610D01*
X18169302Y-14809944D02*
X18169302Y-14981372D01*
X18169302Y-14981372D02*
X18178825Y-15000420D01*
X18178825Y-15000420D02*
X18197873Y-15009944D01*
X18197873Y-15009944D02*
X18216921Y-15009944D01*
X18359778Y-15000420D02*
X18340730Y-15009944D01*
X18340730Y-15009944D02*
X18302635Y-15009944D01*
X18302635Y-15009944D02*
X18283587Y-15000420D01*
X18283587Y-15000420D02*
X18274064Y-14981372D01*
X18274064Y-14981372D02*
X18274064Y-14905182D01*
X18274064Y-14905182D02*
X18283587Y-14886134D01*
X18283587Y-14886134D02*
X18302635Y-14876610D01*
X18302635Y-14876610D02*
X18340730Y-14876610D01*
X18340730Y-14876610D02*
X18359778Y-14886134D01*
X18359778Y-14886134D02*
X18369302Y-14905182D01*
X18369302Y-14905182D02*
X18369302Y-14924229D01*
X18369302Y-14924229D02*
X18274064Y-14943277D01*
X18540730Y-15009944D02*
X18540730Y-14809944D01*
X18540730Y-15000420D02*
X18521683Y-15009944D01*
X18521683Y-15009944D02*
X18483587Y-15009944D01*
X18483587Y-15009944D02*
X18464540Y-15000420D01*
X18464540Y-15000420D02*
X18455016Y-14990896D01*
X18455016Y-14990896D02*
X18445492Y-14971848D01*
X18445492Y-14971848D02*
X18445492Y-14914706D01*
X18445492Y-14914706D02*
X18455016Y-14895658D01*
X18455016Y-14895658D02*
X18464540Y-14886134D01*
X18464540Y-14886134D02*
X18483587Y-14876610D01*
X18483587Y-14876610D02*
X18521683Y-14876610D01*
X18521683Y-14876610D02*
X18540730Y-14886134D01*
X18616921Y-15086134D02*
X18626445Y-15076610D01*
X18626445Y-15076610D02*
X18645492Y-15048039D01*
X18645492Y-15048039D02*
X18655016Y-15028991D01*
X18655016Y-15028991D02*
X18664540Y-15000420D01*
X18664540Y-15000420D02*
X18674064Y-14952801D01*
X18674064Y-14952801D02*
X18674064Y-14914706D01*
X18674064Y-14914706D02*
X18664540Y-14867087D01*
X18664540Y-14867087D02*
X18655016Y-14838515D01*
X18655016Y-14838515D02*
X18645492Y-14819468D01*
X18645492Y-14819468D02*
X18626445Y-14790896D01*
X18626445Y-14790896D02*
X18616921Y-14781372D01*
M02*
