G04 #@! TF.GenerationSoftware,KiCad,Pcbnew,6.0.2+dfsg-1*
G04 #@! TF.CreationDate,2025-05-07T10:32:11+02:00*
G04 #@! TF.ProjectId,burstcart-via,62757273-7463-4617-9274-2d7669612e6b,1.1*
G04 #@! TF.SameCoordinates,Original*
G04 #@! TF.FileFunction,Soldermask,Bot*
G04 #@! TF.FilePolarity,Negative*
%FSLAX46Y46*%
G04 Gerber Fmt 4.6, Leading zero omitted, Abs format (unit mm)*
G04 Created by KiCad (PCBNEW 6.0.2+dfsg-1) date 2025-05-07 10:32:11*
%MOMM*%
%LPD*%
G01*
G04 APERTURE LIST*
G04 Aperture macros list*
%AMRoundRect*
0 Rectangle with rounded corners*
0 $1 Rounding radius*
0 $2 $3 $4 $5 $6 $7 $8 $9 X,Y pos of 4 corners*
0 Add a 4 corners polygon primitive as box body*
4,1,4,$2,$3,$4,$5,$6,$7,$8,$9,$2,$3,0*
0 Add four circle primitives for the rounded corners*
1,1,$1+$1,$2,$3*
1,1,$1+$1,$4,$5*
1,1,$1+$1,$6,$7*
1,1,$1+$1,$8,$9*
0 Add four rect primitives between the rounded corners*
20,1,$1+$1,$2,$3,$4,$5,0*
20,1,$1+$1,$4,$5,$6,$7,0*
20,1,$1+$1,$6,$7,$8,$9,0*
20,1,$1+$1,$8,$9,$2,$3,0*%
%AMFreePoly0*
4,1,22,0.550000,-0.750000,0.000000,-0.750000,0.000000,-0.745033,-0.079941,-0.743568,-0.215256,-0.701293,-0.333266,-0.622738,-0.424486,-0.514219,-0.481581,-0.384460,-0.499164,-0.250000,-0.500000,-0.250000,-0.500000,0.250000,-0.499164,0.250000,-0.499963,0.256109,-0.478152,0.396186,-0.417904,0.524511,-0.324060,0.630769,-0.204165,0.706417,-0.067858,0.745374,0.000000,0.744959,0.000000,0.750000,
0.550000,0.750000,0.550000,-0.750000,0.550000,-0.750000,$1*%
%AMFreePoly1*
4,1,20,0.000000,0.744959,0.073905,0.744508,0.209726,0.703889,0.328688,0.626782,0.421226,0.519385,0.479903,0.390333,0.500000,0.250000,0.500000,-0.250000,0.499851,-0.262216,0.476331,-0.402017,0.414519,-0.529596,0.319384,-0.634700,0.198574,-0.708877,0.061801,-0.746166,0.000000,-0.745033,0.000000,-0.750000,-0.550000,-0.750000,-0.550000,0.750000,0.000000,0.750000,0.000000,0.744959,
0.000000,0.744959,$1*%
G04 Aperture macros list end*
%ADD10R,1.500000X1.000000*%
%ADD11C,1.600000*%
%ADD12O,1.600000X1.600000*%
%ADD13R,1.700000X1.700000*%
%ADD14O,1.700000X1.700000*%
%ADD15C,2.100000*%
%ADD16C,2.500000*%
%ADD17R,1.600000X1.600000*%
%ADD18C,5.000000*%
%ADD19RoundRect,0.163300X-0.337500X-4.512500X0.337500X-4.512500X0.337500X4.512500X-0.337500X4.512500X0*%
%ADD20FreePoly0,0.000000*%
%ADD21R,1.000000X1.500000*%
%ADD22FreePoly1,0.000000*%
G04 APERTURE END LIST*
D10*
X141478000Y-104424000D03*
X141478000Y-103124000D03*
X141478000Y-101824000D03*
D11*
X140970000Y-75184000D03*
D12*
X151130000Y-75184000D03*
D11*
X127762000Y-71628000D03*
X122762000Y-71628000D03*
D13*
X147066000Y-55626000D03*
D14*
X149606000Y-55626000D03*
X147066000Y-58166000D03*
X149606000Y-58166000D03*
X147066000Y-60706000D03*
X149606000Y-60706000D03*
X147066000Y-63246000D03*
X149606000Y-63246000D03*
X147066000Y-65786000D03*
X149606000Y-65786000D03*
D15*
X127976000Y-53294000D03*
X125476000Y-53594000D03*
X132976000Y-53294000D03*
X135476000Y-53594000D03*
D16*
X122976000Y-63294000D03*
X125476000Y-65794000D03*
X130476000Y-63294000D03*
X135476000Y-65794000D03*
X137976000Y-63294000D03*
X130476000Y-68294000D03*
D17*
X158999000Y-94727000D03*
D12*
X158999000Y-97267000D03*
X158999000Y-99807000D03*
X158999000Y-102347000D03*
X158999000Y-104887000D03*
X158999000Y-107427000D03*
X158999000Y-109967000D03*
X158999000Y-112507000D03*
X158999000Y-115047000D03*
X158999000Y-117587000D03*
X158999000Y-120127000D03*
X158999000Y-122667000D03*
X158999000Y-125207000D03*
X158999000Y-127747000D03*
X174239000Y-127747000D03*
X174239000Y-125207000D03*
X174239000Y-122667000D03*
X174239000Y-120127000D03*
X174239000Y-117587000D03*
X174239000Y-115047000D03*
X174239000Y-112507000D03*
X174239000Y-109967000D03*
X174239000Y-107427000D03*
X174239000Y-104887000D03*
X174239000Y-102347000D03*
X174239000Y-99807000D03*
X174239000Y-97267000D03*
X174239000Y-94727000D03*
D11*
X155448000Y-95504000D03*
X155448000Y-100504000D03*
D17*
X134620000Y-128016000D03*
D12*
X127000000Y-128016000D03*
D17*
X158750000Y-74234000D03*
D12*
X161290000Y-74234000D03*
X163830000Y-74234000D03*
X166370000Y-74234000D03*
X168910000Y-74234000D03*
X171450000Y-74234000D03*
X173990000Y-74234000D03*
X173990000Y-66614000D03*
X171450000Y-66614000D03*
X168910000Y-66614000D03*
X166370000Y-66614000D03*
X163830000Y-66614000D03*
X161290000Y-66614000D03*
X158750000Y-66614000D03*
D11*
X140970000Y-85090000D03*
D12*
X151130000Y-85090000D03*
D18*
X148253100Y-94259600D03*
D19*
X124253100Y-137759600D03*
X168253100Y-137759600D03*
X126253100Y-137759600D03*
X170253100Y-137759600D03*
X128253100Y-137759600D03*
X172253100Y-137759600D03*
X130253100Y-137759600D03*
X132253100Y-137759600D03*
X134253100Y-137759600D03*
X136253100Y-137759600D03*
X138253100Y-137759600D03*
X140253100Y-137759600D03*
X142253100Y-137759600D03*
X144253100Y-137759600D03*
X146253100Y-137759600D03*
X148253100Y-137759600D03*
X150253100Y-137759600D03*
X152253100Y-137759600D03*
X154253100Y-137759600D03*
X156253100Y-137759600D03*
X158253100Y-137759600D03*
X160253100Y-137759600D03*
X162253100Y-137759600D03*
X164253100Y-137759600D03*
X166253100Y-137759600D03*
D13*
X169164000Y-91186000D03*
D14*
X171704000Y-91186000D03*
X174244000Y-91186000D03*
D13*
X173223000Y-81783000D03*
D14*
X173223000Y-84323000D03*
X170683000Y-81783000D03*
X170683000Y-84323000D03*
X168143000Y-81783000D03*
X168143000Y-84323000D03*
X165603000Y-81783000D03*
X165603000Y-84323000D03*
X163063000Y-81783000D03*
X163063000Y-84323000D03*
D17*
X152390000Y-128529000D03*
D12*
X152390000Y-125989000D03*
X152390000Y-123449000D03*
X152390000Y-120909000D03*
X152390000Y-118369000D03*
X152390000Y-115829000D03*
X152390000Y-113289000D03*
X152390000Y-110749000D03*
X152390000Y-108209000D03*
X152390000Y-105669000D03*
X152390000Y-103129000D03*
X152390000Y-100589000D03*
X144770000Y-100589000D03*
X144770000Y-103129000D03*
X144770000Y-105669000D03*
X144770000Y-108209000D03*
X144770000Y-110749000D03*
X144770000Y-113289000D03*
X144770000Y-115829000D03*
X144770000Y-118369000D03*
X144770000Y-120909000D03*
X144770000Y-123449000D03*
X144770000Y-125989000D03*
X144770000Y-128529000D03*
D17*
X158750000Y-62484000D03*
D12*
X161290000Y-62484000D03*
X163830000Y-62484000D03*
X166370000Y-62484000D03*
X168910000Y-62484000D03*
X171450000Y-62484000D03*
X173990000Y-62484000D03*
X173990000Y-54864000D03*
X171450000Y-54864000D03*
X168910000Y-54864000D03*
X166370000Y-54864000D03*
X163830000Y-54864000D03*
X161290000Y-54864000D03*
X158750000Y-54864000D03*
D17*
X156210000Y-84267100D03*
D11*
X156210000Y-82267100D03*
X140970000Y-78486000D03*
D12*
X151130000Y-78486000D03*
D17*
X122423000Y-75184000D03*
D12*
X122423000Y-77724000D03*
X122423000Y-80264000D03*
X122423000Y-82804000D03*
X122423000Y-85344000D03*
X122423000Y-87884000D03*
X122423000Y-90424000D03*
X122423000Y-92964000D03*
X122423000Y-95504000D03*
X122423000Y-98044000D03*
X122423000Y-100584000D03*
X122423000Y-103124000D03*
X122423000Y-105664000D03*
X122423000Y-108204000D03*
X122423000Y-110744000D03*
X122423000Y-113284000D03*
X122423000Y-115824000D03*
X122423000Y-118364000D03*
X122423000Y-120904000D03*
X122423000Y-123444000D03*
X137663000Y-123444000D03*
X137663000Y-120904000D03*
X137663000Y-118364000D03*
X137663000Y-115824000D03*
X137663000Y-113284000D03*
X137663000Y-110744000D03*
X137663000Y-108204000D03*
X137663000Y-105664000D03*
X137663000Y-103124000D03*
X137663000Y-100584000D03*
X137663000Y-98044000D03*
X137663000Y-95504000D03*
X137663000Y-92964000D03*
X137663000Y-90424000D03*
X137663000Y-87884000D03*
X137663000Y-85344000D03*
X137663000Y-82804000D03*
X137663000Y-80264000D03*
X137663000Y-77724000D03*
X137663000Y-75184000D03*
D11*
X155448000Y-66614000D03*
X155448000Y-71614000D03*
X155448000Y-54930000D03*
X155448000Y-59930000D03*
X140970000Y-81788000D03*
D12*
X151130000Y-81788000D03*
D11*
X140970000Y-71882000D03*
D12*
X151130000Y-71882000D03*
D10*
X140970000Y-111984000D03*
X140970000Y-113284000D03*
X140970000Y-114584000D03*
D20*
X129256000Y-122174000D03*
D21*
X130556000Y-122174000D03*
D22*
X131856000Y-122174000D03*
M02*
