G04 #@! TF.GenerationSoftware,KiCad,Pcbnew,6.0.2+dfsg-1*
G04 #@! TF.CreationDate,2025-05-07T10:32:10+02:00*
G04 #@! TF.ProjectId,burstcart-via,62757273-7463-4617-9274-2d7669612e6b,1.1*
G04 #@! TF.SameCoordinates,Original*
G04 #@! TF.FileFunction,Legend,Bot*
G04 #@! TF.FilePolarity,Positive*
%FSLAX46Y46*%
G04 Gerber Fmt 4.6, Leading zero omitted, Abs format (unit mm)*
G04 Created by KiCad (PCBNEW 6.0.2+dfsg-1) date 2025-05-07 10:32:10*
%MOMM*%
%LPD*%
G01*
G04 APERTURE LIST*
G04 Aperture macros list*
%AMRoundRect*
0 Rectangle with rounded corners*
0 $1 Rounding radius*
0 $2 $3 $4 $5 $6 $7 $8 $9 X,Y pos of 4 corners*
0 Add a 4 corners polygon primitive as box body*
4,1,4,$2,$3,$4,$5,$6,$7,$8,$9,$2,$3,0*
0 Add four circle primitives for the rounded corners*
1,1,$1+$1,$2,$3*
1,1,$1+$1,$4,$5*
1,1,$1+$1,$6,$7*
1,1,$1+$1,$8,$9*
0 Add four rect primitives between the rounded corners*
20,1,$1+$1,$2,$3,$4,$5,0*
20,1,$1+$1,$4,$5,$6,$7,0*
20,1,$1+$1,$6,$7,$8,$9,0*
20,1,$1+$1,$8,$9,$2,$3,0*%
%AMFreePoly0*
4,1,22,0.550000,-0.750000,0.000000,-0.750000,0.000000,-0.745033,-0.079941,-0.743568,-0.215256,-0.701293,-0.333266,-0.622738,-0.424486,-0.514219,-0.481581,-0.384460,-0.499164,-0.250000,-0.500000,-0.250000,-0.500000,0.250000,-0.499164,0.250000,-0.499963,0.256109,-0.478152,0.396186,-0.417904,0.524511,-0.324060,0.630769,-0.204165,0.706417,-0.067858,0.745374,0.000000,0.744959,0.000000,0.750000,
0.550000,0.750000,0.550000,-0.750000,0.550000,-0.750000,$1*%
%AMFreePoly1*
4,1,20,0.000000,0.744959,0.073905,0.744508,0.209726,0.703889,0.328688,0.626782,0.421226,0.519385,0.479903,0.390333,0.500000,0.250000,0.500000,-0.250000,0.499851,-0.262216,0.476331,-0.402017,0.414519,-0.529596,0.319384,-0.634700,0.198574,-0.708877,0.061801,-0.746166,0.000000,-0.745033,0.000000,-0.750000,-0.550000,-0.750000,-0.550000,0.750000,0.000000,0.750000,0.000000,0.744959,
0.000000,0.744959,$1*%
G04 Aperture macros list end*
%ADD10C,0.125000*%
%ADD11C,0.200000*%
%ADD12C,0.150000*%
%ADD13C,0.120000*%
%ADD14R,1.500000X1.000000*%
%ADD15C,1.600000*%
%ADD16O,1.600000X1.600000*%
%ADD17R,1.700000X1.700000*%
%ADD18O,1.700000X1.700000*%
%ADD19C,2.100000*%
%ADD20C,2.500000*%
%ADD21R,1.600000X1.600000*%
%ADD22C,5.000000*%
%ADD23RoundRect,0.163300X-0.337500X-4.512500X0.337500X-4.512500X0.337500X4.512500X-0.337500X4.512500X0*%
%ADD24FreePoly0,0.000000*%
%ADD25R,1.000000X1.500000*%
%ADD26FreePoly1,0.000000*%
G04 APERTURE END LIST*
D10*
X132689321Y-124799690D02*
X132379797Y-124799690D01*
X132546464Y-124990166D01*
X132475035Y-124990166D01*
X132427416Y-125013976D01*
X132403607Y-125037785D01*
X132379797Y-125085404D01*
X132379797Y-125204452D01*
X132403607Y-125252071D01*
X132427416Y-125275880D01*
X132475035Y-125299690D01*
X132617892Y-125299690D01*
X132665511Y-125275880D01*
X132689321Y-125252071D01*
X132165511Y-125109214D02*
X131784559Y-125109214D01*
X131570273Y-124847309D02*
X131546464Y-124823500D01*
X131498845Y-124799690D01*
X131379797Y-124799690D01*
X131332178Y-124823500D01*
X131308369Y-124847309D01*
X131284559Y-124894928D01*
X131284559Y-124942547D01*
X131308369Y-125013976D01*
X131594083Y-125299690D01*
X131284559Y-125299690D01*
X131070273Y-125252071D02*
X131046464Y-125275880D01*
X131070273Y-125299690D01*
X131094083Y-125275880D01*
X131070273Y-125252071D01*
X131070273Y-125299690D01*
X131070273Y-124990166D02*
X131046464Y-125013976D01*
X131070273Y-125037785D01*
X131094083Y-125013976D01*
X131070273Y-124990166D01*
X131070273Y-125037785D01*
X130498845Y-124799690D02*
X130379797Y-125299690D01*
X130284559Y-124942547D01*
X130189321Y-125299690D01*
X130070273Y-124799690D01*
X129665511Y-124799690D02*
X129760750Y-124799690D01*
X129808369Y-124823500D01*
X129832178Y-124847309D01*
X129879797Y-124918738D01*
X129903607Y-125013976D01*
X129903607Y-125204452D01*
X129879797Y-125252071D01*
X129855988Y-125275880D01*
X129808369Y-125299690D01*
X129713130Y-125299690D01*
X129665511Y-125275880D01*
X129641702Y-125252071D01*
X129617892Y-125204452D01*
X129617892Y-125085404D01*
X129641702Y-125037785D01*
X129665511Y-125013976D01*
X129713130Y-124990166D01*
X129808369Y-124990166D01*
X129855988Y-125013976D01*
X129879797Y-125037785D01*
X129903607Y-125085404D01*
X129165511Y-124799690D02*
X129403607Y-124799690D01*
X129427416Y-125037785D01*
X129403607Y-125013976D01*
X129355988Y-124990166D01*
X129236940Y-124990166D01*
X129189321Y-125013976D01*
X129165511Y-125037785D01*
X129141702Y-125085404D01*
X129141702Y-125204452D01*
X129165511Y-125252071D01*
X129189321Y-125275880D01*
X129236940Y-125299690D01*
X129355988Y-125299690D01*
X129403607Y-125275880D01*
X129427416Y-125252071D01*
X128641702Y-125252071D02*
X128665511Y-125275880D01*
X128736940Y-125299690D01*
X128784559Y-125299690D01*
X128855988Y-125275880D01*
X128903607Y-125228261D01*
X128927416Y-125180642D01*
X128951226Y-125085404D01*
X128951226Y-125013976D01*
X128927416Y-124918738D01*
X128903607Y-124871119D01*
X128855988Y-124823500D01*
X128784559Y-124799690D01*
X128736940Y-124799690D01*
X128665511Y-124823500D01*
X128641702Y-124847309D01*
X128451226Y-124847309D02*
X128427416Y-124823500D01*
X128379797Y-124799690D01*
X128260750Y-124799690D01*
X128213130Y-124823500D01*
X128189321Y-124847309D01*
X128165511Y-124894928D01*
X128165511Y-124942547D01*
X128189321Y-125013976D01*
X128475035Y-125299690D01*
X128165511Y-125299690D01*
X127975035Y-124847309D02*
X127951226Y-124823500D01*
X127903607Y-124799690D01*
X127784559Y-124799690D01*
X127736940Y-124823500D01*
X127713130Y-124847309D01*
X127689321Y-124894928D01*
X127689321Y-124942547D01*
X127713130Y-125013976D01*
X127998845Y-125299690D01*
X127689321Y-125299690D01*
X127498845Y-125275880D02*
X127427416Y-125299690D01*
X127308369Y-125299690D01*
X127260750Y-125275880D01*
X127236940Y-125252071D01*
X127213130Y-125204452D01*
X127213130Y-125156833D01*
X127236940Y-125109214D01*
X127260750Y-125085404D01*
X127308369Y-125061595D01*
X127403607Y-125037785D01*
X127451226Y-125013976D01*
X127475035Y-124990166D01*
X127498845Y-124942547D01*
X127498845Y-124894928D01*
X127475035Y-124847309D01*
X127451226Y-124823500D01*
X127403607Y-124799690D01*
X127284559Y-124799690D01*
X127213130Y-124823500D01*
X132379797Y-126104690D02*
X132665511Y-126104690D01*
X132522654Y-126104690D02*
X132522654Y-125604690D01*
X132570273Y-125676119D01*
X132617892Y-125723738D01*
X132665511Y-125747547D01*
X132165511Y-125914214D02*
X131784559Y-125914214D01*
X131570273Y-125652309D02*
X131546464Y-125628500D01*
X131498845Y-125604690D01*
X131379797Y-125604690D01*
X131332178Y-125628500D01*
X131308369Y-125652309D01*
X131284559Y-125699928D01*
X131284559Y-125747547D01*
X131308369Y-125818976D01*
X131594083Y-126104690D01*
X131284559Y-126104690D01*
X131070273Y-126057071D02*
X131046464Y-126080880D01*
X131070273Y-126104690D01*
X131094083Y-126080880D01*
X131070273Y-126057071D01*
X131070273Y-126104690D01*
X131070273Y-125795166D02*
X131046464Y-125818976D01*
X131070273Y-125842785D01*
X131094083Y-125818976D01*
X131070273Y-125795166D01*
X131070273Y-125842785D01*
X130379797Y-126104690D02*
X130427416Y-126080880D01*
X130451226Y-126057071D01*
X130475035Y-126009452D01*
X130475035Y-125866595D01*
X130451226Y-125818976D01*
X130427416Y-125795166D01*
X130379797Y-125771357D01*
X130308369Y-125771357D01*
X130260750Y-125795166D01*
X130236940Y-125818976D01*
X130213130Y-125866595D01*
X130213130Y-126009452D01*
X130236940Y-126057071D01*
X130260750Y-126080880D01*
X130308369Y-126104690D01*
X130379797Y-126104690D01*
X130070273Y-125771357D02*
X129879797Y-125771357D01*
X129998845Y-125604690D02*
X129998845Y-126033261D01*
X129975035Y-126080880D01*
X129927416Y-126104690D01*
X129879797Y-126104690D01*
X129713130Y-126104690D02*
X129713130Y-125604690D01*
X129498845Y-126104690D02*
X129498845Y-125842785D01*
X129522654Y-125795166D01*
X129570273Y-125771357D01*
X129641702Y-125771357D01*
X129689321Y-125795166D01*
X129713130Y-125818976D01*
X129070273Y-126080880D02*
X129117892Y-126104690D01*
X129213130Y-126104690D01*
X129260750Y-126080880D01*
X129284559Y-126033261D01*
X129284559Y-125842785D01*
X129260750Y-125795166D01*
X129213130Y-125771357D01*
X129117892Y-125771357D01*
X129070273Y-125795166D01*
X129046464Y-125842785D01*
X129046464Y-125890404D01*
X129284559Y-125938023D01*
X128832178Y-126104690D02*
X128832178Y-125771357D01*
X128832178Y-125866595D02*
X128808369Y-125818976D01*
X128784559Y-125795166D01*
X128736940Y-125771357D01*
X128689321Y-125771357D01*
X139488809Y-106479702D02*
X139988809Y-106479702D01*
X139988809Y-106289226D01*
X139965000Y-106241607D01*
X139941190Y-106217797D01*
X139893571Y-106193988D01*
X139822142Y-106193988D01*
X139774523Y-106217797D01*
X139750714Y-106241607D01*
X139726904Y-106289226D01*
X139726904Y-106479702D01*
X139488809Y-105979702D02*
X139988809Y-105979702D01*
X139488809Y-105765416D02*
X139750714Y-105765416D01*
X139798333Y-105789226D01*
X139822142Y-105836845D01*
X139822142Y-105908273D01*
X139798333Y-105955892D01*
X139774523Y-105979702D01*
X139488809Y-105527321D02*
X139822142Y-105527321D01*
X139988809Y-105527321D02*
X139965000Y-105551130D01*
X139941190Y-105527321D01*
X139965000Y-105503511D01*
X139988809Y-105527321D01*
X139941190Y-105527321D01*
X139941190Y-105313035D02*
X139965000Y-105289226D01*
X139988809Y-105241607D01*
X139988809Y-105122559D01*
X139965000Y-105074940D01*
X139941190Y-105051130D01*
X139893571Y-105027321D01*
X139845952Y-105027321D01*
X139774523Y-105051130D01*
X139488809Y-105336845D01*
X139488809Y-105027321D01*
X139322142Y-104313035D02*
X140036428Y-104313035D01*
X139488809Y-103503511D02*
X139512619Y-103551130D01*
X139536428Y-103574940D01*
X139584047Y-103598750D01*
X139726904Y-103598750D01*
X139774523Y-103574940D01*
X139798333Y-103551130D01*
X139822142Y-103503511D01*
X139822142Y-103432083D01*
X139798333Y-103384464D01*
X139774523Y-103360654D01*
X139726904Y-103336845D01*
X139584047Y-103336845D01*
X139536428Y-103360654D01*
X139512619Y-103384464D01*
X139488809Y-103432083D01*
X139488809Y-103503511D01*
X139822142Y-102908273D02*
X139488809Y-102908273D01*
X139822142Y-103122559D02*
X139560238Y-103122559D01*
X139512619Y-103098750D01*
X139488809Y-103051130D01*
X139488809Y-102979702D01*
X139512619Y-102932083D01*
X139536428Y-102908273D01*
X139822142Y-102741607D02*
X139822142Y-102551130D01*
X139988809Y-102670178D02*
X139560238Y-102670178D01*
X139512619Y-102646369D01*
X139488809Y-102598750D01*
X139488809Y-102551130D01*
X139322142Y-101884464D02*
X140036428Y-101884464D01*
X139488809Y-101146369D02*
X139988809Y-101146369D01*
X139988809Y-100955892D01*
X139965000Y-100908273D01*
X139941190Y-100884464D01*
X139893571Y-100860654D01*
X139822142Y-100860654D01*
X139774523Y-100884464D01*
X139750714Y-100908273D01*
X139726904Y-100955892D01*
X139726904Y-101146369D01*
X139488809Y-100646369D02*
X139988809Y-100646369D01*
X139488809Y-100432083D02*
X139750714Y-100432083D01*
X139798333Y-100455892D01*
X139822142Y-100503511D01*
X139822142Y-100574940D01*
X139798333Y-100622559D01*
X139774523Y-100646369D01*
X139488809Y-100193988D02*
X139822142Y-100193988D01*
X139988809Y-100193988D02*
X139965000Y-100217797D01*
X139941190Y-100193988D01*
X139965000Y-100170178D01*
X139988809Y-100193988D01*
X139941190Y-100193988D01*
X139988809Y-99860654D02*
X139988809Y-99813035D01*
X139965000Y-99765416D01*
X139941190Y-99741607D01*
X139893571Y-99717797D01*
X139798333Y-99693988D01*
X139679285Y-99693988D01*
X139584047Y-99717797D01*
X139536428Y-99741607D01*
X139512619Y-99765416D01*
X139488809Y-99813035D01*
X139488809Y-99860654D01*
X139512619Y-99908273D01*
X139536428Y-99932083D01*
X139584047Y-99955892D01*
X139679285Y-99979702D01*
X139798333Y-99979702D01*
X139893571Y-99955892D01*
X139941190Y-99932083D01*
X139965000Y-99908273D01*
X139988809Y-99860654D01*
X142974190Y-109928297D02*
X142474190Y-109928297D01*
X142474190Y-110118773D01*
X142498000Y-110166392D01*
X142521809Y-110190202D01*
X142569428Y-110214011D01*
X142640857Y-110214011D01*
X142688476Y-110190202D01*
X142712285Y-110166392D01*
X142736095Y-110118773D01*
X142736095Y-109928297D01*
X142974190Y-110428297D02*
X142474190Y-110428297D01*
X142974190Y-110642583D02*
X142712285Y-110642583D01*
X142664666Y-110618773D01*
X142640857Y-110571154D01*
X142640857Y-110499726D01*
X142664666Y-110452107D01*
X142688476Y-110428297D01*
X142974190Y-110880678D02*
X142640857Y-110880678D01*
X142474190Y-110880678D02*
X142498000Y-110856869D01*
X142521809Y-110880678D01*
X142498000Y-110904488D01*
X142474190Y-110880678D01*
X142521809Y-110880678D01*
X142474190Y-111214011D02*
X142474190Y-111261630D01*
X142498000Y-111309250D01*
X142521809Y-111333059D01*
X142569428Y-111356869D01*
X142664666Y-111380678D01*
X142783714Y-111380678D01*
X142878952Y-111356869D01*
X142926571Y-111333059D01*
X142950380Y-111309250D01*
X142974190Y-111261630D01*
X142974190Y-111214011D01*
X142950380Y-111166392D01*
X142926571Y-111142583D01*
X142878952Y-111118773D01*
X142783714Y-111094964D01*
X142664666Y-111094964D01*
X142569428Y-111118773D01*
X142521809Y-111142583D01*
X142498000Y-111166392D01*
X142474190Y-111214011D01*
X143140857Y-112094964D02*
X142426571Y-112094964D01*
X142974190Y-112904488D02*
X142950380Y-112856869D01*
X142926571Y-112833059D01*
X142878952Y-112809250D01*
X142736095Y-112809250D01*
X142688476Y-112833059D01*
X142664666Y-112856869D01*
X142640857Y-112904488D01*
X142640857Y-112975916D01*
X142664666Y-113023535D01*
X142688476Y-113047345D01*
X142736095Y-113071154D01*
X142878952Y-113071154D01*
X142926571Y-113047345D01*
X142950380Y-113023535D01*
X142974190Y-112975916D01*
X142974190Y-112904488D01*
X142640857Y-113499726D02*
X142974190Y-113499726D01*
X142640857Y-113285440D02*
X142902761Y-113285440D01*
X142950380Y-113309250D01*
X142974190Y-113356869D01*
X142974190Y-113428297D01*
X142950380Y-113475916D01*
X142926571Y-113499726D01*
X142640857Y-113666392D02*
X142640857Y-113856869D01*
X142474190Y-113737821D02*
X142902761Y-113737821D01*
X142950380Y-113761630D01*
X142974190Y-113809250D01*
X142974190Y-113856869D01*
X143140857Y-114523535D02*
X142426571Y-114523535D01*
X142974190Y-115261630D02*
X142474190Y-115261630D01*
X142474190Y-115452107D01*
X142498000Y-115499726D01*
X142521809Y-115523535D01*
X142569428Y-115547345D01*
X142640857Y-115547345D01*
X142688476Y-115523535D01*
X142712285Y-115499726D01*
X142736095Y-115452107D01*
X142736095Y-115261630D01*
X142974190Y-115761630D02*
X142474190Y-115761630D01*
X142974190Y-115975916D02*
X142712285Y-115975916D01*
X142664666Y-115952107D01*
X142640857Y-115904488D01*
X142640857Y-115833059D01*
X142664666Y-115785440D01*
X142688476Y-115761630D01*
X142974190Y-116214011D02*
X142640857Y-116214011D01*
X142474190Y-116214011D02*
X142498000Y-116190202D01*
X142521809Y-116214011D01*
X142498000Y-116237821D01*
X142474190Y-116214011D01*
X142521809Y-116214011D01*
X142521809Y-116428297D02*
X142498000Y-116452107D01*
X142474190Y-116499726D01*
X142474190Y-116618773D01*
X142498000Y-116666392D01*
X142521809Y-116690202D01*
X142569428Y-116714011D01*
X142617047Y-116714011D01*
X142688476Y-116690202D01*
X142974190Y-116404488D01*
X142974190Y-116714011D01*
D11*
X132273142Y-108666952D02*
X132235047Y-108552666D01*
X132196952Y-108514571D01*
X132120761Y-108476476D01*
X132006476Y-108476476D01*
X131930285Y-108514571D01*
X131892190Y-108552666D01*
X131854095Y-108628857D01*
X131854095Y-108933619D01*
X132654095Y-108933619D01*
X132654095Y-108666952D01*
X132616000Y-108590761D01*
X132577904Y-108552666D01*
X132501714Y-108514571D01*
X132425523Y-108514571D01*
X132349333Y-108552666D01*
X132311238Y-108590761D01*
X132273142Y-108666952D01*
X132273142Y-108933619D01*
X132387428Y-107790761D02*
X131854095Y-107790761D01*
X132387428Y-108133619D02*
X131968380Y-108133619D01*
X131892190Y-108095523D01*
X131854095Y-108019333D01*
X131854095Y-107905047D01*
X131892190Y-107828857D01*
X131930285Y-107790761D01*
X131854095Y-107409809D02*
X132387428Y-107409809D01*
X132235047Y-107409809D02*
X132311238Y-107371714D01*
X132349333Y-107333619D01*
X132387428Y-107257428D01*
X132387428Y-107181238D01*
X131892190Y-106952666D02*
X131854095Y-106876476D01*
X131854095Y-106724095D01*
X131892190Y-106647904D01*
X131968380Y-106609809D01*
X132006476Y-106609809D01*
X132082666Y-106647904D01*
X132120761Y-106724095D01*
X132120761Y-106838380D01*
X132158857Y-106914571D01*
X132235047Y-106952666D01*
X132273142Y-106952666D01*
X132349333Y-106914571D01*
X132387428Y-106838380D01*
X132387428Y-106724095D01*
X132349333Y-106647904D01*
X132387428Y-106381238D02*
X132387428Y-106076476D01*
X132654095Y-106266952D02*
X131968380Y-106266952D01*
X131892190Y-106228857D01*
X131854095Y-106152666D01*
X131854095Y-106076476D01*
X131930285Y-105352666D02*
X131892190Y-105390761D01*
X131854095Y-105505047D01*
X131854095Y-105581238D01*
X131892190Y-105695523D01*
X131968380Y-105771714D01*
X132044571Y-105809809D01*
X132196952Y-105847904D01*
X132311238Y-105847904D01*
X132463619Y-105809809D01*
X132539809Y-105771714D01*
X132616000Y-105695523D01*
X132654095Y-105581238D01*
X132654095Y-105505047D01*
X132616000Y-105390761D01*
X132577904Y-105352666D01*
X131854095Y-104666952D02*
X132273142Y-104666952D01*
X132349333Y-104705047D01*
X132387428Y-104781238D01*
X132387428Y-104933619D01*
X132349333Y-105009809D01*
X131892190Y-104666952D02*
X131854095Y-104743142D01*
X131854095Y-104933619D01*
X131892190Y-105009809D01*
X131968380Y-105047904D01*
X132044571Y-105047904D01*
X132120761Y-105009809D01*
X132158857Y-104933619D01*
X132158857Y-104743142D01*
X132196952Y-104666952D01*
X131854095Y-104286000D02*
X132387428Y-104286000D01*
X132235047Y-104286000D02*
X132311238Y-104247904D01*
X132349333Y-104209809D01*
X132387428Y-104133619D01*
X132387428Y-104057428D01*
X132387428Y-103905047D02*
X132387428Y-103600285D01*
X132654095Y-103790761D02*
X131968380Y-103790761D01*
X131892190Y-103752666D01*
X131854095Y-103676476D01*
X131854095Y-103600285D01*
X132158857Y-103333619D02*
X132158857Y-102724095D01*
X131854095Y-103028857D02*
X132463619Y-103028857D01*
X132387428Y-102000285D02*
X131854095Y-102000285D01*
X132692190Y-102190761D02*
X132120761Y-102381238D01*
X132120761Y-101886000D01*
X132387428Y-101047904D02*
X131854095Y-100857428D01*
X132387428Y-100666952D01*
X131854095Y-99943142D02*
X131854095Y-100400285D01*
X131854095Y-100171714D02*
X132654095Y-100171714D01*
X132539809Y-100247904D01*
X132463619Y-100324095D01*
X132425523Y-100400285D01*
X131930285Y-99600285D02*
X131892190Y-99562190D01*
X131854095Y-99600285D01*
X131892190Y-99638380D01*
X131930285Y-99600285D01*
X131854095Y-99600285D01*
X131854095Y-98800285D02*
X131854095Y-99257428D01*
X131854095Y-99028857D02*
X132654095Y-99028857D01*
X132539809Y-99105047D01*
X132463619Y-99181238D01*
X132425523Y-99257428D01*
X130566095Y-117314571D02*
X131366095Y-117314571D01*
X130794666Y-117047904D01*
X131366095Y-116781238D01*
X130566095Y-116781238D01*
X130566095Y-116057428D02*
X130985142Y-116057428D01*
X131061333Y-116095523D01*
X131099428Y-116171714D01*
X131099428Y-116324095D01*
X131061333Y-116400285D01*
X130604190Y-116057428D02*
X130566095Y-116133619D01*
X130566095Y-116324095D01*
X130604190Y-116400285D01*
X130680380Y-116438380D01*
X130756571Y-116438380D01*
X130832761Y-116400285D01*
X130870857Y-116324095D01*
X130870857Y-116133619D01*
X130908952Y-116057428D01*
X130604190Y-115333619D02*
X130566095Y-115409809D01*
X130566095Y-115562190D01*
X130604190Y-115638380D01*
X130642285Y-115676476D01*
X130718476Y-115714571D01*
X130947047Y-115714571D01*
X131023238Y-115676476D01*
X131061333Y-115638380D01*
X131099428Y-115562190D01*
X131099428Y-115409809D01*
X131061333Y-115333619D01*
X130566095Y-114990761D02*
X131099428Y-114990761D01*
X131366095Y-114990761D02*
X131328000Y-115028857D01*
X131289904Y-114990761D01*
X131328000Y-114952666D01*
X131366095Y-114990761D01*
X131289904Y-114990761D01*
X130604190Y-114305047D02*
X130566095Y-114381238D01*
X130566095Y-114533619D01*
X130604190Y-114609809D01*
X130680380Y-114647904D01*
X130985142Y-114647904D01*
X131061333Y-114609809D01*
X131099428Y-114533619D01*
X131099428Y-114381238D01*
X131061333Y-114305047D01*
X130985142Y-114266952D01*
X130908952Y-114266952D01*
X130832761Y-114647904D01*
X131099428Y-113924095D02*
X130413714Y-113924095D01*
X130337523Y-113962190D01*
X130299428Y-114038380D01*
X130299428Y-114076476D01*
X131366095Y-113924095D02*
X131328000Y-113962190D01*
X131289904Y-113924095D01*
X131328000Y-113886000D01*
X131366095Y-113924095D01*
X131289904Y-113924095D01*
X131099428Y-112324095D02*
X130870857Y-112933619D01*
X130642285Y-112324095D01*
X131099428Y-112019333D02*
X130566095Y-111828857D01*
X131099428Y-111638380D02*
X130566095Y-111828857D01*
X130375619Y-111905047D01*
X130337523Y-111943142D01*
X130299428Y-112019333D01*
X131099428Y-111447904D02*
X131099428Y-111143142D01*
X131366095Y-111333619D02*
X130680380Y-111333619D01*
X130604190Y-111295523D01*
X130566095Y-111219333D01*
X130566095Y-111143142D01*
X130566095Y-110876476D02*
X131099428Y-110876476D01*
X131023238Y-110876476D02*
X131061333Y-110838380D01*
X131099428Y-110762190D01*
X131099428Y-110647904D01*
X131061333Y-110571714D01*
X130985142Y-110533619D01*
X130566095Y-110533619D01*
X130985142Y-110533619D02*
X131061333Y-110495523D01*
X131099428Y-110419333D01*
X131099428Y-110305047D01*
X131061333Y-110228857D01*
X130985142Y-110190761D01*
X130566095Y-110190761D01*
X130947047Y-109314571D02*
X130985142Y-109352666D01*
X131023238Y-109428857D01*
X131023238Y-109505047D01*
X130985142Y-109581238D01*
X130947047Y-109619333D01*
X130870857Y-109657428D01*
X130794666Y-109657428D01*
X130718476Y-109619333D01*
X130680380Y-109581238D01*
X130642285Y-109505047D01*
X130642285Y-109428857D01*
X130680380Y-109352666D01*
X130718476Y-109314571D01*
X131023238Y-109314571D02*
X130718476Y-109314571D01*
X130680380Y-109276476D01*
X130680380Y-109238380D01*
X130718476Y-109162190D01*
X130794666Y-109124095D01*
X130985142Y-109124095D01*
X131099428Y-109200285D01*
X131175619Y-109314571D01*
X131213714Y-109466952D01*
X131175619Y-109619333D01*
X131099428Y-109733619D01*
X130985142Y-109809809D01*
X130832761Y-109847904D01*
X130680380Y-109809809D01*
X130566095Y-109733619D01*
X130489904Y-109619333D01*
X130451809Y-109466952D01*
X130489904Y-109314571D01*
X130566095Y-109200285D01*
X130604190Y-108476476D02*
X130566095Y-108552666D01*
X130566095Y-108705047D01*
X130604190Y-108781238D01*
X130680380Y-108819333D01*
X130985142Y-108819333D01*
X131061333Y-108781238D01*
X131099428Y-108705047D01*
X131099428Y-108552666D01*
X131061333Y-108476476D01*
X130985142Y-108438380D01*
X130908952Y-108438380D01*
X130832761Y-108819333D01*
X130566095Y-107981238D02*
X130604190Y-108057428D01*
X130680380Y-108095523D01*
X131366095Y-108095523D01*
X131099428Y-107752666D02*
X130566095Y-107562190D01*
X131099428Y-107371714D02*
X130566095Y-107562190D01*
X130375619Y-107638380D01*
X130337523Y-107676476D01*
X130299428Y-107752666D01*
X130604190Y-107105047D02*
X130566095Y-107028857D01*
X130566095Y-106876476D01*
X130604190Y-106800285D01*
X130680380Y-106762190D01*
X130718476Y-106762190D01*
X130794666Y-106800285D01*
X130832761Y-106876476D01*
X130832761Y-106990761D01*
X130870857Y-107066952D01*
X130947047Y-107105047D01*
X130985142Y-107105047D01*
X131061333Y-107066952D01*
X131099428Y-106990761D01*
X131099428Y-106876476D01*
X131061333Y-106800285D01*
X130566095Y-106419333D02*
X131099428Y-106419333D01*
X131366095Y-106419333D02*
X131328000Y-106457428D01*
X131289904Y-106419333D01*
X131328000Y-106381238D01*
X131366095Y-106419333D01*
X131289904Y-106419333D01*
X131099428Y-105695523D02*
X130566095Y-105695523D01*
X131099428Y-106038380D02*
X130680380Y-106038380D01*
X130604190Y-106000285D01*
X130566095Y-105924095D01*
X130566095Y-105809809D01*
X130604190Y-105733619D01*
X130642285Y-105695523D01*
X130566095Y-105314571D02*
X131099428Y-105314571D01*
X131023238Y-105314571D02*
X131061333Y-105276476D01*
X131099428Y-105200285D01*
X131099428Y-105086000D01*
X131061333Y-105009809D01*
X130985142Y-104971714D01*
X130566095Y-104971714D01*
X130985142Y-104971714D02*
X131061333Y-104933619D01*
X131099428Y-104857428D01*
X131099428Y-104743142D01*
X131061333Y-104666952D01*
X130985142Y-104628857D01*
X130566095Y-104628857D01*
X130642285Y-104247904D02*
X130604190Y-104209809D01*
X130566095Y-104247904D01*
X130604190Y-104286000D01*
X130642285Y-104247904D01*
X130566095Y-104247904D01*
X131099428Y-103866952D02*
X130299428Y-103866952D01*
X131061333Y-103866952D02*
X131099428Y-103790761D01*
X131099428Y-103638380D01*
X131061333Y-103562190D01*
X131023238Y-103524095D01*
X130947047Y-103486000D01*
X130718476Y-103486000D01*
X130642285Y-103524095D01*
X130604190Y-103562190D01*
X130566095Y-103638380D01*
X130566095Y-103790761D01*
X130604190Y-103866952D01*
X130566095Y-103028857D02*
X130604190Y-103105047D01*
X130680380Y-103143142D01*
X131366095Y-103143142D01*
X131099428Y-102724095D02*
X130870857Y-102114571D01*
X130642285Y-102724095D01*
X131366095Y-101200285D02*
X130566095Y-101009809D01*
X131137523Y-100857428D01*
X130566095Y-100705047D01*
X131366095Y-100514571D01*
X130566095Y-100209809D02*
X131099428Y-100209809D01*
X131366095Y-100209809D02*
X131328000Y-100247904D01*
X131289904Y-100209809D01*
X131328000Y-100171714D01*
X131366095Y-100209809D01*
X131289904Y-100209809D01*
X131099428Y-99943142D02*
X131099428Y-99638380D01*
X131366095Y-99828857D02*
X130680380Y-99828857D01*
X130604190Y-99790761D01*
X130566095Y-99714571D01*
X130566095Y-99638380D01*
X130566095Y-99371714D02*
X131366095Y-99371714D01*
X130870857Y-99295523D02*
X130566095Y-99066952D01*
X131099428Y-99066952D02*
X130794666Y-99371714D01*
X130566095Y-98609809D02*
X130604190Y-98686000D01*
X130642285Y-98724095D01*
X130718476Y-98762190D01*
X130947047Y-98762190D01*
X131023238Y-98724095D01*
X131061333Y-98686000D01*
X131099428Y-98609809D01*
X131099428Y-98495523D01*
X131061333Y-98419333D01*
X131023238Y-98381238D01*
X130947047Y-98343142D01*
X130718476Y-98343142D01*
X130642285Y-98381238D01*
X130604190Y-98419333D01*
X130566095Y-98495523D01*
X130566095Y-98609809D01*
X131099428Y-98076476D02*
X130566095Y-97924095D01*
X130947047Y-97771714D01*
X130566095Y-97619333D01*
X131099428Y-97466952D01*
X130566095Y-97162190D02*
X131099428Y-97162190D01*
X131366095Y-97162190D02*
X131328000Y-97200285D01*
X131289904Y-97162190D01*
X131328000Y-97124095D01*
X131366095Y-97162190D01*
X131289904Y-97162190D01*
X130566095Y-96438380D02*
X130985142Y-96438380D01*
X131061333Y-96476476D01*
X131099428Y-96552666D01*
X131099428Y-96705047D01*
X131061333Y-96781238D01*
X130604190Y-96438380D02*
X130566095Y-96514571D01*
X130566095Y-96705047D01*
X130604190Y-96781238D01*
X130680380Y-96819333D01*
X130756571Y-96819333D01*
X130832761Y-96781238D01*
X130870857Y-96705047D01*
X130870857Y-96514571D01*
X130908952Y-96438380D01*
X130566095Y-96057428D02*
X131366095Y-96057428D01*
X130870857Y-95981238D02*
X130566095Y-95752666D01*
X131099428Y-95752666D02*
X130794666Y-96057428D01*
X130604190Y-95371714D02*
X130566095Y-95371714D01*
X130489904Y-95409809D01*
X130451809Y-95447904D01*
X131366095Y-94533619D02*
X130566095Y-94266952D01*
X131366095Y-94000285D01*
X131289904Y-93162190D02*
X131328000Y-93124095D01*
X131366095Y-93047904D01*
X131366095Y-92857428D01*
X131328000Y-92781238D01*
X131289904Y-92743142D01*
X131213714Y-92705047D01*
X131137523Y-92705047D01*
X131023238Y-92743142D01*
X130566095Y-93200285D01*
X130566095Y-92705047D01*
X131366095Y-92209809D02*
X131366095Y-92133619D01*
X131328000Y-92057428D01*
X131289904Y-92019333D01*
X131213714Y-91981238D01*
X131061333Y-91943142D01*
X130870857Y-91943142D01*
X130718476Y-91981238D01*
X130642285Y-92019333D01*
X130604190Y-92057428D01*
X130566095Y-92133619D01*
X130566095Y-92209809D01*
X130604190Y-92286000D01*
X130642285Y-92324095D01*
X130718476Y-92362190D01*
X130870857Y-92400285D01*
X131061333Y-92400285D01*
X131213714Y-92362190D01*
X131289904Y-92324095D01*
X131328000Y-92286000D01*
X131366095Y-92209809D01*
X131289904Y-91638380D02*
X131328000Y-91600285D01*
X131366095Y-91524095D01*
X131366095Y-91333619D01*
X131328000Y-91257428D01*
X131289904Y-91219333D01*
X131213714Y-91181238D01*
X131137523Y-91181238D01*
X131023238Y-91219333D01*
X130566095Y-91676476D01*
X130566095Y-91181238D01*
X131366095Y-90457428D02*
X131366095Y-90838380D01*
X130985142Y-90876476D01*
X131023238Y-90838380D01*
X131061333Y-90762190D01*
X131061333Y-90571714D01*
X131023238Y-90495523D01*
X130985142Y-90457428D01*
X130908952Y-90419333D01*
X130718476Y-90419333D01*
X130642285Y-90457428D01*
X130604190Y-90495523D01*
X130566095Y-90571714D01*
X130566095Y-90762190D01*
X130604190Y-90838380D01*
X130642285Y-90876476D01*
D12*
X142730380Y-102290666D02*
X143444666Y-102290666D01*
X143587523Y-102243047D01*
X143682761Y-102147809D01*
X143730380Y-102004952D01*
X143730380Y-101909714D01*
X143730380Y-102766857D02*
X142730380Y-102766857D01*
X142730380Y-103147809D01*
X142778000Y-103243047D01*
X142825619Y-103290666D01*
X142920857Y-103338285D01*
X143063714Y-103338285D01*
X143158952Y-103290666D01*
X143206571Y-103243047D01*
X143254190Y-103147809D01*
X143254190Y-102766857D01*
X142730380Y-103671619D02*
X142730380Y-104290666D01*
X143111333Y-103957333D01*
X143111333Y-104100190D01*
X143158952Y-104195428D01*
X143206571Y-104243047D01*
X143301809Y-104290666D01*
X143539904Y-104290666D01*
X143635142Y-104243047D01*
X143682761Y-104195428D01*
X143730380Y-104100190D01*
X143730380Y-103814476D01*
X143682761Y-103719238D01*
X143635142Y-103671619D01*
X141930380Y-106009714D02*
X141930380Y-105438285D01*
X141930380Y-105724000D02*
X140930380Y-105724000D01*
X141073238Y-105628761D01*
X141168476Y-105533523D01*
X141216095Y-105438285D01*
X140930380Y-100190666D02*
X140930380Y-100809714D01*
X141311333Y-100476380D01*
X141311333Y-100619238D01*
X141358952Y-100714476D01*
X141406571Y-100762095D01*
X141501809Y-100809714D01*
X141739904Y-100809714D01*
X141835142Y-100762095D01*
X141882761Y-100714476D01*
X141930380Y-100619238D01*
X141930380Y-100333523D01*
X141882761Y-100238285D01*
X141835142Y-100190666D01*
X138622380Y-112450666D02*
X139336666Y-112450666D01*
X139479523Y-112403047D01*
X139574761Y-112307809D01*
X139622380Y-112164952D01*
X139622380Y-112069714D01*
X139622380Y-112926857D02*
X138622380Y-112926857D01*
X138622380Y-113307809D01*
X138670000Y-113403047D01*
X138717619Y-113450666D01*
X138812857Y-113498285D01*
X138955714Y-113498285D01*
X139050952Y-113450666D01*
X139098571Y-113403047D01*
X139146190Y-113307809D01*
X139146190Y-112926857D01*
X138717619Y-113879238D02*
X138670000Y-113926857D01*
X138622380Y-114022095D01*
X138622380Y-114260190D01*
X138670000Y-114355428D01*
X138717619Y-114403047D01*
X138812857Y-114450666D01*
X138908095Y-114450666D01*
X139050952Y-114403047D01*
X139622380Y-113831619D01*
X139622380Y-114450666D01*
X140422380Y-115550666D02*
X140422380Y-116169714D01*
X140803333Y-115836380D01*
X140803333Y-115979238D01*
X140850952Y-116074476D01*
X140898571Y-116122095D01*
X140993809Y-116169714D01*
X141231904Y-116169714D01*
X141327142Y-116122095D01*
X141374761Y-116074476D01*
X141422380Y-115979238D01*
X141422380Y-115693523D01*
X141374761Y-115598285D01*
X141327142Y-115550666D01*
X141422380Y-110969714D02*
X141422380Y-110398285D01*
X141422380Y-110684000D02*
X140422380Y-110684000D01*
X140565238Y-110588761D01*
X140660476Y-110493523D01*
X140708095Y-110398285D01*
X131389333Y-123426380D02*
X131389333Y-124140666D01*
X131436952Y-124283523D01*
X131532190Y-124378761D01*
X131675047Y-124426380D01*
X131770285Y-124426380D01*
X130913142Y-124426380D02*
X130913142Y-123426380D01*
X130532190Y-123426380D01*
X130436952Y-123474000D01*
X130389333Y-123521619D01*
X130341714Y-123616857D01*
X130341714Y-123759714D01*
X130389333Y-123854952D01*
X130436952Y-123902571D01*
X130532190Y-123950190D01*
X130913142Y-123950190D01*
X129389333Y-124426380D02*
X129960761Y-124426380D01*
X129675047Y-124426380D02*
X129675047Y-123426380D01*
X129770285Y-123569238D01*
X129865523Y-123664476D01*
X129960761Y-123712095D01*
X127670285Y-122626380D02*
X128241714Y-122626380D01*
X127956000Y-122626380D02*
X127956000Y-121626380D01*
X128051238Y-121769238D01*
X128146476Y-121864476D01*
X128241714Y-121912095D01*
X133489333Y-121626380D02*
X132870285Y-121626380D01*
X133203619Y-122007333D01*
X133060761Y-122007333D01*
X132965523Y-122054952D01*
X132917904Y-122102571D01*
X132870285Y-122197809D01*
X132870285Y-122435904D01*
X132917904Y-122531142D01*
X132965523Y-122578761D01*
X133060761Y-122626380D01*
X133346476Y-122626380D01*
X133441714Y-122578761D01*
X133489333Y-122531142D01*
D13*
X140478000Y-105174000D02*
X142478000Y-105174000D01*
X142478000Y-101074000D02*
X140478000Y-101074000D01*
X142478000Y-105174000D02*
X142478000Y-101074000D01*
X140478000Y-101074000D02*
X140478000Y-105174000D01*
X139970000Y-115334000D02*
X141970000Y-115334000D01*
X141970000Y-115334000D02*
X141970000Y-111234000D01*
X141970000Y-111234000D02*
X139970000Y-111234000D01*
X139970000Y-111234000D02*
X139970000Y-115334000D01*
X132606000Y-122474000D02*
X132606000Y-121874000D01*
X129156000Y-123174000D02*
X131956000Y-123174000D01*
X128506000Y-121874000D02*
X128506000Y-122474000D01*
X131956000Y-121174000D02*
X129156000Y-121174000D01*
X132606000Y-121874000D02*
G75*
G03*
X131906000Y-121174000I-699999J1D01*
G01*
X128506000Y-122474000D02*
G75*
G03*
X129206000Y-123174000I699999J-1D01*
G01*
X131906000Y-123174000D02*
G75*
G03*
X132606000Y-122474000I1J699999D01*
G01*
X129206000Y-121174000D02*
G75*
G03*
X128506000Y-121874000I-1J-699999D01*
G01*
%LPC*%
D14*
X141478000Y-104424000D03*
X141478000Y-103124000D03*
X141478000Y-101824000D03*
D15*
X140970000Y-75184000D03*
D16*
X151130000Y-75184000D03*
D15*
X127762000Y-71628000D03*
X122762000Y-71628000D03*
D17*
X147066000Y-55626000D03*
D18*
X149606000Y-55626000D03*
X147066000Y-58166000D03*
X149606000Y-58166000D03*
X147066000Y-60706000D03*
X149606000Y-60706000D03*
X147066000Y-63246000D03*
X149606000Y-63246000D03*
X147066000Y-65786000D03*
X149606000Y-65786000D03*
D19*
X127976000Y-53294000D03*
X125476000Y-53594000D03*
X132976000Y-53294000D03*
X135476000Y-53594000D03*
D20*
X122976000Y-63294000D03*
X125476000Y-65794000D03*
X130476000Y-63294000D03*
X135476000Y-65794000D03*
X137976000Y-63294000D03*
X130476000Y-68294000D03*
D21*
X158999000Y-94727000D03*
D16*
X158999000Y-97267000D03*
X158999000Y-99807000D03*
X158999000Y-102347000D03*
X158999000Y-104887000D03*
X158999000Y-107427000D03*
X158999000Y-109967000D03*
X158999000Y-112507000D03*
X158999000Y-115047000D03*
X158999000Y-117587000D03*
X158999000Y-120127000D03*
X158999000Y-122667000D03*
X158999000Y-125207000D03*
X158999000Y-127747000D03*
X174239000Y-127747000D03*
X174239000Y-125207000D03*
X174239000Y-122667000D03*
X174239000Y-120127000D03*
X174239000Y-117587000D03*
X174239000Y-115047000D03*
X174239000Y-112507000D03*
X174239000Y-109967000D03*
X174239000Y-107427000D03*
X174239000Y-104887000D03*
X174239000Y-102347000D03*
X174239000Y-99807000D03*
X174239000Y-97267000D03*
X174239000Y-94727000D03*
D15*
X155448000Y-95504000D03*
X155448000Y-100504000D03*
D21*
X134620000Y-128016000D03*
D16*
X127000000Y-128016000D03*
D21*
X158750000Y-74234000D03*
D16*
X161290000Y-74234000D03*
X163830000Y-74234000D03*
X166370000Y-74234000D03*
X168910000Y-74234000D03*
X171450000Y-74234000D03*
X173990000Y-74234000D03*
X173990000Y-66614000D03*
X171450000Y-66614000D03*
X168910000Y-66614000D03*
X166370000Y-66614000D03*
X163830000Y-66614000D03*
X161290000Y-66614000D03*
X158750000Y-66614000D03*
D15*
X140970000Y-85090000D03*
D16*
X151130000Y-85090000D03*
D22*
X148253100Y-94259600D03*
D23*
X124253100Y-137759600D03*
X168253100Y-137759600D03*
X126253100Y-137759600D03*
X170253100Y-137759600D03*
X128253100Y-137759600D03*
X172253100Y-137759600D03*
X130253100Y-137759600D03*
X132253100Y-137759600D03*
X134253100Y-137759600D03*
X136253100Y-137759600D03*
X138253100Y-137759600D03*
X140253100Y-137759600D03*
X142253100Y-137759600D03*
X144253100Y-137759600D03*
X146253100Y-137759600D03*
X148253100Y-137759600D03*
X150253100Y-137759600D03*
X152253100Y-137759600D03*
X154253100Y-137759600D03*
X156253100Y-137759600D03*
X158253100Y-137759600D03*
X160253100Y-137759600D03*
X162253100Y-137759600D03*
X164253100Y-137759600D03*
X166253100Y-137759600D03*
D17*
X169164000Y-91186000D03*
D18*
X171704000Y-91186000D03*
X174244000Y-91186000D03*
D17*
X173223000Y-81783000D03*
D18*
X173223000Y-84323000D03*
X170683000Y-81783000D03*
X170683000Y-84323000D03*
X168143000Y-81783000D03*
X168143000Y-84323000D03*
X165603000Y-81783000D03*
X165603000Y-84323000D03*
X163063000Y-81783000D03*
X163063000Y-84323000D03*
D21*
X152390000Y-128529000D03*
D16*
X152390000Y-125989000D03*
X152390000Y-123449000D03*
X152390000Y-120909000D03*
X152390000Y-118369000D03*
X152390000Y-115829000D03*
X152390000Y-113289000D03*
X152390000Y-110749000D03*
X152390000Y-108209000D03*
X152390000Y-105669000D03*
X152390000Y-103129000D03*
X152390000Y-100589000D03*
X144770000Y-100589000D03*
X144770000Y-103129000D03*
X144770000Y-105669000D03*
X144770000Y-108209000D03*
X144770000Y-110749000D03*
X144770000Y-113289000D03*
X144770000Y-115829000D03*
X144770000Y-118369000D03*
X144770000Y-120909000D03*
X144770000Y-123449000D03*
X144770000Y-125989000D03*
X144770000Y-128529000D03*
D21*
X158750000Y-62484000D03*
D16*
X161290000Y-62484000D03*
X163830000Y-62484000D03*
X166370000Y-62484000D03*
X168910000Y-62484000D03*
X171450000Y-62484000D03*
X173990000Y-62484000D03*
X173990000Y-54864000D03*
X171450000Y-54864000D03*
X168910000Y-54864000D03*
X166370000Y-54864000D03*
X163830000Y-54864000D03*
X161290000Y-54864000D03*
X158750000Y-54864000D03*
D21*
X156210000Y-84267100D03*
D15*
X156210000Y-82267100D03*
X140970000Y-78486000D03*
D16*
X151130000Y-78486000D03*
D21*
X122423000Y-75184000D03*
D16*
X122423000Y-77724000D03*
X122423000Y-80264000D03*
X122423000Y-82804000D03*
X122423000Y-85344000D03*
X122423000Y-87884000D03*
X122423000Y-90424000D03*
X122423000Y-92964000D03*
X122423000Y-95504000D03*
X122423000Y-98044000D03*
X122423000Y-100584000D03*
X122423000Y-103124000D03*
X122423000Y-105664000D03*
X122423000Y-108204000D03*
X122423000Y-110744000D03*
X122423000Y-113284000D03*
X122423000Y-115824000D03*
X122423000Y-118364000D03*
X122423000Y-120904000D03*
X122423000Y-123444000D03*
X137663000Y-123444000D03*
X137663000Y-120904000D03*
X137663000Y-118364000D03*
X137663000Y-115824000D03*
X137663000Y-113284000D03*
X137663000Y-110744000D03*
X137663000Y-108204000D03*
X137663000Y-105664000D03*
X137663000Y-103124000D03*
X137663000Y-100584000D03*
X137663000Y-98044000D03*
X137663000Y-95504000D03*
X137663000Y-92964000D03*
X137663000Y-90424000D03*
X137663000Y-87884000D03*
X137663000Y-85344000D03*
X137663000Y-82804000D03*
X137663000Y-80264000D03*
X137663000Y-77724000D03*
X137663000Y-75184000D03*
D15*
X155448000Y-66614000D03*
X155448000Y-71614000D03*
X155448000Y-54930000D03*
X155448000Y-59930000D03*
X140970000Y-81788000D03*
D16*
X151130000Y-81788000D03*
D15*
X140970000Y-71882000D03*
D16*
X151130000Y-71882000D03*
D14*
X140970000Y-111984000D03*
X140970000Y-113284000D03*
X140970000Y-114584000D03*
D24*
X129256000Y-122174000D03*
D25*
X130556000Y-122174000D03*
D26*
X131856000Y-122174000D03*
M02*
