G04 #@! TF.GenerationSoftware,KiCad,Pcbnew,9.0.1*
G04 #@! TF.CreationDate,2025-07-08T00:04:10+02:00*
G04 #@! TF.ProjectId,burstcart-via,62757273-7463-4617-9274-2d7669612e6b,1.1b*
G04 #@! TF.SameCoordinates,Original*
G04 #@! TF.FileFunction,Copper,L2,Bot*
G04 #@! TF.FilePolarity,Positive*
%FSLAX46Y46*%
G04 Gerber Fmt 4.6, Leading zero omitted, Abs format (unit mm)*
G04 Created by KiCad (PCBNEW 9.0.1) date 2025-07-08 00:04:10*
%MOMM*%
%LPD*%
G01*
G04 APERTURE LIST*
G04 Aperture macros list*
%AMRoundRect*
0 Rectangle with rounded corners*
0 $1 Rounding radius*
0 $2 $3 $4 $5 $6 $7 $8 $9 X,Y pos of 4 corners*
0 Add a 4 corners polygon primitive as box body*
4,1,4,$2,$3,$4,$5,$6,$7,$8,$9,$2,$3,0*
0 Add four circle primitives for the rounded corners*
1,1,$1+$1,$2,$3*
1,1,$1+$1,$4,$5*
1,1,$1+$1,$6,$7*
1,1,$1+$1,$8,$9*
0 Add four rect primitives between the rounded corners*
20,1,$1+$1,$2,$3,$4,$5,0*
20,1,$1+$1,$4,$5,$6,$7,0*
20,1,$1+$1,$6,$7,$8,$9,0*
20,1,$1+$1,$8,$9,$2,$3,0*%
%AMFreePoly0*
4,1,23,0.550000,-0.750000,0.000000,-0.750000,0.000000,-0.745722,-0.065263,-0.745722,-0.191342,-0.711940,-0.304381,-0.646677,-0.396677,-0.554381,-0.461940,-0.441342,-0.495722,-0.315263,-0.495722,-0.250000,-0.500000,-0.250000,-0.500000,0.250000,-0.495722,0.250000,-0.495722,0.315263,-0.461940,0.441342,-0.396677,0.554381,-0.304381,0.646677,-0.191342,0.711940,-0.065263,0.745722,0.000000,0.745722,
0.000000,0.750000,0.550000,0.750000,0.550000,-0.750000,0.550000,-0.750000,$1*%
%AMFreePoly1*
4,1,23,0.000000,0.745722,0.065263,0.745722,0.191342,0.711940,0.304381,0.646677,0.396677,0.554381,0.461940,0.441342,0.495722,0.315263,0.495722,0.250000,0.500000,0.250000,0.500000,-0.250000,0.495722,-0.250000,0.495722,-0.315263,0.461940,-0.441342,0.396677,-0.554381,0.304381,-0.646677,0.191342,-0.711940,0.065263,-0.745722,0.000000,-0.745722,0.000000,-0.750000,-0.550000,-0.750000,
-0.550000,0.750000,0.000000,0.750000,0.000000,0.745722,0.000000,0.745722,$1*%
G04 Aperture macros list end*
G04 #@! TA.AperFunction,EtchedComponent*
%ADD10C,0.000000*%
G04 #@! TD*
G04 #@! TA.AperFunction,ComponentPad*
%ADD11R,1.600000X1.600000*%
G04 #@! TD*
G04 #@! TA.AperFunction,ComponentPad*
%ADD12C,1.600000*%
G04 #@! TD*
G04 #@! TA.AperFunction,SMDPad,CuDef*
%ADD13R,1.500000X1.000000*%
G04 #@! TD*
G04 #@! TA.AperFunction,ComponentPad*
%ADD14R,1.700000X1.700000*%
G04 #@! TD*
G04 #@! TA.AperFunction,ComponentPad*
%ADD15C,1.700000*%
G04 #@! TD*
G04 #@! TA.AperFunction,ComponentPad*
%ADD16RoundRect,0.250000X-0.550000X-0.550000X0.550000X-0.550000X0.550000X0.550000X-0.550000X0.550000X0*%
G04 #@! TD*
G04 #@! TA.AperFunction,ComponentPad*
%ADD17RoundRect,0.250000X0.550000X0.550000X-0.550000X0.550000X-0.550000X-0.550000X0.550000X-0.550000X0*%
G04 #@! TD*
G04 #@! TA.AperFunction,ComponentPad*
%ADD18RoundRect,0.250000X0.550000X-0.550000X0.550000X0.550000X-0.550000X0.550000X-0.550000X-0.550000X0*%
G04 #@! TD*
G04 #@! TA.AperFunction,SMDPad,CuDef*
%ADD19FreePoly0,0.000000*%
G04 #@! TD*
G04 #@! TA.AperFunction,SMDPad,CuDef*
%ADD20R,1.000000X1.500000*%
G04 #@! TD*
G04 #@! TA.AperFunction,SMDPad,CuDef*
%ADD21FreePoly1,0.000000*%
G04 #@! TD*
G04 #@! TA.AperFunction,ComponentPad*
%ADD22O,1.600000X1.600000*%
G04 #@! TD*
G04 #@! TA.AperFunction,ComponentPad*
%ADD23C,2.100000*%
G04 #@! TD*
G04 #@! TA.AperFunction,ComponentPad*
%ADD24C,2.200000*%
G04 #@! TD*
G04 #@! TA.AperFunction,SMDPad,CuDef*
%ADD25RoundRect,0.112500X-0.337500X-4.512500X0.337500X-4.512500X0.337500X4.512500X-0.337500X4.512500X0*%
G04 #@! TD*
G04 #@! TA.AperFunction,ViaPad*
%ADD26C,0.800000*%
G04 #@! TD*
G04 #@! TA.AperFunction,Conductor*
%ADD27C,0.250000*%
G04 #@! TD*
G04 APERTURE END LIST*
D10*
G04 #@! TA.AperFunction,EtchedComponent*
G36*
X141678001Y-102723999D02*
G01*
X141078001Y-102723999D01*
X141078001Y-102223999D01*
X141678001Y-102223999D01*
X141678001Y-102723999D01*
G37*
G04 #@! TD.AperFunction*
G04 #@! TA.AperFunction,EtchedComponent*
G36*
X141270000Y-112884000D02*
G01*
X140670000Y-112884000D01*
X140670000Y-112384000D01*
X141270000Y-112384000D01*
X141270000Y-112884000D01*
G37*
G04 #@! TD.AperFunction*
D11*
X156210000Y-84267100D03*
D12*
X156210000Y-82267100D03*
D13*
X141378001Y-101823999D03*
X141378001Y-103123999D03*
X141378001Y-104423999D03*
X140970000Y-111984000D03*
X140970000Y-113284000D03*
X140970000Y-114584000D03*
D14*
X169164000Y-91186000D03*
D15*
X171704000Y-91186000D03*
X174244000Y-91186000D03*
D16*
X122423000Y-75184000D03*
D12*
X122423000Y-77724000D03*
X122423000Y-80264000D03*
X122423000Y-82804000D03*
X122423000Y-85344000D03*
X122423000Y-87884000D03*
X122423000Y-90424000D03*
X122423000Y-92964000D03*
X122423000Y-95504000D03*
X122423000Y-98044000D03*
X122423000Y-100584000D03*
X122423000Y-103124000D03*
X122423000Y-105664000D03*
X122423000Y-108204000D03*
X122423000Y-110744000D03*
X122423000Y-113284000D03*
X122423000Y-115824000D03*
X122423000Y-118364000D03*
X122423000Y-120904000D03*
X122423000Y-123444000D03*
X137663000Y-123444000D03*
X137663000Y-120904000D03*
X137663000Y-118364000D03*
X137663000Y-115824000D03*
X137663000Y-113284000D03*
X137663000Y-110744000D03*
X137663000Y-108204000D03*
X137663000Y-105664000D03*
X137663000Y-103124000D03*
X137663000Y-100584000D03*
X137663000Y-98044000D03*
X137663000Y-95504000D03*
X137663000Y-92964000D03*
X137663000Y-90424000D03*
X137663000Y-87884000D03*
X137663000Y-85344000D03*
X137663000Y-82804000D03*
X137663000Y-80264000D03*
X137663000Y-77724000D03*
X137663000Y-75184000D03*
D17*
X152390000Y-128529000D03*
D12*
X152390000Y-125989000D03*
X152390000Y-123449000D03*
X152390000Y-120909000D03*
X152390000Y-118369000D03*
X152390000Y-115829000D03*
X152390000Y-113289000D03*
X152390000Y-110749000D03*
X152390000Y-108209000D03*
X152390000Y-105669000D03*
X152390000Y-103129000D03*
X152390000Y-100589000D03*
X144770000Y-100589000D03*
X144770000Y-103129000D03*
X144770000Y-105669000D03*
X144770000Y-108209000D03*
X144770000Y-110749000D03*
X144770000Y-113289000D03*
X144770000Y-115829000D03*
X144770000Y-118369000D03*
X144770000Y-120909000D03*
X144770000Y-123449000D03*
X144770000Y-125989000D03*
X144770000Y-128529000D03*
D16*
X158999000Y-94727000D03*
D12*
X158999000Y-97267000D03*
X158999000Y-99807000D03*
X158999000Y-102347000D03*
X158999000Y-104887000D03*
X158999000Y-107427000D03*
X158999000Y-109967000D03*
X158999000Y-112507000D03*
X158999000Y-115047000D03*
X158999000Y-117587000D03*
X158999000Y-120127000D03*
X158999000Y-122667000D03*
X158999000Y-125207000D03*
X158999000Y-127747000D03*
X174239000Y-127747000D03*
X174239000Y-125207000D03*
X174239000Y-122667000D03*
X174239000Y-120127000D03*
X174239000Y-117587000D03*
X174239000Y-115047000D03*
X174239000Y-112507000D03*
X174239000Y-109967000D03*
X174239000Y-107427000D03*
X174239000Y-104887000D03*
X174239000Y-102347000D03*
X174239000Y-99807000D03*
X174239000Y-97267000D03*
X174239000Y-94727000D03*
D14*
X147066000Y-55626000D03*
D15*
X149606000Y-55626000D03*
X147066000Y-58166000D03*
X149606000Y-58166000D03*
X147066000Y-60706000D03*
X149606000Y-60706000D03*
X147066000Y-63246000D03*
X149606000Y-63246000D03*
X147066000Y-65786000D03*
X149606000Y-65786000D03*
D14*
X173223000Y-81783000D03*
D15*
X173223000Y-84323000D03*
X170683000Y-81783000D03*
X170683000Y-84323000D03*
X168143000Y-81783000D03*
X168143000Y-84323000D03*
X165603000Y-81783000D03*
X165603000Y-84323000D03*
X163063000Y-81783000D03*
X163063000Y-84323000D03*
D18*
X158750000Y-74234000D03*
D12*
X161290000Y-74234000D03*
X163830000Y-74234000D03*
X166370000Y-74234000D03*
X168910000Y-74234000D03*
X171450000Y-74234000D03*
X173990000Y-74234000D03*
X173990000Y-66614000D03*
X171450000Y-66614000D03*
X168910000Y-66614000D03*
X166370000Y-66614000D03*
X163830000Y-66614000D03*
X161290000Y-66614000D03*
X158750000Y-66614000D03*
D18*
X158750000Y-62484000D03*
D12*
X161290000Y-62484000D03*
X163830000Y-62484000D03*
X166370000Y-62484000D03*
X168910000Y-62484000D03*
X171450000Y-62484000D03*
X173990000Y-62484000D03*
X173990000Y-54864000D03*
X171450000Y-54864000D03*
X168910000Y-54864000D03*
X166370000Y-54864000D03*
X163830000Y-54864000D03*
X161290000Y-54864000D03*
X158750000Y-54864000D03*
D19*
X129256000Y-122174000D03*
D20*
X130556000Y-122174000D03*
D21*
X131856000Y-122174000D03*
D12*
X140970000Y-75184000D03*
D22*
X151130000Y-75184000D03*
D12*
X127762000Y-71628000D03*
X122762000Y-71628000D03*
D23*
X127976000Y-53294000D03*
X125476000Y-53594000D03*
X132976000Y-53294000D03*
X135476000Y-53594000D03*
D24*
X122976000Y-63294000D03*
X125476000Y-65794000D03*
X130476000Y-63294000D03*
X135476000Y-65794000D03*
X137976000Y-63294000D03*
X130476000Y-68294000D03*
D12*
X155448000Y-95504000D03*
X155448000Y-100504000D03*
D11*
X134620000Y-128016000D03*
D22*
X127000000Y-128016000D03*
D12*
X140970000Y-85090000D03*
D22*
X151130000Y-85090000D03*
D25*
X124253100Y-137759600D03*
X168253100Y-137759600D03*
X126253100Y-137759600D03*
X170253100Y-137759600D03*
X128253100Y-137759600D03*
X172253100Y-137759600D03*
X130253100Y-137759600D03*
X132253100Y-137759600D03*
X134253100Y-137759600D03*
X136253100Y-137759600D03*
X138253100Y-137759600D03*
X140253100Y-137759600D03*
X142253100Y-137759600D03*
X144253100Y-137759600D03*
X146253100Y-137759600D03*
X148253100Y-137759600D03*
X150253100Y-137759600D03*
X152253100Y-137759600D03*
X154253100Y-137759600D03*
X156253100Y-137759600D03*
X158253100Y-137759600D03*
X160253100Y-137759600D03*
X162253100Y-137759600D03*
X164253100Y-137759600D03*
X166253100Y-137759600D03*
D12*
X140970000Y-78486000D03*
D22*
X151130000Y-78486000D03*
D12*
X155448000Y-66614000D03*
X155448000Y-71614000D03*
X155448000Y-54930000D03*
X155448000Y-59930000D03*
X140970000Y-81788000D03*
D22*
X151130000Y-81788000D03*
D12*
X140970000Y-71882000D03*
D22*
X151130000Y-71882000D03*
D26*
X135255200Y-85211800D03*
X142311000Y-126676600D03*
X135691300Y-93449300D03*
X156943000Y-79838000D03*
X138499900Y-86492800D03*
X129751800Y-94767200D03*
X139741600Y-87495000D03*
X148526400Y-81554800D03*
X155746700Y-87764600D03*
X139086700Y-82288800D03*
X133824200Y-85578700D03*
X142952500Y-94092100D03*
X151950400Y-87595900D03*
X149791500Y-99678700D03*
X130253100Y-123553800D03*
X151226900Y-66977000D03*
X152123700Y-64954400D03*
X149680100Y-102386800D03*
X156587100Y-92609300D03*
X167632200Y-125252200D03*
X163768200Y-92476100D03*
X171787300Y-129407300D03*
X153812800Y-131279900D03*
X151707800Y-131652100D03*
X156737100Y-124632600D03*
X159674100Y-130168900D03*
X157463300Y-129554000D03*
X165312900Y-126006700D03*
X164667500Y-128343000D03*
X167357600Y-128011700D03*
X155238200Y-121155400D03*
X156991900Y-131802500D03*
X160727500Y-132036500D03*
X158980600Y-132099500D03*
X148571400Y-119002600D03*
X156238000Y-127719300D03*
X150391500Y-112711100D03*
X161498900Y-98013200D03*
X163908500Y-100191400D03*
X152532700Y-99159000D03*
X160204200Y-131136200D03*
X163175300Y-119168000D03*
X162534200Y-131316200D03*
X161437200Y-127000800D03*
X164252200Y-131292800D03*
X163026800Y-126759200D03*
X128757600Y-132049100D03*
X161774200Y-69225000D03*
X173308600Y-137076700D03*
X128346000Y-107535500D03*
X164242200Y-98864200D03*
X125387400Y-125016100D03*
X123172600Y-136912000D03*
X164037200Y-126605300D03*
X164644800Y-123502100D03*
X173673900Y-80174100D03*
X153007100Y-70089700D03*
X139320900Y-91331500D03*
X158604000Y-85416200D03*
X162306000Y-89043400D03*
X135467800Y-95338500D03*
X166986800Y-57626300D03*
X135980100Y-130345500D03*
X141352400Y-120249700D03*
X141534500Y-116392000D03*
X142402200Y-107742100D03*
X134093900Y-117008900D03*
X130885600Y-125476300D03*
X141962600Y-110828600D03*
X139975900Y-102317500D03*
X141248900Y-126703100D03*
X149442700Y-115960600D03*
X135890000Y-131994700D03*
X146820000Y-114411700D03*
X138436500Y-132211000D03*
X150025300Y-119360700D03*
X147272600Y-128094900D03*
X148384900Y-111684900D03*
X149057900Y-114912600D03*
X160582900Y-104952500D03*
X156225800Y-114616300D03*
X167241200Y-113952700D03*
X143325000Y-102334000D03*
X155706000Y-116581100D03*
X154751200Y-118071700D03*
X153839100Y-111139000D03*
X154592700Y-129843700D03*
X156543000Y-126288900D03*
X162089100Y-118518600D03*
X153765000Y-104056800D03*
X156927200Y-105120100D03*
X153765000Y-99087600D03*
X157325100Y-117497500D03*
X161459500Y-107786400D03*
X162966200Y-120438300D03*
X140755600Y-87508900D03*
X162639200Y-96864300D03*
X153265600Y-114696900D03*
X162606600Y-121781500D03*
X140253900Y-95802700D03*
X139285400Y-90281400D03*
X162667000Y-94010000D03*
X161999000Y-114734000D03*
X150171800Y-87928100D03*
X145993800Y-82070100D03*
X165669500Y-128452800D03*
X146356000Y-112145500D03*
X161500400Y-108947400D03*
X148375600Y-110376300D03*
X157165600Y-106574000D03*
X162194200Y-64597400D03*
X145146800Y-74625200D03*
X142390100Y-71898300D03*
X153229600Y-77391200D03*
X145860600Y-75352200D03*
X160716600Y-65114200D03*
X141022100Y-118310900D03*
X139568200Y-118188900D03*
X142740700Y-122335400D03*
X140010400Y-120966300D03*
X154291000Y-108938900D03*
X126150500Y-122043800D03*
X141557600Y-108333600D03*
X150992300Y-103907400D03*
X149890500Y-103831500D03*
X143077300Y-112107400D03*
X139231100Y-96421100D03*
X139613200Y-92836300D03*
X139164100Y-110840500D03*
X139532700Y-108731900D03*
D27*
X149606000Y-55626000D02*
X148429100Y-55626000D01*
X148429100Y-56435200D02*
X148061400Y-56802900D01*
X142311115Y-56802900D02*
X148061400Y-56802900D01*
X133951489Y-69430511D02*
X133951489Y-65162526D01*
X133951489Y-65162526D02*
X142311115Y-56802900D01*
X148429100Y-55626000D02*
X148429100Y-56435200D01*
X125658000Y-77724000D02*
X133951489Y-69430511D01*
X125658000Y-77724000D02*
X122423000Y-77724000D01*
X123791100Y-80264000D02*
X145889100Y-58166000D01*
X147066000Y-58166000D02*
X145889100Y-58166000D01*
X122423000Y-80264000D02*
X123791100Y-80264000D01*
X122423000Y-82804000D02*
X145791000Y-59436000D01*
X149606000Y-58166000D02*
X148429100Y-58166000D01*
X147524900Y-59436000D02*
X148429100Y-58531800D01*
X148429100Y-58531800D02*
X148429100Y-58166000D01*
X145791000Y-59436000D02*
X147524900Y-59436000D01*
X147066000Y-60706000D02*
X145889100Y-60706000D01*
X122423000Y-85344000D02*
X122423000Y-84217100D01*
X122423000Y-84217100D02*
X122704700Y-84217100D01*
X122704700Y-84217100D02*
X145889100Y-61032700D01*
X145889100Y-61032700D02*
X145889100Y-60706000D01*
X123737100Y-84880200D02*
X146641300Y-61976000D01*
X146641300Y-61976000D02*
X147524900Y-61976000D01*
X122423000Y-87884000D02*
X122423000Y-86757100D01*
X147524900Y-61976000D02*
X148429100Y-61071800D01*
X149606000Y-60706000D02*
X148429100Y-60706000D01*
X123737100Y-85724800D02*
X123737100Y-84880200D01*
X148429100Y-61071800D02*
X148429100Y-60706000D01*
X122423000Y-86757100D02*
X122704800Y-86757100D01*
X122704800Y-86757100D02*
X123737100Y-85724800D01*
X124323200Y-87678600D02*
X122704700Y-89297100D01*
X122423000Y-90424000D02*
X122423000Y-89297100D01*
X147066000Y-63246000D02*
X124323200Y-85988800D01*
X124323200Y-85988800D02*
X124323200Y-87678600D01*
X122704700Y-89297100D02*
X122423000Y-89297100D01*
X149606000Y-63246000D02*
X148429100Y-63246000D01*
X147524900Y-64516000D02*
X148429100Y-63611800D01*
X135668000Y-78873800D02*
X135668000Y-75512700D01*
X146664700Y-64516000D02*
X147524900Y-64516000D01*
X122423000Y-92964000D02*
X122423000Y-91837100D01*
X148429100Y-63611800D02*
X148429100Y-63246000D01*
X135668000Y-75512700D02*
X146664700Y-64516000D01*
X122704700Y-91837100D02*
X135668000Y-78873800D01*
X122423000Y-91837100D02*
X122704700Y-91837100D01*
X136503900Y-83963100D02*
X135255200Y-85211800D01*
X166370000Y-75360900D02*
X164600400Y-75360900D01*
X172046100Y-82778400D02*
X172046100Y-81037000D01*
X144770000Y-125989000D02*
X143643100Y-125989000D01*
X173223000Y-83146100D02*
X172413800Y-83146100D01*
X148876200Y-83963100D02*
X136503900Y-83963100D01*
X172046100Y-81037000D02*
X166370000Y-75360900D01*
X166370000Y-74234000D02*
X166370000Y-75360900D01*
X173223000Y-84323000D02*
X173223000Y-83146100D01*
X151130000Y-85090000D02*
X150003100Y-85090000D01*
X142955500Y-126676600D02*
X142311000Y-126676600D01*
X172413800Y-83146100D02*
X172046100Y-82778400D01*
X135255200Y-85211800D02*
X135691300Y-85647900D01*
X160123300Y-79838000D02*
X156943000Y-79838000D01*
X150003100Y-85090000D02*
X148876200Y-83963100D01*
X143643100Y-125989000D02*
X142955500Y-126676600D01*
X135691300Y-85647900D02*
X135691300Y-93449300D01*
X164600400Y-75360900D02*
X160123300Y-79838000D01*
X168697100Y-82959900D02*
X160020700Y-82959900D01*
X122423000Y-100584000D02*
X123549900Y-100584000D01*
X123549900Y-100584000D02*
X129366700Y-94767200D01*
X169506100Y-81783000D02*
X169506100Y-82150900D01*
X170683000Y-81783000D02*
X169506100Y-81783000D01*
X138662600Y-86330100D02*
X138499900Y-86492800D01*
X160020700Y-82959900D02*
X156394800Y-86585800D01*
X141243900Y-86330100D02*
X138662600Y-86330100D01*
X129366700Y-94767200D02*
X129751800Y-94767200D01*
X169506100Y-82150900D02*
X168697100Y-82959900D01*
X155258500Y-86585800D02*
X155134800Y-86709500D01*
X155134800Y-86709500D02*
X141623300Y-86709500D01*
X156394800Y-86585800D02*
X155258500Y-86585800D01*
X141623300Y-86709500D02*
X141243900Y-86330100D01*
X150472300Y-87199700D02*
X141474400Y-87199700D01*
X141474400Y-87199700D02*
X141056700Y-86782000D01*
X169506100Y-84688800D02*
X165897600Y-88297300D01*
X156036400Y-88502900D02*
X151775500Y-88502900D01*
X140454600Y-86782000D02*
X139741600Y-87495000D01*
X141056700Y-86782000D02*
X140454600Y-86782000D01*
X151775500Y-88502900D02*
X150472300Y-87199700D01*
X170683000Y-84323000D02*
X169506100Y-84323000D01*
X165897600Y-88297300D02*
X156242000Y-88297300D01*
X169506100Y-84323000D02*
X169506100Y-84688800D01*
X156242000Y-88297300D02*
X156036400Y-88502900D01*
X139843100Y-81964900D02*
X139843100Y-82329600D01*
X132582900Y-85782400D02*
X136839500Y-81525800D01*
X168143000Y-81783000D02*
X166966100Y-81783000D01*
X132582900Y-94658900D02*
X132582900Y-85782400D01*
X122704700Y-104537100D02*
X132582900Y-94658900D01*
X136839500Y-81525800D02*
X139404000Y-81525800D01*
X140445700Y-82932200D02*
X151580400Y-82932200D01*
X166966100Y-81415200D02*
X166966100Y-81783000D01*
X151580400Y-82932200D02*
X153877000Y-80635600D01*
X153877000Y-80635600D02*
X161528700Y-80635600D01*
X165680500Y-80129600D02*
X166966100Y-81415200D01*
X122423000Y-105664000D02*
X122423000Y-104537100D01*
X139404000Y-81525800D02*
X139843100Y-81964900D01*
X122423000Y-104537100D02*
X122704700Y-104537100D01*
X162034700Y-80129600D02*
X165680500Y-80129600D01*
X161528700Y-80635600D02*
X162034700Y-80129600D01*
X139843100Y-82329600D02*
X140445700Y-82932200D01*
X163890300Y-87764600D02*
X166966100Y-84688800D01*
X138661800Y-78994000D02*
X140315300Y-77340500D01*
X140315300Y-77340500D02*
X144312100Y-77340500D01*
X137315000Y-78994000D02*
X138661800Y-78994000D01*
X155746700Y-87764600D02*
X163890300Y-87764600D01*
X121275000Y-100076600D02*
X122037600Y-99314000D01*
X122141300Y-107077100D02*
X121275000Y-106210800D01*
X168143000Y-84323000D02*
X166966100Y-84323000D01*
X122793000Y-99314000D02*
X125573500Y-96533500D01*
X121275000Y-106210800D02*
X121275000Y-100076600D01*
X125573500Y-96533500D02*
X125573500Y-90735500D01*
X144312100Y-77340500D02*
X148526400Y-81554800D01*
X166966100Y-84688800D02*
X166966100Y-84323000D01*
X122037600Y-99314000D02*
X122793000Y-99314000D01*
X125573500Y-90735500D02*
X137315000Y-78994000D01*
X122423000Y-108204000D02*
X122423000Y-107077100D01*
X122423000Y-107077100D02*
X122141300Y-107077100D01*
X155762300Y-81113400D02*
X162068200Y-81113400D01*
X133824200Y-98497600D02*
X122704700Y-109617100D01*
X122423000Y-110744000D02*
X122423000Y-109617100D01*
X162068200Y-81113400D02*
X162596700Y-80584900D01*
X162596700Y-80584900D02*
X163595800Y-80584900D01*
X133824200Y-85578700D02*
X133824200Y-98497600D01*
X140200900Y-83403000D02*
X153472700Y-83403000D01*
X153472700Y-83403000D02*
X155762300Y-81113400D01*
X163595800Y-80584900D02*
X164426100Y-81415200D01*
X139086700Y-82288800D02*
X140200900Y-83403000D01*
X164426100Y-81415200D02*
X164426100Y-81783000D01*
X122704700Y-109617100D02*
X122423000Y-109617100D01*
X165603000Y-81783000D02*
X164426100Y-81783000D01*
X138280700Y-96889900D02*
X138541600Y-97150800D01*
X142952500Y-94132100D02*
X142952500Y-94092100D01*
X155445700Y-87037700D02*
X154887500Y-87595900D01*
X138541600Y-97150800D02*
X139933800Y-97150800D01*
X122423000Y-112157100D02*
X122656500Y-112157100D01*
X162068800Y-87037700D02*
X155445700Y-87037700D01*
X165603000Y-84323000D02*
X164426100Y-84323000D01*
X122656500Y-112157100D02*
X128315100Y-106498500D01*
X164426100Y-84680400D02*
X162068800Y-87037700D01*
X164426100Y-84323000D02*
X164426100Y-84680400D01*
X139933800Y-97150800D02*
X142952500Y-94132100D01*
X154887500Y-87595900D02*
X151950400Y-87595900D01*
X128315100Y-105734000D02*
X137159200Y-96889900D01*
X137159200Y-96889900D02*
X138280700Y-96889900D01*
X128315100Y-106498500D02*
X128315100Y-105734000D01*
X122423000Y-113284000D02*
X122423000Y-112157100D01*
X122423000Y-115824000D02*
X123549900Y-115824000D01*
X137359300Y-101732900D02*
X138429100Y-101732900D01*
X149529400Y-99416600D02*
X149791500Y-99678700D01*
X123549900Y-115824000D02*
X123549900Y-115542300D01*
X123549900Y-115542300D02*
X137359300Y-101732900D01*
X138429100Y-101732900D02*
X140745400Y-99416600D01*
X140745400Y-99416600D02*
X149529400Y-99416600D01*
X138789900Y-77724000D02*
X139673000Y-76840900D01*
X148346200Y-76840900D02*
X150003100Y-75184000D01*
X137663000Y-77724000D02*
X138789900Y-77724000D01*
X151130000Y-75184000D02*
X150003100Y-75184000D01*
X139673000Y-76840900D02*
X148346200Y-76840900D01*
X130556000Y-123250900D02*
X130253100Y-123553800D01*
X130556000Y-122174000D02*
X130556000Y-123250900D01*
X152123700Y-66080200D02*
X152123700Y-64954400D01*
X150003100Y-72316200D02*
X145978200Y-76341100D01*
X151130000Y-71882000D02*
X150003100Y-71882000D01*
X145978200Y-76341100D02*
X139947000Y-76341100D01*
X150003100Y-71882000D02*
X150003100Y-72316200D01*
X139947000Y-76341100D02*
X138789900Y-75184000D01*
X137663000Y-75184000D02*
X138789900Y-75184000D01*
X151226900Y-66977000D02*
X152123700Y-66080200D01*
X143129100Y-108264900D02*
X143129100Y-106902000D01*
X149680100Y-102386800D02*
X147642900Y-104424000D01*
X142736400Y-109026900D02*
X142736400Y-108657600D01*
X143129100Y-106902000D02*
X141478000Y-105250900D01*
X156720300Y-92476100D02*
X156587100Y-92609300D01*
X171787300Y-129407300D02*
X167632200Y-125252200D01*
X142736400Y-108657600D02*
X143129100Y-108264900D01*
X147642900Y-104424000D02*
X141478000Y-104424000D01*
X163768200Y-92476100D02*
X156720300Y-92476100D01*
X140970000Y-111984000D02*
X140970000Y-110793300D01*
X141478000Y-104424000D02*
X141478000Y-105250900D01*
X140970000Y-110793300D02*
X142736400Y-109026900D01*
X160711000Y-118714000D02*
X158818100Y-118714000D01*
X151707800Y-131652100D02*
X152080000Y-131279900D01*
X161838000Y-117587000D02*
X160711000Y-118714000D01*
X158818100Y-118714000D02*
X156737100Y-120795000D01*
X156737100Y-120795000D02*
X156737100Y-124632600D01*
X152080000Y-131279900D02*
X153812800Y-131279900D01*
X161838000Y-117587000D02*
X174239000Y-117587000D01*
X159674100Y-130168900D02*
X159059200Y-129554000D01*
X159059200Y-129554000D02*
X157463300Y-129554000D01*
X168652600Y-122667000D02*
X165312900Y-126006700D01*
X174239000Y-122667000D02*
X168652600Y-122667000D01*
X155238200Y-121155400D02*
X155038800Y-121354800D01*
X155038800Y-121354800D02*
X155038800Y-129117300D01*
X156991900Y-131389000D02*
X156991900Y-131802500D01*
X155319700Y-129398200D02*
X155319700Y-129716800D01*
X167071800Y-127725900D02*
X167357600Y-128011700D01*
X155319700Y-129716800D02*
X156991900Y-131389000D01*
X165284600Y-127725900D02*
X167071800Y-127725900D01*
X155038800Y-129117300D02*
X155319700Y-129398200D01*
X164667500Y-128343000D02*
X165284600Y-127725900D01*
X150169600Y-116331000D02*
X150169600Y-112933000D01*
X148571400Y-117929200D02*
X150169600Y-116331000D01*
X148571400Y-119002600D02*
X148571400Y-117929200D01*
X156238000Y-127719300D02*
X156393000Y-127874300D01*
X160664500Y-132099500D02*
X160727500Y-132036500D01*
X156393000Y-129511900D02*
X158980600Y-132099500D01*
X158980600Y-132099500D02*
X160664500Y-132099500D01*
X150169600Y-112933000D02*
X150391500Y-112711100D01*
X156393000Y-127874300D02*
X156393000Y-129511900D01*
X159232500Y-124080100D02*
X158999000Y-124080100D01*
X163908500Y-100191400D02*
X163677100Y-100191400D01*
X139082400Y-98336500D02*
X151710200Y-98336500D01*
X163175300Y-119168000D02*
X160258300Y-122085000D01*
X160220700Y-127273900D02*
X160220700Y-129687500D01*
X160401000Y-130939400D02*
X160204200Y-131136200D01*
X151710200Y-98336500D02*
X152532700Y-99159000D01*
X160258300Y-122085000D02*
X160258300Y-123054300D01*
X158999000Y-126333900D02*
X159280700Y-126333900D01*
X137663000Y-98044000D02*
X138789900Y-98044000D01*
X159280700Y-126333900D02*
X160220700Y-127273900D01*
X158999000Y-125207000D02*
X158999000Y-124080100D01*
X138789900Y-98044000D02*
X139082400Y-98336500D01*
X160401000Y-129867800D02*
X160401000Y-130939400D01*
X160258300Y-123054300D02*
X159232500Y-124080100D01*
X158999000Y-125207000D02*
X158999000Y-126333900D01*
X160220700Y-129687500D02*
X160401000Y-129867800D01*
X163677100Y-100191400D02*
X161498900Y-98013200D01*
X161437200Y-128638000D02*
X162534200Y-129735000D01*
X162534200Y-129735000D02*
X162534200Y-131316200D01*
X161437200Y-127000800D02*
X161437200Y-128638000D01*
X163026800Y-126759200D02*
X163940500Y-127672900D01*
X163940500Y-127672900D02*
X163940500Y-130981100D01*
X163940500Y-130981100D02*
X164252200Y-131292800D01*
X128757600Y-132049100D02*
X128253100Y-132553600D01*
X128253100Y-132553600D02*
X128253100Y-137759600D01*
X172863100Y-71980200D02*
X172863100Y-64456000D01*
X172676900Y-137076700D02*
X173308600Y-137076700D01*
X139892200Y-99318300D02*
X136563200Y-99318300D01*
X167107500Y-126733600D02*
X164651900Y-126733600D01*
X173223000Y-81783000D02*
X173223000Y-80606100D01*
X162954800Y-97576700D02*
X163366100Y-97165400D01*
X173673900Y-80174100D02*
X173241900Y-80606100D01*
X151263100Y-100113400D02*
X150098400Y-98948700D01*
X164651900Y-126733600D02*
X164522400Y-126604100D01*
X162954800Y-97576700D02*
X162940300Y-97591200D01*
X164522400Y-123624500D02*
X164522400Y-126604100D01*
X162773300Y-66614000D02*
X162773300Y-68225900D01*
X164522400Y-126604100D02*
X164038400Y-126604100D01*
X153601900Y-100504000D02*
X153516900Y-100589000D01*
X155448000Y-59930000D02*
X155448000Y-61249700D01*
X124253100Y-126150400D02*
X124253100Y-136912000D01*
X162338200Y-97591200D02*
X162033300Y-97286300D01*
X159885200Y-98599000D02*
X157353000Y-98599000D01*
X172018000Y-63610900D02*
X166833100Y-63610900D01*
X162703100Y-66543900D02*
X162703200Y-66543900D01*
X173241900Y-80606100D02*
X173223000Y-80606100D01*
X172863100Y-62484000D02*
X172863100Y-62765800D01*
X173990000Y-74234000D02*
X173990000Y-73107100D01*
X161443500Y-64724300D02*
X161443500Y-64950000D01*
X157864000Y-63665700D02*
X160384900Y-63665700D01*
X173990000Y-73107100D02*
X172863100Y-71980200D01*
X155448000Y-100504000D02*
X153601900Y-100504000D01*
X150098400Y-98948700D02*
X140261800Y-98948700D01*
X162940300Y-97591200D02*
X162338200Y-97591200D01*
X162033300Y-97286300D02*
X161197900Y-97286300D01*
X164038400Y-126604100D02*
X164037200Y-126605300D01*
X162703100Y-66209600D02*
X162703100Y-66543900D01*
X173990000Y-62484000D02*
X172863100Y-62484000D01*
X161443500Y-64950000D02*
X162703100Y-66209600D01*
X124253100Y-136912000D02*
X123172600Y-136912000D01*
X162773300Y-68225900D02*
X161774200Y-69225000D01*
X152390000Y-100589000D02*
X151263100Y-100589000D01*
X163366100Y-97165400D02*
X163366100Y-96584500D01*
X172676900Y-132303000D02*
X167107500Y-126733600D01*
X163830000Y-66614000D02*
X162773300Y-66614000D01*
X166833100Y-63610900D02*
X163830000Y-66614000D01*
X160384900Y-63665700D02*
X161443500Y-64724300D01*
X162703200Y-66543900D02*
X162773300Y-66614000D01*
X140261800Y-98948700D02*
X139892200Y-99318300D01*
X125387400Y-125016100D02*
X124253100Y-126150400D01*
X161197900Y-97286300D02*
X159885200Y-98599000D01*
X172863100Y-64456000D02*
X172018000Y-63610900D01*
X167987100Y-91963500D02*
X167987100Y-91186000D01*
X136563200Y-99318300D02*
X128346000Y-107535500D01*
X172253100Y-137759600D02*
X172676900Y-137335800D01*
X163366100Y-96584500D02*
X167987100Y-91963500D01*
X157353000Y-98599000D02*
X155448000Y-100504000D01*
X169164000Y-91186000D02*
X167987100Y-91186000D01*
X164644800Y-123502100D02*
X164522400Y-123624500D01*
X162954800Y-97576700D02*
X164242200Y-98864200D01*
X152390000Y-100589000D02*
X153516900Y-100589000D01*
X155448000Y-61249700D02*
X157864000Y-63665700D01*
X172676900Y-137335800D02*
X172676900Y-137076700D01*
X172863100Y-62765800D02*
X172018000Y-63610900D01*
X172676900Y-137076700D02*
X172676900Y-132303000D01*
X151263100Y-100589000D02*
X151263100Y-100113400D01*
X167026100Y-65480600D02*
X169423200Y-65480600D01*
X151130000Y-81788000D02*
X151130000Y-80661100D01*
X151130000Y-80661100D02*
X152460900Y-79330200D01*
X153007100Y-70089700D02*
X162000900Y-70089700D01*
X165243100Y-66847500D02*
X165243100Y-66614000D01*
X162000900Y-70089700D02*
X165243100Y-66847500D01*
X152460900Y-70635900D02*
X153007100Y-70089700D01*
X169423200Y-65480600D02*
X170323100Y-66380500D01*
X171450000Y-66614000D02*
X170323100Y-66614000D01*
X152460900Y-79330200D02*
X152460900Y-70635900D01*
X170323100Y-66380500D02*
X170323100Y-66614000D01*
X165806600Y-66614000D02*
X165243100Y-66614000D01*
X165892700Y-66614000D02*
X167026100Y-65480600D01*
X140970000Y-85090000D02*
X142097200Y-86217200D01*
X137663000Y-115824000D02*
X136536100Y-115824000D01*
X160792900Y-85416200D02*
X158604000Y-85416200D01*
X122423000Y-123444000D02*
X123549900Y-123444000D01*
X156210000Y-84267100D02*
X155083100Y-84267100D01*
X136591900Y-94214400D02*
X135467800Y-95338500D01*
X127268900Y-119725000D02*
X123549900Y-123444000D01*
X163063000Y-84323000D02*
X161886100Y-84323000D01*
X155448000Y-66614000D02*
X158750000Y-66614000D01*
X138886300Y-91766100D02*
X138886300Y-93354600D01*
X173067100Y-91186000D02*
X173067100Y-90818200D01*
X166986800Y-54864000D02*
X166986800Y-57626300D01*
X173655600Y-91186000D02*
X173655600Y-93016700D01*
X139320900Y-91331500D02*
X138886300Y-91766100D01*
X157557100Y-54930000D02*
X157623100Y-54864000D01*
X136536100Y-115824000D02*
X132635100Y-119725000D01*
X171292300Y-89043400D02*
X162306000Y-89043400D01*
X158750000Y-62484000D02*
X158750000Y-54864000D01*
X140970000Y-71882000D02*
X144834400Y-68017600D01*
X173067100Y-90818200D02*
X171292300Y-89043400D01*
X153133000Y-86217200D02*
X155083100Y-84267100D01*
X161290000Y-54864000D02*
X163830000Y-54864000D01*
X138886300Y-93354600D02*
X138026500Y-94214400D01*
X174239000Y-94727000D02*
X174239000Y-93600100D01*
X173655600Y-93016700D02*
X174239000Y-93600100D01*
X140970000Y-75184000D02*
X140970000Y-71882000D01*
X163830000Y-54864000D02*
X166370000Y-54864000D01*
X144834400Y-68017600D02*
X152006500Y-68017600D01*
X153410100Y-66614000D02*
X155448000Y-66614000D01*
X142097200Y-86217200D02*
X153133000Y-86217200D01*
X132635100Y-119725000D02*
X127268900Y-119725000D01*
X166986800Y-54864000D02*
X168910000Y-54864000D01*
X161886100Y-84323000D02*
X160792900Y-85416200D01*
X152006500Y-68017600D02*
X153410100Y-66614000D01*
X155448000Y-54930000D02*
X157557100Y-54930000D01*
X138026500Y-94214400D02*
X136591900Y-94214400D01*
X173655600Y-91186000D02*
X173067100Y-91186000D01*
X158750000Y-54864000D02*
X161290000Y-54864000D01*
X158750000Y-54864000D02*
X157623100Y-54864000D01*
X143643100Y-112569600D02*
X143804200Y-112408500D01*
X143643100Y-109335900D02*
X144770000Y-108209000D01*
X141534500Y-116392000D02*
X143643100Y-114283400D01*
X143643100Y-114283400D02*
X143643100Y-112569600D01*
X139497300Y-123860700D02*
X141352400Y-122005600D01*
X143643100Y-111645200D02*
X143643100Y-109335900D01*
X135980100Y-130345500D02*
X139497300Y-126828300D01*
X143804200Y-112408500D02*
X143804200Y-111806300D01*
X139497300Y-126828300D02*
X139497300Y-123860700D01*
X143804200Y-111806300D02*
X143643100Y-111645200D01*
X141352400Y-122005600D02*
X141352400Y-120249700D01*
X142284500Y-108751700D02*
X142284500Y-107859800D01*
X134093900Y-115211600D02*
X137291500Y-112014000D01*
X134093900Y-117008900D02*
X134093900Y-115211600D01*
X126253100Y-131956100D02*
X126253100Y-137759600D01*
X130885600Y-127323600D02*
X126253100Y-131956100D01*
X142284500Y-107859800D02*
X142402200Y-107742100D01*
X137291500Y-112014000D02*
X139022200Y-112014000D01*
X130885600Y-125476300D02*
X130885600Y-127323600D01*
X139022200Y-112014000D02*
X142284500Y-108751700D01*
X140738900Y-120664200D02*
X140295200Y-120220500D01*
X138820300Y-126432800D02*
X138820300Y-123307900D01*
X142046900Y-114584000D02*
X142046900Y-110912900D01*
X140970000Y-114584000D02*
X140970000Y-115410900D01*
X142046900Y-110912900D02*
X141962600Y-110828600D01*
X138820300Y-123307900D02*
X140738900Y-121389300D01*
X132253100Y-133000000D02*
X138820300Y-126432800D01*
X141478000Y-101824000D02*
X140401100Y-101824000D01*
X140738900Y-121389300D02*
X140738900Y-120664200D01*
X140401100Y-101824000D02*
X140401100Y-101892300D01*
X140295200Y-116085700D02*
X140970000Y-115410900D01*
X140295200Y-120220500D02*
X140295200Y-116085700D01*
X132253100Y-137759600D02*
X132253100Y-133000000D01*
X140970000Y-114584000D02*
X142046900Y-114584000D01*
X140401100Y-101892300D02*
X139975900Y-102317500D01*
X145128400Y-124701600D02*
X143250400Y-124701600D01*
X146814100Y-123015900D02*
X145128400Y-124701600D01*
X147414200Y-117989100D02*
X147414200Y-120678400D01*
X134253100Y-133631600D02*
X135890000Y-131994700D01*
X146814100Y-121278500D02*
X146814100Y-123015900D01*
X147414200Y-120678400D02*
X146814100Y-121278500D01*
X143250400Y-124701600D02*
X141248900Y-126703100D01*
X149442700Y-115960600D02*
X147414200Y-117989100D01*
X147272600Y-128094900D02*
X148446500Y-126921000D01*
X146820000Y-114411700D02*
X147164000Y-114067700D01*
X136652000Y-133892661D02*
X136652000Y-132842000D01*
X147164000Y-114067700D02*
X147164000Y-108902400D01*
X156316100Y-103129000D02*
X158255700Y-101189400D01*
X136652000Y-132842000D02*
X137283000Y-132211000D01*
X136253100Y-134291561D02*
X136652000Y-133892661D01*
X148446500Y-126921000D02*
X148446500Y-120939500D01*
X174239000Y-97267000D02*
X173112100Y-97267000D01*
X158255700Y-101189400D02*
X169189700Y-101189400D01*
X152937400Y-103129000D02*
X156316100Y-103129000D01*
X137283000Y-132211000D02*
X138436500Y-132211000D01*
X148446500Y-120939500D02*
X150025300Y-119360700D01*
X147164000Y-108902400D02*
X152937400Y-103129000D01*
X169189700Y-101189400D02*
X173112100Y-97267000D01*
X140070100Y-123977700D02*
X140070100Y-131606300D01*
X153694900Y-105847000D02*
X157228300Y-105847000D01*
X147615900Y-109316200D02*
X147615900Y-115223400D01*
X145990300Y-118765100D02*
X145116400Y-119639000D01*
X152390000Y-105669000D02*
X151263100Y-105669000D01*
X157654100Y-105421200D02*
X157654100Y-104636700D01*
X147360000Y-115479300D02*
X147360000Y-116118400D01*
X147360000Y-116118400D02*
X145990300Y-117488100D01*
X142256200Y-121791600D02*
X140070100Y-123977700D01*
X142256200Y-121631800D02*
X142256200Y-121791600D01*
X169302100Y-103617000D02*
X173112100Y-99807000D01*
X140070100Y-131606300D02*
X138253100Y-133423300D01*
X174239000Y-99807000D02*
X173112100Y-99807000D01*
X145116400Y-119639000D02*
X144249000Y-119639000D01*
X145990300Y-117488100D02*
X145990300Y-118765100D01*
X147615900Y-115223400D02*
X147360000Y-115479300D01*
X157654100Y-104636700D02*
X158673800Y-103617000D01*
X157228300Y-105847000D02*
X157654100Y-105421200D01*
X151263100Y-105669000D02*
X147615900Y-109316200D01*
X153516900Y-105669000D02*
X153694900Y-105847000D01*
X144249000Y-119639000D02*
X142256200Y-121631800D01*
X152390000Y-105669000D02*
X153516900Y-105669000D01*
X158673800Y-103617000D02*
X169302100Y-103617000D01*
X148263800Y-115853700D02*
X148263800Y-116492800D01*
X144440300Y-122179000D02*
X140522000Y-126097300D01*
X151263100Y-108209000D02*
X151263100Y-108806700D01*
X149057900Y-115059600D02*
X148263800Y-115853700D01*
X149057900Y-114912600D02*
X149057900Y-115059600D01*
X146920200Y-120533300D02*
X145274600Y-122178900D01*
X145274600Y-122178900D02*
X145274600Y-122179000D01*
X151263100Y-108806700D02*
X148384900Y-111684900D01*
X140522000Y-126097300D02*
X140522000Y-137490700D01*
X146920200Y-117836400D02*
X146920200Y-120533300D01*
X145274600Y-122179000D02*
X144440300Y-122179000D01*
X148263800Y-116492800D02*
X146920200Y-117836400D01*
X152390000Y-108209000D02*
X151263100Y-108209000D01*
X161050600Y-107040200D02*
X172725300Y-107040200D01*
X152943500Y-111865900D02*
X154663800Y-111865900D01*
X146545700Y-128415300D02*
X146545700Y-127776300D01*
X149298300Y-119433900D02*
X149298300Y-117841400D01*
X159393800Y-108697000D02*
X161050600Y-107040200D01*
X172725300Y-107040200D02*
X173112100Y-107427000D01*
X157832700Y-108697000D02*
X159393800Y-108697000D01*
X154663800Y-111865900D02*
X157832700Y-108697000D01*
X146545700Y-127776300D02*
X147864600Y-126457400D01*
X174239000Y-107427000D02*
X173112100Y-107427000D01*
X152390000Y-111312400D02*
X152943500Y-111865900D01*
X150621500Y-116518200D02*
X150621500Y-114628000D01*
X152108200Y-111875900D02*
X152390000Y-111875900D01*
X151263100Y-112721000D02*
X152108200Y-111875900D01*
X142253100Y-137759600D02*
X142253100Y-132707900D01*
X147864600Y-120867600D02*
X149298300Y-119433900D01*
X142253100Y-132707900D02*
X146545700Y-128415300D01*
X147864600Y-126457400D02*
X147864600Y-120867600D01*
X152390000Y-111312400D02*
X152390000Y-111875900D01*
X151263100Y-113986400D02*
X151263100Y-112721000D01*
X150621500Y-114628000D02*
X151263100Y-113986400D01*
X149298300Y-117841400D02*
X150621500Y-116518200D01*
X144253100Y-137759600D02*
X144253100Y-132487800D01*
X151236800Y-116916100D02*
X151236800Y-115384200D01*
X148898400Y-127842500D02*
X148898400Y-121515600D01*
X148898400Y-121515600D02*
X150752200Y-119661800D01*
X152205100Y-114415900D02*
X152390000Y-114415900D01*
X152390000Y-113289000D02*
X152390000Y-114415900D01*
X150752200Y-119661800D02*
X150752200Y-117400700D01*
X152390000Y-113289000D02*
X156773700Y-113289000D01*
X157139700Y-113655000D02*
X156773700Y-113289000D01*
X160959000Y-113655000D02*
X157139700Y-113655000D01*
X162107000Y-112507000D02*
X160959000Y-113655000D01*
X144253100Y-132487800D02*
X148898400Y-127842500D01*
X151236800Y-115384200D02*
X152205100Y-114415900D01*
X150752200Y-117400700D02*
X151236800Y-116916100D01*
X162107000Y-112507000D02*
X174239000Y-112507000D01*
X160582900Y-104952500D02*
X173046600Y-104952500D01*
X174239000Y-104887000D02*
X173112100Y-104887000D01*
X149350300Y-121702800D02*
X151204100Y-119849000D01*
X151204100Y-119849000D02*
X151204100Y-117908300D01*
X152960400Y-116392400D02*
X154736500Y-114616300D01*
X149350300Y-128029700D02*
X149350300Y-121702800D01*
X151204100Y-117908300D02*
X152156500Y-116955900D01*
X152390000Y-116392400D02*
X152960400Y-116392400D01*
X146253100Y-137759600D02*
X146253100Y-131126900D01*
X173046600Y-104952500D02*
X173112100Y-104887000D01*
X154736500Y-114616300D02*
X156225800Y-114616300D01*
X146253100Y-131126900D02*
X149350300Y-128029700D01*
X152390000Y-116392400D02*
X152390000Y-116955900D01*
X152156500Y-116955900D02*
X152390000Y-116955900D01*
X159478900Y-116177000D02*
X156461600Y-116177000D01*
X156096800Y-115812200D02*
X155343700Y-115812200D01*
X155343700Y-115812200D02*
X153516900Y-117639000D01*
X152390000Y-118369000D02*
X152390000Y-119495900D01*
X149802200Y-121890000D02*
X152196300Y-119495900D01*
X167241200Y-113952700D02*
X161703200Y-113952700D01*
X148253100Y-129766000D02*
X149802200Y-128216900D01*
X153516900Y-117639000D02*
X153516900Y-118369000D01*
X152196300Y-119495900D02*
X152390000Y-119495900D01*
X161703200Y-113952700D02*
X159478900Y-116177000D01*
X149802200Y-128216900D02*
X149802200Y-121890000D01*
X148253100Y-137759600D02*
X148253100Y-129766000D01*
X152390000Y-118369000D02*
X153516900Y-118369000D01*
X156461600Y-116177000D02*
X156096800Y-115812200D01*
X150254100Y-137758600D02*
X150254100Y-123991200D01*
X152390000Y-120909000D02*
X152390000Y-122035900D01*
X149314800Y-101724200D02*
X143934800Y-101724200D01*
X149379100Y-101659900D02*
X149314800Y-101724200D01*
X158999000Y-99807000D02*
X157872100Y-99807000D01*
X152209400Y-122035900D02*
X152390000Y-122035900D01*
X157872100Y-99807000D02*
X155954900Y-101724200D01*
X150045500Y-101724200D02*
X149981200Y-101659900D01*
X143934800Y-101724200D02*
X143325000Y-102334000D01*
X155954900Y-101724200D02*
X150045500Y-101724200D01*
X149981200Y-101659900D02*
X149379100Y-101659900D01*
X150254100Y-123991200D02*
X152209400Y-122035900D01*
X155706000Y-116581100D02*
X155213900Y-116581100D01*
X154024300Y-117770700D02*
X154024300Y-121814700D01*
X152390000Y-123449000D02*
X152390000Y-124575900D01*
X152253100Y-133884900D02*
X150941800Y-132573600D01*
X152156500Y-124575900D02*
X152390000Y-124575900D01*
X154024300Y-121814700D02*
X152390000Y-123449000D01*
X150941800Y-132573600D02*
X150941800Y-125790600D01*
X155213900Y-116581100D02*
X154024300Y-117770700D01*
X150941800Y-125790600D02*
X152156500Y-124575900D01*
X154568400Y-137444300D02*
X154568400Y-130980000D01*
X158999000Y-106013900D02*
X158818400Y-106013900D01*
X154509800Y-125203500D02*
X154509800Y-118313100D01*
X158818400Y-106013900D02*
X153839100Y-110993200D01*
X153724300Y-130135900D02*
X153724300Y-125989000D01*
X158999000Y-104887000D02*
X158999000Y-106013900D01*
X153839100Y-110993200D02*
X153839100Y-111139000D01*
X152390000Y-125989000D02*
X153724300Y-125989000D01*
X153724300Y-125989000D02*
X154509800Y-125203500D01*
X154568400Y-130980000D02*
X153724300Y-130135900D01*
X154509800Y-118313100D02*
X154751200Y-118071700D01*
X156543000Y-126288900D02*
X157872100Y-124959800D01*
X162089100Y-118640600D02*
X162089100Y-118518600D01*
X159332800Y-121396900D02*
X162089100Y-118640600D01*
X156253100Y-137759600D02*
X156253100Y-131504100D01*
X157872100Y-122196200D02*
X158671400Y-121396900D01*
X158671400Y-121396900D02*
X159332800Y-121396900D01*
X157872100Y-124959800D02*
X157872100Y-122196200D01*
X156253100Y-131504100D02*
X154592700Y-129843700D01*
X158253100Y-132011100D02*
X155941100Y-129699100D01*
X143680600Y-94399300D02*
X143680600Y-93601800D01*
X147165900Y-97884600D02*
X143680600Y-94399300D01*
X155490700Y-125704000D02*
X155965100Y-125229600D01*
X152562000Y-97884600D02*
X147165900Y-97884600D01*
X155490700Y-128611900D02*
X155490700Y-125704000D01*
X143680600Y-93601800D02*
X139089700Y-89010900D01*
X155863900Y-104056800D02*
X156927200Y-105120100D01*
X153765000Y-104056800D02*
X155863900Y-104056800D01*
X158253100Y-137759600D02*
X158253100Y-132011100D01*
X153765000Y-99087600D02*
X152562000Y-97884600D01*
X155941100Y-129062300D02*
X155490700Y-128611900D01*
X155965100Y-125229600D02*
X155965100Y-118857500D01*
X155941100Y-129699100D02*
X155941100Y-129062300D01*
X137663000Y-87884000D02*
X137663000Y-89010900D01*
X155965100Y-118857500D02*
X157325100Y-117497500D01*
X139089700Y-89010900D02*
X137663000Y-89010900D01*
X152239600Y-90427300D02*
X157666200Y-95853900D01*
X158999000Y-112507000D02*
X158999000Y-111380100D01*
X160929600Y-129764700D02*
X160929600Y-128767300D01*
X158999000Y-111380100D02*
X159232500Y-111380100D01*
X160413600Y-110199000D02*
X160413600Y-108832300D01*
X162921900Y-120438300D02*
X162966200Y-120438300D01*
X161462200Y-132923800D02*
X160253100Y-134132900D01*
X140755600Y-87508900D02*
X143674000Y-90427300D01*
X161628800Y-95853900D02*
X162639200Y-96864300D01*
X160703500Y-123328800D02*
X161879700Y-122152600D01*
X157666200Y-95853900D02*
X161628800Y-95853900D01*
X160703500Y-128541200D02*
X160703500Y-123328800D01*
X161462200Y-132923800D02*
X161462200Y-130297300D01*
X160413600Y-108832300D02*
X161459500Y-107786400D01*
X161879700Y-121480500D02*
X162921900Y-120438300D01*
X161462200Y-130297300D02*
X160929600Y-129764700D01*
X160929600Y-128767300D02*
X160703500Y-128541200D01*
X143674000Y-90427300D02*
X152239600Y-90427300D01*
X159232500Y-111380100D02*
X160413600Y-110199000D01*
X161879700Y-122152600D02*
X161879700Y-121480500D01*
X156689000Y-113863900D02*
X154098600Y-113863900D01*
X154098600Y-113863900D02*
X153265600Y-114696900D01*
X157872100Y-115047000D02*
X156689000Y-113863900D01*
X140374600Y-91298400D02*
X140374600Y-95682000D01*
X158999000Y-115047000D02*
X157872100Y-115047000D01*
X162299800Y-122763500D02*
X162606600Y-122456700D01*
X162253100Y-132894900D02*
X163287700Y-131860300D01*
X162253100Y-137759600D02*
X162253100Y-132894900D01*
X163287700Y-131860300D02*
X163287700Y-129777100D01*
X139357600Y-90281400D02*
X140374600Y-91298400D01*
X139285400Y-90281400D02*
X139357600Y-90281400D01*
X162299800Y-128789200D02*
X162299800Y-122763500D01*
X140374600Y-95682000D02*
X140253900Y-95802700D01*
X163287700Y-129777100D02*
X162299800Y-128789200D01*
X162606600Y-122456700D02*
X162606600Y-121781500D01*
X164253100Y-137759600D02*
X164253100Y-133180900D01*
X150379500Y-87928100D02*
X156010600Y-93559200D01*
X160125900Y-117587000D02*
X160125900Y-116607100D01*
X137663000Y-80264000D02*
X144187700Y-80264000D01*
X150171800Y-87928100D02*
X150379500Y-87928100D01*
X156010600Y-93559200D02*
X162216200Y-93559200D01*
X144187700Y-80264000D02*
X145993800Y-82070100D01*
X160125900Y-116607100D02*
X161999000Y-114734000D01*
X164253100Y-133180900D02*
X165669500Y-131764500D01*
X165669500Y-131764500D02*
X165669500Y-128452800D01*
X162216200Y-93559200D02*
X162667000Y-94010000D01*
X158999000Y-117587000D02*
X160125900Y-117587000D01*
X167935200Y-89996700D02*
X170170100Y-89996700D01*
X160125900Y-94727000D02*
X160135800Y-94736900D01*
X163195000Y-94736900D02*
X167935200Y-89996700D01*
X160135800Y-94736900D02*
X163195000Y-94736900D01*
X158999000Y-94727000D02*
X160125900Y-94727000D01*
X170527100Y-90353700D02*
X170527100Y-91186000D01*
X171704000Y-91186000D02*
X170527100Y-91186000D01*
X170170100Y-89996700D02*
X170527100Y-90353700D01*
X174239000Y-109967000D02*
X173112100Y-109967000D01*
X145003500Y-117242100D02*
X144770000Y-117242100D01*
X146081900Y-116163700D02*
X145003500Y-117242100D01*
X146356000Y-112145500D02*
X146081900Y-112419600D01*
X151914000Y-106837900D02*
X156901700Y-106837900D01*
X144770000Y-118369000D02*
X144770000Y-117242100D01*
X173112100Y-109967000D02*
X172092500Y-108947400D01*
X148375600Y-110376300D02*
X151914000Y-106837900D01*
X146081900Y-112419600D02*
X146081900Y-116163700D01*
X156901700Y-106837900D02*
X157165600Y-106574000D01*
X172092500Y-108947400D02*
X161500400Y-108947400D01*
X161290000Y-62484000D02*
X161290000Y-63610900D01*
X162194200Y-64515100D02*
X161290000Y-63610900D01*
X159779400Y-77391200D02*
X162703100Y-74467500D01*
X162703100Y-74467500D02*
X162703100Y-74234000D01*
X145117000Y-74625200D02*
X145146800Y-74625200D01*
X162194200Y-64597400D02*
X162194200Y-64515100D01*
X163830000Y-74234000D02*
X162703100Y-74234000D01*
X153229600Y-77391200D02*
X159779400Y-77391200D01*
X142390100Y-71898300D02*
X145117000Y-74625200D01*
X131856000Y-122174000D02*
X135112800Y-125430800D01*
X135112800Y-125430800D02*
X137099600Y-123444000D01*
X135112800Y-125430800D02*
X135112800Y-126396300D01*
X134620000Y-128016000D02*
X134620000Y-126889100D01*
X135112800Y-126396300D02*
X134620000Y-126889100D01*
X127000000Y-128016000D02*
X127000000Y-124430000D01*
X127000000Y-124430000D02*
X129256000Y-122174000D01*
X158737900Y-68292900D02*
X160020000Y-67010800D01*
X137663000Y-113284000D02*
X140970000Y-113284000D01*
X160020000Y-65810800D02*
X160716600Y-65114200D01*
X160020000Y-67010800D02*
X160020000Y-65810800D01*
X152919900Y-68292900D02*
X158737900Y-68292900D01*
X145860600Y-75352200D02*
X152919900Y-68292900D01*
X142559900Y-103129000D02*
X142554900Y-103124000D01*
X141478000Y-103124000D02*
X142554900Y-103124000D01*
X144770000Y-103129000D02*
X142559900Y-103129000D01*
X141161200Y-118310900D02*
X141022100Y-118310900D01*
X138789900Y-118364000D02*
X138965000Y-118188900D01*
X144770000Y-115829000D02*
X143643100Y-115829000D01*
X138965000Y-118188900D02*
X139568200Y-118188900D01*
X137663000Y-118364000D02*
X138789900Y-118364000D01*
X143643100Y-115829000D02*
X141161200Y-118310900D01*
X145896900Y-120909000D02*
X146442200Y-120363700D01*
X135650000Y-122075700D02*
X138901000Y-122075700D01*
X134668500Y-121094200D02*
X135650000Y-122075700D01*
X127100100Y-121094200D02*
X134668500Y-121094200D01*
X144770000Y-120909000D02*
X143643100Y-120909000D01*
X138901000Y-122075700D02*
X140010400Y-120966300D01*
X146442200Y-117675300D02*
X147811900Y-116305600D01*
X148067800Y-113459700D02*
X151905400Y-109622100D01*
X142740700Y-122335400D02*
X142740700Y-121811400D01*
X153607800Y-109622100D02*
X154291000Y-108938900D01*
X147811900Y-116305600D02*
X147811900Y-115666500D01*
X144770000Y-120909000D02*
X145896900Y-120909000D01*
X142740700Y-121811400D02*
X143643100Y-120909000D01*
X126150500Y-122043800D02*
X127100100Y-121094200D01*
X146442200Y-120363700D02*
X146442200Y-117675300D01*
X147811900Y-115666500D02*
X148067800Y-115410600D01*
X148067800Y-115410600D02*
X148067800Y-113459700D01*
X151905400Y-109622100D02*
X153607800Y-109622100D01*
X122423000Y-120904000D02*
X123549900Y-120904000D01*
X138789900Y-108421000D02*
X139206000Y-108004900D01*
X145277600Y-109622100D02*
X150992300Y-103907400D01*
X123549900Y-120904000D02*
X135123000Y-109330900D01*
X141228900Y-108004900D02*
X141557600Y-108333600D01*
X144770000Y-110749000D02*
X144770000Y-109622100D01*
X144770000Y-109622100D02*
X145277600Y-109622100D01*
X139206000Y-108004900D02*
X141228900Y-108004900D01*
X135123000Y-109330900D02*
X138129800Y-109330900D01*
X138789900Y-108670800D02*
X138789900Y-108421000D01*
X138129800Y-109330900D02*
X138789900Y-108670800D01*
X144446300Y-106939000D02*
X146783000Y-106939000D01*
X143643100Y-108390000D02*
X143643100Y-107742200D01*
X143188300Y-108844800D02*
X143643100Y-108390000D01*
X143188300Y-111996400D02*
X143188300Y-108844800D01*
X143077300Y-112107400D02*
X143188300Y-111996400D01*
X146783000Y-106939000D02*
X149890500Y-103831500D01*
X143643100Y-107742200D02*
X144446300Y-106939000D01*
X139527000Y-96125200D02*
X139231100Y-96421100D01*
X139613200Y-92836300D02*
X139527000Y-92922500D01*
X139164100Y-109100500D02*
X139532700Y-108731900D01*
X139164100Y-110840500D02*
X139164100Y-109100500D01*
X139527000Y-92922500D02*
X139527000Y-96125200D01*
G04 #@! TA.AperFunction,Conductor*
G36*
X127116086Y-51780102D02*
G01*
X127162579Y-51833758D01*
X127172683Y-51904032D01*
X127143189Y-51968612D01*
X127122026Y-51988036D01*
X126960703Y-52105244D01*
X126787248Y-52278699D01*
X126696171Y-52404055D01*
X126639948Y-52447408D01*
X126569212Y-52453483D01*
X126506420Y-52420351D01*
X126505140Y-52419088D01*
X126491296Y-52405244D01*
X126292832Y-52261051D01*
X126074263Y-52149685D01*
X126074258Y-52149683D01*
X126074256Y-52149682D01*
X125996487Y-52124413D01*
X125840952Y-52073876D01*
X125744032Y-52058525D01*
X125598657Y-52035500D01*
X125353343Y-52035500D01*
X125232196Y-52054688D01*
X125111047Y-52073876D01*
X124877744Y-52149682D01*
X124877736Y-52149685D01*
X124659167Y-52261051D01*
X124460703Y-52405244D01*
X124287244Y-52578703D01*
X124143051Y-52777167D01*
X124031685Y-52995736D01*
X124031682Y-52995744D01*
X123955876Y-53229047D01*
X123955876Y-53229050D01*
X123917500Y-53471343D01*
X123917500Y-53716657D01*
X123941144Y-53865936D01*
X123955876Y-53958952D01*
X123972971Y-54011564D01*
X124028415Y-54182202D01*
X124031682Y-54192255D01*
X124031685Y-54192263D01*
X124143051Y-54410832D01*
X124287244Y-54609296D01*
X124460703Y-54782755D01*
X124460706Y-54782757D01*
X124659168Y-54926949D01*
X124877744Y-55038318D01*
X125111050Y-55114124D01*
X125353343Y-55152500D01*
X125353346Y-55152500D01*
X125598654Y-55152500D01*
X125598657Y-55152500D01*
X125840950Y-55114124D01*
X126074256Y-55038318D01*
X126292832Y-54926949D01*
X126491294Y-54782757D01*
X126664757Y-54609294D01*
X126755830Y-54483943D01*
X126812050Y-54440591D01*
X126882786Y-54434516D01*
X126945578Y-54467647D01*
X126946859Y-54468911D01*
X126960703Y-54482755D01*
X126960706Y-54482757D01*
X127159168Y-54626949D01*
X127377744Y-54738318D01*
X127611050Y-54814124D01*
X127853343Y-54852500D01*
X127853346Y-54852500D01*
X128098654Y-54852500D01*
X128098657Y-54852500D01*
X128340950Y-54814124D01*
X128574256Y-54738318D01*
X128792832Y-54626949D01*
X128991294Y-54482757D01*
X129164757Y-54309294D01*
X129308949Y-54110832D01*
X129420318Y-53892256D01*
X129496124Y-53658950D01*
X129534500Y-53416657D01*
X129534500Y-53171343D01*
X129496124Y-52929050D01*
X129420318Y-52695744D01*
X129308949Y-52477168D01*
X129164757Y-52278706D01*
X129164755Y-52278703D01*
X128991296Y-52105244D01*
X128829974Y-51988036D01*
X128786620Y-51931813D01*
X128780545Y-51861077D01*
X128813677Y-51798285D01*
X128875497Y-51763374D01*
X128904035Y-51760100D01*
X132047965Y-51760100D01*
X132116086Y-51780102D01*
X132162579Y-51833758D01*
X132172683Y-51904032D01*
X132143189Y-51968612D01*
X132122026Y-51988036D01*
X131960703Y-52105244D01*
X131787244Y-52278703D01*
X131643051Y-52477167D01*
X131531685Y-52695736D01*
X131531682Y-52695744D01*
X131455876Y-52929047D01*
X131436688Y-53050196D01*
X131417500Y-53171343D01*
X131417500Y-53416657D01*
X131426162Y-53471343D01*
X131455876Y-53658952D01*
X131483794Y-53744873D01*
X131523129Y-53865934D01*
X131531682Y-53892255D01*
X131531685Y-53892263D01*
X131643051Y-54110832D01*
X131787244Y-54309296D01*
X131960703Y-54482755D01*
X131960706Y-54482757D01*
X132159168Y-54626949D01*
X132377744Y-54738318D01*
X132611050Y-54814124D01*
X132853343Y-54852500D01*
X132853346Y-54852500D01*
X133098654Y-54852500D01*
X133098657Y-54852500D01*
X133340950Y-54814124D01*
X133574256Y-54738318D01*
X133792832Y-54626949D01*
X133991294Y-54482757D01*
X134005138Y-54468911D01*
X134067448Y-54434886D01*
X134138264Y-54439949D01*
X134195101Y-54482494D01*
X134196171Y-54483945D01*
X134287244Y-54609296D01*
X134460703Y-54782755D01*
X134460706Y-54782757D01*
X134659168Y-54926949D01*
X134877744Y-55038318D01*
X135111050Y-55114124D01*
X135353343Y-55152500D01*
X135353346Y-55152500D01*
X135598654Y-55152500D01*
X135598657Y-55152500D01*
X135840950Y-55114124D01*
X136074256Y-55038318D01*
X136292832Y-54926949D01*
X136491294Y-54782757D01*
X136664757Y-54609294D01*
X136808949Y-54410832D01*
X136920318Y-54192256D01*
X136996124Y-53958950D01*
X137034500Y-53716657D01*
X137034500Y-53471343D01*
X136996124Y-53229050D01*
X136920318Y-52995744D01*
X136808949Y-52777168D01*
X136664757Y-52578706D01*
X136664755Y-52578703D01*
X136491296Y-52405244D01*
X136292832Y-52261051D01*
X136074263Y-52149685D01*
X136074258Y-52149683D01*
X136074256Y-52149682D01*
X135996487Y-52124413D01*
X135840952Y-52073876D01*
X135744032Y-52058525D01*
X135598657Y-52035500D01*
X135353343Y-52035500D01*
X135232196Y-52054688D01*
X135111047Y-52073876D01*
X134877744Y-52149682D01*
X134877736Y-52149685D01*
X134659167Y-52261051D01*
X134460704Y-52405244D01*
X134446857Y-52419091D01*
X134384544Y-52453114D01*
X134313728Y-52448047D01*
X134256894Y-52405499D01*
X134255828Y-52404054D01*
X134164755Y-52278703D01*
X133991296Y-52105244D01*
X133829974Y-51988036D01*
X133786620Y-51931813D01*
X133780545Y-51861077D01*
X133813677Y-51798285D01*
X133875497Y-51763374D01*
X133904035Y-51760100D01*
X176126600Y-51760100D01*
X176194721Y-51780102D01*
X176241214Y-51833758D01*
X176252600Y-51886100D01*
X176252600Y-131954000D01*
X176232598Y-132022121D01*
X176178942Y-132068614D01*
X176126600Y-132080000D01*
X166406185Y-132080000D01*
X166338064Y-132059998D01*
X166291571Y-132006342D01*
X166281467Y-131936068D01*
X166282601Y-131929446D01*
X166303000Y-131826894D01*
X166303000Y-131702106D01*
X166303000Y-129156303D01*
X166323002Y-129088182D01*
X166339905Y-129067208D01*
X166351613Y-129055500D01*
X166375178Y-129031935D01*
X166474602Y-128883136D01*
X166539988Y-128725280D01*
X166584537Y-128670001D01*
X166651900Y-128647580D01*
X166720692Y-128665138D01*
X166745492Y-128684405D01*
X166778465Y-128717378D01*
X166927264Y-128816802D01*
X167092600Y-128885287D01*
X167268121Y-128920200D01*
X167268122Y-128920200D01*
X167447078Y-128920200D01*
X167447079Y-128920200D01*
X167622600Y-128885287D01*
X167787936Y-128816802D01*
X167936735Y-128717378D01*
X168063278Y-128590835D01*
X168162702Y-128442036D01*
X168231187Y-128276700D01*
X168266100Y-128101179D01*
X168266100Y-127922221D01*
X168231187Y-127746700D01*
X168162702Y-127581364D01*
X168063278Y-127432565D01*
X167936735Y-127306022D01*
X167787936Y-127206598D01*
X167671029Y-127158173D01*
X167622603Y-127138114D01*
X167622601Y-127138113D01*
X167622600Y-127138113D01*
X167515175Y-127116745D01*
X167447081Y-127103200D01*
X167447079Y-127103200D01*
X167268121Y-127103200D01*
X167268118Y-127103200D01*
X167268112Y-127103201D01*
X167252881Y-127106230D01*
X167203726Y-127106229D01*
X167134201Y-127092400D01*
X167134194Y-127092400D01*
X165699259Y-127092400D01*
X165631138Y-127072398D01*
X165584645Y-127018742D01*
X165574541Y-126948468D01*
X165604035Y-126883888D01*
X165651040Y-126849991D01*
X165743236Y-126811802D01*
X165892035Y-126712378D01*
X166018578Y-126585835D01*
X166118002Y-126437036D01*
X166186487Y-126271700D01*
X166221400Y-126096179D01*
X166221400Y-126046294D01*
X166241402Y-125978173D01*
X166258300Y-125957203D01*
X166607609Y-125607893D01*
X166669920Y-125573870D01*
X166740735Y-125578934D01*
X166797571Y-125621481D01*
X166813111Y-125648770D01*
X166827097Y-125682534D01*
X166827097Y-125682535D01*
X166827098Y-125682536D01*
X166926522Y-125831335D01*
X167053065Y-125957878D01*
X167201864Y-126057302D01*
X167367200Y-126125787D01*
X167542721Y-126160700D01*
X167592606Y-126160700D01*
X167660727Y-126180702D01*
X167681701Y-126197605D01*
X170841895Y-129357799D01*
X170875921Y-129420111D01*
X170878800Y-129446894D01*
X170878800Y-129496781D01*
X170896138Y-129583945D01*
X170913713Y-129672300D01*
X170982198Y-129837636D01*
X171081622Y-129986435D01*
X171208165Y-130112978D01*
X171356964Y-130212402D01*
X171522300Y-130280887D01*
X171697821Y-130315800D01*
X171697822Y-130315800D01*
X171876778Y-130315800D01*
X171876779Y-130315800D01*
X172052300Y-130280887D01*
X172217636Y-130212402D01*
X172366435Y-130112978D01*
X172492978Y-129986435D01*
X172592402Y-129837636D01*
X172660887Y-129672300D01*
X172695800Y-129496779D01*
X172695800Y-129317821D01*
X172660887Y-129142300D01*
X172592402Y-128976964D01*
X172492978Y-128828165D01*
X172366435Y-128701622D01*
X172217636Y-128602198D01*
X172072980Y-128542279D01*
X172052303Y-128533714D01*
X172052301Y-128533713D01*
X172052300Y-128533713D01*
X171961973Y-128515746D01*
X171876781Y-128498800D01*
X171876779Y-128498800D01*
X171826895Y-128498800D01*
X171758774Y-128478798D01*
X171737800Y-128461895D01*
X168577605Y-125301700D01*
X168543579Y-125239388D01*
X168540700Y-125212605D01*
X168540700Y-125162722D01*
X168540699Y-125162718D01*
X168535498Y-125136570D01*
X168505787Y-124987200D01*
X168437302Y-124821864D01*
X168337878Y-124673065D01*
X168211335Y-124546522D01*
X168062536Y-124447098D01*
X168028768Y-124433111D01*
X167973490Y-124388563D01*
X167951069Y-124321200D01*
X167968627Y-124252409D01*
X167987886Y-124227616D01*
X168878101Y-123337402D01*
X168940411Y-123303379D01*
X168967194Y-123300500D01*
X173017670Y-123300500D01*
X173085791Y-123320502D01*
X173119606Y-123352439D01*
X173145453Y-123388014D01*
X173240932Y-123519430D01*
X173240934Y-123519432D01*
X173240936Y-123519435D01*
X173386564Y-123665063D01*
X173386567Y-123665065D01*
X173386570Y-123665068D01*
X173553197Y-123786129D01*
X173628962Y-123824733D01*
X173680577Y-123873482D01*
X173697643Y-123942397D01*
X173674742Y-124009598D01*
X173628963Y-124049266D01*
X173592000Y-124068100D01*
X173553193Y-124087873D01*
X173386567Y-124208934D01*
X173386564Y-124208936D01*
X173240936Y-124354564D01*
X173240934Y-124354567D01*
X173119873Y-124521193D01*
X173026367Y-124704708D01*
X173026364Y-124704714D01*
X172962721Y-124900587D01*
X172962720Y-124900590D01*
X172962720Y-124900592D01*
X172930500Y-125104019D01*
X172930500Y-125309981D01*
X172958492Y-125486714D01*
X172962721Y-125513412D01*
X173017689Y-125682587D01*
X173026366Y-125709290D01*
X173119871Y-125892803D01*
X173240932Y-126059430D01*
X173240934Y-126059432D01*
X173240936Y-126059435D01*
X173386564Y-126205063D01*
X173386567Y-126205065D01*
X173386570Y-126205068D01*
X173553197Y-126326129D01*
X173628962Y-126364733D01*
X173680577Y-126413482D01*
X173697643Y-126482397D01*
X173674742Y-126549598D01*
X173628963Y-126589266D01*
X173576287Y-126616106D01*
X173553193Y-126627873D01*
X173386567Y-126748934D01*
X173386564Y-126748936D01*
X173240936Y-126894564D01*
X173240934Y-126894567D01*
X173119873Y-127061193D01*
X173026367Y-127244708D01*
X173026364Y-127244714D01*
X172962721Y-127440587D01*
X172962720Y-127440590D01*
X172962720Y-127440592D01*
X172930500Y-127644019D01*
X172930500Y-127849981D01*
X172962720Y-128053408D01*
X172962721Y-128053412D01*
X173025825Y-128247627D01*
X173026366Y-128249290D01*
X173119871Y-128432803D01*
X173240932Y-128599430D01*
X173240934Y-128599432D01*
X173240936Y-128599435D01*
X173386564Y-128745063D01*
X173386567Y-128745065D01*
X173386570Y-128745068D01*
X173553197Y-128866129D01*
X173736710Y-128959634D01*
X173932592Y-129023280D01*
X174136019Y-129055500D01*
X174136022Y-129055500D01*
X174341978Y-129055500D01*
X174341981Y-129055500D01*
X174545408Y-129023280D01*
X174741290Y-128959634D01*
X174924803Y-128866129D01*
X175091430Y-128745068D01*
X175237068Y-128599430D01*
X175358129Y-128432803D01*
X175451634Y-128249290D01*
X175515280Y-128053408D01*
X175547500Y-127849981D01*
X175547500Y-127644019D01*
X175515280Y-127440592D01*
X175451634Y-127244710D01*
X175358129Y-127061197D01*
X175237068Y-126894570D01*
X175237065Y-126894567D01*
X175237063Y-126894564D01*
X175091435Y-126748936D01*
X175091432Y-126748934D01*
X175091430Y-126748932D01*
X174965999Y-126657802D01*
X174924806Y-126627873D01*
X174924805Y-126627872D01*
X174924803Y-126627871D01*
X174849034Y-126589265D01*
X174797422Y-126540519D01*
X174780356Y-126471604D01*
X174803257Y-126404402D01*
X174849034Y-126364735D01*
X174924803Y-126326129D01*
X175091430Y-126205068D01*
X175237068Y-126059430D01*
X175358129Y-125892803D01*
X175451634Y-125709290D01*
X175515280Y-125513408D01*
X175547500Y-125309981D01*
X175547500Y-125104019D01*
X175515280Y-124900592D01*
X175451634Y-124704710D01*
X175358129Y-124521197D01*
X175237068Y-124354570D01*
X175237065Y-124354567D01*
X175237063Y-124354564D01*
X175091435Y-124208936D01*
X175091432Y-124208934D01*
X175091430Y-124208932D01*
X174924803Y-124087871D01*
X174849034Y-124049265D01*
X174797422Y-124000519D01*
X174780356Y-123931604D01*
X174803257Y-123864402D01*
X174849034Y-123824735D01*
X174924803Y-123786129D01*
X175091430Y-123665068D01*
X175237068Y-123519430D01*
X175358129Y-123352803D01*
X175451634Y-123169290D01*
X175515280Y-122973408D01*
X175547500Y-122769981D01*
X175547500Y-122564019D01*
X175515280Y-122360592D01*
X175451634Y-122164710D01*
X175358129Y-121981197D01*
X175237068Y-121814570D01*
X175237065Y-121814567D01*
X175237063Y-121814564D01*
X175091435Y-121668936D01*
X175091432Y-121668934D01*
X175091430Y-121668932D01*
X174924803Y-121547871D01*
X174849034Y-121509265D01*
X174797422Y-121460519D01*
X174780356Y-121391604D01*
X174803257Y-121324402D01*
X174849034Y-121284735D01*
X174924803Y-121246129D01*
X175091430Y-121125068D01*
X175237068Y-120979430D01*
X175358129Y-120812803D01*
X175451634Y-120629290D01*
X175515280Y-120433408D01*
X175547500Y-120229981D01*
X175547500Y-120024019D01*
X175515280Y-119820592D01*
X175451634Y-119624710D01*
X175358129Y-119441197D01*
X175237068Y-119274570D01*
X175237065Y-119274567D01*
X175237063Y-119274564D01*
X175091435Y-119128936D01*
X175091432Y-119128934D01*
X175091430Y-119128932D01*
X174924803Y-119007871D01*
X174849034Y-118969265D01*
X174797422Y-118920519D01*
X174780356Y-118851604D01*
X174803257Y-118784402D01*
X174849034Y-118744735D01*
X174924803Y-118706129D01*
X175091430Y-118585068D01*
X175237068Y-118439430D01*
X175358129Y-118272803D01*
X175451634Y-118089290D01*
X175515280Y-117893408D01*
X175547500Y-117689981D01*
X175547500Y-117484019D01*
X175515280Y-117280592D01*
X175451634Y-117084710D01*
X175358129Y-116901197D01*
X175237068Y-116734570D01*
X175237065Y-116734567D01*
X175237063Y-116734564D01*
X175091435Y-116588936D01*
X175091432Y-116588934D01*
X175091430Y-116588932D01*
X174924803Y-116467871D01*
X174849034Y-116429265D01*
X174797422Y-116380519D01*
X174780356Y-116311604D01*
X174803257Y-116244402D01*
X174849034Y-116204735D01*
X174924803Y-116166129D01*
X175091430Y-116045068D01*
X175237068Y-115899430D01*
X175358129Y-115732803D01*
X175451634Y-115549290D01*
X175515280Y-115353408D01*
X175547500Y-115149981D01*
X175547500Y-114944019D01*
X175515280Y-114740592D01*
X175451634Y-114544710D01*
X175358129Y-114361197D01*
X175237068Y-114194570D01*
X175237065Y-114194567D01*
X175237063Y-114194564D01*
X175091435Y-114048936D01*
X175091432Y-114048934D01*
X175091430Y-114048932D01*
X174924803Y-113927871D01*
X174849034Y-113889265D01*
X174797422Y-113840519D01*
X174780356Y-113771604D01*
X174803257Y-113704402D01*
X174849034Y-113664735D01*
X174924803Y-113626129D01*
X175091430Y-113505068D01*
X175237068Y-113359430D01*
X175358129Y-113192803D01*
X175451634Y-113009290D01*
X175515280Y-112813408D01*
X175547500Y-112609981D01*
X175547500Y-112404019D01*
X175515280Y-112200592D01*
X175451634Y-112004710D01*
X175358129Y-111821197D01*
X175237068Y-111654570D01*
X175237065Y-111654567D01*
X175237063Y-111654564D01*
X175091435Y-111508936D01*
X175091432Y-111508934D01*
X175091430Y-111508932D01*
X174924803Y-111387871D01*
X174849034Y-111349265D01*
X174797422Y-111300519D01*
X174780356Y-111231604D01*
X174803257Y-111164402D01*
X174849034Y-111124735D01*
X174924803Y-111086129D01*
X175091430Y-110965068D01*
X175237068Y-110819430D01*
X175358129Y-110652803D01*
X175451634Y-110469290D01*
X175515280Y-110273408D01*
X175547500Y-110069981D01*
X175547500Y-109864019D01*
X175515280Y-109660592D01*
X175451634Y-109464710D01*
X175358129Y-109281197D01*
X175237068Y-109114570D01*
X175237065Y-109114567D01*
X175237063Y-109114564D01*
X175091435Y-108968936D01*
X175091432Y-108968934D01*
X175091430Y-108968932D01*
X174924803Y-108847871D01*
X174849034Y-108809265D01*
X174797422Y-108760519D01*
X174780356Y-108691604D01*
X174803257Y-108624402D01*
X174849034Y-108584735D01*
X174924803Y-108546129D01*
X175091430Y-108425068D01*
X175237068Y-108279430D01*
X175358129Y-108112803D01*
X175451634Y-107929290D01*
X175515280Y-107733408D01*
X175547500Y-107529981D01*
X175547500Y-107324019D01*
X175515280Y-107120592D01*
X175451634Y-106924710D01*
X175358129Y-106741197D01*
X175237068Y-106574570D01*
X175237065Y-106574567D01*
X175237063Y-106574564D01*
X175091435Y-106428936D01*
X175091432Y-106428934D01*
X175091430Y-106428932D01*
X174924803Y-106307871D01*
X174849034Y-106269265D01*
X174797422Y-106220519D01*
X174780356Y-106151604D01*
X174803257Y-106084402D01*
X174849034Y-106044735D01*
X174924803Y-106006129D01*
X175091430Y-105885068D01*
X175237068Y-105739430D01*
X175358129Y-105572803D01*
X175451634Y-105389290D01*
X175515280Y-105193408D01*
X175547500Y-104989981D01*
X175547500Y-104784019D01*
X175515280Y-104580592D01*
X175451634Y-104384710D01*
X175358129Y-104201197D01*
X175237068Y-104034570D01*
X175237065Y-104034567D01*
X175237063Y-104034564D01*
X175091435Y-103888936D01*
X175091432Y-103888934D01*
X175091430Y-103888932D01*
X174924803Y-103767871D01*
X174849034Y-103729265D01*
X174797422Y-103680519D01*
X174780356Y-103611604D01*
X174803257Y-103544402D01*
X174849034Y-103504735D01*
X174924803Y-103466129D01*
X175091430Y-103345068D01*
X175237068Y-103199430D01*
X175358129Y-103032803D01*
X175451634Y-102849290D01*
X175515280Y-102653408D01*
X175547500Y-102449981D01*
X175547500Y-102244019D01*
X175515280Y-102040592D01*
X175451634Y-101844710D01*
X175358129Y-101661197D01*
X175237068Y-101494570D01*
X175237065Y-101494567D01*
X175237063Y-101494564D01*
X175091435Y-101348936D01*
X175091432Y-101348934D01*
X175091430Y-101348932D01*
X174924803Y-101227871D01*
X174849034Y-101189265D01*
X174797422Y-101140519D01*
X174780356Y-101071604D01*
X174803257Y-101004402D01*
X174849034Y-100964735D01*
X174924803Y-100926129D01*
X175091430Y-100805068D01*
X175237068Y-100659430D01*
X175358129Y-100492803D01*
X175451634Y-100309290D01*
X175515280Y-100113408D01*
X175547500Y-99909981D01*
X175547500Y-99704019D01*
X175515280Y-99500592D01*
X175451634Y-99304710D01*
X175358129Y-99121197D01*
X175237068Y-98954570D01*
X175237065Y-98954567D01*
X175237063Y-98954564D01*
X175091435Y-98808936D01*
X175091432Y-98808934D01*
X175091430Y-98808932D01*
X174924803Y-98687871D01*
X174849034Y-98649265D01*
X174797422Y-98600519D01*
X174780356Y-98531604D01*
X174803257Y-98464402D01*
X174849034Y-98424735D01*
X174924803Y-98386129D01*
X175091430Y-98265068D01*
X175237068Y-98119430D01*
X175358129Y-97952803D01*
X175451634Y-97769290D01*
X175515280Y-97573408D01*
X175547500Y-97369981D01*
X175547500Y-97164019D01*
X175515280Y-96960592D01*
X175451634Y-96764710D01*
X175358129Y-96581197D01*
X175237068Y-96414570D01*
X175237065Y-96414567D01*
X175237063Y-96414564D01*
X175091435Y-96268936D01*
X175091432Y-96268934D01*
X175091430Y-96268932D01*
X174939601Y-96158622D01*
X174924806Y-96147873D01*
X174924805Y-96147872D01*
X174924803Y-96147871D01*
X174849034Y-96109265D01*
X174797422Y-96060519D01*
X174780356Y-95991604D01*
X174803257Y-95924402D01*
X174849034Y-95884735D01*
X174924803Y-95846129D01*
X175091430Y-95725068D01*
X175237068Y-95579430D01*
X175358129Y-95412803D01*
X175451634Y-95229290D01*
X175515280Y-95033408D01*
X175547500Y-94829981D01*
X175547500Y-94624019D01*
X175515280Y-94420592D01*
X175451634Y-94224710D01*
X175358129Y-94041197D01*
X175237068Y-93874570D01*
X175237065Y-93874567D01*
X175237063Y-93874564D01*
X175091435Y-93728936D01*
X175091432Y-93728934D01*
X175091430Y-93728932D01*
X174924803Y-93607871D01*
X174920798Y-93604961D01*
X174922067Y-93603214D01*
X174880490Y-93557251D01*
X174870381Y-93527055D01*
X174848155Y-93415315D01*
X174800400Y-93300025D01*
X174731071Y-93196267D01*
X174642833Y-93108029D01*
X174326005Y-92791201D01*
X174311060Y-92763832D01*
X174294204Y-92737604D01*
X174293298Y-92731305D01*
X174291979Y-92728889D01*
X174289100Y-92702106D01*
X174289100Y-92661904D01*
X174309102Y-92593783D01*
X174362758Y-92547290D01*
X174395381Y-92537457D01*
X174562116Y-92511049D01*
X174765483Y-92444972D01*
X174956009Y-92347894D01*
X175129004Y-92222206D01*
X175280206Y-92071004D01*
X175405894Y-91898009D01*
X175502972Y-91707483D01*
X175569049Y-91504116D01*
X175602500Y-91292916D01*
X175602500Y-91079084D01*
X175569049Y-90867884D01*
X175502972Y-90664517D01*
X175405894Y-90473991D01*
X175280206Y-90300996D01*
X175280203Y-90300993D01*
X175280201Y-90300990D01*
X175129009Y-90149798D01*
X175129006Y-90149796D01*
X175129004Y-90149794D01*
X174956009Y-90024106D01*
X174765483Y-89927028D01*
X174765480Y-89927027D01*
X174765478Y-89927026D01*
X174562120Y-89860952D01*
X174562123Y-89860952D01*
X174522801Y-89854724D01*
X174350916Y-89827500D01*
X174137084Y-89827500D01*
X173946145Y-89857742D01*
X173925878Y-89860952D01*
X173722521Y-89927026D01*
X173722515Y-89927029D01*
X173531987Y-90024108D01*
X173408758Y-90113639D01*
X173341890Y-90137498D01*
X173272738Y-90121417D01*
X173245602Y-90100798D01*
X171696135Y-88551331D01*
X171696133Y-88551329D01*
X171592375Y-88482000D01*
X171477085Y-88434245D01*
X171403386Y-88419585D01*
X171354696Y-88409900D01*
X171354694Y-88409900D01*
X166985094Y-88409900D01*
X166916973Y-88389898D01*
X166870480Y-88336242D01*
X166860376Y-88265968D01*
X166889870Y-88201388D01*
X166895999Y-88194805D01*
X168204872Y-86885932D01*
X169683446Y-85407357D01*
X169745756Y-85373333D01*
X169816571Y-85378398D01*
X169846595Y-85394515D01*
X169970991Y-85484894D01*
X170161517Y-85581972D01*
X170364878Y-85648047D01*
X170364879Y-85648047D01*
X170364884Y-85648049D01*
X170576084Y-85681500D01*
X170576087Y-85681500D01*
X170789913Y-85681500D01*
X170789916Y-85681500D01*
X171001116Y-85648049D01*
X171204483Y-85581972D01*
X171395009Y-85484894D01*
X171568004Y-85359206D01*
X171719206Y-85208004D01*
X171844894Y-85035009D01*
X171844899Y-85034997D01*
X171845561Y-85033920D01*
X171845924Y-85033591D01*
X171847804Y-85031004D01*
X171848347Y-85031398D01*
X171898204Y-84986283D01*
X171968244Y-84974670D01*
X172033445Y-85002766D01*
X172058021Y-85031130D01*
X172058196Y-85031004D01*
X172059668Y-85033030D01*
X172060439Y-85033920D01*
X172061108Y-85035012D01*
X172092182Y-85077781D01*
X172186794Y-85208004D01*
X172186796Y-85208006D01*
X172186798Y-85208009D01*
X172337990Y-85359201D01*
X172337993Y-85359203D01*
X172337996Y-85359206D01*
X172510991Y-85484894D01*
X172701517Y-85581972D01*
X172904878Y-85648047D01*
X172904879Y-85648047D01*
X172904884Y-85648049D01*
X173116084Y-85681500D01*
X173116087Y-85681500D01*
X173329913Y-85681500D01*
X173329916Y-85681500D01*
X173541116Y-85648049D01*
X173744483Y-85581972D01*
X173935009Y-85484894D01*
X174108004Y-85359206D01*
X174259206Y-85208004D01*
X174384894Y-85035009D01*
X174481972Y-84844483D01*
X174548049Y-84641116D01*
X174581500Y-84429916D01*
X174581500Y-84216084D01*
X174548049Y-84004884D01*
X174481972Y-83801517D01*
X174384894Y-83610991D01*
X174259206Y-83437996D01*
X174259203Y-83437993D01*
X174259201Y-83437990D01*
X174155840Y-83334629D01*
X174121814Y-83272317D01*
X174126879Y-83201502D01*
X174169426Y-83144666D01*
X174200903Y-83127478D01*
X174318965Y-83083444D01*
X174435904Y-82995904D01*
X174523444Y-82878965D01*
X174523444Y-82878964D01*
X174574494Y-82742093D01*
X174580999Y-82681597D01*
X174581000Y-82681585D01*
X174581000Y-82037000D01*
X173653703Y-82037000D01*
X173688925Y-81975993D01*
X173723000Y-81848826D01*
X173723000Y-81717174D01*
X173688925Y-81590007D01*
X173653703Y-81529000D01*
X174581000Y-81529000D01*
X174581000Y-80884414D01*
X174580999Y-80884402D01*
X174574494Y-80823906D01*
X174523444Y-80687035D01*
X174523444Y-80687034D01*
X174435904Y-80570095D01*
X174318965Y-80482555D01*
X174182093Y-80431505D01*
X174121597Y-80425000D01*
X173477000Y-80425000D01*
X173477000Y-81352297D01*
X173415993Y-81317075D01*
X173288826Y-81283000D01*
X173157174Y-81283000D01*
X173030007Y-81317075D01*
X172969000Y-81352297D01*
X172969000Y-80425000D01*
X172382195Y-80425000D01*
X172314074Y-80404998D01*
X172293100Y-80388095D01*
X167268846Y-75363842D01*
X167234820Y-75301530D01*
X167239885Y-75230715D01*
X167268844Y-75185653D01*
X167368068Y-75086430D01*
X167489129Y-74919803D01*
X167527734Y-74844034D01*
X167576481Y-74792422D01*
X167645396Y-74775356D01*
X167712598Y-74798257D01*
X167752264Y-74844034D01*
X167790738Y-74919541D01*
X167790873Y-74919806D01*
X167804378Y-74938394D01*
X167911932Y-75086430D01*
X167911934Y-75086432D01*
X167911936Y-75086435D01*
X168057564Y-75232063D01*
X168057567Y-75232065D01*
X168057570Y-75232068D01*
X168224197Y-75353129D01*
X168407710Y-75446634D01*
X168603592Y-75510280D01*
X168807019Y-75542500D01*
X168807022Y-75542500D01*
X169012978Y-75542500D01*
X169012981Y-75542500D01*
X169216408Y-75510280D01*
X169412290Y-75446634D01*
X169595803Y-75353129D01*
X169762430Y-75232068D01*
X169908068Y-75086430D01*
X170029129Y-74919803D01*
X170067734Y-74844034D01*
X170116481Y-74792422D01*
X170185396Y-74775356D01*
X170252598Y-74798257D01*
X170292264Y-74844034D01*
X170330738Y-74919541D01*
X170330873Y-74919806D01*
X170344378Y-74938394D01*
X170451932Y-75086430D01*
X170451934Y-75086432D01*
X170451936Y-75086435D01*
X170597564Y-75232063D01*
X170597567Y-75232065D01*
X170597570Y-75232068D01*
X170764197Y-75353129D01*
X170947710Y-75446634D01*
X171143592Y-75510280D01*
X171347019Y-75542500D01*
X171347022Y-75542500D01*
X171552978Y-75542500D01*
X171552981Y-75542500D01*
X171756408Y-75510280D01*
X171952290Y-75446634D01*
X172135803Y-75353129D01*
X172302430Y-75232068D01*
X172320594Y-75213904D01*
X172350033Y-75184466D01*
X172448063Y-75086435D01*
X172448068Y-75086430D01*
X172569129Y-74919803D01*
X172608014Y-74843486D01*
X172656759Y-74791874D01*
X172725674Y-74774807D01*
X172792876Y-74797707D01*
X172832545Y-74843487D01*
X172871294Y-74919535D01*
X172871298Y-74919541D01*
X172902416Y-74962372D01*
X173590000Y-74274788D01*
X173590000Y-74286661D01*
X173617259Y-74388394D01*
X173669920Y-74479606D01*
X173744394Y-74554080D01*
X173835606Y-74606741D01*
X173937339Y-74634000D01*
X173949210Y-74634000D01*
X173261626Y-75321582D01*
X173261626Y-75321583D01*
X173304454Y-75352699D01*
X173487900Y-75446170D01*
X173487906Y-75446173D01*
X173683705Y-75509791D01*
X173683701Y-75509791D01*
X173887061Y-75542000D01*
X174092939Y-75542000D01*
X174296296Y-75509791D01*
X174492093Y-75446173D01*
X174492099Y-75446170D01*
X174675541Y-75352701D01*
X174718372Y-75321582D01*
X174718372Y-75321581D01*
X174030791Y-74634000D01*
X174042661Y-74634000D01*
X174144394Y-74606741D01*
X174235606Y-74554080D01*
X174310080Y-74479606D01*
X174362741Y-74388394D01*
X174390000Y-74286661D01*
X174390000Y-74274791D01*
X175077581Y-74962372D01*
X175077582Y-74962372D01*
X175108701Y-74919541D01*
X175202170Y-74736099D01*
X175202173Y-74736093D01*
X175265791Y-74540296D01*
X175298000Y-74336938D01*
X175298000Y-74131061D01*
X175265791Y-73927703D01*
X175202173Y-73731906D01*
X175202170Y-73731900D01*
X175108699Y-73548454D01*
X175077583Y-73505626D01*
X175077582Y-73505626D01*
X174390000Y-74193208D01*
X174390000Y-74181339D01*
X174362741Y-74079606D01*
X174310080Y-73988394D01*
X174235606Y-73913920D01*
X174144394Y-73861259D01*
X174042661Y-73834000D01*
X174030790Y-73834000D01*
X174718372Y-73146416D01*
X174675541Y-73115298D01*
X174675540Y-73115297D01*
X174492099Y-73021829D01*
X174492093Y-73021826D01*
X174296294Y-72958208D01*
X174296298Y-72958208D01*
X174092939Y-72926000D01*
X173887061Y-72926000D01*
X173683703Y-72958208D01*
X173487906Y-73021826D01*
X173487900Y-73021829D01*
X173304452Y-73115301D01*
X173261625Y-73146416D01*
X173949209Y-73834000D01*
X173937339Y-73834000D01*
X173835606Y-73861259D01*
X173744394Y-73913920D01*
X173669920Y-73988394D01*
X173617259Y-74079606D01*
X173590000Y-74181339D01*
X173590000Y-74193209D01*
X172902416Y-73505625D01*
X172871301Y-73548453D01*
X172871299Y-73548456D01*
X172832546Y-73624512D01*
X172783798Y-73676127D01*
X172714883Y-73693192D01*
X172647681Y-73670291D01*
X172608013Y-73624511D01*
X172569127Y-73548193D01*
X172492568Y-73442819D01*
X172448068Y-73381570D01*
X172448065Y-73381567D01*
X172448063Y-73381564D01*
X172302435Y-73235936D01*
X172302432Y-73235934D01*
X172302430Y-73235932D01*
X172136391Y-73115298D01*
X172135806Y-73114873D01*
X172135805Y-73114872D01*
X172135803Y-73114871D01*
X171952290Y-73021366D01*
X171952287Y-73021365D01*
X171952285Y-73021364D01*
X171756412Y-72957721D01*
X171756410Y-72957720D01*
X171756408Y-72957720D01*
X171552981Y-72925500D01*
X171347019Y-72925500D01*
X171143592Y-72957720D01*
X171143590Y-72957720D01*
X171143587Y-72957721D01*
X170947714Y-73021364D01*
X170947708Y-73021367D01*
X170764193Y-73114873D01*
X170597567Y-73235934D01*
X170597564Y-73235936D01*
X170451936Y-73381564D01*
X170451934Y-73381567D01*
X170330873Y-73548193D01*
X170330871Y-73548197D01*
X170294793Y-73619005D01*
X170292267Y-73623962D01*
X170243518Y-73675577D01*
X170174603Y-73692643D01*
X170107402Y-73669742D01*
X170067733Y-73623962D01*
X170029129Y-73548197D01*
X169908068Y-73381570D01*
X169908065Y-73381567D01*
X169908063Y-73381564D01*
X169762435Y-73235936D01*
X169762432Y-73235934D01*
X169762430Y-73235932D01*
X169596391Y-73115298D01*
X169595806Y-73114873D01*
X169595805Y-73114872D01*
X169595803Y-73114871D01*
X169412290Y-73021366D01*
X169412287Y-73021365D01*
X169412285Y-73021364D01*
X169216412Y-72957721D01*
X169216410Y-72957720D01*
X169216408Y-72957720D01*
X169012981Y-72925500D01*
X168807019Y-72925500D01*
X168603592Y-72957720D01*
X168603590Y-72957720D01*
X168603587Y-72957721D01*
X168407714Y-73021364D01*
X168407708Y-73021367D01*
X168224193Y-73114873D01*
X168057567Y-73235934D01*
X168057564Y-73235936D01*
X167911936Y-73381564D01*
X167911934Y-73381567D01*
X167790873Y-73548193D01*
X167790871Y-73548197D01*
X167754793Y-73619005D01*
X167752267Y-73623962D01*
X167703518Y-73675577D01*
X167634603Y-73692643D01*
X167567402Y-73669742D01*
X167527733Y-73623962D01*
X167489129Y-73548197D01*
X167368068Y-73381570D01*
X167368065Y-73381567D01*
X167368063Y-73381564D01*
X167222435Y-73235936D01*
X167222432Y-73235934D01*
X167222430Y-73235932D01*
X167056391Y-73115298D01*
X167055806Y-73114873D01*
X167055805Y-73114872D01*
X167055803Y-73114871D01*
X166872290Y-73021366D01*
X166872287Y-73021365D01*
X166872285Y-73021364D01*
X166676412Y-72957721D01*
X166676410Y-72957720D01*
X166676408Y-72957720D01*
X166472981Y-72925500D01*
X166267019Y-72925500D01*
X166063592Y-72957720D01*
X166063590Y-72957720D01*
X166063587Y-72957721D01*
X165867714Y-73021364D01*
X165867708Y-73021367D01*
X165684193Y-73114873D01*
X165517567Y-73235934D01*
X165517564Y-73235936D01*
X165371936Y-73381564D01*
X165371934Y-73381567D01*
X165250873Y-73548193D01*
X165250871Y-73548197D01*
X165214793Y-73619005D01*
X165212267Y-73623962D01*
X165163518Y-73675577D01*
X165094603Y-73692643D01*
X165027402Y-73669742D01*
X164987733Y-73623962D01*
X164949129Y-73548197D01*
X164828068Y-73381570D01*
X164828065Y-73381567D01*
X164828063Y-73381564D01*
X164682435Y-73235936D01*
X164682432Y-73235934D01*
X164682430Y-73235932D01*
X164516391Y-73115298D01*
X164515806Y-73114873D01*
X164515805Y-73114872D01*
X164515803Y-73114871D01*
X164332290Y-73021366D01*
X164332287Y-73021365D01*
X164332285Y-73021364D01*
X164136412Y-72957721D01*
X164136410Y-72957720D01*
X164136408Y-72957720D01*
X163932981Y-72925500D01*
X163727019Y-72925500D01*
X163523592Y-72957720D01*
X163523590Y-72957720D01*
X163523587Y-72957721D01*
X163327714Y-73021364D01*
X163327708Y-73021367D01*
X163144193Y-73114873D01*
X162977567Y-73235934D01*
X162977564Y-73235936D01*
X162831936Y-73381564D01*
X162831934Y-73381567D01*
X162707961Y-73552202D01*
X162706223Y-73550939D01*
X162687995Y-73567412D01*
X162663876Y-73590686D01*
X162661194Y-73591632D01*
X162660194Y-73592536D01*
X162630056Y-73602618D01*
X162547675Y-73619005D01*
X162476961Y-73612677D01*
X162420893Y-73569123D01*
X162410822Y-73552621D01*
X162408698Y-73548453D01*
X162377583Y-73505626D01*
X162377582Y-73505626D01*
X161690000Y-74193209D01*
X161690000Y-74181339D01*
X161662741Y-74079606D01*
X161610080Y-73988394D01*
X161535606Y-73913920D01*
X161444394Y-73861259D01*
X161342661Y-73834000D01*
X161330790Y-73834000D01*
X162018372Y-73146416D01*
X161975541Y-73115298D01*
X161975540Y-73115297D01*
X161792099Y-73021829D01*
X161792093Y-73021826D01*
X161596294Y-72958208D01*
X161596298Y-72958208D01*
X161392939Y-72926000D01*
X161187061Y-72926000D01*
X160983703Y-72958208D01*
X160787906Y-73021826D01*
X160787900Y-73021829D01*
X160604452Y-73115301D01*
X160561625Y-73146416D01*
X161249209Y-73834000D01*
X161237339Y-73834000D01*
X161135606Y-73861259D01*
X161044394Y-73913920D01*
X160969920Y-73988394D01*
X160917259Y-74079606D01*
X160890000Y-74181339D01*
X160890000Y-74193209D01*
X160202416Y-73505625D01*
X160144509Y-73510184D01*
X160144250Y-73506898D01*
X160108181Y-73509993D01*
X160045393Y-73476854D01*
X160020502Y-73442819D01*
X160016457Y-73434722D01*
X159992115Y-73361262D01*
X159914812Y-73235934D01*
X159899031Y-73210349D01*
X159899024Y-73210341D01*
X159773658Y-73084975D01*
X159773652Y-73084970D01*
X159729299Y-73057613D01*
X159622738Y-72991885D01*
X159519633Y-72957720D01*
X159454427Y-72936113D01*
X159454420Y-72936112D01*
X159350553Y-72925500D01*
X158149455Y-72925500D01*
X158045574Y-72936112D01*
X157877261Y-72991885D01*
X157726347Y-73084970D01*
X157726341Y-73084975D01*
X157600975Y-73210341D01*
X157600970Y-73210347D01*
X157507885Y-73361262D01*
X157452113Y-73529572D01*
X157452112Y-73529579D01*
X157441500Y-73633446D01*
X157441500Y-74834544D01*
X157452112Y-74938425D01*
X157507885Y-75106738D01*
X157600970Y-75257652D01*
X157600975Y-75257658D01*
X157726341Y-75383024D01*
X157726347Y-75383029D01*
X157726348Y-75383030D01*
X157877262Y-75476115D01*
X158045574Y-75531887D01*
X158149455Y-75542500D01*
X159350544Y-75542499D01*
X159454426Y-75531887D01*
X159622738Y-75476115D01*
X159773652Y-75383030D01*
X159899030Y-75257652D01*
X159992115Y-75106738D01*
X160013613Y-75041859D01*
X160054026Y-74983489D01*
X160119582Y-74956233D01*
X160144284Y-74960655D01*
X160144508Y-74957815D01*
X160202416Y-74962372D01*
X160890000Y-74274788D01*
X160890000Y-74286661D01*
X160917259Y-74388394D01*
X160969920Y-74479606D01*
X161044394Y-74554080D01*
X161135606Y-74606741D01*
X161237339Y-74634000D01*
X161249210Y-74634000D01*
X160561626Y-75321582D01*
X160561626Y-75321583D01*
X160604457Y-75352701D01*
X160660291Y-75381151D01*
X160711906Y-75429899D01*
X160728971Y-75498814D01*
X160706070Y-75566016D01*
X160692183Y-75582512D01*
X160404893Y-75869803D01*
X159553899Y-76720796D01*
X159491589Y-76754820D01*
X159464806Y-76757700D01*
X153933103Y-76757700D01*
X153864982Y-76737698D01*
X153844008Y-76720795D01*
X153808737Y-76685524D01*
X153808735Y-76685522D01*
X153659936Y-76586098D01*
X153516292Y-76526598D01*
X153494603Y-76517614D01*
X153494601Y-76517613D01*
X153494600Y-76517613D01*
X153396159Y-76498032D01*
X153319081Y-76482700D01*
X153319079Y-76482700D01*
X153220400Y-76482700D01*
X153152279Y-76462698D01*
X153105786Y-76409042D01*
X153094400Y-76356700D01*
X153094400Y-71102039D01*
X153114402Y-71033918D01*
X153168058Y-70987425D01*
X153195815Y-70978460D01*
X153272100Y-70963287D01*
X153437436Y-70894802D01*
X153586235Y-70795378D01*
X153621508Y-70760105D01*
X153683820Y-70726079D01*
X153710603Y-70723200D01*
X154231138Y-70723200D01*
X154299259Y-70743202D01*
X154345752Y-70796858D01*
X154355856Y-70867132D01*
X154333072Y-70923264D01*
X154329299Y-70928456D01*
X154235829Y-71111900D01*
X154235826Y-71111906D01*
X154172208Y-71307703D01*
X154140000Y-71511061D01*
X154140000Y-71716938D01*
X154172208Y-71920296D01*
X154235826Y-72116093D01*
X154235829Y-72116099D01*
X154329297Y-72299540D01*
X154329298Y-72299541D01*
X154360416Y-72342372D01*
X154360417Y-72342372D01*
X155048000Y-71654789D01*
X155048000Y-71666661D01*
X155075259Y-71768394D01*
X155127920Y-71859606D01*
X155202394Y-71934080D01*
X155293606Y-71986741D01*
X155395339Y-72014000D01*
X155407210Y-72014000D01*
X154719626Y-72701582D01*
X154719626Y-72701583D01*
X154762454Y-72732699D01*
X154945900Y-72826170D01*
X154945906Y-72826173D01*
X155141705Y-72889791D01*
X155141701Y-72889791D01*
X155345061Y-72922000D01*
X155550939Y-72922000D01*
X155754296Y-72889791D01*
X155950093Y-72826173D01*
X155950099Y-72826170D01*
X156133541Y-72732701D01*
X156176372Y-72701582D01*
X156176372Y-72701581D01*
X155488791Y-72014000D01*
X155500661Y-72014000D01*
X155602394Y-71986741D01*
X155693606Y-71934080D01*
X155768080Y-71859606D01*
X155820741Y-71768394D01*
X155848000Y-71666661D01*
X155848000Y-71654789D01*
X156535582Y-72342372D01*
X156566701Y-72299541D01*
X156660170Y-72116099D01*
X156660173Y-72116093D01*
X156723791Y-71920296D01*
X156756000Y-71716938D01*
X156756000Y-71511061D01*
X156723791Y-71307703D01*
X156660173Y-71111906D01*
X156660170Y-71111900D01*
X156566700Y-70928456D01*
X156562928Y-70923264D01*
X156539068Y-70856396D01*
X156555146Y-70787244D01*
X156606059Y-70737763D01*
X156664862Y-70723200D01*
X162063293Y-70723200D01*
X162063294Y-70723200D01*
X162185685Y-70698855D01*
X162300975Y-70651100D01*
X162404733Y-70581771D01*
X165358575Y-67627928D01*
X165420885Y-67593904D01*
X165491700Y-67598969D01*
X165521725Y-67615087D01*
X165684197Y-67733129D01*
X165867710Y-67826634D01*
X166063592Y-67890280D01*
X166267019Y-67922500D01*
X166267022Y-67922500D01*
X166472978Y-67922500D01*
X166472981Y-67922500D01*
X166676408Y-67890280D01*
X166872290Y-67826634D01*
X167055803Y-67733129D01*
X167222430Y-67612068D01*
X167368068Y-67466430D01*
X167489129Y-67299803D01*
X167527734Y-67224034D01*
X167576481Y-67172422D01*
X167645396Y-67155356D01*
X167712598Y-67178257D01*
X167752264Y-67224034D01*
X167790871Y-67299803D01*
X167911932Y-67466430D01*
X167911934Y-67466432D01*
X167911936Y-67466435D01*
X168057564Y-67612063D01*
X168057567Y-67612065D01*
X168057570Y-67612068D01*
X168224197Y-67733129D01*
X168407710Y-67826634D01*
X168603592Y-67890280D01*
X168807019Y-67922500D01*
X168807022Y-67922500D01*
X169012978Y-67922500D01*
X169012981Y-67922500D01*
X169216408Y-67890280D01*
X169412290Y-67826634D01*
X169595803Y-67733129D01*
X169762430Y-67612068D01*
X169908068Y-67466430D01*
X170029129Y-67299803D01*
X170031332Y-67295478D01*
X170050215Y-67275481D01*
X170066304Y-67253171D01*
X170074228Y-67250053D01*
X170080076Y-67243861D01*
X170106778Y-67237246D01*
X170132371Y-67227177D01*
X170144749Y-67227840D01*
X170148989Y-67226790D01*
X170168181Y-67229095D01*
X170250056Y-67245381D01*
X170312965Y-67278288D01*
X170327369Y-67296227D01*
X170327961Y-67295798D01*
X170330871Y-67299803D01*
X170451932Y-67466430D01*
X170451934Y-67466432D01*
X170451936Y-67466435D01*
X170597564Y-67612063D01*
X170597567Y-67612065D01*
X170597570Y-67612068D01*
X170764197Y-67733129D01*
X170947710Y-67826634D01*
X171143592Y-67890280D01*
X171347019Y-67922500D01*
X171347022Y-67922500D01*
X171552978Y-67922500D01*
X171552981Y-67922500D01*
X171756408Y-67890280D01*
X171952290Y-67826634D01*
X172135803Y-67733129D01*
X172302430Y-67612068D01*
X172448068Y-67466430D01*
X172569129Y-67299803D01*
X172607734Y-67224034D01*
X172656481Y-67172422D01*
X172725396Y-67155356D01*
X172792598Y-67178257D01*
X172832264Y-67224034D01*
X172870871Y-67299803D01*
X172991932Y-67466430D01*
X172991934Y-67466432D01*
X172991936Y-67466435D01*
X173137564Y-67612063D01*
X173137567Y-67612065D01*
X173137570Y-67612068D01*
X173304197Y-67733129D01*
X173487710Y-67826634D01*
X173683592Y-67890280D01*
X173887019Y-67922500D01*
X173887022Y-67922500D01*
X174092978Y-67922500D01*
X174092981Y-67922500D01*
X174296408Y-67890280D01*
X174492290Y-67826634D01*
X174675803Y-67733129D01*
X174842430Y-67612068D01*
X174988068Y-67466430D01*
X175109129Y-67299803D01*
X175202634Y-67116290D01*
X175266280Y-66920408D01*
X175298500Y-66716981D01*
X175298500Y-66511019D01*
X175266280Y-66307592D01*
X175202634Y-66111710D01*
X175109129Y-65928197D01*
X174988068Y-65761570D01*
X174988065Y-65761567D01*
X174988063Y-65761564D01*
X174842435Y-65615936D01*
X174842432Y-65615934D01*
X174842430Y-65615932D01*
X174676391Y-65495298D01*
X174675806Y-65494873D01*
X174675805Y-65494872D01*
X174675803Y-65494871D01*
X174492290Y-65401366D01*
X174492287Y-65401365D01*
X174492285Y-65401364D01*
X174296412Y-65337721D01*
X174296410Y-65337720D01*
X174296408Y-65337720D01*
X174092981Y-65305500D01*
X173887019Y-65305500D01*
X173683592Y-65337720D01*
X173683590Y-65337720D01*
X173683587Y-65337721D01*
X173487714Y-65401364D01*
X173487708Y-65401367D01*
X173304193Y-65494873D01*
X173137567Y-65615934D01*
X173137564Y-65615936D01*
X172991936Y-65761564D01*
X172991934Y-65761567D01*
X172870873Y-65928193D01*
X172869474Y-65930939D01*
X172834793Y-65999005D01*
X172832267Y-66003962D01*
X172783518Y-66055577D01*
X172714603Y-66072643D01*
X172647402Y-66049742D01*
X172607733Y-66003962D01*
X172605514Y-65999607D01*
X172569129Y-65928197D01*
X172448068Y-65761570D01*
X172448065Y-65761567D01*
X172448063Y-65761564D01*
X172302435Y-65615936D01*
X172302432Y-65615934D01*
X172302430Y-65615932D01*
X172136391Y-65495298D01*
X172135806Y-65494873D01*
X172135805Y-65494872D01*
X172135803Y-65494871D01*
X171952290Y-65401366D01*
X171952287Y-65401365D01*
X171952285Y-65401364D01*
X171756412Y-65337721D01*
X171756410Y-65337720D01*
X171756408Y-65337720D01*
X171552981Y-65305500D01*
X171347019Y-65305500D01*
X171143592Y-65337720D01*
X171143590Y-65337720D01*
X171143587Y-65337721D01*
X170947714Y-65401364D01*
X170947708Y-65401367D01*
X170764194Y-65494872D01*
X170601728Y-65612910D01*
X170534860Y-65636768D01*
X170465709Y-65620687D01*
X170438576Y-65600071D01*
X169827033Y-64988529D01*
X169723275Y-64919200D01*
X169607985Y-64871445D01*
X169534286Y-64856785D01*
X169485596Y-64847100D01*
X169485594Y-64847100D01*
X166963706Y-64847100D01*
X166963703Y-64847100D01*
X166841314Y-64871445D01*
X166841309Y-64871447D01*
X166816721Y-64881632D01*
X166809510Y-64884619D01*
X166733604Y-64916060D01*
X166726023Y-64919200D01*
X166622271Y-64988525D01*
X166622269Y-64988526D01*
X166341434Y-65269361D01*
X166279122Y-65303386D01*
X166271869Y-65304478D01*
X166271909Y-65304726D01*
X166267022Y-65305500D01*
X166267019Y-65305500D01*
X166063592Y-65337720D01*
X166063590Y-65337720D01*
X166063587Y-65337721D01*
X165867714Y-65401364D01*
X165867708Y-65401367D01*
X165684193Y-65494873D01*
X165517567Y-65615934D01*
X165517564Y-65615936D01*
X165371936Y-65761564D01*
X165371934Y-65761567D01*
X165247961Y-65932202D01*
X165246223Y-65930939D01*
X165227995Y-65947412D01*
X165203876Y-65970686D01*
X165201194Y-65971632D01*
X165200194Y-65972536D01*
X165170056Y-65982618D01*
X165087675Y-65999005D01*
X165016961Y-65992677D01*
X164960893Y-65949123D01*
X164950822Y-65932621D01*
X164948698Y-65928453D01*
X164917583Y-65885626D01*
X164917582Y-65885626D01*
X164230000Y-66573209D01*
X164230000Y-66561339D01*
X164202741Y-66459606D01*
X164150080Y-66368394D01*
X164075606Y-66293920D01*
X163984394Y-66241259D01*
X163882661Y-66214000D01*
X163870790Y-66214000D01*
X164558372Y-65526416D01*
X164515541Y-65495298D01*
X164515540Y-65495297D01*
X164332099Y-65401829D01*
X164332093Y-65401826D01*
X164136294Y-65338208D01*
X164136298Y-65338208D01*
X163932939Y-65306000D01*
X163727061Y-65306000D01*
X163523703Y-65338208D01*
X163327906Y-65401826D01*
X163327900Y-65401829D01*
X163144452Y-65495301D01*
X163101625Y-65526416D01*
X163789209Y-66214000D01*
X163777339Y-66214000D01*
X163675606Y-66241259D01*
X163584394Y-66293920D01*
X163509920Y-66368394D01*
X163457259Y-66459606D01*
X163430000Y-66561339D01*
X163430000Y-66573209D01*
X162742416Y-65885625D01*
X162711301Y-65928453D01*
X162711299Y-65928456D01*
X162672546Y-66004512D01*
X162623798Y-66056127D01*
X162554883Y-66073192D01*
X162487681Y-66050291D01*
X162448013Y-66004511D01*
X162431404Y-65971915D01*
X162410526Y-65930939D01*
X162409127Y-65928193D01*
X162340492Y-65833726D01*
X162288068Y-65761570D01*
X162288065Y-65761567D01*
X162288063Y-65761564D01*
X162240774Y-65714275D01*
X162237100Y-65707548D01*
X162230855Y-65703104D01*
X162220320Y-65676818D01*
X162206748Y-65651963D01*
X162207294Y-65644316D01*
X162204444Y-65637203D01*
X162209792Y-65609398D01*
X162211813Y-65581148D01*
X162216407Y-65575010D01*
X162217855Y-65567484D01*
X162237389Y-65546981D01*
X162254360Y-65524312D01*
X162262763Y-65520350D01*
X162266829Y-65516084D01*
X162291630Y-65506744D01*
X162300119Y-65502743D01*
X162302684Y-65502119D01*
X162459200Y-65470987D01*
X162624536Y-65402502D01*
X162773335Y-65303078D01*
X162899878Y-65176535D01*
X162999302Y-65027736D01*
X163067787Y-64862400D01*
X163102700Y-64686879D01*
X163102700Y-64507921D01*
X163067787Y-64332400D01*
X162999302Y-64167064D01*
X162899878Y-64018265D01*
X162773335Y-63891722D01*
X162624536Y-63792298D01*
X162459200Y-63723813D01*
X162392080Y-63710462D01*
X162296478Y-63691445D01*
X162279451Y-63682538D01*
X162260675Y-63678454D01*
X162235235Y-63659409D01*
X162233568Y-63658537D01*
X162231965Y-63656961D01*
X162188846Y-63613842D01*
X162154820Y-63551530D01*
X162159885Y-63480715D01*
X162188844Y-63435653D01*
X162288068Y-63336430D01*
X162409129Y-63169803D01*
X162447734Y-63094034D01*
X162496481Y-63042422D01*
X162565396Y-63025356D01*
X162632598Y-63048257D01*
X162672264Y-63094034D01*
X162710738Y-63169541D01*
X162710873Y-63169806D01*
X162724401Y-63188425D01*
X162831932Y-63336430D01*
X162831934Y-63336432D01*
X162831936Y-63336435D01*
X162977564Y-63482063D01*
X162977567Y-63482065D01*
X162977570Y-63482068D01*
X163144197Y-63603129D01*
X163327710Y-63696634D01*
X163523592Y-63760280D01*
X163727019Y-63792500D01*
X163727022Y-63792500D01*
X163932978Y-63792500D01*
X163932981Y-63792500D01*
X164136408Y-63760280D01*
X164332290Y-63696634D01*
X164515803Y-63603129D01*
X164682430Y-63482068D01*
X164828068Y-63336430D01*
X164949129Y-63169803D01*
X164987734Y-63094034D01*
X165036481Y-63042422D01*
X165105396Y-63025356D01*
X165172598Y-63048257D01*
X165212264Y-63094034D01*
X165250738Y-63169541D01*
X165250873Y-63169806D01*
X165264401Y-63188425D01*
X165371932Y-63336430D01*
X165371934Y-63336432D01*
X165371936Y-63336435D01*
X165517564Y-63482063D01*
X165517567Y-63482065D01*
X165517570Y-63482068D01*
X165684197Y-63603129D01*
X165867710Y-63696634D01*
X166063592Y-63760280D01*
X166267019Y-63792500D01*
X166267022Y-63792500D01*
X166472978Y-63792500D01*
X166472981Y-63792500D01*
X166676408Y-63760280D01*
X166872290Y-63696634D01*
X167055803Y-63603129D01*
X167222430Y-63482068D01*
X167368068Y-63336430D01*
X167489129Y-63169803D01*
X167527734Y-63094034D01*
X167576481Y-63042422D01*
X167645396Y-63025356D01*
X167712598Y-63048257D01*
X167752264Y-63094034D01*
X167790738Y-63169541D01*
X167790873Y-63169806D01*
X167804401Y-63188425D01*
X167911932Y-63336430D01*
X167911934Y-63336432D01*
X167911936Y-63336435D01*
X168057564Y-63482063D01*
X168057567Y-63482065D01*
X168057570Y-63482068D01*
X168224197Y-63603129D01*
X168407710Y-63696634D01*
X168603592Y-63760280D01*
X168807019Y-63792500D01*
X168807022Y-63792500D01*
X169012978Y-63792500D01*
X169012981Y-63792500D01*
X169216408Y-63760280D01*
X169412290Y-63696634D01*
X169595803Y-63603129D01*
X169762430Y-63482068D01*
X169908068Y-63336430D01*
X170029129Y-63169803D01*
X170067734Y-63094034D01*
X170116481Y-63042422D01*
X170185396Y-63025356D01*
X170252598Y-63048257D01*
X170292264Y-63094034D01*
X170330738Y-63169541D01*
X170330873Y-63169806D01*
X170344401Y-63188425D01*
X170451932Y-63336430D01*
X170451934Y-63336432D01*
X170451936Y-63336435D01*
X170597564Y-63482063D01*
X170597567Y-63482065D01*
X170597570Y-63482068D01*
X170764197Y-63603129D01*
X170947710Y-63696634D01*
X171143592Y-63760280D01*
X171347019Y-63792500D01*
X171347022Y-63792500D01*
X171552978Y-63792500D01*
X171552981Y-63792500D01*
X171756408Y-63760280D01*
X171952290Y-63696634D01*
X172135803Y-63603129D01*
X172302430Y-63482068D01*
X172313592Y-63470906D01*
X172350033Y-63434466D01*
X172448063Y-63336435D01*
X172448068Y-63336430D01*
X172569129Y-63169803D01*
X172608014Y-63093486D01*
X172656759Y-63041874D01*
X172725674Y-63024807D01*
X172792876Y-63047707D01*
X172832545Y-63093487D01*
X172871294Y-63169535D01*
X172871298Y-63169541D01*
X172902416Y-63212372D01*
X173590000Y-62524788D01*
X173590000Y-62536661D01*
X173617259Y-62638394D01*
X173669920Y-62729606D01*
X173744394Y-62804080D01*
X173835606Y-62856741D01*
X173937339Y-62884000D01*
X173949210Y-62884000D01*
X173261626Y-63571582D01*
X173261626Y-63571583D01*
X173304454Y-63602699D01*
X173487900Y-63696170D01*
X173487906Y-63696173D01*
X173683705Y-63759791D01*
X173683701Y-63759791D01*
X173887061Y-63792000D01*
X174092939Y-63792000D01*
X174296296Y-63759791D01*
X174492093Y-63696173D01*
X174492099Y-63696170D01*
X174675541Y-63602701D01*
X174718372Y-63571582D01*
X174718372Y-63571581D01*
X174030791Y-62884000D01*
X174042661Y-62884000D01*
X174144394Y-62856741D01*
X174235606Y-62804080D01*
X174310080Y-62729606D01*
X174362741Y-62638394D01*
X174390000Y-62536661D01*
X174390000Y-62524791D01*
X175077581Y-63212372D01*
X175077582Y-63212372D01*
X175108701Y-63169541D01*
X175202170Y-62986099D01*
X175202173Y-62986093D01*
X175265791Y-62790296D01*
X175298000Y-62586938D01*
X175298000Y-62381061D01*
X175265791Y-62177703D01*
X175202173Y-61981906D01*
X175202170Y-61981900D01*
X175108699Y-61798454D01*
X175077583Y-61755626D01*
X175077582Y-61755626D01*
X174390000Y-62443208D01*
X174390000Y-62431339D01*
X174362741Y-62329606D01*
X174310080Y-62238394D01*
X174235606Y-62163920D01*
X174144394Y-62111259D01*
X174042661Y-62084000D01*
X174030790Y-62084000D01*
X174718372Y-61396416D01*
X174675541Y-61365298D01*
X174675540Y-61365297D01*
X174492099Y-61271829D01*
X174492093Y-61271826D01*
X174296294Y-61208208D01*
X174296298Y-61208208D01*
X174092939Y-61176000D01*
X173887061Y-61176000D01*
X173683703Y-61208208D01*
X173487906Y-61271826D01*
X173487900Y-61271829D01*
X173304452Y-61365301D01*
X173261625Y-61396416D01*
X173949209Y-62084000D01*
X173937339Y-62084000D01*
X173835606Y-62111259D01*
X173744394Y-62163920D01*
X173669920Y-62238394D01*
X173617259Y-62329606D01*
X173590000Y-62431339D01*
X173590000Y-62443209D01*
X172902416Y-61755625D01*
X172871301Y-61798453D01*
X172871299Y-61798456D01*
X172832546Y-61874512D01*
X172783798Y-61926127D01*
X172714883Y-61943192D01*
X172647681Y-61920291D01*
X172608013Y-61874511D01*
X172604641Y-61867894D01*
X172569129Y-61798197D01*
X172569127Y-61798193D01*
X172504329Y-61709007D01*
X172448068Y-61631570D01*
X172448065Y-61631567D01*
X172448063Y-61631564D01*
X172302435Y-61485936D01*
X172302432Y-61485934D01*
X172302430Y-61485932D01*
X172136391Y-61365298D01*
X172135806Y-61364873D01*
X172135805Y-61364872D01*
X172135803Y-61364871D01*
X171952290Y-61271366D01*
X171952287Y-61271365D01*
X171952285Y-61271364D01*
X171756412Y-61207721D01*
X171756410Y-61207720D01*
X171756408Y-61207720D01*
X171552981Y-61175500D01*
X171347019Y-61175500D01*
X171143592Y-61207720D01*
X171143590Y-61207720D01*
X171143587Y-61207721D01*
X170947714Y-61271364D01*
X170947708Y-61271367D01*
X170764193Y-61364873D01*
X170597567Y-61485934D01*
X170597564Y-61485936D01*
X170451936Y-61631564D01*
X170451934Y-61631567D01*
X170330873Y-61798193D01*
X170330871Y-61798197D01*
X170292327Y-61873845D01*
X170292267Y-61873962D01*
X170243518Y-61925577D01*
X170174603Y-61942643D01*
X170107402Y-61919742D01*
X170067733Y-61873962D01*
X170029129Y-61798197D01*
X169908068Y-61631570D01*
X169908065Y-61631567D01*
X169908063Y-61631564D01*
X169762435Y-61485936D01*
X169762432Y-61485934D01*
X169762430Y-61485932D01*
X169596391Y-61365298D01*
X169595806Y-61364873D01*
X169595805Y-61364872D01*
X169595803Y-61364871D01*
X169412290Y-61271366D01*
X169412287Y-61271365D01*
X169412285Y-61271364D01*
X169216412Y-61207721D01*
X169216410Y-61207720D01*
X169216408Y-61207720D01*
X169012981Y-61175500D01*
X168807019Y-61175500D01*
X168603592Y-61207720D01*
X168603590Y-61207720D01*
X168603587Y-61207721D01*
X168407714Y-61271364D01*
X168407708Y-61271367D01*
X168224193Y-61364873D01*
X168057567Y-61485934D01*
X168057564Y-61485936D01*
X167911936Y-61631564D01*
X167911934Y-61631567D01*
X167790873Y-61798193D01*
X167790871Y-61798197D01*
X167752327Y-61873845D01*
X167752267Y-61873962D01*
X167703518Y-61925577D01*
X167634603Y-61942643D01*
X167567402Y-61919742D01*
X167527733Y-61873962D01*
X167489129Y-61798197D01*
X167368068Y-61631570D01*
X167368065Y-61631567D01*
X167368063Y-61631564D01*
X167222435Y-61485936D01*
X167222432Y-61485934D01*
X167222430Y-61485932D01*
X167056391Y-61365298D01*
X167055806Y-61364873D01*
X167055805Y-61364872D01*
X167055803Y-61364871D01*
X166872290Y-61271366D01*
X166872287Y-61271365D01*
X166872285Y-61271364D01*
X166676412Y-61207721D01*
X166676410Y-61207720D01*
X166676408Y-61207720D01*
X166472981Y-61175500D01*
X166267019Y-61175500D01*
X166063592Y-61207720D01*
X166063590Y-61207720D01*
X166063587Y-61207721D01*
X165867714Y-61271364D01*
X165867708Y-61271367D01*
X165684193Y-61364873D01*
X165517567Y-61485934D01*
X165517564Y-61485936D01*
X165371936Y-61631564D01*
X165371934Y-61631567D01*
X165250873Y-61798193D01*
X165250871Y-61798197D01*
X165212327Y-61873845D01*
X165212267Y-61873962D01*
X165163518Y-61925577D01*
X165094603Y-61942643D01*
X165027402Y-61919742D01*
X164987733Y-61873962D01*
X164949129Y-61798197D01*
X164828068Y-61631570D01*
X164828065Y-61631567D01*
X164828063Y-61631564D01*
X164682435Y-61485936D01*
X164682432Y-61485934D01*
X164682430Y-61485932D01*
X164516391Y-61365298D01*
X164515806Y-61364873D01*
X164515805Y-61364872D01*
X164515803Y-61364871D01*
X164332290Y-61271366D01*
X164332287Y-61271365D01*
X164332285Y-61271364D01*
X164136412Y-61207721D01*
X164136410Y-61207720D01*
X164136408Y-61207720D01*
X163932981Y-61175500D01*
X163727019Y-61175500D01*
X163523592Y-61207720D01*
X163523590Y-61207720D01*
X163523587Y-61207721D01*
X163327714Y-61271364D01*
X163327708Y-61271367D01*
X163144193Y-61364873D01*
X162977567Y-61485934D01*
X162977564Y-61485936D01*
X162831936Y-61631564D01*
X162831934Y-61631567D01*
X162710873Y-61798193D01*
X162710871Y-61798197D01*
X162672327Y-61873845D01*
X162672267Y-61873962D01*
X162623518Y-61925577D01*
X162554603Y-61942643D01*
X162487402Y-61919742D01*
X162447733Y-61873962D01*
X162409129Y-61798197D01*
X162288068Y-61631570D01*
X162288065Y-61631567D01*
X162288063Y-61631564D01*
X162142435Y-61485936D01*
X162142432Y-61485934D01*
X162142430Y-61485932D01*
X161976391Y-61365298D01*
X161975806Y-61364873D01*
X161975805Y-61364872D01*
X161975803Y-61364871D01*
X161792290Y-61271366D01*
X161792287Y-61271365D01*
X161792285Y-61271364D01*
X161596412Y-61207721D01*
X161596410Y-61207720D01*
X161596408Y-61207720D01*
X161392981Y-61175500D01*
X161187019Y-61175500D01*
X160983592Y-61207720D01*
X160983590Y-61207720D01*
X160983587Y-61207721D01*
X160787714Y-61271364D01*
X160787708Y-61271367D01*
X160604193Y-61364873D01*
X160437567Y-61485934D01*
X160437564Y-61485936D01*
X160291933Y-61631567D01*
X160234960Y-61709985D01*
X160178737Y-61753339D01*
X160108001Y-61759414D01*
X160045210Y-61726282D01*
X160013420Y-61675557D01*
X159992115Y-61611262D01*
X159899030Y-61460348D01*
X159899029Y-61460347D01*
X159899024Y-61460341D01*
X159773658Y-61334975D01*
X159773652Y-61334970D01*
X159622738Y-61241885D01*
X159469867Y-61191229D01*
X159411496Y-61150816D01*
X159384240Y-61085260D01*
X159383500Y-61071625D01*
X159383500Y-56085328D01*
X159403502Y-56017207D01*
X159435440Y-55983391D01*
X159435795Y-55983133D01*
X159435803Y-55983129D01*
X159602430Y-55862068D01*
X159748068Y-55716430D01*
X159848569Y-55578102D01*
X159869394Y-55549439D01*
X159873797Y-55546043D01*
X159876106Y-55540988D01*
X159901603Y-55524601D01*
X159925616Y-55506085D01*
X159932397Y-55504811D01*
X159935832Y-55502604D01*
X159971330Y-55497500D01*
X160068670Y-55497500D01*
X160136791Y-55517502D01*
X160170606Y-55549439D01*
X160218825Y-55615806D01*
X160291932Y-55716430D01*
X160291934Y-55716432D01*
X160291936Y-55716435D01*
X160437564Y-55862063D01*
X160437567Y-55862065D01*
X160437570Y-55862068D01*
X160604197Y-55983129D01*
X160787710Y-56076634D01*
X160983592Y-56140280D01*
X161187019Y-56172500D01*
X161187022Y-56172500D01*
X161392978Y-56172500D01*
X161392981Y-56172500D01*
X161596408Y-56140280D01*
X161792290Y-56076634D01*
X161975803Y-55983129D01*
X162142430Y-55862068D01*
X162288068Y-55716430D01*
X162388569Y-55578102D01*
X162409394Y-55549439D01*
X162413797Y-55546043D01*
X162416106Y-55540988D01*
X162441603Y-55524601D01*
X162465616Y-55506085D01*
X162472397Y-55504811D01*
X162475832Y-55502604D01*
X162511330Y-55497500D01*
X162608670Y-55497500D01*
X162676791Y-55517502D01*
X162710606Y-55549439D01*
X162758825Y-55615806D01*
X162831932Y-55716430D01*
X162831934Y-55716432D01*
X162831936Y-55716435D01*
X162977564Y-55862063D01*
X162977567Y-55862065D01*
X162977570Y-55862068D01*
X163144197Y-55983129D01*
X163327710Y-56076634D01*
X163523592Y-56140280D01*
X163727019Y-56172500D01*
X163727022Y-56172500D01*
X163932978Y-56172500D01*
X163932981Y-56172500D01*
X164136408Y-56140280D01*
X164332290Y-56076634D01*
X164515803Y-55983129D01*
X164682430Y-55862068D01*
X164828068Y-55716430D01*
X164928569Y-55578102D01*
X164949394Y-55549439D01*
X164953797Y-55546043D01*
X164956106Y-55540988D01*
X164981603Y-55524601D01*
X165005616Y-55506085D01*
X165012397Y-55504811D01*
X165015832Y-55502604D01*
X165051330Y-55497500D01*
X165148670Y-55497500D01*
X165216791Y-55517502D01*
X165250606Y-55549439D01*
X165298825Y-55615806D01*
X165371932Y-55716430D01*
X165371934Y-55716432D01*
X165371936Y-55716435D01*
X165517564Y-55862063D01*
X165517567Y-55862065D01*
X165517570Y-55862068D01*
X165684197Y-55983129D01*
X165867710Y-56076634D01*
X166063592Y-56140280D01*
X166247014Y-56169331D01*
X166311164Y-56199742D01*
X166348691Y-56260011D01*
X166353300Y-56293779D01*
X166353300Y-56922797D01*
X166333298Y-56990918D01*
X166316395Y-57011892D01*
X166281124Y-57047162D01*
X166281119Y-57047169D01*
X166181699Y-57195962D01*
X166113214Y-57361296D01*
X166078300Y-57536818D01*
X166078300Y-57536821D01*
X166078300Y-57715779D01*
X166113213Y-57891300D01*
X166181698Y-58056636D01*
X166281122Y-58205435D01*
X166407665Y-58331978D01*
X166556464Y-58431402D01*
X166721800Y-58499887D01*
X166897321Y-58534800D01*
X166897322Y-58534800D01*
X167076278Y-58534800D01*
X167076279Y-58534800D01*
X167251800Y-58499887D01*
X167417136Y-58431402D01*
X167565935Y-58331978D01*
X167692478Y-58205435D01*
X167791902Y-58056636D01*
X167860387Y-57891300D01*
X167895300Y-57715779D01*
X167895300Y-57536821D01*
X167860387Y-57361300D01*
X167791902Y-57195964D01*
X167692478Y-57047165D01*
X167657205Y-57011892D01*
X167623179Y-56949580D01*
X167620300Y-56922797D01*
X167620300Y-55702820D01*
X167640302Y-55634699D01*
X167693958Y-55588206D01*
X167764232Y-55578102D01*
X167828812Y-55607596D01*
X167848234Y-55628756D01*
X167911932Y-55716430D01*
X167911934Y-55716432D01*
X167911936Y-55716435D01*
X168057564Y-55862063D01*
X168057567Y-55862065D01*
X168057570Y-55862068D01*
X168224197Y-55983129D01*
X168407710Y-56076634D01*
X168603592Y-56140280D01*
X168807019Y-56172500D01*
X168807022Y-56172500D01*
X169012978Y-56172500D01*
X169012981Y-56172500D01*
X169216408Y-56140280D01*
X169412290Y-56076634D01*
X169595803Y-55983129D01*
X169762430Y-55862068D01*
X169908068Y-55716430D01*
X170029129Y-55549803D01*
X170067734Y-55474034D01*
X170116481Y-55422422D01*
X170185396Y-55405356D01*
X170252598Y-55428257D01*
X170292264Y-55474034D01*
X170330871Y-55549803D01*
X170451932Y-55716430D01*
X170451934Y-55716432D01*
X170451936Y-55716435D01*
X170597564Y-55862063D01*
X170597567Y-55862065D01*
X170597570Y-55862068D01*
X170764197Y-55983129D01*
X170947710Y-56076634D01*
X171143592Y-56140280D01*
X171347019Y-56172500D01*
X171347022Y-56172500D01*
X171552978Y-56172500D01*
X171552981Y-56172500D01*
X171756408Y-56140280D01*
X171952290Y-56076634D01*
X172135803Y-55983129D01*
X172302430Y-55862068D01*
X172448068Y-55716430D01*
X172569129Y-55549803D01*
X172607734Y-55474034D01*
X172656481Y-55422422D01*
X172725396Y-55405356D01*
X172792598Y-55428257D01*
X172832264Y-55474034D01*
X172870871Y-55549803D01*
X172991932Y-55716430D01*
X172991934Y-55716432D01*
X172991936Y-55716435D01*
X173137564Y-55862063D01*
X173137567Y-55862065D01*
X173137570Y-55862068D01*
X173304197Y-55983129D01*
X173487710Y-56076634D01*
X173683592Y-56140280D01*
X173887019Y-56172500D01*
X173887022Y-56172500D01*
X174092978Y-56172500D01*
X174092981Y-56172500D01*
X174296408Y-56140280D01*
X174492290Y-56076634D01*
X174675803Y-55983129D01*
X174842430Y-55862068D01*
X174988068Y-55716430D01*
X175109129Y-55549803D01*
X175202634Y-55366290D01*
X175266280Y-55170408D01*
X175298500Y-54966981D01*
X175298500Y-54761019D01*
X175266280Y-54557592D01*
X175202634Y-54361710D01*
X175109129Y-54178197D01*
X174988068Y-54011570D01*
X174988065Y-54011567D01*
X174988063Y-54011564D01*
X174842435Y-53865936D01*
X174842432Y-53865934D01*
X174842430Y-53865932D01*
X174675803Y-53744871D01*
X174492290Y-53651366D01*
X174492287Y-53651365D01*
X174492285Y-53651364D01*
X174296412Y-53587721D01*
X174296410Y-53587720D01*
X174296408Y-53587720D01*
X174092981Y-53555500D01*
X173887019Y-53555500D01*
X173683592Y-53587720D01*
X173683590Y-53587720D01*
X173683587Y-53587721D01*
X173487714Y-53651364D01*
X173487708Y-53651367D01*
X173304193Y-53744873D01*
X173137567Y-53865934D01*
X173137564Y-53865936D01*
X172991936Y-54011564D01*
X172991934Y-54011567D01*
X172870873Y-54178193D01*
X172869474Y-54180939D01*
X172837245Y-54244193D01*
X172832267Y-54253962D01*
X172783518Y-54305577D01*
X172714603Y-54322643D01*
X172647402Y-54299742D01*
X172607733Y-54253962D01*
X172602943Y-54244561D01*
X172569129Y-54178197D01*
X172448068Y-54011570D01*
X172448065Y-54011567D01*
X172448063Y-54011564D01*
X172302435Y-53865936D01*
X172302432Y-53865934D01*
X172302430Y-53865932D01*
X172135803Y-53744871D01*
X171952290Y-53651366D01*
X171952287Y-53651365D01*
X171952285Y-53651364D01*
X171756412Y-53587721D01*
X171756410Y-53587720D01*
X171756408Y-53587720D01*
X171552981Y-53555500D01*
X171347019Y-53555500D01*
X171143592Y-53587720D01*
X171143590Y-53587720D01*
X171143587Y-53587721D01*
X170947714Y-53651364D01*
X170947708Y-53651367D01*
X170764193Y-53744873D01*
X170597567Y-53865934D01*
X170597564Y-53865936D01*
X170451936Y-54011564D01*
X170451934Y-54011567D01*
X170330873Y-54178193D01*
X170329474Y-54180939D01*
X170297245Y-54244193D01*
X170292267Y-54253962D01*
X170243518Y-54305577D01*
X170174603Y-54322643D01*
X170107402Y-54299742D01*
X170067733Y-54253962D01*
X170062943Y-54244561D01*
X170029129Y-54178197D01*
X169908068Y-54011570D01*
X169908065Y-54011567D01*
X169908063Y-54011564D01*
X169762435Y-53865936D01*
X169762432Y-53865934D01*
X169762430Y-53865932D01*
X169595803Y-53744871D01*
X169412290Y-53651366D01*
X169412287Y-53651365D01*
X169412285Y-53651364D01*
X169216412Y-53587721D01*
X169216410Y-53587720D01*
X169216408Y-53587720D01*
X169012981Y-53555500D01*
X168807019Y-53555500D01*
X168603592Y-53587720D01*
X168603590Y-53587720D01*
X168603587Y-53587721D01*
X168407714Y-53651364D01*
X168407708Y-53651367D01*
X168224193Y-53744873D01*
X168057567Y-53865934D01*
X168057564Y-53865936D01*
X167911936Y-54011564D01*
X167911934Y-54011567D01*
X167790606Y-54178561D01*
X167786202Y-54181956D01*
X167783894Y-54187012D01*
X167758396Y-54203398D01*
X167734384Y-54221915D01*
X167727602Y-54223188D01*
X167724168Y-54225396D01*
X167688670Y-54230500D01*
X167591330Y-54230500D01*
X167523209Y-54210498D01*
X167489394Y-54178561D01*
X167440186Y-54110832D01*
X167368068Y-54011570D01*
X167368065Y-54011567D01*
X167368063Y-54011564D01*
X167222435Y-53865936D01*
X167222432Y-53865934D01*
X167222430Y-53865932D01*
X167055803Y-53744871D01*
X166872290Y-53651366D01*
X166872287Y-53651365D01*
X166872285Y-53651364D01*
X166676412Y-53587721D01*
X166676410Y-53587720D01*
X166676408Y-53587720D01*
X166472981Y-53555500D01*
X166267019Y-53555500D01*
X166063592Y-53587720D01*
X166063590Y-53587720D01*
X166063587Y-53587721D01*
X165867714Y-53651364D01*
X165867708Y-53651367D01*
X165684193Y-53744873D01*
X165517567Y-53865934D01*
X165517564Y-53865936D01*
X165371936Y-54011564D01*
X165371934Y-54011567D01*
X165250606Y-54178561D01*
X165246202Y-54181956D01*
X165243894Y-54187012D01*
X165218396Y-54203398D01*
X165194384Y-54221915D01*
X165187602Y-54223188D01*
X165184168Y-54225396D01*
X165148670Y-54230500D01*
X165051330Y-54230500D01*
X164983209Y-54210498D01*
X164949394Y-54178561D01*
X164900186Y-54110832D01*
X164828068Y-54011570D01*
X164828065Y-54011567D01*
X164828063Y-54011564D01*
X164682435Y-53865936D01*
X164682432Y-53865934D01*
X164682430Y-53865932D01*
X164515803Y-53744871D01*
X164332290Y-53651366D01*
X164332287Y-53651365D01*
X164332285Y-53651364D01*
X164136412Y-53587721D01*
X164136410Y-53587720D01*
X164136408Y-53587720D01*
X163932981Y-53555500D01*
X163727019Y-53555500D01*
X163523592Y-53587720D01*
X163523590Y-53587720D01*
X163523587Y-53587721D01*
X163327714Y-53651364D01*
X163327708Y-53651367D01*
X163144193Y-53744873D01*
X162977567Y-53865934D01*
X162977564Y-53865936D01*
X162831936Y-54011564D01*
X162831934Y-54011567D01*
X162710606Y-54178561D01*
X162706202Y-54181956D01*
X162703894Y-54187012D01*
X162678396Y-54203398D01*
X162654384Y-54221915D01*
X162647602Y-54223188D01*
X162644168Y-54225396D01*
X162608670Y-54230500D01*
X162511330Y-54230500D01*
X162443209Y-54210498D01*
X162409394Y-54178561D01*
X162360186Y-54110832D01*
X162288068Y-54011570D01*
X162288065Y-54011567D01*
X162288063Y-54011564D01*
X162142435Y-53865936D01*
X162142432Y-53865934D01*
X162142430Y-53865932D01*
X161975803Y-53744871D01*
X161792290Y-53651366D01*
X161792287Y-53651365D01*
X161792285Y-53651364D01*
X161596412Y-53587721D01*
X161596410Y-53587720D01*
X161596408Y-53587720D01*
X161392981Y-53555500D01*
X161187019Y-53555500D01*
X160983592Y-53587720D01*
X160983590Y-53587720D01*
X160983587Y-53587721D01*
X160787714Y-53651364D01*
X160787708Y-53651367D01*
X160604193Y-53744873D01*
X160437567Y-53865934D01*
X160437564Y-53865936D01*
X160291936Y-54011564D01*
X160291934Y-54011567D01*
X160170606Y-54178561D01*
X160166202Y-54181956D01*
X160163894Y-54187012D01*
X160138396Y-54203398D01*
X160114384Y-54221915D01*
X160107602Y-54223188D01*
X160104168Y-54225396D01*
X160068670Y-54230500D01*
X159971330Y-54230500D01*
X159903209Y-54210498D01*
X159869394Y-54178561D01*
X159820186Y-54110832D01*
X159748068Y-54011570D01*
X159748065Y-54011567D01*
X159748063Y-54011564D01*
X159602435Y-53865936D01*
X159602432Y-53865934D01*
X159602430Y-53865932D01*
X159435803Y-53744871D01*
X159252290Y-53651366D01*
X159252287Y-53651365D01*
X159252285Y-53651364D01*
X159056412Y-53587721D01*
X159056410Y-53587720D01*
X159056408Y-53587720D01*
X158852981Y-53555500D01*
X158647019Y-53555500D01*
X158443592Y-53587720D01*
X158443590Y-53587720D01*
X158443587Y-53587721D01*
X158247714Y-53651364D01*
X158247708Y-53651367D01*
X158064193Y-53744873D01*
X157897567Y-53865934D01*
X157897564Y-53865936D01*
X157751936Y-54011564D01*
X157751934Y-54011567D01*
X157627961Y-54182202D01*
X157626223Y-54180939D01*
X157611810Y-54193964D01*
X157593126Y-54215337D01*
X157584195Y-54218920D01*
X157580194Y-54222536D01*
X157560438Y-54230091D01*
X157555297Y-54231575D01*
X157438315Y-54254845D01*
X157354411Y-54289599D01*
X157347651Y-54291552D01*
X157337782Y-54291508D01*
X157312687Y-54296500D01*
X156669330Y-54296500D01*
X156601209Y-54276498D01*
X156567394Y-54244561D01*
X156470234Y-54110832D01*
X156446068Y-54077570D01*
X156446065Y-54077567D01*
X156446063Y-54077564D01*
X156300435Y-53931936D01*
X156300432Y-53931934D01*
X156300430Y-53931932D01*
X156133803Y-53810871D01*
X155950290Y-53717366D01*
X155950287Y-53717365D01*
X155950285Y-53717364D01*
X155754412Y-53653721D01*
X155754410Y-53653720D01*
X155754408Y-53653720D01*
X155550981Y-53621500D01*
X155345019Y-53621500D01*
X155141592Y-53653720D01*
X155141590Y-53653720D01*
X155141587Y-53653721D01*
X154945714Y-53717364D01*
X154945708Y-53717367D01*
X154762193Y-53810873D01*
X154595567Y-53931934D01*
X154595564Y-53931936D01*
X154449936Y-54077564D01*
X154449934Y-54077567D01*
X154328873Y-54244193D01*
X154235367Y-54427708D01*
X154235364Y-54427714D01*
X154171721Y-54623587D01*
X154171720Y-54623590D01*
X154171720Y-54623592D01*
X154139500Y-54827019D01*
X154139500Y-55032981D01*
X154164328Y-55189735D01*
X154171721Y-55236412D01*
X154234055Y-55428257D01*
X154235366Y-55432290D01*
X154328871Y-55615803D01*
X154449932Y-55782430D01*
X154449934Y-55782432D01*
X154449936Y-55782435D01*
X154595564Y-55928063D01*
X154595567Y-55928065D01*
X154595570Y-55928068D01*
X154762197Y-56049129D01*
X154945710Y-56142634D01*
X155141592Y-56206280D01*
X155345019Y-56238500D01*
X155345022Y-56238500D01*
X155550978Y-56238500D01*
X155550981Y-56238500D01*
X155754408Y-56206280D01*
X155950290Y-56142634D01*
X156133803Y-56049129D01*
X156300430Y-55928068D01*
X156446068Y-55782430D01*
X156536006Y-55658639D01*
X156567394Y-55615439D01*
X156623616Y-55572085D01*
X156669330Y-55563500D01*
X157576622Y-55563500D01*
X157644743Y-55583502D01*
X157678558Y-55615439D01*
X157751932Y-55716430D01*
X157751934Y-55716432D01*
X157751936Y-55716435D01*
X157897564Y-55862063D01*
X157897567Y-55862065D01*
X157897570Y-55862068D01*
X158064197Y-55983129D01*
X158064204Y-55983133D01*
X158064560Y-55983391D01*
X158107915Y-56039613D01*
X158116500Y-56085328D01*
X158116500Y-61071625D01*
X158096498Y-61139746D01*
X158042842Y-61186239D01*
X158030134Y-61191229D01*
X157920740Y-61227478D01*
X157877262Y-61241885D01*
X157726347Y-61334970D01*
X157726341Y-61334975D01*
X157600975Y-61460341D01*
X157600970Y-61460347D01*
X157507885Y-61611262D01*
X157452113Y-61779572D01*
X157452112Y-61779579D01*
X157441500Y-61883446D01*
X157441500Y-63084544D01*
X157452112Y-63188425D01*
X157507885Y-63356738D01*
X157600970Y-63507652D01*
X157600975Y-63507658D01*
X157726341Y-63633024D01*
X157726347Y-63633029D01*
X157726348Y-63633030D01*
X157877262Y-63726115D01*
X158045574Y-63781887D01*
X158149455Y-63792500D01*
X159350544Y-63792499D01*
X159454426Y-63781887D01*
X159622738Y-63726115D01*
X159773652Y-63633030D01*
X159899030Y-63507652D01*
X159992115Y-63356738D01*
X160013420Y-63292440D01*
X160053832Y-63234071D01*
X160119389Y-63206815D01*
X160189274Y-63219328D01*
X160234959Y-63258013D01*
X160291932Y-63336430D01*
X160291934Y-63336432D01*
X160291936Y-63336435D01*
X160437564Y-63482063D01*
X160437567Y-63482065D01*
X160437570Y-63482068D01*
X160604197Y-63603129D01*
X160604199Y-63603130D01*
X160608203Y-63606039D01*
X160606923Y-63607800D01*
X160648475Y-63653676D01*
X160658618Y-63683942D01*
X160680845Y-63795685D01*
X160728600Y-63910975D01*
X160728601Y-63910976D01*
X160794565Y-64009698D01*
X160815780Y-64077451D01*
X160796997Y-64145918D01*
X160744180Y-64193361D01*
X160689800Y-64205700D01*
X160627118Y-64205700D01*
X160514271Y-64228147D01*
X160451600Y-64240613D01*
X160451599Y-64240613D01*
X160451596Y-64240614D01*
X160286262Y-64309099D01*
X160137469Y-64408519D01*
X160137462Y-64408524D01*
X160010924Y-64535062D01*
X160010919Y-64535069D01*
X159920458Y-64670455D01*
X159911498Y-64683864D01*
X159897316Y-64718102D01*
X159843014Y-64849196D01*
X159843013Y-64849199D01*
X159843013Y-64849200D01*
X159840387Y-64862403D01*
X159808100Y-65024718D01*
X159808100Y-65074606D01*
X159788098Y-65142727D01*
X159771195Y-65163701D01*
X159527931Y-65406964D01*
X159527927Y-65406969D01*
X159522913Y-65414473D01*
X159468433Y-65459997D01*
X159397989Y-65468840D01*
X159360949Y-65456731D01*
X159356180Y-65454301D01*
X159252290Y-65401366D01*
X159252287Y-65401365D01*
X159252285Y-65401364D01*
X159056412Y-65337721D01*
X159056410Y-65337720D01*
X159056408Y-65337720D01*
X158852981Y-65305500D01*
X158647019Y-65305500D01*
X158443592Y-65337720D01*
X158443590Y-65337720D01*
X158443587Y-65337721D01*
X158247714Y-65401364D01*
X158247708Y-65401367D01*
X158064193Y-65494873D01*
X157897567Y-65615934D01*
X157897564Y-65615936D01*
X157751936Y-65761564D01*
X157751934Y-65761567D01*
X157630606Y-65928561D01*
X157574384Y-65971915D01*
X157528670Y-65980500D01*
X156669330Y-65980500D01*
X156601209Y-65960498D01*
X156567394Y-65928561D01*
X156498492Y-65833726D01*
X156446068Y-65761570D01*
X156446065Y-65761567D01*
X156446063Y-65761564D01*
X156300435Y-65615936D01*
X156300432Y-65615934D01*
X156300430Y-65615932D01*
X156134391Y-65495298D01*
X156133806Y-65494873D01*
X156133805Y-65494872D01*
X156133803Y-65494871D01*
X155950290Y-65401366D01*
X155950287Y-65401365D01*
X155950285Y-65401364D01*
X155754412Y-65337721D01*
X155754410Y-65337720D01*
X155754408Y-65337720D01*
X155550981Y-65305500D01*
X155345019Y-65305500D01*
X155141592Y-65337720D01*
X155141590Y-65337720D01*
X155141587Y-65337721D01*
X154945714Y-65401364D01*
X154945708Y-65401367D01*
X154762193Y-65494873D01*
X154595567Y-65615934D01*
X154595564Y-65615936D01*
X154449936Y-65761564D01*
X154449934Y-65761567D01*
X154328606Y-65928561D01*
X154272384Y-65971915D01*
X154226670Y-65980500D01*
X153347703Y-65980500D01*
X153274668Y-65995028D01*
X153225315Y-66004845D01*
X153225313Y-66004845D01*
X153225312Y-66004846D01*
X153177685Y-66024574D01*
X153115600Y-66050291D01*
X153110023Y-66052601D01*
X153006271Y-66121926D01*
X153006264Y-66121931D01*
X152972295Y-66155901D01*
X152909983Y-66189927D01*
X152839168Y-66184862D01*
X152782332Y-66142315D01*
X152757521Y-66075795D01*
X152757200Y-66066806D01*
X152757200Y-65657903D01*
X152777202Y-65589782D01*
X152794105Y-65568808D01*
X152795429Y-65567484D01*
X152829378Y-65533535D01*
X152928802Y-65384736D01*
X152997287Y-65219400D01*
X153032200Y-65043879D01*
X153032200Y-64864921D01*
X152997287Y-64689400D01*
X152928802Y-64524064D01*
X152829378Y-64375265D01*
X152702835Y-64248722D01*
X152554036Y-64149298D01*
X152437129Y-64100873D01*
X152388703Y-64080814D01*
X152388701Y-64080813D01*
X152388700Y-64080813D01*
X152300345Y-64063238D01*
X152213181Y-64045900D01*
X152213179Y-64045900D01*
X152034221Y-64045900D01*
X152034218Y-64045900D01*
X151903471Y-64071907D01*
X151858700Y-64080813D01*
X151858699Y-64080813D01*
X151858696Y-64080814D01*
X151693362Y-64149299D01*
X151544569Y-64248719D01*
X151544562Y-64248724D01*
X151418024Y-64375262D01*
X151418019Y-64375269D01*
X151329384Y-64507922D01*
X151318598Y-64524064D01*
X151314041Y-64535065D01*
X151250114Y-64689396D01*
X151215200Y-64864918D01*
X151215200Y-65043881D01*
X151231693Y-65126796D01*
X151249830Y-65217978D01*
X151250114Y-65219403D01*
X151265438Y-65256398D01*
X151318598Y-65384736D01*
X151418022Y-65533535D01*
X151418024Y-65533537D01*
X151453295Y-65568808D01*
X151468239Y-65596176D01*
X151485096Y-65622405D01*
X151486001Y-65628703D01*
X151487321Y-65631120D01*
X151490200Y-65657903D01*
X151490200Y-65765605D01*
X151470198Y-65833726D01*
X151453295Y-65854700D01*
X151276400Y-66031595D01*
X151214088Y-66065621D01*
X151187305Y-66068500D01*
X151137415Y-66068500D01*
X151107471Y-66074457D01*
X151036757Y-66068129D01*
X150980690Y-66024574D01*
X150957071Y-65957622D01*
X150958440Y-65931172D01*
X150964500Y-65892916D01*
X150964500Y-65679084D01*
X150931049Y-65467884D01*
X150864972Y-65264517D01*
X150767894Y-65073991D01*
X150642206Y-64900996D01*
X150642203Y-64900993D01*
X150642201Y-64900990D01*
X150491009Y-64749798D01*
X150491006Y-64749796D01*
X150491004Y-64749794D01*
X150318009Y-64624106D01*
X150318007Y-64624105D01*
X150316920Y-64623439D01*
X150316591Y-64623075D01*
X150314004Y-64621196D01*
X150314398Y-64620652D01*
X150269283Y-64570796D01*
X150257670Y-64500756D01*
X150285766Y-64435555D01*
X150314130Y-64410978D01*
X150314004Y-64410804D01*
X150316030Y-64409331D01*
X150316920Y-64408561D01*
X150317997Y-64407899D01*
X150318009Y-64407894D01*
X150491004Y-64282206D01*
X150642206Y-64131004D01*
X150767894Y-63958009D01*
X150864972Y-63767483D01*
X150931049Y-63564116D01*
X150964500Y-63352916D01*
X150964500Y-63139084D01*
X150931049Y-62927884D01*
X150864972Y-62724517D01*
X150767894Y-62533991D01*
X150642206Y-62360996D01*
X150642203Y-62360993D01*
X150642201Y-62360990D01*
X150491009Y-62209798D01*
X150491006Y-62209796D01*
X150491004Y-62209794D01*
X150318009Y-62084106D01*
X150318007Y-62084105D01*
X150316920Y-62083439D01*
X150316591Y-62083075D01*
X150314004Y-62081196D01*
X150314398Y-62080652D01*
X150269283Y-62030796D01*
X150257670Y-61960756D01*
X150285766Y-61895555D01*
X150314130Y-61870978D01*
X150314004Y-61870804D01*
X150316030Y-61869331D01*
X150316920Y-61868561D01*
X150317997Y-61867899D01*
X150318009Y-61867894D01*
X150491004Y-61742206D01*
X150642206Y-61591004D01*
X150767894Y-61418009D01*
X150864972Y-61227483D01*
X150931049Y-61024116D01*
X150964500Y-60812916D01*
X150964500Y-60599084D01*
X150931049Y-60387884D01*
X150864972Y-60184517D01*
X150767894Y-59993991D01*
X150646612Y-59827061D01*
X154140000Y-59827061D01*
X154140000Y-60032938D01*
X154172208Y-60236296D01*
X154235826Y-60432093D01*
X154235829Y-60432099D01*
X154329297Y-60615540D01*
X154329298Y-60615541D01*
X154360416Y-60658372D01*
X155048000Y-59970788D01*
X155048000Y-59982661D01*
X155075259Y-60084394D01*
X155127920Y-60175606D01*
X155202394Y-60250080D01*
X155293606Y-60302741D01*
X155395339Y-60330000D01*
X155407210Y-60330000D01*
X154719626Y-61017582D01*
X154719626Y-61017583D01*
X154762454Y-61048699D01*
X154945900Y-61142170D01*
X154945906Y-61142173D01*
X155141705Y-61205791D01*
X155141701Y-61205791D01*
X155345061Y-61238000D01*
X155550939Y-61238000D01*
X155754296Y-61205791D01*
X155950093Y-61142173D01*
X155950099Y-61142170D01*
X156133541Y-61048701D01*
X156176372Y-61017582D01*
X156176372Y-61017581D01*
X155488791Y-60330000D01*
X155500661Y-60330000D01*
X155602394Y-60302741D01*
X155693606Y-60250080D01*
X155768080Y-60175606D01*
X155820741Y-60084394D01*
X155848000Y-59982661D01*
X155848000Y-59970791D01*
X156535581Y-60658372D01*
X156535582Y-60658372D01*
X156566701Y-60615541D01*
X156660170Y-60432099D01*
X156660173Y-60432093D01*
X156723791Y-60236296D01*
X156756000Y-60032938D01*
X156756000Y-59827061D01*
X156723791Y-59623703D01*
X156660173Y-59427906D01*
X156660170Y-59427900D01*
X156566699Y-59244454D01*
X156535583Y-59201626D01*
X156535582Y-59201626D01*
X155848000Y-59889208D01*
X155848000Y-59877339D01*
X155820741Y-59775606D01*
X155768080Y-59684394D01*
X155693606Y-59609920D01*
X155602394Y-59557259D01*
X155500661Y-59530000D01*
X155488790Y-59530000D01*
X156176372Y-58842416D01*
X156133541Y-58811298D01*
X156133540Y-58811297D01*
X155950099Y-58717829D01*
X155950093Y-58717826D01*
X155754294Y-58654208D01*
X155754298Y-58654208D01*
X155550939Y-58622000D01*
X155345061Y-58622000D01*
X155141703Y-58654208D01*
X154945906Y-58717826D01*
X154945900Y-58717829D01*
X154762452Y-58811301D01*
X154719625Y-58842416D01*
X155407209Y-59530000D01*
X155395339Y-59530000D01*
X155293606Y-59557259D01*
X155202394Y-59609920D01*
X155127920Y-59684394D01*
X155075259Y-59775606D01*
X155048000Y-59877339D01*
X155048000Y-59889209D01*
X154360416Y-59201625D01*
X154329301Y-59244452D01*
X154235829Y-59427900D01*
X154235826Y-59427906D01*
X154172208Y-59623703D01*
X154140000Y-59827061D01*
X150646612Y-59827061D01*
X150642204Y-59820993D01*
X150491009Y-59669798D01*
X150491006Y-59669796D01*
X150491004Y-59669794D01*
X150318009Y-59544106D01*
X150318007Y-59544105D01*
X150316920Y-59543439D01*
X150316591Y-59543075D01*
X150314004Y-59541196D01*
X150314398Y-59540652D01*
X150269283Y-59490796D01*
X150257670Y-59420756D01*
X150285766Y-59355555D01*
X150314130Y-59330978D01*
X150314004Y-59330804D01*
X150316030Y-59329331D01*
X150316920Y-59328561D01*
X150317997Y-59327899D01*
X150318009Y-59327894D01*
X150491004Y-59202206D01*
X150642206Y-59051004D01*
X150767894Y-58878009D01*
X150801884Y-58811301D01*
X150807995Y-58799304D01*
X150864972Y-58687483D01*
X150931049Y-58484116D01*
X150964500Y-58272916D01*
X150964500Y-58059084D01*
X150931049Y-57847884D01*
X150864972Y-57644517D01*
X150767894Y-57453991D01*
X150642206Y-57280996D01*
X150642203Y-57280993D01*
X150642201Y-57280990D01*
X150491009Y-57129798D01*
X150491006Y-57129796D01*
X150491004Y-57129794D01*
X150318009Y-57004106D01*
X150318007Y-57004105D01*
X150316920Y-57003439D01*
X150316591Y-57003075D01*
X150314004Y-57001196D01*
X150314398Y-57000652D01*
X150269283Y-56950796D01*
X150257670Y-56880756D01*
X150285766Y-56815555D01*
X150314130Y-56790978D01*
X150314004Y-56790804D01*
X150316030Y-56789331D01*
X150316920Y-56788561D01*
X150317997Y-56787899D01*
X150318009Y-56787894D01*
X150491004Y-56662206D01*
X150642206Y-56511004D01*
X150767894Y-56338009D01*
X150864972Y-56147483D01*
X150931049Y-55944116D01*
X150964500Y-55732916D01*
X150964500Y-55519084D01*
X150931049Y-55307884D01*
X150864972Y-55104517D01*
X150767894Y-54913991D01*
X150642206Y-54740996D01*
X150642203Y-54740993D01*
X150642201Y-54740990D01*
X150491009Y-54589798D01*
X150491006Y-54589796D01*
X150491004Y-54589794D01*
X150318009Y-54464106D01*
X150127483Y-54367028D01*
X150127480Y-54367027D01*
X150127478Y-54367026D01*
X149924120Y-54300952D01*
X149924123Y-54300952D01*
X149864773Y-54291552D01*
X149712916Y-54267500D01*
X149499084Y-54267500D01*
X149287884Y-54300951D01*
X149287878Y-54300952D01*
X149084521Y-54367026D01*
X149084515Y-54367029D01*
X148893987Y-54464108D01*
X148720995Y-54589794D01*
X148618018Y-54692771D01*
X148555706Y-54726796D01*
X148484890Y-54721730D01*
X148428054Y-54679184D01*
X148410871Y-54647715D01*
X148366889Y-54529796D01*
X148366886Y-54529792D01*
X148366886Y-54529791D01*
X148279261Y-54412738D01*
X148162207Y-54325112D01*
X148162202Y-54325110D01*
X148025204Y-54274011D01*
X148025196Y-54274009D01*
X147964649Y-54267500D01*
X147964638Y-54267500D01*
X146167362Y-54267500D01*
X146167350Y-54267500D01*
X146106803Y-54274009D01*
X146106795Y-54274011D01*
X145969797Y-54325110D01*
X145969792Y-54325112D01*
X145852738Y-54412738D01*
X145765112Y-54529792D01*
X145765110Y-54529797D01*
X145714011Y-54666795D01*
X145714009Y-54666803D01*
X145707500Y-54727350D01*
X145707500Y-56043400D01*
X145687498Y-56111521D01*
X145633842Y-56158014D01*
X145581500Y-56169400D01*
X142248718Y-56169400D01*
X142126329Y-56193745D01*
X142126324Y-56193747D01*
X142026358Y-56235155D01*
X142026357Y-56235154D01*
X142011044Y-56241497D01*
X142011040Y-56241499D01*
X141907286Y-56310826D01*
X141907279Y-56310831D01*
X133459420Y-64758690D01*
X133459415Y-64758697D01*
X133397841Y-64850850D01*
X133390089Y-64862451D01*
X133342334Y-64977741D01*
X133340188Y-64988529D01*
X133317989Y-65100129D01*
X133317989Y-69115916D01*
X133297987Y-69184037D01*
X133281084Y-69205011D01*
X125432501Y-77053595D01*
X125370189Y-77087621D01*
X125343406Y-77090500D01*
X123644330Y-77090500D01*
X123576209Y-77070498D01*
X123542394Y-77038561D01*
X123494241Y-76972285D01*
X123421068Y-76871570D01*
X123421065Y-76871567D01*
X123421063Y-76871564D01*
X123275435Y-76725936D01*
X123275432Y-76725934D01*
X123275431Y-76725933D01*
X123275430Y-76725932D01*
X123196515Y-76668597D01*
X123153162Y-76612376D01*
X123147087Y-76541640D01*
X123180218Y-76478848D01*
X123230945Y-76447057D01*
X123295524Y-76425657D01*
X123446339Y-76332634D01*
X123446345Y-76332629D01*
X123571629Y-76207345D01*
X123571634Y-76207339D01*
X123664657Y-76056525D01*
X123720393Y-75888321D01*
X123720394Y-75888318D01*
X123730999Y-75784516D01*
X123731000Y-75784516D01*
X123731000Y-75438000D01*
X122734686Y-75438000D01*
X122743080Y-75429606D01*
X122795741Y-75338394D01*
X122823000Y-75236661D01*
X122823000Y-75131339D01*
X122795741Y-75029606D01*
X122743080Y-74938394D01*
X122734686Y-74930000D01*
X123731000Y-74930000D01*
X123731000Y-74583483D01*
X123720394Y-74479681D01*
X123720393Y-74479678D01*
X123664657Y-74311474D01*
X123571634Y-74160660D01*
X123571629Y-74160654D01*
X123446345Y-74035370D01*
X123446339Y-74035365D01*
X123295525Y-73942342D01*
X123127321Y-73886606D01*
X123127318Y-73886605D01*
X123023516Y-73876000D01*
X122677000Y-73876000D01*
X122677000Y-74872314D01*
X122668606Y-74863920D01*
X122577394Y-74811259D01*
X122475661Y-74784000D01*
X122370339Y-74784000D01*
X122268606Y-74811259D01*
X122177394Y-74863920D01*
X122169000Y-74872314D01*
X122169000Y-73876000D01*
X121822483Y-73876000D01*
X121718681Y-73886605D01*
X121718678Y-73886606D01*
X121550474Y-73942342D01*
X121399660Y-74035365D01*
X121399654Y-74035370D01*
X121274370Y-74160654D01*
X121274365Y-74160660D01*
X121181342Y-74311474D01*
X121125606Y-74479678D01*
X121125605Y-74479681D01*
X121115000Y-74583483D01*
X121115000Y-74930000D01*
X122111314Y-74930000D01*
X122102920Y-74938394D01*
X122050259Y-75029606D01*
X122023000Y-75131339D01*
X122023000Y-75236661D01*
X122050259Y-75338394D01*
X122102920Y-75429606D01*
X122111314Y-75438000D01*
X121115000Y-75438000D01*
X121115000Y-75784516D01*
X121125605Y-75888318D01*
X121125606Y-75888321D01*
X121181342Y-76056525D01*
X121274365Y-76207339D01*
X121274370Y-76207345D01*
X121399654Y-76332629D01*
X121399660Y-76332634D01*
X121550478Y-76425659D01*
X121615055Y-76447058D01*
X121673426Y-76487472D01*
X121700682Y-76553028D01*
X121688169Y-76622913D01*
X121649483Y-76668598D01*
X121570567Y-76725933D01*
X121424936Y-76871564D01*
X121424934Y-76871567D01*
X121303873Y-77038193D01*
X121210367Y-77221708D01*
X121210364Y-77221714D01*
X121146721Y-77417587D01*
X121146720Y-77417590D01*
X121146720Y-77417592D01*
X121114500Y-77621019D01*
X121114500Y-77826981D01*
X121140954Y-77994002D01*
X121146721Y-78030412D01*
X121200621Y-78196300D01*
X121210366Y-78226290D01*
X121303871Y-78409803D01*
X121424932Y-78576430D01*
X121424934Y-78576432D01*
X121424936Y-78576435D01*
X121570564Y-78722063D01*
X121570567Y-78722065D01*
X121570570Y-78722068D01*
X121737197Y-78843129D01*
X121812962Y-78881733D01*
X121864577Y-78930482D01*
X121881643Y-78999397D01*
X121858742Y-79066598D01*
X121812963Y-79106266D01*
X121761832Y-79132319D01*
X121737193Y-79144873D01*
X121570567Y-79265934D01*
X121570564Y-79265936D01*
X121424936Y-79411564D01*
X121424934Y-79411567D01*
X121303873Y-79578193D01*
X121210367Y-79761708D01*
X121210364Y-79761714D01*
X121146721Y-79957587D01*
X121146720Y-79957590D01*
X121146720Y-79957592D01*
X121114500Y-80161019D01*
X121114500Y-80366981D01*
X121146720Y-80570408D01*
X121146721Y-80570412D01*
X121209329Y-80763100D01*
X121210366Y-80766290D01*
X121303871Y-80949803D01*
X121424932Y-81116430D01*
X121424934Y-81116432D01*
X121424936Y-81116435D01*
X121570564Y-81262063D01*
X121570567Y-81262065D01*
X121570570Y-81262068D01*
X121737197Y-81383129D01*
X121812962Y-81421733D01*
X121864577Y-81470482D01*
X121881643Y-81539397D01*
X121858742Y-81606598D01*
X121812963Y-81646266D01*
X121791897Y-81657000D01*
X121737193Y-81684873D01*
X121570567Y-81805934D01*
X121570564Y-81805936D01*
X121424936Y-81951564D01*
X121424934Y-81951567D01*
X121303873Y-82118193D01*
X121210367Y-82301708D01*
X121210364Y-82301714D01*
X121146721Y-82497587D01*
X121146720Y-82497590D01*
X121146720Y-82497592D01*
X121114500Y-82701019D01*
X121114500Y-82906981D01*
X121145680Y-83103839D01*
X121146721Y-83110412D01*
X121204032Y-83286798D01*
X121210366Y-83306290D01*
X121303871Y-83489803D01*
X121424932Y-83656430D01*
X121424934Y-83656432D01*
X121424936Y-83656435D01*
X121570564Y-83802063D01*
X121570567Y-83802065D01*
X121570570Y-83802068D01*
X121610297Y-83830931D01*
X121737195Y-83923128D01*
X121741525Y-83925334D01*
X121761520Y-83944217D01*
X121783830Y-83960305D01*
X121786949Y-83968232D01*
X121793142Y-83974081D01*
X121799754Y-84000778D01*
X121809824Y-84026372D01*
X121809160Y-84038755D01*
X121810210Y-84042995D01*
X121807904Y-84062180D01*
X121801109Y-84096341D01*
X121791618Y-84144056D01*
X121758710Y-84206966D01*
X121740775Y-84221373D01*
X121741202Y-84221961D01*
X121570567Y-84345934D01*
X121570564Y-84345936D01*
X121424936Y-84491564D01*
X121424934Y-84491567D01*
X121303873Y-84658193D01*
X121210367Y-84841708D01*
X121210364Y-84841714D01*
X121146721Y-85037587D01*
X121146720Y-85037590D01*
X121146720Y-85037592D01*
X121114500Y-85241019D01*
X121114500Y-85446981D01*
X121146720Y-85650408D01*
X121146721Y-85650412D01*
X121182973Y-85761985D01*
X121210366Y-85846290D01*
X121297298Y-86016902D01*
X121303873Y-86029806D01*
X121330435Y-86066366D01*
X121424932Y-86196430D01*
X121424934Y-86196432D01*
X121424936Y-86196435D01*
X121570564Y-86342063D01*
X121570567Y-86342065D01*
X121570570Y-86342068D01*
X121649908Y-86399710D01*
X121737195Y-86463128D01*
X121741525Y-86465334D01*
X121761520Y-86484217D01*
X121783830Y-86500305D01*
X121786949Y-86508232D01*
X121793142Y-86514081D01*
X121799754Y-86540778D01*
X121809824Y-86566372D01*
X121809160Y-86578755D01*
X121810210Y-86582995D01*
X121807904Y-86602180D01*
X121804480Y-86619397D01*
X121791618Y-86684056D01*
X121758710Y-86746966D01*
X121740775Y-86761373D01*
X121741202Y-86761961D01*
X121570567Y-86885934D01*
X121570564Y-86885936D01*
X121424936Y-87031564D01*
X121424934Y-87031567D01*
X121303873Y-87198193D01*
X121210367Y-87381708D01*
X121210364Y-87381714D01*
X121146721Y-87577587D01*
X121146720Y-87577590D01*
X121146720Y-87577592D01*
X121114500Y-87781019D01*
X121114500Y-87986981D01*
X121146720Y-88190408D01*
X121146721Y-88190412D01*
X121209129Y-88382485D01*
X121210366Y-88386290D01*
X121299305Y-88560841D01*
X121303873Y-88569806D01*
X121317051Y-88587944D01*
X121424932Y-88736430D01*
X121424934Y-88736432D01*
X121424936Y-88736435D01*
X121570564Y-88882063D01*
X121570567Y-88882065D01*
X121570570Y-88882068D01*
X121665175Y-88950802D01*
X121737195Y-89003128D01*
X121737197Y-89003129D01*
X121739805Y-89004458D01*
X121741525Y-89005334D01*
X121761520Y-89024217D01*
X121783830Y-89040305D01*
X121786949Y-89048232D01*
X121793142Y-89054081D01*
X121799754Y-89080778D01*
X121809824Y-89106372D01*
X121809160Y-89118755D01*
X121810210Y-89122995D01*
X121807904Y-89142184D01*
X121791618Y-89224056D01*
X121758710Y-89286966D01*
X121740775Y-89301373D01*
X121741202Y-89301961D01*
X121570567Y-89425934D01*
X121570564Y-89425936D01*
X121424936Y-89571564D01*
X121424934Y-89571567D01*
X121303873Y-89738193D01*
X121210367Y-89921708D01*
X121210364Y-89921714D01*
X121146721Y-90117587D01*
X121146720Y-90117590D01*
X121146720Y-90117592D01*
X121114500Y-90321019D01*
X121114500Y-90526981D01*
X121146083Y-90726385D01*
X121146721Y-90730412D01*
X121208118Y-90919373D01*
X121210366Y-90926290D01*
X121289425Y-91081451D01*
X121303873Y-91109806D01*
X121313899Y-91123606D01*
X121424932Y-91276430D01*
X121424934Y-91276432D01*
X121424936Y-91276435D01*
X121570564Y-91422063D01*
X121570567Y-91422065D01*
X121570570Y-91422068D01*
X121658669Y-91486075D01*
X121737195Y-91543128D01*
X121741525Y-91545334D01*
X121761520Y-91564217D01*
X121783830Y-91580305D01*
X121786949Y-91588232D01*
X121793142Y-91594081D01*
X121799754Y-91620778D01*
X121809824Y-91646372D01*
X121809160Y-91658755D01*
X121810210Y-91662995D01*
X121807904Y-91682180D01*
X121802871Y-91707484D01*
X121791618Y-91764056D01*
X121758710Y-91826966D01*
X121740775Y-91841373D01*
X121741202Y-91841961D01*
X121570567Y-91965934D01*
X121570564Y-91965936D01*
X121424936Y-92111564D01*
X121424934Y-92111567D01*
X121303873Y-92278193D01*
X121210367Y-92461708D01*
X121210364Y-92461714D01*
X121146721Y-92657587D01*
X121146720Y-92657590D01*
X121146720Y-92657592D01*
X121114500Y-92861019D01*
X121114500Y-93066981D01*
X121136419Y-93205371D01*
X121146721Y-93270412D01*
X121198855Y-93430865D01*
X121210366Y-93466290D01*
X121303871Y-93649803D01*
X121424932Y-93816430D01*
X121424934Y-93816432D01*
X121424936Y-93816435D01*
X121570564Y-93962063D01*
X121570567Y-93962065D01*
X121570570Y-93962068D01*
X121737197Y-94083129D01*
X121812962Y-94121733D01*
X121864577Y-94170482D01*
X121881643Y-94239397D01*
X121858742Y-94306598D01*
X121812963Y-94346266D01*
X121778233Y-94363962D01*
X121737193Y-94384873D01*
X121570567Y-94505934D01*
X121570564Y-94505936D01*
X121424936Y-94651564D01*
X121424934Y-94651567D01*
X121303873Y-94818193D01*
X121210367Y-95001708D01*
X121210364Y-95001714D01*
X121146721Y-95197587D01*
X121146720Y-95197590D01*
X121146720Y-95197592D01*
X121114500Y-95401019D01*
X121114500Y-95606981D01*
X121146720Y-95810408D01*
X121146721Y-95810412D01*
X121209644Y-96004070D01*
X121210366Y-96006290D01*
X121303871Y-96189803D01*
X121424932Y-96356430D01*
X121424934Y-96356432D01*
X121424936Y-96356435D01*
X121570564Y-96502063D01*
X121570567Y-96502065D01*
X121570570Y-96502068D01*
X121737197Y-96623129D01*
X121812962Y-96661733D01*
X121864577Y-96710482D01*
X121881643Y-96779397D01*
X121858742Y-96846598D01*
X121812963Y-96886266D01*
X121744033Y-96921387D01*
X121737193Y-96924873D01*
X121570567Y-97045934D01*
X121570564Y-97045936D01*
X121424936Y-97191564D01*
X121424934Y-97191567D01*
X121303873Y-97358193D01*
X121210367Y-97541708D01*
X121210364Y-97541714D01*
X121146721Y-97737587D01*
X121146720Y-97737590D01*
X121146720Y-97737592D01*
X121114500Y-97941019D01*
X121114500Y-98146981D01*
X121146720Y-98350408D01*
X121146721Y-98350412D01*
X121200012Y-98514426D01*
X121210366Y-98546290D01*
X121303871Y-98729803D01*
X121418207Y-98887174D01*
X121442066Y-98954041D01*
X121425985Y-99023192D01*
X121405367Y-99050329D01*
X120871167Y-99584529D01*
X120782931Y-99672764D01*
X120782926Y-99672771D01*
X120713601Y-99776523D01*
X120677086Y-99864678D01*
X120665845Y-99891815D01*
X120658966Y-99926400D01*
X120641500Y-100014203D01*
X120641500Y-100014206D01*
X120641500Y-106148406D01*
X120641500Y-106273194D01*
X120665845Y-106395585D01*
X120713600Y-106510875D01*
X120782929Y-106614633D01*
X120782931Y-106614635D01*
X121388786Y-107220490D01*
X121422812Y-107282802D01*
X121417747Y-107353617D01*
X121401627Y-107383646D01*
X121303873Y-107518193D01*
X121210367Y-107701708D01*
X121210364Y-107701714D01*
X121146721Y-107897587D01*
X121146720Y-107897590D01*
X121146720Y-107897592D01*
X121114500Y-108101019D01*
X121114500Y-108306981D01*
X121137997Y-108455331D01*
X121146721Y-108510412D01*
X121205155Y-108690254D01*
X121210366Y-108706290D01*
X121303871Y-108889803D01*
X121424932Y-109056430D01*
X121424934Y-109056432D01*
X121424936Y-109056435D01*
X121570564Y-109202063D01*
X121570567Y-109202065D01*
X121570570Y-109202068D01*
X121657332Y-109265104D01*
X121737195Y-109323128D01*
X121741525Y-109325334D01*
X121761520Y-109344217D01*
X121783830Y-109360305D01*
X121786949Y-109368232D01*
X121793142Y-109374081D01*
X121799754Y-109400778D01*
X121809824Y-109426372D01*
X121809160Y-109438755D01*
X121810210Y-109442995D01*
X121807904Y-109462180D01*
X121806787Y-109467800D01*
X121791618Y-109544056D01*
X121758710Y-109606966D01*
X121740775Y-109621373D01*
X121741202Y-109621961D01*
X121570567Y-109745934D01*
X121570564Y-109745936D01*
X121424936Y-109891564D01*
X121424934Y-109891567D01*
X121303873Y-110058193D01*
X121210367Y-110241708D01*
X121210364Y-110241714D01*
X121146721Y-110437587D01*
X121146720Y-110437590D01*
X121146720Y-110437592D01*
X121114500Y-110641019D01*
X121114500Y-110846981D01*
X121146720Y-111050408D01*
X121146721Y-111050412D01*
X121195895Y-111201755D01*
X121210366Y-111246290D01*
X121303871Y-111429803D01*
X121424932Y-111596430D01*
X121424934Y-111596432D01*
X121424936Y-111596435D01*
X121570564Y-111742063D01*
X121570567Y-111742065D01*
X121570570Y-111742068D01*
X121618763Y-111777082D01*
X121737195Y-111863128D01*
X121737197Y-111863129D01*
X121740702Y-111864915D01*
X121741525Y-111865334D01*
X121761520Y-111884217D01*
X121783830Y-111900305D01*
X121786949Y-111908232D01*
X121793142Y-111914081D01*
X121799754Y-111940778D01*
X121809824Y-111966372D01*
X121809160Y-111978755D01*
X121810210Y-111982995D01*
X121807904Y-112002180D01*
X121805369Y-112014926D01*
X121791618Y-112084056D01*
X121758710Y-112146966D01*
X121740775Y-112161373D01*
X121741202Y-112161961D01*
X121570567Y-112285934D01*
X121570564Y-112285936D01*
X121424936Y-112431564D01*
X121424934Y-112431567D01*
X121303873Y-112598193D01*
X121210367Y-112781708D01*
X121210364Y-112781714D01*
X121146721Y-112977587D01*
X121146720Y-112977590D01*
X121146720Y-112977592D01*
X121114500Y-113181019D01*
X121114500Y-113386981D01*
X121135943Y-113522364D01*
X121146721Y-113590412D01*
X121201720Y-113759683D01*
X121210366Y-113786290D01*
X121303871Y-113969803D01*
X121424932Y-114136430D01*
X121424934Y-114136432D01*
X121424936Y-114136435D01*
X121570564Y-114282063D01*
X121570567Y-114282065D01*
X121570570Y-114282068D01*
X121737197Y-114403129D01*
X121812962Y-114441733D01*
X121864577Y-114490482D01*
X121881643Y-114559397D01*
X121858742Y-114626598D01*
X121812963Y-114666266D01*
X121744033Y-114701387D01*
X121737193Y-114704873D01*
X121570567Y-114825934D01*
X121570564Y-114825936D01*
X121424936Y-114971564D01*
X121424934Y-114971567D01*
X121303873Y-115138193D01*
X121210367Y-115321708D01*
X121210364Y-115321714D01*
X121146721Y-115517587D01*
X121146720Y-115517590D01*
X121146720Y-115517592D01*
X121114500Y-115721019D01*
X121114500Y-115926981D01*
X121145717Y-116124075D01*
X121146721Y-116130412D01*
X121207045Y-116316071D01*
X121210366Y-116326290D01*
X121303871Y-116509803D01*
X121424932Y-116676430D01*
X121424934Y-116676432D01*
X121424936Y-116676435D01*
X121570564Y-116822063D01*
X121570567Y-116822065D01*
X121570570Y-116822068D01*
X121737197Y-116943129D01*
X121812962Y-116981733D01*
X121864577Y-117030482D01*
X121881643Y-117099397D01*
X121858742Y-117166598D01*
X121812963Y-117206266D01*
X121744033Y-117241387D01*
X121737193Y-117244873D01*
X121570567Y-117365934D01*
X121570564Y-117365936D01*
X121424936Y-117511564D01*
X121424934Y-117511567D01*
X121303873Y-117678193D01*
X121210367Y-117861708D01*
X121210364Y-117861714D01*
X121146721Y-118057587D01*
X121146720Y-118057590D01*
X121146720Y-118057592D01*
X121114500Y-118261019D01*
X121114500Y-118466981D01*
X121146720Y-118670408D01*
X121146721Y-118670412D01*
X121181476Y-118777378D01*
X121210366Y-118866290D01*
X121303871Y-119049803D01*
X121303873Y-119049806D01*
X121307502Y-119054801D01*
X121424932Y-119216430D01*
X121424934Y-119216432D01*
X121424936Y-119216435D01*
X121570564Y-119362063D01*
X121570567Y-119362065D01*
X121570570Y-119362068D01*
X121737197Y-119483129D01*
X121812962Y-119521733D01*
X121864577Y-119570482D01*
X121881643Y-119639397D01*
X121858742Y-119706598D01*
X121812963Y-119746266D01*
X121800346Y-119752695D01*
X121737193Y-119784873D01*
X121570567Y-119905934D01*
X121570564Y-119905936D01*
X121424936Y-120051564D01*
X121424934Y-120051567D01*
X121303873Y-120218193D01*
X121210367Y-120401708D01*
X121210364Y-120401714D01*
X121146721Y-120597587D01*
X121146720Y-120597590D01*
X121146720Y-120597592D01*
X121114500Y-120801019D01*
X121114500Y-121006981D01*
X121146720Y-121210408D01*
X121146721Y-121210412D01*
X121207045Y-121396071D01*
X121210366Y-121406290D01*
X121303871Y-121589803D01*
X121424932Y-121756430D01*
X121424934Y-121756432D01*
X121424936Y-121756435D01*
X121570564Y-121902063D01*
X121570567Y-121902065D01*
X121570570Y-121902068D01*
X121737197Y-122023129D01*
X121812962Y-122061733D01*
X121864577Y-122110482D01*
X121881643Y-122179397D01*
X121858742Y-122246598D01*
X121812963Y-122286266D01*
X121768738Y-122308800D01*
X121737193Y-122324873D01*
X121570567Y-122445934D01*
X121570564Y-122445936D01*
X121424936Y-122591564D01*
X121424934Y-122591567D01*
X121303873Y-122758193D01*
X121210367Y-122941708D01*
X121210364Y-122941714D01*
X121163235Y-123086763D01*
X121146720Y-123137592D01*
X121114500Y-123341019D01*
X121114500Y-123546981D01*
X121134915Y-123675873D01*
X121146721Y-123750412D01*
X121207045Y-123936071D01*
X121210366Y-123946290D01*
X121303871Y-124129803D01*
X121303873Y-124129806D01*
X121333802Y-124170999D01*
X121424932Y-124296430D01*
X121424934Y-124296432D01*
X121424936Y-124296435D01*
X121570564Y-124442063D01*
X121570567Y-124442065D01*
X121570570Y-124442068D01*
X121737197Y-124563129D01*
X121920710Y-124656634D01*
X122116592Y-124720280D01*
X122320019Y-124752500D01*
X122320022Y-124752500D01*
X122525978Y-124752500D01*
X122525981Y-124752500D01*
X122729408Y-124720280D01*
X122925290Y-124656634D01*
X123108803Y-124563129D01*
X123275430Y-124442068D01*
X123421068Y-124296430D01*
X123539852Y-124132937D01*
X123545039Y-124125798D01*
X123546803Y-124127079D01*
X123592657Y-124085534D01*
X123622939Y-124075382D01*
X123734685Y-124053155D01*
X123849975Y-124005400D01*
X123953733Y-123936071D01*
X125266752Y-122623050D01*
X125329061Y-122589028D01*
X125399876Y-122594092D01*
X125444939Y-122623052D01*
X125571365Y-122749478D01*
X125720164Y-122848902D01*
X125885500Y-122917387D01*
X126061021Y-122952300D01*
X126061022Y-122952300D01*
X126239978Y-122952300D01*
X126239979Y-122952300D01*
X126415500Y-122917387D01*
X126580836Y-122848902D01*
X126729635Y-122749478D01*
X126856178Y-122622935D01*
X126955602Y-122474136D01*
X127024087Y-122308800D01*
X127059000Y-122133279D01*
X127059000Y-122083394D01*
X127079002Y-122015273D01*
X127095905Y-121994299D01*
X127325599Y-121764605D01*
X127387911Y-121730579D01*
X127414694Y-121727700D01*
X128116523Y-121727700D01*
X128184644Y-121747702D01*
X128231137Y-121801358D01*
X128240795Y-121854049D01*
X128242500Y-121854049D01*
X128242500Y-122239405D01*
X128222498Y-122307526D01*
X128205595Y-122328500D01*
X126596167Y-123937929D01*
X126507931Y-124026164D01*
X126507926Y-124026171D01*
X126438680Y-124129806D01*
X126438600Y-124129925D01*
X126418821Y-124177675D01*
X126398139Y-124227607D01*
X126390845Y-124245215D01*
X126388009Y-124259475D01*
X126366500Y-124367603D01*
X126366500Y-126794670D01*
X126346498Y-126862791D01*
X126314561Y-126896606D01*
X126147567Y-127017934D01*
X126147564Y-127017936D01*
X126001936Y-127163564D01*
X126001934Y-127163567D01*
X125880873Y-127330193D01*
X125787367Y-127513708D01*
X125787364Y-127513714D01*
X125723721Y-127709587D01*
X125723720Y-127709590D01*
X125723720Y-127709592D01*
X125691500Y-127913019D01*
X125691500Y-128118981D01*
X125716481Y-128276703D01*
X125723721Y-128322412D01*
X125762589Y-128442036D01*
X125787366Y-128518290D01*
X125880871Y-128701803D01*
X126001932Y-128868430D01*
X126001934Y-128868432D01*
X126001936Y-128868435D01*
X126147564Y-129014063D01*
X126147567Y-129014065D01*
X126147570Y-129014068D01*
X126314197Y-129135129D01*
X126497710Y-129228634D01*
X126693592Y-129292280D01*
X126897019Y-129324500D01*
X126897022Y-129324500D01*
X127102978Y-129324500D01*
X127102981Y-129324500D01*
X127306408Y-129292280D01*
X127502290Y-129228634D01*
X127685803Y-129135129D01*
X127852430Y-129014068D01*
X127998068Y-128868430D01*
X128119129Y-128701803D01*
X128212634Y-128518290D01*
X128276280Y-128322408D01*
X128308500Y-128118981D01*
X128308500Y-127913019D01*
X128276280Y-127709592D01*
X128212634Y-127513710D01*
X128119129Y-127330197D01*
X127998068Y-127163570D01*
X127998065Y-127163567D01*
X127998063Y-127163564D01*
X127852435Y-127017936D01*
X127852432Y-127017934D01*
X127852430Y-127017932D01*
X127749370Y-126943055D01*
X127685439Y-126896606D01*
X127642085Y-126840384D01*
X127633500Y-126794670D01*
X127633500Y-124744594D01*
X127653502Y-124676473D01*
X127670405Y-124655499D01*
X128277698Y-124048206D01*
X128886452Y-123439451D01*
X128890524Y-123437228D01*
X128893035Y-123433322D01*
X128921401Y-123420367D01*
X128948762Y-123405428D01*
X128954571Y-123405220D01*
X128957616Y-123403830D01*
X128971065Y-123404631D01*
X128993480Y-123403831D01*
X129000901Y-123404898D01*
X129057268Y-123420002D01*
X129190174Y-123437500D01*
X129227613Y-123437500D01*
X129236535Y-123438783D01*
X129260957Y-123449937D01*
X129286721Y-123457502D01*
X129292746Y-123464456D01*
X129301115Y-123468278D01*
X129315629Y-123490864D01*
X129333214Y-123511158D01*
X129335538Y-123521845D01*
X129339497Y-123528005D01*
X129339496Y-123540039D01*
X129344600Y-123563500D01*
X129344600Y-123643281D01*
X129348933Y-123665063D01*
X129377170Y-123807022D01*
X129379514Y-123818803D01*
X129388086Y-123839498D01*
X129447998Y-123984136D01*
X129547422Y-124132935D01*
X129673965Y-124259478D01*
X129822764Y-124358902D01*
X129988100Y-124427387D01*
X130163621Y-124462300D01*
X130163622Y-124462300D01*
X130348769Y-124462300D01*
X130348769Y-124463976D01*
X130410590Y-124475701D01*
X130462118Y-124524542D01*
X130479061Y-124593487D01*
X130456039Y-124660647D01*
X130423188Y-124692630D01*
X130306469Y-124770619D01*
X130306462Y-124770624D01*
X130179924Y-124897162D01*
X130179919Y-124897169D01*
X130080499Y-125045962D01*
X130012014Y-125211296D01*
X130012013Y-125211299D01*
X130012013Y-125211300D01*
X130008139Y-125230776D01*
X129977100Y-125386818D01*
X129977100Y-125565781D01*
X130012014Y-125741303D01*
X130013708Y-125745393D01*
X130080498Y-125906636D01*
X130179922Y-126055435D01*
X130179924Y-126055437D01*
X130215195Y-126090708D01*
X130249221Y-126153020D01*
X130252100Y-126179803D01*
X130252100Y-127009006D01*
X130232098Y-127077127D01*
X130215195Y-127098101D01*
X125761031Y-131552264D01*
X125761026Y-131552271D01*
X125695994Y-131649599D01*
X125691700Y-131656025D01*
X125671921Y-131703775D01*
X125643946Y-131771312D01*
X125619600Y-131893703D01*
X125619600Y-131954000D01*
X125599598Y-132022121D01*
X125545942Y-132068614D01*
X125493600Y-132080000D01*
X120379600Y-132080000D01*
X120311479Y-132059998D01*
X120264986Y-132006342D01*
X120253600Y-131954000D01*
X120253600Y-71525061D01*
X121454000Y-71525061D01*
X121454000Y-71730938D01*
X121486208Y-71934296D01*
X121549826Y-72130093D01*
X121549829Y-72130099D01*
X121643297Y-72313540D01*
X121643298Y-72313541D01*
X121674416Y-72356372D01*
X122362000Y-71668788D01*
X122362000Y-71680661D01*
X122389259Y-71782394D01*
X122441920Y-71873606D01*
X122516394Y-71948080D01*
X122607606Y-72000741D01*
X122709339Y-72028000D01*
X122721210Y-72028000D01*
X122033626Y-72715582D01*
X122033626Y-72715583D01*
X122076454Y-72746699D01*
X122259900Y-72840170D01*
X122259906Y-72840173D01*
X122455705Y-72903791D01*
X122455701Y-72903791D01*
X122659061Y-72936000D01*
X122864939Y-72936000D01*
X123068296Y-72903791D01*
X123264093Y-72840173D01*
X123264099Y-72840170D01*
X123447541Y-72746701D01*
X123490372Y-72715582D01*
X123490372Y-72715581D01*
X122802791Y-72028000D01*
X122814661Y-72028000D01*
X122916394Y-72000741D01*
X123007606Y-71948080D01*
X123082080Y-71873606D01*
X123134741Y-71782394D01*
X123162000Y-71680661D01*
X123162000Y-71668791D01*
X123849581Y-72356372D01*
X123849582Y-72356372D01*
X123880701Y-72313541D01*
X123974170Y-72130099D01*
X123974173Y-72130093D01*
X124037791Y-71934296D01*
X124070000Y-71730938D01*
X124070000Y-71525061D01*
X124069993Y-71525019D01*
X126453500Y-71525019D01*
X126453500Y-71730981D01*
X126485720Y-71934408D01*
X126485721Y-71934412D01*
X126498327Y-71973210D01*
X126549366Y-72130290D01*
X126642871Y-72313803D01*
X126763932Y-72480430D01*
X126763934Y-72480432D01*
X126763936Y-72480435D01*
X126909564Y-72626063D01*
X126909567Y-72626065D01*
X126909570Y-72626068D01*
X127076197Y-72747129D01*
X127259710Y-72840634D01*
X127455592Y-72904280D01*
X127659019Y-72936500D01*
X127659022Y-72936500D01*
X127864978Y-72936500D01*
X127864981Y-72936500D01*
X128068408Y-72904280D01*
X128264290Y-72840634D01*
X128447803Y-72747129D01*
X128614430Y-72626068D01*
X128760068Y-72480430D01*
X128881129Y-72313803D01*
X128974634Y-72130290D01*
X129038280Y-71934408D01*
X129070500Y-71730981D01*
X129070500Y-71525019D01*
X129038280Y-71321592D01*
X128974634Y-71125710D01*
X128881129Y-70942197D01*
X128760068Y-70775570D01*
X128760065Y-70775567D01*
X128760063Y-70775564D01*
X128614435Y-70629936D01*
X128614432Y-70629934D01*
X128614430Y-70629932D01*
X128448391Y-70509298D01*
X128447806Y-70508873D01*
X128447805Y-70508872D01*
X128447803Y-70508871D01*
X128264290Y-70415366D01*
X128264287Y-70415365D01*
X128264285Y-70415364D01*
X128068412Y-70351721D01*
X128068410Y-70351720D01*
X128068408Y-70351720D01*
X127864981Y-70319500D01*
X127659019Y-70319500D01*
X127455592Y-70351720D01*
X127455590Y-70351720D01*
X127455587Y-70351721D01*
X127259714Y-70415364D01*
X127259708Y-70415367D01*
X127076193Y-70508873D01*
X126909567Y-70629934D01*
X126909564Y-70629936D01*
X126763936Y-70775564D01*
X126763934Y-70775567D01*
X126642873Y-70942193D01*
X126549367Y-71125708D01*
X126549364Y-71125714D01*
X126485721Y-71321587D01*
X126485720Y-71321590D01*
X126485720Y-71321592D01*
X126453500Y-71525019D01*
X124069993Y-71525019D01*
X124037791Y-71321703D01*
X123974173Y-71125906D01*
X123974170Y-71125900D01*
X123880699Y-70942454D01*
X123849583Y-70899626D01*
X123849582Y-70899626D01*
X123162000Y-71587208D01*
X123162000Y-71575339D01*
X123134741Y-71473606D01*
X123082080Y-71382394D01*
X123007606Y-71307920D01*
X122916394Y-71255259D01*
X122814661Y-71228000D01*
X122802790Y-71228000D01*
X123490372Y-70540416D01*
X123447541Y-70509298D01*
X123447540Y-70509297D01*
X123264099Y-70415829D01*
X123264093Y-70415826D01*
X123068294Y-70352208D01*
X123068298Y-70352208D01*
X122864939Y-70320000D01*
X122659061Y-70320000D01*
X122455703Y-70352208D01*
X122259906Y-70415826D01*
X122259900Y-70415829D01*
X122076452Y-70509301D01*
X122033625Y-70540416D01*
X122721209Y-71228000D01*
X122709339Y-71228000D01*
X122607606Y-71255259D01*
X122516394Y-71307920D01*
X122441920Y-71382394D01*
X122389259Y-71473606D01*
X122362000Y-71575339D01*
X122362000Y-71587209D01*
X121674416Y-70899625D01*
X121643301Y-70942452D01*
X121549829Y-71125900D01*
X121549826Y-71125906D01*
X121486208Y-71321703D01*
X121454000Y-71525061D01*
X120253600Y-71525061D01*
X120253600Y-68183778D01*
X129075500Y-68183778D01*
X129075500Y-68404222D01*
X129109985Y-68621951D01*
X129109986Y-68621954D01*
X129166221Y-68795032D01*
X129178105Y-68831606D01*
X129271637Y-69015170D01*
X129278187Y-69028025D01*
X129310220Y-69072114D01*
X129407758Y-69206365D01*
X129407760Y-69206367D01*
X129407762Y-69206370D01*
X129563629Y-69362237D01*
X129563632Y-69362239D01*
X129563635Y-69362242D01*
X129741978Y-69491815D01*
X129938394Y-69591895D01*
X130148049Y-69660015D01*
X130365778Y-69694500D01*
X130365781Y-69694500D01*
X130586219Y-69694500D01*
X130586222Y-69694500D01*
X130803951Y-69660015D01*
X131013606Y-69591895D01*
X131210022Y-69491815D01*
X131388365Y-69362242D01*
X131544242Y-69206365D01*
X131673815Y-69028022D01*
X131773895Y-68831606D01*
X131842015Y-68621951D01*
X131876500Y-68404222D01*
X131876500Y-68183778D01*
X131842015Y-67966049D01*
X131773895Y-67756394D01*
X131673815Y-67559978D01*
X131544242Y-67381635D01*
X131544239Y-67381632D01*
X131544237Y-67381629D01*
X131388370Y-67225762D01*
X131388367Y-67225760D01*
X131388365Y-67225758D01*
X131245384Y-67121877D01*
X131210025Y-67096187D01*
X131210024Y-67096186D01*
X131210022Y-67096185D01*
X131013606Y-66996105D01*
X131013603Y-66996104D01*
X131013601Y-66996103D01*
X130803954Y-66927986D01*
X130803951Y-66927985D01*
X130586222Y-66893500D01*
X130365778Y-66893500D01*
X130148049Y-66927985D01*
X130148046Y-66927985D01*
X130148045Y-66927986D01*
X129938398Y-66996103D01*
X129938392Y-66996106D01*
X129741974Y-67096187D01*
X129563632Y-67225760D01*
X129563629Y-67225762D01*
X129407762Y-67381629D01*
X129407760Y-67381632D01*
X129278187Y-67559974D01*
X129178106Y-67756392D01*
X129178103Y-67756398D01*
X129116494Y-67946016D01*
X129109985Y-67966049D01*
X129075500Y-68183778D01*
X120253600Y-68183778D01*
X120253600Y-65667451D01*
X123868000Y-65667451D01*
X123868000Y-65920548D01*
X123907596Y-66170546D01*
X123985806Y-66411253D01*
X123985809Y-66411259D01*
X124100717Y-66636779D01*
X124173639Y-66737148D01*
X124173641Y-66737148D01*
X124873301Y-66037488D01*
X124899978Y-66101890D01*
X124971112Y-66208351D01*
X125061649Y-66298888D01*
X125168110Y-66370022D01*
X125232510Y-66396698D01*
X124532850Y-67096357D01*
X124532850Y-67096359D01*
X124633220Y-67169282D01*
X124858740Y-67284190D01*
X124858746Y-67284193D01*
X125099454Y-67362403D01*
X125099451Y-67362403D01*
X125349451Y-67402000D01*
X125602549Y-67402000D01*
X125852546Y-67362403D01*
X126093253Y-67284193D01*
X126093259Y-67284190D01*
X126318775Y-67169284D01*
X126419148Y-67096358D01*
X126419148Y-67096357D01*
X125719489Y-66396698D01*
X125783890Y-66370022D01*
X125890351Y-66298888D01*
X125980888Y-66208351D01*
X126052022Y-66101890D01*
X126078698Y-66037489D01*
X126778357Y-66737148D01*
X126778358Y-66737148D01*
X126851284Y-66636775D01*
X126966190Y-66411259D01*
X126966193Y-66411253D01*
X127044403Y-66170546D01*
X127084000Y-65920548D01*
X127084000Y-65667451D01*
X127044403Y-65417453D01*
X126966193Y-65176746D01*
X126966190Y-65176740D01*
X126851282Y-64951220D01*
X126778359Y-64850850D01*
X126778357Y-64850850D01*
X126078697Y-65550509D01*
X126052022Y-65486110D01*
X125980888Y-65379649D01*
X125890351Y-65289112D01*
X125783890Y-65217978D01*
X125719488Y-65191301D01*
X126419148Y-64491641D01*
X126419148Y-64491639D01*
X126318779Y-64418717D01*
X126093259Y-64303809D01*
X126093253Y-64303806D01*
X125852545Y-64225596D01*
X125852548Y-64225596D01*
X125602549Y-64186000D01*
X125349451Y-64186000D01*
X125099453Y-64225596D01*
X124858746Y-64303806D01*
X124858740Y-64303809D01*
X124633225Y-64418714D01*
X124633224Y-64418715D01*
X124532850Y-64491640D01*
X124532850Y-64491641D01*
X125232510Y-65191301D01*
X125168110Y-65217978D01*
X125061649Y-65289112D01*
X124971112Y-65379649D01*
X124899978Y-65486110D01*
X124873301Y-65550510D01*
X124173641Y-64850850D01*
X124173640Y-64850850D01*
X124100715Y-64951224D01*
X124100714Y-64951225D01*
X123985809Y-65176740D01*
X123985806Y-65176746D01*
X123907596Y-65417453D01*
X123868000Y-65667451D01*
X120253600Y-65667451D01*
X120253600Y-63183778D01*
X121575500Y-63183778D01*
X121575500Y-63404222D01*
X121609985Y-63621951D01*
X121609986Y-63621954D01*
X121666433Y-63795685D01*
X121678105Y-63831606D01*
X121778185Y-64028022D01*
X121907758Y-64206365D01*
X121907760Y-64206367D01*
X121907762Y-64206370D01*
X122063629Y-64362237D01*
X122063632Y-64362239D01*
X122063635Y-64362242D01*
X122241978Y-64491815D01*
X122438394Y-64591895D01*
X122648049Y-64660015D01*
X122865778Y-64694500D01*
X122865781Y-64694500D01*
X123086219Y-64694500D01*
X123086222Y-64694500D01*
X123303951Y-64660015D01*
X123513606Y-64591895D01*
X123710022Y-64491815D01*
X123888365Y-64362242D01*
X124044242Y-64206365D01*
X124173815Y-64028022D01*
X124273895Y-63831606D01*
X124342015Y-63621951D01*
X124376500Y-63404222D01*
X124376500Y-63183778D01*
X129075500Y-63183778D01*
X129075500Y-63404222D01*
X129109985Y-63621951D01*
X129109986Y-63621954D01*
X129166433Y-63795685D01*
X129178105Y-63831606D01*
X129278185Y-64028022D01*
X129407758Y-64206365D01*
X129407760Y-64206367D01*
X129407762Y-64206370D01*
X129563629Y-64362237D01*
X129563632Y-64362239D01*
X129563635Y-64362242D01*
X129741978Y-64491815D01*
X129938394Y-64591895D01*
X130148049Y-64660015D01*
X130365778Y-64694500D01*
X130365781Y-64694500D01*
X130586219Y-64694500D01*
X130586222Y-64694500D01*
X130803951Y-64660015D01*
X131013606Y-64591895D01*
X131210022Y-64491815D01*
X131388365Y-64362242D01*
X131544242Y-64206365D01*
X131673815Y-64028022D01*
X131773895Y-63831606D01*
X131842015Y-63621951D01*
X131876500Y-63404222D01*
X131876500Y-63183778D01*
X131842015Y-62966049D01*
X131773895Y-62756394D01*
X131673815Y-62559978D01*
X131544242Y-62381635D01*
X131544239Y-62381632D01*
X131544237Y-62381629D01*
X131388370Y-62225762D01*
X131388367Y-62225760D01*
X131388365Y-62225758D01*
X131210022Y-62096185D01*
X131013606Y-61996105D01*
X131013603Y-61996104D01*
X131013601Y-61996103D01*
X130803954Y-61927986D01*
X130803951Y-61927985D01*
X130586222Y-61893500D01*
X130365778Y-61893500D01*
X130148049Y-61927985D01*
X130148046Y-61927985D01*
X130148045Y-61927986D01*
X129938398Y-61996103D01*
X129938392Y-61996106D01*
X129741974Y-62096187D01*
X129563632Y-62225760D01*
X129563629Y-62225762D01*
X129407762Y-62381629D01*
X129407760Y-62381632D01*
X129278187Y-62559974D01*
X129178106Y-62756392D01*
X129178103Y-62756398D01*
X129122387Y-62927878D01*
X129109985Y-62966049D01*
X129075500Y-63183778D01*
X124376500Y-63183778D01*
X124342015Y-62966049D01*
X124273895Y-62756394D01*
X124173815Y-62559978D01*
X124044242Y-62381635D01*
X124044239Y-62381632D01*
X124044237Y-62381629D01*
X123888370Y-62225762D01*
X123888367Y-62225760D01*
X123888365Y-62225758D01*
X123710022Y-62096185D01*
X123513606Y-61996105D01*
X123513603Y-61996104D01*
X123513601Y-61996103D01*
X123303954Y-61927986D01*
X123303951Y-61927985D01*
X123086222Y-61893500D01*
X122865778Y-61893500D01*
X122648049Y-61927985D01*
X122648046Y-61927985D01*
X122648045Y-61927986D01*
X122438398Y-61996103D01*
X122438392Y-61996106D01*
X122241974Y-62096187D01*
X122063632Y-62225760D01*
X122063629Y-62225762D01*
X121907762Y-62381629D01*
X121907760Y-62381632D01*
X121778187Y-62559974D01*
X121678106Y-62756392D01*
X121678103Y-62756398D01*
X121622387Y-62927878D01*
X121609985Y-62966049D01*
X121575500Y-63183778D01*
X120253600Y-63183778D01*
X120253600Y-51886100D01*
X120273602Y-51817979D01*
X120327258Y-51771486D01*
X120379600Y-51760100D01*
X127047965Y-51760100D01*
X127116086Y-51780102D01*
G37*
G04 #@! TD.AperFunction*
G04 #@! TA.AperFunction,Conductor*
G36*
X157889799Y-125942171D02*
G01*
X157946635Y-125984718D01*
X157947693Y-125986152D01*
X158000932Y-126059430D01*
X158000934Y-126059432D01*
X158000936Y-126059435D01*
X158146564Y-126205063D01*
X158146567Y-126205065D01*
X158146570Y-126205068D01*
X158313197Y-126326129D01*
X158313199Y-126326130D01*
X158317203Y-126329039D01*
X158315923Y-126330800D01*
X158332363Y-126348950D01*
X158355687Y-126373122D01*
X158356599Y-126375709D01*
X158357475Y-126376676D01*
X158367618Y-126406942D01*
X158381553Y-126477000D01*
X158384005Y-126489324D01*
X158377677Y-126560038D01*
X158334123Y-126616106D01*
X158317631Y-126626171D01*
X158313460Y-126628296D01*
X158313458Y-126628297D01*
X158270625Y-126659416D01*
X158958209Y-127347000D01*
X158946339Y-127347000D01*
X158844606Y-127374259D01*
X158753394Y-127426920D01*
X158678920Y-127501394D01*
X158626259Y-127592606D01*
X158599000Y-127694339D01*
X158599000Y-127706209D01*
X157911416Y-127018625D01*
X157880301Y-127061452D01*
X157786829Y-127244900D01*
X157786826Y-127244906D01*
X157723208Y-127440703D01*
X157691000Y-127644061D01*
X157691000Y-127849938D01*
X157723208Y-128053296D01*
X157786826Y-128249093D01*
X157786829Y-128249099D01*
X157880300Y-128432545D01*
X157940749Y-128515746D01*
X157964608Y-128582614D01*
X157948527Y-128651765D01*
X157897613Y-128701246D01*
X157828031Y-128715345D01*
X157790595Y-128706216D01*
X157728305Y-128680414D01*
X157552781Y-128645500D01*
X157552779Y-128645500D01*
X157373821Y-128645500D01*
X157373818Y-128645500D01*
X157198289Y-128680415D01*
X157192366Y-128682212D01*
X157191808Y-128680373D01*
X157130099Y-128686994D01*
X157066620Y-128655200D01*
X157030407Y-128594133D01*
X157026500Y-128563001D01*
X157026500Y-128212258D01*
X157040752Y-128155363D01*
X157040733Y-128155355D01*
X157040787Y-128155222D01*
X157041380Y-128152859D01*
X157043098Y-128149643D01*
X157043099Y-128149640D01*
X157043102Y-128149636D01*
X157111587Y-127984300D01*
X157146500Y-127808779D01*
X157146500Y-127629821D01*
X157111587Y-127454300D01*
X157043102Y-127288964D01*
X157001508Y-127226715D01*
X156980294Y-127158963D01*
X156999077Y-127090496D01*
X157036270Y-127051950D01*
X157122135Y-126994578D01*
X157248678Y-126868035D01*
X157348102Y-126719236D01*
X157416587Y-126553900D01*
X157451500Y-126378379D01*
X157451500Y-126328494D01*
X157471502Y-126260373D01*
X157488405Y-126239399D01*
X157756672Y-125971132D01*
X157818984Y-125937106D01*
X157889799Y-125942171D01*
G37*
G04 #@! TD.AperFunction*
G04 #@! TA.AperFunction,Conductor*
G36*
X173023003Y-118222066D02*
G01*
X173028452Y-118220962D01*
X173056704Y-118231961D01*
X173085791Y-118240502D01*
X173090805Y-118245238D01*
X173094612Y-118246720D01*
X173119606Y-118272439D01*
X173141521Y-118302602D01*
X173240932Y-118439430D01*
X173240934Y-118439432D01*
X173240936Y-118439435D01*
X173386564Y-118585063D01*
X173386567Y-118585065D01*
X173386570Y-118585068D01*
X173553197Y-118706129D01*
X173628962Y-118744733D01*
X173680577Y-118793482D01*
X173697643Y-118862397D01*
X173674742Y-118929598D01*
X173628963Y-118969266D01*
X173575541Y-118996486D01*
X173553193Y-119007873D01*
X173386567Y-119128934D01*
X173386564Y-119128936D01*
X173240936Y-119274564D01*
X173240934Y-119274567D01*
X173119873Y-119441193D01*
X173026367Y-119624708D01*
X173026364Y-119624714D01*
X172962721Y-119820587D01*
X172962720Y-119820590D01*
X172962720Y-119820592D01*
X172930500Y-120024019D01*
X172930500Y-120229981D01*
X172962720Y-120433408D01*
X172962721Y-120433412D01*
X173021917Y-120615599D01*
X173026366Y-120629290D01*
X173119871Y-120812803D01*
X173240932Y-120979430D01*
X173240934Y-120979432D01*
X173240936Y-120979435D01*
X173386564Y-121125063D01*
X173386567Y-121125065D01*
X173386570Y-121125068D01*
X173553197Y-121246129D01*
X173628962Y-121284733D01*
X173680577Y-121333482D01*
X173697643Y-121402397D01*
X173674742Y-121469598D01*
X173628963Y-121509266D01*
X173604521Y-121521720D01*
X173553193Y-121547873D01*
X173386567Y-121668934D01*
X173386564Y-121668936D01*
X173240936Y-121814564D01*
X173240934Y-121814567D01*
X173119606Y-121981561D01*
X173063384Y-122024915D01*
X173017670Y-122033500D01*
X168590203Y-122033500D01*
X168524850Y-122046500D01*
X168467815Y-122057845D01*
X168467813Y-122057845D01*
X168467812Y-122057846D01*
X168352523Y-122105601D01*
X168248771Y-122174926D01*
X168248764Y-122174931D01*
X165362401Y-125061295D01*
X165300089Y-125095321D01*
X165273306Y-125098200D01*
X165223418Y-125098200D01*
X165092671Y-125124207D01*
X165047900Y-125133113D01*
X165047899Y-125133113D01*
X165047896Y-125133114D01*
X164882562Y-125201599D01*
X164733769Y-125301019D01*
X164733762Y-125301024D01*
X164607224Y-125427562D01*
X164607219Y-125427569D01*
X164514871Y-125565779D01*
X164507798Y-125576364D01*
X164494737Y-125607895D01*
X164439314Y-125741696D01*
X164439313Y-125741699D01*
X164439313Y-125741700D01*
X164438578Y-125745394D01*
X164404400Y-125917218D01*
X164404400Y-126096181D01*
X164419243Y-126170801D01*
X164439313Y-126271700D01*
X164507798Y-126437036D01*
X164607222Y-126585835D01*
X164733765Y-126712378D01*
X164882564Y-126811802D01*
X165047900Y-126880287D01*
X165061246Y-126882941D01*
X165124155Y-126915847D01*
X165159287Y-126977542D01*
X165155488Y-127048437D01*
X165113964Y-127106023D01*
X165084884Y-127122928D01*
X164984530Y-127164497D01*
X164984525Y-127164499D01*
X164880771Y-127233826D01*
X164880764Y-127233831D01*
X164717001Y-127397595D01*
X164689632Y-127412539D01*
X164663404Y-127429396D01*
X164657105Y-127430301D01*
X164654689Y-127431621D01*
X164627906Y-127434500D01*
X164610387Y-127434500D01*
X164542266Y-127414498D01*
X164507342Y-127376633D01*
X164505339Y-127377972D01*
X164500859Y-127371267D01*
X164432571Y-127269067D01*
X164344333Y-127180829D01*
X163972205Y-126808701D01*
X163938179Y-126746389D01*
X163935300Y-126719606D01*
X163935300Y-126669722D01*
X163935299Y-126669718D01*
X163900387Y-126494200D01*
X163831902Y-126328864D01*
X163732478Y-126180065D01*
X163605935Y-126053522D01*
X163457136Y-125954098D01*
X163340229Y-125905673D01*
X163291803Y-125885614D01*
X163291801Y-125885613D01*
X163291800Y-125885613D01*
X163203445Y-125868038D01*
X163116281Y-125850700D01*
X163116279Y-125850700D01*
X163059300Y-125850700D01*
X162991179Y-125830698D01*
X162944686Y-125777042D01*
X162933300Y-125724700D01*
X162933300Y-123078095D01*
X162953302Y-123009974D01*
X162970205Y-122988999D01*
X163012494Y-122946710D01*
X163098672Y-122860533D01*
X163168001Y-122756775D01*
X163211004Y-122652955D01*
X163215755Y-122641485D01*
X163240100Y-122519094D01*
X163240100Y-122473819D01*
X163242071Y-122462806D01*
X163253124Y-122440645D01*
X163260102Y-122416882D01*
X163272895Y-122401007D01*
X163273760Y-122399274D01*
X163274783Y-122398665D01*
X163277005Y-122395908D01*
X163289014Y-122383899D01*
X163312278Y-122360635D01*
X163411702Y-122211836D01*
X163480187Y-122046500D01*
X163515100Y-121870979D01*
X163515100Y-121692021D01*
X163480187Y-121516500D01*
X163478801Y-121513155D01*
X163413026Y-121354360D01*
X163405436Y-121283770D01*
X163437215Y-121220283D01*
X163459429Y-121201378D01*
X163545335Y-121143978D01*
X163671878Y-121017435D01*
X163771302Y-120868636D01*
X163839787Y-120703300D01*
X163874700Y-120527779D01*
X163874700Y-120348821D01*
X163839787Y-120173300D01*
X163771302Y-120007964D01*
X163768209Y-120003336D01*
X163746992Y-119935585D01*
X163765772Y-119867117D01*
X163783877Y-119844236D01*
X163819198Y-119808915D01*
X163880978Y-119747135D01*
X163980402Y-119598336D01*
X164048887Y-119433000D01*
X164083800Y-119257479D01*
X164083800Y-119078521D01*
X164048887Y-118903000D01*
X163980402Y-118737664D01*
X163880978Y-118588865D01*
X163754435Y-118462322D01*
X163754432Y-118462320D01*
X163754426Y-118462315D01*
X163737888Y-118451265D01*
X163692360Y-118396789D01*
X163683511Y-118326346D01*
X163714152Y-118262301D01*
X163774554Y-118224990D01*
X163807889Y-118220500D01*
X173017670Y-118220500D01*
X173023003Y-118222066D01*
G37*
G04 #@! TD.AperFunction*
G04 #@! TA.AperFunction,Conductor*
G36*
X136443429Y-98605739D02*
G01*
X136500265Y-98648286D01*
X136511659Y-98666585D01*
X136543871Y-98729803D01*
X136543873Y-98729806D01*
X136573802Y-98770999D01*
X136664932Y-98896430D01*
X136664934Y-98896432D01*
X136664936Y-98896435D01*
X136810564Y-99042063D01*
X136810567Y-99042065D01*
X136810570Y-99042068D01*
X136977197Y-99163129D01*
X137052962Y-99201733D01*
X137104577Y-99250482D01*
X137121643Y-99319397D01*
X137098742Y-99386598D01*
X137052963Y-99426266D01*
X136984033Y-99461387D01*
X136977193Y-99464873D01*
X136810567Y-99585934D01*
X136810564Y-99585936D01*
X136664936Y-99731564D01*
X136664934Y-99731567D01*
X136543873Y-99898193D01*
X136450367Y-100081708D01*
X136450364Y-100081714D01*
X136386721Y-100277587D01*
X136386720Y-100277590D01*
X136386720Y-100277592D01*
X136354500Y-100481019D01*
X136354500Y-100686981D01*
X136386720Y-100890408D01*
X136386721Y-100890412D01*
X136448682Y-101081109D01*
X136450366Y-101086290D01*
X136543871Y-101269803D01*
X136543873Y-101269806D01*
X136641626Y-101404352D01*
X136665485Y-101471220D01*
X136649404Y-101540372D01*
X136628785Y-101567508D01*
X123406508Y-114789785D01*
X123344196Y-114823811D01*
X123273381Y-114818746D01*
X123243352Y-114802626D01*
X123108806Y-114704873D01*
X123108805Y-114704872D01*
X123108803Y-114704871D01*
X123033034Y-114666265D01*
X122981422Y-114617519D01*
X122964356Y-114548604D01*
X122987257Y-114481402D01*
X123033034Y-114441735D01*
X123108803Y-114403129D01*
X123275430Y-114282068D01*
X123421068Y-114136430D01*
X123542129Y-113969803D01*
X123635634Y-113786290D01*
X123699280Y-113590408D01*
X123731500Y-113386981D01*
X123731500Y-113181019D01*
X123699280Y-112977592D01*
X123635634Y-112781710D01*
X123542129Y-112598197D01*
X123424088Y-112435727D01*
X123400231Y-112368861D01*
X123416311Y-112299710D01*
X123436926Y-112272577D01*
X128807171Y-106902333D01*
X128876500Y-106798575D01*
X128924255Y-106683285D01*
X128948600Y-106560894D01*
X128948600Y-106436106D01*
X128948600Y-106048593D01*
X128968602Y-105980472D01*
X128985500Y-105959503D01*
X136310304Y-98634698D01*
X136372614Y-98600674D01*
X136443429Y-98605739D01*
G37*
G04 #@! TD.AperFunction*
G04 #@! TA.AperFunction,Conductor*
G36*
X151463727Y-98990002D02*
G01*
X151484701Y-99006905D01*
X151587295Y-99109499D01*
X151621321Y-99171811D01*
X151624200Y-99198594D01*
X151624200Y-99248481D01*
X151642660Y-99341284D01*
X151659113Y-99424000D01*
X151721721Y-99575148D01*
X151721840Y-99575438D01*
X151727594Y-99589328D01*
X151727597Y-99589335D01*
X151742921Y-99612269D01*
X151827022Y-99738135D01*
X151953565Y-99864678D01*
X152102364Y-99964102D01*
X152116679Y-99970031D01*
X152157554Y-99997344D01*
X152349210Y-100189000D01*
X152337339Y-100189000D01*
X152235606Y-100216259D01*
X152144394Y-100268920D01*
X152069920Y-100343394D01*
X152017259Y-100434606D01*
X151990000Y-100536339D01*
X151990000Y-100548209D01*
X151302416Y-99860625D01*
X151271301Y-99903452D01*
X151177829Y-100086900D01*
X151177826Y-100086906D01*
X151114208Y-100282703D01*
X151082000Y-100486061D01*
X151082000Y-100691938D01*
X151114208Y-100895296D01*
X151124108Y-100925764D01*
X151126136Y-100996732D01*
X151089473Y-101057529D01*
X151025761Y-101088855D01*
X151004275Y-101090700D01*
X150287508Y-101090700D01*
X150239289Y-101081109D01*
X150231288Y-101077795D01*
X150165985Y-101050745D01*
X150092286Y-101036085D01*
X150043596Y-101026400D01*
X150043594Y-101026400D01*
X149441494Y-101026400D01*
X149316706Y-101026400D01*
X149316703Y-101026400D01*
X149243668Y-101040928D01*
X149194315Y-101050745D01*
X149194313Y-101050745D01*
X149194312Y-101050746D01*
X149177937Y-101057529D01*
X149129012Y-101077795D01*
X149121011Y-101081109D01*
X149072792Y-101090700D01*
X146156250Y-101090700D01*
X146088129Y-101070698D01*
X146041636Y-101017042D01*
X146031532Y-100946768D01*
X146036417Y-100925764D01*
X146046278Y-100895413D01*
X146046280Y-100895408D01*
X146078500Y-100691981D01*
X146078500Y-100486019D01*
X146046280Y-100282592D01*
X146024330Y-100215036D01*
X146022302Y-100144068D01*
X146058965Y-100083271D01*
X146122677Y-100051945D01*
X146144163Y-100050100D01*
X148879670Y-100050100D01*
X148947791Y-100070102D01*
X148984435Y-100106098D01*
X148986397Y-100109035D01*
X148986398Y-100109036D01*
X149085822Y-100257835D01*
X149212365Y-100384378D01*
X149361164Y-100483802D01*
X149526500Y-100552287D01*
X149702021Y-100587200D01*
X149702022Y-100587200D01*
X149880978Y-100587200D01*
X149880979Y-100587200D01*
X150056500Y-100552287D01*
X150221836Y-100483802D01*
X150370635Y-100384378D01*
X150497178Y-100257835D01*
X150596602Y-100109036D01*
X150665087Y-99943700D01*
X150700000Y-99768179D01*
X150700000Y-99589221D01*
X150665087Y-99413700D01*
X150596602Y-99248364D01*
X150541569Y-99166001D01*
X150520355Y-99098248D01*
X150539138Y-99029782D01*
X150591956Y-98982339D01*
X150646335Y-98970000D01*
X151395606Y-98970000D01*
X151463727Y-98990002D01*
G37*
G04 #@! TD.AperFunction*
G04 #@! TA.AperFunction,Conductor*
G36*
X154082751Y-99955326D02*
G01*
X154101200Y-99953343D01*
X154117008Y-99961255D01*
X154134426Y-99964270D01*
X154148095Y-99976816D01*
X154164688Y-99985121D01*
X154173708Y-100000322D01*
X154186732Y-100012276D01*
X154191449Y-100030221D01*
X154200917Y-100046178D01*
X154200342Y-100064055D01*
X154204781Y-100080940D01*
X154198665Y-100116278D01*
X154172208Y-100197703D01*
X154140000Y-100401061D01*
X154140000Y-100606938D01*
X154172208Y-100810296D01*
X154209726Y-100925764D01*
X154211753Y-100996732D01*
X154175091Y-101057529D01*
X154111379Y-101088855D01*
X154089893Y-101090700D01*
X153775725Y-101090700D01*
X153707604Y-101070698D01*
X153661111Y-101017042D01*
X153651007Y-100946768D01*
X153655892Y-100925764D01*
X153665791Y-100895296D01*
X153698000Y-100691938D01*
X153698000Y-100486061D01*
X153665791Y-100282703D01*
X153626259Y-100161036D01*
X153624231Y-100090069D01*
X153660894Y-100029271D01*
X153724606Y-99997945D01*
X153746092Y-99996100D01*
X153854478Y-99996100D01*
X153854479Y-99996100D01*
X154030000Y-99961187D01*
X154030611Y-99960934D01*
X154030959Y-99960896D01*
X154035934Y-99959388D01*
X154036219Y-99960330D01*
X154048186Y-99959043D01*
X154064469Y-99952163D01*
X154082751Y-99955326D01*
G37*
G04 #@! TD.AperFunction*
G04 #@! TA.AperFunction,Conductor*
G36*
X161382327Y-96507402D02*
G01*
X161403301Y-96524305D01*
X161693795Y-96814799D01*
X161707689Y-96840244D01*
X161724235Y-96864053D01*
X161725990Y-96873758D01*
X161727821Y-96877111D01*
X161729614Y-96893795D01*
X161730618Y-96899344D01*
X161730700Y-96901613D01*
X161730700Y-96953779D01*
X161733003Y-96965359D01*
X161733369Y-96975474D01*
X161715840Y-97044273D01*
X161663898Y-97092673D01*
X161594552Y-97105214D01*
X161594543Y-97105307D01*
X161594217Y-97105274D01*
X161594035Y-97105308D01*
X161593082Y-97105163D01*
X161588379Y-97104700D01*
X161409421Y-97104700D01*
X161409418Y-97104700D01*
X161285747Y-97129300D01*
X161233900Y-97139613D01*
X161233899Y-97139613D01*
X161233896Y-97139614D01*
X161068562Y-97208099D01*
X160919769Y-97307519D01*
X160919762Y-97307524D01*
X160793224Y-97434062D01*
X160793219Y-97434069D01*
X160693799Y-97582862D01*
X160625314Y-97748196D01*
X160625313Y-97748199D01*
X160625313Y-97748200D01*
X160616631Y-97791850D01*
X160590400Y-97923718D01*
X160590400Y-98102681D01*
X160605601Y-98179100D01*
X160622700Y-98265065D01*
X160625314Y-98278203D01*
X160645373Y-98326629D01*
X160693798Y-98443536D01*
X160793222Y-98592335D01*
X160919765Y-98718878D01*
X161068564Y-98818302D01*
X161233900Y-98886787D01*
X161409421Y-98921700D01*
X161459306Y-98921700D01*
X161527427Y-98941702D01*
X161548401Y-98958605D01*
X162930601Y-100340805D01*
X162964627Y-100403117D01*
X162959562Y-100473932D01*
X162917015Y-100530768D01*
X162850495Y-100555579D01*
X162841506Y-100555900D01*
X160291593Y-100555900D01*
X160223472Y-100535898D01*
X160176979Y-100482242D01*
X160166875Y-100411968D01*
X160179326Y-100372697D01*
X160211634Y-100309290D01*
X160275280Y-100113408D01*
X160307500Y-99909981D01*
X160307500Y-99704019D01*
X160275280Y-99500592D01*
X160211634Y-99304710D01*
X160118129Y-99121197D01*
X159997068Y-98954570D01*
X159997065Y-98954567D01*
X159997063Y-98954564D01*
X159851435Y-98808936D01*
X159851432Y-98808934D01*
X159851430Y-98808932D01*
X159684803Y-98687871D01*
X159609034Y-98649265D01*
X159557422Y-98600519D01*
X159540356Y-98531604D01*
X159563257Y-98464402D01*
X159609034Y-98424735D01*
X159684803Y-98386129D01*
X159851430Y-98265068D01*
X159997068Y-98119430D01*
X160118129Y-97952803D01*
X160211634Y-97769290D01*
X160275280Y-97573408D01*
X160307500Y-97369981D01*
X160307500Y-97164019D01*
X160275280Y-96960592D01*
X160211634Y-96764710D01*
X160163682Y-96670600D01*
X160150579Y-96600827D01*
X160177279Y-96535042D01*
X160235306Y-96494135D01*
X160275950Y-96487400D01*
X161314206Y-96487400D01*
X161382327Y-96507402D01*
G37*
G04 #@! TD.AperFunction*
G04 #@! TA.AperFunction,Conductor*
G36*
X167724032Y-91207938D02*
G01*
X167780868Y-91250485D01*
X167805679Y-91317005D01*
X167806000Y-91325994D01*
X167806000Y-92084597D01*
X167812505Y-92145093D01*
X167863555Y-92281964D01*
X167863555Y-92281965D01*
X167951095Y-92398904D01*
X168068034Y-92486444D01*
X168204906Y-92537494D01*
X168265402Y-92543999D01*
X168265415Y-92544000D01*
X168910000Y-92544000D01*
X168910000Y-91616702D01*
X168971007Y-91651925D01*
X169098174Y-91686000D01*
X169229826Y-91686000D01*
X169356993Y-91651925D01*
X169418000Y-91616702D01*
X169418000Y-92544000D01*
X170062585Y-92544000D01*
X170062597Y-92543999D01*
X170123093Y-92537494D01*
X170259964Y-92486444D01*
X170259965Y-92486444D01*
X170376904Y-92398904D01*
X170464444Y-92281965D01*
X170508478Y-92163903D01*
X170551024Y-92107067D01*
X170617544Y-92082256D01*
X170686918Y-92097347D01*
X170715629Y-92118840D01*
X170818990Y-92222201D01*
X170818993Y-92222203D01*
X170818996Y-92222206D01*
X170991991Y-92347894D01*
X171182517Y-92444972D01*
X171385878Y-92511047D01*
X171385879Y-92511047D01*
X171385884Y-92511049D01*
X171597084Y-92544500D01*
X171597087Y-92544500D01*
X171810913Y-92544500D01*
X171810916Y-92544500D01*
X172022116Y-92511049D01*
X172225483Y-92444972D01*
X172416009Y-92347894D01*
X172589004Y-92222206D01*
X172740206Y-92071004D01*
X172794164Y-91996736D01*
X172850386Y-91953383D01*
X172921122Y-91947308D01*
X172983914Y-91980439D01*
X173018826Y-92042259D01*
X173022100Y-92070798D01*
X173022100Y-93079096D01*
X173028168Y-93109600D01*
X173046445Y-93201485D01*
X173094200Y-93316775D01*
X173163529Y-93420533D01*
X173163531Y-93420535D01*
X173340153Y-93597157D01*
X173374179Y-93659469D01*
X173369114Y-93730284D01*
X173340154Y-93775347D01*
X173240932Y-93874569D01*
X173119873Y-94041193D01*
X173026367Y-94224708D01*
X173026364Y-94224714D01*
X172962721Y-94420587D01*
X172962720Y-94420590D01*
X172962720Y-94420592D01*
X172930500Y-94624019D01*
X172930500Y-94829981D01*
X172962720Y-95033408D01*
X172962721Y-95033412D01*
X173016066Y-95197592D01*
X173026366Y-95229290D01*
X173119871Y-95412803D01*
X173240932Y-95579430D01*
X173240934Y-95579432D01*
X173240936Y-95579435D01*
X173386564Y-95725063D01*
X173386567Y-95725065D01*
X173386570Y-95725068D01*
X173553197Y-95846129D01*
X173628962Y-95884733D01*
X173680577Y-95933482D01*
X173697643Y-96002397D01*
X173674742Y-96069598D01*
X173628963Y-96109266D01*
X173561579Y-96143600D01*
X173553193Y-96147873D01*
X173386567Y-96268934D01*
X173386564Y-96268936D01*
X173240936Y-96414564D01*
X173240934Y-96414567D01*
X173116961Y-96585202D01*
X173115223Y-96583939D01*
X173069194Y-96625536D01*
X173039056Y-96635618D01*
X172982759Y-96646816D01*
X172927315Y-96657845D01*
X172927313Y-96657845D01*
X172927312Y-96657846D01*
X172812023Y-96705601D01*
X172708271Y-96774926D01*
X172708264Y-96774931D01*
X168964201Y-100518995D01*
X168901889Y-100553021D01*
X168875106Y-100555900D01*
X164915826Y-100555900D01*
X164847705Y-100535898D01*
X164801212Y-100482242D01*
X164791108Y-100411968D01*
X164792242Y-100405345D01*
X164817000Y-100280879D01*
X164817000Y-100101921D01*
X164782087Y-99926400D01*
X164713602Y-99761064D01*
X164614178Y-99612265D01*
X164487635Y-99485722D01*
X164338836Y-99386298D01*
X164197340Y-99327688D01*
X164173503Y-99317814D01*
X164173501Y-99317813D01*
X164173500Y-99317813D01*
X164085145Y-99300238D01*
X163997981Y-99282900D01*
X163997979Y-99282900D01*
X163819021Y-99282900D01*
X163819019Y-99282900D01*
X163819011Y-99282901D01*
X163756190Y-99295396D01*
X163685476Y-99289067D01*
X163642516Y-99260912D01*
X162444305Y-98062701D01*
X162430411Y-98037257D01*
X162413865Y-98013448D01*
X162412366Y-98004211D01*
X162410279Y-98000389D01*
X162407482Y-97978158D01*
X162407400Y-97975889D01*
X162407400Y-97923721D01*
X162405095Y-97912134D01*
X162404730Y-97902027D01*
X162411098Y-97877031D01*
X162413396Y-97851345D01*
X162419714Y-97843210D01*
X162422258Y-97833228D01*
X162441128Y-97815643D01*
X162456949Y-97795277D01*
X162466662Y-97791850D01*
X162474199Y-97784827D01*
X162499580Y-97780236D01*
X162523901Y-97771656D01*
X162540468Y-97772841D01*
X162543548Y-97772284D01*
X162543557Y-97772193D01*
X162543877Y-97772224D01*
X162544063Y-97772191D01*
X162544227Y-97772259D01*
X162549720Y-97772799D01*
X162549721Y-97772800D01*
X162549722Y-97772800D01*
X162728678Y-97772800D01*
X162728679Y-97772800D01*
X162904200Y-97737887D01*
X163069536Y-97669402D01*
X163218335Y-97569978D01*
X163344878Y-97443435D01*
X163444302Y-97294636D01*
X163512787Y-97129300D01*
X163547700Y-96953779D01*
X163547700Y-96774821D01*
X163512787Y-96599300D01*
X163444302Y-96433964D01*
X163344878Y-96285165D01*
X163218335Y-96158622D01*
X163069536Y-96059198D01*
X162941794Y-96006285D01*
X162904203Y-95990714D01*
X162904201Y-95990713D01*
X162904200Y-95990713D01*
X162815845Y-95973138D01*
X162728681Y-95955800D01*
X162728679Y-95955800D01*
X162678794Y-95955800D01*
X162610673Y-95935798D01*
X162589699Y-95918895D01*
X162256299Y-95585495D01*
X162222273Y-95523183D01*
X162227338Y-95452368D01*
X162269885Y-95395532D01*
X162336405Y-95370721D01*
X162345394Y-95370400D01*
X163257393Y-95370400D01*
X163257394Y-95370400D01*
X163379785Y-95346055D01*
X163495075Y-95298300D01*
X163598833Y-95228971D01*
X167590905Y-91236899D01*
X167653217Y-91202873D01*
X167724032Y-91207938D01*
G37*
G04 #@! TD.AperFunction*
G04 #@! TA.AperFunction,Conductor*
G36*
X140304371Y-88300140D02*
G01*
X140308159Y-88302572D01*
X140325264Y-88314002D01*
X140490600Y-88382487D01*
X140666121Y-88417400D01*
X140716006Y-88417400D01*
X140784127Y-88437402D01*
X140805101Y-88454305D01*
X143181929Y-90831133D01*
X143270167Y-90919371D01*
X143373925Y-90988700D01*
X143489215Y-91036455D01*
X143611606Y-91060800D01*
X151925006Y-91060800D01*
X151993127Y-91080802D01*
X152014101Y-91097705D01*
X154998107Y-94081711D01*
X155032133Y-94144023D01*
X155027068Y-94214838D01*
X154984521Y-94271674D01*
X154950267Y-94289437D01*
X154950282Y-94289473D01*
X154949866Y-94289644D01*
X154947954Y-94290636D01*
X154945710Y-94291366D01*
X154945708Y-94291366D01*
X154945708Y-94291367D01*
X154762193Y-94384873D01*
X154595567Y-94505934D01*
X154595564Y-94505936D01*
X154449936Y-94651564D01*
X154449934Y-94651567D01*
X154328873Y-94818193D01*
X154235367Y-95001708D01*
X154235364Y-95001714D01*
X154171721Y-95197587D01*
X154171720Y-95197590D01*
X154171720Y-95197592D01*
X154139500Y-95401019D01*
X154139500Y-95606981D01*
X154171720Y-95810408D01*
X154171721Y-95810412D01*
X154234644Y-96004070D01*
X154235366Y-96006290D01*
X154328871Y-96189803D01*
X154449932Y-96356430D01*
X154449934Y-96356432D01*
X154449936Y-96356435D01*
X154595564Y-96502063D01*
X154595567Y-96502065D01*
X154595570Y-96502068D01*
X154762197Y-96623129D01*
X154945710Y-96716634D01*
X155141592Y-96780280D01*
X155345019Y-96812500D01*
X155345022Y-96812500D01*
X155550978Y-96812500D01*
X155550981Y-96812500D01*
X155754408Y-96780280D01*
X155950290Y-96716634D01*
X156133803Y-96623129D01*
X156300430Y-96502068D01*
X156446068Y-96356430D01*
X156567129Y-96189803D01*
X156660634Y-96006290D01*
X156661356Y-96004066D01*
X156661858Y-96003331D01*
X156662527Y-96001718D01*
X156662865Y-96001858D01*
X156701418Y-95945458D01*
X156766810Y-95917811D01*
X156836769Y-95929906D01*
X156870288Y-95953892D01*
X157174129Y-96257733D01*
X157262367Y-96345971D01*
X157366125Y-96415300D01*
X157481415Y-96463055D01*
X157603806Y-96487400D01*
X157722050Y-96487400D01*
X157790171Y-96507402D01*
X157836664Y-96561058D01*
X157846768Y-96631332D01*
X157834318Y-96670598D01*
X157806928Y-96724355D01*
X157786367Y-96764708D01*
X157786364Y-96764714D01*
X157722721Y-96960587D01*
X157722720Y-96960590D01*
X157722720Y-96960592D01*
X157690500Y-97164019D01*
X157690500Y-97369981D01*
X157722177Y-97569978D01*
X157722721Y-97573412D01*
X157776162Y-97737887D01*
X157786366Y-97769290D01*
X157879871Y-97952803D01*
X158000932Y-98119430D01*
X158000934Y-98119432D01*
X158000936Y-98119435D01*
X158146564Y-98265063D01*
X158146567Y-98265065D01*
X158146570Y-98265068D01*
X158313197Y-98386129D01*
X158388962Y-98424733D01*
X158440577Y-98473482D01*
X158457643Y-98542397D01*
X158434742Y-98609598D01*
X158388963Y-98649266D01*
X158323964Y-98682385D01*
X158313193Y-98687873D01*
X158146567Y-98808934D01*
X158146564Y-98808936D01*
X158000936Y-98954564D01*
X158000934Y-98954567D01*
X157876961Y-99125202D01*
X157875223Y-99123939D01*
X157829194Y-99165536D01*
X157799056Y-99175618D01*
X157742759Y-99186816D01*
X157687315Y-99197845D01*
X157687313Y-99197845D01*
X157687312Y-99197846D01*
X157671410Y-99204433D01*
X157572028Y-99245599D01*
X157572023Y-99245601D01*
X157468271Y-99314926D01*
X157468269Y-99314927D01*
X156823683Y-99959511D01*
X156761371Y-99993536D01*
X156690555Y-99988471D01*
X156633720Y-99945924D01*
X156622321Y-99927618D01*
X156566699Y-99818454D01*
X156535583Y-99775626D01*
X156535581Y-99775626D01*
X155848000Y-100463207D01*
X155848000Y-100451339D01*
X155820741Y-100349606D01*
X155768080Y-100258394D01*
X155693606Y-100183920D01*
X155602394Y-100131259D01*
X155500661Y-100104000D01*
X155488790Y-100104000D01*
X156176372Y-99416417D01*
X156176372Y-99416416D01*
X156133541Y-99385298D01*
X156133540Y-99385297D01*
X155950099Y-99291829D01*
X155950093Y-99291826D01*
X155754294Y-99228208D01*
X155754298Y-99228208D01*
X155550939Y-99196000D01*
X155345061Y-99196000D01*
X155141703Y-99228208D01*
X154945906Y-99291826D01*
X154945900Y-99291829D01*
X154848840Y-99341284D01*
X154779063Y-99354388D01*
X154713278Y-99327688D01*
X154672372Y-99269660D01*
X154668059Y-99204433D01*
X154673499Y-99177086D01*
X154673500Y-99177077D01*
X154673500Y-98998122D01*
X154673499Y-98998118D01*
X154671885Y-98990002D01*
X154638587Y-98822600D01*
X154570102Y-98657264D01*
X154470678Y-98508465D01*
X154344135Y-98381922D01*
X154195336Y-98282498D01*
X154078429Y-98234073D01*
X154030003Y-98214014D01*
X154030001Y-98214013D01*
X154030000Y-98214013D01*
X153941645Y-98196438D01*
X153854481Y-98179100D01*
X153854479Y-98179100D01*
X153804594Y-98179100D01*
X153736473Y-98159098D01*
X153715499Y-98142195D01*
X152965835Y-97392531D01*
X152965833Y-97392529D01*
X152862075Y-97323200D01*
X152746785Y-97275445D01*
X152673086Y-97260785D01*
X152624396Y-97251100D01*
X152624394Y-97251100D01*
X148512271Y-97251100D01*
X148444150Y-97231098D01*
X148397657Y-97177442D01*
X148387553Y-97107168D01*
X148417047Y-97042588D01*
X148476773Y-97004204D01*
X148498161Y-96999892D01*
X148714552Y-96975511D01*
X149015736Y-96906768D01*
X149307329Y-96804735D01*
X149585665Y-96670695D01*
X149847243Y-96506335D01*
X150088774Y-96313720D01*
X150307220Y-96095274D01*
X150499835Y-95853743D01*
X150664195Y-95592165D01*
X150798235Y-95313829D01*
X150882330Y-95073500D01*
X150900266Y-95022242D01*
X150900266Y-95022241D01*
X150900268Y-95022236D01*
X150969011Y-94721052D01*
X151003600Y-94414065D01*
X151003600Y-94105135D01*
X150969011Y-93798148D01*
X150900268Y-93496964D01*
X150873524Y-93420535D01*
X150798241Y-93205388D01*
X150798240Y-93205387D01*
X150798235Y-93205371D01*
X150664195Y-92927035D01*
X150499835Y-92665457D01*
X150337350Y-92461708D01*
X150307217Y-92423922D01*
X150088777Y-92205482D01*
X149847243Y-92012865D01*
X149585669Y-91848507D01*
X149585660Y-91848502D01*
X149307338Y-91714469D01*
X149307333Y-91714467D01*
X149307329Y-91714465D01*
X149307323Y-91714462D01*
X149307311Y-91714458D01*
X149015742Y-91612433D01*
X148714556Y-91543689D01*
X148407566Y-91509100D01*
X148407565Y-91509100D01*
X148098635Y-91509100D01*
X148098634Y-91509100D01*
X147791643Y-91543689D01*
X147490457Y-91612433D01*
X147198888Y-91714458D01*
X147198861Y-91714469D01*
X146920539Y-91848502D01*
X146920530Y-91848507D01*
X146658956Y-92012865D01*
X146417422Y-92205482D01*
X146198982Y-92423922D01*
X146006365Y-92665456D01*
X145842007Y-92927030D01*
X145842002Y-92927039D01*
X145707969Y-93205361D01*
X145707958Y-93205388D01*
X145605933Y-93496957D01*
X145537189Y-93798143D01*
X145502600Y-94105134D01*
X145502600Y-94414065D01*
X145537189Y-94721056D01*
X145568144Y-94856677D01*
X145605932Y-95022236D01*
X145609843Y-95033412D01*
X145642403Y-95126464D01*
X145646021Y-95197369D01*
X145610732Y-95258974D01*
X145547739Y-95291720D01*
X145477041Y-95285212D01*
X145434378Y-95257174D01*
X145136179Y-94958975D01*
X144351005Y-94173800D01*
X144316979Y-94111488D01*
X144314100Y-94084705D01*
X144314100Y-93539407D01*
X144314099Y-93539403D01*
X144289755Y-93417015D01*
X144242000Y-93301725D01*
X144172671Y-93197967D01*
X144084433Y-93109729D01*
X139593299Y-88618595D01*
X139559273Y-88556283D01*
X139564338Y-88485468D01*
X139606885Y-88428632D01*
X139673405Y-88403821D01*
X139682394Y-88403500D01*
X139831078Y-88403500D01*
X139831079Y-88403500D01*
X140006600Y-88368587D01*
X140171936Y-88300102D01*
X140171937Y-88300101D01*
X140171940Y-88300100D01*
X140177394Y-88297185D01*
X140178559Y-88299366D01*
X140235896Y-88281386D01*
X140304371Y-88300140D01*
G37*
G04 #@! TD.AperFunction*
G04 #@! TA.AperFunction,Conductor*
G36*
X138769396Y-98892268D02*
G01*
X138776857Y-98895634D01*
X138782320Y-98897897D01*
X138782325Y-98897900D01*
X138897615Y-98945655D01*
X139020006Y-98970000D01*
X139991906Y-98970000D01*
X140060027Y-98990002D01*
X140106520Y-99043658D01*
X140116624Y-99113932D01*
X140087130Y-99178512D01*
X140081016Y-99185079D01*
X139339699Y-99926396D01*
X139096741Y-100169354D01*
X139034429Y-100203379D01*
X138963613Y-100198314D01*
X138906778Y-100155767D01*
X138887813Y-100119194D01*
X138887482Y-100118176D01*
X138875634Y-100081710D01*
X138782129Y-99898197D01*
X138661068Y-99731570D01*
X138661065Y-99731567D01*
X138661063Y-99731564D01*
X138515435Y-99585936D01*
X138515432Y-99585934D01*
X138515430Y-99585932D01*
X138348803Y-99464871D01*
X138273034Y-99426265D01*
X138221422Y-99377519D01*
X138204356Y-99308604D01*
X138227257Y-99241402D01*
X138273034Y-99201735D01*
X138348803Y-99163129D01*
X138515430Y-99042068D01*
X138636270Y-98921227D01*
X138698580Y-98887204D01*
X138769396Y-98892268D01*
G37*
G04 #@! TD.AperFunction*
G04 #@! TA.AperFunction,Conductor*
G36*
X163430000Y-66666661D02*
G01*
X163457259Y-66768394D01*
X163509920Y-66859606D01*
X163584394Y-66934080D01*
X163675606Y-66986741D01*
X163777339Y-67014000D01*
X163789210Y-67014000D01*
X163101626Y-67701582D01*
X163101626Y-67701583D01*
X163144457Y-67732701D01*
X163200291Y-67761151D01*
X163251906Y-67809899D01*
X163268971Y-67878814D01*
X163246070Y-67946016D01*
X163232183Y-67962512D01*
X162849171Y-68345525D01*
X161775399Y-69419296D01*
X161713089Y-69453320D01*
X161686306Y-69456200D01*
X153710603Y-69456200D01*
X153642482Y-69436198D01*
X153621508Y-69419295D01*
X153586237Y-69384024D01*
X153586235Y-69384022D01*
X153437436Y-69284598D01*
X153320529Y-69236173D01*
X153272103Y-69216114D01*
X153272101Y-69216113D01*
X153272100Y-69216113D01*
X153186753Y-69199136D01*
X153177602Y-69194349D01*
X153167301Y-69193613D01*
X153146673Y-69178170D01*
X153123845Y-69166229D01*
X153118734Y-69157255D01*
X153110466Y-69151065D01*
X153101462Y-69126922D01*
X153088713Y-69104534D01*
X153089265Y-69094220D01*
X153085657Y-69084544D01*
X153091133Y-69059370D01*
X153092513Y-69033639D01*
X153098956Y-69023413D01*
X153100750Y-69015170D01*
X153122236Y-68986468D01*
X153145403Y-68963301D01*
X153207714Y-68929279D01*
X153234495Y-68926400D01*
X158800293Y-68926400D01*
X158800294Y-68926400D01*
X158922685Y-68902055D01*
X159037975Y-68854300D01*
X159141733Y-68784971D01*
X160290274Y-67636429D01*
X160352584Y-67602406D01*
X160423399Y-67607470D01*
X160453428Y-67623590D01*
X160502717Y-67659400D01*
X160604197Y-67733129D01*
X160787710Y-67826634D01*
X160983592Y-67890280D01*
X161187019Y-67922500D01*
X161187022Y-67922500D01*
X161392978Y-67922500D01*
X161392981Y-67922500D01*
X161596408Y-67890280D01*
X161792290Y-67826634D01*
X161975803Y-67733129D01*
X162142430Y-67612068D01*
X162288068Y-67466430D01*
X162409129Y-67299803D01*
X162448014Y-67223486D01*
X162496759Y-67171874D01*
X162565674Y-67154807D01*
X162632876Y-67177707D01*
X162672545Y-67223487D01*
X162711294Y-67299535D01*
X162711298Y-67299541D01*
X162742416Y-67342372D01*
X163430000Y-66654788D01*
X163430000Y-66666661D01*
G37*
G04 #@! TD.AperFunction*
M02*
