%FSLAX45Y45*%
G04 Gerber Fmt 4.5, Leading zero omitted, Abs format (unit mm)*
G04 Created by KiCad (PCBNEW 6.0.2+dfsg-1) date 2025-05-07 10:33:05*
%MOMM*%
%LPD*%
G01*
G04 APERTURE LIST*
%ADD10C,0.200000*%
%ADD11C,0.040000*%
%ADD12C,0.080000*%
%ADD13C,0.100000*%
%ADD14C,0.120000*%
%ADD15C,0.130000*%
G04 APERTURE END LIST*
D10*
D11*
X12297260Y-13671200D02*
X12337260Y-13711200D01*
X12337260Y-13671200D02*
X12297260Y-13711200D01*
X12518740Y-12481610D02*
X12558740Y-12521610D01*
X12558740Y-12481610D02*
X12518740Y-12521610D01*
X12595050Y-12184380D02*
X12635050Y-12224380D01*
X12635050Y-12184380D02*
X12595050Y-12224380D01*
X12814600Y-10733550D02*
X12854600Y-10773550D01*
X12854600Y-10733550D02*
X12814600Y-10773550D01*
X12855760Y-13184910D02*
X12895760Y-13224910D01*
X12895760Y-13184910D02*
X12855760Y-13224910D01*
X12955180Y-9456720D02*
X12995180Y-9496720D01*
X12995180Y-9456720D02*
X12955180Y-9496720D01*
X13005310Y-12335380D02*
X13045310Y-12375380D01*
X13045310Y-12335380D02*
X13005310Y-12375380D01*
X13068560Y-12527630D02*
X13108560Y-12567630D01*
X13108560Y-12527630D02*
X13068560Y-12567630D01*
X13362420Y-8537870D02*
X13402420Y-8577870D01*
X13402420Y-8537870D02*
X13362420Y-8577870D01*
X13389390Y-11680890D02*
X13429390Y-11720890D01*
X13429390Y-11680890D02*
X13389390Y-11720890D01*
X13505520Y-8501180D02*
X13545520Y-8541180D01*
X13545520Y-8501180D02*
X13505520Y-8541180D01*
X13526780Y-9513850D02*
X13566780Y-9553850D01*
X13566780Y-9513850D02*
X13526780Y-9553850D01*
X13549130Y-9324930D02*
X13589130Y-9364930D01*
X13589130Y-9324930D02*
X13549130Y-9364930D01*
X13569000Y-13179470D02*
X13609000Y-13219470D01*
X13609000Y-13179470D02*
X13569000Y-13219470D01*
X13578010Y-13014550D02*
X13618010Y-13054550D01*
X13618010Y-13014550D02*
X13578010Y-13054550D01*
X13823650Y-13201100D02*
X13863650Y-13241100D01*
X13863650Y-13201100D02*
X13823650Y-13241100D01*
X13829990Y-8629280D02*
X13869990Y-8669280D01*
X13869990Y-8629280D02*
X13829990Y-8669280D01*
X13888670Y-8208880D02*
X13928670Y-8248880D01*
X13928670Y-8208880D02*
X13888670Y-8248880D01*
X13896410Y-11064050D02*
X13936410Y-11104050D01*
X13936410Y-11064050D02*
X13896410Y-11104050D01*
X13903110Y-9622110D02*
X13943110Y-9662110D01*
X13943110Y-9622110D02*
X13903110Y-9662110D01*
X13908540Y-9008140D02*
X13948540Y-9048140D01*
X13948540Y-9008140D02*
X13908540Y-9048140D01*
X13912090Y-9113150D02*
X13952090Y-9153150D01*
X13952090Y-9113150D02*
X13912090Y-9153150D01*
X13933270Y-10853190D02*
X13973270Y-10893190D01*
X13973270Y-10853190D02*
X13933270Y-10893190D01*
X13936820Y-11798890D02*
X13976820Y-11838890D01*
X13976820Y-11798890D02*
X13936820Y-11838890D01*
X13941320Y-9263630D02*
X13981320Y-9303630D01*
X13981320Y-9263630D02*
X13941320Y-9303630D01*
X13954160Y-8729500D02*
X13994160Y-8769500D01*
X13994160Y-8729500D02*
X13954160Y-8769500D01*
X13977590Y-10211750D02*
X14017590Y-10251750D01*
X14017590Y-10211750D02*
X13977590Y-10251750D01*
X13981040Y-12076630D02*
X14021040Y-12116630D01*
X14021040Y-12076630D02*
X13981040Y-12116630D01*
X14005390Y-9560270D02*
X14045390Y-9600270D01*
X14045390Y-9560270D02*
X14005390Y-9600270D01*
X14055560Y-8730890D02*
X14095560Y-8770890D01*
X14095560Y-8730890D02*
X14055560Y-8770890D01*
X14082210Y-11811090D02*
X14122210Y-11851090D01*
X14122210Y-11811090D02*
X14082210Y-11851090D01*
X14104890Y-12650310D02*
X14144890Y-12690310D01*
X14144890Y-12650310D02*
X14104890Y-12690310D01*
X14115240Y-12004970D02*
X14155240Y-12044970D01*
X14155240Y-12004970D02*
X14115240Y-12044970D01*
X14133450Y-11619200D02*
X14173450Y-11659200D01*
X14173450Y-11619200D02*
X14133450Y-11659200D01*
X14135760Y-10813360D02*
X14175760Y-10853360D01*
X14175760Y-10813360D02*
X14135760Y-10853360D01*
X14176260Y-11062860D02*
X14216260Y-11102860D01*
X14216260Y-11062860D02*
X14176260Y-11102860D01*
X14211100Y-12647660D02*
X14251100Y-12687660D01*
X14251100Y-12647660D02*
X14211100Y-12687660D01*
X14219010Y-7169830D02*
X14259010Y-7209830D01*
X14259010Y-7169830D02*
X14219010Y-7209830D01*
X14220220Y-10754210D02*
X14260220Y-10794210D01*
X14260220Y-10754210D02*
X14220220Y-10794210D01*
X14254070Y-12213540D02*
X14294070Y-12253540D01*
X14294070Y-12213540D02*
X14254070Y-12253540D01*
X14275250Y-9389210D02*
X14315250Y-9429210D01*
X14315250Y-9389210D02*
X14275250Y-9429210D01*
X14287730Y-11190740D02*
X14327730Y-11230740D01*
X14327730Y-11190740D02*
X14287730Y-11230740D01*
X14312500Y-10213400D02*
X14352500Y-10253400D01*
X14352500Y-10213400D02*
X14312500Y-10253400D01*
X14494680Y-7442520D02*
X14534680Y-7482520D01*
X14534680Y-7442520D02*
X14494680Y-7482520D01*
X14566060Y-7515220D02*
X14606060Y-7555220D01*
X14606060Y-7515220D02*
X14566060Y-7555220D01*
X14579380Y-8187010D02*
X14619380Y-8227010D01*
X14619380Y-8187010D02*
X14579380Y-8227010D01*
X14615600Y-11194550D02*
X14655600Y-11234550D01*
X14655600Y-11194550D02*
X14615600Y-11234550D01*
X14662000Y-11421170D02*
X14702000Y-11461170D01*
X14702000Y-11421170D02*
X14662000Y-11461170D01*
X14707260Y-12789490D02*
X14747260Y-12829490D01*
X14747260Y-12789490D02*
X14707260Y-12829490D01*
X14817560Y-11017630D02*
X14857560Y-11057630D01*
X14857560Y-11017630D02*
X14817560Y-11057630D01*
X14818490Y-11148490D02*
X14858490Y-11188490D01*
X14858490Y-11148490D02*
X14818490Y-11188490D01*
X14832640Y-8135480D02*
X14872640Y-8175480D01*
X14872640Y-8135480D02*
X14832640Y-8175480D01*
X14837140Y-11880260D02*
X14877140Y-11920260D01*
X14877140Y-11880260D02*
X14837140Y-11920260D01*
X14885790Y-11471260D02*
X14925790Y-11511260D01*
X14925790Y-11471260D02*
X14885790Y-11511260D01*
X14924270Y-11576060D02*
X14964270Y-11616060D01*
X14964270Y-11576060D02*
X14924270Y-11616060D01*
X14948010Y-10218680D02*
X14988010Y-10258680D01*
X14988010Y-10218680D02*
X14948010Y-10258680D01*
X14959150Y-9947870D02*
X14999150Y-9987870D01*
X14999150Y-9947870D02*
X14959150Y-9987870D01*
X14969050Y-10363150D02*
X15009050Y-10403150D01*
X15009050Y-10363150D02*
X14969050Y-10403150D01*
X14982530Y-11916070D02*
X15022530Y-11956070D01*
X15022530Y-11916070D02*
X14982530Y-11956070D01*
X14997180Y-8772810D02*
X15037180Y-8812810D01*
X15037180Y-8772810D02*
X14997180Y-8812810D01*
X15019150Y-11251110D02*
X15059150Y-11291110D01*
X15059150Y-11251110D02*
X15019150Y-11291110D01*
X15079230Y-10370740D02*
X15119230Y-10410740D01*
X15119230Y-10370740D02*
X15079230Y-10410740D01*
X15102690Y-6677700D02*
X15142690Y-6717700D01*
X15142690Y-6677700D02*
X15102690Y-6717700D01*
X15150780Y-13145210D02*
X15190780Y-13185210D01*
X15190780Y-13145210D02*
X15150780Y-13185210D01*
X15175040Y-8739590D02*
X15215040Y-8779590D01*
X15215040Y-8739590D02*
X15175040Y-8779590D01*
X15192370Y-6475440D02*
X15232370Y-6515440D01*
X15232370Y-6475440D02*
X15192370Y-6515440D01*
X15233270Y-9895900D02*
X15273270Y-9935900D01*
X15273270Y-9895900D02*
X15233270Y-9935900D01*
X15280710Y-6988970D02*
X15320710Y-7028970D01*
X15320710Y-6988970D02*
X15280710Y-7028970D01*
X15302960Y-7719120D02*
X15342960Y-7759120D01*
X15342960Y-7719120D02*
X15302960Y-7759120D01*
X15306560Y-11449690D02*
X15346560Y-11489690D01*
X15346560Y-11449690D02*
X15306560Y-11489690D01*
X15356500Y-9888760D02*
X15396500Y-9928760D01*
X15396500Y-9888760D02*
X15356500Y-9928760D01*
X15356500Y-10385680D02*
X15396500Y-10425680D01*
X15396500Y-10385680D02*
X15356500Y-10425680D01*
X15361280Y-13107990D02*
X15401280Y-13147990D01*
X15401280Y-13107990D02*
X15361280Y-13147990D01*
X15363910Y-11093900D02*
X15403910Y-11133900D01*
X15403910Y-11093900D02*
X15363910Y-11133900D01*
X15409100Y-10873890D02*
X15449100Y-10913890D01*
X15449100Y-10873890D02*
X15409100Y-10913890D01*
X15439270Y-12964370D02*
X15479270Y-13004370D01*
X15479270Y-12964370D02*
X15439270Y-13004370D01*
X15455120Y-11787170D02*
X15495120Y-11827170D01*
X15495120Y-11787170D02*
X15455120Y-11827170D01*
X15503820Y-12095540D02*
X15543820Y-12135540D01*
X15543820Y-12095540D02*
X15503820Y-12135540D01*
X15550600Y-11638110D02*
X15590600Y-11678110D01*
X15590600Y-11638110D02*
X15550600Y-11678110D01*
X15554670Y-8756460D02*
X15594670Y-8796460D01*
X15594670Y-8756460D02*
X15554670Y-8796460D01*
X15602580Y-11441630D02*
X15642580Y-11481630D01*
X15642580Y-11441630D02*
X15602580Y-11481630D01*
X15603800Y-12751930D02*
X15643800Y-12791930D01*
X15643800Y-12751930D02*
X15603800Y-12791930D01*
X15634300Y-12608890D02*
X15674300Y-12648890D01*
X15674300Y-12608890D02*
X15634300Y-12648890D01*
X15638710Y-9240930D02*
X15678710Y-9280930D01*
X15678710Y-9240930D02*
X15638710Y-9280930D01*
X15653710Y-12443260D02*
X15693710Y-12483260D01*
X15693710Y-12443260D02*
X15653710Y-12483260D01*
X15672720Y-10492010D02*
X15712720Y-10532010D01*
X15712720Y-10492010D02*
X15672720Y-10532010D01*
X15674300Y-7963800D02*
X15714300Y-8003800D01*
X15714300Y-7963800D02*
X15674300Y-8003800D01*
X15679190Y-13160250D02*
X15719190Y-13200250D01*
X15719190Y-13160250D02*
X15679190Y-13200250D01*
X15696560Y-10637400D02*
X15736560Y-10677400D01*
X15736560Y-10637400D02*
X15696560Y-10677400D01*
X15712510Y-11729750D02*
X15752510Y-11769750D01*
X15752510Y-11729750D02*
X15712510Y-11769750D01*
X15726330Y-12935400D02*
X15766330Y-12975400D01*
X15766330Y-12935400D02*
X15726330Y-12975400D01*
X15840400Y-8521620D02*
X15880400Y-8561620D01*
X15880400Y-8521620D02*
X15840400Y-8561620D01*
X15878060Y-13189950D02*
X15918060Y-13229950D01*
X15918060Y-13189950D02*
X15878060Y-13229950D01*
X15947410Y-12996890D02*
X15987410Y-13036890D01*
X15987410Y-12996890D02*
X15947410Y-13036890D01*
X16000420Y-13093620D02*
X16040420Y-13133620D01*
X16040420Y-13093620D02*
X16000420Y-13133620D01*
X16038290Y-10475250D02*
X16078290Y-10515250D01*
X16078290Y-10475250D02*
X16038290Y-10515250D01*
X16051660Y-6491420D02*
X16091660Y-6531420D01*
X16091660Y-6491420D02*
X16051660Y-6531420D01*
X16052750Y-13183650D02*
X16092750Y-13223650D01*
X16092750Y-13183650D02*
X16052750Y-13223650D01*
X16123720Y-12680080D02*
X16163720Y-12720080D01*
X16163720Y-12680080D02*
X16123720Y-12720080D01*
X16125950Y-10758640D02*
X16165950Y-10798640D01*
X16165950Y-10758640D02*
X16125950Y-10798640D01*
X16129890Y-9781320D02*
X16169890Y-9821320D01*
X16169890Y-9781320D02*
X16129890Y-9821320D01*
X16130040Y-10874740D02*
X16170040Y-10914740D01*
X16170040Y-10874740D02*
X16130040Y-10914740D01*
X16157420Y-6902500D02*
X16197420Y-6942500D01*
X16197420Y-6902500D02*
X16157420Y-6942500D01*
X16179900Y-11453400D02*
X16219900Y-11493400D01*
X16219900Y-11453400D02*
X16179900Y-11493400D01*
X16188910Y-11831860D02*
X16228910Y-11871860D01*
X16228910Y-11831860D02*
X16188910Y-11871860D01*
X16199420Y-6439740D02*
X16239420Y-6479740D01*
X16239420Y-6439740D02*
X16199420Y-6479740D01*
X16210600Y-8884340D02*
X16250600Y-8924340D01*
X16250600Y-8884340D02*
X16210600Y-8924340D01*
X16233420Y-13111620D02*
X16273420Y-13151620D01*
X16273420Y-13111620D02*
X16233420Y-13151620D01*
X16240660Y-12158150D02*
X16280660Y-12198150D01*
X16280660Y-12158150D02*
X16240660Y-12198150D01*
X16243920Y-9666430D02*
X16283920Y-9706430D01*
X16283920Y-9666430D02*
X16243920Y-9706430D01*
X16246700Y-9381000D02*
X16286700Y-9421000D01*
X16286700Y-9381000D02*
X16246700Y-9421000D01*
X16276620Y-12023830D02*
X16316620Y-12063830D01*
X16316620Y-12023830D02*
X16276620Y-12063830D01*
X16282680Y-12655920D02*
X16322680Y-12695920D01*
X16322680Y-12655920D02*
X16282680Y-12695920D01*
X16297530Y-11896800D02*
X16337530Y-11936800D01*
X16337530Y-11896800D02*
X16297530Y-11936800D01*
X16356820Y-9227610D02*
X16396820Y-9267610D01*
X16396820Y-9227610D02*
X16356820Y-9267610D01*
X16370850Y-9999140D02*
X16410850Y-10039140D01*
X16410850Y-9999140D02*
X16370850Y-10039140D01*
X16383720Y-12640530D02*
X16423720Y-12680530D01*
X16423720Y-12640530D02*
X16383720Y-12680530D01*
X16404220Y-9866420D02*
X16444220Y-9906420D01*
X16444220Y-9866420D02*
X16404220Y-9906420D01*
X16405220Y-13109280D02*
X16445220Y-13149280D01*
X16445220Y-13109280D02*
X16405220Y-13149280D01*
X16444480Y-12330210D02*
X16484480Y-12370210D01*
X16484480Y-12330210D02*
X16444480Y-12370210D01*
X16446750Y-12814300D02*
X16486750Y-12854300D01*
X16486750Y-12814300D02*
X16446750Y-12854300D01*
X16511290Y-12580670D02*
X16551290Y-12620670D01*
X16551290Y-12580670D02*
X16511290Y-12620670D01*
X16546950Y-12825280D02*
X16586950Y-12865280D01*
X16586950Y-12825280D02*
X16546950Y-12865280D01*
X16678680Y-5742630D02*
X16718680Y-5782630D01*
X16718680Y-5742630D02*
X16678680Y-5782630D01*
X16704120Y-11375270D02*
X16744120Y-11415270D01*
X16744120Y-11375270D02*
X16704120Y-11415270D01*
X16715760Y-12781170D02*
X16755760Y-12821170D01*
X16755760Y-12781170D02*
X16715760Y-12821170D01*
X16743220Y-12505220D02*
X16783220Y-12545220D01*
X16783220Y-12505220D02*
X16743220Y-12545220D01*
X17158730Y-12920730D02*
X17198730Y-12960730D01*
X17198730Y-12920730D02*
X17158730Y-12960730D01*
X17310860Y-13687670D02*
X17350860Y-13727670D01*
X17350860Y-13687670D02*
X17310860Y-13727670D01*
X17347390Y-7997410D02*
X17387390Y-8037410D01*
X17387390Y-7997410D02*
X17347390Y-8037410D01*
D12*
X12282300Y-7518400D02*
G75*
G03*
X12282300Y-7518400I-40000J0D01*
G01*
X12282300Y-7772400D02*
G75*
G03*
X12282300Y-7772400I-40000J0D01*
G01*
X12282300Y-8026400D02*
G75*
G03*
X12282300Y-8026400I-40000J0D01*
G01*
X12282300Y-8280400D02*
G75*
G03*
X12282300Y-8280400I-40000J0D01*
G01*
X12282300Y-8534400D02*
G75*
G03*
X12282300Y-8534400I-40000J0D01*
G01*
X12282300Y-8788400D02*
G75*
G03*
X12282300Y-8788400I-40000J0D01*
G01*
X12282300Y-9042400D02*
G75*
G03*
X12282300Y-9042400I-40000J0D01*
G01*
X12282300Y-9296400D02*
G75*
G03*
X12282300Y-9296400I-40000J0D01*
G01*
X12282300Y-9550400D02*
G75*
G03*
X12282300Y-9550400I-40000J0D01*
G01*
X12282300Y-9804400D02*
G75*
G03*
X12282300Y-9804400I-40000J0D01*
G01*
X12282300Y-10058400D02*
G75*
G03*
X12282300Y-10058400I-40000J0D01*
G01*
X12282300Y-10312400D02*
G75*
G03*
X12282300Y-10312400I-40000J0D01*
G01*
X12282300Y-10566400D02*
G75*
G03*
X12282300Y-10566400I-40000J0D01*
G01*
X12282300Y-10820400D02*
G75*
G03*
X12282300Y-10820400I-40000J0D01*
G01*
X12282300Y-11074400D02*
G75*
G03*
X12282300Y-11074400I-40000J0D01*
G01*
X12282300Y-11328400D02*
G75*
G03*
X12282300Y-11328400I-40000J0D01*
G01*
X12282300Y-11582400D02*
G75*
G03*
X12282300Y-11582400I-40000J0D01*
G01*
X12282300Y-11836400D02*
G75*
G03*
X12282300Y-11836400I-40000J0D01*
G01*
X12282300Y-12090400D02*
G75*
G03*
X12282300Y-12090400I-40000J0D01*
G01*
X12282300Y-12344400D02*
G75*
G03*
X12282300Y-12344400I-40000J0D01*
G01*
X12316200Y-7162800D02*
G75*
G03*
X12316200Y-7162800I-40000J0D01*
G01*
X12740000Y-12801600D02*
G75*
G03*
X12740000Y-12801600I-40000J0D01*
G01*
X12816200Y-7162800D02*
G75*
G03*
X12816200Y-7162800I-40000J0D01*
G01*
X13502000Y-12801600D02*
G75*
G03*
X13502000Y-12801600I-40000J0D01*
G01*
X13806300Y-7518400D02*
G75*
G03*
X13806300Y-7518400I-40000J0D01*
G01*
X13806300Y-7772400D02*
G75*
G03*
X13806300Y-7772400I-40000J0D01*
G01*
X13806300Y-8026400D02*
G75*
G03*
X13806300Y-8026400I-40000J0D01*
G01*
X13806300Y-8280400D02*
G75*
G03*
X13806300Y-8280400I-40000J0D01*
G01*
X13806300Y-8534400D02*
G75*
G03*
X13806300Y-8534400I-40000J0D01*
G01*
X13806300Y-8788400D02*
G75*
G03*
X13806300Y-8788400I-40000J0D01*
G01*
X13806300Y-9042400D02*
G75*
G03*
X13806300Y-9042400I-40000J0D01*
G01*
X13806300Y-9296400D02*
G75*
G03*
X13806300Y-9296400I-40000J0D01*
G01*
X13806300Y-9550400D02*
G75*
G03*
X13806300Y-9550400I-40000J0D01*
G01*
X13806300Y-9804400D02*
G75*
G03*
X13806300Y-9804400I-40000J0D01*
G01*
X13806300Y-10058400D02*
G75*
G03*
X13806300Y-10058400I-40000J0D01*
G01*
X13806300Y-10312400D02*
G75*
G03*
X13806300Y-10312400I-40000J0D01*
G01*
X13806300Y-10566400D02*
G75*
G03*
X13806300Y-10566400I-40000J0D01*
G01*
X13806300Y-10820400D02*
G75*
G03*
X13806300Y-10820400I-40000J0D01*
G01*
X13806300Y-11074400D02*
G75*
G03*
X13806300Y-11074400I-40000J0D01*
G01*
X13806300Y-11328400D02*
G75*
G03*
X13806300Y-11328400I-40000J0D01*
G01*
X13806300Y-11582400D02*
G75*
G03*
X13806300Y-11582400I-40000J0D01*
G01*
X13806300Y-11836400D02*
G75*
G03*
X13806300Y-11836400I-40000J0D01*
G01*
X13806300Y-12090400D02*
G75*
G03*
X13806300Y-12090400I-40000J0D01*
G01*
X13806300Y-12344400D02*
G75*
G03*
X13806300Y-12344400I-40000J0D01*
G01*
X14137000Y-7188200D02*
G75*
G03*
X14137000Y-7188200I-40000J0D01*
G01*
X14137000Y-7518400D02*
G75*
G03*
X14137000Y-7518400I-40000J0D01*
G01*
X14137000Y-7848600D02*
G75*
G03*
X14137000Y-7848600I-40000J0D01*
G01*
X14137000Y-8178800D02*
G75*
G03*
X14137000Y-8178800I-40000J0D01*
G01*
X14137000Y-8509000D02*
G75*
G03*
X14137000Y-8509000I-40000J0D01*
G01*
X14517000Y-10058900D02*
G75*
G03*
X14517000Y-10058900I-40000J0D01*
G01*
X14517000Y-10312900D02*
G75*
G03*
X14517000Y-10312900I-40000J0D01*
G01*
X14517000Y-10566900D02*
G75*
G03*
X14517000Y-10566900I-40000J0D01*
G01*
X14517000Y-10820900D02*
G75*
G03*
X14517000Y-10820900I-40000J0D01*
G01*
X14517000Y-11074900D02*
G75*
G03*
X14517000Y-11074900I-40000J0D01*
G01*
X14517000Y-11328900D02*
G75*
G03*
X14517000Y-11328900I-40000J0D01*
G01*
X14517000Y-11582900D02*
G75*
G03*
X14517000Y-11582900I-40000J0D01*
G01*
X14517000Y-11836900D02*
G75*
G03*
X14517000Y-11836900I-40000J0D01*
G01*
X14517000Y-12090900D02*
G75*
G03*
X14517000Y-12090900I-40000J0D01*
G01*
X14517000Y-12344900D02*
G75*
G03*
X14517000Y-12344900I-40000J0D01*
G01*
X14517000Y-12598900D02*
G75*
G03*
X14517000Y-12598900I-40000J0D01*
G01*
X14517000Y-12852900D02*
G75*
G03*
X14517000Y-12852900I-40000J0D01*
G01*
X15153000Y-7188200D02*
G75*
G03*
X15153000Y-7188200I-40000J0D01*
G01*
X15153000Y-7518400D02*
G75*
G03*
X15153000Y-7518400I-40000J0D01*
G01*
X15153000Y-7848600D02*
G75*
G03*
X15153000Y-7848600I-40000J0D01*
G01*
X15153000Y-8178800D02*
G75*
G03*
X15153000Y-8178800I-40000J0D01*
G01*
X15153000Y-8509000D02*
G75*
G03*
X15153000Y-8509000I-40000J0D01*
G01*
X15279000Y-10058900D02*
G75*
G03*
X15279000Y-10058900I-40000J0D01*
G01*
X15279000Y-10312900D02*
G75*
G03*
X15279000Y-10312900I-40000J0D01*
G01*
X15279000Y-10566900D02*
G75*
G03*
X15279000Y-10566900I-40000J0D01*
G01*
X15279000Y-10820900D02*
G75*
G03*
X15279000Y-10820900I-40000J0D01*
G01*
X15279000Y-11074900D02*
G75*
G03*
X15279000Y-11074900I-40000J0D01*
G01*
X15279000Y-11328900D02*
G75*
G03*
X15279000Y-11328900I-40000J0D01*
G01*
X15279000Y-11582900D02*
G75*
G03*
X15279000Y-11582900I-40000J0D01*
G01*
X15279000Y-11836900D02*
G75*
G03*
X15279000Y-11836900I-40000J0D01*
G01*
X15279000Y-12090900D02*
G75*
G03*
X15279000Y-12090900I-40000J0D01*
G01*
X15279000Y-12344900D02*
G75*
G03*
X15279000Y-12344900I-40000J0D01*
G01*
X15279000Y-12598900D02*
G75*
G03*
X15279000Y-12598900I-40000J0D01*
G01*
X15279000Y-12852900D02*
G75*
G03*
X15279000Y-12852900I-40000J0D01*
G01*
X15584800Y-5493000D02*
G75*
G03*
X15584800Y-5493000I-40000J0D01*
G01*
X15584800Y-5993000D02*
G75*
G03*
X15584800Y-5993000I-40000J0D01*
G01*
X15584800Y-6661400D02*
G75*
G03*
X15584800Y-6661400I-40000J0D01*
G01*
X15584800Y-7161400D02*
G75*
G03*
X15584800Y-7161400I-40000J0D01*
G01*
X15584800Y-9550400D02*
G75*
G03*
X15584800Y-9550400I-40000J0D01*
G01*
X15584800Y-10050400D02*
G75*
G03*
X15584800Y-10050400I-40000J0D01*
G01*
X15661000Y-8226710D02*
G75*
G03*
X15661000Y-8226710I-40000J0D01*
G01*
X15661000Y-8426710D02*
G75*
G03*
X15661000Y-8426710I-40000J0D01*
G01*
X15915000Y-5486400D02*
G75*
G03*
X15915000Y-5486400I-40000J0D01*
G01*
X15915000Y-6248400D02*
G75*
G03*
X15915000Y-6248400I-40000J0D01*
G01*
X15915000Y-6661400D02*
G75*
G03*
X15915000Y-6661400I-40000J0D01*
G01*
X15915000Y-7423400D02*
G75*
G03*
X15915000Y-7423400I-40000J0D01*
G01*
X15939900Y-9472700D02*
G75*
G03*
X15939900Y-9472700I-40000J0D01*
G01*
X15939900Y-9726700D02*
G75*
G03*
X15939900Y-9726700I-40000J0D01*
G01*
X15939900Y-9980700D02*
G75*
G03*
X15939900Y-9980700I-40000J0D01*
G01*
X15939900Y-10234700D02*
G75*
G03*
X15939900Y-10234700I-40000J0D01*
G01*
X15939900Y-10488700D02*
G75*
G03*
X15939900Y-10488700I-40000J0D01*
G01*
X15939900Y-10742700D02*
G75*
G03*
X15939900Y-10742700I-40000J0D01*
G01*
X15939900Y-10996700D02*
G75*
G03*
X15939900Y-10996700I-40000J0D01*
G01*
X15939900Y-11250700D02*
G75*
G03*
X15939900Y-11250700I-40000J0D01*
G01*
X15939900Y-11504700D02*
G75*
G03*
X15939900Y-11504700I-40000J0D01*
G01*
X15939900Y-11758700D02*
G75*
G03*
X15939900Y-11758700I-40000J0D01*
G01*
X15939900Y-12012700D02*
G75*
G03*
X15939900Y-12012700I-40000J0D01*
G01*
X15939900Y-12266700D02*
G75*
G03*
X15939900Y-12266700I-40000J0D01*
G01*
X15939900Y-12520700D02*
G75*
G03*
X15939900Y-12520700I-40000J0D01*
G01*
X15939900Y-12774700D02*
G75*
G03*
X15939900Y-12774700I-40000J0D01*
G01*
X16169000Y-5486400D02*
G75*
G03*
X16169000Y-5486400I-40000J0D01*
G01*
X16169000Y-6248400D02*
G75*
G03*
X16169000Y-6248400I-40000J0D01*
G01*
X16169000Y-6661400D02*
G75*
G03*
X16169000Y-6661400I-40000J0D01*
G01*
X16169000Y-7423400D02*
G75*
G03*
X16169000Y-7423400I-40000J0D01*
G01*
X16423000Y-5486400D02*
G75*
G03*
X16423000Y-5486400I-40000J0D01*
G01*
X16423000Y-6248400D02*
G75*
G03*
X16423000Y-6248400I-40000J0D01*
G01*
X16423000Y-6661400D02*
G75*
G03*
X16423000Y-6661400I-40000J0D01*
G01*
X16423000Y-7423400D02*
G75*
G03*
X16423000Y-7423400I-40000J0D01*
G01*
X16677000Y-5486400D02*
G75*
G03*
X16677000Y-5486400I-40000J0D01*
G01*
X16677000Y-6248400D02*
G75*
G03*
X16677000Y-6248400I-40000J0D01*
G01*
X16677000Y-6661400D02*
G75*
G03*
X16677000Y-6661400I-40000J0D01*
G01*
X16677000Y-7423400D02*
G75*
G03*
X16677000Y-7423400I-40000J0D01*
G01*
X16931000Y-5486400D02*
G75*
G03*
X16931000Y-5486400I-40000J0D01*
G01*
X16931000Y-6248400D02*
G75*
G03*
X16931000Y-6248400I-40000J0D01*
G01*
X16931000Y-6661400D02*
G75*
G03*
X16931000Y-6661400I-40000J0D01*
G01*
X16931000Y-7423400D02*
G75*
G03*
X16931000Y-7423400I-40000J0D01*
G01*
X17185000Y-5486400D02*
G75*
G03*
X17185000Y-5486400I-40000J0D01*
G01*
X17185000Y-6248400D02*
G75*
G03*
X17185000Y-6248400I-40000J0D01*
G01*
X17185000Y-6661400D02*
G75*
G03*
X17185000Y-6661400I-40000J0D01*
G01*
X17185000Y-7423400D02*
G75*
G03*
X17185000Y-7423400I-40000J0D01*
G01*
X17439000Y-5486400D02*
G75*
G03*
X17439000Y-5486400I-40000J0D01*
G01*
X17439000Y-6248400D02*
G75*
G03*
X17439000Y-6248400I-40000J0D01*
G01*
X17439000Y-6661400D02*
G75*
G03*
X17439000Y-6661400I-40000J0D01*
G01*
X17439000Y-7423400D02*
G75*
G03*
X17439000Y-7423400I-40000J0D01*
G01*
X17463900Y-9472700D02*
G75*
G03*
X17463900Y-9472700I-40000J0D01*
G01*
X17463900Y-9726700D02*
G75*
G03*
X17463900Y-9726700I-40000J0D01*
G01*
X17463900Y-9980700D02*
G75*
G03*
X17463900Y-9980700I-40000J0D01*
G01*
X17463900Y-10234700D02*
G75*
G03*
X17463900Y-10234700I-40000J0D01*
G01*
X17463900Y-10488700D02*
G75*
G03*
X17463900Y-10488700I-40000J0D01*
G01*
X17463900Y-10742700D02*
G75*
G03*
X17463900Y-10742700I-40000J0D01*
G01*
X17463900Y-10996700D02*
G75*
G03*
X17463900Y-10996700I-40000J0D01*
G01*
X17463900Y-11250700D02*
G75*
G03*
X17463900Y-11250700I-40000J0D01*
G01*
X17463900Y-11504700D02*
G75*
G03*
X17463900Y-11504700I-40000J0D01*
G01*
X17463900Y-11758700D02*
G75*
G03*
X17463900Y-11758700I-40000J0D01*
G01*
X17463900Y-12012700D02*
G75*
G03*
X17463900Y-12012700I-40000J0D01*
G01*
X17463900Y-12266700D02*
G75*
G03*
X17463900Y-12266700I-40000J0D01*
G01*
X17463900Y-12520700D02*
G75*
G03*
X17463900Y-12520700I-40000J0D01*
G01*
X17463900Y-12774700D02*
G75*
G03*
X17463900Y-12774700I-40000J0D01*
G01*
D13*
X14706600Y-5512600D02*
X14706600Y-5612600D01*
X14656600Y-5562600D02*
X14756600Y-5562600D01*
X14706600Y-5766600D02*
X14706600Y-5866600D01*
X14656600Y-5816600D02*
X14756600Y-5816600D01*
X14706600Y-6020600D02*
X14706600Y-6120600D01*
X14656600Y-6070600D02*
X14756600Y-6070600D01*
X14706600Y-6274600D02*
X14706600Y-6374600D01*
X14656600Y-6324600D02*
X14756600Y-6324600D01*
X14706600Y-6528600D02*
X14706600Y-6628600D01*
X14656600Y-6578600D02*
X14756600Y-6578600D01*
X14960600Y-5512600D02*
X14960600Y-5612600D01*
X14910600Y-5562600D02*
X15010600Y-5562600D01*
X14960600Y-5766600D02*
X14960600Y-5866600D01*
X14910600Y-5816600D02*
X15010600Y-5816600D01*
X14960600Y-6020600D02*
X14960600Y-6120600D01*
X14910600Y-6070600D02*
X15010600Y-6070600D01*
X14960600Y-6274600D02*
X14960600Y-6374600D01*
X14910600Y-6324600D02*
X15010600Y-6324600D01*
X14960600Y-6528600D02*
X14960600Y-6628600D01*
X14910600Y-6578600D02*
X15010600Y-6578600D01*
X16306300Y-8128300D02*
X16306300Y-8228300D01*
X16256300Y-8178300D02*
X16356300Y-8178300D01*
X16306300Y-8382300D02*
X16306300Y-8482300D01*
X16256300Y-8432300D02*
X16356300Y-8432300D01*
X16560300Y-8128300D02*
X16560300Y-8228300D01*
X16510300Y-8178300D02*
X16610300Y-8178300D01*
X16560300Y-8382300D02*
X16560300Y-8482300D01*
X16510300Y-8432300D02*
X16610300Y-8432300D01*
X16814300Y-8128300D02*
X16814300Y-8228300D01*
X16764300Y-8178300D02*
X16864300Y-8178300D01*
X16814300Y-8382300D02*
X16814300Y-8482300D01*
X16764300Y-8432300D02*
X16864300Y-8432300D01*
X16916400Y-9068600D02*
X16916400Y-9168600D01*
X16866400Y-9118600D02*
X16966400Y-9118600D01*
X17068300Y-8128300D02*
X17068300Y-8228300D01*
X17018300Y-8178300D02*
X17118300Y-8178300D01*
X17068300Y-8382300D02*
X17068300Y-8482300D01*
X17018300Y-8432300D02*
X17118300Y-8432300D01*
X17170400Y-9068600D02*
X17170400Y-9168600D01*
X17120400Y-9118600D02*
X17220400Y-9118600D01*
X17322300Y-8128300D02*
X17322300Y-8228300D01*
X17272300Y-8178300D02*
X17372300Y-8178300D01*
X17322300Y-8382300D02*
X17322300Y-8482300D01*
X17272300Y-8432300D02*
X17372300Y-8432300D01*
X17424400Y-9068600D02*
X17424400Y-9168600D01*
X17374400Y-9118600D02*
X17474400Y-9118600D01*
D14*
X12590027Y-5401827D02*
X12590027Y-5316973D01*
X12505173Y-5316973D01*
X12505173Y-5401827D01*
X12590027Y-5401827D01*
X12840027Y-5371827D02*
X12840027Y-5286973D01*
X12755173Y-5286973D01*
X12755173Y-5371827D01*
X12840027Y-5371827D01*
X13340027Y-5371827D02*
X13340027Y-5286973D01*
X13255173Y-5286973D01*
X13255173Y-5371827D01*
X13340027Y-5371827D01*
X13590027Y-5401827D02*
X13590027Y-5316973D01*
X13505173Y-5316973D01*
X13505173Y-5401827D01*
X13590027Y-5401827D01*
D15*
X12297600Y-6394400D02*
X12362600Y-6329400D01*
X12297600Y-6264400D01*
X12232600Y-6329400D01*
X12297600Y-6394400D01*
X12547600Y-6644400D02*
X12612600Y-6579400D01*
X12547600Y-6514400D01*
X12482600Y-6579400D01*
X12547600Y-6644400D01*
X13047600Y-6394400D02*
X13112600Y-6329400D01*
X13047600Y-6264400D01*
X12982600Y-6329400D01*
X13047600Y-6394400D01*
X13047600Y-6894400D02*
X13112600Y-6829400D01*
X13047600Y-6764400D01*
X12982600Y-6829400D01*
X13047600Y-6894400D01*
X13547600Y-6644400D02*
X13612600Y-6579400D01*
X13547600Y-6514400D01*
X13482600Y-6579400D01*
X13547600Y-6644400D01*
X13797600Y-6394400D02*
X13862600Y-6329400D01*
X13797600Y-6264400D01*
X13732600Y-6329400D01*
X13797600Y-6394400D01*
D10*
X12280429Y-14588936D02*
X12280429Y-14388936D01*
X12328048Y-14388936D01*
X12356619Y-14398460D01*
X12375667Y-14417508D01*
X12385191Y-14436555D01*
X12394715Y-14474650D01*
X12394715Y-14503222D01*
X12385191Y-14541317D01*
X12375667Y-14560365D01*
X12356619Y-14579412D01*
X12328048Y-14588936D01*
X12280429Y-14588936D01*
X12480429Y-14588936D02*
X12480429Y-14455603D01*
X12480429Y-14493698D02*
X12489953Y-14474650D01*
X12499477Y-14465127D01*
X12518524Y-14455603D01*
X12537572Y-14455603D01*
X12604238Y-14588936D02*
X12604238Y-14455603D01*
X12604238Y-14388936D02*
X12594715Y-14398460D01*
X12604238Y-14407984D01*
X12613762Y-14398460D01*
X12604238Y-14388936D01*
X12604238Y-14407984D01*
X12728048Y-14588936D02*
X12709000Y-14579412D01*
X12699477Y-14560365D01*
X12699477Y-14388936D01*
X12832810Y-14588936D02*
X12813762Y-14579412D01*
X12804238Y-14560365D01*
X12804238Y-14388936D01*
X13061381Y-14588936D02*
X13061381Y-14388936D01*
X13128048Y-14531793D01*
X13194715Y-14388936D01*
X13194715Y-14588936D01*
X13375667Y-14588936D02*
X13375667Y-14484174D01*
X13366143Y-14465127D01*
X13347096Y-14455603D01*
X13309000Y-14455603D01*
X13289953Y-14465127D01*
X13375667Y-14579412D02*
X13356619Y-14588936D01*
X13309000Y-14588936D01*
X13289953Y-14579412D01*
X13280429Y-14560365D01*
X13280429Y-14541317D01*
X13289953Y-14522269D01*
X13309000Y-14512746D01*
X13356619Y-14512746D01*
X13375667Y-14503222D01*
X13470905Y-14455603D02*
X13470905Y-14655603D01*
X13470905Y-14465127D02*
X13489953Y-14455603D01*
X13528048Y-14455603D01*
X13547096Y-14465127D01*
X13556619Y-14474650D01*
X13566143Y-14493698D01*
X13566143Y-14550841D01*
X13556619Y-14569888D01*
X13547096Y-14579412D01*
X13528048Y-14588936D01*
X13489953Y-14588936D01*
X13470905Y-14579412D01*
X13651858Y-14569888D02*
X13661381Y-14579412D01*
X13651858Y-14588936D01*
X13642334Y-14579412D01*
X13651858Y-14569888D01*
X13651858Y-14588936D01*
X13651858Y-14465127D02*
X13661381Y-14474650D01*
X13651858Y-14484174D01*
X13642334Y-14474650D01*
X13651858Y-14465127D01*
X13651858Y-14484174D01*
D11*
X11982810Y-14898460D02*
X12022810Y-14938460D01*
X12022810Y-14898460D02*
X11982810Y-14938460D01*
D10*
X12318524Y-14808936D02*
X12337572Y-14808936D01*
X12356619Y-14818460D01*
X12366143Y-14827984D01*
X12375667Y-14847031D01*
X12385191Y-14885127D01*
X12385191Y-14932746D01*
X12375667Y-14970841D01*
X12366143Y-14989888D01*
X12356619Y-14999412D01*
X12337572Y-15008936D01*
X12318524Y-15008936D01*
X12299477Y-14999412D01*
X12289953Y-14989888D01*
X12280429Y-14970841D01*
X12270905Y-14932746D01*
X12270905Y-14885127D01*
X12280429Y-14847031D01*
X12289953Y-14827984D01*
X12299477Y-14818460D01*
X12318524Y-14808936D01*
X12470905Y-14989888D02*
X12480429Y-14999412D01*
X12470905Y-15008936D01*
X12461381Y-14999412D01*
X12470905Y-14989888D01*
X12470905Y-15008936D01*
X12651858Y-14875603D02*
X12651858Y-15008936D01*
X12604238Y-14799412D02*
X12556619Y-14942269D01*
X12680429Y-14942269D01*
X12794715Y-14808936D02*
X12813762Y-14808936D01*
X12832810Y-14818460D01*
X12842334Y-14827984D01*
X12851858Y-14847031D01*
X12861381Y-14885127D01*
X12861381Y-14932746D01*
X12851858Y-14970841D01*
X12842334Y-14989888D01*
X12832810Y-14999412D01*
X12813762Y-15008936D01*
X12794715Y-15008936D01*
X12775667Y-14999412D01*
X12766143Y-14989888D01*
X12756619Y-14970841D01*
X12747096Y-14932746D01*
X12747096Y-14885127D01*
X12756619Y-14847031D01*
X12766143Y-14827984D01*
X12775667Y-14818460D01*
X12794715Y-14808936D01*
X12985191Y-14808936D02*
X13004238Y-14808936D01*
X13023286Y-14818460D01*
X13032810Y-14827984D01*
X13042334Y-14847031D01*
X13051858Y-14885127D01*
X13051858Y-14932746D01*
X13042334Y-14970841D01*
X13032810Y-14989888D01*
X13023286Y-14999412D01*
X13004238Y-15008936D01*
X12985191Y-15008936D01*
X12966143Y-14999412D01*
X12956619Y-14989888D01*
X12947096Y-14970841D01*
X12937572Y-14932746D01*
X12937572Y-14885127D01*
X12947096Y-14847031D01*
X12956619Y-14827984D01*
X12966143Y-14818460D01*
X12985191Y-14808936D01*
X13137572Y-15008936D02*
X13137572Y-14875603D01*
X13137572Y-14894650D02*
X13147096Y-14885127D01*
X13166143Y-14875603D01*
X13194715Y-14875603D01*
X13213762Y-14885127D01*
X13223286Y-14904174D01*
X13223286Y-15008936D01*
X13223286Y-14904174D02*
X13232810Y-14885127D01*
X13251858Y-14875603D01*
X13280429Y-14875603D01*
X13299477Y-14885127D01*
X13309000Y-14904174D01*
X13309000Y-15008936D01*
X13404238Y-15008936D02*
X13404238Y-14875603D01*
X13404238Y-14894650D02*
X13413762Y-14885127D01*
X13432810Y-14875603D01*
X13461381Y-14875603D01*
X13480429Y-14885127D01*
X13489953Y-14904174D01*
X13489953Y-15008936D01*
X13489953Y-14904174D02*
X13499477Y-14885127D01*
X13518524Y-14875603D01*
X13547096Y-14875603D01*
X13566143Y-14885127D01*
X13575667Y-14904174D01*
X13575667Y-15008936D01*
X13966143Y-14799412D02*
X13794715Y-15056555D01*
X14223286Y-14808936D02*
X14242334Y-14808936D01*
X14261381Y-14818460D01*
X14270905Y-14827984D01*
X14280429Y-14847031D01*
X14289953Y-14885127D01*
X14289953Y-14932746D01*
X14280429Y-14970841D01*
X14270905Y-14989888D01*
X14261381Y-14999412D01*
X14242334Y-15008936D01*
X14223286Y-15008936D01*
X14204238Y-14999412D01*
X14194715Y-14989888D01*
X14185191Y-14970841D01*
X14175667Y-14932746D01*
X14175667Y-14885127D01*
X14185191Y-14847031D01*
X14194715Y-14827984D01*
X14204238Y-14818460D01*
X14223286Y-14808936D01*
X14375667Y-14989888D02*
X14385191Y-14999412D01*
X14375667Y-15008936D01*
X14366143Y-14999412D01*
X14375667Y-14989888D01*
X14375667Y-15008936D01*
X14509000Y-14808936D02*
X14528048Y-14808936D01*
X14547096Y-14818460D01*
X14556619Y-14827984D01*
X14566143Y-14847031D01*
X14575667Y-14885127D01*
X14575667Y-14932746D01*
X14566143Y-14970841D01*
X14556619Y-14989888D01*
X14547096Y-14999412D01*
X14528048Y-15008936D01*
X14509000Y-15008936D01*
X14489953Y-14999412D01*
X14480429Y-14989888D01*
X14470905Y-14970841D01*
X14461381Y-14932746D01*
X14461381Y-14885127D01*
X14470905Y-14847031D01*
X14480429Y-14827984D01*
X14489953Y-14818460D01*
X14509000Y-14808936D01*
X14766143Y-15008936D02*
X14651858Y-15008936D01*
X14709000Y-15008936D02*
X14709000Y-14808936D01*
X14689953Y-14837508D01*
X14670905Y-14856555D01*
X14651858Y-14866079D01*
X14947096Y-14808936D02*
X14851858Y-14808936D01*
X14842334Y-14904174D01*
X14851858Y-14894650D01*
X14870905Y-14885127D01*
X14918524Y-14885127D01*
X14937572Y-14894650D01*
X14947096Y-14904174D01*
X14956619Y-14923222D01*
X14956619Y-14970841D01*
X14947096Y-14989888D01*
X14937572Y-14999412D01*
X14918524Y-15008936D01*
X14870905Y-15008936D01*
X14851858Y-14999412D01*
X14842334Y-14989888D01*
X15023286Y-14808936D02*
X15156619Y-14808936D01*
X15070905Y-15008936D01*
X15223286Y-14808936D02*
X15223286Y-14847031D01*
X15299477Y-14808936D02*
X15299477Y-14847031D01*
X15594715Y-15085127D02*
X15585191Y-15075603D01*
X15566143Y-15047031D01*
X15556619Y-15027984D01*
X15547096Y-14999412D01*
X15537572Y-14951793D01*
X15537572Y-14913698D01*
X15547096Y-14866079D01*
X15556619Y-14837508D01*
X15566143Y-14818460D01*
X15585191Y-14789888D01*
X15594715Y-14780365D01*
X15775667Y-15008936D02*
X15661381Y-15008936D01*
X15718524Y-15008936D02*
X15718524Y-14808936D01*
X15699477Y-14837508D01*
X15680429Y-14856555D01*
X15661381Y-14866079D01*
X15842334Y-14808936D02*
X15966143Y-14808936D01*
X15899477Y-14885127D01*
X15928048Y-14885127D01*
X15947096Y-14894650D01*
X15956619Y-14904174D01*
X15966143Y-14923222D01*
X15966143Y-14970841D01*
X15956619Y-14989888D01*
X15947096Y-14999412D01*
X15928048Y-15008936D01*
X15870905Y-15008936D01*
X15851858Y-14999412D01*
X15842334Y-14989888D01*
X16089953Y-14808936D02*
X16109000Y-14808936D01*
X16128048Y-14818460D01*
X16137572Y-14827984D01*
X16147096Y-14847031D01*
X16156619Y-14885127D01*
X16156619Y-14932746D01*
X16147096Y-14970841D01*
X16137572Y-14989888D01*
X16128048Y-14999412D01*
X16109000Y-15008936D01*
X16089953Y-15008936D01*
X16070905Y-14999412D01*
X16061381Y-14989888D01*
X16051858Y-14970841D01*
X16042334Y-14932746D01*
X16042334Y-14885127D01*
X16051858Y-14847031D01*
X16061381Y-14827984D01*
X16070905Y-14818460D01*
X16089953Y-14808936D01*
X16394715Y-15008936D02*
X16394715Y-14808936D01*
X16480429Y-15008936D02*
X16480429Y-14904174D01*
X16470905Y-14885127D01*
X16451858Y-14875603D01*
X16423286Y-14875603D01*
X16404238Y-14885127D01*
X16394715Y-14894650D01*
X16604238Y-15008936D02*
X16585191Y-14999412D01*
X16575667Y-14989888D01*
X16566143Y-14970841D01*
X16566143Y-14913698D01*
X16575667Y-14894650D01*
X16585191Y-14885127D01*
X16604238Y-14875603D01*
X16632810Y-14875603D01*
X16651858Y-14885127D01*
X16661381Y-14894650D01*
X16670905Y-14913698D01*
X16670905Y-14970841D01*
X16661381Y-14989888D01*
X16651858Y-14999412D01*
X16632810Y-15008936D01*
X16604238Y-15008936D01*
X16785191Y-15008936D02*
X16766143Y-14999412D01*
X16756619Y-14980365D01*
X16756619Y-14808936D01*
X16937572Y-14999412D02*
X16918524Y-15008936D01*
X16880429Y-15008936D01*
X16861381Y-14999412D01*
X16851858Y-14980365D01*
X16851858Y-14904174D01*
X16861381Y-14885127D01*
X16880429Y-14875603D01*
X16918524Y-14875603D01*
X16937572Y-14885127D01*
X16947096Y-14904174D01*
X16947096Y-14923222D01*
X16851858Y-14942269D01*
X17023286Y-14999412D02*
X17042334Y-15008936D01*
X17080429Y-15008936D01*
X17099477Y-14999412D01*
X17109000Y-14980365D01*
X17109000Y-14970841D01*
X17099477Y-14951793D01*
X17080429Y-14942269D01*
X17051858Y-14942269D01*
X17032810Y-14932746D01*
X17023286Y-14913698D01*
X17023286Y-14904174D01*
X17032810Y-14885127D01*
X17051858Y-14875603D01*
X17080429Y-14875603D01*
X17099477Y-14885127D01*
X17175667Y-15085127D02*
X17185191Y-15075603D01*
X17204239Y-15047031D01*
X17213762Y-15027984D01*
X17223286Y-14999412D01*
X17232810Y-14951793D01*
X17232810Y-14913698D01*
X17223286Y-14866079D01*
X17213762Y-14837508D01*
X17204239Y-14818460D01*
X17185191Y-14789888D01*
X17175667Y-14780365D01*
D12*
X12022810Y-15182460D02*
G75*
G03*
X12022810Y-15182460I-40000J0D01*
G01*
D10*
X12318524Y-15072936D02*
X12337572Y-15072936D01*
X12356619Y-15082460D01*
X12366143Y-15091984D01*
X12375667Y-15111031D01*
X12385191Y-15149127D01*
X12385191Y-15196746D01*
X12375667Y-15234841D01*
X12366143Y-15253888D01*
X12356619Y-15263412D01*
X12337572Y-15272936D01*
X12318524Y-15272936D01*
X12299477Y-15263412D01*
X12289953Y-15253888D01*
X12280429Y-15234841D01*
X12270905Y-15196746D01*
X12270905Y-15149127D01*
X12280429Y-15111031D01*
X12289953Y-15091984D01*
X12299477Y-15082460D01*
X12318524Y-15072936D01*
X12470905Y-15253888D02*
X12480429Y-15263412D01*
X12470905Y-15272936D01*
X12461381Y-15263412D01*
X12470905Y-15253888D01*
X12470905Y-15272936D01*
X12594715Y-15158650D02*
X12575667Y-15149127D01*
X12566143Y-15139603D01*
X12556619Y-15120555D01*
X12556619Y-15111031D01*
X12566143Y-15091984D01*
X12575667Y-15082460D01*
X12594715Y-15072936D01*
X12632810Y-15072936D01*
X12651858Y-15082460D01*
X12661381Y-15091984D01*
X12670905Y-15111031D01*
X12670905Y-15120555D01*
X12661381Y-15139603D01*
X12651858Y-15149127D01*
X12632810Y-15158650D01*
X12594715Y-15158650D01*
X12575667Y-15168174D01*
X12566143Y-15177698D01*
X12556619Y-15196746D01*
X12556619Y-15234841D01*
X12566143Y-15253888D01*
X12575667Y-15263412D01*
X12594715Y-15272936D01*
X12632810Y-15272936D01*
X12651858Y-15263412D01*
X12661381Y-15253888D01*
X12670905Y-15234841D01*
X12670905Y-15196746D01*
X12661381Y-15177698D01*
X12651858Y-15168174D01*
X12632810Y-15158650D01*
X12794715Y-15072936D02*
X12813762Y-15072936D01*
X12832810Y-15082460D01*
X12842334Y-15091984D01*
X12851858Y-15111031D01*
X12861381Y-15149127D01*
X12861381Y-15196746D01*
X12851858Y-15234841D01*
X12842334Y-15253888D01*
X12832810Y-15263412D01*
X12813762Y-15272936D01*
X12794715Y-15272936D01*
X12775667Y-15263412D01*
X12766143Y-15253888D01*
X12756619Y-15234841D01*
X12747096Y-15196746D01*
X12747096Y-15149127D01*
X12756619Y-15111031D01*
X12766143Y-15091984D01*
X12775667Y-15082460D01*
X12794715Y-15072936D01*
X12985191Y-15072936D02*
X13004238Y-15072936D01*
X13023286Y-15082460D01*
X13032810Y-15091984D01*
X13042334Y-15111031D01*
X13051858Y-15149127D01*
X13051858Y-15196746D01*
X13042334Y-15234841D01*
X13032810Y-15253888D01*
X13023286Y-15263412D01*
X13004238Y-15272936D01*
X12985191Y-15272936D01*
X12966143Y-15263412D01*
X12956619Y-15253888D01*
X12947096Y-15234841D01*
X12937572Y-15196746D01*
X12937572Y-15149127D01*
X12947096Y-15111031D01*
X12956619Y-15091984D01*
X12966143Y-15082460D01*
X12985191Y-15072936D01*
X13137572Y-15272936D02*
X13137572Y-15139603D01*
X13137572Y-15158650D02*
X13147096Y-15149127D01*
X13166143Y-15139603D01*
X13194715Y-15139603D01*
X13213762Y-15149127D01*
X13223286Y-15168174D01*
X13223286Y-15272936D01*
X13223286Y-15168174D02*
X13232810Y-15149127D01*
X13251858Y-15139603D01*
X13280429Y-15139603D01*
X13299477Y-15149127D01*
X13309000Y-15168174D01*
X13309000Y-15272936D01*
X13404238Y-15272936D02*
X13404238Y-15139603D01*
X13404238Y-15158650D02*
X13413762Y-15149127D01*
X13432810Y-15139603D01*
X13461381Y-15139603D01*
X13480429Y-15149127D01*
X13489953Y-15168174D01*
X13489953Y-15272936D01*
X13489953Y-15168174D02*
X13499477Y-15149127D01*
X13518524Y-15139603D01*
X13547096Y-15139603D01*
X13566143Y-15149127D01*
X13575667Y-15168174D01*
X13575667Y-15272936D01*
X13966143Y-15063412D02*
X13794715Y-15320555D01*
X14223286Y-15072936D02*
X14242334Y-15072936D01*
X14261381Y-15082460D01*
X14270905Y-15091984D01*
X14280429Y-15111031D01*
X14289953Y-15149127D01*
X14289953Y-15196746D01*
X14280429Y-15234841D01*
X14270905Y-15253888D01*
X14261381Y-15263412D01*
X14242334Y-15272936D01*
X14223286Y-15272936D01*
X14204238Y-15263412D01*
X14194715Y-15253888D01*
X14185191Y-15234841D01*
X14175667Y-15196746D01*
X14175667Y-15149127D01*
X14185191Y-15111031D01*
X14194715Y-15091984D01*
X14204238Y-15082460D01*
X14223286Y-15072936D01*
X14375667Y-15253888D02*
X14385191Y-15263412D01*
X14375667Y-15272936D01*
X14366143Y-15263412D01*
X14375667Y-15253888D01*
X14375667Y-15272936D01*
X14509000Y-15072936D02*
X14528048Y-15072936D01*
X14547096Y-15082460D01*
X14556619Y-15091984D01*
X14566143Y-15111031D01*
X14575667Y-15149127D01*
X14575667Y-15196746D01*
X14566143Y-15234841D01*
X14556619Y-15253888D01*
X14547096Y-15263412D01*
X14528048Y-15272936D01*
X14509000Y-15272936D01*
X14489953Y-15263412D01*
X14480429Y-15253888D01*
X14470905Y-15234841D01*
X14461381Y-15196746D01*
X14461381Y-15149127D01*
X14470905Y-15111031D01*
X14480429Y-15091984D01*
X14489953Y-15082460D01*
X14509000Y-15072936D01*
X14642334Y-15072936D02*
X14766143Y-15072936D01*
X14699477Y-15149127D01*
X14728048Y-15149127D01*
X14747096Y-15158650D01*
X14756619Y-15168174D01*
X14766143Y-15187222D01*
X14766143Y-15234841D01*
X14756619Y-15253888D01*
X14747096Y-15263412D01*
X14728048Y-15272936D01*
X14670905Y-15272936D01*
X14651858Y-15263412D01*
X14642334Y-15253888D01*
X14956619Y-15272936D02*
X14842334Y-15272936D01*
X14899477Y-15272936D02*
X14899477Y-15072936D01*
X14880429Y-15101508D01*
X14861381Y-15120555D01*
X14842334Y-15130079D01*
X15137572Y-15072936D02*
X15042334Y-15072936D01*
X15032810Y-15168174D01*
X15042334Y-15158650D01*
X15061381Y-15149127D01*
X15109000Y-15149127D01*
X15128048Y-15158650D01*
X15137572Y-15168174D01*
X15147096Y-15187222D01*
X15147096Y-15234841D01*
X15137572Y-15253888D01*
X15128048Y-15263412D01*
X15109000Y-15272936D01*
X15061381Y-15272936D01*
X15042334Y-15263412D01*
X15032810Y-15253888D01*
X15223286Y-15072936D02*
X15223286Y-15111031D01*
X15299477Y-15072936D02*
X15299477Y-15111031D01*
X15594715Y-15349127D02*
X15585191Y-15339603D01*
X15566143Y-15311031D01*
X15556619Y-15291984D01*
X15547096Y-15263412D01*
X15537572Y-15215793D01*
X15537572Y-15177698D01*
X15547096Y-15130079D01*
X15556619Y-15101508D01*
X15566143Y-15082460D01*
X15585191Y-15053888D01*
X15594715Y-15044365D01*
X15775667Y-15272936D02*
X15661381Y-15272936D01*
X15718524Y-15272936D02*
X15718524Y-15072936D01*
X15699477Y-15101508D01*
X15680429Y-15120555D01*
X15661381Y-15130079D01*
X15947096Y-15139603D02*
X15947096Y-15272936D01*
X15899477Y-15063412D02*
X15851858Y-15206269D01*
X15975667Y-15206269D01*
X16042334Y-15091984D02*
X16051858Y-15082460D01*
X16070905Y-15072936D01*
X16118524Y-15072936D01*
X16137572Y-15082460D01*
X16147096Y-15091984D01*
X16156619Y-15111031D01*
X16156619Y-15130079D01*
X16147096Y-15158650D01*
X16032810Y-15272936D01*
X16156619Y-15272936D01*
X16394715Y-15272936D02*
X16394715Y-15072936D01*
X16480429Y-15272936D02*
X16480429Y-15168174D01*
X16470905Y-15149127D01*
X16451858Y-15139603D01*
X16423286Y-15139603D01*
X16404238Y-15149127D01*
X16394715Y-15158650D01*
X16604238Y-15272936D02*
X16585191Y-15263412D01*
X16575667Y-15253888D01*
X16566143Y-15234841D01*
X16566143Y-15177698D01*
X16575667Y-15158650D01*
X16585191Y-15149127D01*
X16604238Y-15139603D01*
X16632810Y-15139603D01*
X16651858Y-15149127D01*
X16661381Y-15158650D01*
X16670905Y-15177698D01*
X16670905Y-15234841D01*
X16661381Y-15253888D01*
X16651858Y-15263412D01*
X16632810Y-15272936D01*
X16604238Y-15272936D01*
X16785191Y-15272936D02*
X16766143Y-15263412D01*
X16756619Y-15244365D01*
X16756619Y-15072936D01*
X16937572Y-15263412D02*
X16918524Y-15272936D01*
X16880429Y-15272936D01*
X16861381Y-15263412D01*
X16851858Y-15244365D01*
X16851858Y-15168174D01*
X16861381Y-15149127D01*
X16880429Y-15139603D01*
X16918524Y-15139603D01*
X16937572Y-15149127D01*
X16947096Y-15168174D01*
X16947096Y-15187222D01*
X16851858Y-15206269D01*
X17023286Y-15263412D02*
X17042334Y-15272936D01*
X17080429Y-15272936D01*
X17099477Y-15263412D01*
X17109000Y-15244365D01*
X17109000Y-15234841D01*
X17099477Y-15215793D01*
X17080429Y-15206269D01*
X17051858Y-15206269D01*
X17032810Y-15196746D01*
X17023286Y-15177698D01*
X17023286Y-15168174D01*
X17032810Y-15149127D01*
X17051858Y-15139603D01*
X17080429Y-15139603D01*
X17099477Y-15149127D01*
X17175667Y-15349127D02*
X17185191Y-15339603D01*
X17204239Y-15311031D01*
X17213762Y-15291984D01*
X17223286Y-15263412D01*
X17232810Y-15215793D01*
X17232810Y-15177698D01*
X17223286Y-15130079D01*
X17213762Y-15101508D01*
X17204239Y-15082460D01*
X17185191Y-15053888D01*
X17175667Y-15044365D01*
D13*
X11972810Y-15396460D02*
X11972810Y-15496460D01*
X11922810Y-15446460D02*
X12022810Y-15446460D01*
D10*
X12385191Y-15536936D02*
X12270905Y-15536936D01*
X12328048Y-15536936D02*
X12328048Y-15336936D01*
X12309000Y-15365508D01*
X12289953Y-15384555D01*
X12270905Y-15394079D01*
X12470905Y-15517888D02*
X12480429Y-15527412D01*
X12470905Y-15536936D01*
X12461381Y-15527412D01*
X12470905Y-15517888D01*
X12470905Y-15536936D01*
X12604238Y-15336936D02*
X12623286Y-15336936D01*
X12642334Y-15346460D01*
X12651858Y-15355984D01*
X12661381Y-15375031D01*
X12670905Y-15413127D01*
X12670905Y-15460746D01*
X12661381Y-15498841D01*
X12651858Y-15517888D01*
X12642334Y-15527412D01*
X12623286Y-15536936D01*
X12604238Y-15536936D01*
X12585191Y-15527412D01*
X12575667Y-15517888D01*
X12566143Y-15498841D01*
X12556619Y-15460746D01*
X12556619Y-15413127D01*
X12566143Y-15375031D01*
X12575667Y-15355984D01*
X12585191Y-15346460D01*
X12604238Y-15336936D01*
X12794715Y-15336936D02*
X12813762Y-15336936D01*
X12832810Y-15346460D01*
X12842334Y-15355984D01*
X12851858Y-15375031D01*
X12861381Y-15413127D01*
X12861381Y-15460746D01*
X12851858Y-15498841D01*
X12842334Y-15517888D01*
X12832810Y-15527412D01*
X12813762Y-15536936D01*
X12794715Y-15536936D01*
X12775667Y-15527412D01*
X12766143Y-15517888D01*
X12756619Y-15498841D01*
X12747096Y-15460746D01*
X12747096Y-15413127D01*
X12756619Y-15375031D01*
X12766143Y-15355984D01*
X12775667Y-15346460D01*
X12794715Y-15336936D01*
X12985191Y-15336936D02*
X13004238Y-15336936D01*
X13023286Y-15346460D01*
X13032810Y-15355984D01*
X13042334Y-15375031D01*
X13051858Y-15413127D01*
X13051858Y-15460746D01*
X13042334Y-15498841D01*
X13032810Y-15517888D01*
X13023286Y-15527412D01*
X13004238Y-15536936D01*
X12985191Y-15536936D01*
X12966143Y-15527412D01*
X12956619Y-15517888D01*
X12947096Y-15498841D01*
X12937572Y-15460746D01*
X12937572Y-15413127D01*
X12947096Y-15375031D01*
X12956619Y-15355984D01*
X12966143Y-15346460D01*
X12985191Y-15336936D01*
X13137572Y-15536936D02*
X13137572Y-15403603D01*
X13137572Y-15422650D02*
X13147096Y-15413127D01*
X13166143Y-15403603D01*
X13194715Y-15403603D01*
X13213762Y-15413127D01*
X13223286Y-15432174D01*
X13223286Y-15536936D01*
X13223286Y-15432174D02*
X13232810Y-15413127D01*
X13251858Y-15403603D01*
X13280429Y-15403603D01*
X13299477Y-15413127D01*
X13309000Y-15432174D01*
X13309000Y-15536936D01*
X13404238Y-15536936D02*
X13404238Y-15403603D01*
X13404238Y-15422650D02*
X13413762Y-15413127D01*
X13432810Y-15403603D01*
X13461381Y-15403603D01*
X13480429Y-15413127D01*
X13489953Y-15432174D01*
X13489953Y-15536936D01*
X13489953Y-15432174D02*
X13499477Y-15413127D01*
X13518524Y-15403603D01*
X13547096Y-15403603D01*
X13566143Y-15413127D01*
X13575667Y-15432174D01*
X13575667Y-15536936D01*
X13966143Y-15327412D02*
X13794715Y-15584555D01*
X14223286Y-15336936D02*
X14242334Y-15336936D01*
X14261381Y-15346460D01*
X14270905Y-15355984D01*
X14280429Y-15375031D01*
X14289953Y-15413127D01*
X14289953Y-15460746D01*
X14280429Y-15498841D01*
X14270905Y-15517888D01*
X14261381Y-15527412D01*
X14242334Y-15536936D01*
X14223286Y-15536936D01*
X14204238Y-15527412D01*
X14194715Y-15517888D01*
X14185191Y-15498841D01*
X14175667Y-15460746D01*
X14175667Y-15413127D01*
X14185191Y-15375031D01*
X14194715Y-15355984D01*
X14204238Y-15346460D01*
X14223286Y-15336936D01*
X14375667Y-15517888D02*
X14385191Y-15527412D01*
X14375667Y-15536936D01*
X14366143Y-15527412D01*
X14375667Y-15517888D01*
X14375667Y-15536936D01*
X14509000Y-15336936D02*
X14528048Y-15336936D01*
X14547096Y-15346460D01*
X14556619Y-15355984D01*
X14566143Y-15375031D01*
X14575667Y-15413127D01*
X14575667Y-15460746D01*
X14566143Y-15498841D01*
X14556619Y-15517888D01*
X14547096Y-15527412D01*
X14528048Y-15536936D01*
X14509000Y-15536936D01*
X14489953Y-15527412D01*
X14480429Y-15517888D01*
X14470905Y-15498841D01*
X14461381Y-15460746D01*
X14461381Y-15413127D01*
X14470905Y-15375031D01*
X14480429Y-15355984D01*
X14489953Y-15346460D01*
X14509000Y-15336936D01*
X14642334Y-15336936D02*
X14766143Y-15336936D01*
X14699477Y-15413127D01*
X14728048Y-15413127D01*
X14747096Y-15422650D01*
X14756619Y-15432174D01*
X14766143Y-15451222D01*
X14766143Y-15498841D01*
X14756619Y-15517888D01*
X14747096Y-15527412D01*
X14728048Y-15536936D01*
X14670905Y-15536936D01*
X14651858Y-15527412D01*
X14642334Y-15517888D01*
X14861381Y-15536936D02*
X14899477Y-15536936D01*
X14918524Y-15527412D01*
X14928048Y-15517888D01*
X14947096Y-15489317D01*
X14956619Y-15451222D01*
X14956619Y-15375031D01*
X14947096Y-15355984D01*
X14937572Y-15346460D01*
X14918524Y-15336936D01*
X14880429Y-15336936D01*
X14861381Y-15346460D01*
X14851858Y-15355984D01*
X14842334Y-15375031D01*
X14842334Y-15422650D01*
X14851858Y-15441698D01*
X14861381Y-15451222D01*
X14880429Y-15460746D01*
X14918524Y-15460746D01*
X14937572Y-15451222D01*
X14947096Y-15441698D01*
X14956619Y-15422650D01*
X15128048Y-15403603D02*
X15128048Y-15536936D01*
X15080429Y-15327412D02*
X15032810Y-15470269D01*
X15156619Y-15470269D01*
X15223286Y-15336936D02*
X15223286Y-15375031D01*
X15299477Y-15336936D02*
X15299477Y-15375031D01*
X15594715Y-15613127D02*
X15585191Y-15603603D01*
X15566143Y-15575031D01*
X15556619Y-15555984D01*
X15547096Y-15527412D01*
X15537572Y-15479793D01*
X15537572Y-15441698D01*
X15547096Y-15394079D01*
X15556619Y-15365508D01*
X15566143Y-15346460D01*
X15585191Y-15317888D01*
X15594715Y-15308365D01*
X15661381Y-15355984D02*
X15670905Y-15346460D01*
X15689953Y-15336936D01*
X15737572Y-15336936D01*
X15756619Y-15346460D01*
X15766143Y-15355984D01*
X15775667Y-15375031D01*
X15775667Y-15394079D01*
X15766143Y-15422650D01*
X15651858Y-15536936D01*
X15775667Y-15536936D01*
X15842334Y-15336936D02*
X15966143Y-15336936D01*
X15899477Y-15413127D01*
X15928048Y-15413127D01*
X15947096Y-15422650D01*
X15956619Y-15432174D01*
X15966143Y-15451222D01*
X15966143Y-15498841D01*
X15956619Y-15517888D01*
X15947096Y-15527412D01*
X15928048Y-15536936D01*
X15870905Y-15536936D01*
X15851858Y-15527412D01*
X15842334Y-15517888D01*
X16204238Y-15536936D02*
X16204238Y-15336936D01*
X16289953Y-15536936D02*
X16289953Y-15432174D01*
X16280429Y-15413127D01*
X16261381Y-15403603D01*
X16232810Y-15403603D01*
X16213762Y-15413127D01*
X16204238Y-15422650D01*
X16413762Y-15536936D02*
X16394715Y-15527412D01*
X16385191Y-15517888D01*
X16375667Y-15498841D01*
X16375667Y-15441698D01*
X16385191Y-15422650D01*
X16394715Y-15413127D01*
X16413762Y-15403603D01*
X16442334Y-15403603D01*
X16461381Y-15413127D01*
X16470905Y-15422650D01*
X16480429Y-15441698D01*
X16480429Y-15498841D01*
X16470905Y-15517888D01*
X16461381Y-15527412D01*
X16442334Y-15536936D01*
X16413762Y-15536936D01*
X16594715Y-15536936D02*
X16575667Y-15527412D01*
X16566143Y-15508365D01*
X16566143Y-15336936D01*
X16747096Y-15527412D02*
X16728048Y-15536936D01*
X16689953Y-15536936D01*
X16670905Y-15527412D01*
X16661381Y-15508365D01*
X16661381Y-15432174D01*
X16670905Y-15413127D01*
X16689953Y-15403603D01*
X16728048Y-15403603D01*
X16747096Y-15413127D01*
X16756619Y-15432174D01*
X16756619Y-15451222D01*
X16661381Y-15470269D01*
X16832810Y-15527412D02*
X16851858Y-15536936D01*
X16889953Y-15536936D01*
X16909000Y-15527412D01*
X16918524Y-15508365D01*
X16918524Y-15498841D01*
X16909000Y-15479793D01*
X16889953Y-15470269D01*
X16861381Y-15470269D01*
X16842334Y-15460746D01*
X16832810Y-15441698D01*
X16832810Y-15432174D01*
X16842334Y-15413127D01*
X16861381Y-15403603D01*
X16889953Y-15403603D01*
X16909000Y-15413127D01*
X16985191Y-15613127D02*
X16994715Y-15603603D01*
X17013762Y-15575031D01*
X17023286Y-15555984D01*
X17032810Y-15527412D01*
X17042334Y-15479793D01*
X17042334Y-15441698D01*
X17032810Y-15394079D01*
X17023286Y-15365508D01*
X17013762Y-15346460D01*
X16994715Y-15317888D01*
X16985191Y-15308365D01*
D14*
X12005237Y-15752887D02*
X12005237Y-15668033D01*
X11920383Y-15668033D01*
X11920383Y-15752887D01*
X12005237Y-15752887D01*
D10*
X12385191Y-15800936D02*
X12270905Y-15800936D01*
X12328048Y-15800936D02*
X12328048Y-15600936D01*
X12309000Y-15629508D01*
X12289953Y-15648555D01*
X12270905Y-15658079D01*
X12470905Y-15781888D02*
X12480429Y-15791412D01*
X12470905Y-15800936D01*
X12461381Y-15791412D01*
X12470905Y-15781888D01*
X12470905Y-15800936D01*
X12556619Y-15619984D02*
X12566143Y-15610460D01*
X12585191Y-15600936D01*
X12632810Y-15600936D01*
X12651858Y-15610460D01*
X12661381Y-15619984D01*
X12670905Y-15639031D01*
X12670905Y-15658079D01*
X12661381Y-15686650D01*
X12547096Y-15800936D01*
X12670905Y-15800936D01*
X12794715Y-15600936D02*
X12813762Y-15600936D01*
X12832810Y-15610460D01*
X12842334Y-15619984D01*
X12851858Y-15639031D01*
X12861381Y-15677127D01*
X12861381Y-15724746D01*
X12851858Y-15762841D01*
X12842334Y-15781888D01*
X12832810Y-15791412D01*
X12813762Y-15800936D01*
X12794715Y-15800936D01*
X12775667Y-15791412D01*
X12766143Y-15781888D01*
X12756619Y-15762841D01*
X12747096Y-15724746D01*
X12747096Y-15677127D01*
X12756619Y-15639031D01*
X12766143Y-15619984D01*
X12775667Y-15610460D01*
X12794715Y-15600936D01*
X12985191Y-15600936D02*
X13004238Y-15600936D01*
X13023286Y-15610460D01*
X13032810Y-15619984D01*
X13042334Y-15639031D01*
X13051858Y-15677127D01*
X13051858Y-15724746D01*
X13042334Y-15762841D01*
X13032810Y-15781888D01*
X13023286Y-15791412D01*
X13004238Y-15800936D01*
X12985191Y-15800936D01*
X12966143Y-15791412D01*
X12956619Y-15781888D01*
X12947096Y-15762841D01*
X12937572Y-15724746D01*
X12937572Y-15677127D01*
X12947096Y-15639031D01*
X12956619Y-15619984D01*
X12966143Y-15610460D01*
X12985191Y-15600936D01*
X13137572Y-15800936D02*
X13137572Y-15667603D01*
X13137572Y-15686650D02*
X13147096Y-15677127D01*
X13166143Y-15667603D01*
X13194715Y-15667603D01*
X13213762Y-15677127D01*
X13223286Y-15696174D01*
X13223286Y-15800936D01*
X13223286Y-15696174D02*
X13232810Y-15677127D01*
X13251858Y-15667603D01*
X13280429Y-15667603D01*
X13299477Y-15677127D01*
X13309000Y-15696174D01*
X13309000Y-15800936D01*
X13404238Y-15800936D02*
X13404238Y-15667603D01*
X13404238Y-15686650D02*
X13413762Y-15677127D01*
X13432810Y-15667603D01*
X13461381Y-15667603D01*
X13480429Y-15677127D01*
X13489953Y-15696174D01*
X13489953Y-15800936D01*
X13489953Y-15696174D02*
X13499477Y-15677127D01*
X13518524Y-15667603D01*
X13547096Y-15667603D01*
X13566143Y-15677127D01*
X13575667Y-15696174D01*
X13575667Y-15800936D01*
X13966143Y-15591412D02*
X13794715Y-15848555D01*
X14223286Y-15600936D02*
X14242334Y-15600936D01*
X14261381Y-15610460D01*
X14270905Y-15619984D01*
X14280429Y-15639031D01*
X14289953Y-15677127D01*
X14289953Y-15724746D01*
X14280429Y-15762841D01*
X14270905Y-15781888D01*
X14261381Y-15791412D01*
X14242334Y-15800936D01*
X14223286Y-15800936D01*
X14204238Y-15791412D01*
X14194715Y-15781888D01*
X14185191Y-15762841D01*
X14175667Y-15724746D01*
X14175667Y-15677127D01*
X14185191Y-15639031D01*
X14194715Y-15619984D01*
X14204238Y-15610460D01*
X14223286Y-15600936D01*
X14375667Y-15781888D02*
X14385191Y-15791412D01*
X14375667Y-15800936D01*
X14366143Y-15791412D01*
X14375667Y-15781888D01*
X14375667Y-15800936D01*
X14509000Y-15600936D02*
X14528048Y-15600936D01*
X14547096Y-15610460D01*
X14556619Y-15619984D01*
X14566143Y-15639031D01*
X14575667Y-15677127D01*
X14575667Y-15724746D01*
X14566143Y-15762841D01*
X14556619Y-15781888D01*
X14547096Y-15791412D01*
X14528048Y-15800936D01*
X14509000Y-15800936D01*
X14489953Y-15791412D01*
X14480429Y-15781888D01*
X14470905Y-15762841D01*
X14461381Y-15724746D01*
X14461381Y-15677127D01*
X14470905Y-15639031D01*
X14480429Y-15619984D01*
X14489953Y-15610460D01*
X14509000Y-15600936D01*
X14747096Y-15667603D02*
X14747096Y-15800936D01*
X14699477Y-15591412D02*
X14651858Y-15734269D01*
X14775667Y-15734269D01*
X14832810Y-15600936D02*
X14966143Y-15600936D01*
X14880429Y-15800936D01*
X15032810Y-15619984D02*
X15042334Y-15610460D01*
X15061381Y-15600936D01*
X15109000Y-15600936D01*
X15128048Y-15610460D01*
X15137572Y-15619984D01*
X15147096Y-15639031D01*
X15147096Y-15658079D01*
X15137572Y-15686650D01*
X15023286Y-15800936D01*
X15147096Y-15800936D01*
X15223286Y-15600936D02*
X15223286Y-15639031D01*
X15299477Y-15600936D02*
X15299477Y-15639031D01*
X15594715Y-15877127D02*
X15585191Y-15867603D01*
X15566143Y-15839031D01*
X15556619Y-15819984D01*
X15547096Y-15791412D01*
X15537572Y-15743793D01*
X15537572Y-15705698D01*
X15547096Y-15658079D01*
X15556619Y-15629508D01*
X15566143Y-15610460D01*
X15585191Y-15581888D01*
X15594715Y-15572365D01*
X15756619Y-15667603D02*
X15756619Y-15800936D01*
X15709000Y-15591412D02*
X15661381Y-15734269D01*
X15785191Y-15734269D01*
X16013762Y-15800936D02*
X16013762Y-15600936D01*
X16099477Y-15800936D02*
X16099477Y-15696174D01*
X16089953Y-15677127D01*
X16070905Y-15667603D01*
X16042334Y-15667603D01*
X16023286Y-15677127D01*
X16013762Y-15686650D01*
X16223286Y-15800936D02*
X16204238Y-15791412D01*
X16194715Y-15781888D01*
X16185191Y-15762841D01*
X16185191Y-15705698D01*
X16194715Y-15686650D01*
X16204238Y-15677127D01*
X16223286Y-15667603D01*
X16251858Y-15667603D01*
X16270905Y-15677127D01*
X16280429Y-15686650D01*
X16289953Y-15705698D01*
X16289953Y-15762841D01*
X16280429Y-15781888D01*
X16270905Y-15791412D01*
X16251858Y-15800936D01*
X16223286Y-15800936D01*
X16404238Y-15800936D02*
X16385191Y-15791412D01*
X16375667Y-15772365D01*
X16375667Y-15600936D01*
X16556619Y-15791412D02*
X16537572Y-15800936D01*
X16499477Y-15800936D01*
X16480429Y-15791412D01*
X16470905Y-15772365D01*
X16470905Y-15696174D01*
X16480429Y-15677127D01*
X16499477Y-15667603D01*
X16537572Y-15667603D01*
X16556619Y-15677127D01*
X16566143Y-15696174D01*
X16566143Y-15715222D01*
X16470905Y-15734269D01*
X16642334Y-15791412D02*
X16661381Y-15800936D01*
X16699477Y-15800936D01*
X16718524Y-15791412D01*
X16728048Y-15772365D01*
X16728048Y-15762841D01*
X16718524Y-15743793D01*
X16699477Y-15734269D01*
X16670905Y-15734269D01*
X16651858Y-15724746D01*
X16642334Y-15705698D01*
X16642334Y-15696174D01*
X16651858Y-15677127D01*
X16670905Y-15667603D01*
X16699477Y-15667603D01*
X16718524Y-15677127D01*
X16794715Y-15877127D02*
X16804239Y-15867603D01*
X16823286Y-15839031D01*
X16832810Y-15819984D01*
X16842334Y-15791412D01*
X16851858Y-15743793D01*
X16851858Y-15705698D01*
X16842334Y-15658079D01*
X16832810Y-15629508D01*
X16823286Y-15610460D01*
X16804239Y-15581888D01*
X16794715Y-15572365D01*
D15*
X11957810Y-16039460D02*
X12022810Y-15974460D01*
X11957810Y-15909460D01*
X11892810Y-15974460D01*
X11957810Y-16039460D01*
D10*
X12385191Y-16064936D02*
X12270905Y-16064936D01*
X12328048Y-16064936D02*
X12328048Y-15864936D01*
X12309000Y-15893508D01*
X12289953Y-15912555D01*
X12270905Y-15922079D01*
X12470905Y-16045888D02*
X12480429Y-16055412D01*
X12470905Y-16064936D01*
X12461381Y-16055412D01*
X12470905Y-16045888D01*
X12470905Y-16064936D01*
X12547096Y-15864936D02*
X12670905Y-15864936D01*
X12604238Y-15941127D01*
X12632810Y-15941127D01*
X12651858Y-15950650D01*
X12661381Y-15960174D01*
X12670905Y-15979222D01*
X12670905Y-16026841D01*
X12661381Y-16045888D01*
X12651858Y-16055412D01*
X12632810Y-16064936D01*
X12575667Y-16064936D01*
X12556619Y-16055412D01*
X12547096Y-16045888D01*
X12794715Y-15864936D02*
X12813762Y-15864936D01*
X12832810Y-15874460D01*
X12842334Y-15883984D01*
X12851858Y-15903031D01*
X12861381Y-15941127D01*
X12861381Y-15988746D01*
X12851858Y-16026841D01*
X12842334Y-16045888D01*
X12832810Y-16055412D01*
X12813762Y-16064936D01*
X12794715Y-16064936D01*
X12775667Y-16055412D01*
X12766143Y-16045888D01*
X12756619Y-16026841D01*
X12747096Y-15988746D01*
X12747096Y-15941127D01*
X12756619Y-15903031D01*
X12766143Y-15883984D01*
X12775667Y-15874460D01*
X12794715Y-15864936D01*
X12985191Y-15864936D02*
X13004238Y-15864936D01*
X13023286Y-15874460D01*
X13032810Y-15883984D01*
X13042334Y-15903031D01*
X13051858Y-15941127D01*
X13051858Y-15988746D01*
X13042334Y-16026841D01*
X13032810Y-16045888D01*
X13023286Y-16055412D01*
X13004238Y-16064936D01*
X12985191Y-16064936D01*
X12966143Y-16055412D01*
X12956619Y-16045888D01*
X12947096Y-16026841D01*
X12937572Y-15988746D01*
X12937572Y-15941127D01*
X12947096Y-15903031D01*
X12956619Y-15883984D01*
X12966143Y-15874460D01*
X12985191Y-15864936D01*
X13137572Y-16064936D02*
X13137572Y-15931603D01*
X13137572Y-15950650D02*
X13147096Y-15941127D01*
X13166143Y-15931603D01*
X13194715Y-15931603D01*
X13213762Y-15941127D01*
X13223286Y-15960174D01*
X13223286Y-16064936D01*
X13223286Y-15960174D02*
X13232810Y-15941127D01*
X13251858Y-15931603D01*
X13280429Y-15931603D01*
X13299477Y-15941127D01*
X13309000Y-15960174D01*
X13309000Y-16064936D01*
X13404238Y-16064936D02*
X13404238Y-15931603D01*
X13404238Y-15950650D02*
X13413762Y-15941127D01*
X13432810Y-15931603D01*
X13461381Y-15931603D01*
X13480429Y-15941127D01*
X13489953Y-15960174D01*
X13489953Y-16064936D01*
X13489953Y-15960174D02*
X13499477Y-15941127D01*
X13518524Y-15931603D01*
X13547096Y-15931603D01*
X13566143Y-15941127D01*
X13575667Y-15960174D01*
X13575667Y-16064936D01*
X13966143Y-15855412D02*
X13794715Y-16112555D01*
X14223286Y-15864936D02*
X14242334Y-15864936D01*
X14261381Y-15874460D01*
X14270905Y-15883984D01*
X14280429Y-15903031D01*
X14289953Y-15941127D01*
X14289953Y-15988746D01*
X14280429Y-16026841D01*
X14270905Y-16045888D01*
X14261381Y-16055412D01*
X14242334Y-16064936D01*
X14223286Y-16064936D01*
X14204238Y-16055412D01*
X14194715Y-16045888D01*
X14185191Y-16026841D01*
X14175667Y-15988746D01*
X14175667Y-15941127D01*
X14185191Y-15903031D01*
X14194715Y-15883984D01*
X14204238Y-15874460D01*
X14223286Y-15864936D01*
X14375667Y-16045888D02*
X14385191Y-16055412D01*
X14375667Y-16064936D01*
X14366143Y-16055412D01*
X14375667Y-16045888D01*
X14375667Y-16064936D01*
X14509000Y-15864936D02*
X14528048Y-15864936D01*
X14547096Y-15874460D01*
X14556619Y-15883984D01*
X14566143Y-15903031D01*
X14575667Y-15941127D01*
X14575667Y-15988746D01*
X14566143Y-16026841D01*
X14556619Y-16045888D01*
X14547096Y-16055412D01*
X14528048Y-16064936D01*
X14509000Y-16064936D01*
X14489953Y-16055412D01*
X14480429Y-16045888D01*
X14470905Y-16026841D01*
X14461381Y-15988746D01*
X14461381Y-15941127D01*
X14470905Y-15903031D01*
X14480429Y-15883984D01*
X14489953Y-15874460D01*
X14509000Y-15864936D01*
X14756619Y-15864936D02*
X14661381Y-15864936D01*
X14651858Y-15960174D01*
X14661381Y-15950650D01*
X14680429Y-15941127D01*
X14728048Y-15941127D01*
X14747096Y-15950650D01*
X14756619Y-15960174D01*
X14766143Y-15979222D01*
X14766143Y-16026841D01*
X14756619Y-16045888D01*
X14747096Y-16055412D01*
X14728048Y-16064936D01*
X14680429Y-16064936D01*
X14661381Y-16055412D01*
X14651858Y-16045888D01*
X14956619Y-16064936D02*
X14842334Y-16064936D01*
X14899477Y-16064936D02*
X14899477Y-15864936D01*
X14880429Y-15893508D01*
X14861381Y-15912555D01*
X14842334Y-15922079D01*
X15032810Y-15883984D02*
X15042334Y-15874460D01*
X15061381Y-15864936D01*
X15109000Y-15864936D01*
X15128048Y-15874460D01*
X15137572Y-15883984D01*
X15147096Y-15903031D01*
X15147096Y-15922079D01*
X15137572Y-15950650D01*
X15023286Y-16064936D01*
X15147096Y-16064936D01*
X15223286Y-15864936D02*
X15223286Y-15903031D01*
X15299477Y-15864936D02*
X15299477Y-15903031D01*
X15594715Y-16141127D02*
X15585191Y-16131603D01*
X15566143Y-16103031D01*
X15556619Y-16083984D01*
X15547096Y-16055412D01*
X15537572Y-16007793D01*
X15537572Y-15969698D01*
X15547096Y-15922079D01*
X15556619Y-15893508D01*
X15566143Y-15874460D01*
X15585191Y-15845888D01*
X15594715Y-15836365D01*
X15756619Y-15864936D02*
X15718524Y-15864936D01*
X15699477Y-15874460D01*
X15689953Y-15883984D01*
X15670905Y-15912555D01*
X15661381Y-15950650D01*
X15661381Y-16026841D01*
X15670905Y-16045888D01*
X15680429Y-16055412D01*
X15699477Y-16064936D01*
X15737572Y-16064936D01*
X15756619Y-16055412D01*
X15766143Y-16045888D01*
X15775667Y-16026841D01*
X15775667Y-15979222D01*
X15766143Y-15960174D01*
X15756619Y-15950650D01*
X15737572Y-15941127D01*
X15699477Y-15941127D01*
X15680429Y-15950650D01*
X15670905Y-15960174D01*
X15661381Y-15979222D01*
X16013762Y-16064936D02*
X16013762Y-15864936D01*
X16099477Y-16064936D02*
X16099477Y-15960174D01*
X16089953Y-15941127D01*
X16070905Y-15931603D01*
X16042334Y-15931603D01*
X16023286Y-15941127D01*
X16013762Y-15950650D01*
X16223286Y-16064936D02*
X16204238Y-16055412D01*
X16194715Y-16045888D01*
X16185191Y-16026841D01*
X16185191Y-15969698D01*
X16194715Y-15950650D01*
X16204238Y-15941127D01*
X16223286Y-15931603D01*
X16251858Y-15931603D01*
X16270905Y-15941127D01*
X16280429Y-15950650D01*
X16289953Y-15969698D01*
X16289953Y-16026841D01*
X16280429Y-16045888D01*
X16270905Y-16055412D01*
X16251858Y-16064936D01*
X16223286Y-16064936D01*
X16404238Y-16064936D02*
X16385191Y-16055412D01*
X16375667Y-16036365D01*
X16375667Y-15864936D01*
X16556619Y-16055412D02*
X16537572Y-16064936D01*
X16499477Y-16064936D01*
X16480429Y-16055412D01*
X16470905Y-16036365D01*
X16470905Y-15960174D01*
X16480429Y-15941127D01*
X16499477Y-15931603D01*
X16537572Y-15931603D01*
X16556619Y-15941127D01*
X16566143Y-15960174D01*
X16566143Y-15979222D01*
X16470905Y-15998269D01*
X16642334Y-16055412D02*
X16661381Y-16064936D01*
X16699477Y-16064936D01*
X16718524Y-16055412D01*
X16728048Y-16036365D01*
X16728048Y-16026841D01*
X16718524Y-16007793D01*
X16699477Y-15998269D01*
X16670905Y-15998269D01*
X16651858Y-15988746D01*
X16642334Y-15969698D01*
X16642334Y-15960174D01*
X16651858Y-15941127D01*
X16670905Y-15931603D01*
X16699477Y-15931603D01*
X16718524Y-15941127D01*
X16794715Y-16141127D02*
X16804239Y-16131603D01*
X16823286Y-16103031D01*
X16832810Y-16083984D01*
X16842334Y-16055412D01*
X16851858Y-16007793D01*
X16851858Y-15969698D01*
X16842334Y-15922079D01*
X16832810Y-15893508D01*
X16823286Y-15874460D01*
X16804239Y-15845888D01*
X16794715Y-15836365D01*
M02*
