M48
; DRILL file {KiCad 6.0.2+dfsg-1} date Wed May  7 10:33:04 2025
; FORMAT={-:-/ absolute / metric / decimal}
; #@! TF.CreationDate,2025-05-07T10:33:04+02:00
; #@! TF.GenerationSoftware,Kicad,Pcbnew,6.0.2+dfsg-1
; #@! TF.FileFunction,Plated,1,2,PTH
FMAT,2
METRIC
; #@! TA.AperFunction,Plated,PTH,ViaDrill
T1C0.400
; #@! TA.AperFunction,Plated,PTH,ComponentDrill
T2C0.800
; #@! TA.AperFunction,Plated,PTH,ComponentDrill
T3C1.000
; #@! TA.AperFunction,Plated,PTH,ComponentDrill
T4C1.200
; #@! TA.AperFunction,Plated,PTH,ComponentDrill
T5C1.300
%
G90
G05
T1
X123.173Y-136.912
X125.387Y-125.016
X126.15Y-122.044
X128.346Y-107.535
X128.758Y-132.049
X129.752Y-94.767
X130.253Y-123.554
X130.886Y-125.476
X133.824Y-85.579
X134.094Y-117.009
X135.255Y-85.212
X135.468Y-95.338
X135.691Y-93.449
X135.89Y-131.995
X135.98Y-130.345
X138.436Y-132.211
X138.5Y-86.493
X139.087Y-82.289
X139.164Y-110.84
X139.231Y-96.421
X139.285Y-90.281
X139.321Y-91.331
X139.533Y-108.732
X139.568Y-118.189
X139.613Y-92.836
X139.742Y-87.495
X139.976Y-102.317
X140.01Y-120.966
X140.254Y-95.803
X140.756Y-87.509
X141.022Y-118.311
X141.249Y-126.703
X141.352Y-120.25
X141.534Y-116.392
X141.558Y-108.334
X141.963Y-110.829
X142.311Y-126.677
X142.39Y-71.898
X142.402Y-107.742
X142.741Y-122.335
X142.952Y-94.092
X143.077Y-112.107
X143.325Y-102.334
X145.147Y-74.625
X145.861Y-75.352
X145.994Y-82.07
X146.356Y-112.145
X146.82Y-114.412
X147.273Y-128.095
X148.376Y-110.376
X148.385Y-111.685
X148.526Y-81.555
X148.571Y-119.003
X149.058Y-114.913
X149.443Y-115.961
X149.68Y-102.387
X149.791Y-99.679
X149.891Y-103.831
X150.025Y-119.361
X150.172Y-87.928
X150.391Y-112.711
X150.992Y-103.907
X151.227Y-66.977
X151.708Y-131.652
X151.95Y-87.596
X152.124Y-64.954
X152.533Y-99.159
X153.007Y-70.09
X153.23Y-77.391
X153.266Y-114.697
X153.765Y-99.088
X153.765Y-104.057
X153.813Y-131.28
X153.839Y-111.139
X154.291Y-108.939
X154.593Y-129.844
X154.751Y-118.072
X155.238Y-121.155
X155.706Y-116.581
X155.747Y-87.765
X156.226Y-114.616
X156.238Y-127.719
X156.543Y-126.289
X156.587Y-92.609
X156.737Y-124.633
X156.927Y-105.12
X156.943Y-79.838
X156.992Y-131.802
X157.166Y-106.574
X157.325Y-117.497
X157.463Y-129.554
X158.604Y-85.416
X158.981Y-132.1
X159.674Y-130.169
X160.204Y-131.136
X160.583Y-104.953
X160.717Y-65.114
X160.727Y-132.036
X161.437Y-127.001
X161.459Y-107.786
X161.499Y-98.013
X161.5Y-108.947
X161.774Y-69.225
X161.999Y-114.734
X162.089Y-118.519
X162.194Y-64.597
X162.306Y-89.043
X162.534Y-131.316
X162.607Y-121.781
X162.639Y-96.864
X162.667Y-94.01
X162.966Y-120.438
X163.027Y-126.759
X163.175Y-119.168
X163.768Y-92.476
X163.909Y-100.191
X164.037Y-126.605
X164.242Y-98.864
X164.252Y-131.293
X164.645Y-123.502
X164.667Y-128.343
X165.313Y-126.007
X165.669Y-128.453
X166.987Y-57.626
X167.241Y-113.953
X167.358Y-128.012
X167.632Y-125.252
X171.787Y-129.407
X173.309Y-137.077
X173.674Y-80.174
T2
X122.423Y-75.184
X122.423Y-77.724
X122.423Y-80.264
X122.423Y-82.804
X122.423Y-85.344
X122.423Y-87.884
X122.423Y-90.424
X122.423Y-92.964
X122.423Y-95.504
X122.423Y-98.044
X122.423Y-100.584
X122.423Y-103.124
X122.423Y-105.664
X122.423Y-108.204
X122.423Y-110.744
X122.423Y-113.284
X122.423Y-115.824
X122.423Y-118.364
X122.423Y-120.904
X122.423Y-123.444
X122.762Y-71.628
X127.0Y-128.016
X127.762Y-71.628
X134.62Y-128.016
X137.663Y-75.184
X137.663Y-77.724
X137.663Y-80.264
X137.663Y-82.804
X137.663Y-85.344
X137.663Y-87.884
X137.663Y-90.424
X137.663Y-92.964
X137.663Y-95.504
X137.663Y-98.044
X137.663Y-100.584
X137.663Y-103.124
X137.663Y-105.664
X137.663Y-108.204
X137.663Y-110.744
X137.663Y-113.284
X137.663Y-115.824
X137.663Y-118.364
X137.663Y-120.904
X137.663Y-123.444
X140.97Y-71.882
X140.97Y-75.184
X140.97Y-78.486
X140.97Y-81.788
X140.97Y-85.09
X144.77Y-100.589
X144.77Y-103.129
X144.77Y-105.669
X144.77Y-108.209
X144.77Y-110.749
X144.77Y-113.289
X144.77Y-115.829
X144.77Y-118.369
X144.77Y-120.909
X144.77Y-123.449
X144.77Y-125.989
X144.77Y-128.529
X151.13Y-71.882
X151.13Y-75.184
X151.13Y-78.486
X151.13Y-81.788
X151.13Y-85.09
X152.39Y-100.589
X152.39Y-103.129
X152.39Y-105.669
X152.39Y-108.209
X152.39Y-110.749
X152.39Y-113.289
X152.39Y-115.829
X152.39Y-118.369
X152.39Y-120.909
X152.39Y-123.449
X152.39Y-125.989
X152.39Y-128.529
X155.448Y-54.93
X155.448Y-59.93
X155.448Y-66.614
X155.448Y-71.614
X155.448Y-95.504
X155.448Y-100.504
X156.21Y-82.267
X156.21Y-84.267
X158.75Y-54.864
X158.75Y-62.484
X158.75Y-66.614
X158.75Y-74.234
X158.999Y-94.727
X158.999Y-97.267
X158.999Y-99.807
X158.999Y-102.347
X158.999Y-104.887
X158.999Y-107.427
X158.999Y-109.967
X158.999Y-112.507
X158.999Y-115.047
X158.999Y-117.587
X158.999Y-120.127
X158.999Y-122.667
X158.999Y-125.207
X158.999Y-127.747
X161.29Y-54.864
X161.29Y-62.484
X161.29Y-66.614
X161.29Y-74.234
X163.83Y-54.864
X163.83Y-62.484
X163.83Y-66.614
X163.83Y-74.234
X166.37Y-54.864
X166.37Y-62.484
X166.37Y-66.614
X166.37Y-74.234
X168.91Y-54.864
X168.91Y-62.484
X168.91Y-66.614
X168.91Y-74.234
X171.45Y-54.864
X171.45Y-62.484
X171.45Y-66.614
X171.45Y-74.234
X173.99Y-54.864
X173.99Y-62.484
X173.99Y-66.614
X173.99Y-74.234
X174.239Y-94.727
X174.239Y-97.267
X174.239Y-99.807
X174.239Y-102.347
X174.239Y-104.887
X174.239Y-107.427
X174.239Y-109.967
X174.239Y-112.507
X174.239Y-115.047
X174.239Y-117.587
X174.239Y-120.127
X174.239Y-122.667
X174.239Y-125.207
X174.239Y-127.747
T3
X147.066Y-55.626
X147.066Y-58.166
X147.066Y-60.706
X147.066Y-63.246
X147.066Y-65.786
X149.606Y-55.626
X149.606Y-58.166
X149.606Y-60.706
X149.606Y-63.246
X149.606Y-65.786
X163.063Y-81.783
X163.063Y-84.323
X165.603Y-81.783
X165.603Y-84.323
X168.143Y-81.783
X168.143Y-84.323
X169.164Y-91.186
X170.683Y-81.783
X170.683Y-84.323
X171.704Y-91.186
X173.223Y-81.783
X173.223Y-84.323
X174.244Y-91.186
T4
X125.476Y-53.594
X127.976Y-53.294
X132.976Y-53.294
X135.476Y-53.594
T5
X122.976Y-63.294
X125.476Y-65.794
X130.476Y-63.294
X130.476Y-68.294
X135.476Y-65.794
X137.976Y-63.294
T0
M30
