M48
; DRILL file {KiCad 6.0.2+dfsg-1} date Wed May  7 23:53:28 2025
; FORMAT={-:-/ absolute / metric / decimal}
; #@! TF.CreationDate,2025-05-07T23:53:28+02:00
; #@! TF.GenerationSoftware,Kicad,Pcbnew,6.0.2+dfsg-1
; #@! TF.FileFunction,Plated,1,2,PTH
FMAT,2
METRIC
; #@! TA.AperFunction,Plated,PTH,ViaDrill
T1C0.400
; #@! TA.AperFunction,Plated,PTH,ComponentDrill
T2C0.800
; #@! TA.AperFunction,Plated,PTH,ComponentDrill
T3C1.000
; #@! TA.AperFunction,Plated,PTH,ComponentDrill
T4C1.200
; #@! TA.AperFunction,Plated,PTH,ComponentDrill
T5C1.300
%
G90
G05
T1
X121.588Y-69.995
X123.198Y-137.077
X124.602Y-81.085
X125.546Y-126.741
X126.273Y-121.269
X126.565Y-81.187
X126.565Y-86.282
X127.15Y-118.777
X127.15Y-132.241
X127.864Y-69.001
X128.348Y-80.431
X129.704Y-81.512
X129.704Y-84.427
X130.546Y-131.984
X131.066Y-97.76
X131.478Y-130.331
X131.744Y-112.471
X132.244Y-118.27
X132.318Y-69.008
X132.567Y-129.894
X133.086Y-85.467
X133.381Y-127.414
X133.381Y-131.826
X133.528Y-64.557
X134.308Y-93.999
X134.603Y-85.466
X135.197Y-90.566
X135.473Y-77.345
X135.613Y-78.853
X135.657Y-75.543
X135.787Y-131.738
X135.831Y-109.068
X135.831Y-117.093
X136.144Y-64.008
X138.165Y-70.877
X139.419Y-95.106
X139.488Y-116.072
X139.821Y-102.746
X139.907Y-92.431
X140.264Y-94.411
X140.407Y-117.803
X140.562Y-110.449
X140.564Y-129.763
X140.984Y-84.604
X141.411Y-101.83
X142.025Y-121.923
X142.827Y-96.429
X143.074Y-60.72
X143.612Y-77.024
X143.612Y-79.383
X145.372Y-97.897
X145.395Y-81.238
X146.457Y-123.169
X146.468Y-125.539
X146.572Y-128.913
X147.299Y-132.712
X147.476Y-70.734
X147.493Y-82.753
X148.205Y-132.062
X148.604Y-99.948
X148.718Y-104.215
X149.026Y-105.623
X149.117Y-118.412
X149.4Y-129.014
X149.542Y-121.446
X149.63Y-119.677
X149.779Y-100.222
X149.837Y-126.698
X150.125Y-76.367
X150.36Y-115.075
X150.516Y-98.89
X150.564Y-131.504
X151.106Y-104.902
X151.203Y-98.161
X151.308Y-132.303
X152.008Y-96.545
X152.324Y-82.735
X153.203Y-95.503
X153.234Y-125.398
X154.077Y-103.194
X154.473Y-113.234
X154.473Y-119.593
X154.846Y-88.353
X154.957Y-86.58
X154.99Y-126.864
X154.99Y-132.599
X155.004Y-105.793
X155.743Y-102.261
X155.923Y-109.808
X155.935Y-129.368
X155.957Y-120.362
X156.123Y-116.991
X156.599Y-122.589
X156.722Y-131.49
X156.803Y-96.038
X159.227Y-131.549
X159.686Y-110.977
X160.115Y-109.173
X160.24Y-88.093
X160.302Y-104.342
X160.666Y-91.861
X160.805Y-130.416
X161.182Y-114.032
X161.229Y-129.238
X161.847Y-97.46
X161.98Y-106.404
X161.991Y-126.317
X162.518Y-131.957
X162.521Y-118.492
X163.771Y-116.518
X163.995Y-131.825
X164.558Y-125.511
X164.559Y-98.402
X165.64Y-95.222
X165.953Y-99.897
X166.029Y-80.889
X168.445Y-116.18
X169.494Y-130.164
X170.02Y-100.402
X170.111Y-121.284
X171.35Y-106.352
X173.334Y-136.912
T2
X122.762Y-75.184
X123.0Y-78.74
X123.0Y-81.28
X123.0Y-83.82
X123.0Y-86.36
X123.0Y-88.9
X123.0Y-91.44
X123.0Y-93.98
X123.0Y-96.52
X123.0Y-99.06
X123.0Y-101.6
X123.0Y-104.14
X123.0Y-106.68
X123.0Y-109.22
X123.0Y-111.76
X123.0Y-114.3
X123.0Y-116.84
X123.0Y-119.38
X123.0Y-121.92
X123.0Y-124.46
X123.0Y-127.0
X127.762Y-75.184
X128.524Y-82.55
X128.524Y-92.71
X133.096Y-82.55
X133.096Y-92.71
X138.24Y-78.74
X138.24Y-81.28
X138.24Y-83.82
X138.24Y-86.36
X138.24Y-88.9
X138.24Y-91.44
X138.24Y-93.98
X138.24Y-96.52
X138.24Y-99.06
X138.24Y-101.6
X138.24Y-104.14
X138.24Y-106.68
X138.24Y-109.22
X138.24Y-111.76
X138.24Y-114.3
X138.24Y-116.84
X138.24Y-119.38
X138.24Y-121.92
X138.24Y-124.46
X138.24Y-127.0
X142.24Y-80.264
X142.24Y-90.424
X144.526Y-101.092
X144.526Y-103.632
X144.526Y-106.172
X144.526Y-108.712
X144.526Y-111.252
X144.526Y-113.792
X144.526Y-116.332
X144.526Y-118.872
X144.526Y-121.412
X144.526Y-123.952
X144.526Y-126.492
X144.526Y-129.032
X147.574Y-80.304
X147.574Y-85.304
X152.146Y-80.344
X152.146Y-85.344
X152.146Y-101.092
X152.146Y-103.632
X152.146Y-106.172
X152.146Y-108.712
X152.146Y-111.252
X152.146Y-113.792
X152.146Y-116.332
X152.146Y-118.872
X152.146Y-121.412
X152.146Y-123.952
X152.146Y-126.492
X152.146Y-129.032
X155.194Y-93.512
X155.194Y-98.512
X155.692Y-82.54
X155.692Y-90.16
X158.232Y-82.54
X158.232Y-90.16
X158.375Y-93.965
X158.375Y-96.505
X158.375Y-99.045
X158.375Y-101.585
X158.375Y-104.125
X158.375Y-106.665
X158.375Y-109.205
X158.375Y-111.745
X158.375Y-114.285
X158.375Y-116.825
X158.375Y-119.365
X158.375Y-121.905
X158.375Y-124.445
X158.375Y-126.985
X160.772Y-82.54
X160.772Y-90.16
X163.312Y-82.54
X163.312Y-90.16
X165.852Y-82.54
X165.852Y-90.16
X165.872Y-71.618
X165.872Y-79.238
X168.392Y-82.54
X168.392Y-90.16
X168.412Y-71.618
X168.412Y-79.238
X170.932Y-82.54
X170.932Y-90.16
X170.952Y-71.618
X170.952Y-79.238
X173.472Y-82.54
X173.472Y-90.16
X173.492Y-71.618
X173.492Y-79.238
X173.615Y-93.965
X173.615Y-96.505
X173.615Y-99.045
X173.615Y-101.585
X173.615Y-104.125
X173.615Y-106.665
X173.615Y-109.205
X173.615Y-111.745
X173.615Y-114.285
X173.615Y-116.825
X173.615Y-119.365
X173.615Y-121.905
X173.615Y-124.445
X173.615Y-126.985
T3
X143.251Y-72.385
X143.251Y-74.925
X145.791Y-72.385
X145.791Y-74.925
X147.066Y-55.626
X147.066Y-58.166
X147.066Y-60.706
X147.066Y-63.246
X147.066Y-65.786
X148.331Y-72.385
X148.331Y-74.925
X149.606Y-55.626
X149.606Y-58.166
X149.606Y-60.706
X149.606Y-63.246
X149.606Y-65.786
X150.871Y-72.385
X150.871Y-74.925
X153.411Y-72.385
X153.411Y-74.925
T4
X125.476Y-53.594
X127.976Y-53.294
X132.976Y-53.294
X135.476Y-53.594
X160.782Y-53.594
X163.282Y-53.294
X168.282Y-53.294
X170.782Y-53.594
T5
X122.976Y-63.294
X125.476Y-65.794
X130.476Y-63.294
X130.476Y-68.294
X135.476Y-65.794
X137.976Y-63.294
X158.282Y-63.294
X160.782Y-65.794
X165.782Y-63.294
X165.782Y-68.294
X170.782Y-65.794
X173.282Y-63.294
T0
M30
