M48
; DRILL file {KiCad (6.0.11)} date Sun Apr 20 17:45:07 2025
; FORMAT={-:-/ absolute / metric / decimal}
; #@! TF.CreationDate,2025-04-20T17:45:07+02:00
; #@! TF.GenerationSoftware,Kicad,Pcbnew,(6.0.11)
; #@! TF.FileFunction,Plated,1,2,PTH
FMAT,2
METRIC
; #@! TA.AperFunction,Plated,PTH,ViaDrill
T1C0.400
; #@! TA.AperFunction,Plated,PTH,ComponentDrill
T2C0.800
; #@! TA.AperFunction,Plated,PTH,ComponentDrill
T3C1.000
; #@! TA.AperFunction,Plated,PTH,ComponentDrill
T4C1.200
; #@! TA.AperFunction,Plated,PTH,ComponentDrill
T5C1.300
%
G90
G05
T1
X123.173Y-136.912
X127.498Y-77.994
X130.821Y-132.322
X131.701Y-82.227
X132.215Y-122.689
X133.041Y-90.656
X133.514Y-128.064
X134.577Y-110.393
X134.85Y-105.393
X135.434Y-80.468
X135.89Y-61.214
X136.082Y-85.275
X136.106Y-121.396
X136.196Y-103.694
X136.291Y-91.438
X136.981Y-113.569
X137.013Y-57.439
X137.726Y-69.702
X137.891Y-75.502
X137.926Y-60.163
X138.338Y-66.666
X140.032Y-126.937
X140.141Y-94.259
X141.046Y-115.476
X141.046Y-123.962
X142.19Y-128.852
X142.505Y-99.932
X142.947Y-129.674
X143.506Y-62.855
X143.506Y-66.615
X144.156Y-96.607
X144.228Y-79.641
X144.71Y-130.45
X145.772Y-80.752
X147.091Y-129.499
X147.231Y-77.089
X147.951Y-130.351
X148.475Y-88.746
X148.652Y-111.313
X148.72Y-131.423
X149.453Y-132.698
X150.253Y-128.087
X150.492Y-86.859
X150.762Y-98.574
X150.999Y-132.348
X152.253Y-132.513
X152.679Y-68.676
X153.072Y-99.333
X153.097Y-91.141
X153.345Y-132.769
X153.416Y-102.877
X154.05Y-107.968
X154.051Y-101.17
X154.155Y-126.492
X154.21Y-132.163
X154.789Y-104.189
X154.98Y-124.45
X155.098Y-116.456
X155.254Y-112.859
X155.258Y-132.647
X155.707Y-128.178
X155.92Y-109.536
X156.475Y-130.252
X156.625Y-128.799
X156.948Y-106.297
X158.232Y-84.188
X158.519Y-132.279
X159.409Y-130.718
X160.376Y-123.849
X160.527Y-117.603
X160.592Y-132.369
X160.725Y-94.089
X160.725Y-114.445
X161.254Y-120.571
X161.856Y-80.294
X162.3Y-131.177
X162.775Y-106.048
X163.334Y-129.68
X163.335Y-110.409
X163.993Y-131.963
X164.293Y-77.904
X164.308Y-123.323
X165.229Y-126.862
X168.152Y-124.55
X169.606Y-115.65
X173.309Y-137.077
T2
X122.762Y-75.184
X123.0Y-78.74
X123.0Y-81.28
X123.0Y-83.82
X123.0Y-86.36
X123.0Y-88.9
X123.0Y-91.44
X123.0Y-93.98
X123.0Y-96.52
X123.0Y-99.06
X123.0Y-101.6
X123.0Y-104.14
X123.0Y-106.68
X123.0Y-109.22
X123.0Y-111.76
X123.0Y-114.3
X123.0Y-116.84
X123.0Y-119.38
X123.0Y-121.92
X123.0Y-124.46
X123.0Y-127.0
X127.762Y-75.184
X138.24Y-78.74
X138.24Y-81.28
X138.24Y-83.82
X138.24Y-86.36
X138.24Y-88.9
X138.24Y-91.44
X138.24Y-93.98
X138.24Y-96.52
X138.24Y-99.06
X138.24Y-101.6
X138.24Y-104.14
X138.24Y-106.68
X138.24Y-109.22
X138.24Y-111.76
X138.24Y-114.3
X138.24Y-116.84
X138.24Y-119.38
X138.24Y-121.92
X138.24Y-124.46
X138.24Y-127.0
X142.24Y-79.248
X142.24Y-89.408
X144.526Y-101.092
X144.526Y-103.632
X144.526Y-106.172
X144.526Y-108.712
X144.526Y-111.252
X144.526Y-113.792
X144.526Y-116.332
X144.526Y-118.872
X144.526Y-121.412
X144.526Y-123.952
X144.526Y-126.492
X144.526Y-129.032
X147.574Y-79.288
X147.574Y-84.288
X152.146Y-79.328
X152.146Y-84.328
X152.146Y-101.092
X152.146Y-103.632
X152.146Y-106.172
X152.146Y-108.712
X152.146Y-111.252
X152.146Y-113.792
X152.146Y-116.332
X152.146Y-118.872
X152.146Y-121.412
X152.146Y-123.952
X152.146Y-126.492
X152.146Y-129.032
X155.194Y-93.512
X155.194Y-98.512
X155.692Y-82.54
X155.692Y-90.16
X158.232Y-82.54
X158.232Y-90.16
X158.375Y-93.965
X158.375Y-96.505
X158.375Y-99.045
X158.375Y-101.585
X158.375Y-104.125
X158.375Y-106.665
X158.375Y-109.205
X158.375Y-111.745
X158.375Y-114.285
X158.375Y-116.825
X158.375Y-119.365
X158.375Y-121.905
X158.375Y-124.445
X158.375Y-126.985
X160.772Y-82.54
X160.772Y-90.16
X163.312Y-82.54
X163.312Y-90.16
X165.852Y-82.54
X165.852Y-90.16
X165.872Y-71.618
X165.872Y-79.238
X168.392Y-82.54
X168.392Y-90.16
X168.412Y-71.618
X168.412Y-79.238
X170.932Y-82.54
X170.932Y-90.16
X170.952Y-71.618
X170.952Y-79.238
X173.472Y-82.54
X173.472Y-90.16
X173.492Y-71.618
X173.492Y-79.238
X173.615Y-93.965
X173.615Y-96.505
X173.615Y-99.045
X173.615Y-101.585
X173.615Y-104.125
X173.615Y-106.665
X173.615Y-109.205
X173.615Y-111.745
X173.615Y-114.285
X173.615Y-116.825
X173.615Y-119.365
X173.615Y-121.905
X173.615Y-124.445
X173.615Y-126.985
T3
X143.251Y-72.385
X143.251Y-74.925
X145.791Y-72.385
X145.791Y-74.925
X147.066Y-55.626
X147.066Y-58.166
X147.066Y-60.706
X147.066Y-63.246
X147.066Y-65.786
X148.331Y-72.385
X148.331Y-74.925
X149.606Y-55.626
X149.606Y-58.166
X149.606Y-60.706
X149.606Y-63.246
X149.606Y-65.786
X150.871Y-72.385
X150.871Y-74.925
X153.411Y-72.385
X153.411Y-74.925
T4
X125.476Y-53.594
X127.976Y-53.294
X132.976Y-53.294
X135.476Y-53.594
X160.782Y-53.594
X163.282Y-53.294
X168.282Y-53.294
X170.782Y-53.594
T5
X122.976Y-63.294
X125.476Y-65.794
X130.476Y-63.294
X130.476Y-68.294
X135.476Y-65.794
X137.976Y-63.294
X158.282Y-63.294
X160.782Y-65.794
X165.782Y-63.294
X165.782Y-68.294
X170.782Y-65.794
X173.282Y-63.294
T0
M30
