%TF.GenerationSoftware,KiCad,Pcbnew,(6.0.11)*%
%TF.CreationDate,2025-04-20T17:45:04+02:00*%
%TF.ProjectId,burstcart,62757273-7463-4617-9274-2e6b69636164,1.0*%
%TF.SameCoordinates,Original*%
%TF.FileFunction,Copper,L2,Bot*%
%TF.FilePolarity,Positive*%
%FSLAX46Y46*%
G04 Gerber Fmt 4.6, Leading zero omitted, Abs format (unit mm)*
G04 Created by KiCad (PCBNEW (6.0.11)) date 2025-04-20 17:45:04*
%MOMM*%
%LPD*%
G01*
G04 APERTURE LIST*
G04 Aperture macros list*
%AMRoundRect*
0 Rectangle with rounded corners*
0 $1 Rounding radius*
0 $2 $3 $4 $5 $6 $7 $8 $9 X,Y pos of 4 corners*
0 Add a 4 corners polygon primitive as box body*
4,1,4,$2,$3,$4,$5,$6,$7,$8,$9,$2,$3,0*
0 Add four circle primitives for the rounded corners*
1,1,$1+$1,$2,$3*
1,1,$1+$1,$4,$5*
1,1,$1+$1,$6,$7*
1,1,$1+$1,$8,$9*
0 Add four rect primitives between the rounded corners*
20,1,$1+$1,$2,$3,$4,$5,0*
20,1,$1+$1,$4,$5,$6,$7,0*
20,1,$1+$1,$6,$7,$8,$9,0*
20,1,$1+$1,$8,$9,$2,$3,0*%
G04 Aperture macros list end*
%TA.AperFunction,ComponentPad*%
%ADD10C,1.600000*%
%TD*%
%TA.AperFunction,ComponentPad*%
%ADD11R,1.700000X1.700000*%
%TD*%
%TA.AperFunction,ComponentPad*%
%ADD12O,1.700000X1.700000*%
%TD*%
%TA.AperFunction,ComponentPad*%
%ADD13C,2.100000*%
%TD*%
%TA.AperFunction,ComponentPad*%
%ADD14C,2.200000*%
%TD*%
%TA.AperFunction,ComponentPad*%
%ADD15R,1.600000X1.600000*%
%TD*%
%TA.AperFunction,ComponentPad*%
%ADD16O,1.600000X1.600000*%
%TD*%
%TA.AperFunction,SMDPad,CuDef*%
%ADD17RoundRect,0.112500X-0.337500X-4.512500X0.337500X-4.512500X0.337500X4.512500X-0.337500X4.512500X0*%
%TD*%
%TA.AperFunction,ViaPad*%
%ADD18C,0.800000*%
%TD*%
%TA.AperFunction,Conductor*%
%ADD19C,0.250000*%
%TD*%
G04 APERTURE END LIST*
D10*
%TO.P,C3,1*%
%TO.N,+5V*%
X127762000Y-75184000D03*
%TO.P,C3,2*%
%TO.N,GND*%
X122762000Y-75184000D03*
%TD*%
D11*
%TO.P,J3,1,Pin_1*%
%TO.N,/~{FLAG}*%
X147066000Y-55626000D03*
D12*
%TO.P,J3,2,Pin_2*%
%TO.N,/PB0*%
X149606000Y-55626000D03*
%TO.P,J3,3,Pin_3*%
%TO.N,/PB1*%
X147066000Y-58166000D03*
%TO.P,J3,4,Pin_4*%
%TO.N,/PB2*%
X149606000Y-58166000D03*
%TO.P,J3,5,Pin_5*%
%TO.N,/PB3*%
X147066000Y-60706000D03*
%TO.P,J3,6,Pin_6*%
%TO.N,/PB4*%
X149606000Y-60706000D03*
%TO.P,J3,7,Pin_7*%
%TO.N,/PB5*%
X147066000Y-63246000D03*
%TO.P,J3,8,Pin_8*%
%TO.N,/PB6*%
X149606000Y-63246000D03*
%TO.P,J3,9,Pin_9*%
%TO.N,/PB7*%
X147066000Y-65786000D03*
%TO.P,J3,10,Pin_10*%
%TO.N,/~{PC}*%
X149606000Y-65786000D03*
%TD*%
D13*
%TO.P,J1,*%
%TO.N,*%
X127976000Y-53294000D03*
X125476000Y-53594000D03*
X132976000Y-53294000D03*
X135476000Y-53594000D03*
D14*
%TO.P,J1,1*%
%TO.N,IEC_SRQ*%
X122976000Y-63294000D03*
%TO.P,J1,2*%
%TO.N,GND*%
X125476000Y-65794000D03*
%TO.P,J1,3*%
%TO.N,IEC_ATN*%
X130476000Y-63294000D03*
%TO.P,J1,4*%
%TO.N,IEC_CLK*%
X135476000Y-65794000D03*
%TO.P,J1,5*%
%TO.N,IEC_DATA*%
X137976000Y-63294000D03*
%TO.P,J1,6*%
%TO.N,IEC_RESET*%
X130476000Y-68294000D03*
%TD*%
D15*
%TO.P,U1,1,A15*%
%TO.N,/ROM_A15*%
X158375000Y-93965000D03*
D16*
%TO.P,U1,2,A12*%
%TO.N,/A12*%
X158375000Y-96505000D03*
%TO.P,U1,3,A7*%
%TO.N,/A7*%
X158375000Y-99045000D03*
%TO.P,U1,4,A6*%
%TO.N,/A6*%
X158375000Y-101585000D03*
%TO.P,U1,5,A5*%
%TO.N,/A5*%
X158375000Y-104125000D03*
%TO.P,U1,6,A4*%
%TO.N,/A4*%
X158375000Y-106665000D03*
%TO.P,U1,7,A3*%
%TO.N,/A3*%
X158375000Y-109205000D03*
%TO.P,U1,8,A2*%
%TO.N,/A2*%
X158375000Y-111745000D03*
%TO.P,U1,9,A1*%
%TO.N,/A1*%
X158375000Y-114285000D03*
%TO.P,U1,10,A0*%
%TO.N,/A0*%
X158375000Y-116825000D03*
%TO.P,U1,11,D0*%
%TO.N,/D0*%
X158375000Y-119365000D03*
%TO.P,U1,12,D1*%
%TO.N,/D1*%
X158375000Y-121905000D03*
%TO.P,U1,13,D2*%
%TO.N,/D2*%
X158375000Y-124445000D03*
%TO.P,U1,14,GND*%
%TO.N,GND*%
X158375000Y-126985000D03*
%TO.P,U1,15,D3*%
%TO.N,/D3*%
X173615000Y-126985000D03*
%TO.P,U1,16,D4*%
%TO.N,/D4*%
X173615000Y-124445000D03*
%TO.P,U1,17,D5*%
%TO.N,/D5*%
X173615000Y-121905000D03*
%TO.P,U1,18,D6*%
%TO.N,/D6*%
X173615000Y-119365000D03*
%TO.P,U1,19,D7*%
%TO.N,/D7*%
X173615000Y-116825000D03*
%TO.P,U1,20,~{CE}*%
%TO.N,/~{ROMCS}*%
X173615000Y-114285000D03*
%TO.P,U1,21,A10*%
%TO.N,/A10*%
X173615000Y-111745000D03*
%TO.P,U1,22,~{OE}*%
%TO.N,/~{ROMCS}*%
X173615000Y-109205000D03*
%TO.P,U1,23,A11*%
%TO.N,/A11*%
X173615000Y-106665000D03*
%TO.P,U1,24,A9*%
%TO.N,/A9*%
X173615000Y-104125000D03*
%TO.P,U1,25,A8*%
%TO.N,/A8*%
X173615000Y-101585000D03*
%TO.P,U1,26,A13*%
%TO.N,/A13*%
X173615000Y-99045000D03*
%TO.P,U1,27,A14*%
%TO.N,/A14*%
X173615000Y-96505000D03*
%TO.P,U1,28,VCC*%
%TO.N,/VCC*%
X173615000Y-93965000D03*
%TD*%
D10*
%TO.P,C4,1*%
%TO.N,+5V*%
X155194000Y-98512000D03*
%TO.P,C4,2*%
%TO.N,GND*%
X155194000Y-93512000D03*
%TD*%
%TO.P,C5,1*%
%TO.N,/ciaclk*%
X147574000Y-84288000D03*
%TO.P,C5,2*%
%TO.N,GND*%
X147574000Y-79288000D03*
%TD*%
D15*
%TO.P,U5,1,~{RESET}/PB5*%
%TO.N,/~{RESET}*%
X165872000Y-79238000D03*
D16*
%TO.P,U5,2,XTAL1/PB3*%
%TO.N,Net-(JP2-Pad1)*%
X168412000Y-79238000D03*
%TO.P,U5,3,XTAL2/PB4*%
%TO.N,unconnected-(U5-Pad3)*%
X170952000Y-79238000D03*
%TO.P,U5,4,GND*%
%TO.N,GND*%
X173492000Y-79238000D03*
%TO.P,U5,5,AREF/PB0*%
%TO.N,/TOD*%
X173492000Y-71618000D03*
%TO.P,U5,6,PB1*%
%TO.N,/MUX*%
X170952000Y-71618000D03*
%TO.P,U5,7,PB2*%
%TO.N,unconnected-(U5-Pad7)*%
X168412000Y-71618000D03*
%TO.P,U5,8,VCC*%
%TO.N,+5V*%
X165872000Y-71618000D03*
%TD*%
D15*
%TO.P,U2,1,CK*%
%TO.N,GND*%
X155692000Y-90160000D03*
D16*
%TO.P,U2,2,Enable*%
%TO.N,/MUX*%
X158232000Y-90160000D03*
%TO.P,U2,3,Q1*%
%TO.N,Net-(R1-Pad2)*%
X160772000Y-90160000D03*
%TO.P,U2,4,Q2*%
%TO.N,unconnected-(U2-Pad4)*%
X163312000Y-90160000D03*
%TO.P,U2,5,Q3*%
%TO.N,unconnected-(U2-Pad5)*%
X165852000Y-90160000D03*
%TO.P,U2,6,Q4*%
%TO.N,unconnected-(U2-Pad6)*%
X168392000Y-90160000D03*
%TO.P,U2,7,Reset*%
%TO.N,Net-(JP1-Pad2)*%
X170932000Y-90160000D03*
%TO.P,U2,8,VSS*%
%TO.N,GND*%
X173472000Y-90160000D03*
%TO.P,U2,9,CK*%
%TO.N,+5V*%
X173472000Y-82540000D03*
%TO.P,U2,10,Enable*%
X170932000Y-82540000D03*
%TO.P,U2,11,Q1*%
%TO.N,unconnected-(U2-Pad11)*%
X168392000Y-82540000D03*
%TO.P,U2,12,Q2*%
%TO.N,unconnected-(U2-Pad12)*%
X165852000Y-82540000D03*
%TO.P,U2,13,Q3*%
%TO.N,unconnected-(U2-Pad13)*%
X163312000Y-82540000D03*
%TO.P,U2,14,Q4*%
%TO.N,unconnected-(U2-Pad14)*%
X160772000Y-82540000D03*
%TO.P,U2,15,Reset*%
%TO.N,+5V*%
X158232000Y-82540000D03*
%TO.P,U2,16,VDD*%
X155692000Y-82540000D03*
%TD*%
D17*
%TO.P,U$1,A,GND*%
%TO.N,GND*%
X124253100Y-137759600D03*
%TO.P,U$1,AA,NC*%
%TO.N,/NC2*%
X168253100Y-137759600D03*
%TO.P,U$1,B,C1LO*%
%TO.N,/C1LO*%
X126253100Y-137759600D03*
%TO.P,U$1,BB,NC*%
%TO.N,/NC3*%
X170253100Y-137759600D03*
%TO.P,U$1,C,~{RESET}*%
%TO.N,/~{RESET}*%
X128253100Y-137759600D03*
%TO.P,U$1,CC,GND*%
%TO.N,GND*%
X172253100Y-137759600D03*
%TO.P,U$1,D,~{RAS}*%
%TO.N,/~{RAS}*%
X130253100Y-137759600D03*
%TO.P,U$1,E,PHI0*%
%TO.N,/PHI0*%
X132253100Y-137759600D03*
%TO.P,U$1,F,A15*%
%TO.N,/A15*%
X134253100Y-137759600D03*
%TO.P,U$1,H,A14*%
%TO.N,/A14*%
X136253100Y-137759600D03*
%TO.P,U$1,J,A13*%
%TO.N,/A13*%
X138253100Y-137759600D03*
%TO.P,U$1,K,A12*%
%TO.N,/A12*%
X140253100Y-137759600D03*
%TO.P,U$1,L,A11*%
%TO.N,/A11*%
X142253100Y-137759600D03*
%TO.P,U$1,M,A10*%
%TO.N,/A10*%
X144253100Y-137759600D03*
%TO.P,U$1,N,A9*%
%TO.N,/A9*%
X146253100Y-137759600D03*
%TO.P,U$1,P,A8*%
%TO.N,/A8*%
X148253100Y-137759600D03*
%TO.P,U$1,R,A7*%
%TO.N,/A7*%
X150253100Y-137759600D03*
%TO.P,U$1,S,A6*%
%TO.N,/A6*%
X152253100Y-137759600D03*
%TO.P,U$1,T,A5*%
%TO.N,/A5*%
X154253100Y-137759600D03*
%TO.P,U$1,U,A4*%
%TO.N,/A4*%
X156253100Y-137759600D03*
%TO.P,U$1,V,A3*%
%TO.N,/A3*%
X158253100Y-137759600D03*
%TO.P,U$1,W,A2*%
%TO.N,/A2*%
X160253100Y-137759600D03*
%TO.P,U$1,X,A1*%
%TO.N,/A1*%
X162253100Y-137759600D03*
%TO.P,U$1,Y,A0*%
%TO.N,/A0*%
X164253100Y-137759600D03*
%TO.P,U$1,Z,NC*%
%TO.N,/NC1*%
X166253100Y-137759600D03*
%TD*%
D11*
%TO.P,J4,1,Pin_1*%
%TO.N,GND*%
X153411000Y-72385000D03*
D12*
%TO.P,J4,2,Pin_2*%
%TO.N,/PA0*%
X153411000Y-74925000D03*
%TO.P,J4,3,Pin_3*%
%TO.N,/PA1*%
X150871000Y-72385000D03*
%TO.P,J4,4,Pin_4*%
%TO.N,/PA2*%
X150871000Y-74925000D03*
%TO.P,J4,5,Pin_5*%
%TO.N,/PA3*%
X148331000Y-72385000D03*
%TO.P,J4,6,Pin_6*%
%TO.N,/PA4*%
X148331000Y-74925000D03*
%TO.P,J4,7,Pin_7*%
%TO.N,/PA5*%
X145791000Y-72385000D03*
%TO.P,J4,8,Pin_8*%
%TO.N,/PA6*%
X145791000Y-74925000D03*
%TO.P,J4,9,Pin_9*%
%TO.N,/PA7*%
X143251000Y-72385000D03*
%TO.P,J4,10,Pin_10*%
%TO.N,/VCC*%
X143251000Y-74925000D03*
%TD*%
D15*
%TO.P,U4,1,CLK/I0*%
%TO.N,/A4*%
X152146000Y-129032000D03*
D16*
%TO.P,U4,2,I0*%
%TO.N,/A5*%
X152146000Y-126492000D03*
%TO.P,U4,3,I1*%
%TO.N,/A6*%
X152146000Y-123952000D03*
%TO.P,U4,4,I2*%
%TO.N,/A7*%
X152146000Y-121412000D03*
%TO.P,U4,5,I3*%
%TO.N,/A8*%
X152146000Y-118872000D03*
%TO.P,U4,6,I4*%
%TO.N,/A9*%
X152146000Y-116332000D03*
%TO.P,U4,7,I5*%
%TO.N,/A10*%
X152146000Y-113792000D03*
%TO.P,U4,8,I6*%
%TO.N,/A11*%
X152146000Y-111252000D03*
%TO.P,U4,9,I7*%
%TO.N,/A12*%
X152146000Y-108712000D03*
%TO.P,U4,10,I8*%
%TO.N,/A13*%
X152146000Y-106172000D03*
%TO.P,U4,11,I9*%
%TO.N,/A14*%
X152146000Y-103632000D03*
%TO.P,U4,12,GND*%
%TO.N,GND*%
X152146000Y-101092000D03*
%TO.P,U4,13,OE/I10*%
%TO.N,/A15*%
X144526000Y-101092000D03*
%TO.P,U4,14,I11*%
%TO.N,/~{RESET}*%
X144526000Y-103632000D03*
%TO.P,U4,15,O0*%
%TO.N,/C1LO*%
X144526000Y-106172000D03*
%TO.P,U4,16,O1*%
%TO.N,/C1HI*%
X144526000Y-108712000D03*
%TO.P,U4,17,O2*%
%TO.N,/C2LO*%
X144526000Y-111252000D03*
%TO.P,U4,18,O3*%
%TO.N,/C2HI*%
X144526000Y-113792000D03*
%TO.P,U4,19,O4*%
%TO.N,/ROM_A15*%
X144526000Y-116332000D03*
%TO.P,U4,20,O5*%
%TO.N,/~{ROMCS}*%
X144526000Y-118872000D03*
%TO.P,U4,21,O6*%
%TO.N,/reset*%
X144526000Y-121412000D03*
%TO.P,U4,22,O7*%
%TO.N,/~{CIA}*%
X144526000Y-123952000D03*
%TO.P,U4,23,I12*%
%TO.N,/PHI2*%
X144526000Y-126492000D03*
%TO.P,U4,24,VCC*%
%TO.N,+5V*%
X144526000Y-129032000D03*
%TD*%
D10*
%TO.P,C2,1*%
%TO.N,+5V*%
X152146000Y-84328000D03*
%TO.P,C2,2*%
%TO.N,GND*%
X152146000Y-79328000D03*
%TD*%
D15*
%TO.P,U3,1,GND*%
%TO.N,GND*%
X123000000Y-78740000D03*
D16*
%TO.P,U3,2,PA0*%
%TO.N,/PA0*%
X123000000Y-81280000D03*
%TO.P,U3,3,PA1*%
%TO.N,/PA1*%
X123000000Y-83820000D03*
%TO.P,U3,4,PA2*%
%TO.N,/PA2*%
X123000000Y-86360000D03*
%TO.P,U3,5,PA3*%
%TO.N,/PA3*%
X123000000Y-88900000D03*
%TO.P,U3,6,PA4*%
%TO.N,/PA4*%
X123000000Y-91440000D03*
%TO.P,U3,7,PA5*%
%TO.N,/PA5*%
X123000000Y-93980000D03*
%TO.P,U3,8,PA6*%
%TO.N,/PA6*%
X123000000Y-96520000D03*
%TO.P,U3,9,PA7*%
%TO.N,/PA7*%
X123000000Y-99060000D03*
%TO.P,U3,10,PB0*%
%TO.N,/PB0*%
X123000000Y-101600000D03*
%TO.P,U3,11,PB1*%
%TO.N,/PB1*%
X123000000Y-104140000D03*
%TO.P,U3,12,PB2*%
%TO.N,/PB2*%
X123000000Y-106680000D03*
%TO.P,U3,13,PB3*%
%TO.N,/PB3*%
X123000000Y-109220000D03*
%TO.P,U3,14,PB4*%
%TO.N,/PB4*%
X123000000Y-111760000D03*
%TO.P,U3,15,PB5*%
%TO.N,/PB5*%
X123000000Y-114300000D03*
%TO.P,U3,16,PB6*%
%TO.N,/PB6*%
X123000000Y-116840000D03*
%TO.P,U3,17,PB7*%
%TO.N,/PB7*%
X123000000Y-119380000D03*
%TO.P,U3,18,/PC*%
%TO.N,/~{PC}*%
X123000000Y-121920000D03*
%TO.P,U3,19,TOD*%
%TO.N,/TOD*%
X123000000Y-124460000D03*
%TO.P,U3,20,VCC*%
%TO.N,+5V*%
X123000000Y-127000000D03*
%TO.P,U3,21,/IRQ*%
%TO.N,/~{IRQ}*%
X138240000Y-127000000D03*
%TO.P,U3,22,R/W*%
%TO.N,/R{slash}~{W}*%
X138240000Y-124460000D03*
%TO.P,U3,23,/CS*%
%TO.N,/~{CIA}*%
X138240000Y-121920000D03*
%TO.P,U3,24,/FLAG*%
%TO.N,/~{FLAG}*%
X138240000Y-119380000D03*
%TO.P,U3,25,PHI2*%
%TO.N,/ciaclk*%
X138240000Y-116840000D03*
%TO.P,U3,26,D7*%
%TO.N,/D7*%
X138240000Y-114300000D03*
%TO.P,U3,27,D6*%
%TO.N,/D6*%
X138240000Y-111760000D03*
%TO.P,U3,28,D5*%
%TO.N,/D5*%
X138240000Y-109220000D03*
%TO.P,U3,29,D4*%
%TO.N,/D4*%
X138240000Y-106680000D03*
%TO.P,U3,30,D3*%
%TO.N,/D3*%
X138240000Y-104140000D03*
%TO.P,U3,31,D2*%
%TO.N,/D2*%
X138240000Y-101600000D03*
%TO.P,U3,32,D1*%
%TO.N,/D1*%
X138240000Y-99060000D03*
%TO.P,U3,33,D0*%
%TO.N,/D0*%
X138240000Y-96520000D03*
%TO.P,U3,34,/RES*%
%TO.N,/~{RESET}*%
X138240000Y-93980000D03*
%TO.P,U3,35,RS3*%
%TO.N,/A3*%
X138240000Y-91440000D03*
%TO.P,U3,36,RS2*%
%TO.N,/A2*%
X138240000Y-88900000D03*
%TO.P,U3,37,RS1*%
%TO.N,/A1*%
X138240000Y-86360000D03*
%TO.P,U3,38,RS0*%
%TO.N,/A0*%
X138240000Y-83820000D03*
%TO.P,U3,39,SP*%
%TO.N,IEC_DATA*%
X138240000Y-81280000D03*
%TO.P,U3,40,CNT*%
%TO.N,IEC_SRQ*%
X138240000Y-78740000D03*
%TD*%
D10*
%TO.P,R1,1*%
%TO.N,/ciaclk*%
X142240000Y-89408000D03*
D16*
%TO.P,R1,2*%
%TO.N,Net-(R1-Pad2)*%
X142240000Y-79248000D03*
%TD*%
D13*
%TO.P,J2,*%
%TO.N,*%
X163282000Y-53294000D03*
X160782000Y-53594000D03*
X170782000Y-53594000D03*
X168282000Y-53294000D03*
D14*
%TO.P,J2,1*%
%TO.N,IEC_SRQ*%
X158282000Y-63294000D03*
%TO.P,J2,2*%
%TO.N,GND*%
X160782000Y-65794000D03*
%TO.P,J2,3*%
%TO.N,IEC_ATN*%
X165782000Y-63294000D03*
%TO.P,J2,4*%
%TO.N,IEC_CLK*%
X170782000Y-65794000D03*
%TO.P,J2,5*%
%TO.N,IEC_DATA*%
X173282000Y-63294000D03*
%TO.P,J2,6*%
%TO.N,IEC_RESET*%
X165782000Y-68294000D03*
%TD*%
D18*
%TO.N,/PA4*%
X147230700Y-77088700D03*
%TO.N,/PA6*%
X144227700Y-79640700D03*
%TO.N,/PA7*%
X137891300Y-75502400D03*
X136081800Y-85275200D03*
%TO.N,/PB0*%
X133041400Y-90656300D03*
%TO.N,/PB1*%
X137013200Y-57439000D03*
%TO.N,/PB2*%
X137926013Y-60162713D03*
%TO.N,/PB3*%
X135890000Y-61214000D03*
%TO.N,/PB4*%
X145771700Y-80752400D03*
%TO.N,/PB5*%
X143506500Y-62855000D03*
X136291300Y-91438000D03*
%TO.N,/PB6*%
X142504500Y-99931600D03*
%TO.N,/PB7*%
X138338500Y-66666000D03*
X134850000Y-105393400D03*
%TO.N,/~{PC}*%
X143506500Y-66614900D03*
X134577200Y-110392700D03*
%TO.N,/TOD*%
X127498400Y-77993800D03*
%TO.N,/~{IRQ}*%
X130821500Y-132322200D03*
%TO.N,/PHI2*%
X165229300Y-126861900D03*
%TO.N,/D7*%
X150253100Y-128087100D03*
%TO.N,/D6*%
X141045500Y-115476300D03*
X141045500Y-123961800D03*
X152253100Y-132513500D03*
%TO.N,/D5*%
X155257700Y-132647000D03*
X154979900Y-124450300D03*
%TO.N,/D4*%
X168151600Y-124549800D03*
X156625200Y-128799000D03*
X136981200Y-113569000D03*
%TO.N,/D3*%
X158518800Y-132279500D03*
X156475000Y-130251800D03*
X136106400Y-121396200D03*
%TO.N,/~{RESET}*%
X133514400Y-128064200D03*
X144156000Y-96607000D03*
X136196500Y-103693700D03*
%TO.N,GND*%
X123172600Y-136912000D03*
X150491900Y-86859500D03*
X173308600Y-137076700D03*
X164293500Y-77904300D03*
X164308000Y-123322900D03*
%TO.N,/VCC*%
X131701400Y-82227400D03*
%TO.N,/MUX*%
X158232000Y-84188200D03*
X153097400Y-91140900D03*
%TO.N,/A15*%
X140032300Y-126936600D03*
%TO.N,/A14*%
X142190000Y-128851600D03*
%TO.N,/A13*%
X142947300Y-129673800D03*
%TO.N,/A12*%
X144710300Y-130450100D03*
X156948000Y-106296700D03*
%TO.N,/A11*%
X147091300Y-129499300D03*
%TO.N,/A10*%
X147950500Y-130351000D03*
%TO.N,/A9*%
X162774900Y-106048100D03*
X148720200Y-131423000D03*
X155097900Y-116455800D03*
%TO.N,/A8*%
X169605900Y-115649700D03*
X149453300Y-132697800D03*
%TO.N,/A7*%
X150998900Y-132347700D03*
X153416000Y-102877100D03*
%TO.N,/A6*%
X154789300Y-104189400D03*
X153345000Y-132768800D03*
%TO.N,/A5*%
X154210200Y-132163400D03*
X154155400Y-126492000D03*
%TO.N,/A4*%
X155706900Y-128177700D03*
X159408700Y-130717600D03*
%TO.N,/A3*%
X163334700Y-110408700D03*
X154051400Y-101170500D03*
X163334300Y-129680200D03*
X155919600Y-109535600D03*
%TO.N,/A2*%
X153072200Y-99332700D03*
X160591900Y-132369400D03*
X160376400Y-123849000D03*
%TO.N,/A1*%
X162299800Y-131176600D03*
X160724800Y-114444700D03*
X160527000Y-117602700D03*
X160724800Y-94089300D03*
%TO.N,/A0*%
X163993000Y-131962800D03*
X155254000Y-112858800D03*
X161253900Y-120570600D03*
X154050500Y-107968400D03*
X140140500Y-94258800D03*
%TO.N,/ROM_A15*%
X150761800Y-98574400D03*
X148652000Y-111312600D03*
%TO.N,+5V*%
X135434200Y-80468400D03*
X132215100Y-122689000D03*
%TO.N,IEC_SRQ*%
X152678600Y-68675900D03*
X137725900Y-69701800D03*
%TO.N,Net-(JP1-Pad2)*%
X148474500Y-88746100D03*
%TO.N,Net-(JP2-Pad1)*%
X161856100Y-80294300D03*
%TD*%
D19*
%TO.N,/A6*%
X152253100Y-133860700D02*
X153345000Y-132768800D01*
X152253100Y-137759600D02*
X152253100Y-133860700D01*
%TO.N,/A7*%
X150253100Y-133093500D02*
X150998900Y-132347700D01*
X150253100Y-137759600D02*
X150253100Y-133093500D01*
%TO.N,/A8*%
X148253100Y-133898000D02*
X149453300Y-132697800D01*
X148253100Y-137759600D02*
X148253100Y-133898000D01*
%TO.N,/PA0*%
X140683900Y-69799700D02*
X138506300Y-71977300D01*
X152601800Y-73748100D02*
X152234100Y-73380400D01*
X152234100Y-73380400D02*
X152234100Y-72076800D01*
X136190400Y-71977300D02*
X126887700Y-81280000D01*
X126887700Y-81280000D02*
X123000000Y-81280000D01*
X152234100Y-72076800D02*
X149957000Y-69799700D01*
X138506300Y-71977300D02*
X136190400Y-71977300D01*
X153411000Y-73748100D02*
X152601800Y-73748100D01*
X153411000Y-74925000D02*
X153411000Y-73748100D01*
X149957000Y-69799700D02*
X140683900Y-69799700D01*
%TO.N,/PA1*%
X124126900Y-83820000D02*
X124126900Y-83819900D01*
X124126900Y-83819900D02*
X125942000Y-83819900D01*
X123000000Y-83820000D02*
X124126900Y-83820000D01*
X141093400Y-70254600D02*
X148740600Y-70254600D01*
X148740600Y-70254600D02*
X150871000Y-72385000D01*
X125942000Y-83819900D02*
X137256800Y-72505100D01*
X137256800Y-72505100D02*
X138842900Y-72505100D01*
X138842900Y-72505100D02*
X141093400Y-70254600D01*
%TO.N,/PA2*%
X150871000Y-74925000D02*
X150871000Y-73748100D01*
X139985400Y-72957100D02*
X142215700Y-70726800D01*
X149601000Y-71983700D02*
X149601000Y-72843900D01*
X150505200Y-73748100D02*
X150871000Y-73748100D01*
X124126900Y-86360000D02*
X137529800Y-72957100D01*
X123000000Y-86360000D02*
X124126900Y-86360000D01*
X142215700Y-70726800D02*
X148344100Y-70726800D01*
X137529800Y-72957100D02*
X139985400Y-72957100D01*
X148344100Y-70726800D02*
X149601000Y-71983700D01*
X149601000Y-72843900D02*
X150505200Y-73748100D01*
%TO.N,/PA3*%
X146329000Y-71194100D02*
X142481700Y-71194100D01*
X147154100Y-72019200D02*
X146329000Y-71194100D01*
X140041800Y-73634000D02*
X138266000Y-73634000D01*
X138266000Y-73634000D02*
X123000000Y-88900000D01*
X147154100Y-72385000D02*
X147154100Y-72019200D01*
X142481700Y-71194100D02*
X140041800Y-73634000D01*
X148331000Y-72385000D02*
X147154100Y-72385000D01*
%TO.N,/PA4*%
X137704200Y-77154900D02*
X147164500Y-77154900D01*
X147164500Y-77154900D02*
X147230700Y-77088700D01*
X124126900Y-91440000D02*
X133240100Y-82326800D01*
X123000000Y-91440000D02*
X124126900Y-91440000D01*
X133240100Y-81619000D02*
X137704200Y-77154900D01*
X133240100Y-82326800D02*
X133240100Y-81619000D01*
%TO.N,/PA5*%
X121831400Y-91000700D02*
X121831400Y-91966200D01*
X136637100Y-76229400D02*
X130974500Y-81892000D01*
X139406600Y-76229400D02*
X136637100Y-76229400D01*
X123344400Y-90170000D02*
X122662100Y-90170000D01*
X144614100Y-72385000D02*
X144614100Y-72750800D01*
X122662100Y-90170000D02*
X121831400Y-91000700D01*
X130974500Y-82539900D02*
X123344400Y-90170000D01*
X121831400Y-91966200D02*
X122718300Y-92853100D01*
X130974500Y-81892000D02*
X130974500Y-82539900D01*
X143709900Y-73655000D02*
X141981000Y-73655000D01*
X145791000Y-72385000D02*
X144614100Y-72385000D01*
X144614100Y-72750800D02*
X143709900Y-73655000D01*
X123000000Y-93980000D02*
X123000000Y-92853100D01*
X141981000Y-73655000D02*
X139406600Y-76229400D01*
X122718300Y-92853100D02*
X123000000Y-92853100D01*
%TO.N,/PA6*%
X123000000Y-96520000D02*
X124126900Y-96520000D01*
X124126900Y-96101800D02*
X124126900Y-96520000D01*
X137678700Y-82550000D02*
X124126900Y-96101800D01*
X144227700Y-79640700D02*
X141318400Y-82550000D01*
X141318400Y-82550000D02*
X137678700Y-82550000D01*
%TO.N,/PA7*%
X138956700Y-75502400D02*
X137891300Y-75502400D01*
X123000000Y-99060000D02*
X123000000Y-97933100D01*
X123000000Y-97933100D02*
X123423900Y-97933100D01*
X143251000Y-72385000D02*
X142074100Y-72385000D01*
X123423900Y-97933100D02*
X136081800Y-85275200D01*
X142074100Y-72385000D02*
X138956700Y-75502400D01*
%TO.N,/PB0*%
X123000000Y-100473100D02*
X123224600Y-100473100D01*
X123000000Y-101600000D02*
X123000000Y-100473100D01*
X123224600Y-100473100D02*
X133041400Y-90656300D01*
%TO.N,/PB1*%
X147066000Y-58166000D02*
X145889100Y-58166000D01*
X137013200Y-57439000D02*
X145162100Y-57439000D01*
X145162100Y-57439000D02*
X145889100Y-58166000D01*
%TO.N,/PB2*%
X148392300Y-59379700D02*
X138709026Y-59379700D01*
X138709026Y-59379700D02*
X137926013Y-60162713D01*
X149606000Y-58166000D02*
X148392300Y-59379700D01*
%TO.N,/PB3*%
X145889100Y-60706000D02*
X147066000Y-60706000D01*
X137845200Y-61193600D02*
X145401500Y-61193600D01*
X145401500Y-61193600D02*
X145889100Y-60706000D01*
X135890000Y-61214000D02*
X137845200Y-61193600D01*
%TO.N,/PB4*%
X138053000Y-84946900D02*
X141577200Y-84946900D01*
X134630600Y-99284200D02*
X134630600Y-88369300D01*
X123000000Y-110633100D02*
X123281700Y-110633100D01*
X134630600Y-88369300D02*
X138053000Y-84946900D01*
X141577200Y-84946900D02*
X145771700Y-80752400D01*
X123281700Y-110633100D02*
X134630600Y-99284200D01*
X123000000Y-111760000D02*
X123000000Y-110633100D01*
%TO.N,/PB5*%
X147066000Y-63246000D02*
X145889100Y-63246000D01*
X123000000Y-113173100D02*
X123281700Y-113173100D01*
X123000000Y-114300000D02*
X123000000Y-113173100D01*
X123281700Y-113173100D02*
X136291300Y-100163500D01*
X136291300Y-100163500D02*
X136291300Y-91438000D01*
X145498100Y-62855000D02*
X145889100Y-63246000D01*
X143506500Y-62855000D02*
X145498100Y-62855000D01*
%TO.N,/PB6*%
X123000000Y-116840000D02*
X123000000Y-115713100D01*
X142180000Y-100256100D02*
X142504500Y-99931600D01*
X123270000Y-115713100D02*
X124766000Y-114217100D01*
X124766000Y-114217100D02*
X124766000Y-113469500D01*
X124766000Y-113469500D02*
X137979400Y-100256100D01*
X123000000Y-115713100D02*
X123270000Y-115713100D01*
X137979400Y-100256100D02*
X142180000Y-100256100D01*
%TO.N,/PB7*%
X139218500Y-65786000D02*
X138338500Y-66666000D01*
X124126900Y-116116500D02*
X134850000Y-105393400D01*
X139218500Y-65786000D02*
X147066000Y-65786000D01*
X124126900Y-119380000D02*
X124126900Y-116116500D01*
X123000000Y-119380000D02*
X124126900Y-119380000D01*
%TO.N,/~{PC}*%
X134577200Y-110392700D02*
X124126900Y-120843000D01*
X143869000Y-66977400D02*
X143506500Y-66614900D01*
X148429100Y-65786000D02*
X148429100Y-66153800D01*
X123000000Y-121920000D02*
X124126900Y-121920000D01*
X124126900Y-120843000D02*
X124126900Y-121920000D01*
X147605500Y-66977400D02*
X143869000Y-66977400D01*
X149606000Y-65786000D02*
X148429100Y-65786000D01*
X148429100Y-66153800D02*
X147605500Y-66977400D01*
%TO.N,/TOD*%
X134700400Y-70791800D02*
X137673600Y-70791800D01*
X151913800Y-69819000D02*
X171693000Y-69819000D01*
X171693000Y-69819000D02*
X173492000Y-71618000D01*
X137673600Y-70791800D02*
X139576300Y-68889100D01*
X150983900Y-68889100D02*
X151913800Y-69819000D01*
X127498400Y-77993800D02*
X134700400Y-70791800D01*
X139576300Y-68889100D02*
X150983900Y-68889100D01*
%TO.N,/~{IRQ}*%
X130821500Y-132322200D02*
X131790900Y-132322200D01*
X131790900Y-132322200D02*
X137113100Y-127000000D01*
X138240000Y-127000000D02*
X137113100Y-127000000D01*
%TO.N,/ciaclk*%
X142240000Y-89408000D02*
X147360000Y-84288000D01*
%TO.N,/PHI2*%
X156776100Y-130978700D02*
X153723600Y-130978700D01*
X159463400Y-129047700D02*
X158707100Y-129047700D01*
X162041000Y-127109200D02*
X160819000Y-128331200D01*
X144526000Y-126492000D02*
X145786700Y-126492000D01*
X153622500Y-131079800D02*
X150374500Y-131079800D01*
X153723600Y-130978700D02*
X153622500Y-131079800D01*
X164982000Y-127109200D02*
X162041000Y-127109200D01*
X160179900Y-128331200D02*
X159463400Y-129047700D01*
X165229300Y-126861900D02*
X164982000Y-127109200D01*
X160819000Y-128331200D02*
X160179900Y-128331200D01*
X150374500Y-131079800D02*
X145786700Y-126492000D01*
X158707100Y-129047700D02*
X156776100Y-130978700D01*
%TO.N,/D7*%
X144082000Y-120142000D02*
X138240000Y-114300000D01*
X159115400Y-128117500D02*
X157123800Y-128117500D01*
X155000700Y-127447600D02*
X154790500Y-127657800D01*
X154790500Y-127657800D02*
X150609300Y-127657800D01*
X150609300Y-125886500D02*
X144864800Y-120142000D01*
X157123800Y-128117500D02*
X156453900Y-127447600D01*
X163109200Y-126203900D02*
X161031200Y-126203900D01*
X150609300Y-127657800D02*
X150253100Y-128014000D01*
X159834500Y-127400600D02*
X159832300Y-127400600D01*
X144864800Y-120142000D02*
X144082000Y-120142000D01*
X150253100Y-128014000D02*
X150253100Y-128087100D01*
X173615000Y-116825000D02*
X172488100Y-116825000D01*
X172488100Y-116825000D02*
X163109200Y-126203900D01*
X150609300Y-127657800D02*
X150609300Y-125886500D01*
X161031200Y-126203900D02*
X159834500Y-127400600D01*
X156453900Y-127447600D02*
X155000700Y-127447600D01*
X159832300Y-127400600D02*
X159115400Y-128117500D01*
%TO.N,/D6*%
X160236900Y-128915400D02*
X159652600Y-129499700D01*
X144197300Y-127762000D02*
X141045500Y-124610200D01*
X138240000Y-111760000D02*
X138240000Y-112886900D01*
X173249500Y-120492000D02*
X166144000Y-127597500D01*
X173615000Y-120492000D02*
X173249500Y-120492000D01*
X138456100Y-112886900D02*
X141045500Y-115476300D01*
X160873900Y-128915400D02*
X160236900Y-128915400D01*
X173615000Y-119365000D02*
X173615000Y-120491900D01*
X151360400Y-131620800D02*
X150276400Y-131620800D01*
X166144000Y-127597500D02*
X162191800Y-127597500D01*
X156963300Y-131430600D02*
X153910800Y-131430600D01*
X152253100Y-132513500D02*
X151360400Y-131620800D01*
X152834700Y-131931900D02*
X152253100Y-132513500D01*
X158894200Y-129499700D02*
X156963300Y-131430600D01*
X162191800Y-127597500D02*
X160873900Y-128915400D01*
X141045500Y-124610200D02*
X141045500Y-123961800D01*
X153910800Y-131430600D02*
X153409500Y-131931900D01*
X159652600Y-129499700D02*
X158894200Y-129499700D01*
X173615000Y-120491900D02*
X173615000Y-120492000D01*
X150276400Y-131620800D02*
X146417600Y-127762000D01*
X138240000Y-112886900D02*
X138456100Y-112886900D01*
X146417600Y-127762000D02*
X144197300Y-127762000D01*
X153409500Y-131931900D02*
X152834700Y-131931900D01*
%TO.N,/D5*%
X159800700Y-129990700D02*
X159104700Y-129990700D01*
X146685200Y-117602000D02*
X151765200Y-122682000D01*
X151765200Y-122682000D02*
X153211600Y-122682000D01*
X138240000Y-109220000D02*
X138240000Y-110346900D01*
X144197100Y-117602000D02*
X146685200Y-117602000D01*
X156448400Y-132647000D02*
X155257700Y-132647000D01*
X160422600Y-129368800D02*
X159800700Y-129990700D01*
X142300000Y-115704900D02*
X144197100Y-117602000D01*
X172488100Y-121905000D02*
X166343700Y-128049400D01*
X153211600Y-122682000D02*
X154979900Y-124450300D01*
X161059600Y-129368800D02*
X160422600Y-129368800D01*
X173615000Y-121905000D02*
X172488100Y-121905000D01*
X162379000Y-128049400D02*
X161059600Y-129368800D01*
X142300000Y-114125200D02*
X142300000Y-115704900D01*
X159104700Y-129990700D02*
X156448400Y-132647000D01*
X166343700Y-128049400D02*
X162379000Y-128049400D01*
X138521700Y-110346900D02*
X142300000Y-114125200D01*
X138240000Y-110346900D02*
X138521700Y-110346900D01*
%TO.N,/D4*%
X138639500Y-115570000D02*
X137815800Y-115570000D01*
X156625200Y-128799000D02*
X155941800Y-129482400D01*
X146177700Y-123988500D02*
X145014300Y-122825100D01*
X155941800Y-129482400D02*
X153757900Y-129482400D01*
X168151600Y-124549800D02*
X165623700Y-124549800D01*
X153757900Y-129482400D02*
X153077700Y-130162600D01*
X156841600Y-128582600D02*
X156625200Y-128799000D01*
X161537700Y-126657300D02*
X160342400Y-127852600D01*
X163516200Y-126657300D02*
X161537700Y-126657300D01*
X151189900Y-130162600D02*
X146177700Y-125150400D01*
X159289400Y-128582600D02*
X156841600Y-128582600D01*
X136981200Y-114735400D02*
X136981200Y-113569000D01*
X137815800Y-115570000D02*
X136981200Y-114735400D01*
X146177700Y-125150400D02*
X146177700Y-123988500D01*
X160342400Y-127852600D02*
X160019400Y-127852600D01*
X165623700Y-124549800D02*
X163516200Y-126657300D01*
X140862100Y-119379600D02*
X140862100Y-117792600D01*
X160019400Y-127852600D02*
X159289400Y-128582600D01*
X140862100Y-117792600D02*
X138639500Y-115570000D01*
X145014300Y-122825100D02*
X144307600Y-122825100D01*
X144307600Y-122825100D02*
X140862100Y-119379600D01*
X153077700Y-130162600D02*
X151189900Y-130162600D01*
%TO.N,/D3*%
X160899600Y-130272600D02*
X158892700Y-132279500D01*
X162755600Y-128953200D02*
X161436200Y-130272600D01*
X136106400Y-121396200D02*
X137757100Y-123046900D01*
X153423600Y-130619700D02*
X153791500Y-130251800D01*
X158892700Y-132279500D02*
X158518800Y-132279500D01*
X170519900Y-128953200D02*
X162755600Y-128953200D01*
X161436200Y-130272600D02*
X160899600Y-130272600D01*
X153791500Y-130251800D02*
X156475000Y-130251800D01*
X150946100Y-130619700D02*
X153423600Y-130619700D01*
X141190400Y-123046900D02*
X143451600Y-125308100D01*
X143451600Y-125308100D02*
X145634500Y-125308100D01*
X172488100Y-126985000D02*
X170519900Y-128953200D01*
X137757100Y-123046900D02*
X141190400Y-123046900D01*
X173615000Y-126985000D02*
X172488100Y-126985000D01*
X145634500Y-125308100D02*
X150946100Y-130619700D01*
%TO.N,/D2*%
X158375000Y-124445000D02*
X157248100Y-124445000D01*
X146029300Y-107403400D02*
X146029300Y-103476700D01*
X138240000Y-101600000D02*
X139366900Y-101600000D01*
X152945100Y-120142000D02*
X151796800Y-120142000D01*
X144914600Y-102362000D02*
X140128900Y-102362000D01*
X140128900Y-102362000D02*
X139366900Y-101600000D01*
X151796800Y-120142000D02*
X149438400Y-117783600D01*
X157248100Y-124445000D02*
X152945100Y-120142000D01*
X146029300Y-103476700D02*
X144914600Y-102362000D01*
X149438400Y-117783600D02*
X149438400Y-110812500D01*
X149438400Y-110812500D02*
X146029300Y-107403400D01*
%TO.N,/D1*%
X152945100Y-117602000D02*
X151817500Y-117602000D01*
X151817500Y-117602000D02*
X150115400Y-115899900D01*
X149663500Y-104628300D02*
X144095200Y-99060000D01*
X157248100Y-121905000D02*
X152945100Y-117602000D01*
X138240000Y-99060000D02*
X144095200Y-99060000D01*
X158375000Y-121905000D02*
X157248100Y-121905000D01*
X149663500Y-109547000D02*
X149663500Y-104628300D01*
X150115400Y-115899900D02*
X150115400Y-109998900D01*
X150115400Y-109998900D02*
X149663500Y-109547000D01*
%TO.N,/D0*%
X158375000Y-119365000D02*
X158375000Y-118655900D01*
X154781100Y-115062000D02*
X151779300Y-115062000D01*
X151779300Y-115062000D02*
X150568800Y-113851500D01*
X150115400Y-109134900D02*
X150115400Y-104392900D01*
X150568800Y-109588300D02*
X150115400Y-109134900D01*
X150115400Y-104392900D02*
X142242500Y-96520000D01*
X150568800Y-113851500D02*
X150568800Y-109588300D01*
X158375000Y-118655900D02*
X154781100Y-115062000D01*
X138240000Y-96520000D02*
X142242500Y-96520000D01*
%TO.N,/~{RESET}*%
X128253100Y-133325500D02*
X133514400Y-128064200D01*
X141728400Y-105302700D02*
X137805500Y-105302700D01*
X144526000Y-103632000D02*
X143399100Y-103632000D01*
X139815000Y-93531900D02*
X141080900Y-93531900D01*
X139366900Y-93980000D02*
X139815000Y-93531900D01*
X141080900Y-93531900D02*
X144156000Y-96607000D01*
X137805500Y-105302700D02*
X136196500Y-103693700D01*
X138240000Y-93980000D02*
X139366900Y-93980000D01*
X143399100Y-103632000D02*
X141728400Y-105302700D01*
%TO.N,/~{CIA}*%
X138240000Y-121920000D02*
X141367100Y-121920000D01*
X144526000Y-123952000D02*
X143399100Y-123952000D01*
X141367100Y-121920000D02*
X143399100Y-123952000D01*
%TO.N,IEC_RESET*%
X165416300Y-67928300D02*
X130841700Y-67928300D01*
%TO.N,GND*%
X158375000Y-126985000D02*
X159501900Y-126985000D01*
X160844000Y-125752000D02*
X159647300Y-126948700D01*
X136158400Y-71294600D02*
X128713000Y-78740000D01*
X172936000Y-137076700D02*
X173308600Y-137076700D01*
X159647300Y-126948700D02*
X159538200Y-126948700D01*
X172365100Y-79238000D02*
X172283500Y-79319600D01*
X173472000Y-90160000D02*
X173472000Y-89033100D01*
X171313100Y-77904300D02*
X164293500Y-77904300D01*
X164308000Y-123322900D02*
X161878900Y-125752000D01*
X172253100Y-137759600D02*
X172936000Y-137076700D01*
X172283500Y-87844600D02*
X173472000Y-89033100D01*
X137821800Y-71294600D02*
X136158400Y-71294600D01*
X150370800Y-69344800D02*
X139771600Y-69344800D01*
X153411000Y-72385000D02*
X150370800Y-69344800D01*
X159538200Y-126948700D02*
X159501900Y-126985000D01*
X123405500Y-136912000D02*
X124253100Y-137759600D01*
X128713000Y-78740000D02*
X123000000Y-78740000D01*
X151264600Y-86859500D02*
X150491900Y-86859500D01*
X123172600Y-136912000D02*
X123405500Y-136912000D01*
X173492000Y-79238000D02*
X172365100Y-79238000D01*
X172365100Y-78956300D02*
X171313100Y-77904300D01*
X172365100Y-79238000D02*
X172365100Y-78956300D01*
X155692000Y-90160000D02*
X154565100Y-90160000D01*
X139771600Y-69344800D02*
X137821800Y-71294600D01*
X154565100Y-90160000D02*
X151264600Y-86859500D01*
X172283500Y-79319600D02*
X172283500Y-87844600D01*
X161878900Y-125752000D02*
X160844000Y-125752000D01*
%TO.N,IEC_ATN*%
X158750000Y-65278000D02*
X157582900Y-65278000D01*
X144953000Y-64819000D02*
X145195800Y-64576200D01*
X137233200Y-64819000D02*
X144953000Y-64819000D01*
X158750000Y-65278000D02*
X161098400Y-63294000D01*
X131304900Y-64122900D02*
X136537100Y-64122900D01*
X161098400Y-63294000D02*
X165782000Y-63294000D01*
X145195800Y-64576200D02*
X156881100Y-64576200D01*
X130476000Y-63294000D02*
X131304900Y-64122900D01*
X136537100Y-64122900D02*
X137233200Y-64819000D01*
X157582900Y-65278000D02*
X156881100Y-64576200D01*
%TO.N,IEC_CLK*%
X135476000Y-65794000D02*
X137127300Y-67445300D01*
X165297900Y-65794000D02*
X170782000Y-65794000D01*
X137127300Y-67445300D02*
X163646600Y-67445300D01*
X163646600Y-67445300D02*
X165297900Y-65794000D01*
%TO.N,IEC_DATA*%
X139294000Y-61976000D02*
X137976000Y-63294000D01*
X173282000Y-63294000D02*
X171757000Y-61769000D01*
X156972000Y-61976000D02*
X139294000Y-61976000D01*
X157179000Y-61769000D02*
X156972000Y-61976000D01*
X171757000Y-61769000D02*
X157179000Y-61769000D01*
%TO.N,/VCC*%
X137247500Y-76681300D02*
X131701400Y-82227400D01*
X147377100Y-76199100D02*
X145336200Y-76199100D01*
X140317800Y-76681300D02*
X137247500Y-76681300D01*
X172099400Y-91322500D02*
X172099400Y-89662300D01*
X172099400Y-89662300D02*
X167764700Y-85327600D01*
X173615000Y-92838100D02*
X172099400Y-91322500D01*
X167764700Y-85327600D02*
X156505600Y-85327600D01*
X143251000Y-74925000D02*
X144427900Y-74925000D01*
X143251000Y-74925000D02*
X142074100Y-74925000D01*
X173615000Y-93965000D02*
X173615000Y-92838100D01*
X156505600Y-85327600D02*
X147377100Y-76199100D01*
X144427900Y-75290800D02*
X144427900Y-74925000D01*
X142074100Y-74925000D02*
X140317800Y-76681300D01*
X145336200Y-76199100D02*
X144427900Y-75290800D01*
%TO.N,/MUX*%
X159614100Y-82806100D02*
X158232000Y-84188200D01*
X158232000Y-90160000D02*
X157105100Y-90160000D01*
X170952000Y-71618000D02*
X169825100Y-71618000D01*
X164499200Y-77177400D02*
X163945100Y-77177400D01*
X169825100Y-71618000D02*
X169825100Y-71851500D01*
X157105100Y-90160000D02*
X157105100Y-90874500D01*
X156644400Y-91335200D02*
X153291700Y-91335200D01*
X169825100Y-71851500D02*
X164499200Y-77177400D01*
X153291700Y-91335200D02*
X153097400Y-91140900D01*
X157105100Y-90874500D02*
X156644400Y-91335200D01*
X159614100Y-81508400D02*
X159614100Y-82806100D01*
X163945100Y-77177400D02*
X159614100Y-81508400D01*
%TO.N,/C1LO*%
X144526000Y-106172000D02*
X143399100Y-106172000D01*
X126253100Y-131846800D02*
X126253100Y-137759600D01*
X121831900Y-121483100D02*
X121831900Y-127425600D01*
X135992000Y-107950000D02*
X133850300Y-110091700D01*
X141621100Y-107950000D02*
X135992000Y-107950000D01*
X133850300Y-110091700D02*
X133850300Y-110312000D01*
X143399100Y-106172000D02*
X141621100Y-107950000D01*
X123586200Y-120576100D02*
X122738900Y-120576100D01*
X122738900Y-120576100D02*
X121831900Y-121483100D01*
X133850300Y-110312000D02*
X123586200Y-120576100D01*
X121831900Y-127425600D02*
X126253100Y-131846800D01*
%TO.N,/A15*%
X134253100Y-137759600D02*
X134253100Y-132715800D01*
X134253100Y-132715800D02*
X140032300Y-126936600D01*
%TO.N,/A14*%
X154035200Y-103632000D02*
X157352200Y-100315000D01*
X152146000Y-103632000D02*
X154035200Y-103632000D01*
X173615000Y-96505000D02*
X172488100Y-96505000D01*
X141685500Y-128851600D02*
X142190000Y-128851600D01*
X157352200Y-100315000D02*
X168678100Y-100315000D01*
X168678100Y-100315000D02*
X172488100Y-96505000D01*
X136253100Y-134284000D02*
X141685500Y-128851600D01*
%TO.N,/A13*%
X166236300Y-105296800D02*
X154148100Y-105296800D01*
X138253100Y-134244500D02*
X142823800Y-129673800D01*
X152146000Y-106172000D02*
X153272900Y-106172000D01*
X173615000Y-99045000D02*
X172488100Y-99045000D01*
X154148100Y-105296800D02*
X153272900Y-106172000D01*
X172488100Y-99045000D02*
X166236300Y-105296800D01*
X142823800Y-129673800D02*
X142947300Y-129673800D01*
%TO.N,/A12*%
X152146000Y-108712000D02*
X154532700Y-108712000D01*
X140253100Y-134287500D02*
X144090500Y-130450100D01*
X154532700Y-108712000D02*
X156948000Y-106296700D01*
X144090500Y-130450100D02*
X144710300Y-130450100D01*
%TO.N,/A11*%
X152146000Y-111252000D02*
X153272900Y-111252000D01*
X156449000Y-107935000D02*
X171218100Y-107935000D01*
X153272900Y-111111100D02*
X156449000Y-107935000D01*
X147013400Y-129499300D02*
X147091300Y-129499300D01*
X153272900Y-111252000D02*
X153272900Y-111111100D01*
X171218100Y-107935000D02*
X172488100Y-106665000D01*
X142253100Y-134259600D02*
X147013400Y-129499300D01*
X173615000Y-106665000D02*
X172488100Y-106665000D01*
%TO.N,/A10*%
X153272900Y-113792000D02*
X156517700Y-110547200D01*
X162445300Y-110547200D02*
X163643100Y-111745000D01*
X163643100Y-111745000D02*
X173615000Y-111745000D01*
X156517700Y-110547200D02*
X162445300Y-110547200D01*
X152146000Y-113792000D02*
X153272900Y-113792000D01*
X144253100Y-134048400D02*
X147950500Y-130351000D01*
%TO.N,/A9*%
X162774900Y-106048100D02*
X170565000Y-106048100D01*
X152146000Y-116332000D02*
X153272900Y-116332000D01*
X146253100Y-133890100D02*
X148720200Y-131423000D01*
X153272900Y-116332000D02*
X153396700Y-116455800D01*
X173615000Y-104125000D02*
X172488100Y-104125000D01*
X153396700Y-116455800D02*
X155097900Y-116455800D01*
X170565000Y-106048100D02*
X172488100Y-104125000D01*
%TO.N,/A8*%
X160646800Y-124608800D02*
X169605900Y-115649700D01*
X152146000Y-118872000D02*
X153272900Y-118872000D01*
X157505300Y-123104400D02*
X158663300Y-123104400D01*
X153272900Y-118872000D02*
X157505300Y-123104400D01*
X158663300Y-123104400D02*
X159575700Y-124016800D01*
X159575700Y-124016800D02*
X159575700Y-124095500D01*
X160089000Y-124608800D02*
X160646800Y-124608800D01*
X159575700Y-124095500D02*
X160089000Y-124608800D01*
%TO.N,/A7*%
X158375000Y-99045000D02*
X157248100Y-99045000D01*
X157248100Y-99045000D02*
X153416000Y-102877100D01*
%TO.N,/A6*%
X158375000Y-101585000D02*
X157248100Y-101585000D01*
X157248100Y-101730600D02*
X157248100Y-101585000D01*
X154789300Y-104189400D02*
X157248100Y-101730600D01*
%TO.N,/A5*%
X152615900Y-126492000D02*
X154155400Y-126492000D01*
X154253100Y-132206300D02*
X154210200Y-132163400D01*
X154253100Y-137759600D02*
X154253100Y-132206300D01*
%TO.N,/A4*%
X173084800Y-123175000D02*
X167758500Y-128501300D01*
X175200500Y-106616100D02*
X175200500Y-121990600D01*
X171579700Y-106799400D02*
X172906800Y-105472300D01*
X160609900Y-129820700D02*
X159713000Y-130717600D01*
X161248900Y-129820700D02*
X160609900Y-129820700D01*
X167758500Y-128501300D02*
X162568300Y-128501300D01*
X159016900Y-130717600D02*
X156253100Y-133481400D01*
X153272900Y-129032000D02*
X154127200Y-128177700D01*
X162568300Y-128501300D02*
X161248900Y-129820700D01*
X174016100Y-123175000D02*
X173084800Y-123175000D01*
X159713000Y-130717600D02*
X159408700Y-130717600D01*
X158375000Y-106665000D02*
X159501900Y-106665000D01*
X175200500Y-121990600D02*
X174016100Y-123175000D01*
X174056700Y-105472300D02*
X175200500Y-106616100D01*
X152146000Y-129032000D02*
X153272900Y-129032000D01*
X159408700Y-130717600D02*
X159016900Y-130717600D01*
X172906800Y-105472300D02*
X174056700Y-105472300D01*
X159501900Y-106665000D02*
X159636300Y-106799400D01*
X159636300Y-106799400D02*
X171579700Y-106799400D01*
X154127200Y-128177700D02*
X155706900Y-128177700D01*
%TO.N,/A3*%
X162131000Y-109205000D02*
X163334700Y-110408700D01*
X158375000Y-109205000D02*
X157248100Y-109205000D01*
X162667700Y-129680200D02*
X163334300Y-129680200D01*
X156917500Y-109535600D02*
X157248100Y-109205000D01*
X153882100Y-101170500D02*
X154051400Y-101170500D01*
X138240000Y-91440000D02*
X140026600Y-91440000D01*
X152676700Y-99965100D02*
X153882100Y-101170500D01*
X161190300Y-130724500D02*
X161623400Y-130724500D01*
X158253100Y-133661700D02*
X161190300Y-130724500D01*
X161623400Y-130724500D02*
X162667700Y-129680200D01*
X148551700Y-99965100D02*
X152676700Y-99965100D01*
X140026600Y-91440000D02*
X148551700Y-99965100D01*
X158375000Y-109205000D02*
X162131000Y-109205000D01*
X155919600Y-109535600D02*
X156917500Y-109535600D01*
%TO.N,/A2*%
X158375000Y-111745000D02*
X159501900Y-111745000D01*
X139301400Y-90026900D02*
X138240000Y-90026900D01*
X138240000Y-88900000D02*
X138240000Y-90026900D01*
X161995100Y-122230300D02*
X161995100Y-114238200D01*
X161995100Y-114238200D02*
X159501900Y-111745000D01*
X160253100Y-132708200D02*
X160591900Y-132369400D01*
X160253100Y-137759600D02*
X160253100Y-132708200D01*
X148607200Y-99332700D02*
X139301400Y-90026900D01*
X153072200Y-99332700D02*
X148607200Y-99332700D01*
X160376400Y-123849000D02*
X161995100Y-122230300D01*
%TO.N,/A1*%
X160724800Y-114444700D02*
X160724800Y-117404900D01*
X150080300Y-90670200D02*
X151751700Y-92341600D01*
X141907800Y-90670200D02*
X150080300Y-90670200D01*
X138724500Y-87486900D02*
X141907800Y-90670200D01*
X160724800Y-117404900D02*
X160527000Y-117602700D01*
X160565100Y-114285000D02*
X160724800Y-114444700D01*
X138240000Y-86360000D02*
X138240000Y-87486900D01*
X162299800Y-137712900D02*
X162299800Y-131176600D01*
X151751700Y-92341600D02*
X158977100Y-92341600D01*
X158977100Y-92341600D02*
X160724800Y-94089300D01*
X158375000Y-114285000D02*
X160565100Y-114285000D01*
X138240000Y-87486900D02*
X138724500Y-87486900D01*
%TO.N,/A0*%
X153635600Y-107553500D02*
X151931800Y-107553500D01*
X151019100Y-106640800D02*
X151019100Y-104578200D01*
X158375000Y-116825000D02*
X158375000Y-117951900D01*
X151931800Y-107553500D02*
X151019100Y-106640800D01*
X158635200Y-117951900D02*
X158375000Y-117951900D01*
X158093300Y-115698100D02*
X155254000Y-112858800D01*
X151019100Y-104578200D02*
X140699700Y-94258800D01*
X163993000Y-137499500D02*
X163993000Y-131962800D01*
X158375000Y-115698100D02*
X158093300Y-115698100D01*
X154050500Y-107968400D02*
X153635600Y-107553500D01*
X161253900Y-120570600D02*
X158635200Y-117951900D01*
X140699700Y-94258800D02*
X140140500Y-94258800D01*
X158375000Y-116825000D02*
X158375000Y-115698100D01*
%TO.N,/ROM_A15*%
X144759500Y-115205100D02*
X144526000Y-115205100D01*
X157248100Y-93965000D02*
X152638700Y-98574400D01*
X144526000Y-116332000D02*
X144526000Y-115205100D01*
X152638700Y-98574400D02*
X150761800Y-98574400D01*
X148652000Y-111312600D02*
X144759500Y-115205100D01*
X158375000Y-93965000D02*
X157248100Y-93965000D01*
%TO.N,/~{ROMCS}*%
X173615000Y-114285000D02*
X173615000Y-113158100D01*
X145652900Y-119134300D02*
X145652900Y-118872000D01*
X156329400Y-125271300D02*
X151789900Y-125271300D01*
X156669600Y-125611500D02*
X156329400Y-125271300D01*
X173896700Y-110331900D02*
X174744600Y-111179800D01*
X174744600Y-112262000D02*
X173848500Y-113158100D01*
X173615000Y-110331900D02*
X173896700Y-110331900D01*
X173848500Y-113158100D02*
X173615000Y-113158100D01*
X173615000Y-109205000D02*
X173615000Y-110331900D01*
X151789900Y-125271300D02*
X145652900Y-119134300D01*
X172310900Y-114285100D02*
X161295900Y-125300100D01*
X144526000Y-118872000D02*
X145652900Y-118872000D01*
X161295900Y-125300100D02*
X160656800Y-125300100D01*
X160656800Y-125300100D02*
X160345400Y-125611500D01*
X173615000Y-114285000D02*
X172488100Y-114285000D01*
X172488100Y-114285000D02*
X172488100Y-114285100D01*
X160345400Y-125611500D02*
X156669600Y-125611500D01*
X174744600Y-111179800D02*
X174744600Y-112262000D01*
X172488100Y-114285100D02*
X172310900Y-114285100D01*
%TO.N,+5V*%
X141564500Y-78118000D02*
X139669500Y-80013000D01*
X128437900Y-122689000D02*
X132215100Y-122689000D01*
X139669500Y-80013000D02*
X135889600Y-80013000D01*
X135256100Y-125730000D02*
X140097100Y-125730000D01*
X152146000Y-84328000D02*
X151018500Y-84328000D01*
X123000000Y-127000000D02*
X124126900Y-127000000D01*
X144526000Y-129032000D02*
X143399100Y-129032000D01*
X151018500Y-84328000D02*
X144808500Y-78118000D01*
X144808500Y-78118000D02*
X141564500Y-78118000D01*
X132215100Y-122689000D02*
X135256100Y-125730000D01*
X140097100Y-125730000D02*
X143399100Y-129032000D01*
X135889600Y-80013000D02*
X135434200Y-80468400D01*
X124126900Y-127000000D02*
X128437900Y-122689000D01*
%TO.N,IEC_SRQ*%
X122976000Y-65572000D02*
X122976000Y-63294000D01*
X137608700Y-69819000D02*
X127223000Y-69819000D01*
X127223000Y-69819000D02*
X122976000Y-65572000D01*
X152434700Y-68432000D02*
X138995700Y-68432000D01*
X152678600Y-68675900D02*
X152434700Y-68432000D01*
X138995700Y-68432000D02*
X137725900Y-69701800D01*
X137725900Y-69701800D02*
X137608700Y-69819000D01*
%TO.N,Net-(JP1-Pad2)*%
X149113600Y-88746100D02*
X148474500Y-88746100D01*
X169805100Y-90160000D02*
X169805100Y-90393500D01*
X168329200Y-91869400D02*
X152236900Y-91869400D01*
X152236900Y-91869400D02*
X149113600Y-88746100D01*
X169805100Y-90393500D02*
X168329200Y-91869400D01*
X170932000Y-90160000D02*
X169805100Y-90160000D01*
%TO.N,Net-(R1-Pad2)*%
X158259400Y-88540800D02*
X159645100Y-89926500D01*
X159645100Y-89926500D02*
X159645100Y-90160000D01*
X154590100Y-88540800D02*
X158259400Y-88540800D01*
X144963100Y-78913800D02*
X154590100Y-88540800D01*
X143701100Y-78913800D02*
X144963100Y-78913800D01*
X142240000Y-79248000D02*
X143366900Y-79248000D01*
X160772000Y-90160000D02*
X159645100Y-90160000D01*
X143366900Y-79248000D02*
X143701100Y-78913800D01*
%TO.N,Net-(JP2-Pad1)*%
X167285100Y-79238000D02*
X167285100Y-79942300D01*
X168412000Y-79238000D02*
X167285100Y-79238000D01*
X166814700Y-80412700D02*
X161974500Y-80412700D01*
X167285100Y-79942300D02*
X166814700Y-80412700D01*
X161974500Y-80412700D02*
X161856100Y-80294300D01*
%TD*%
%TA.AperFunction,Conductor*%
%TO.N,GND*%
G36*
X124355513Y-52288102D02*
G01*
X124402006Y-52341758D01*
X124412110Y-52412032D01*
X124382616Y-52476612D01*
X124376487Y-52483195D01*
X124374323Y-52485359D01*
X124370567Y-52488567D01*
X124367359Y-52492323D01*
X124335467Y-52529664D01*
X124211248Y-52675104D01*
X124083073Y-52884268D01*
X123989195Y-53110908D01*
X123988040Y-53115720D01*
X123945239Y-53294000D01*
X123931928Y-53349443D01*
X123912681Y-53594000D01*
X123931928Y-53838557D01*
X123989195Y-54077092D01*
X124083073Y-54303732D01*
X124132958Y-54385137D01*
X124196054Y-54488101D01*
X124211248Y-54512896D01*
X124214459Y-54516655D01*
X124214465Y-54516663D01*
X124313716Y-54632870D01*
X124370567Y-54699433D01*
X124374323Y-54702641D01*
X124531539Y-54836917D01*
X124557104Y-54858752D01*
X124561327Y-54861340D01*
X124561330Y-54861342D01*
X124630515Y-54903738D01*
X124766268Y-54986927D01*
X124910967Y-55046864D01*
X124988335Y-55078911D01*
X124988337Y-55078912D01*
X124992908Y-55080805D01*
X125075563Y-55100649D01*
X125226630Y-55136917D01*
X125226636Y-55136918D01*
X125231443Y-55138072D01*
X125476000Y-55157319D01*
X125720557Y-55138072D01*
X125725364Y-55136918D01*
X125725370Y-55136917D01*
X125876437Y-55100649D01*
X125959092Y-55080805D01*
X125963663Y-55078912D01*
X125963665Y-55078911D01*
X126041033Y-55046864D01*
X126185732Y-54986927D01*
X126321485Y-54903738D01*
X126390670Y-54861342D01*
X126390673Y-54861340D01*
X126394896Y-54858752D01*
X126420462Y-54836917D01*
X126577677Y-54702641D01*
X126581433Y-54699433D01*
X126638284Y-54632870D01*
X126737542Y-54516655D01*
X126737545Y-54516651D01*
X126740752Y-54512896D01*
X126743342Y-54508670D01*
X126753912Y-54491422D01*
X126806560Y-54443791D01*
X126876602Y-54432185D01*
X126943175Y-54461447D01*
X127032459Y-54537703D01*
X127057104Y-54558752D01*
X127061327Y-54561340D01*
X127061330Y-54561342D01*
X127130176Y-54603530D01*
X127266268Y-54686927D01*
X127304205Y-54702641D01*
X127488335Y-54778911D01*
X127488337Y-54778912D01*
X127492908Y-54780805D01*
X127533112Y-54790457D01*
X127726630Y-54836917D01*
X127726636Y-54836918D01*
X127731443Y-54838072D01*
X127976000Y-54857319D01*
X128220557Y-54838072D01*
X128225364Y-54836918D01*
X128225370Y-54836917D01*
X128418888Y-54790457D01*
X128459092Y-54780805D01*
X128463663Y-54778912D01*
X128463665Y-54778911D01*
X128647795Y-54702641D01*
X128685732Y-54686927D01*
X128821824Y-54603530D01*
X128890670Y-54561342D01*
X128890673Y-54561340D01*
X128894896Y-54558752D01*
X128929386Y-54529295D01*
X129077677Y-54402641D01*
X129081433Y-54399433D01*
X129108493Y-54367750D01*
X129237535Y-54216663D01*
X129237537Y-54216660D01*
X129240752Y-54212896D01*
X129368927Y-54003732D01*
X129462805Y-53777092D01*
X129505578Y-53598930D01*
X129518917Y-53543370D01*
X129518918Y-53543364D01*
X129520072Y-53538557D01*
X129539319Y-53294000D01*
X129520072Y-53049443D01*
X129462805Y-52810908D01*
X129368927Y-52584268D01*
X129335466Y-52529664D01*
X129292736Y-52459934D01*
X129274198Y-52391401D01*
X129295655Y-52323724D01*
X129350294Y-52278391D01*
X129400169Y-52268100D01*
X131551831Y-52268100D01*
X131619952Y-52288102D01*
X131666445Y-52341758D01*
X131676549Y-52412032D01*
X131659264Y-52459934D01*
X131616534Y-52529664D01*
X131583073Y-52584268D01*
X131489195Y-52810908D01*
X131431928Y-53049443D01*
X131412681Y-53294000D01*
X131431928Y-53538557D01*
X131433082Y-53543364D01*
X131433083Y-53543370D01*
X131446422Y-53598930D01*
X131489195Y-53777092D01*
X131583073Y-54003732D01*
X131711248Y-54212896D01*
X131714463Y-54216660D01*
X131714465Y-54216663D01*
X131843507Y-54367750D01*
X131870567Y-54399433D01*
X131874323Y-54402641D01*
X132022615Y-54529295D01*
X132057104Y-54558752D01*
X132061327Y-54561340D01*
X132061330Y-54561342D01*
X132130176Y-54603530D01*
X132266268Y-54686927D01*
X132304205Y-54702641D01*
X132488335Y-54778911D01*
X132488337Y-54778912D01*
X132492908Y-54780805D01*
X132533112Y-54790457D01*
X132726630Y-54836917D01*
X132726636Y-54836918D01*
X132731443Y-54838072D01*
X132976000Y-54857319D01*
X133220557Y-54838072D01*
X133225364Y-54836918D01*
X133225370Y-54836917D01*
X133418888Y-54790457D01*
X133459092Y-54780805D01*
X133463663Y-54778912D01*
X133463665Y-54778911D01*
X133647795Y-54702641D01*
X133685732Y-54686927D01*
X133821824Y-54603530D01*
X133890670Y-54561342D01*
X133890673Y-54561340D01*
X133894896Y-54558752D01*
X133919541Y-54537703D01*
X134008825Y-54461447D01*
X134073615Y-54432416D01*
X134143815Y-54443021D01*
X134198088Y-54491422D01*
X134208658Y-54508670D01*
X134211248Y-54512896D01*
X134214455Y-54516651D01*
X134214458Y-54516655D01*
X134313716Y-54632870D01*
X134370567Y-54699433D01*
X134374323Y-54702641D01*
X134531539Y-54836917D01*
X134557104Y-54858752D01*
X134561327Y-54861340D01*
X134561330Y-54861342D01*
X134630515Y-54903738D01*
X134766268Y-54986927D01*
X134910967Y-55046864D01*
X134988335Y-55078911D01*
X134988337Y-55078912D01*
X134992908Y-55080805D01*
X135075563Y-55100649D01*
X135226630Y-55136917D01*
X135226636Y-55136918D01*
X135231443Y-55138072D01*
X135476000Y-55157319D01*
X135720557Y-55138072D01*
X135725364Y-55136918D01*
X135725370Y-55136917D01*
X135876437Y-55100649D01*
X135959092Y-55080805D01*
X135963663Y-55078912D01*
X135963665Y-55078911D01*
X136041033Y-55046864D01*
X136185732Y-54986927D01*
X136321485Y-54903738D01*
X136390670Y-54861342D01*
X136390673Y-54861340D01*
X136394896Y-54858752D01*
X136420462Y-54836917D01*
X136577677Y-54702641D01*
X136581433Y-54699433D01*
X136638284Y-54632870D01*
X136737535Y-54516663D01*
X136737541Y-54516655D01*
X136740752Y-54512896D01*
X136755947Y-54488101D01*
X136819042Y-54385137D01*
X136868927Y-54303732D01*
X136962805Y-54077092D01*
X137020072Y-53838557D01*
X137039319Y-53594000D01*
X137020072Y-53349443D01*
X137006762Y-53294000D01*
X136963960Y-53115720D01*
X136962805Y-53110908D01*
X136868927Y-52884268D01*
X136740752Y-52675104D01*
X136616534Y-52529664D01*
X136584641Y-52492323D01*
X136581433Y-52488567D01*
X136577677Y-52485359D01*
X136575513Y-52483195D01*
X136541487Y-52420883D01*
X136546552Y-52350068D01*
X136589099Y-52293232D01*
X136655619Y-52268421D01*
X136664608Y-52268100D01*
X159593392Y-52268100D01*
X159661513Y-52288102D01*
X159708006Y-52341758D01*
X159718110Y-52412032D01*
X159688616Y-52476612D01*
X159682487Y-52483195D01*
X159680323Y-52485359D01*
X159676567Y-52488567D01*
X159673359Y-52492323D01*
X159641467Y-52529664D01*
X159517248Y-52675104D01*
X159389073Y-52884268D01*
X159295195Y-53110908D01*
X159294040Y-53115720D01*
X159251239Y-53294000D01*
X159237928Y-53349443D01*
X159218681Y-53594000D01*
X159237928Y-53838557D01*
X159295195Y-54077092D01*
X159389073Y-54303732D01*
X159438958Y-54385137D01*
X159502054Y-54488101D01*
X159517248Y-54512896D01*
X159520459Y-54516655D01*
X159520465Y-54516663D01*
X159619716Y-54632870D01*
X159676567Y-54699433D01*
X159680323Y-54702641D01*
X159837539Y-54836917D01*
X159863104Y-54858752D01*
X159867327Y-54861340D01*
X159867330Y-54861342D01*
X159936515Y-54903738D01*
X160072268Y-54986927D01*
X160216967Y-55046864D01*
X160294335Y-55078911D01*
X160294337Y-55078912D01*
X160298908Y-55080805D01*
X160381563Y-55100649D01*
X160532630Y-55136917D01*
X160532636Y-55136918D01*
X160537443Y-55138072D01*
X160782000Y-55157319D01*
X161026557Y-55138072D01*
X161031364Y-55136918D01*
X161031370Y-55136917D01*
X161182437Y-55100649D01*
X161265092Y-55080805D01*
X161269663Y-55078912D01*
X161269665Y-55078911D01*
X161347033Y-55046864D01*
X161491732Y-54986927D01*
X161627485Y-54903738D01*
X161696670Y-54861342D01*
X161696673Y-54861340D01*
X161700896Y-54858752D01*
X161726462Y-54836917D01*
X161883677Y-54702641D01*
X161887433Y-54699433D01*
X161944284Y-54632870D01*
X162043542Y-54516655D01*
X162043545Y-54516651D01*
X162046752Y-54512896D01*
X162049342Y-54508670D01*
X162059912Y-54491422D01*
X162112560Y-54443791D01*
X162182602Y-54432185D01*
X162249175Y-54461447D01*
X162338459Y-54537703D01*
X162363104Y-54558752D01*
X162367327Y-54561340D01*
X162367330Y-54561342D01*
X162436176Y-54603530D01*
X162572268Y-54686927D01*
X162610205Y-54702641D01*
X162794335Y-54778911D01*
X162794337Y-54778912D01*
X162798908Y-54780805D01*
X162839112Y-54790457D01*
X163032630Y-54836917D01*
X163032636Y-54836918D01*
X163037443Y-54838072D01*
X163282000Y-54857319D01*
X163526557Y-54838072D01*
X163531364Y-54836918D01*
X163531370Y-54836917D01*
X163724888Y-54790457D01*
X163765092Y-54780805D01*
X163769663Y-54778912D01*
X163769665Y-54778911D01*
X163953795Y-54702641D01*
X163991732Y-54686927D01*
X164127824Y-54603530D01*
X164196670Y-54561342D01*
X164196673Y-54561340D01*
X164200896Y-54558752D01*
X164235386Y-54529295D01*
X164383677Y-54402641D01*
X164387433Y-54399433D01*
X164414493Y-54367750D01*
X164543535Y-54216663D01*
X164543537Y-54216660D01*
X164546752Y-54212896D01*
X164674927Y-54003732D01*
X164768805Y-53777092D01*
X164811578Y-53598930D01*
X164824917Y-53543370D01*
X164824918Y-53543364D01*
X164826072Y-53538557D01*
X164845319Y-53294000D01*
X164826072Y-53049443D01*
X164768805Y-52810908D01*
X164674927Y-52584268D01*
X164641466Y-52529664D01*
X164598736Y-52459934D01*
X164580198Y-52391401D01*
X164601655Y-52323724D01*
X164656294Y-52278391D01*
X164706169Y-52268100D01*
X166857831Y-52268100D01*
X166925952Y-52288102D01*
X166972445Y-52341758D01*
X166982549Y-52412032D01*
X166965264Y-52459934D01*
X166922534Y-52529664D01*
X166889073Y-52584268D01*
X166795195Y-52810908D01*
X166737928Y-53049443D01*
X166718681Y-53294000D01*
X166737928Y-53538557D01*
X166739082Y-53543364D01*
X166739083Y-53543370D01*
X166752422Y-53598930D01*
X166795195Y-53777092D01*
X166889073Y-54003732D01*
X167017248Y-54212896D01*
X167020463Y-54216660D01*
X167020465Y-54216663D01*
X167149507Y-54367750D01*
X167176567Y-54399433D01*
X167180323Y-54402641D01*
X167328615Y-54529295D01*
X167363104Y-54558752D01*
X167367327Y-54561340D01*
X167367330Y-54561342D01*
X167436176Y-54603530D01*
X167572268Y-54686927D01*
X167610205Y-54702641D01*
X167794335Y-54778911D01*
X167794337Y-54778912D01*
X167798908Y-54780805D01*
X167839112Y-54790457D01*
X168032630Y-54836917D01*
X168032636Y-54836918D01*
X168037443Y-54838072D01*
X168282000Y-54857319D01*
X168526557Y-54838072D01*
X168531364Y-54836918D01*
X168531370Y-54836917D01*
X168724888Y-54790457D01*
X168765092Y-54780805D01*
X168769663Y-54778912D01*
X168769665Y-54778911D01*
X168953795Y-54702641D01*
X168991732Y-54686927D01*
X169127824Y-54603530D01*
X169196670Y-54561342D01*
X169196673Y-54561340D01*
X169200896Y-54558752D01*
X169225541Y-54537703D01*
X169314825Y-54461447D01*
X169379615Y-54432416D01*
X169449815Y-54443021D01*
X169504088Y-54491422D01*
X169514658Y-54508670D01*
X169517248Y-54512896D01*
X169520455Y-54516651D01*
X169520458Y-54516655D01*
X169619716Y-54632870D01*
X169676567Y-54699433D01*
X169680323Y-54702641D01*
X169837539Y-54836917D01*
X169863104Y-54858752D01*
X169867327Y-54861340D01*
X169867330Y-54861342D01*
X169936515Y-54903738D01*
X170072268Y-54986927D01*
X170216967Y-55046864D01*
X170294335Y-55078911D01*
X170294337Y-55078912D01*
X170298908Y-55080805D01*
X170381563Y-55100649D01*
X170532630Y-55136917D01*
X170532636Y-55136918D01*
X170537443Y-55138072D01*
X170782000Y-55157319D01*
X171026557Y-55138072D01*
X171031364Y-55136918D01*
X171031370Y-55136917D01*
X171182437Y-55100649D01*
X171265092Y-55080805D01*
X171269663Y-55078912D01*
X171269665Y-55078911D01*
X171347033Y-55046864D01*
X171491732Y-54986927D01*
X171627485Y-54903738D01*
X171696670Y-54861342D01*
X171696673Y-54861340D01*
X171700896Y-54858752D01*
X171726462Y-54836917D01*
X171883677Y-54702641D01*
X171887433Y-54699433D01*
X171944284Y-54632870D01*
X172043535Y-54516663D01*
X172043541Y-54516655D01*
X172046752Y-54512896D01*
X172061947Y-54488101D01*
X172125042Y-54385137D01*
X172174927Y-54303732D01*
X172268805Y-54077092D01*
X172326072Y-53838557D01*
X172345319Y-53594000D01*
X172326072Y-53349443D01*
X172312762Y-53294000D01*
X172269960Y-53115720D01*
X172268805Y-53110908D01*
X172174927Y-52884268D01*
X172046752Y-52675104D01*
X171922534Y-52529664D01*
X171890641Y-52492323D01*
X171887433Y-52488567D01*
X171883677Y-52485359D01*
X171881513Y-52483195D01*
X171847487Y-52420883D01*
X171852552Y-52350068D01*
X171895099Y-52293232D01*
X171961619Y-52268421D01*
X171970608Y-52268100D01*
X175618600Y-52268100D01*
X175686721Y-52288102D01*
X175733214Y-52341758D01*
X175744600Y-52394100D01*
X175744600Y-105960105D01*
X175724598Y-106028226D01*
X175670942Y-106074719D01*
X175600668Y-106084823D01*
X175536088Y-106055329D01*
X175529505Y-106049200D01*
X174624208Y-105143903D01*
X174590182Y-105081591D01*
X174595247Y-105010776D01*
X174616784Y-104973813D01*
X174617301Y-104973197D01*
X174621198Y-104969300D01*
X174628896Y-104958307D01*
X174717807Y-104831328D01*
X174752523Y-104781749D01*
X174754846Y-104776767D01*
X174754849Y-104776762D01*
X174846961Y-104579225D01*
X174846961Y-104579224D01*
X174849284Y-104574243D01*
X174852598Y-104561877D01*
X174907119Y-104358402D01*
X174907119Y-104358400D01*
X174908543Y-104353087D01*
X174928498Y-104125000D01*
X174908543Y-103896913D01*
X174904983Y-103883628D01*
X174850707Y-103681067D01*
X174850706Y-103681065D01*
X174849284Y-103675757D01*
X174836164Y-103647620D01*
X174754849Y-103473238D01*
X174754846Y-103473233D01*
X174752523Y-103468251D01*
X174651493Y-103323965D01*
X174624357Y-103285211D01*
X174624355Y-103285208D01*
X174621198Y-103280700D01*
X174459300Y-103118802D01*
X174454792Y-103115645D01*
X174454789Y-103115643D01*
X174346178Y-103039593D01*
X174271749Y-102987477D01*
X174266767Y-102985154D01*
X174266762Y-102985151D01*
X174232543Y-102969195D01*
X174179258Y-102922278D01*
X174159797Y-102854001D01*
X174180339Y-102786041D01*
X174232543Y-102740805D01*
X174266762Y-102724849D01*
X174266767Y-102724846D01*
X174271749Y-102722523D01*
X174414392Y-102622643D01*
X174454789Y-102594357D01*
X174454792Y-102594355D01*
X174459300Y-102591198D01*
X174621198Y-102429300D01*
X174643314Y-102397716D01*
X174738866Y-102261253D01*
X174752523Y-102241749D01*
X174754846Y-102236767D01*
X174754849Y-102236762D01*
X174846961Y-102039225D01*
X174846961Y-102039224D01*
X174849284Y-102034243D01*
X174908543Y-101813087D01*
X174928498Y-101585000D01*
X174908543Y-101356913D01*
X174907119Y-101351598D01*
X174850707Y-101141067D01*
X174850706Y-101141065D01*
X174849284Y-101135757D01*
X174843739Y-101123865D01*
X174754849Y-100933238D01*
X174754846Y-100933233D01*
X174752523Y-100928251D01*
X174629799Y-100752983D01*
X174624357Y-100745211D01*
X174624355Y-100745208D01*
X174621198Y-100740700D01*
X174459300Y-100578802D01*
X174454792Y-100575645D01*
X174454789Y-100575643D01*
X174341362Y-100496221D01*
X174271749Y-100447477D01*
X174266767Y-100445154D01*
X174266762Y-100445151D01*
X174232543Y-100429195D01*
X174179258Y-100382278D01*
X174159797Y-100314001D01*
X174180339Y-100246041D01*
X174232543Y-100200805D01*
X174266762Y-100184849D01*
X174266767Y-100184846D01*
X174271749Y-100182523D01*
X174414392Y-100082643D01*
X174454789Y-100054357D01*
X174454792Y-100054355D01*
X174459300Y-100051198D01*
X174621198Y-99889300D01*
X174634962Y-99869644D01*
X174704437Y-99770423D01*
X174752523Y-99701749D01*
X174754846Y-99696767D01*
X174754849Y-99696762D01*
X174846961Y-99499225D01*
X174846961Y-99499224D01*
X174849284Y-99494243D01*
X174908543Y-99273087D01*
X174928498Y-99045000D01*
X174908543Y-98816913D01*
X174902874Y-98795756D01*
X174850707Y-98601067D01*
X174850706Y-98601065D01*
X174849284Y-98595757D01*
X174836264Y-98567835D01*
X174754849Y-98393238D01*
X174754846Y-98393233D01*
X174752523Y-98388251D01*
X174631701Y-98215700D01*
X174624357Y-98205211D01*
X174624355Y-98205208D01*
X174621198Y-98200700D01*
X174459300Y-98038802D01*
X174454792Y-98035645D01*
X174454789Y-98035643D01*
X174321924Y-97942610D01*
X174271749Y-97907477D01*
X174266767Y-97905154D01*
X174266762Y-97905151D01*
X174232543Y-97889195D01*
X174179258Y-97842278D01*
X174159797Y-97774001D01*
X174180339Y-97706041D01*
X174232543Y-97660805D01*
X174266762Y-97644849D01*
X174266767Y-97644846D01*
X174271749Y-97642523D01*
X174376611Y-97569098D01*
X174454789Y-97514357D01*
X174454792Y-97514355D01*
X174459300Y-97511198D01*
X174621198Y-97349300D01*
X174655179Y-97300771D01*
X174690484Y-97250350D01*
X174752523Y-97161749D01*
X174754846Y-97156767D01*
X174754849Y-97156762D01*
X174846961Y-96959225D01*
X174846961Y-96959224D01*
X174849284Y-96954243D01*
X174893613Y-96788808D01*
X174907119Y-96738402D01*
X174907119Y-96738400D01*
X174908543Y-96733087D01*
X174928498Y-96505000D01*
X174908543Y-96276913D01*
X174855409Y-96078616D01*
X174850707Y-96061067D01*
X174850706Y-96061065D01*
X174849284Y-96055757D01*
X174836164Y-96027620D01*
X174754849Y-95853238D01*
X174754846Y-95853233D01*
X174752523Y-95848251D01*
X174631701Y-95675700D01*
X174624357Y-95665211D01*
X174624355Y-95665208D01*
X174621198Y-95660700D01*
X174459300Y-95498802D01*
X174454792Y-95495645D01*
X174454789Y-95495643D01*
X174359070Y-95428620D01*
X174271749Y-95367477D01*
X174266767Y-95365154D01*
X174266762Y-95365151D01*
X174232543Y-95349195D01*
X174179258Y-95302278D01*
X174159797Y-95234001D01*
X174180339Y-95166041D01*
X174232543Y-95120805D01*
X174266762Y-95104849D01*
X174266767Y-95104846D01*
X174271749Y-95102523D01*
X174429585Y-94992005D01*
X174454789Y-94974357D01*
X174454792Y-94974355D01*
X174459300Y-94971198D01*
X174621198Y-94809300D01*
X174633892Y-94791172D01*
X174690484Y-94710350D01*
X174752523Y-94621749D01*
X174754846Y-94616767D01*
X174754849Y-94616762D01*
X174846961Y-94419225D01*
X174846961Y-94419224D01*
X174849284Y-94414243D01*
X174855937Y-94389416D01*
X174907119Y-94198402D01*
X174907119Y-94198400D01*
X174908543Y-94193087D01*
X174928498Y-93965000D01*
X174908543Y-93736913D01*
X174901873Y-93712021D01*
X174850707Y-93521067D01*
X174850706Y-93521065D01*
X174849284Y-93515757D01*
X174835043Y-93485217D01*
X174754849Y-93313238D01*
X174754846Y-93313233D01*
X174752523Y-93308251D01*
X174646550Y-93156906D01*
X174624357Y-93125211D01*
X174624355Y-93125208D01*
X174621198Y-93120700D01*
X174459300Y-92958802D01*
X174454792Y-92955645D01*
X174454789Y-92955643D01*
X174367266Y-92894359D01*
X174299639Y-92847006D01*
X174255312Y-92791550D01*
X174247293Y-92753944D01*
X174247163Y-92753965D01*
X174246774Y-92751510D01*
X174245973Y-92747753D01*
X174245922Y-92746130D01*
X174245673Y-92738211D01*
X174240021Y-92718757D01*
X174236013Y-92699400D01*
X174234468Y-92687170D01*
X174234468Y-92687169D01*
X174233474Y-92679303D01*
X174230555Y-92671930D01*
X174217196Y-92638188D01*
X174213351Y-92626958D01*
X174203229Y-92592117D01*
X174203229Y-92592116D01*
X174201018Y-92584507D01*
X174196985Y-92577688D01*
X174196983Y-92577683D01*
X174190707Y-92567072D01*
X174182012Y-92549324D01*
X174174552Y-92530483D01*
X174148564Y-92494713D01*
X174142048Y-92484793D01*
X174123580Y-92453565D01*
X174123578Y-92453562D01*
X174119542Y-92446738D01*
X174105221Y-92432417D01*
X174092380Y-92417383D01*
X174088441Y-92411961D01*
X174080472Y-92400993D01*
X174074368Y-92395943D01*
X174074363Y-92395938D01*
X174046402Y-92372807D01*
X174037621Y-92364817D01*
X173244697Y-91571892D01*
X173210672Y-91509580D01*
X173217965Y-91433199D01*
X173218000Y-91433117D01*
X173218000Y-91427967D01*
X173726000Y-91427967D01*
X173729973Y-91441498D01*
X173738522Y-91442727D01*
X173915761Y-91395236D01*
X173926053Y-91391490D01*
X174123511Y-91299414D01*
X174133007Y-91293931D01*
X174311467Y-91168972D01*
X174319875Y-91161916D01*
X174473916Y-91007875D01*
X174480972Y-90999467D01*
X174605931Y-90821007D01*
X174611414Y-90811511D01*
X174703490Y-90614053D01*
X174707236Y-90603761D01*
X174753394Y-90431497D01*
X174753058Y-90417401D01*
X174745116Y-90414000D01*
X173744115Y-90414000D01*
X173728876Y-90418475D01*
X173727671Y-90419865D01*
X173726000Y-90427548D01*
X173726000Y-91427967D01*
X173218000Y-91427967D01*
X173218000Y-89887885D01*
X173726000Y-89887885D01*
X173730475Y-89903124D01*
X173731865Y-89904329D01*
X173739548Y-89906000D01*
X174739967Y-89906000D01*
X174753498Y-89902027D01*
X174754727Y-89893478D01*
X174707236Y-89716239D01*
X174703490Y-89705947D01*
X174611414Y-89508489D01*
X174605931Y-89498993D01*
X174480972Y-89320533D01*
X174473916Y-89312125D01*
X174319875Y-89158084D01*
X174311467Y-89151028D01*
X174133007Y-89026069D01*
X174123511Y-89020586D01*
X173926053Y-88928510D01*
X173915761Y-88924764D01*
X173743497Y-88878606D01*
X173729401Y-88878942D01*
X173726000Y-88886884D01*
X173726000Y-89887885D01*
X173218000Y-89887885D01*
X173218000Y-88892033D01*
X173214027Y-88878502D01*
X173205478Y-88877273D01*
X173028239Y-88924764D01*
X173017947Y-88928510D01*
X172820489Y-89020586D01*
X172810993Y-89026069D01*
X172631796Y-89151544D01*
X172564522Y-89174232D01*
X172495661Y-89156947D01*
X172470430Y-89137426D01*
X168268352Y-84935347D01*
X168260812Y-84927061D01*
X168256700Y-84920582D01*
X168207048Y-84873956D01*
X168204207Y-84871202D01*
X168184470Y-84851465D01*
X168181273Y-84848985D01*
X168172251Y-84841280D01*
X168145800Y-84816441D01*
X168140021Y-84811014D01*
X168133075Y-84807195D01*
X168133072Y-84807193D01*
X168122266Y-84801252D01*
X168105747Y-84790401D01*
X168105283Y-84790041D01*
X168089741Y-84777986D01*
X168082472Y-84774841D01*
X168082468Y-84774838D01*
X168049163Y-84760426D01*
X168038513Y-84755209D01*
X167999760Y-84733905D01*
X167980137Y-84728867D01*
X167961434Y-84722463D01*
X167950120Y-84717567D01*
X167950119Y-84717567D01*
X167942845Y-84714419D01*
X167935022Y-84713180D01*
X167935012Y-84713177D01*
X167899176Y-84707501D01*
X167887556Y-84705095D01*
X167852411Y-84696072D01*
X167852410Y-84696072D01*
X167844730Y-84694100D01*
X167824476Y-84694100D01*
X167804765Y-84692549D01*
X167792586Y-84690620D01*
X167784757Y-84689380D01*
X167776865Y-84690126D01*
X167740739Y-84693541D01*
X167728881Y-84694100D01*
X159196300Y-84694100D01*
X159128179Y-84674098D01*
X159081686Y-84620442D01*
X159071582Y-84550168D01*
X159076467Y-84529164D01*
X159101084Y-84453400D01*
X159125542Y-84378128D01*
X159130623Y-84329790D01*
X159136224Y-84276495D01*
X159142907Y-84212906D01*
X159169920Y-84147250D01*
X159179122Y-84136982D01*
X159760600Y-83555504D01*
X159822912Y-83521478D01*
X159893727Y-83526543D01*
X159927630Y-83546298D01*
X159927700Y-83546198D01*
X159928896Y-83547036D01*
X159928901Y-83547039D01*
X159932206Y-83549353D01*
X159932210Y-83549356D01*
X159940990Y-83555504D01*
X160115251Y-83677523D01*
X160120233Y-83679846D01*
X160120238Y-83679849D01*
X160317775Y-83771961D01*
X160322757Y-83774284D01*
X160328065Y-83775706D01*
X160328067Y-83775707D01*
X160538598Y-83832119D01*
X160538600Y-83832119D01*
X160543913Y-83833543D01*
X160772000Y-83853498D01*
X161000087Y-83833543D01*
X161005400Y-83832119D01*
X161005402Y-83832119D01*
X161215933Y-83775707D01*
X161215935Y-83775706D01*
X161221243Y-83774284D01*
X161226225Y-83771961D01*
X161423762Y-83679849D01*
X161423767Y-83679846D01*
X161428749Y-83677523D01*
X161543186Y-83597393D01*
X161611789Y-83549357D01*
X161611794Y-83549353D01*
X161616300Y-83546198D01*
X161778198Y-83384300D01*
X161791170Y-83365775D01*
X161906366Y-83201257D01*
X161909523Y-83196749D01*
X161911846Y-83191767D01*
X161911849Y-83191762D01*
X161927805Y-83157543D01*
X161974722Y-83104258D01*
X162042999Y-83084797D01*
X162110959Y-83105339D01*
X162156195Y-83157543D01*
X162172151Y-83191762D01*
X162172154Y-83191767D01*
X162174477Y-83196749D01*
X162177634Y-83201257D01*
X162292831Y-83365775D01*
X162305802Y-83384300D01*
X162467700Y-83546198D01*
X162472206Y-83549353D01*
X162472211Y-83549357D01*
X162540814Y-83597393D01*
X162655251Y-83677523D01*
X162660233Y-83679846D01*
X162660238Y-83679849D01*
X162857775Y-83771961D01*
X162862757Y-83774284D01*
X162868065Y-83775706D01*
X162868067Y-83775707D01*
X163078598Y-83832119D01*
X163078600Y-83832119D01*
X163083913Y-83833543D01*
X163312000Y-83853498D01*
X163540087Y-83833543D01*
X163545400Y-83832119D01*
X163545402Y-83832119D01*
X163755933Y-83775707D01*
X163755935Y-83775706D01*
X163761243Y-83774284D01*
X163766225Y-83771961D01*
X163963762Y-83679849D01*
X163963767Y-83679846D01*
X163968749Y-83677523D01*
X164083186Y-83597393D01*
X164151789Y-83549357D01*
X164151794Y-83549353D01*
X164156300Y-83546198D01*
X164318198Y-83384300D01*
X164331170Y-83365775D01*
X164446366Y-83201257D01*
X164449523Y-83196749D01*
X164451846Y-83191767D01*
X164451849Y-83191762D01*
X164467805Y-83157543D01*
X164514722Y-83104258D01*
X164582999Y-83084797D01*
X164650959Y-83105339D01*
X164696195Y-83157543D01*
X164712151Y-83191762D01*
X164712154Y-83191767D01*
X164714477Y-83196749D01*
X164717634Y-83201257D01*
X164832831Y-83365775D01*
X164845802Y-83384300D01*
X165007700Y-83546198D01*
X165012206Y-83549353D01*
X165012211Y-83549357D01*
X165080814Y-83597393D01*
X165195251Y-83677523D01*
X165200233Y-83679846D01*
X165200238Y-83679849D01*
X165397775Y-83771961D01*
X165402757Y-83774284D01*
X165408065Y-83775706D01*
X165408067Y-83775707D01*
X165618598Y-83832119D01*
X165618600Y-83832119D01*
X165623913Y-83833543D01*
X165852000Y-83853498D01*
X166080087Y-83833543D01*
X166085400Y-83832119D01*
X166085402Y-83832119D01*
X166295933Y-83775707D01*
X166295935Y-83775706D01*
X166301243Y-83774284D01*
X166306225Y-83771961D01*
X166503762Y-83679849D01*
X166503767Y-83679846D01*
X166508749Y-83677523D01*
X166623186Y-83597393D01*
X166691789Y-83549357D01*
X166691794Y-83549353D01*
X166696300Y-83546198D01*
X166858198Y-83384300D01*
X166871170Y-83365775D01*
X166986366Y-83201257D01*
X166989523Y-83196749D01*
X166991846Y-83191767D01*
X166991849Y-83191762D01*
X167007805Y-83157543D01*
X167054722Y-83104258D01*
X167122999Y-83084797D01*
X167190959Y-83105339D01*
X167236195Y-83157543D01*
X167252151Y-83191762D01*
X167252154Y-83191767D01*
X167254477Y-83196749D01*
X167257634Y-83201257D01*
X167372831Y-83365775D01*
X167385802Y-83384300D01*
X167547700Y-83546198D01*
X167552206Y-83549353D01*
X167552211Y-83549357D01*
X167620814Y-83597393D01*
X167735251Y-83677523D01*
X167740233Y-83679846D01*
X167740238Y-83679849D01*
X167937775Y-83771961D01*
X167942757Y-83774284D01*
X167948065Y-83775706D01*
X167948067Y-83775707D01*
X168158598Y-83832119D01*
X168158600Y-83832119D01*
X168163913Y-83833543D01*
X168392000Y-83853498D01*
X168620087Y-83833543D01*
X168625400Y-83832119D01*
X168625402Y-83832119D01*
X168835933Y-83775707D01*
X168835935Y-83775706D01*
X168841243Y-83774284D01*
X168846225Y-83771961D01*
X169043762Y-83679849D01*
X169043767Y-83679846D01*
X169048749Y-83677523D01*
X169163186Y-83597393D01*
X169231789Y-83549357D01*
X169231794Y-83549353D01*
X169236300Y-83546198D01*
X169398198Y-83384300D01*
X169411170Y-83365775D01*
X169526366Y-83201257D01*
X169529523Y-83196749D01*
X169531846Y-83191767D01*
X169531849Y-83191762D01*
X169547805Y-83157543D01*
X169594722Y-83104258D01*
X169662999Y-83084797D01*
X169730959Y-83105339D01*
X169776195Y-83157543D01*
X169792151Y-83191762D01*
X169792154Y-83191767D01*
X169794477Y-83196749D01*
X169797634Y-83201257D01*
X169912831Y-83365775D01*
X169925802Y-83384300D01*
X170087700Y-83546198D01*
X170092206Y-83549353D01*
X170092211Y-83549357D01*
X170160814Y-83597393D01*
X170275251Y-83677523D01*
X170280233Y-83679846D01*
X170280238Y-83679849D01*
X170477775Y-83771961D01*
X170482757Y-83774284D01*
X170488065Y-83775706D01*
X170488067Y-83775707D01*
X170698598Y-83832119D01*
X170698600Y-83832119D01*
X170703913Y-83833543D01*
X170932000Y-83853498D01*
X171160087Y-83833543D01*
X171165400Y-83832119D01*
X171165402Y-83832119D01*
X171375933Y-83775707D01*
X171375935Y-83775706D01*
X171381243Y-83774284D01*
X171386225Y-83771961D01*
X171583762Y-83679849D01*
X171583767Y-83679846D01*
X171588749Y-83677523D01*
X171703186Y-83597393D01*
X171771789Y-83549357D01*
X171771794Y-83549353D01*
X171776300Y-83546198D01*
X171938198Y-83384300D01*
X171951170Y-83365775D01*
X172066366Y-83201257D01*
X172069523Y-83196749D01*
X172071846Y-83191767D01*
X172071849Y-83191762D01*
X172087805Y-83157543D01*
X172134722Y-83104258D01*
X172202999Y-83084797D01*
X172270959Y-83105339D01*
X172316195Y-83157543D01*
X172332151Y-83191762D01*
X172332154Y-83191767D01*
X172334477Y-83196749D01*
X172337634Y-83201257D01*
X172452831Y-83365775D01*
X172465802Y-83384300D01*
X172627700Y-83546198D01*
X172632206Y-83549353D01*
X172632211Y-83549357D01*
X172700814Y-83597393D01*
X172815251Y-83677523D01*
X172820233Y-83679846D01*
X172820238Y-83679849D01*
X173017775Y-83771961D01*
X173022757Y-83774284D01*
X173028065Y-83775706D01*
X173028067Y-83775707D01*
X173238598Y-83832119D01*
X173238600Y-83832119D01*
X173243913Y-83833543D01*
X173472000Y-83853498D01*
X173700087Y-83833543D01*
X173705400Y-83832119D01*
X173705402Y-83832119D01*
X173915933Y-83775707D01*
X173915935Y-83775706D01*
X173921243Y-83774284D01*
X173926225Y-83771961D01*
X174123762Y-83679849D01*
X174123767Y-83679846D01*
X174128749Y-83677523D01*
X174243186Y-83597393D01*
X174311789Y-83549357D01*
X174311794Y-83549353D01*
X174316300Y-83546198D01*
X174478198Y-83384300D01*
X174491170Y-83365775D01*
X174606366Y-83201257D01*
X174609523Y-83196749D01*
X174611846Y-83191767D01*
X174611849Y-83191762D01*
X174703961Y-82994225D01*
X174703961Y-82994224D01*
X174706284Y-82989243D01*
X174709171Y-82978471D01*
X174764119Y-82773402D01*
X174764119Y-82773400D01*
X174765543Y-82768087D01*
X174785498Y-82540000D01*
X174765543Y-82311913D01*
X174758653Y-82286198D01*
X174707707Y-82096067D01*
X174707706Y-82096065D01*
X174706284Y-82090757D01*
X174703961Y-82085775D01*
X174611849Y-81888238D01*
X174611846Y-81888233D01*
X174609523Y-81883251D01*
X174478198Y-81695700D01*
X174316300Y-81533802D01*
X174311792Y-81530645D01*
X174311789Y-81530643D01*
X174208818Y-81458542D01*
X174128749Y-81402477D01*
X174123767Y-81400154D01*
X174123762Y-81400151D01*
X173926225Y-81308039D01*
X173926224Y-81308039D01*
X173921243Y-81305716D01*
X173915935Y-81304294D01*
X173915933Y-81304293D01*
X173705402Y-81247881D01*
X173705400Y-81247881D01*
X173700087Y-81246457D01*
X173472000Y-81226502D01*
X173243913Y-81246457D01*
X173238600Y-81247881D01*
X173238598Y-81247881D01*
X173028067Y-81304293D01*
X173028065Y-81304294D01*
X173022757Y-81305716D01*
X173017776Y-81308039D01*
X173017775Y-81308039D01*
X172820238Y-81400151D01*
X172820233Y-81400154D01*
X172815251Y-81402477D01*
X172735182Y-81458542D01*
X172632211Y-81530643D01*
X172632208Y-81530645D01*
X172627700Y-81533802D01*
X172465802Y-81695700D01*
X172334477Y-81883251D01*
X172332154Y-81888233D01*
X172332151Y-81888238D01*
X172316195Y-81922457D01*
X172269278Y-81975742D01*
X172201001Y-81995203D01*
X172133041Y-81974661D01*
X172087805Y-81922457D01*
X172071849Y-81888238D01*
X172071846Y-81888233D01*
X172069523Y-81883251D01*
X171938198Y-81695700D01*
X171776300Y-81533802D01*
X171771792Y-81530645D01*
X171771789Y-81530643D01*
X171668818Y-81458542D01*
X171588749Y-81402477D01*
X171583767Y-81400154D01*
X171583762Y-81400151D01*
X171386225Y-81308039D01*
X171386224Y-81308039D01*
X171381243Y-81305716D01*
X171375935Y-81304294D01*
X171375933Y-81304293D01*
X171165402Y-81247881D01*
X171165400Y-81247881D01*
X171160087Y-81246457D01*
X170932000Y-81226502D01*
X170703913Y-81246457D01*
X170698600Y-81247881D01*
X170698598Y-81247881D01*
X170488067Y-81304293D01*
X170488065Y-81304294D01*
X170482757Y-81305716D01*
X170477776Y-81308039D01*
X170477775Y-81308039D01*
X170280238Y-81400151D01*
X170280233Y-81400154D01*
X170275251Y-81402477D01*
X170195182Y-81458542D01*
X170092211Y-81530643D01*
X170092208Y-81530645D01*
X170087700Y-81533802D01*
X169925802Y-81695700D01*
X169794477Y-81883251D01*
X169792154Y-81888233D01*
X169792151Y-81888238D01*
X169776195Y-81922457D01*
X169729278Y-81975742D01*
X169661001Y-81995203D01*
X169593041Y-81974661D01*
X169547805Y-81922457D01*
X169531849Y-81888238D01*
X169531846Y-81888233D01*
X169529523Y-81883251D01*
X169398198Y-81695700D01*
X169236300Y-81533802D01*
X169231792Y-81530645D01*
X169231789Y-81530643D01*
X169128818Y-81458542D01*
X169048749Y-81402477D01*
X169043767Y-81400154D01*
X169043762Y-81400151D01*
X168846225Y-81308039D01*
X168846224Y-81308039D01*
X168841243Y-81305716D01*
X168835935Y-81304294D01*
X168835933Y-81304293D01*
X168625402Y-81247881D01*
X168625400Y-81247881D01*
X168620087Y-81246457D01*
X168392000Y-81226502D01*
X168163913Y-81246457D01*
X168158600Y-81247881D01*
X168158598Y-81247881D01*
X167948067Y-81304293D01*
X167948065Y-81304294D01*
X167942757Y-81305716D01*
X167937776Y-81308039D01*
X167937775Y-81308039D01*
X167740238Y-81400151D01*
X167740233Y-81400154D01*
X167735251Y-81402477D01*
X167655182Y-81458542D01*
X167552211Y-81530643D01*
X167552208Y-81530645D01*
X167547700Y-81533802D01*
X167385802Y-81695700D01*
X167254477Y-81883251D01*
X167252154Y-81888233D01*
X167252151Y-81888238D01*
X167236195Y-81922457D01*
X167189278Y-81975742D01*
X167121001Y-81995203D01*
X167053041Y-81974661D01*
X167007805Y-81922457D01*
X166991849Y-81888238D01*
X166991846Y-81888233D01*
X166989523Y-81883251D01*
X166858198Y-81695700D01*
X166696300Y-81533802D01*
X166691792Y-81530645D01*
X166691789Y-81530643D01*
X166588818Y-81458542D01*
X166508749Y-81402477D01*
X166503767Y-81400154D01*
X166503762Y-81400151D01*
X166306225Y-81308039D01*
X166306224Y-81308039D01*
X166301243Y-81305716D01*
X166257171Y-81293907D01*
X166196549Y-81256955D01*
X166165527Y-81193094D01*
X166173956Y-81122600D01*
X166219160Y-81067853D01*
X166289783Y-81046200D01*
X166735933Y-81046200D01*
X166747116Y-81046727D01*
X166754609Y-81048402D01*
X166762535Y-81048153D01*
X166762536Y-81048153D01*
X166822686Y-81046262D01*
X166826645Y-81046200D01*
X166854556Y-81046200D01*
X166858491Y-81045703D01*
X166858556Y-81045695D01*
X166870393Y-81044762D01*
X166902651Y-81043748D01*
X166906670Y-81043622D01*
X166914589Y-81043373D01*
X166934043Y-81037721D01*
X166953400Y-81033713D01*
X166965630Y-81032168D01*
X166965631Y-81032168D01*
X166973497Y-81031174D01*
X166980868Y-81028255D01*
X166980870Y-81028255D01*
X167014612Y-81014896D01*
X167025842Y-81011051D01*
X167060683Y-81000929D01*
X167060684Y-81000929D01*
X167068293Y-80998718D01*
X167075112Y-80994685D01*
X167075117Y-80994683D01*
X167085728Y-80988407D01*
X167103476Y-80979712D01*
X167122317Y-80972252D01*
X167158087Y-80946264D01*
X167168007Y-80939748D01*
X167199235Y-80921280D01*
X167199238Y-80921278D01*
X167206062Y-80917242D01*
X167220383Y-80902921D01*
X167235417Y-80890080D01*
X167245393Y-80882832D01*
X167251807Y-80878172D01*
X167279988Y-80844107D01*
X167287978Y-80835326D01*
X167677358Y-80445947D01*
X167685640Y-80438411D01*
X167692118Y-80434300D01*
X167697542Y-80428524D01*
X167697942Y-80428193D01*
X167763180Y-80400182D01*
X167831508Y-80411082D01*
X167881300Y-80434300D01*
X167962757Y-80472284D01*
X167968065Y-80473706D01*
X167968067Y-80473707D01*
X168178598Y-80530119D01*
X168178600Y-80530119D01*
X168183913Y-80531543D01*
X168412000Y-80551498D01*
X168640087Y-80531543D01*
X168645400Y-80530119D01*
X168645402Y-80530119D01*
X168855933Y-80473707D01*
X168855935Y-80473706D01*
X168861243Y-80472284D01*
X168871685Y-80467415D01*
X169063762Y-80377849D01*
X169063767Y-80377846D01*
X169068749Y-80375523D01*
X169220388Y-80269344D01*
X169251789Y-80247357D01*
X169251792Y-80247355D01*
X169256300Y-80244198D01*
X169418198Y-80082300D01*
X169427008Y-80069719D01*
X169518180Y-79939511D01*
X169549523Y-79894749D01*
X169551846Y-79889767D01*
X169551849Y-79889762D01*
X169567805Y-79855543D01*
X169614722Y-79802258D01*
X169682999Y-79782797D01*
X169750959Y-79803339D01*
X169796195Y-79855543D01*
X169812151Y-79889762D01*
X169812154Y-79889767D01*
X169814477Y-79894749D01*
X169845820Y-79939511D01*
X169936993Y-80069719D01*
X169945802Y-80082300D01*
X170107700Y-80244198D01*
X170112208Y-80247355D01*
X170112211Y-80247357D01*
X170143612Y-80269344D01*
X170295251Y-80375523D01*
X170300233Y-80377846D01*
X170300238Y-80377849D01*
X170492315Y-80467415D01*
X170502757Y-80472284D01*
X170508065Y-80473706D01*
X170508067Y-80473707D01*
X170718598Y-80530119D01*
X170718600Y-80530119D01*
X170723913Y-80531543D01*
X170952000Y-80551498D01*
X171180087Y-80531543D01*
X171185400Y-80530119D01*
X171185402Y-80530119D01*
X171395933Y-80473707D01*
X171395935Y-80473706D01*
X171401243Y-80472284D01*
X171411685Y-80467415D01*
X171603762Y-80377849D01*
X171603767Y-80377846D01*
X171608749Y-80375523D01*
X171760388Y-80269344D01*
X171791789Y-80247357D01*
X171791792Y-80247355D01*
X171796300Y-80244198D01*
X171958198Y-80082300D01*
X171967008Y-80069719D01*
X172058180Y-79939511D01*
X172089523Y-79894749D01*
X172091846Y-79889767D01*
X172091849Y-79889762D01*
X172108081Y-79854951D01*
X172154998Y-79801666D01*
X172223275Y-79782205D01*
X172291235Y-79802747D01*
X172336471Y-79854951D01*
X172352586Y-79889511D01*
X172358069Y-79899007D01*
X172483028Y-80077467D01*
X172490084Y-80085875D01*
X172644125Y-80239916D01*
X172652533Y-80246972D01*
X172830993Y-80371931D01*
X172840489Y-80377414D01*
X173037947Y-80469490D01*
X173048239Y-80473236D01*
X173220503Y-80519394D01*
X173234599Y-80519058D01*
X173238000Y-80511116D01*
X173238000Y-80505967D01*
X173746000Y-80505967D01*
X173749973Y-80519498D01*
X173758522Y-80520727D01*
X173935761Y-80473236D01*
X173946053Y-80469490D01*
X174143511Y-80377414D01*
X174153007Y-80371931D01*
X174331467Y-80246972D01*
X174339875Y-80239916D01*
X174493916Y-80085875D01*
X174500972Y-80077467D01*
X174625931Y-79899007D01*
X174631414Y-79889511D01*
X174723490Y-79692053D01*
X174727236Y-79681761D01*
X174773394Y-79509497D01*
X174773058Y-79495401D01*
X174765116Y-79492000D01*
X173764115Y-79492000D01*
X173748876Y-79496475D01*
X173747671Y-79497865D01*
X173746000Y-79505548D01*
X173746000Y-80505967D01*
X173238000Y-80505967D01*
X173238000Y-78965885D01*
X173746000Y-78965885D01*
X173750475Y-78981124D01*
X173751865Y-78982329D01*
X173759548Y-78984000D01*
X174759967Y-78984000D01*
X174773498Y-78980027D01*
X174774727Y-78971478D01*
X174727236Y-78794239D01*
X174723490Y-78783947D01*
X174631414Y-78586489D01*
X174625931Y-78576993D01*
X174500972Y-78398533D01*
X174493916Y-78390125D01*
X174339875Y-78236084D01*
X174331467Y-78229028D01*
X174153007Y-78104069D01*
X174143511Y-78098586D01*
X173946053Y-78006510D01*
X173935761Y-78002764D01*
X173763497Y-77956606D01*
X173749401Y-77956942D01*
X173746000Y-77964884D01*
X173746000Y-78965885D01*
X173238000Y-78965885D01*
X173238000Y-77970033D01*
X173234027Y-77956502D01*
X173225478Y-77955273D01*
X173048239Y-78002764D01*
X173037947Y-78006510D01*
X172840489Y-78098586D01*
X172830993Y-78104069D01*
X172652533Y-78229028D01*
X172644125Y-78236084D01*
X172490084Y-78390125D01*
X172483028Y-78398533D01*
X172358069Y-78576993D01*
X172352586Y-78586489D01*
X172336471Y-78621049D01*
X172289554Y-78674334D01*
X172221277Y-78693795D01*
X172153317Y-78673253D01*
X172108081Y-78621049D01*
X172091849Y-78586238D01*
X172091846Y-78586233D01*
X172089523Y-78581251D01*
X171958198Y-78393700D01*
X171796300Y-78231802D01*
X171791792Y-78228645D01*
X171791789Y-78228643D01*
X171630768Y-78115895D01*
X171608749Y-78100477D01*
X171603767Y-78098154D01*
X171603762Y-78098151D01*
X171406225Y-78006039D01*
X171406224Y-78006039D01*
X171401243Y-78003716D01*
X171395935Y-78002294D01*
X171395933Y-78002293D01*
X171185402Y-77945881D01*
X171185400Y-77945881D01*
X171180087Y-77944457D01*
X170952000Y-77924502D01*
X170723913Y-77944457D01*
X170718600Y-77945881D01*
X170718598Y-77945881D01*
X170508067Y-78002293D01*
X170508065Y-78002294D01*
X170502757Y-78003716D01*
X170497776Y-78006039D01*
X170497775Y-78006039D01*
X170300238Y-78098151D01*
X170300233Y-78098154D01*
X170295251Y-78100477D01*
X170273232Y-78115895D01*
X170112211Y-78228643D01*
X170112208Y-78228645D01*
X170107700Y-78231802D01*
X169945802Y-78393700D01*
X169814477Y-78581251D01*
X169812154Y-78586233D01*
X169812151Y-78586238D01*
X169796195Y-78620457D01*
X169749278Y-78673742D01*
X169681001Y-78693203D01*
X169613041Y-78672661D01*
X169567805Y-78620457D01*
X169551849Y-78586238D01*
X169551846Y-78586233D01*
X169549523Y-78581251D01*
X169418198Y-78393700D01*
X169256300Y-78231802D01*
X169251792Y-78228645D01*
X169251789Y-78228643D01*
X169090768Y-78115895D01*
X169068749Y-78100477D01*
X169063767Y-78098154D01*
X169063762Y-78098151D01*
X168866225Y-78006039D01*
X168866224Y-78006039D01*
X168861243Y-78003716D01*
X168855935Y-78002294D01*
X168855933Y-78002293D01*
X168645402Y-77945881D01*
X168645400Y-77945881D01*
X168640087Y-77944457D01*
X168412000Y-77924502D01*
X168183913Y-77944457D01*
X168178600Y-77945881D01*
X168178598Y-77945881D01*
X167968067Y-78002293D01*
X167968065Y-78002294D01*
X167962757Y-78003716D01*
X167957776Y-78006039D01*
X167957775Y-78006039D01*
X167760238Y-78098151D01*
X167760233Y-78098154D01*
X167755251Y-78100477D01*
X167733232Y-78115895D01*
X167572211Y-78228643D01*
X167572208Y-78228645D01*
X167567700Y-78231802D01*
X167405802Y-78393700D01*
X167402643Y-78398211D01*
X167399108Y-78402424D01*
X167397974Y-78401473D01*
X167347929Y-78441471D01*
X167277310Y-78448776D01*
X167213951Y-78416742D01*
X167177970Y-78355538D01*
X167174918Y-78338483D01*
X167173745Y-78327684D01*
X167122615Y-78191295D01*
X167035261Y-78074739D01*
X166918705Y-77987385D01*
X166782316Y-77936255D01*
X166720134Y-77929500D01*
X165023866Y-77929500D01*
X164961684Y-77936255D01*
X164954288Y-77939027D01*
X164954282Y-77939029D01*
X164944739Y-77942607D01*
X164873932Y-77947790D01*
X164845288Y-77932211D01*
X164844565Y-77946269D01*
X164801218Y-78005429D01*
X164708739Y-78074739D01*
X164621385Y-78191295D01*
X164570255Y-78327684D01*
X164563500Y-78389866D01*
X164563500Y-79653200D01*
X164543498Y-79721321D01*
X164489842Y-79767814D01*
X164437500Y-79779200D01*
X162670907Y-79779200D01*
X162602786Y-79759198D01*
X162577271Y-79737510D01*
X162516856Y-79670412D01*
X162486138Y-79606405D01*
X162494903Y-79535951D01*
X162521397Y-79497007D01*
X163324610Y-78693795D01*
X164170600Y-77847805D01*
X164232912Y-77813779D01*
X164259695Y-77810900D01*
X164420433Y-77810900D01*
X164431616Y-77811427D01*
X164439109Y-77813102D01*
X164447035Y-77812853D01*
X164447036Y-77812853D01*
X164507186Y-77810962D01*
X164511145Y-77810900D01*
X164539056Y-77810900D01*
X164542991Y-77810403D01*
X164543056Y-77810395D01*
X164554893Y-77809462D01*
X164587151Y-77808448D01*
X164591170Y-77808322D01*
X164599089Y-77808073D01*
X164618543Y-77802421D01*
X164637900Y-77798413D01*
X164650130Y-77796868D01*
X164650131Y-77796868D01*
X164657997Y-77795874D01*
X164665368Y-77792955D01*
X164665370Y-77792955D01*
X164679270Y-77787452D01*
X164749971Y-77780973D01*
X164781232Y-77797241D01*
X164782381Y-77780789D01*
X164826450Y-77722688D01*
X164842587Y-77710964D01*
X164852507Y-77704448D01*
X164883735Y-77685980D01*
X164883738Y-77685978D01*
X164890562Y-77681942D01*
X164904883Y-77667621D01*
X164919917Y-77654780D01*
X164929894Y-77647531D01*
X164936307Y-77642872D01*
X164964498Y-77608795D01*
X164972488Y-77600016D01*
X169939730Y-72632774D01*
X170002042Y-72598748D01*
X170072857Y-72603813D01*
X170107504Y-72624002D01*
X170107700Y-72624198D01*
X170112202Y-72627350D01*
X170112204Y-72627352D01*
X170154710Y-72657115D01*
X170295251Y-72755523D01*
X170300233Y-72757846D01*
X170300238Y-72757849D01*
X170497775Y-72849961D01*
X170502757Y-72852284D01*
X170508065Y-72853706D01*
X170508067Y-72853707D01*
X170718598Y-72910119D01*
X170718600Y-72910119D01*
X170723913Y-72911543D01*
X170952000Y-72931498D01*
X171180087Y-72911543D01*
X171185400Y-72910119D01*
X171185402Y-72910119D01*
X171395933Y-72853707D01*
X171395935Y-72853706D01*
X171401243Y-72852284D01*
X171406225Y-72849961D01*
X171603762Y-72757849D01*
X171603767Y-72757846D01*
X171608749Y-72755523D01*
X171749290Y-72657115D01*
X171791789Y-72627357D01*
X171791792Y-72627355D01*
X171796300Y-72624198D01*
X171958198Y-72462300D01*
X172089523Y-72274749D01*
X172091846Y-72269767D01*
X172091849Y-72269762D01*
X172107805Y-72235543D01*
X172154722Y-72182258D01*
X172222999Y-72162797D01*
X172290959Y-72183339D01*
X172336195Y-72235543D01*
X172352151Y-72269762D01*
X172352154Y-72269767D01*
X172354477Y-72274749D01*
X172485802Y-72462300D01*
X172647700Y-72624198D01*
X172652208Y-72627355D01*
X172652211Y-72627357D01*
X172694710Y-72657115D01*
X172835251Y-72755523D01*
X172840233Y-72757846D01*
X172840238Y-72757849D01*
X173037775Y-72849961D01*
X173042757Y-72852284D01*
X173048065Y-72853706D01*
X173048067Y-72853707D01*
X173258598Y-72910119D01*
X173258600Y-72910119D01*
X173263913Y-72911543D01*
X173492000Y-72931498D01*
X173720087Y-72911543D01*
X173725400Y-72910119D01*
X173725402Y-72910119D01*
X173935933Y-72853707D01*
X173935935Y-72853706D01*
X173941243Y-72852284D01*
X173946225Y-72849961D01*
X174143762Y-72757849D01*
X174143767Y-72757846D01*
X174148749Y-72755523D01*
X174289290Y-72657115D01*
X174331789Y-72627357D01*
X174331792Y-72627355D01*
X174336300Y-72624198D01*
X174498198Y-72462300D01*
X174629523Y-72274749D01*
X174631846Y-72269767D01*
X174631849Y-72269762D01*
X174723961Y-72072225D01*
X174723961Y-72072224D01*
X174726284Y-72067243D01*
X174785543Y-71846087D01*
X174805498Y-71618000D01*
X174785543Y-71389913D01*
X174762000Y-71302050D01*
X174727707Y-71174067D01*
X174727706Y-71174065D01*
X174726284Y-71168757D01*
X174666500Y-71040548D01*
X174631849Y-70966238D01*
X174631846Y-70966233D01*
X174629523Y-70961251D01*
X174498198Y-70773700D01*
X174336300Y-70611802D01*
X174331792Y-70608645D01*
X174331789Y-70608643D01*
X174213988Y-70526158D01*
X174148749Y-70480477D01*
X174143767Y-70478154D01*
X174143762Y-70478151D01*
X173946225Y-70386039D01*
X173946224Y-70386039D01*
X173941243Y-70383716D01*
X173935935Y-70382294D01*
X173935933Y-70382293D01*
X173725402Y-70325881D01*
X173725400Y-70325881D01*
X173720087Y-70324457D01*
X173492000Y-70304502D01*
X173263913Y-70324457D01*
X173200458Y-70341460D01*
X173129482Y-70339770D01*
X173078753Y-70308848D01*
X172196652Y-69426747D01*
X172189112Y-69418461D01*
X172185000Y-69411982D01*
X172135348Y-69365356D01*
X172132507Y-69362602D01*
X172112770Y-69342865D01*
X172109573Y-69340385D01*
X172100551Y-69332680D01*
X172074100Y-69307841D01*
X172068321Y-69302414D01*
X172061375Y-69298595D01*
X172061372Y-69298593D01*
X172050566Y-69292652D01*
X172034047Y-69281801D01*
X172033583Y-69281441D01*
X172018041Y-69269386D01*
X172010772Y-69266241D01*
X172010768Y-69266238D01*
X171977463Y-69251826D01*
X171966813Y-69246609D01*
X171928060Y-69225305D01*
X171908437Y-69220267D01*
X171889734Y-69213863D01*
X171878420Y-69208967D01*
X171878419Y-69208967D01*
X171871145Y-69205819D01*
X171863322Y-69204580D01*
X171863312Y-69204577D01*
X171827476Y-69198901D01*
X171815856Y-69196495D01*
X171780711Y-69187472D01*
X171780710Y-69187472D01*
X171773030Y-69185500D01*
X171752776Y-69185500D01*
X171733065Y-69183949D01*
X171720886Y-69182020D01*
X171713057Y-69180780D01*
X171705165Y-69181526D01*
X171669039Y-69184941D01*
X171657181Y-69185500D01*
X167106508Y-69185500D01*
X167038387Y-69165498D01*
X166991894Y-69111842D01*
X166981790Y-69041568D01*
X166993551Y-69003673D01*
X167061678Y-68865828D01*
X167088615Y-68811325D01*
X167146842Y-68619679D01*
X167154059Y-68595927D01*
X167154060Y-68595921D01*
X167155563Y-68590975D01*
X167185622Y-68362649D01*
X167187300Y-68294000D01*
X167168430Y-68064478D01*
X167112326Y-67841120D01*
X167020496Y-67629924D01*
X166895405Y-67436563D01*
X166874774Y-67413889D01*
X166743890Y-67270051D01*
X166743889Y-67270050D01*
X166740412Y-67266229D01*
X166736361Y-67263030D01*
X166736357Y-67263026D01*
X166563735Y-67126697D01*
X166563730Y-67126693D01*
X166559681Y-67123496D01*
X166555165Y-67121003D01*
X166555162Y-67121001D01*
X166362589Y-67014695D01*
X166362585Y-67014693D01*
X166358065Y-67012198D01*
X166353196Y-67010474D01*
X166353192Y-67010472D01*
X166145853Y-66937049D01*
X166145849Y-66937048D01*
X166140978Y-66935323D01*
X166135885Y-66934416D01*
X166135882Y-66934415D01*
X166039707Y-66917284D01*
X165914250Y-66894937D01*
X165827802Y-66893881D01*
X165689141Y-66892186D01*
X165689139Y-66892186D01*
X165683971Y-66892123D01*
X165456325Y-66926958D01*
X165425452Y-66937049D01*
X165369602Y-66955303D01*
X165298638Y-66957454D01*
X165237776Y-66920897D01*
X165206340Y-66857240D01*
X165214310Y-66786692D01*
X165241361Y-66746444D01*
X165523401Y-66464404D01*
X165585713Y-66430379D01*
X165612496Y-66427500D01*
X169457013Y-66427500D01*
X169525134Y-66447502D01*
X169564446Y-66487665D01*
X169638394Y-66608336D01*
X169647979Y-66623978D01*
X169798763Y-66798048D01*
X169975953Y-66945154D01*
X170174790Y-67061345D01*
X170389934Y-67143501D01*
X170395000Y-67144532D01*
X170395001Y-67144532D01*
X170495697Y-67165018D01*
X170615607Y-67189414D01*
X170745352Y-67194172D01*
X170840585Y-67197664D01*
X170840589Y-67197664D01*
X170845749Y-67197853D01*
X170850869Y-67197197D01*
X170850871Y-67197197D01*
X170920272Y-67188307D01*
X171074178Y-67168591D01*
X171079126Y-67167106D01*
X171079133Y-67167105D01*
X171271849Y-67109287D01*
X171294761Y-67102413D01*
X171501574Y-67001096D01*
X171689062Y-66867363D01*
X171852190Y-66704803D01*
X171878731Y-66667868D01*
X171983559Y-66521983D01*
X171986577Y-66517783D01*
X171998748Y-66493158D01*
X172086321Y-66315966D01*
X172088615Y-66311325D01*
X172119643Y-66209200D01*
X172154059Y-66095927D01*
X172154060Y-66095921D01*
X172155563Y-66090975D01*
X172177373Y-65925307D01*
X172185185Y-65865971D01*
X172185185Y-65865965D01*
X172185622Y-65862649D01*
X172185950Y-65849240D01*
X172187218Y-65797364D01*
X172187218Y-65797360D01*
X172187300Y-65794000D01*
X172168430Y-65564478D01*
X172112326Y-65341120D01*
X172040324Y-65175526D01*
X172022556Y-65134661D01*
X172022554Y-65134658D01*
X172020496Y-65129924D01*
X171895405Y-64936563D01*
X171874774Y-64913889D01*
X171743890Y-64770051D01*
X171743889Y-64770050D01*
X171740412Y-64766229D01*
X171736361Y-64763030D01*
X171736357Y-64763026D01*
X171563735Y-64626697D01*
X171563730Y-64626693D01*
X171559681Y-64623496D01*
X171555165Y-64621003D01*
X171555162Y-64621001D01*
X171362589Y-64514695D01*
X171362585Y-64514693D01*
X171358065Y-64512198D01*
X171353196Y-64510474D01*
X171353192Y-64510472D01*
X171145853Y-64437049D01*
X171145849Y-64437048D01*
X171140978Y-64435323D01*
X171135885Y-64434416D01*
X171135882Y-64434415D01*
X171039707Y-64417284D01*
X170914250Y-64394937D01*
X170827802Y-64393881D01*
X170689141Y-64392186D01*
X170689139Y-64392186D01*
X170683971Y-64392123D01*
X170456325Y-64426958D01*
X170237424Y-64498506D01*
X170033149Y-64604845D01*
X169848984Y-64743119D01*
X169689877Y-64909616D01*
X169560099Y-65099863D01*
X169559532Y-65099476D01*
X169511316Y-65146091D01*
X169452806Y-65160500D01*
X165376667Y-65160500D01*
X165365484Y-65159973D01*
X165357991Y-65158298D01*
X165350065Y-65158547D01*
X165350064Y-65158547D01*
X165289901Y-65160438D01*
X165285943Y-65160500D01*
X165258044Y-65160500D01*
X165254054Y-65161004D01*
X165242220Y-65161936D01*
X165198011Y-65163326D01*
X165190397Y-65165538D01*
X165190392Y-65165539D01*
X165178559Y-65168977D01*
X165159196Y-65172988D01*
X165139103Y-65175526D01*
X165131736Y-65178443D01*
X165131731Y-65178444D01*
X165097992Y-65191802D01*
X165086765Y-65195646D01*
X165044307Y-65207982D01*
X165037481Y-65212019D01*
X165026872Y-65218293D01*
X165009124Y-65226988D01*
X164990283Y-65234448D01*
X164983867Y-65239110D01*
X164983866Y-65239110D01*
X164954513Y-65260436D01*
X164944593Y-65266952D01*
X164913365Y-65285420D01*
X164913362Y-65285422D01*
X164906538Y-65289458D01*
X164892217Y-65303779D01*
X164877184Y-65316619D01*
X164860793Y-65328528D01*
X164850376Y-65341120D01*
X164832602Y-65362605D01*
X164824612Y-65371384D01*
X163421100Y-66774895D01*
X163358788Y-66808921D01*
X163332005Y-66811800D01*
X162269188Y-66811800D01*
X162201067Y-66791798D01*
X162154574Y-66738142D01*
X162144470Y-66667868D01*
X162161755Y-66619965D01*
X162216583Y-66530494D01*
X162221064Y-66521700D01*
X162314134Y-66297009D01*
X162317183Y-66287624D01*
X162373959Y-66051137D01*
X162375502Y-66041390D01*
X162394584Y-65798930D01*
X162394584Y-65789070D01*
X162375502Y-65546610D01*
X162373959Y-65536863D01*
X162317183Y-65300376D01*
X162314134Y-65290991D01*
X162221064Y-65066300D01*
X162216583Y-65057506D01*
X162097287Y-64862833D01*
X162086830Y-64853373D01*
X162078054Y-64857156D01*
X160871095Y-66064115D01*
X160808783Y-66098141D01*
X160737968Y-66093076D01*
X160692905Y-66064115D01*
X160511885Y-65883095D01*
X160477859Y-65820783D01*
X160482924Y-65749968D01*
X160511885Y-65704905D01*
X161715800Y-64500990D01*
X161722560Y-64488610D01*
X161716833Y-64480960D01*
X161518494Y-64359417D01*
X161509700Y-64354936D01*
X161285009Y-64261866D01*
X161275622Y-64258816D01*
X161254782Y-64253813D01*
X161193212Y-64218461D01*
X161160529Y-64155435D01*
X161167109Y-64084744D01*
X161202879Y-64035047D01*
X161294966Y-63957249D01*
X161359909Y-63928568D01*
X161376278Y-63927500D01*
X164457013Y-63927500D01*
X164525134Y-63947502D01*
X164564446Y-63987665D01*
X164647979Y-64123978D01*
X164798763Y-64298048D01*
X164975953Y-64445154D01*
X165174790Y-64561345D01*
X165389934Y-64643501D01*
X165395000Y-64644532D01*
X165395001Y-64644532D01*
X165441647Y-64654022D01*
X165615607Y-64689414D01*
X165745352Y-64694172D01*
X165840585Y-64697664D01*
X165840589Y-64697664D01*
X165845749Y-64697853D01*
X165850869Y-64697197D01*
X165850871Y-64697197D01*
X165920272Y-64688307D01*
X166074178Y-64668591D01*
X166079126Y-64667106D01*
X166079133Y-64667105D01*
X166266882Y-64610777D01*
X166294761Y-64602413D01*
X166501574Y-64501096D01*
X166689062Y-64367363D01*
X166852190Y-64204803D01*
X166855284Y-64200498D01*
X166983559Y-64021983D01*
X166986577Y-64017783D01*
X166992628Y-64005541D01*
X167074535Y-63839814D01*
X167088615Y-63811325D01*
X167116566Y-63719327D01*
X167154059Y-63595927D01*
X167154060Y-63595921D01*
X167155563Y-63590975D01*
X167177373Y-63425306D01*
X167185185Y-63365971D01*
X167185185Y-63365965D01*
X167185622Y-63362649D01*
X167185781Y-63356147D01*
X167187218Y-63297364D01*
X167187218Y-63297360D01*
X167187300Y-63294000D01*
X167168430Y-63064478D01*
X167116444Y-62857516D01*
X167113585Y-62846132D01*
X167113585Y-62846131D01*
X167112326Y-62841120D01*
X167042276Y-62680015D01*
X167022556Y-62634661D01*
X167022554Y-62634658D01*
X167020496Y-62629924D01*
X166999157Y-62596939D01*
X166978951Y-62528879D01*
X166998748Y-62460698D01*
X167052263Y-62414044D01*
X167104950Y-62402500D01*
X171442406Y-62402500D01*
X171510527Y-62422502D01*
X171531501Y-62439405D01*
X171897653Y-62805557D01*
X171931679Y-62867869D01*
X171929975Y-62928324D01*
X171902974Y-63025688D01*
X171901592Y-63030673D01*
X171901044Y-63035801D01*
X171901043Y-63035806D01*
X171878220Y-63249365D01*
X171877119Y-63259665D01*
X171877416Y-63264817D01*
X171877416Y-63264821D01*
X171884746Y-63391944D01*
X171890376Y-63489580D01*
X171891513Y-63494626D01*
X171891514Y-63494632D01*
X171913226Y-63590975D01*
X171941006Y-63714242D01*
X171942948Y-63719024D01*
X171942949Y-63719028D01*
X172003864Y-63869042D01*
X172027649Y-63927618D01*
X172147979Y-64123978D01*
X172298763Y-64298048D01*
X172475953Y-64445154D01*
X172674790Y-64561345D01*
X172889934Y-64643501D01*
X172895000Y-64644532D01*
X172895001Y-64644532D01*
X172941647Y-64654022D01*
X173115607Y-64689414D01*
X173245352Y-64694172D01*
X173340585Y-64697664D01*
X173340589Y-64697664D01*
X173345749Y-64697853D01*
X173350869Y-64697197D01*
X173350871Y-64697197D01*
X173420272Y-64688307D01*
X173574178Y-64668591D01*
X173579126Y-64667106D01*
X173579133Y-64667105D01*
X173766882Y-64610777D01*
X173794761Y-64602413D01*
X174001574Y-64501096D01*
X174189062Y-64367363D01*
X174352190Y-64204803D01*
X174355284Y-64200498D01*
X174483559Y-64021983D01*
X174486577Y-64017783D01*
X174492628Y-64005541D01*
X174574535Y-63839814D01*
X174588615Y-63811325D01*
X174616566Y-63719327D01*
X174654059Y-63595927D01*
X174654060Y-63595921D01*
X174655563Y-63590975D01*
X174677373Y-63425306D01*
X174685185Y-63365971D01*
X174685185Y-63365965D01*
X174685622Y-63362649D01*
X174685781Y-63356147D01*
X174687218Y-63297364D01*
X174687218Y-63297360D01*
X174687300Y-63294000D01*
X174668430Y-63064478D01*
X174616444Y-62857516D01*
X174613585Y-62846132D01*
X174613585Y-62846131D01*
X174612326Y-62841120D01*
X174542276Y-62680015D01*
X174522556Y-62634661D01*
X174522554Y-62634658D01*
X174520496Y-62629924D01*
X174395405Y-62436563D01*
X174382611Y-62422502D01*
X174243890Y-62270051D01*
X174243889Y-62270050D01*
X174240412Y-62266229D01*
X174236361Y-62263030D01*
X174236357Y-62263026D01*
X174063735Y-62126697D01*
X174063730Y-62126693D01*
X174059681Y-62123496D01*
X174055165Y-62121003D01*
X174055162Y-62121001D01*
X173862589Y-62014695D01*
X173862585Y-62014693D01*
X173858065Y-62012198D01*
X173853196Y-62010474D01*
X173853192Y-62010472D01*
X173645853Y-61937049D01*
X173645849Y-61937048D01*
X173640978Y-61935323D01*
X173635885Y-61934416D01*
X173635882Y-61934415D01*
X173539707Y-61917284D01*
X173414250Y-61894937D01*
X173327802Y-61893881D01*
X173189141Y-61892186D01*
X173189139Y-61892186D01*
X173183971Y-61892123D01*
X173030812Y-61915560D01*
X172961434Y-61926176D01*
X172961432Y-61926177D01*
X172956325Y-61926958D01*
X172951412Y-61928564D01*
X172951407Y-61928565D01*
X172920229Y-61938755D01*
X172849265Y-61940906D01*
X172791989Y-61908085D01*
X172260647Y-61376742D01*
X172253113Y-61368463D01*
X172249000Y-61361982D01*
X172199348Y-61315356D01*
X172196507Y-61312602D01*
X172176770Y-61292865D01*
X172173573Y-61290385D01*
X172164551Y-61282680D01*
X172149815Y-61268842D01*
X172132321Y-61252414D01*
X172125375Y-61248595D01*
X172125372Y-61248593D01*
X172114566Y-61242652D01*
X172098047Y-61231801D01*
X172097583Y-61231441D01*
X172082041Y-61219386D01*
X172074772Y-61216241D01*
X172074768Y-61216238D01*
X172041463Y-61201826D01*
X172030813Y-61196609D01*
X171992060Y-61175305D01*
X171972437Y-61170267D01*
X171953734Y-61163863D01*
X171942420Y-61158967D01*
X171942419Y-61158967D01*
X171935145Y-61155819D01*
X171927322Y-61154580D01*
X171927312Y-61154577D01*
X171891476Y-61148901D01*
X171879856Y-61146495D01*
X171844711Y-61137472D01*
X171844710Y-61137472D01*
X171837030Y-61135500D01*
X171816776Y-61135500D01*
X171797065Y-61133949D01*
X171784886Y-61132020D01*
X171777057Y-61130780D01*
X171747786Y-61133547D01*
X171733039Y-61134941D01*
X171721181Y-61135500D01*
X157257767Y-61135500D01*
X157246584Y-61134973D01*
X157239091Y-61133298D01*
X157231165Y-61133547D01*
X157231164Y-61133547D01*
X157171014Y-61135438D01*
X157167055Y-61135500D01*
X157139144Y-61135500D01*
X157135210Y-61135997D01*
X157135209Y-61135997D01*
X157135144Y-61136005D01*
X157123307Y-61136938D01*
X157091490Y-61137938D01*
X157087029Y-61138078D01*
X157079110Y-61138327D01*
X157061454Y-61143456D01*
X157059658Y-61143978D01*
X157040306Y-61147986D01*
X157033235Y-61148880D01*
X157020203Y-61150526D01*
X157012834Y-61153443D01*
X157012832Y-61153444D01*
X156979097Y-61166800D01*
X156967869Y-61170645D01*
X156925407Y-61182982D01*
X156918585Y-61187016D01*
X156918579Y-61187019D01*
X156907968Y-61193294D01*
X156890218Y-61201990D01*
X156878756Y-61206528D01*
X156878751Y-61206531D01*
X156871383Y-61209448D01*
X156856082Y-61220565D01*
X156835625Y-61235427D01*
X156825707Y-61241943D01*
X156814463Y-61248593D01*
X156787637Y-61264458D01*
X156773313Y-61278782D01*
X156758281Y-61291621D01*
X156741893Y-61303528D01*
X156737684Y-61308616D01*
X156674861Y-61340401D01*
X156651957Y-61342500D01*
X151002477Y-61342500D01*
X150934356Y-61322498D01*
X150887863Y-61268842D01*
X150877759Y-61198568D01*
X150881917Y-61179879D01*
X150938370Y-60994069D01*
X150967529Y-60772590D01*
X150969156Y-60706000D01*
X150950852Y-60483361D01*
X150896431Y-60266702D01*
X150807354Y-60061840D01*
X150686014Y-59874277D01*
X150535670Y-59709051D01*
X150531619Y-59705852D01*
X150531615Y-59705848D01*
X150364414Y-59573800D01*
X150364410Y-59573798D01*
X150360359Y-59570598D01*
X150319053Y-59547796D01*
X150269084Y-59497364D01*
X150254312Y-59427921D01*
X150279428Y-59361516D01*
X150306780Y-59334909D01*
X150417988Y-59255585D01*
X150485860Y-59207173D01*
X150644096Y-59049489D01*
X150774453Y-58868077D01*
X150785297Y-58846137D01*
X150871136Y-58672453D01*
X150871137Y-58672451D01*
X150873430Y-58667811D01*
X150938370Y-58454069D01*
X150967529Y-58232590D01*
X150969156Y-58166000D01*
X150950852Y-57943361D01*
X150896431Y-57726702D01*
X150807354Y-57521840D01*
X150767906Y-57460862D01*
X150688822Y-57338617D01*
X150688820Y-57338614D01*
X150686014Y-57334277D01*
X150535670Y-57169051D01*
X150531619Y-57165852D01*
X150531615Y-57165848D01*
X150364414Y-57033800D01*
X150364410Y-57033798D01*
X150360359Y-57030598D01*
X150319053Y-57007796D01*
X150269084Y-56957364D01*
X150254312Y-56887921D01*
X150279428Y-56821516D01*
X150306780Y-56794909D01*
X150360971Y-56756255D01*
X150485860Y-56667173D01*
X150644096Y-56509489D01*
X150774453Y-56328077D01*
X150873430Y-56127811D01*
X150938370Y-55914069D01*
X150967529Y-55692590D01*
X150969156Y-55626000D01*
X150950852Y-55403361D01*
X150896431Y-55186702D01*
X150807354Y-54981840D01*
X150686014Y-54794277D01*
X150535670Y-54629051D01*
X150531619Y-54625852D01*
X150531615Y-54625848D01*
X150364414Y-54493800D01*
X150364410Y-54493798D01*
X150360359Y-54490598D01*
X150164789Y-54382638D01*
X150159920Y-54380914D01*
X150159916Y-54380912D01*
X149959087Y-54309795D01*
X149959083Y-54309794D01*
X149954212Y-54308069D01*
X149949119Y-54307162D01*
X149949116Y-54307161D01*
X149739373Y-54269800D01*
X149739367Y-54269799D01*
X149734284Y-54268894D01*
X149660452Y-54267992D01*
X149516081Y-54266228D01*
X149516079Y-54266228D01*
X149510911Y-54266165D01*
X149290091Y-54299955D01*
X149077756Y-54369357D01*
X148879607Y-54472507D01*
X148875474Y-54475610D01*
X148875471Y-54475612D01*
X148705100Y-54603530D01*
X148700965Y-54606635D01*
X148626708Y-54684341D01*
X148620283Y-54691064D01*
X148558759Y-54726494D01*
X148487846Y-54723037D01*
X148430060Y-54681791D01*
X148411207Y-54648243D01*
X148369767Y-54537703D01*
X148366615Y-54529295D01*
X148279261Y-54412739D01*
X148162705Y-54325385D01*
X148026316Y-54274255D01*
X147964134Y-54267500D01*
X146167866Y-54267500D01*
X146105684Y-54274255D01*
X145969295Y-54325385D01*
X145852739Y-54412739D01*
X145765385Y-54529295D01*
X145714255Y-54665684D01*
X145707500Y-54727866D01*
X145707500Y-56524134D01*
X145714255Y-56586316D01*
X145765385Y-56722705D01*
X145852739Y-56839261D01*
X145969295Y-56926615D01*
X145977704Y-56929767D01*
X145977705Y-56929768D01*
X146086451Y-56970535D01*
X146143216Y-57013176D01*
X146167916Y-57079738D01*
X146152709Y-57149087D01*
X146133316Y-57175568D01*
X146056836Y-57255600D01*
X145995313Y-57291029D01*
X145924400Y-57287572D01*
X145876648Y-57257643D01*
X145665752Y-57046747D01*
X145658212Y-57038461D01*
X145654100Y-57031982D01*
X145634074Y-57013176D01*
X145604449Y-56985357D01*
X145601607Y-56982602D01*
X145581870Y-56962865D01*
X145578673Y-56960385D01*
X145569651Y-56952680D01*
X145543200Y-56927841D01*
X145537421Y-56922414D01*
X145530475Y-56918595D01*
X145530472Y-56918593D01*
X145519666Y-56912652D01*
X145503147Y-56901801D01*
X145494564Y-56895144D01*
X145487141Y-56889386D01*
X145479872Y-56886241D01*
X145479868Y-56886238D01*
X145446563Y-56871826D01*
X145435913Y-56866609D01*
X145397160Y-56845305D01*
X145377537Y-56840267D01*
X145358834Y-56833863D01*
X145347520Y-56828967D01*
X145347519Y-56828967D01*
X145340245Y-56825819D01*
X145332422Y-56824580D01*
X145332412Y-56824577D01*
X145296576Y-56818901D01*
X145284956Y-56816495D01*
X145249811Y-56807472D01*
X145249810Y-56807472D01*
X145242130Y-56805500D01*
X145221876Y-56805500D01*
X145202165Y-56803949D01*
X145189986Y-56802020D01*
X145182157Y-56800780D01*
X145174265Y-56801526D01*
X145138139Y-56804941D01*
X145126281Y-56805500D01*
X137721400Y-56805500D01*
X137653279Y-56785498D01*
X137634053Y-56769157D01*
X137633780Y-56769460D01*
X137628868Y-56765037D01*
X137624453Y-56760134D01*
X137469952Y-56647882D01*
X137463924Y-56645198D01*
X137463922Y-56645197D01*
X137301519Y-56572891D01*
X137301518Y-56572891D01*
X137295488Y-56570206D01*
X137193925Y-56548618D01*
X137115144Y-56531872D01*
X137115139Y-56531872D01*
X137108687Y-56530500D01*
X136917713Y-56530500D01*
X136911261Y-56531872D01*
X136911256Y-56531872D01*
X136832475Y-56548618D01*
X136730912Y-56570206D01*
X136724882Y-56572891D01*
X136724881Y-56572891D01*
X136562478Y-56645197D01*
X136562476Y-56645198D01*
X136556448Y-56647882D01*
X136401947Y-56760134D01*
X136397526Y-56765044D01*
X136397525Y-56765045D01*
X136280357Y-56895174D01*
X136274160Y-56902056D01*
X136178673Y-57067444D01*
X136119658Y-57249072D01*
X136118968Y-57255633D01*
X136118968Y-57255635D01*
X136100386Y-57432435D01*
X136099696Y-57439000D01*
X136119658Y-57628928D01*
X136178673Y-57810556D01*
X136274160Y-57975944D01*
X136401947Y-58117866D01*
X136556448Y-58230118D01*
X136562476Y-58232802D01*
X136562478Y-58232803D01*
X136724881Y-58305109D01*
X136730912Y-58307794D01*
X136824313Y-58327647D01*
X136911256Y-58346128D01*
X136911261Y-58346128D01*
X136917713Y-58347500D01*
X137108687Y-58347500D01*
X137115139Y-58346128D01*
X137115144Y-58346128D01*
X137202087Y-58327647D01*
X137295488Y-58307794D01*
X137301519Y-58305109D01*
X137463922Y-58232803D01*
X137463924Y-58232802D01*
X137469952Y-58230118D01*
X137558203Y-58166000D01*
X137602871Y-58133546D01*
X137624453Y-58117866D01*
X137628868Y-58112963D01*
X137633780Y-58108540D01*
X137634905Y-58109789D01*
X137688214Y-58076949D01*
X137721400Y-58072500D01*
X144847506Y-58072500D01*
X144915627Y-58092502D01*
X144936601Y-58109405D01*
X145358301Y-58531105D01*
X145392327Y-58593417D01*
X145387262Y-58664232D01*
X145344715Y-58721068D01*
X145278195Y-58745879D01*
X145269206Y-58746200D01*
X138787794Y-58746200D01*
X138776611Y-58745673D01*
X138769118Y-58743998D01*
X138761192Y-58744247D01*
X138761191Y-58744247D01*
X138701028Y-58746138D01*
X138697070Y-58746200D01*
X138669170Y-58746200D01*
X138665180Y-58746704D01*
X138653346Y-58747636D01*
X138609137Y-58749026D01*
X138601521Y-58751239D01*
X138601519Y-58751239D01*
X138589678Y-58754679D01*
X138570319Y-58758688D01*
X138569009Y-58758854D01*
X138550229Y-58761226D01*
X138542863Y-58764142D01*
X138542857Y-58764144D01*
X138509124Y-58777500D01*
X138497894Y-58781345D01*
X138463043Y-58791470D01*
X138455433Y-58793681D01*
X138448610Y-58797716D01*
X138437992Y-58803995D01*
X138420239Y-58812692D01*
X138412594Y-58815719D01*
X138401409Y-58820148D01*
X138394994Y-58824809D01*
X138365638Y-58846137D01*
X138355721Y-58852651D01*
X138317664Y-58875158D01*
X138303343Y-58889479D01*
X138288310Y-58902319D01*
X138271919Y-58914228D01*
X138266868Y-58920333D01*
X138266863Y-58920338D01*
X138243732Y-58948298D01*
X138235745Y-58957076D01*
X137975514Y-59217308D01*
X137913201Y-59251333D01*
X137886418Y-59254213D01*
X137830526Y-59254213D01*
X137824074Y-59255585D01*
X137824069Y-59255585D01*
X137737125Y-59274066D01*
X137643725Y-59293919D01*
X137637695Y-59296604D01*
X137637694Y-59296604D01*
X137475291Y-59368910D01*
X137475289Y-59368911D01*
X137469261Y-59371595D01*
X137314760Y-59483847D01*
X137186973Y-59625769D01*
X137091486Y-59791157D01*
X137032471Y-59972785D01*
X137031781Y-59979346D01*
X137031781Y-59979348D01*
X137014183Y-60146787D01*
X137012509Y-60162713D01*
X137013199Y-60169278D01*
X137031690Y-60345206D01*
X137032471Y-60352641D01*
X137034510Y-60358915D01*
X137034511Y-60358919D01*
X137049378Y-60404676D01*
X137051405Y-60475644D01*
X137014743Y-60536442D01*
X136951030Y-60567767D01*
X136930859Y-60569605D01*
X136592120Y-60573139D01*
X136523795Y-60553849D01*
X136506499Y-60540785D01*
X136505666Y-60540035D01*
X136501253Y-60535134D01*
X136437097Y-60488522D01*
X136352094Y-60426763D01*
X136352093Y-60426762D01*
X136346752Y-60422882D01*
X136340724Y-60420198D01*
X136340722Y-60420197D01*
X136178319Y-60347891D01*
X136178318Y-60347891D01*
X136172288Y-60345206D01*
X136078887Y-60325353D01*
X135991944Y-60306872D01*
X135991939Y-60306872D01*
X135985487Y-60305500D01*
X135794513Y-60305500D01*
X135788061Y-60306872D01*
X135788056Y-60306872D01*
X135701113Y-60325353D01*
X135607712Y-60345206D01*
X135601682Y-60347891D01*
X135601681Y-60347891D01*
X135439278Y-60420197D01*
X135439276Y-60420198D01*
X135433248Y-60422882D01*
X135278747Y-60535134D01*
X135274326Y-60540044D01*
X135274325Y-60540045D01*
X135244000Y-60573725D01*
X135150960Y-60677056D01*
X135055473Y-60842444D01*
X134996458Y-61024072D01*
X134995768Y-61030633D01*
X134995768Y-61030635D01*
X134981457Y-61166800D01*
X134976496Y-61214000D01*
X134977186Y-61220565D01*
X134993601Y-61376742D01*
X134996458Y-61403928D01*
X135055473Y-61585556D01*
X135150960Y-61750944D01*
X135155378Y-61755851D01*
X135155379Y-61755852D01*
X135231226Y-61840089D01*
X135278747Y-61892866D01*
X135341908Y-61938755D01*
X135421936Y-61996899D01*
X135433248Y-62005118D01*
X135439276Y-62007802D01*
X135439278Y-62007803D01*
X135601681Y-62080109D01*
X135607712Y-62082794D01*
X135700209Y-62102455D01*
X135788056Y-62121128D01*
X135788061Y-62121128D01*
X135794513Y-62122500D01*
X135985487Y-62122500D01*
X135991939Y-62121128D01*
X135991944Y-62121128D01*
X136079791Y-62102455D01*
X136172288Y-62082794D01*
X136178319Y-62080109D01*
X136340722Y-62007803D01*
X136340724Y-62007802D01*
X136346752Y-62005118D01*
X136358065Y-61996899D01*
X136438092Y-61938755D01*
X136501253Y-61892866D01*
X136511243Y-61881771D01*
X136571687Y-61844532D01*
X136603563Y-61840089D01*
X136760675Y-61838450D01*
X137232118Y-61833531D01*
X137300444Y-61852821D01*
X137347494Y-61905989D01*
X137358331Y-61976154D01*
X137329513Y-62041038D01*
X137291615Y-62071286D01*
X137227149Y-62104845D01*
X137042984Y-62243119D01*
X136883877Y-62409616D01*
X136754099Y-62599863D01*
X136751923Y-62604552D01*
X136751919Y-62604558D01*
X136659315Y-62804057D01*
X136657136Y-62808752D01*
X136595592Y-63030673D01*
X136595043Y-63035810D01*
X136572220Y-63249365D01*
X136571119Y-63259665D01*
X136571416Y-63264817D01*
X136571416Y-63264821D01*
X136576682Y-63356147D01*
X136560634Y-63425306D01*
X136509744Y-63474811D01*
X136450891Y-63489400D01*
X132005641Y-63489400D01*
X131937520Y-63469398D01*
X131891027Y-63415742D01*
X131879679Y-63360321D01*
X131881218Y-63297364D01*
X131881218Y-63297360D01*
X131881300Y-63294000D01*
X131862430Y-63064478D01*
X131810444Y-62857516D01*
X131807585Y-62846132D01*
X131807585Y-62846131D01*
X131806326Y-62841120D01*
X131736276Y-62680015D01*
X131716556Y-62634661D01*
X131716554Y-62634658D01*
X131714496Y-62629924D01*
X131589405Y-62436563D01*
X131576611Y-62422502D01*
X131437890Y-62270051D01*
X131437889Y-62270050D01*
X131434412Y-62266229D01*
X131430361Y-62263030D01*
X131430357Y-62263026D01*
X131257735Y-62126697D01*
X131257730Y-62126693D01*
X131253681Y-62123496D01*
X131249165Y-62121003D01*
X131249162Y-62121001D01*
X131056589Y-62014695D01*
X131056585Y-62014693D01*
X131052065Y-62012198D01*
X131047196Y-62010474D01*
X131047192Y-62010472D01*
X130839853Y-61937049D01*
X130839849Y-61937048D01*
X130834978Y-61935323D01*
X130829885Y-61934416D01*
X130829882Y-61934415D01*
X130733707Y-61917284D01*
X130608250Y-61894937D01*
X130521802Y-61893881D01*
X130383141Y-61892186D01*
X130383139Y-61892186D01*
X130377971Y-61892123D01*
X130150325Y-61926958D01*
X129931424Y-61998506D01*
X129913565Y-62007803D01*
X129769509Y-62082794D01*
X129727149Y-62104845D01*
X129542984Y-62243119D01*
X129383877Y-62409616D01*
X129254099Y-62599863D01*
X129251923Y-62604552D01*
X129251919Y-62604558D01*
X129159315Y-62804057D01*
X129157136Y-62808752D01*
X129095592Y-63030673D01*
X129095043Y-63035810D01*
X129072220Y-63249365D01*
X129071119Y-63259665D01*
X129071416Y-63264817D01*
X129071416Y-63264821D01*
X129078746Y-63391944D01*
X129084376Y-63489580D01*
X129085513Y-63494626D01*
X129085514Y-63494632D01*
X129107226Y-63590975D01*
X129135006Y-63714242D01*
X129136948Y-63719024D01*
X129136949Y-63719028D01*
X129197864Y-63869042D01*
X129221649Y-63927618D01*
X129341979Y-64123978D01*
X129492763Y-64298048D01*
X129669953Y-64445154D01*
X129868790Y-64561345D01*
X130083934Y-64643501D01*
X130089000Y-64644532D01*
X130089001Y-64644532D01*
X130135647Y-64654022D01*
X130309607Y-64689414D01*
X130439352Y-64694172D01*
X130534585Y-64697664D01*
X130534589Y-64697664D01*
X130539749Y-64697853D01*
X130544869Y-64697197D01*
X130544871Y-64697197D01*
X130614272Y-64688307D01*
X130768178Y-64668591D01*
X130773127Y-64667106D01*
X130773133Y-64667105D01*
X130855018Y-64642538D01*
X130926013Y-64642122D01*
X130968450Y-64663664D01*
X130972476Y-64666786D01*
X130979860Y-64672514D01*
X131020440Y-64690074D01*
X131031088Y-64695291D01*
X131035749Y-64697853D01*
X131069840Y-64716595D01*
X131077516Y-64718566D01*
X131077519Y-64718567D01*
X131089462Y-64721633D01*
X131108167Y-64728037D01*
X131126755Y-64736081D01*
X131134578Y-64737320D01*
X131134588Y-64737323D01*
X131170424Y-64742999D01*
X131182044Y-64745405D01*
X131217189Y-64754428D01*
X131224870Y-64756400D01*
X131245124Y-64756400D01*
X131264834Y-64757951D01*
X131284843Y-64761120D01*
X131292735Y-64760374D01*
X131328861Y-64756959D01*
X131340719Y-64756400D01*
X134249919Y-64756400D01*
X134318040Y-64776402D01*
X134364533Y-64830058D01*
X134374637Y-64900332D01*
X134354007Y-64953403D01*
X134254099Y-65099863D01*
X134251923Y-65104552D01*
X134251919Y-65104558D01*
X134161024Y-65300376D01*
X134157136Y-65308752D01*
X134095592Y-65530673D01*
X134095043Y-65535810D01*
X134072010Y-65751331D01*
X134071119Y-65759665D01*
X134071416Y-65764817D01*
X134071416Y-65764821D01*
X134080098Y-65915387D01*
X134084376Y-65989580D01*
X134085513Y-65994626D01*
X134085514Y-65994632D01*
X134107226Y-66090975D01*
X134135006Y-66214242D01*
X134136948Y-66219024D01*
X134136949Y-66219028D01*
X134219705Y-66422831D01*
X134221649Y-66427618D01*
X134261272Y-66492277D01*
X134332394Y-66608336D01*
X134341979Y-66623978D01*
X134492763Y-66798048D01*
X134669953Y-66945154D01*
X134784685Y-67012198D01*
X134866509Y-67060012D01*
X134915233Y-67111651D01*
X134928304Y-67181434D01*
X134901573Y-67247206D01*
X134843526Y-67288084D01*
X134802939Y-67294800D01*
X131514062Y-67294800D01*
X131445941Y-67274798D01*
X131434605Y-67265984D01*
X131434412Y-67266229D01*
X131257735Y-67126697D01*
X131257730Y-67126693D01*
X131253681Y-67123496D01*
X131249165Y-67121003D01*
X131249162Y-67121001D01*
X131056589Y-67014695D01*
X131056585Y-67014693D01*
X131052065Y-67012198D01*
X131047196Y-67010474D01*
X131047192Y-67010472D01*
X130839853Y-66937049D01*
X130839849Y-66937048D01*
X130834978Y-66935323D01*
X130829885Y-66934416D01*
X130829882Y-66934415D01*
X130733707Y-66917284D01*
X130608250Y-66894937D01*
X130521802Y-66893881D01*
X130383141Y-66892186D01*
X130383139Y-66892186D01*
X130377971Y-66892123D01*
X130150325Y-66926958D01*
X129931424Y-66998506D01*
X129727149Y-67104845D01*
X129542984Y-67243119D01*
X129383877Y-67409616D01*
X129254099Y-67599863D01*
X129251923Y-67604552D01*
X129251919Y-67604558D01*
X129240145Y-67629924D01*
X129157136Y-67808752D01*
X129095592Y-68030673D01*
X129071119Y-68259665D01*
X129071416Y-68264817D01*
X129071416Y-68264821D01*
X129076864Y-68359296D01*
X129084376Y-68489580D01*
X129085513Y-68494626D01*
X129085514Y-68494632D01*
X129107226Y-68590975D01*
X129135006Y-68714242D01*
X129136948Y-68719024D01*
X129136949Y-68719028D01*
X129199108Y-68872106D01*
X129221649Y-68927618D01*
X129224352Y-68932028D01*
X129224353Y-68932031D01*
X129262122Y-68993665D01*
X129280661Y-69062198D01*
X129259205Y-69129875D01*
X129204566Y-69175208D01*
X129154690Y-69185500D01*
X127537594Y-69185500D01*
X127469473Y-69165498D01*
X127448499Y-69148595D01*
X125854106Y-67554202D01*
X125820080Y-67491890D01*
X125825145Y-67421075D01*
X125867692Y-67364239D01*
X125913788Y-67342588D01*
X125969622Y-67329184D01*
X125979009Y-67326134D01*
X126203700Y-67233064D01*
X126212494Y-67228583D01*
X126407167Y-67109287D01*
X126416627Y-67098830D01*
X126412844Y-67090054D01*
X125117922Y-65795132D01*
X125840408Y-65795132D01*
X125840539Y-65796965D01*
X125844790Y-65803580D01*
X126769010Y-66727800D01*
X126781390Y-66734560D01*
X126789040Y-66728833D01*
X126910583Y-66530494D01*
X126915064Y-66521700D01*
X127008134Y-66297009D01*
X127011183Y-66287624D01*
X127067959Y-66051137D01*
X127069502Y-66041390D01*
X127088584Y-65798930D01*
X127088584Y-65789070D01*
X127069502Y-65546610D01*
X127067959Y-65536863D01*
X127011183Y-65300376D01*
X127008134Y-65290991D01*
X126915064Y-65066300D01*
X126910583Y-65057506D01*
X126791287Y-64862833D01*
X126780830Y-64853373D01*
X126772054Y-64857156D01*
X125848022Y-65781188D01*
X125840408Y-65795132D01*
X125117922Y-65795132D01*
X124182990Y-64860200D01*
X124170610Y-64853440D01*
X124162960Y-64859167D01*
X124041417Y-65057506D01*
X124036936Y-65066300D01*
X123943866Y-65290991D01*
X123940817Y-65300376D01*
X123927412Y-65356211D01*
X123892060Y-65417780D01*
X123829033Y-65450463D01*
X123758342Y-65443883D01*
X123715798Y-65415892D01*
X123646405Y-65346499D01*
X123612379Y-65284187D01*
X123609500Y-65257404D01*
X123609500Y-64621844D01*
X123629502Y-64553723D01*
X123680069Y-64508692D01*
X123690935Y-64503369D01*
X123690939Y-64503367D01*
X123695574Y-64501096D01*
X123712294Y-64489170D01*
X124535373Y-64489170D01*
X124539156Y-64497946D01*
X125463188Y-65421978D01*
X125477132Y-65429592D01*
X125478965Y-65429461D01*
X125485580Y-65425210D01*
X126409800Y-64500990D01*
X126416560Y-64488610D01*
X126410833Y-64480960D01*
X126212494Y-64359417D01*
X126203700Y-64354936D01*
X125979009Y-64261866D01*
X125969624Y-64258817D01*
X125733137Y-64202041D01*
X125723390Y-64200498D01*
X125480930Y-64181416D01*
X125471070Y-64181416D01*
X125228610Y-64200498D01*
X125218863Y-64202041D01*
X124982376Y-64258817D01*
X124972991Y-64261866D01*
X124748300Y-64354936D01*
X124739506Y-64359417D01*
X124544833Y-64478713D01*
X124535373Y-64489170D01*
X123712294Y-64489170D01*
X123883062Y-64367363D01*
X124046190Y-64204803D01*
X124049284Y-64200498D01*
X124177559Y-64021983D01*
X124180577Y-64017783D01*
X124186628Y-64005541D01*
X124268535Y-63839814D01*
X124282615Y-63811325D01*
X124310566Y-63719327D01*
X124348059Y-63595927D01*
X124348060Y-63595921D01*
X124349563Y-63590975D01*
X124371373Y-63425306D01*
X124379185Y-63365971D01*
X124379185Y-63365965D01*
X124379622Y-63362649D01*
X124379781Y-63356147D01*
X124381218Y-63297364D01*
X124381218Y-63297360D01*
X124381300Y-63294000D01*
X124362430Y-63064478D01*
X124310444Y-62857516D01*
X124307585Y-62846132D01*
X124307585Y-62846131D01*
X124306326Y-62841120D01*
X124236276Y-62680015D01*
X124216556Y-62634661D01*
X124216554Y-62634658D01*
X124214496Y-62629924D01*
X124089405Y-62436563D01*
X124076611Y-62422502D01*
X123937890Y-62270051D01*
X123937889Y-62270050D01*
X123934412Y-62266229D01*
X123930361Y-62263030D01*
X123930357Y-62263026D01*
X123757735Y-62126697D01*
X123757730Y-62126693D01*
X123753681Y-62123496D01*
X123749165Y-62121003D01*
X123749162Y-62121001D01*
X123556589Y-62014695D01*
X123556585Y-62014693D01*
X123552065Y-62012198D01*
X123547196Y-62010474D01*
X123547192Y-62010472D01*
X123339853Y-61937049D01*
X123339849Y-61937048D01*
X123334978Y-61935323D01*
X123329885Y-61934416D01*
X123329882Y-61934415D01*
X123233707Y-61917284D01*
X123108250Y-61894937D01*
X123021802Y-61893881D01*
X122883141Y-61892186D01*
X122883139Y-61892186D01*
X122877971Y-61892123D01*
X122650325Y-61926958D01*
X122431424Y-61998506D01*
X122413565Y-62007803D01*
X122269509Y-62082794D01*
X122227149Y-62104845D01*
X122042984Y-62243119D01*
X121883877Y-62409616D01*
X121754099Y-62599863D01*
X121751923Y-62604552D01*
X121751919Y-62604558D01*
X121659315Y-62804057D01*
X121657136Y-62808752D01*
X121595592Y-63030673D01*
X121595043Y-63035810D01*
X121572220Y-63249365D01*
X121571119Y-63259665D01*
X121571416Y-63264817D01*
X121571416Y-63264821D01*
X121578746Y-63391944D01*
X121584376Y-63489580D01*
X121585513Y-63494626D01*
X121585514Y-63494632D01*
X121607226Y-63590975D01*
X121635006Y-63714242D01*
X121636948Y-63719024D01*
X121636949Y-63719028D01*
X121697864Y-63869042D01*
X121721649Y-63927618D01*
X121841979Y-64123978D01*
X121992763Y-64298048D01*
X122169953Y-64445154D01*
X122227383Y-64478713D01*
X122280070Y-64509501D01*
X122328794Y-64561140D01*
X122342500Y-64618289D01*
X122342500Y-65493233D01*
X122341973Y-65504416D01*
X122340298Y-65511909D01*
X122340547Y-65519835D01*
X122340547Y-65519836D01*
X122342438Y-65579986D01*
X122342500Y-65583945D01*
X122342500Y-65611856D01*
X122342997Y-65615790D01*
X122342997Y-65615791D01*
X122343005Y-65615856D01*
X122343938Y-65627693D01*
X122345327Y-65671889D01*
X122350978Y-65691339D01*
X122354987Y-65710700D01*
X122357526Y-65730797D01*
X122360445Y-65738168D01*
X122360445Y-65738170D01*
X122373804Y-65771912D01*
X122377649Y-65783142D01*
X122386962Y-65815199D01*
X122389982Y-65825593D01*
X122394015Y-65832412D01*
X122394017Y-65832417D01*
X122400293Y-65843028D01*
X122408988Y-65860776D01*
X122416448Y-65879617D01*
X122421110Y-65886033D01*
X122421110Y-65886034D01*
X122442436Y-65915387D01*
X122448952Y-65925307D01*
X122471458Y-65963362D01*
X122485779Y-65977683D01*
X122498619Y-65992716D01*
X122510528Y-66009107D01*
X122516634Y-66014158D01*
X122544605Y-66037298D01*
X122553384Y-66045288D01*
X126719348Y-70211253D01*
X126726888Y-70219539D01*
X126731000Y-70226018D01*
X126736777Y-70231443D01*
X126780651Y-70272643D01*
X126783493Y-70275398D01*
X126803230Y-70295135D01*
X126806427Y-70297615D01*
X126815447Y-70305318D01*
X126847679Y-70335586D01*
X126854625Y-70339405D01*
X126854628Y-70339407D01*
X126865434Y-70345348D01*
X126881953Y-70356199D01*
X126897959Y-70368614D01*
X126905228Y-70371759D01*
X126905232Y-70371762D01*
X126938537Y-70386174D01*
X126949187Y-70391391D01*
X126987940Y-70412695D01*
X126995615Y-70414666D01*
X126995616Y-70414666D01*
X127007562Y-70417733D01*
X127026267Y-70424137D01*
X127044855Y-70432181D01*
X127052678Y-70433420D01*
X127052688Y-70433423D01*
X127088524Y-70439099D01*
X127100144Y-70441505D01*
X127130775Y-70449369D01*
X127142970Y-70452500D01*
X127163224Y-70452500D01*
X127182934Y-70454051D01*
X127202943Y-70457220D01*
X127210835Y-70456474D01*
X127246961Y-70453059D01*
X127258819Y-70452500D01*
X133839606Y-70452500D01*
X133907727Y-70472502D01*
X133954220Y-70526158D01*
X133964324Y-70596432D01*
X133934830Y-70661012D01*
X133928701Y-70667595D01*
X129287995Y-75308300D01*
X129225683Y-75342326D01*
X129154868Y-75337261D01*
X129098032Y-75294714D01*
X129073221Y-75228194D01*
X129073379Y-75208225D01*
X129075019Y-75189478D01*
X129075019Y-75189475D01*
X129075498Y-75184000D01*
X129055543Y-74955913D01*
X129054119Y-74950598D01*
X128997707Y-74740067D01*
X128997706Y-74740065D01*
X128996284Y-74734757D01*
X128987147Y-74715163D01*
X128901849Y-74532238D01*
X128901846Y-74532233D01*
X128899523Y-74527251D01*
X128768198Y-74339700D01*
X128606300Y-74177802D01*
X128601792Y-74174645D01*
X128601789Y-74174643D01*
X128485586Y-74093277D01*
X128418749Y-74046477D01*
X128413767Y-74044154D01*
X128413762Y-74044151D01*
X128216225Y-73952039D01*
X128216224Y-73952039D01*
X128211243Y-73949716D01*
X128205935Y-73948294D01*
X128205933Y-73948293D01*
X127995402Y-73891881D01*
X127995400Y-73891881D01*
X127990087Y-73890457D01*
X127762000Y-73870502D01*
X127533913Y-73890457D01*
X127528600Y-73891881D01*
X127528598Y-73891881D01*
X127318067Y-73948293D01*
X127318065Y-73948294D01*
X127312757Y-73949716D01*
X127307776Y-73952039D01*
X127307775Y-73952039D01*
X127110238Y-74044151D01*
X127110233Y-74044154D01*
X127105251Y-74046477D01*
X127038414Y-74093277D01*
X126922211Y-74174643D01*
X126922208Y-74174645D01*
X126917700Y-74177802D01*
X126755802Y-74339700D01*
X126624477Y-74527251D01*
X126622154Y-74532233D01*
X126622151Y-74532238D01*
X126536853Y-74715163D01*
X126527716Y-74734757D01*
X126526294Y-74740065D01*
X126526293Y-74740067D01*
X126469881Y-74950598D01*
X126468457Y-74955913D01*
X126448502Y-75184000D01*
X126468457Y-75412087D01*
X126469881Y-75417400D01*
X126469881Y-75417402D01*
X126507025Y-75556022D01*
X126527716Y-75633243D01*
X126530039Y-75638224D01*
X126530039Y-75638225D01*
X126622151Y-75835762D01*
X126622154Y-75835767D01*
X126624477Y-75840749D01*
X126697902Y-75945611D01*
X126742810Y-76009745D01*
X126755802Y-76028300D01*
X126917700Y-76190198D01*
X126922208Y-76193355D01*
X126922211Y-76193357D01*
X126977663Y-76232185D01*
X127105251Y-76321523D01*
X127110233Y-76323846D01*
X127110238Y-76323849D01*
X127306765Y-76415490D01*
X127312757Y-76418284D01*
X127318065Y-76419706D01*
X127318067Y-76419707D01*
X127528598Y-76476119D01*
X127528600Y-76476119D01*
X127533913Y-76477543D01*
X127762000Y-76497498D01*
X127767475Y-76497019D01*
X127767478Y-76497019D01*
X127786225Y-76495379D01*
X127855829Y-76509369D01*
X127906821Y-76558769D01*
X127923011Y-76627895D01*
X127899258Y-76694800D01*
X127886300Y-76709995D01*
X127547900Y-77048395D01*
X127485588Y-77082421D01*
X127458805Y-77085300D01*
X127402913Y-77085300D01*
X127396461Y-77086672D01*
X127396456Y-77086672D01*
X127309512Y-77105153D01*
X127216112Y-77125006D01*
X127210082Y-77127691D01*
X127210081Y-77127691D01*
X127047678Y-77199997D01*
X127047676Y-77199998D01*
X127041648Y-77202682D01*
X126887147Y-77314934D01*
X126882726Y-77319844D01*
X126882725Y-77319845D01*
X126776433Y-77437895D01*
X126759360Y-77456856D01*
X126663873Y-77622244D01*
X126604858Y-77803872D01*
X126604168Y-77810433D01*
X126604168Y-77810435D01*
X126590132Y-77943978D01*
X126584896Y-77993800D01*
X126585586Y-78000365D01*
X126597729Y-78115895D01*
X126604858Y-78183728D01*
X126663873Y-78365356D01*
X126667176Y-78371078D01*
X126667177Y-78371079D01*
X126678024Y-78389866D01*
X126759360Y-78530744D01*
X126763778Y-78535651D01*
X126763779Y-78535652D01*
X126850083Y-78631502D01*
X126887147Y-78672666D01*
X126951391Y-78719342D01*
X127008548Y-78760869D01*
X127041648Y-78784918D01*
X127047676Y-78787602D01*
X127047678Y-78787603D01*
X127062583Y-78794239D01*
X127216112Y-78862594D01*
X127309512Y-78882447D01*
X127396456Y-78900928D01*
X127396461Y-78900928D01*
X127402913Y-78902300D01*
X127593887Y-78902300D01*
X127600339Y-78900928D01*
X127600344Y-78900928D01*
X127687288Y-78882447D01*
X127780688Y-78862594D01*
X127934217Y-78794239D01*
X127949122Y-78787603D01*
X127949124Y-78787602D01*
X127955152Y-78784918D01*
X127988253Y-78760869D01*
X128045409Y-78719342D01*
X128109653Y-78672666D01*
X128146717Y-78631502D01*
X128233021Y-78535652D01*
X128233022Y-78535651D01*
X128237440Y-78530744D01*
X128318776Y-78389866D01*
X128329623Y-78371079D01*
X128329624Y-78371078D01*
X128332927Y-78365356D01*
X128391942Y-78183728D01*
X128409307Y-78018506D01*
X128436320Y-77952850D01*
X128445522Y-77942582D01*
X134925900Y-71462205D01*
X134988212Y-71428179D01*
X135014995Y-71425300D01*
X135542306Y-71425300D01*
X135610427Y-71445302D01*
X135656920Y-71498958D01*
X135667024Y-71569232D01*
X135637530Y-71633812D01*
X135631401Y-71640395D01*
X126662200Y-80609595D01*
X126599888Y-80643621D01*
X126573105Y-80646500D01*
X124219394Y-80646500D01*
X124151273Y-80626498D01*
X124116181Y-80592771D01*
X124009357Y-80440211D01*
X124009355Y-80440208D01*
X124006198Y-80435700D01*
X123844300Y-80273802D01*
X123839789Y-80270643D01*
X123835576Y-80267108D01*
X123836388Y-80266140D01*
X123795910Y-80215506D01*
X123788596Y-80144887D01*
X123820624Y-80081524D01*
X123881823Y-80045536D01*
X123898901Y-80042480D01*
X123902352Y-80042105D01*
X123917604Y-80038479D01*
X124038054Y-79993324D01*
X124053649Y-79984786D01*
X124155724Y-79908285D01*
X124168285Y-79895724D01*
X124244786Y-79793649D01*
X124253324Y-79778054D01*
X124298478Y-79657606D01*
X124302105Y-79642351D01*
X124307631Y-79591486D01*
X124308000Y-79584672D01*
X124308000Y-79012115D01*
X124303525Y-78996876D01*
X124302135Y-78995671D01*
X124294452Y-78994000D01*
X121710116Y-78994000D01*
X121694877Y-78998475D01*
X121693672Y-78999865D01*
X121692001Y-79007548D01*
X121692001Y-79584669D01*
X121692371Y-79591490D01*
X121697895Y-79642352D01*
X121701521Y-79657604D01*
X121746676Y-79778054D01*
X121755214Y-79793649D01*
X121831715Y-79895724D01*
X121844276Y-79908285D01*
X121946351Y-79984786D01*
X121961946Y-79993324D01*
X122082394Y-80038478D01*
X122097643Y-80042104D01*
X122101096Y-80042479D01*
X122103606Y-80043522D01*
X122105331Y-80043932D01*
X122105265Y-80044211D01*
X122166659Y-80069719D01*
X122207088Y-80128080D01*
X122209546Y-80199034D01*
X122173253Y-80260054D01*
X122161760Y-80269344D01*
X122160214Y-80270641D01*
X122155700Y-80273802D01*
X121993802Y-80435700D01*
X121990645Y-80440208D01*
X121990643Y-80440211D01*
X121951434Y-80496207D01*
X121862477Y-80623251D01*
X121860154Y-80628233D01*
X121860151Y-80628238D01*
X121768049Y-80825754D01*
X121765716Y-80830757D01*
X121764294Y-80836065D01*
X121764293Y-80836067D01*
X121708373Y-81044762D01*
X121706457Y-81051913D01*
X121686502Y-81280000D01*
X121706457Y-81508087D01*
X121707881Y-81513400D01*
X121707881Y-81513402D01*
X121714392Y-81537699D01*
X121765716Y-81729243D01*
X121768039Y-81734224D01*
X121768039Y-81734225D01*
X121860151Y-81931762D01*
X121860154Y-81931767D01*
X121862477Y-81936749D01*
X121897774Y-81987158D01*
X121982291Y-82107860D01*
X121993802Y-82124300D01*
X122155700Y-82286198D01*
X122160208Y-82289355D01*
X122160211Y-82289357D01*
X122200251Y-82317393D01*
X122343251Y-82417523D01*
X122348233Y-82419846D01*
X122348238Y-82419849D01*
X122382457Y-82435805D01*
X122435742Y-82482722D01*
X122455203Y-82550999D01*
X122434661Y-82618959D01*
X122382457Y-82664195D01*
X122348238Y-82680151D01*
X122348233Y-82680154D01*
X122343251Y-82682477D01*
X122238389Y-82755902D01*
X122160211Y-82810643D01*
X122160208Y-82810645D01*
X122155700Y-82813802D01*
X121993802Y-82975700D01*
X121990645Y-82980208D01*
X121990643Y-82980211D01*
X121974489Y-83003282D01*
X121862477Y-83163251D01*
X121860154Y-83168233D01*
X121860151Y-83168238D01*
X121790017Y-83318643D01*
X121765716Y-83370757D01*
X121764294Y-83376065D01*
X121764293Y-83376067D01*
X121717861Y-83549353D01*
X121706457Y-83591913D01*
X121686502Y-83820000D01*
X121706457Y-84048087D01*
X121707880Y-84053399D01*
X121707881Y-84053402D01*
X121763218Y-84259919D01*
X121765716Y-84269243D01*
X121768039Y-84274224D01*
X121768039Y-84274225D01*
X121860151Y-84471762D01*
X121860154Y-84471767D01*
X121862477Y-84476749D01*
X121902896Y-84534473D01*
X121946212Y-84596334D01*
X121993802Y-84664300D01*
X122155700Y-84826198D01*
X122160208Y-84829355D01*
X122160211Y-84829357D01*
X122223907Y-84873957D01*
X122343251Y-84957523D01*
X122348233Y-84959846D01*
X122348238Y-84959849D01*
X122382457Y-84975805D01*
X122435742Y-85022722D01*
X122455203Y-85090999D01*
X122434661Y-85158959D01*
X122382457Y-85204195D01*
X122348238Y-85220151D01*
X122348233Y-85220154D01*
X122343251Y-85222477D01*
X122246389Y-85290301D01*
X122160211Y-85350643D01*
X122160208Y-85350645D01*
X122155700Y-85353802D01*
X121993802Y-85515700D01*
X121990645Y-85520208D01*
X121990643Y-85520211D01*
X121949505Y-85578962D01*
X121862477Y-85703251D01*
X121860154Y-85708233D01*
X121860151Y-85708238D01*
X121792207Y-85853946D01*
X121765716Y-85910757D01*
X121764294Y-85916065D01*
X121764293Y-85916067D01*
X121752077Y-85961659D01*
X121706457Y-86131913D01*
X121686502Y-86360000D01*
X121706457Y-86588087D01*
X121765716Y-86809243D01*
X121768039Y-86814224D01*
X121768039Y-86814225D01*
X121860151Y-87011762D01*
X121860154Y-87011767D01*
X121862477Y-87016749D01*
X121993802Y-87204300D01*
X122155700Y-87366198D01*
X122160208Y-87369355D01*
X122160211Y-87369357D01*
X122238389Y-87424098D01*
X122343251Y-87497523D01*
X122348233Y-87499846D01*
X122348238Y-87499849D01*
X122382457Y-87515805D01*
X122435742Y-87562722D01*
X122455203Y-87630999D01*
X122434661Y-87698959D01*
X122382457Y-87744195D01*
X122348238Y-87760151D01*
X122348233Y-87760154D01*
X122343251Y-87762477D01*
X122238389Y-87835902D01*
X122160211Y-87890643D01*
X122160208Y-87890645D01*
X122155700Y-87893802D01*
X121993802Y-88055700D01*
X121990645Y-88060208D01*
X121990643Y-88060211D01*
X121939128Y-88133782D01*
X121862477Y-88243251D01*
X121860154Y-88248233D01*
X121860151Y-88248238D01*
X121790017Y-88398643D01*
X121765716Y-88450757D01*
X121764294Y-88456065D01*
X121764293Y-88456067D01*
X121735711Y-88562735D01*
X121706457Y-88671913D01*
X121686502Y-88900000D01*
X121706457Y-89128087D01*
X121707881Y-89133400D01*
X121707881Y-89133402D01*
X121754803Y-89308514D01*
X121765716Y-89349243D01*
X121768039Y-89354224D01*
X121768039Y-89354225D01*
X121860151Y-89551762D01*
X121860154Y-89551767D01*
X121862477Y-89556749D01*
X121908477Y-89622444D01*
X121985360Y-89732243D01*
X121993802Y-89744300D01*
X122003753Y-89754251D01*
X122037779Y-89816563D01*
X122032714Y-89887378D01*
X122003753Y-89932441D01*
X121439142Y-90497052D01*
X121430862Y-90504587D01*
X121424382Y-90508700D01*
X121377757Y-90558351D01*
X121375002Y-90561193D01*
X121355265Y-90580930D01*
X121352785Y-90584127D01*
X121345082Y-90593147D01*
X121314814Y-90625379D01*
X121310995Y-90632325D01*
X121310993Y-90632328D01*
X121305052Y-90643134D01*
X121294201Y-90659653D01*
X121281786Y-90675659D01*
X121278641Y-90682928D01*
X121278638Y-90682932D01*
X121264226Y-90716237D01*
X121259009Y-90726887D01*
X121237705Y-90765640D01*
X121235734Y-90773315D01*
X121235734Y-90773316D01*
X121232667Y-90785262D01*
X121226263Y-90803966D01*
X121222890Y-90811762D01*
X121218219Y-90822555D01*
X121216980Y-90830378D01*
X121216977Y-90830388D01*
X121211301Y-90866224D01*
X121208895Y-90877844D01*
X121197900Y-90920670D01*
X121197900Y-90940924D01*
X121196349Y-90960634D01*
X121193180Y-90980643D01*
X121193926Y-90988535D01*
X121197341Y-91024661D01*
X121197900Y-91036519D01*
X121197900Y-91887433D01*
X121197373Y-91898616D01*
X121195698Y-91906109D01*
X121195947Y-91914035D01*
X121195947Y-91914036D01*
X121197838Y-91974186D01*
X121197900Y-91978145D01*
X121197900Y-92006056D01*
X121198397Y-92009990D01*
X121198397Y-92009991D01*
X121198405Y-92010056D01*
X121199338Y-92021893D01*
X121199467Y-92026018D01*
X121200417Y-92056213D01*
X121200727Y-92066089D01*
X121206378Y-92085539D01*
X121210387Y-92104900D01*
X121211083Y-92110405D01*
X121212926Y-92124997D01*
X121215845Y-92132368D01*
X121215845Y-92132370D01*
X121229204Y-92166112D01*
X121233049Y-92177342D01*
X121245382Y-92219793D01*
X121249415Y-92226612D01*
X121249417Y-92226617D01*
X121255693Y-92237228D01*
X121264388Y-92254976D01*
X121271848Y-92273817D01*
X121276510Y-92280233D01*
X121276510Y-92280234D01*
X121297836Y-92309587D01*
X121304352Y-92319507D01*
X121326858Y-92357562D01*
X121341179Y-92371883D01*
X121354019Y-92386916D01*
X121365928Y-92403307D01*
X121372033Y-92408358D01*
X121372038Y-92408363D01*
X121399998Y-92431494D01*
X121408776Y-92439481D01*
X121723339Y-92754043D01*
X121964835Y-92995539D01*
X121998860Y-93057852D01*
X121993796Y-93128667D01*
X121978953Y-93156906D01*
X121865634Y-93318742D01*
X121865633Y-93318744D01*
X121862477Y-93323251D01*
X121860154Y-93328233D01*
X121860151Y-93328238D01*
X121771909Y-93517475D01*
X121765716Y-93530757D01*
X121764294Y-93536065D01*
X121764293Y-93536067D01*
X121711900Y-93731598D01*
X121706457Y-93751913D01*
X121686502Y-93980000D01*
X121706457Y-94208087D01*
X121707881Y-94213400D01*
X121707881Y-94213402D01*
X121763032Y-94419225D01*
X121765716Y-94429243D01*
X121768039Y-94434224D01*
X121768039Y-94434225D01*
X121860151Y-94631762D01*
X121860154Y-94631767D01*
X121862477Y-94636749D01*
X121914013Y-94710350D01*
X121986028Y-94813197D01*
X121993802Y-94824300D01*
X122155700Y-94986198D01*
X122160208Y-94989355D01*
X122160211Y-94989357D01*
X122202390Y-95018891D01*
X122343251Y-95117523D01*
X122348233Y-95119846D01*
X122348238Y-95119849D01*
X122382457Y-95135805D01*
X122435742Y-95182722D01*
X122455203Y-95250999D01*
X122434661Y-95318959D01*
X122382457Y-95364195D01*
X122348238Y-95380151D01*
X122348233Y-95380154D01*
X122343251Y-95382477D01*
X122283278Y-95424471D01*
X122160211Y-95510643D01*
X122160208Y-95510645D01*
X122155700Y-95513802D01*
X121993802Y-95675700D01*
X121862477Y-95863251D01*
X121860154Y-95868233D01*
X121860151Y-95868238D01*
X121770234Y-96061067D01*
X121765716Y-96070757D01*
X121764294Y-96076065D01*
X121764293Y-96076067D01*
X121762067Y-96084375D01*
X121706457Y-96291913D01*
X121686502Y-96520000D01*
X121706457Y-96748087D01*
X121707881Y-96753400D01*
X121707881Y-96753402D01*
X121763032Y-96959225D01*
X121765716Y-96969243D01*
X121768039Y-96974224D01*
X121768039Y-96974225D01*
X121860151Y-97171762D01*
X121860154Y-97171767D01*
X121862477Y-97176749D01*
X121926368Y-97267995D01*
X121986028Y-97353197D01*
X121993802Y-97364300D01*
X122155700Y-97526198D01*
X122160208Y-97529355D01*
X122160211Y-97529357D01*
X122333287Y-97650546D01*
X122377615Y-97706003D01*
X122384785Y-97777362D01*
X122382196Y-97790938D01*
X122380471Y-97798658D01*
X122366500Y-97853070D01*
X122366500Y-97856873D01*
X122338848Y-97920269D01*
X122314498Y-97942610D01*
X122160211Y-98050643D01*
X122160208Y-98050645D01*
X122155700Y-98053802D01*
X121993802Y-98215700D01*
X121862477Y-98403251D01*
X121860154Y-98408233D01*
X121860151Y-98408238D01*
X121770259Y-98601014D01*
X121765716Y-98610757D01*
X121764294Y-98616065D01*
X121764293Y-98616067D01*
X121731062Y-98740087D01*
X121706457Y-98831913D01*
X121686502Y-99060000D01*
X121706457Y-99288087D01*
X121707881Y-99293400D01*
X121707881Y-99293402D01*
X121763032Y-99499225D01*
X121765716Y-99509243D01*
X121768039Y-99514224D01*
X121768039Y-99514225D01*
X121860151Y-99711762D01*
X121860154Y-99711767D01*
X121862477Y-99716749D01*
X121894745Y-99762832D01*
X121986028Y-99893197D01*
X121993802Y-99904300D01*
X122155700Y-100066198D01*
X122160208Y-100069355D01*
X122160211Y-100069357D01*
X122333287Y-100190546D01*
X122377615Y-100246003D01*
X122384785Y-100317362D01*
X122382196Y-100330938D01*
X122380471Y-100338658D01*
X122366500Y-100393070D01*
X122366500Y-100396873D01*
X122338848Y-100460269D01*
X122314498Y-100482610D01*
X122160211Y-100590643D01*
X122160208Y-100590645D01*
X122155700Y-100593802D01*
X121993802Y-100755700D01*
X121862477Y-100943251D01*
X121860154Y-100948233D01*
X121860151Y-100948238D01*
X121770234Y-101141067D01*
X121765716Y-101150757D01*
X121706457Y-101371913D01*
X121686502Y-101600000D01*
X121706457Y-101828087D01*
X121707881Y-101833400D01*
X121707881Y-101833402D01*
X121763032Y-102039225D01*
X121765716Y-102049243D01*
X121768039Y-102054224D01*
X121768039Y-102054225D01*
X121860151Y-102251762D01*
X121860154Y-102251767D01*
X121862477Y-102256749D01*
X121865634Y-102261257D01*
X121986028Y-102433197D01*
X121993802Y-102444300D01*
X122155700Y-102606198D01*
X122160208Y-102609355D01*
X122160211Y-102609357D01*
X122207107Y-102642194D01*
X122343251Y-102737523D01*
X122348233Y-102739846D01*
X122348238Y-102739849D01*
X122382457Y-102755805D01*
X122435742Y-102802722D01*
X122455203Y-102870999D01*
X122434661Y-102938959D01*
X122382457Y-102984195D01*
X122348238Y-103000151D01*
X122348233Y-103000154D01*
X122343251Y-103002477D01*
X122266837Y-103055983D01*
X122160211Y-103130643D01*
X122160208Y-103130645D01*
X122155700Y-103133802D01*
X121993802Y-103295700D01*
X121990645Y-103300208D01*
X121990643Y-103300211D01*
X121951581Y-103355997D01*
X121862477Y-103483251D01*
X121860154Y-103488233D01*
X121860151Y-103488238D01*
X121770234Y-103681067D01*
X121765716Y-103690757D01*
X121764294Y-103696065D01*
X121764293Y-103696067D01*
X121727416Y-103833694D01*
X121706457Y-103911913D01*
X121686502Y-104140000D01*
X121706457Y-104368087D01*
X121707880Y-104373399D01*
X121707881Y-104373402D01*
X121763032Y-104579225D01*
X121765716Y-104589243D01*
X121768039Y-104594224D01*
X121768039Y-104594225D01*
X121860151Y-104791762D01*
X121860154Y-104791767D01*
X121862477Y-104796749D01*
X121916692Y-104874176D01*
X121984461Y-104970959D01*
X121993802Y-104984300D01*
X122155700Y-105146198D01*
X122160208Y-105149355D01*
X122160211Y-105149357D01*
X122220115Y-105191302D01*
X122343251Y-105277523D01*
X122348233Y-105279846D01*
X122348238Y-105279849D01*
X122382457Y-105295805D01*
X122435742Y-105342722D01*
X122455203Y-105410999D01*
X122434661Y-105478959D01*
X122382457Y-105524195D01*
X122348238Y-105540151D01*
X122348233Y-105540154D01*
X122343251Y-105542477D01*
X122294283Y-105576765D01*
X122160211Y-105670643D01*
X122160208Y-105670645D01*
X122155700Y-105673802D01*
X121993802Y-105835700D01*
X121990645Y-105840208D01*
X121990643Y-105840211D01*
X121956678Y-105888718D01*
X121862477Y-106023251D01*
X121860154Y-106028233D01*
X121860151Y-106028238D01*
X121804759Y-106147028D01*
X121765716Y-106230757D01*
X121764294Y-106236065D01*
X121764293Y-106236067D01*
X121707881Y-106446598D01*
X121706457Y-106451913D01*
X121686502Y-106680000D01*
X121706457Y-106908087D01*
X121707881Y-106913400D01*
X121707881Y-106913402D01*
X121754881Y-107088805D01*
X121765716Y-107129243D01*
X121768039Y-107134224D01*
X121768039Y-107134225D01*
X121860151Y-107331762D01*
X121860154Y-107331767D01*
X121862477Y-107336749D01*
X121898033Y-107387528D01*
X121984461Y-107510959D01*
X121993802Y-107524300D01*
X122155700Y-107686198D01*
X122160208Y-107689355D01*
X122160211Y-107689357D01*
X122217133Y-107729214D01*
X122343251Y-107817523D01*
X122348233Y-107819846D01*
X122348238Y-107819849D01*
X122382457Y-107835805D01*
X122435742Y-107882722D01*
X122455203Y-107950999D01*
X122434661Y-108018959D01*
X122382457Y-108064195D01*
X122348238Y-108080151D01*
X122348233Y-108080154D01*
X122343251Y-108082477D01*
X122267694Y-108135383D01*
X122160211Y-108210643D01*
X122160208Y-108210645D01*
X122155700Y-108213802D01*
X121993802Y-108375700D01*
X121862477Y-108563251D01*
X121860154Y-108568233D01*
X121860151Y-108568238D01*
X121770475Y-108760551D01*
X121765716Y-108770757D01*
X121764294Y-108776065D01*
X121764293Y-108776067D01*
X121759875Y-108792554D01*
X121706457Y-108991913D01*
X121686502Y-109220000D01*
X121706457Y-109448087D01*
X121707881Y-109453400D01*
X121707881Y-109453402D01*
X121763032Y-109659225D01*
X121765716Y-109669243D01*
X121768039Y-109674224D01*
X121768039Y-109674225D01*
X121860151Y-109871762D01*
X121860154Y-109871767D01*
X121862477Y-109876749D01*
X121889066Y-109914722D01*
X121986028Y-110053197D01*
X121993802Y-110064300D01*
X122155700Y-110226198D01*
X122160208Y-110229355D01*
X122160211Y-110229357D01*
X122333287Y-110350546D01*
X122377615Y-110406003D01*
X122384785Y-110477362D01*
X122382196Y-110490938D01*
X122380471Y-110498658D01*
X122366500Y-110553070D01*
X122366500Y-110556873D01*
X122338848Y-110620269D01*
X122314498Y-110642610D01*
X122160211Y-110750643D01*
X122160208Y-110750645D01*
X122155700Y-110753802D01*
X121993802Y-110915700D01*
X121990645Y-110920208D01*
X121990643Y-110920211D01*
X121935902Y-110998389D01*
X121862477Y-111103251D01*
X121860154Y-111108233D01*
X121860151Y-111108238D01*
X121770812Y-111299828D01*
X121765716Y-111310757D01*
X121764294Y-111316065D01*
X121764293Y-111316067D01*
X121710476Y-111516913D01*
X121706457Y-111531913D01*
X121686502Y-111760000D01*
X121706457Y-111988087D01*
X121707881Y-111993400D01*
X121707881Y-111993402D01*
X121763032Y-112199225D01*
X121765716Y-112209243D01*
X121768039Y-112214224D01*
X121768039Y-112214225D01*
X121860151Y-112411762D01*
X121860154Y-112411767D01*
X121862477Y-112416749D01*
X121887889Y-112453041D01*
X121986028Y-112593197D01*
X121993802Y-112604300D01*
X122155700Y-112766198D01*
X122160208Y-112769355D01*
X122160211Y-112769357D01*
X122252661Y-112834091D01*
X122332699Y-112890134D01*
X122333287Y-112890546D01*
X122377615Y-112946003D01*
X122384785Y-113017362D01*
X122382196Y-113030938D01*
X122380471Y-113038658D01*
X122366500Y-113093070D01*
X122366500Y-113096873D01*
X122338848Y-113160269D01*
X122314498Y-113182610D01*
X122160211Y-113290643D01*
X122160208Y-113290645D01*
X122155700Y-113293802D01*
X121993802Y-113455700D01*
X121990645Y-113460208D01*
X121990643Y-113460211D01*
X121948233Y-113520779D01*
X121862477Y-113643251D01*
X121860154Y-113648233D01*
X121860151Y-113648238D01*
X121772405Y-113836413D01*
X121765716Y-113850757D01*
X121764294Y-113856065D01*
X121764293Y-113856067D01*
X121721812Y-114014607D01*
X121706457Y-114071913D01*
X121686502Y-114300000D01*
X121706457Y-114528087D01*
X121707881Y-114533400D01*
X121707881Y-114533402D01*
X121764147Y-114743386D01*
X121765716Y-114749243D01*
X121768039Y-114754224D01*
X121768039Y-114754225D01*
X121860151Y-114951762D01*
X121860154Y-114951767D01*
X121862477Y-114956749D01*
X121922883Y-115043017D01*
X121986028Y-115133197D01*
X121993802Y-115144300D01*
X122155700Y-115306198D01*
X122160208Y-115309355D01*
X122160211Y-115309357D01*
X122333287Y-115430546D01*
X122377615Y-115486003D01*
X122384785Y-115557362D01*
X122382202Y-115570909D01*
X122382196Y-115570938D01*
X122380471Y-115578658D01*
X122366500Y-115633070D01*
X122366500Y-115636873D01*
X122338848Y-115700269D01*
X122314498Y-115722610D01*
X122160211Y-115830643D01*
X122160208Y-115830645D01*
X122155700Y-115833802D01*
X121993802Y-115995700D01*
X121990645Y-116000208D01*
X121990643Y-116000211D01*
X121935902Y-116078389D01*
X121862477Y-116183251D01*
X121860154Y-116188233D01*
X121860151Y-116188238D01*
X121771243Y-116378904D01*
X121765716Y-116390757D01*
X121764294Y-116396065D01*
X121764293Y-116396067D01*
X121721812Y-116554607D01*
X121706457Y-116611913D01*
X121686502Y-116840000D01*
X121706457Y-117068087D01*
X121707881Y-117073400D01*
X121707881Y-117073402D01*
X121750209Y-117231369D01*
X121765716Y-117289243D01*
X121768039Y-117294224D01*
X121768039Y-117294225D01*
X121860151Y-117491762D01*
X121860154Y-117491767D01*
X121862477Y-117496749D01*
X121993802Y-117684300D01*
X122155700Y-117846198D01*
X122160208Y-117849355D01*
X122160211Y-117849357D01*
X122197647Y-117875570D01*
X122343251Y-117977523D01*
X122348233Y-117979846D01*
X122348238Y-117979849D01*
X122382457Y-117995805D01*
X122435742Y-118042722D01*
X122455203Y-118110999D01*
X122434661Y-118178959D01*
X122382457Y-118224195D01*
X122348238Y-118240151D01*
X122348233Y-118240154D01*
X122343251Y-118242477D01*
X122274096Y-118290900D01*
X122160211Y-118370643D01*
X122160208Y-118370645D01*
X122155700Y-118373802D01*
X121993802Y-118535700D01*
X121990645Y-118540208D01*
X121990643Y-118540211D01*
X121968355Y-118572042D01*
X121862477Y-118723251D01*
X121860154Y-118728233D01*
X121860151Y-118728238D01*
X121770234Y-118921067D01*
X121765716Y-118930757D01*
X121764294Y-118936065D01*
X121764293Y-118936067D01*
X121715760Y-119117195D01*
X121706457Y-119151913D01*
X121686502Y-119380000D01*
X121706457Y-119608087D01*
X121707881Y-119613400D01*
X121707881Y-119613402D01*
X121763032Y-119819225D01*
X121765716Y-119829243D01*
X121768039Y-119834224D01*
X121768039Y-119834225D01*
X121860151Y-120031762D01*
X121860154Y-120031767D01*
X121862477Y-120036749D01*
X121865634Y-120041257D01*
X121986028Y-120213197D01*
X121993802Y-120224300D01*
X122005203Y-120235701D01*
X122039229Y-120298013D01*
X122034164Y-120368828D01*
X122005203Y-120413891D01*
X121439642Y-120979452D01*
X121431362Y-120986987D01*
X121424882Y-120991100D01*
X121378793Y-121040180D01*
X121378257Y-121040751D01*
X121375502Y-121043593D01*
X121355765Y-121063330D01*
X121353285Y-121066527D01*
X121345582Y-121075547D01*
X121315314Y-121107779D01*
X121311495Y-121114725D01*
X121311493Y-121114728D01*
X121305552Y-121125534D01*
X121294701Y-121142053D01*
X121282286Y-121158059D01*
X121279141Y-121165328D01*
X121279138Y-121165332D01*
X121264726Y-121198637D01*
X121259509Y-121209287D01*
X121238205Y-121248040D01*
X121236234Y-121255715D01*
X121236234Y-121255716D01*
X121233167Y-121267662D01*
X121226763Y-121286366D01*
X121218719Y-121304955D01*
X121217480Y-121312778D01*
X121217477Y-121312788D01*
X121211801Y-121348624D01*
X121209395Y-121360244D01*
X121202043Y-121388879D01*
X121198400Y-121403070D01*
X121198400Y-121423324D01*
X121196849Y-121443034D01*
X121193680Y-121463043D01*
X121194426Y-121470935D01*
X121197841Y-121507061D01*
X121198400Y-121518919D01*
X121198400Y-127346833D01*
X121197873Y-127358016D01*
X121196198Y-127365509D01*
X121196447Y-127373435D01*
X121196447Y-127373436D01*
X121198338Y-127433586D01*
X121198400Y-127437545D01*
X121198400Y-127465456D01*
X121198897Y-127469390D01*
X121198897Y-127469391D01*
X121198905Y-127469456D01*
X121199838Y-127481293D01*
X121201227Y-127525489D01*
X121206878Y-127544939D01*
X121210887Y-127564300D01*
X121213426Y-127584397D01*
X121216345Y-127591768D01*
X121216345Y-127591770D01*
X121229704Y-127625512D01*
X121233549Y-127636742D01*
X121243671Y-127671583D01*
X121245882Y-127679193D01*
X121249915Y-127686012D01*
X121249917Y-127686017D01*
X121256193Y-127696628D01*
X121264888Y-127714376D01*
X121272348Y-127733217D01*
X121277010Y-127739633D01*
X121277010Y-127739634D01*
X121298336Y-127768987D01*
X121304852Y-127778907D01*
X121320517Y-127805394D01*
X121327358Y-127816962D01*
X121341679Y-127831283D01*
X121354519Y-127846316D01*
X121366428Y-127862707D01*
X121372819Y-127867994D01*
X121400505Y-127890898D01*
X121409284Y-127898888D01*
X125582695Y-132072300D01*
X125616721Y-132134612D01*
X125619600Y-132161395D01*
X125619600Y-132462000D01*
X125599598Y-132530121D01*
X125545942Y-132576614D01*
X125493600Y-132588000D01*
X122815617Y-132588000D01*
X122747496Y-132567998D01*
X122709052Y-132529230D01*
X122706266Y-132524814D01*
X122698130Y-132509735D01*
X122695664Y-132504311D01*
X122685892Y-132482818D01*
X122669130Y-132463365D01*
X122658027Y-132448361D01*
X122644324Y-132426642D01*
X122637599Y-132420703D01*
X122637596Y-132420699D01*
X122622162Y-132407068D01*
X122610118Y-132394876D01*
X122596673Y-132379273D01*
X122596670Y-132379271D01*
X122590813Y-132372473D01*
X122582242Y-132366917D01*
X122569265Y-132358506D01*
X122554391Y-132347215D01*
X122541883Y-132336169D01*
X122541882Y-132336168D01*
X122535149Y-132330222D01*
X122508387Y-132317657D01*
X122493409Y-132309337D01*
X122476117Y-132298129D01*
X122476112Y-132298127D01*
X122468585Y-132293248D01*
X122459992Y-132290678D01*
X122459987Y-132290676D01*
X122443980Y-132285889D01*
X122426536Y-132279228D01*
X122411424Y-132272133D01*
X122411422Y-132272132D01*
X122403300Y-132268319D01*
X122394433Y-132266938D01*
X122394432Y-132266938D01*
X122383578Y-132265248D01*
X122374083Y-132263770D01*
X122357368Y-132259987D01*
X122337634Y-132254085D01*
X122337628Y-132254084D01*
X122329034Y-132251514D01*
X122320063Y-132251459D01*
X122320062Y-132251459D01*
X122310003Y-132251398D01*
X122294594Y-132251304D01*
X122293811Y-132251271D01*
X122292714Y-132251100D01*
X122261723Y-132251100D01*
X122260953Y-132251098D01*
X122187315Y-132250648D01*
X122187314Y-132250648D01*
X122183379Y-132250624D01*
X122182035Y-132251008D01*
X122180690Y-132251100D01*
X120887600Y-132251100D01*
X120819479Y-132231098D01*
X120772986Y-132177442D01*
X120761600Y-132125100D01*
X120761600Y-78467885D01*
X121692000Y-78467885D01*
X121696475Y-78483124D01*
X121697865Y-78484329D01*
X121705548Y-78486000D01*
X122727885Y-78486000D01*
X122743124Y-78481525D01*
X122744329Y-78480135D01*
X122746000Y-78472452D01*
X122746000Y-78467885D01*
X123254000Y-78467885D01*
X123258475Y-78483124D01*
X123259865Y-78484329D01*
X123267548Y-78486000D01*
X124289884Y-78486000D01*
X124305123Y-78481525D01*
X124306328Y-78480135D01*
X124307999Y-78472452D01*
X124307999Y-77895331D01*
X124307629Y-77888510D01*
X124302105Y-77837648D01*
X124298479Y-77822396D01*
X124253324Y-77701946D01*
X124244786Y-77686351D01*
X124168285Y-77584276D01*
X124155724Y-77571715D01*
X124053649Y-77495214D01*
X124038054Y-77486676D01*
X123917606Y-77441522D01*
X123902351Y-77437895D01*
X123851486Y-77432369D01*
X123844672Y-77432000D01*
X123272115Y-77432000D01*
X123256876Y-77436475D01*
X123255671Y-77437865D01*
X123254000Y-77445548D01*
X123254000Y-78467885D01*
X122746000Y-78467885D01*
X122746000Y-77450116D01*
X122741525Y-77434877D01*
X122740135Y-77433672D01*
X122732452Y-77432001D01*
X122155331Y-77432001D01*
X122148510Y-77432371D01*
X122097648Y-77437895D01*
X122082396Y-77441521D01*
X121961946Y-77486676D01*
X121946351Y-77495214D01*
X121844276Y-77571715D01*
X121831715Y-77584276D01*
X121755214Y-77686351D01*
X121746676Y-77701946D01*
X121701522Y-77822394D01*
X121697895Y-77837649D01*
X121692369Y-77888514D01*
X121692000Y-77895328D01*
X121692000Y-78467885D01*
X120761600Y-78467885D01*
X120761600Y-76270062D01*
X122040493Y-76270062D01*
X122049789Y-76282077D01*
X122100994Y-76317931D01*
X122110489Y-76323414D01*
X122307947Y-76415490D01*
X122318239Y-76419236D01*
X122528688Y-76475625D01*
X122539481Y-76477528D01*
X122756525Y-76496517D01*
X122767475Y-76496517D01*
X122984519Y-76477528D01*
X122995312Y-76475625D01*
X123205761Y-76419236D01*
X123216053Y-76415490D01*
X123413511Y-76323414D01*
X123423006Y-76317931D01*
X123475048Y-76281491D01*
X123483424Y-76271012D01*
X123476356Y-76257566D01*
X122774812Y-75556022D01*
X122760868Y-75548408D01*
X122759035Y-75548539D01*
X122752420Y-75552790D01*
X122046923Y-76258287D01*
X122040493Y-76270062D01*
X120761600Y-76270062D01*
X120761600Y-75189475D01*
X121449483Y-75189475D01*
X121468472Y-75406519D01*
X121470375Y-75417312D01*
X121526764Y-75627761D01*
X121530510Y-75638053D01*
X121622586Y-75835511D01*
X121628069Y-75845006D01*
X121664509Y-75897048D01*
X121674988Y-75905424D01*
X121688434Y-75898356D01*
X122389978Y-75196812D01*
X122396356Y-75185132D01*
X123126408Y-75185132D01*
X123126539Y-75186965D01*
X123130790Y-75193580D01*
X123836287Y-75899077D01*
X123848062Y-75905507D01*
X123860077Y-75896211D01*
X123895931Y-75845006D01*
X123901414Y-75835511D01*
X123993490Y-75638053D01*
X123997236Y-75627761D01*
X124053625Y-75417312D01*
X124055528Y-75406519D01*
X124074517Y-75189475D01*
X124074517Y-75178525D01*
X124055528Y-74961481D01*
X124053625Y-74950688D01*
X123997236Y-74740239D01*
X123993490Y-74729947D01*
X123901414Y-74532489D01*
X123895931Y-74522994D01*
X123859491Y-74470952D01*
X123849012Y-74462576D01*
X123835566Y-74469644D01*
X123134022Y-75171188D01*
X123126408Y-75185132D01*
X122396356Y-75185132D01*
X122397592Y-75182868D01*
X122397461Y-75181035D01*
X122393210Y-75174420D01*
X121687713Y-74468923D01*
X121675938Y-74462493D01*
X121663923Y-74471789D01*
X121628069Y-74522994D01*
X121622586Y-74532489D01*
X121530510Y-74729947D01*
X121526764Y-74740239D01*
X121470375Y-74950688D01*
X121468472Y-74961481D01*
X121449483Y-75178525D01*
X121449483Y-75189475D01*
X120761600Y-75189475D01*
X120761600Y-74096988D01*
X122040576Y-74096988D01*
X122047644Y-74110434D01*
X122749188Y-74811978D01*
X122763132Y-74819592D01*
X122764965Y-74819461D01*
X122771580Y-74815210D01*
X123477077Y-74109713D01*
X123483507Y-74097938D01*
X123474211Y-74085923D01*
X123423006Y-74050069D01*
X123413511Y-74044586D01*
X123216053Y-73952510D01*
X123205761Y-73948764D01*
X122995312Y-73892375D01*
X122984519Y-73890472D01*
X122767475Y-73871483D01*
X122756525Y-73871483D01*
X122539481Y-73890472D01*
X122528688Y-73892375D01*
X122318239Y-73948764D01*
X122307947Y-73952510D01*
X122110489Y-74044586D01*
X122100994Y-74050069D01*
X122048952Y-74086509D01*
X122040576Y-74096988D01*
X120761600Y-74096988D01*
X120761600Y-52394100D01*
X120781602Y-52325979D01*
X120835258Y-52279486D01*
X120887600Y-52268100D01*
X124287392Y-52268100D01*
X124355513Y-52288102D01*
G37*
%TD.AperFunction*%
%TA.AperFunction,Conductor*%
G36*
X172534356Y-115061714D02*
G01*
X172593536Y-115107498D01*
X172608802Y-115129300D01*
X172770700Y-115291198D01*
X172775208Y-115294355D01*
X172775211Y-115294357D01*
X172803760Y-115314347D01*
X172958251Y-115422523D01*
X172963233Y-115424846D01*
X172963238Y-115424849D01*
X172997457Y-115440805D01*
X173050742Y-115487722D01*
X173070203Y-115555999D01*
X173049661Y-115623959D01*
X172997457Y-115669195D01*
X172963238Y-115685151D01*
X172963233Y-115685154D01*
X172958251Y-115687477D01*
X172853389Y-115760902D01*
X172775211Y-115815643D01*
X172775208Y-115815645D01*
X172770700Y-115818802D01*
X172608802Y-115980700D01*
X172605645Y-115985208D01*
X172605643Y-115985211D01*
X172497007Y-116140359D01*
X172441550Y-116184687D01*
X172403943Y-116192706D01*
X172403964Y-116192837D01*
X172401495Y-116193228D01*
X172397753Y-116194026D01*
X172397337Y-116194039D01*
X172388211Y-116194326D01*
X172380595Y-116196539D01*
X172380593Y-116196539D01*
X172368752Y-116199979D01*
X172349393Y-116203988D01*
X172348083Y-116204154D01*
X172329303Y-116206526D01*
X172321937Y-116209442D01*
X172321931Y-116209444D01*
X172288198Y-116222800D01*
X172276968Y-116226645D01*
X172242117Y-116236770D01*
X172234507Y-116238981D01*
X172227684Y-116243016D01*
X172217066Y-116249295D01*
X172199313Y-116257992D01*
X172191668Y-116261019D01*
X172180483Y-116265448D01*
X172174068Y-116270109D01*
X172144712Y-116291437D01*
X172134795Y-116297951D01*
X172096738Y-116320458D01*
X172082417Y-116334779D01*
X172067384Y-116347619D01*
X172050993Y-116359528D01*
X172029280Y-116385775D01*
X172022802Y-116393605D01*
X172014812Y-116402384D01*
X162883700Y-125533495D01*
X162821388Y-125567521D01*
X162794605Y-125570400D01*
X162225694Y-125570400D01*
X162157573Y-125550398D01*
X162111080Y-125496742D01*
X162100976Y-125426468D01*
X162130470Y-125361888D01*
X162136599Y-125355305D01*
X172401229Y-115090675D01*
X172463541Y-115056649D01*
X172534356Y-115061714D01*
G37*
%TD.AperFunction*%
%TA.AperFunction,Conductor*%
G36*
X148124339Y-100438371D02*
G01*
X148150207Y-100457109D01*
X148170599Y-100476259D01*
X148170603Y-100476262D01*
X148176379Y-100481686D01*
X148183325Y-100485505D01*
X148183328Y-100485507D01*
X148194134Y-100491448D01*
X148210653Y-100502299D01*
X148226659Y-100514714D01*
X148233928Y-100517859D01*
X148233932Y-100517862D01*
X148267237Y-100532274D01*
X148277887Y-100537491D01*
X148316640Y-100558795D01*
X148324315Y-100560766D01*
X148324316Y-100560766D01*
X148336262Y-100563833D01*
X148354967Y-100570237D01*
X148373555Y-100578281D01*
X148381378Y-100579520D01*
X148381388Y-100579523D01*
X148417224Y-100585199D01*
X148428844Y-100587605D01*
X148452982Y-100593802D01*
X148471670Y-100598600D01*
X148491924Y-100598600D01*
X148511634Y-100600151D01*
X148531643Y-100603320D01*
X148539535Y-100602574D01*
X148575661Y-100599159D01*
X148587519Y-100598600D01*
X150759858Y-100598600D01*
X150827979Y-100618602D01*
X150874472Y-100672258D01*
X150884576Y-100742532D01*
X150881565Y-100757211D01*
X150864606Y-100820503D01*
X150864942Y-100834599D01*
X150872884Y-100838000D01*
X152274000Y-100838000D01*
X152342121Y-100858002D01*
X152388614Y-100911658D01*
X152400000Y-100964000D01*
X152400000Y-101220000D01*
X152379998Y-101288121D01*
X152326342Y-101334614D01*
X152274000Y-101346000D01*
X150878033Y-101346000D01*
X150864502Y-101349973D01*
X150863273Y-101358522D01*
X150910764Y-101535761D01*
X150914510Y-101546053D01*
X151006586Y-101743511D01*
X151012069Y-101753007D01*
X151137028Y-101931467D01*
X151144084Y-101939875D01*
X151298125Y-102093916D01*
X151306533Y-102100972D01*
X151484993Y-102225931D01*
X151494489Y-102231414D01*
X151529049Y-102247529D01*
X151582334Y-102294446D01*
X151601795Y-102362723D01*
X151581253Y-102430683D01*
X151529049Y-102475919D01*
X151494238Y-102492151D01*
X151494233Y-102492154D01*
X151489251Y-102494477D01*
X151400465Y-102556646D01*
X151306211Y-102622643D01*
X151306208Y-102622645D01*
X151301700Y-102625802D01*
X151139802Y-102787700D01*
X151136645Y-102792208D01*
X151136643Y-102792211D01*
X151097355Y-102848320D01*
X151008477Y-102975251D01*
X151006154Y-102980233D01*
X151006151Y-102980238D01*
X150919284Y-103166528D01*
X150911716Y-103182757D01*
X150910294Y-103188064D01*
X150885328Y-103281238D01*
X150848376Y-103341860D01*
X150784515Y-103372882D01*
X150714021Y-103364453D01*
X150674526Y-103337721D01*
X147974859Y-100638054D01*
X147940833Y-100575742D01*
X147945898Y-100504927D01*
X147988445Y-100448091D01*
X148054965Y-100423280D01*
X148124339Y-100438371D01*
G37*
%TD.AperFunction*%
%TA.AperFunction,Conductor*%
G36*
X150956031Y-92442160D02*
G01*
X150961576Y-92447380D01*
X151248043Y-92733847D01*
X151255587Y-92742137D01*
X151259700Y-92748618D01*
X151265477Y-92754043D01*
X151309367Y-92795258D01*
X151312209Y-92798013D01*
X151331931Y-92817735D01*
X151335055Y-92820158D01*
X151335059Y-92820162D01*
X151335124Y-92820212D01*
X151344145Y-92827917D01*
X151376379Y-92858186D01*
X151383327Y-92862005D01*
X151383329Y-92862007D01*
X151394132Y-92867946D01*
X151410659Y-92878802D01*
X151420398Y-92886357D01*
X151420400Y-92886358D01*
X151426660Y-92891214D01*
X151467240Y-92908774D01*
X151477888Y-92913991D01*
X151506463Y-92929700D01*
X151516640Y-92935295D01*
X151524316Y-92937266D01*
X151524319Y-92937267D01*
X151536262Y-92940333D01*
X151554967Y-92946737D01*
X151573555Y-92954781D01*
X151581378Y-92956020D01*
X151581388Y-92956023D01*
X151617224Y-92961699D01*
X151628844Y-92964105D01*
X151654310Y-92970643D01*
X151671670Y-92975100D01*
X151691924Y-92975100D01*
X151711634Y-92976651D01*
X151731643Y-92979820D01*
X151739535Y-92979074D01*
X151775661Y-92975659D01*
X151787519Y-92975100D01*
X153819514Y-92975100D01*
X153887635Y-92995102D01*
X153934128Y-93048758D01*
X153944232Y-93119032D01*
X153941221Y-93133711D01*
X153902375Y-93278688D01*
X153900472Y-93289481D01*
X153881483Y-93506525D01*
X153881483Y-93517475D01*
X153900472Y-93734519D01*
X153902375Y-93745312D01*
X153958764Y-93955761D01*
X153962510Y-93966053D01*
X154054586Y-94163511D01*
X154060069Y-94173006D01*
X154096509Y-94225048D01*
X154106988Y-94233424D01*
X154120434Y-94226356D01*
X155104905Y-93241885D01*
X155167217Y-93207859D01*
X155238032Y-93212924D01*
X155283095Y-93241885D01*
X155464115Y-93422905D01*
X155498141Y-93485217D01*
X155493076Y-93556032D01*
X155464115Y-93601095D01*
X154478923Y-94586287D01*
X154472493Y-94598062D01*
X154481789Y-94610077D01*
X154532994Y-94645931D01*
X154542489Y-94651414D01*
X154739947Y-94743490D01*
X154750239Y-94747236D01*
X154960688Y-94803625D01*
X154971481Y-94805528D01*
X155194000Y-94824996D01*
X155193903Y-94826107D01*
X155256610Y-94844519D01*
X155303103Y-94898175D01*
X155313207Y-94968449D01*
X155283713Y-95033029D01*
X155277589Y-95039607D01*
X153817670Y-96499525D01*
X152413200Y-97903995D01*
X152350888Y-97938021D01*
X152324105Y-97940900D01*
X151470000Y-97940900D01*
X151401879Y-97920898D01*
X151382653Y-97904557D01*
X151382380Y-97904860D01*
X151377468Y-97900437D01*
X151373053Y-97895534D01*
X151320398Y-97857278D01*
X151223894Y-97787163D01*
X151223893Y-97787162D01*
X151218552Y-97783282D01*
X151212524Y-97780598D01*
X151212522Y-97780597D01*
X151050119Y-97708291D01*
X151050118Y-97708291D01*
X151044088Y-97705606D01*
X150950687Y-97685753D01*
X150863744Y-97667272D01*
X150863739Y-97667272D01*
X150857287Y-97665900D01*
X150666313Y-97665900D01*
X150659861Y-97667272D01*
X150659856Y-97667272D01*
X150572913Y-97685753D01*
X150479512Y-97705606D01*
X150473482Y-97708291D01*
X150473481Y-97708291D01*
X150311078Y-97780597D01*
X150311076Y-97780598D01*
X150305048Y-97783282D01*
X150299707Y-97787162D01*
X150299706Y-97787163D01*
X150289144Y-97794837D01*
X150150547Y-97895534D01*
X150146126Y-97900444D01*
X150146125Y-97900445D01*
X150108160Y-97942610D01*
X150022760Y-98037456D01*
X149927273Y-98202844D01*
X149868258Y-98384472D01*
X149867568Y-98391033D01*
X149867568Y-98391035D01*
X149857952Y-98482528D01*
X149848296Y-98574400D01*
X149848385Y-98575247D01*
X149828984Y-98641321D01*
X149775328Y-98687814D01*
X149722986Y-98699200D01*
X148921794Y-98699200D01*
X148853673Y-98679198D01*
X148832699Y-98662295D01*
X147604302Y-97433898D01*
X147570276Y-97371586D01*
X147575341Y-97300771D01*
X147617888Y-97243935D01*
X147684408Y-97219124D01*
X147718948Y-97221421D01*
X147809314Y-97240135D01*
X147809317Y-97240135D01*
X147812864Y-97240870D01*
X147951321Y-97253227D01*
X148115176Y-97267851D01*
X148115182Y-97267851D01*
X148117969Y-97268100D01*
X148341532Y-97268100D01*
X148343351Y-97267995D01*
X148343355Y-97267995D01*
X148595854Y-97253436D01*
X148595859Y-97253435D01*
X148599474Y-97253227D01*
X148674488Y-97240135D01*
X148937685Y-97194200D01*
X148937692Y-97194198D01*
X148941258Y-97193576D01*
X148944733Y-97192547D01*
X148944740Y-97192545D01*
X149077963Y-97153082D01*
X149273920Y-97095037D01*
X149277259Y-97093613D01*
X149589714Y-96960340D01*
X149589717Y-96960338D01*
X149593052Y-96958916D01*
X149596199Y-96957121D01*
X149596203Y-96957119D01*
X149891284Y-96788808D01*
X149894424Y-96787017D01*
X150174040Y-96581618D01*
X150428196Y-96345442D01*
X150653522Y-96081619D01*
X150847031Y-95793647D01*
X151006160Y-95485341D01*
X151128798Y-95160789D01*
X151136792Y-95128966D01*
X151170196Y-94995978D01*
X151213320Y-94824292D01*
X151226073Y-94727423D01*
X151258132Y-94483915D01*
X151258133Y-94483907D01*
X151258606Y-94480311D01*
X151263035Y-94198402D01*
X151263999Y-94137046D01*
X151263999Y-94137042D01*
X151264056Y-94133404D01*
X151258065Y-94073375D01*
X151229957Y-93791777D01*
X151229597Y-93788169D01*
X151170576Y-93517475D01*
X151156459Y-93452728D01*
X151156459Y-93452727D01*
X151155686Y-93449183D01*
X151142420Y-93410434D01*
X151044476Y-93124365D01*
X151043303Y-93120939D01*
X150893937Y-92807788D01*
X150827871Y-92702469D01*
X150765744Y-92603431D01*
X150746489Y-92535096D01*
X150767235Y-92467198D01*
X150821397Y-92421295D01*
X150891777Y-92411961D01*
X150956031Y-92442160D01*
G37*
%TD.AperFunction*%
%TA.AperFunction,Conductor*%
G36*
X149039449Y-83895855D02*
G01*
X149073492Y-83920097D01*
X154086448Y-88933053D01*
X154093988Y-88941339D01*
X154098100Y-88947818D01*
X154103877Y-88953243D01*
X154147751Y-88994443D01*
X154150593Y-88997198D01*
X154170330Y-89016935D01*
X154173527Y-89019415D01*
X154182547Y-89027118D01*
X154214779Y-89057386D01*
X154221725Y-89061205D01*
X154221728Y-89061207D01*
X154232534Y-89067148D01*
X154249053Y-89077999D01*
X154265059Y-89090414D01*
X154272328Y-89093559D01*
X154272332Y-89093562D01*
X154305637Y-89107974D01*
X154316295Y-89113195D01*
X154322233Y-89116459D01*
X154327686Y-89119457D01*
X154377745Y-89169802D01*
X154392639Y-89239218D01*
X154390160Y-89255208D01*
X154384369Y-89308514D01*
X154384000Y-89315328D01*
X154384000Y-89887885D01*
X154388475Y-89903124D01*
X154389865Y-89904329D01*
X154397548Y-89906000D01*
X155820000Y-89906000D01*
X155888121Y-89926002D01*
X155934614Y-89979658D01*
X155946000Y-90032000D01*
X155946000Y-90288000D01*
X155925998Y-90356121D01*
X155872342Y-90402614D01*
X155820000Y-90414000D01*
X154402116Y-90414000D01*
X154386877Y-90418475D01*
X154385672Y-90419865D01*
X154384001Y-90427548D01*
X154384001Y-90575700D01*
X154363999Y-90643821D01*
X154310343Y-90690314D01*
X154258001Y-90701700D01*
X153965619Y-90701700D01*
X153897498Y-90681698D01*
X153856501Y-90638701D01*
X153839744Y-90609678D01*
X153839741Y-90609674D01*
X153836440Y-90603956D01*
X153826710Y-90593149D01*
X153713075Y-90466945D01*
X153713074Y-90466944D01*
X153708653Y-90462034D01*
X153554152Y-90349782D01*
X153548124Y-90347098D01*
X153548122Y-90347097D01*
X153385719Y-90274791D01*
X153385718Y-90274791D01*
X153379688Y-90272106D01*
X153265343Y-90247801D01*
X153199344Y-90233772D01*
X153199339Y-90233772D01*
X153192887Y-90232400D01*
X153001913Y-90232400D01*
X152995461Y-90233772D01*
X152995456Y-90233772D01*
X152929457Y-90247801D01*
X152815112Y-90272106D01*
X152809082Y-90274791D01*
X152809081Y-90274791D01*
X152646678Y-90347097D01*
X152646676Y-90347098D01*
X152640648Y-90349782D01*
X152486147Y-90462034D01*
X152481726Y-90466944D01*
X152481725Y-90466945D01*
X152368091Y-90593149D01*
X152358360Y-90603956D01*
X152262873Y-90769344D01*
X152261279Y-90768424D01*
X152221103Y-90815704D01*
X152153178Y-90836362D01*
X152084868Y-90817018D01*
X152062868Y-90799463D01*
X149617252Y-88353847D01*
X149609712Y-88345561D01*
X149605600Y-88339082D01*
X149555948Y-88292456D01*
X149553107Y-88289702D01*
X149533370Y-88269965D01*
X149530173Y-88267485D01*
X149521151Y-88259780D01*
X149494700Y-88234941D01*
X149488921Y-88229514D01*
X149481975Y-88225695D01*
X149481972Y-88225693D01*
X149471166Y-88219752D01*
X149454647Y-88208901D01*
X149448648Y-88204248D01*
X149438641Y-88196486D01*
X149431372Y-88193341D01*
X149431368Y-88193338D01*
X149398063Y-88178926D01*
X149387413Y-88173709D01*
X149348660Y-88152405D01*
X149329037Y-88147367D01*
X149310334Y-88140963D01*
X149299020Y-88136067D01*
X149299019Y-88136067D01*
X149291745Y-88132919D01*
X149283922Y-88131680D01*
X149283912Y-88131677D01*
X149248076Y-88126001D01*
X149236456Y-88123595D01*
X149201311Y-88114572D01*
X149201310Y-88114572D01*
X149193630Y-88112600D01*
X149182700Y-88112600D01*
X149180434Y-88111935D01*
X149177840Y-88111607D01*
X149177893Y-88111189D01*
X149114579Y-88092598D01*
X149095353Y-88076257D01*
X149095080Y-88076560D01*
X149090168Y-88072137D01*
X149085753Y-88067234D01*
X148987766Y-87996042D01*
X148936594Y-87958863D01*
X148936593Y-87958862D01*
X148931252Y-87954982D01*
X148925224Y-87952298D01*
X148925222Y-87952297D01*
X148762819Y-87879991D01*
X148762818Y-87879991D01*
X148756788Y-87877306D01*
X148663388Y-87857453D01*
X148576444Y-87838972D01*
X148576439Y-87838972D01*
X148569987Y-87837600D01*
X148379013Y-87837600D01*
X148372561Y-87838972D01*
X148372556Y-87838972D01*
X148285613Y-87857453D01*
X148192212Y-87877306D01*
X148186182Y-87879991D01*
X148186181Y-87879991D01*
X148023778Y-87952297D01*
X148023776Y-87952298D01*
X148017748Y-87954982D01*
X148012407Y-87958862D01*
X148012406Y-87958863D01*
X147967918Y-87991186D01*
X147863247Y-88067234D01*
X147858826Y-88072144D01*
X147858825Y-88072145D01*
X147749703Y-88193338D01*
X147735460Y-88209156D01*
X147720573Y-88234941D01*
X147654581Y-88349243D01*
X147639973Y-88374544D01*
X147580958Y-88556172D01*
X147580268Y-88562733D01*
X147580268Y-88562735D01*
X147576898Y-88594799D01*
X147560996Y-88746100D01*
X147561686Y-88752665D01*
X147579725Y-88924293D01*
X147580958Y-88936028D01*
X147639973Y-89117656D01*
X147643276Y-89123378D01*
X147643277Y-89123379D01*
X147675028Y-89178373D01*
X147735460Y-89283044D01*
X147739878Y-89287951D01*
X147739879Y-89287952D01*
X147799964Y-89354683D01*
X147863247Y-89424966D01*
X147907843Y-89457367D01*
X148011633Y-89532775D01*
X148017748Y-89537218D01*
X148023776Y-89539902D01*
X148023778Y-89539903D01*
X148186179Y-89612208D01*
X148192212Y-89614894D01*
X148285612Y-89634747D01*
X148372556Y-89653228D01*
X148372561Y-89653228D01*
X148379013Y-89654600D01*
X148569987Y-89654600D01*
X148576439Y-89653228D01*
X148576444Y-89653228D01*
X148663388Y-89634747D01*
X148756788Y-89614894D01*
X148762815Y-89612211D01*
X148762823Y-89612208D01*
X148905811Y-89548546D01*
X148976178Y-89539112D01*
X149040475Y-89569219D01*
X149046154Y-89574558D01*
X149293201Y-89821605D01*
X149327227Y-89883917D01*
X149322162Y-89954732D01*
X149279615Y-90011568D01*
X149213095Y-90036379D01*
X149204106Y-90036700D01*
X143588382Y-90036700D01*
X143520261Y-90016698D01*
X143473768Y-89963042D01*
X143463664Y-89892768D01*
X143471134Y-89867783D01*
X143470078Y-89867398D01*
X143471961Y-89862225D01*
X143474284Y-89857243D01*
X143478008Y-89843347D01*
X143532119Y-89641402D01*
X143532119Y-89641400D01*
X143533543Y-89636087D01*
X143553498Y-89408000D01*
X143533543Y-89179913D01*
X143532120Y-89174602D01*
X143532118Y-89174591D01*
X143516541Y-89116459D01*
X143518230Y-89045483D01*
X143549152Y-88994752D01*
X146992755Y-85551149D01*
X147055067Y-85517123D01*
X147123615Y-85521752D01*
X147124757Y-85522284D01*
X147130065Y-85523706D01*
X147130067Y-85523707D01*
X147340598Y-85580119D01*
X147340600Y-85580119D01*
X147345913Y-85581543D01*
X147574000Y-85601498D01*
X147802087Y-85581543D01*
X147807400Y-85580119D01*
X147807402Y-85580119D01*
X148017933Y-85523707D01*
X148017935Y-85523706D01*
X148023243Y-85522284D01*
X148045720Y-85511803D01*
X148225762Y-85427849D01*
X148225767Y-85427846D01*
X148230749Y-85425523D01*
X148366740Y-85330301D01*
X148413789Y-85297357D01*
X148413792Y-85297355D01*
X148418300Y-85294198D01*
X148580198Y-85132300D01*
X148584809Y-85125716D01*
X148638098Y-85049611D01*
X148711523Y-84944749D01*
X148713846Y-84939767D01*
X148713849Y-84939762D01*
X148805961Y-84742225D01*
X148805961Y-84742224D01*
X148808284Y-84737243D01*
X148810529Y-84728867D01*
X148866119Y-84521402D01*
X148866119Y-84521400D01*
X148867543Y-84516087D01*
X148887498Y-84288000D01*
X148867543Y-84059913D01*
X148865799Y-84053402D01*
X148862691Y-84041806D01*
X148864379Y-83970829D01*
X148904172Y-83912033D01*
X148969436Y-83884083D01*
X149039449Y-83895855D01*
G37*
%TD.AperFunction*%
%TA.AperFunction,Conductor*%
G36*
X146681243Y-77812464D02*
G01*
X146694911Y-77822394D01*
X146773948Y-77879818D01*
X146779974Y-77882501D01*
X146779981Y-77882505D01*
X146894925Y-77933680D01*
X146949021Y-77979660D01*
X146969671Y-78047587D01*
X146950319Y-78115895D01*
X146915948Y-78152000D01*
X146860952Y-78190509D01*
X146852576Y-78200988D01*
X146859644Y-78214434D01*
X148648287Y-80003077D01*
X148660062Y-80009507D01*
X148672077Y-80000211D01*
X148707931Y-79949006D01*
X148713414Y-79939511D01*
X148805490Y-79742053D01*
X148809236Y-79731761D01*
X148865625Y-79521312D01*
X148867528Y-79510519D01*
X148886517Y-79293475D01*
X148886517Y-79282525D01*
X148867528Y-79065481D01*
X148865625Y-79054688D01*
X148814876Y-78865288D01*
X148816566Y-78794312D01*
X148856360Y-78735516D01*
X148921625Y-78707568D01*
X148991638Y-78719342D01*
X149025678Y-78743582D01*
X156001943Y-85719847D01*
X156009487Y-85728137D01*
X156013600Y-85734618D01*
X156019377Y-85740043D01*
X156063267Y-85781258D01*
X156066109Y-85784013D01*
X156085831Y-85803735D01*
X156088955Y-85806158D01*
X156088959Y-85806162D01*
X156089024Y-85806212D01*
X156098045Y-85813917D01*
X156130279Y-85844186D01*
X156137227Y-85848005D01*
X156137229Y-85848007D01*
X156148032Y-85853946D01*
X156164559Y-85864802D01*
X156174298Y-85872357D01*
X156174300Y-85872358D01*
X156180560Y-85877214D01*
X156221140Y-85894774D01*
X156231788Y-85899991D01*
X156251372Y-85910757D01*
X156270540Y-85921295D01*
X156278216Y-85923266D01*
X156278219Y-85923267D01*
X156290162Y-85926333D01*
X156308867Y-85932737D01*
X156327455Y-85940781D01*
X156335278Y-85942020D01*
X156335288Y-85942023D01*
X156371124Y-85947699D01*
X156382744Y-85950105D01*
X156417889Y-85959128D01*
X156425570Y-85961100D01*
X156445824Y-85961100D01*
X156465534Y-85962651D01*
X156485543Y-85965820D01*
X156493435Y-85965074D01*
X156529561Y-85961659D01*
X156541419Y-85961100D01*
X167450106Y-85961100D01*
X167518227Y-85981102D01*
X167539201Y-85998005D01*
X170344709Y-88803513D01*
X170378735Y-88865825D01*
X170373670Y-88936640D01*
X170331123Y-88993476D01*
X170308864Y-89006803D01*
X170280238Y-89020151D01*
X170280233Y-89020154D01*
X170275251Y-89022477D01*
X170204638Y-89071921D01*
X170092211Y-89150643D01*
X170092208Y-89150645D01*
X170087700Y-89153802D01*
X169925802Y-89315700D01*
X169826606Y-89457367D01*
X169812657Y-89477288D01*
X169757200Y-89521616D01*
X169717355Y-89530768D01*
X169707250Y-89531404D01*
X169693364Y-89532277D01*
X169693363Y-89532277D01*
X169685450Y-89532775D01*
X169677909Y-89535225D01*
X169677613Y-89535321D01*
X169654469Y-89540494D01*
X169646300Y-89541526D01*
X169646103Y-89539969D01*
X169584199Y-89537849D01*
X169525821Y-89497444D01*
X169520610Y-89490522D01*
X169398198Y-89315700D01*
X169236300Y-89153802D01*
X169231792Y-89150645D01*
X169231789Y-89150643D01*
X169119362Y-89071921D01*
X169048749Y-89022477D01*
X169043767Y-89020154D01*
X169043762Y-89020151D01*
X168846225Y-88928039D01*
X168846224Y-88928039D01*
X168841243Y-88925716D01*
X168835935Y-88924294D01*
X168835933Y-88924293D01*
X168625402Y-88867881D01*
X168625400Y-88867881D01*
X168620087Y-88866457D01*
X168392000Y-88846502D01*
X168163913Y-88866457D01*
X168158600Y-88867881D01*
X168158598Y-88867881D01*
X167948067Y-88924293D01*
X167948065Y-88924294D01*
X167942757Y-88925716D01*
X167937776Y-88928039D01*
X167937775Y-88928039D01*
X167740238Y-89020151D01*
X167740233Y-89020154D01*
X167735251Y-89022477D01*
X167664638Y-89071921D01*
X167552211Y-89150643D01*
X167552208Y-89150645D01*
X167547700Y-89153802D01*
X167385802Y-89315700D01*
X167382645Y-89320208D01*
X167382643Y-89320211D01*
X167327902Y-89398389D01*
X167254477Y-89503251D01*
X167252154Y-89508233D01*
X167252151Y-89508238D01*
X167236195Y-89542457D01*
X167189278Y-89595742D01*
X167121001Y-89615203D01*
X167053041Y-89594661D01*
X167007805Y-89542457D01*
X166991849Y-89508238D01*
X166991846Y-89508233D01*
X166989523Y-89503251D01*
X166916098Y-89398389D01*
X166861357Y-89320211D01*
X166861355Y-89320208D01*
X166858198Y-89315700D01*
X166696300Y-89153802D01*
X166691792Y-89150645D01*
X166691789Y-89150643D01*
X166579362Y-89071921D01*
X166508749Y-89022477D01*
X166503767Y-89020154D01*
X166503762Y-89020151D01*
X166306225Y-88928039D01*
X166306224Y-88928039D01*
X166301243Y-88925716D01*
X166295935Y-88924294D01*
X166295933Y-88924293D01*
X166085402Y-88867881D01*
X166085400Y-88867881D01*
X166080087Y-88866457D01*
X165852000Y-88846502D01*
X165623913Y-88866457D01*
X165618600Y-88867881D01*
X165618598Y-88867881D01*
X165408067Y-88924293D01*
X165408065Y-88924294D01*
X165402757Y-88925716D01*
X165397776Y-88928039D01*
X165397775Y-88928039D01*
X165200238Y-89020151D01*
X165200233Y-89020154D01*
X165195251Y-89022477D01*
X165124638Y-89071921D01*
X165012211Y-89150643D01*
X165012208Y-89150645D01*
X165007700Y-89153802D01*
X164845802Y-89315700D01*
X164842645Y-89320208D01*
X164842643Y-89320211D01*
X164787902Y-89398389D01*
X164714477Y-89503251D01*
X164712154Y-89508233D01*
X164712151Y-89508238D01*
X164696195Y-89542457D01*
X164649278Y-89595742D01*
X164581001Y-89615203D01*
X164513041Y-89594661D01*
X164467805Y-89542457D01*
X164451849Y-89508238D01*
X164451846Y-89508233D01*
X164449523Y-89503251D01*
X164376098Y-89398389D01*
X164321357Y-89320211D01*
X164321355Y-89320208D01*
X164318198Y-89315700D01*
X164156300Y-89153802D01*
X164151792Y-89150645D01*
X164151789Y-89150643D01*
X164039362Y-89071921D01*
X163968749Y-89022477D01*
X163963767Y-89020154D01*
X163963762Y-89020151D01*
X163766225Y-88928039D01*
X163766224Y-88928039D01*
X163761243Y-88925716D01*
X163755935Y-88924294D01*
X163755933Y-88924293D01*
X163545402Y-88867881D01*
X163545400Y-88867881D01*
X163540087Y-88866457D01*
X163312000Y-88846502D01*
X163083913Y-88866457D01*
X163078600Y-88867881D01*
X163078598Y-88867881D01*
X162868067Y-88924293D01*
X162868065Y-88924294D01*
X162862757Y-88925716D01*
X162857776Y-88928039D01*
X162857775Y-88928039D01*
X162660238Y-89020151D01*
X162660233Y-89020154D01*
X162655251Y-89022477D01*
X162584638Y-89071921D01*
X162472211Y-89150643D01*
X162472208Y-89150645D01*
X162467700Y-89153802D01*
X162305802Y-89315700D01*
X162302645Y-89320208D01*
X162302643Y-89320211D01*
X162247902Y-89398389D01*
X162174477Y-89503251D01*
X162172154Y-89508233D01*
X162172151Y-89508238D01*
X162156195Y-89542457D01*
X162109278Y-89595742D01*
X162041001Y-89615203D01*
X161973041Y-89594661D01*
X161927805Y-89542457D01*
X161911849Y-89508238D01*
X161911846Y-89508233D01*
X161909523Y-89503251D01*
X161836098Y-89398389D01*
X161781357Y-89320211D01*
X161781355Y-89320208D01*
X161778198Y-89315700D01*
X161616300Y-89153802D01*
X161611792Y-89150645D01*
X161611789Y-89150643D01*
X161499362Y-89071921D01*
X161428749Y-89022477D01*
X161423767Y-89020154D01*
X161423762Y-89020151D01*
X161226225Y-88928039D01*
X161226224Y-88928039D01*
X161221243Y-88925716D01*
X161215935Y-88924294D01*
X161215933Y-88924293D01*
X161005402Y-88867881D01*
X161005400Y-88867881D01*
X161000087Y-88866457D01*
X160772000Y-88846502D01*
X160543913Y-88866457D01*
X160538600Y-88867881D01*
X160538598Y-88867881D01*
X160328067Y-88924293D01*
X160328065Y-88924294D01*
X160322757Y-88925716D01*
X160317776Y-88928039D01*
X160317775Y-88928039D01*
X160120238Y-89020151D01*
X160120233Y-89020154D01*
X160115251Y-89022477D01*
X160044638Y-89071921D01*
X159932212Y-89150643D01*
X159927700Y-89153802D01*
X159927579Y-89153629D01*
X159864782Y-89181116D01*
X159794677Y-89169903D01*
X159759730Y-89145226D01*
X159298399Y-88683894D01*
X158763052Y-88148547D01*
X158755512Y-88140261D01*
X158751400Y-88133782D01*
X158701748Y-88087156D01*
X158698907Y-88084402D01*
X158679170Y-88064665D01*
X158675973Y-88062185D01*
X158666951Y-88054480D01*
X158640500Y-88029641D01*
X158634721Y-88024214D01*
X158627775Y-88020395D01*
X158627772Y-88020393D01*
X158616966Y-88014452D01*
X158600447Y-88003601D01*
X158599983Y-88003241D01*
X158584441Y-87991186D01*
X158577172Y-87988041D01*
X158577168Y-87988038D01*
X158543863Y-87973626D01*
X158533213Y-87968409D01*
X158494460Y-87947105D01*
X158474837Y-87942067D01*
X158456134Y-87935663D01*
X158444820Y-87930767D01*
X158444819Y-87930767D01*
X158437545Y-87927619D01*
X158429722Y-87926380D01*
X158429712Y-87926377D01*
X158393876Y-87920701D01*
X158382256Y-87918295D01*
X158347111Y-87909272D01*
X158347110Y-87909272D01*
X158339430Y-87907300D01*
X158319176Y-87907300D01*
X158299465Y-87905749D01*
X158287286Y-87903820D01*
X158279457Y-87902580D01*
X158271565Y-87903326D01*
X158235439Y-87906741D01*
X158223581Y-87907300D01*
X154904694Y-87907300D01*
X154836573Y-87887298D01*
X154815599Y-87870395D01*
X152662637Y-85717433D01*
X152628611Y-85655121D01*
X152633676Y-85584306D01*
X152676223Y-85527470D01*
X152698483Y-85514143D01*
X152797758Y-85467851D01*
X152797764Y-85467847D01*
X152802749Y-85465523D01*
X152939861Y-85369516D01*
X152985789Y-85337357D01*
X152985792Y-85337355D01*
X152990300Y-85334198D01*
X153152198Y-85172300D01*
X153161540Y-85158959D01*
X153258111Y-85021041D01*
X153283523Y-84984749D01*
X153285846Y-84979767D01*
X153285849Y-84979762D01*
X153377961Y-84782225D01*
X153377961Y-84782224D01*
X153380284Y-84777243D01*
X153382963Y-84767247D01*
X153438119Y-84561402D01*
X153438119Y-84561400D01*
X153439543Y-84556087D01*
X153459498Y-84328000D01*
X153439543Y-84099913D01*
X153391361Y-83920097D01*
X153381707Y-83884067D01*
X153381706Y-83884065D01*
X153380284Y-83878757D01*
X153377961Y-83873775D01*
X153285849Y-83676238D01*
X153285846Y-83676233D01*
X153283523Y-83671251D01*
X153197279Y-83548082D01*
X153155357Y-83488211D01*
X153155355Y-83488208D01*
X153152198Y-83483700D01*
X152990300Y-83321802D01*
X152985792Y-83318645D01*
X152985789Y-83318643D01*
X152811706Y-83196749D01*
X152802749Y-83190477D01*
X152797767Y-83188154D01*
X152797762Y-83188151D01*
X152600225Y-83096039D01*
X152600224Y-83096039D01*
X152595243Y-83093716D01*
X152589935Y-83092294D01*
X152589933Y-83092293D01*
X152379402Y-83035881D01*
X152379400Y-83035881D01*
X152374087Y-83034457D01*
X152146000Y-83014502D01*
X151917913Y-83034457D01*
X151912600Y-83035881D01*
X151912598Y-83035881D01*
X151702067Y-83092293D01*
X151702065Y-83092294D01*
X151696757Y-83093716D01*
X151691776Y-83096039D01*
X151691775Y-83096039D01*
X151494238Y-83188151D01*
X151494233Y-83188154D01*
X151489251Y-83190477D01*
X151480294Y-83196749D01*
X151306211Y-83318643D01*
X151306208Y-83318645D01*
X151301700Y-83321802D01*
X151194046Y-83429456D01*
X151131738Y-83463479D01*
X151060922Y-83458415D01*
X151015859Y-83429454D01*
X148207415Y-80621010D01*
X148173389Y-80558698D01*
X148178454Y-80487883D01*
X148221001Y-80431047D01*
X148233505Y-80422799D01*
X148234999Y-80421936D01*
X148287048Y-80385491D01*
X148295424Y-80375012D01*
X148288356Y-80361566D01*
X146499713Y-78572923D01*
X146487938Y-78566493D01*
X146475923Y-78575789D01*
X146440064Y-78627001D01*
X146439201Y-78628495D01*
X146438649Y-78629021D01*
X146436912Y-78631502D01*
X146436413Y-78631153D01*
X146387817Y-78677486D01*
X146318102Y-78690919D01*
X146252193Y-78664529D01*
X146240990Y-78654585D01*
X145589900Y-78003495D01*
X145555874Y-77941183D01*
X145560939Y-77870368D01*
X145603486Y-77813532D01*
X145670006Y-77788721D01*
X145678995Y-77788400D01*
X146607182Y-77788400D01*
X146681243Y-77812464D01*
G37*
%TD.AperFunction*%
%TA.AperFunction,Conductor*%
G36*
X151822233Y-70450041D02*
G01*
X151826090Y-70450528D01*
X151833770Y-70452500D01*
X151854024Y-70452500D01*
X151873734Y-70454051D01*
X151893743Y-70457220D01*
X151901635Y-70456474D01*
X151937761Y-70453059D01*
X151949619Y-70452500D01*
X164882812Y-70452500D01*
X164950933Y-70472502D01*
X164997426Y-70526158D01*
X165007530Y-70596432D01*
X164978036Y-70661012D01*
X164971907Y-70667595D01*
X164865802Y-70773700D01*
X164734477Y-70961251D01*
X164732154Y-70966233D01*
X164732151Y-70966238D01*
X164697500Y-71040548D01*
X164637716Y-71168757D01*
X164636294Y-71174065D01*
X164636293Y-71174067D01*
X164602000Y-71302050D01*
X164578457Y-71389913D01*
X164558502Y-71618000D01*
X164578457Y-71846087D01*
X164637716Y-72067243D01*
X164640039Y-72072224D01*
X164640039Y-72072225D01*
X164732151Y-72269762D01*
X164732154Y-72269767D01*
X164734477Y-72274749D01*
X164865802Y-72462300D01*
X165027700Y-72624198D01*
X165032208Y-72627355D01*
X165032211Y-72627357D01*
X165074710Y-72657115D01*
X165215251Y-72755523D01*
X165220233Y-72757846D01*
X165220238Y-72757849D01*
X165417775Y-72849961D01*
X165422757Y-72852284D01*
X165428065Y-72853706D01*
X165428067Y-72853707D01*
X165638598Y-72910119D01*
X165638600Y-72910119D01*
X165643913Y-72911543D01*
X165872000Y-72931498D01*
X166100087Y-72911543D01*
X166105400Y-72910119D01*
X166105402Y-72910119D01*
X166315933Y-72853707D01*
X166315935Y-72853706D01*
X166321243Y-72852284D01*
X166326225Y-72849961D01*
X166523762Y-72757849D01*
X166523767Y-72757846D01*
X166528749Y-72755523D01*
X166669290Y-72657115D01*
X166711789Y-72627357D01*
X166711792Y-72627355D01*
X166716300Y-72624198D01*
X166878198Y-72462300D01*
X167009523Y-72274749D01*
X167011846Y-72269767D01*
X167011849Y-72269762D01*
X167027805Y-72235543D01*
X167074722Y-72182258D01*
X167142999Y-72162797D01*
X167210959Y-72183339D01*
X167256195Y-72235543D01*
X167272151Y-72269762D01*
X167272154Y-72269767D01*
X167274477Y-72274749D01*
X167405802Y-72462300D01*
X167567700Y-72624198D01*
X167572208Y-72627355D01*
X167572211Y-72627357D01*
X167614710Y-72657115D01*
X167755251Y-72755523D01*
X167767301Y-72761142D01*
X167776249Y-72765315D01*
X167829533Y-72812233D01*
X167848993Y-72880511D01*
X167828450Y-72948470D01*
X167812092Y-72968604D01*
X166040628Y-74740067D01*
X164273700Y-76506995D01*
X164211388Y-76541021D01*
X164184605Y-76543900D01*
X164023867Y-76543900D01*
X164012684Y-76543373D01*
X164005191Y-76541698D01*
X163997265Y-76541947D01*
X163997264Y-76541947D01*
X163937101Y-76543838D01*
X163933143Y-76543900D01*
X163905244Y-76543900D01*
X163901254Y-76544404D01*
X163889420Y-76545336D01*
X163845211Y-76546726D01*
X163837597Y-76548938D01*
X163837592Y-76548939D01*
X163825759Y-76552377D01*
X163806396Y-76556388D01*
X163786303Y-76558926D01*
X163778936Y-76561843D01*
X163778931Y-76561844D01*
X163745192Y-76575202D01*
X163733965Y-76579046D01*
X163691507Y-76591382D01*
X163684681Y-76595419D01*
X163674072Y-76601693D01*
X163656324Y-76610388D01*
X163637483Y-76617848D01*
X163631067Y-76622510D01*
X163631066Y-76622510D01*
X163601713Y-76643836D01*
X163591793Y-76650352D01*
X163560565Y-76668820D01*
X163560562Y-76668822D01*
X163553738Y-76672858D01*
X163539417Y-76687179D01*
X163524384Y-76700019D01*
X163507993Y-76711928D01*
X163502942Y-76718034D01*
X163479802Y-76746005D01*
X163471812Y-76754784D01*
X159221847Y-81004748D01*
X159213561Y-81012288D01*
X159207082Y-81016400D01*
X159201657Y-81022177D01*
X159160457Y-81066051D01*
X159157702Y-81068893D01*
X159137965Y-81088630D01*
X159135485Y-81091827D01*
X159127782Y-81100847D01*
X159097514Y-81133079D01*
X159093695Y-81140025D01*
X159093693Y-81140028D01*
X159087752Y-81150834D01*
X159076901Y-81167353D01*
X159064486Y-81183359D01*
X159061341Y-81190628D01*
X159061338Y-81190632D01*
X159046926Y-81223937D01*
X159041709Y-81234587D01*
X159020405Y-81273340D01*
X159018434Y-81281015D01*
X159018434Y-81281016D01*
X159015367Y-81292962D01*
X159008961Y-81311670D01*
X159007535Y-81314965D01*
X158962123Y-81369538D01*
X158894415Y-81390896D01*
X158838652Y-81379116D01*
X158701078Y-81314965D01*
X158686225Y-81308039D01*
X158686224Y-81308039D01*
X158681243Y-81305716D01*
X158675935Y-81304294D01*
X158675933Y-81304293D01*
X158465402Y-81247881D01*
X158465400Y-81247881D01*
X158460087Y-81246457D01*
X158232000Y-81226502D01*
X158003913Y-81246457D01*
X157998600Y-81247881D01*
X157998598Y-81247881D01*
X157788067Y-81304293D01*
X157788065Y-81304294D01*
X157782757Y-81305716D01*
X157777776Y-81308039D01*
X157777775Y-81308039D01*
X157580238Y-81400151D01*
X157580233Y-81400154D01*
X157575251Y-81402477D01*
X157495182Y-81458542D01*
X157392211Y-81530643D01*
X157392208Y-81530645D01*
X157387700Y-81533802D01*
X157225802Y-81695700D01*
X157094477Y-81883251D01*
X157092154Y-81888233D01*
X157092151Y-81888238D01*
X157076195Y-81922457D01*
X157029278Y-81975742D01*
X156961001Y-81995203D01*
X156893041Y-81974661D01*
X156847805Y-81922457D01*
X156831849Y-81888238D01*
X156831846Y-81888233D01*
X156829523Y-81883251D01*
X156698198Y-81695700D01*
X156536300Y-81533802D01*
X156531792Y-81530645D01*
X156531789Y-81530643D01*
X156428818Y-81458542D01*
X156348749Y-81402477D01*
X156343767Y-81400154D01*
X156343762Y-81400151D01*
X156146225Y-81308039D01*
X156146224Y-81308039D01*
X156141243Y-81305716D01*
X156135935Y-81304294D01*
X156135933Y-81304293D01*
X155925402Y-81247881D01*
X155925400Y-81247881D01*
X155920087Y-81246457D01*
X155692000Y-81226502D01*
X155463913Y-81246457D01*
X155458600Y-81247881D01*
X155458598Y-81247881D01*
X155248067Y-81304293D01*
X155248065Y-81304294D01*
X155242757Y-81305716D01*
X155237776Y-81308039D01*
X155237775Y-81308039D01*
X155040238Y-81400151D01*
X155040233Y-81400154D01*
X155035251Y-81402477D01*
X154955182Y-81458542D01*
X154852211Y-81530643D01*
X154852208Y-81530645D01*
X154847700Y-81533802D01*
X154685802Y-81695700D01*
X154554477Y-81883251D01*
X154552154Y-81888233D01*
X154552151Y-81888238D01*
X154460039Y-82085775D01*
X154457716Y-82090757D01*
X154456293Y-82096066D01*
X154456292Y-82096070D01*
X154452269Y-82111083D01*
X154415316Y-82171705D01*
X154351455Y-82202725D01*
X154280961Y-82194295D01*
X154241468Y-82167564D01*
X152750032Y-80676128D01*
X152716006Y-80613816D01*
X152721071Y-80543001D01*
X152763618Y-80486165D01*
X152785880Y-80472837D01*
X152797509Y-80467415D01*
X152807006Y-80461931D01*
X152859048Y-80425491D01*
X152867424Y-80415012D01*
X152860356Y-80401566D01*
X151787922Y-79329132D01*
X152510408Y-79329132D01*
X152510539Y-79330965D01*
X152514790Y-79337580D01*
X153220287Y-80043077D01*
X153232062Y-80049507D01*
X153244077Y-80040211D01*
X153279931Y-79989006D01*
X153285414Y-79979511D01*
X153377490Y-79782053D01*
X153381236Y-79771761D01*
X153437625Y-79561312D01*
X153439528Y-79550519D01*
X153458517Y-79333475D01*
X153458517Y-79322525D01*
X153439528Y-79105481D01*
X153437625Y-79094688D01*
X153381236Y-78884239D01*
X153377490Y-78873947D01*
X153285414Y-78676489D01*
X153279931Y-78666994D01*
X153243491Y-78614952D01*
X153233012Y-78606576D01*
X153219566Y-78613644D01*
X152518022Y-79315188D01*
X152510408Y-79329132D01*
X151787922Y-79329132D01*
X151071713Y-78612923D01*
X151059938Y-78606493D01*
X151047923Y-78615789D01*
X151012069Y-78666994D01*
X151006585Y-78676491D01*
X151001163Y-78688120D01*
X150954247Y-78741406D01*
X150885971Y-78760869D01*
X150818010Y-78740329D01*
X150797875Y-78723971D01*
X150314892Y-78240988D01*
X151424576Y-78240988D01*
X151431644Y-78254434D01*
X152133188Y-78955978D01*
X152147132Y-78963592D01*
X152148965Y-78963461D01*
X152155580Y-78959210D01*
X152861077Y-78253713D01*
X152867507Y-78241938D01*
X152858211Y-78229923D01*
X152807006Y-78194069D01*
X152797511Y-78188586D01*
X152600053Y-78096510D01*
X152589761Y-78092764D01*
X152379312Y-78036375D01*
X152368519Y-78034472D01*
X152151475Y-78015483D01*
X152140525Y-78015483D01*
X151923481Y-78034472D01*
X151912688Y-78036375D01*
X151702239Y-78092764D01*
X151691947Y-78096510D01*
X151494489Y-78188586D01*
X151484994Y-78194069D01*
X151432952Y-78230509D01*
X151424576Y-78240988D01*
X150314892Y-78240988D01*
X148545468Y-76471563D01*
X148511442Y-76409251D01*
X148516507Y-76338435D01*
X148559054Y-76281600D01*
X148608365Y-76259222D01*
X148609298Y-76259024D01*
X148614416Y-76258368D01*
X148707513Y-76230437D01*
X148823429Y-76195661D01*
X148823434Y-76195659D01*
X148828384Y-76194174D01*
X149028994Y-76095896D01*
X149210860Y-75966173D01*
X149369096Y-75808489D01*
X149499453Y-75627077D01*
X149500776Y-75628028D01*
X149547645Y-75584857D01*
X149617580Y-75572625D01*
X149683026Y-75600144D01*
X149710875Y-75631994D01*
X149714588Y-75638053D01*
X149770987Y-75730088D01*
X149917250Y-75898938D01*
X149993846Y-75962529D01*
X150073068Y-76028300D01*
X150089126Y-76041632D01*
X150282000Y-76154338D01*
X150490692Y-76234030D01*
X150495760Y-76235061D01*
X150495763Y-76235062D01*
X150603017Y-76256883D01*
X150709597Y-76278567D01*
X150714772Y-76278757D01*
X150714774Y-76278757D01*
X150927673Y-76286564D01*
X150927677Y-76286564D01*
X150932837Y-76286753D01*
X150937957Y-76286097D01*
X150937959Y-76286097D01*
X151149288Y-76259025D01*
X151149289Y-76259025D01*
X151154416Y-76258368D01*
X151159366Y-76256883D01*
X151363429Y-76195661D01*
X151363434Y-76195659D01*
X151368384Y-76194174D01*
X151568994Y-76095896D01*
X151750860Y-75966173D01*
X151909096Y-75808489D01*
X152039453Y-75627077D01*
X152040776Y-75628028D01*
X152087645Y-75584857D01*
X152157580Y-75572625D01*
X152223026Y-75600144D01*
X152250875Y-75631994D01*
X152254588Y-75638053D01*
X152310987Y-75730088D01*
X152457250Y-75898938D01*
X152533846Y-75962529D01*
X152613068Y-76028300D01*
X152629126Y-76041632D01*
X152822000Y-76154338D01*
X153030692Y-76234030D01*
X153035760Y-76235061D01*
X153035763Y-76235062D01*
X153143017Y-76256883D01*
X153249597Y-76278567D01*
X153254772Y-76278757D01*
X153254774Y-76278757D01*
X153467673Y-76286564D01*
X153467677Y-76286564D01*
X153472837Y-76286753D01*
X153477957Y-76286097D01*
X153477959Y-76286097D01*
X153689288Y-76259025D01*
X153689289Y-76259025D01*
X153694416Y-76258368D01*
X153699366Y-76256883D01*
X153903429Y-76195661D01*
X153903434Y-76195659D01*
X153908384Y-76194174D01*
X154108994Y-76095896D01*
X154290860Y-75966173D01*
X154449096Y-75808489D01*
X154579453Y-75627077D01*
X154600320Y-75584857D01*
X154676136Y-75431453D01*
X154676137Y-75431451D01*
X154678430Y-75426811D01*
X154743370Y-75213069D01*
X154772529Y-74991590D01*
X154773401Y-74955913D01*
X154774074Y-74928365D01*
X154774074Y-74928361D01*
X154774156Y-74925000D01*
X154755852Y-74702361D01*
X154701431Y-74485702D01*
X154612354Y-74280840D01*
X154525507Y-74146595D01*
X154493822Y-74097617D01*
X154493820Y-74097614D01*
X154491014Y-74093277D01*
X154487538Y-74089457D01*
X154487533Y-74089450D01*
X154343435Y-73931088D01*
X154312383Y-73867242D01*
X154320779Y-73796744D01*
X154365956Y-73741976D01*
X154392400Y-73728307D01*
X154499052Y-73688325D01*
X154514649Y-73679786D01*
X154616724Y-73603285D01*
X154629285Y-73590724D01*
X154705786Y-73488649D01*
X154714324Y-73473054D01*
X154759478Y-73352606D01*
X154763105Y-73337351D01*
X154768631Y-73286486D01*
X154769000Y-73279672D01*
X154769000Y-72657115D01*
X154764525Y-72641876D01*
X154763135Y-72640671D01*
X154755452Y-72639000D01*
X153283000Y-72639000D01*
X153214879Y-72618998D01*
X153168386Y-72565342D01*
X153157000Y-72513000D01*
X153157000Y-72112885D01*
X153665000Y-72112885D01*
X153669475Y-72128124D01*
X153670865Y-72129329D01*
X153678548Y-72131000D01*
X154750884Y-72131000D01*
X154766123Y-72126525D01*
X154767328Y-72125135D01*
X154768999Y-72117452D01*
X154768999Y-71490331D01*
X154768629Y-71483510D01*
X154763105Y-71432648D01*
X154759479Y-71417396D01*
X154714324Y-71296946D01*
X154705786Y-71281351D01*
X154629285Y-71179276D01*
X154616724Y-71166715D01*
X154514649Y-71090214D01*
X154499054Y-71081676D01*
X154378606Y-71036522D01*
X154363351Y-71032895D01*
X154312486Y-71027369D01*
X154305672Y-71027000D01*
X153683115Y-71027000D01*
X153667876Y-71031475D01*
X153666671Y-71032865D01*
X153665000Y-71040548D01*
X153665000Y-72112885D01*
X153157000Y-72112885D01*
X153157000Y-71045116D01*
X153152525Y-71029877D01*
X153151135Y-71028672D01*
X153143452Y-71027001D01*
X152516331Y-71027001D01*
X152509510Y-71027371D01*
X152458648Y-71032895D01*
X152443396Y-71036521D01*
X152322946Y-71081676D01*
X152307353Y-71090213D01*
X152301059Y-71094930D01*
X152234552Y-71119776D01*
X152165170Y-71104722D01*
X152136401Y-71083197D01*
X151717347Y-70664143D01*
X151683321Y-70601831D01*
X151688386Y-70531016D01*
X151730933Y-70474180D01*
X151797453Y-70449369D01*
X151822233Y-70450041D01*
G37*
%TD.AperFunction*%
%TD*%
M02*
