%FSLAX45Y45*%
G04 Gerber Fmt 4.5, Leading zero omitted, Abs format (unit mm)*
G04 Created by KiCad (PCBNEW 6.0.2+dfsg-1) date 2025-05-07 23:53:28*
%MOMM*%
%LPD*%
G01*
G04 APERTURE LIST*
%ADD10C,0.200000*%
%ADD11C,0.040000*%
%ADD12C,0.080000*%
%ADD13C,0.100000*%
%ADD14C,0.120000*%
%ADD15C,0.130000*%
G04 APERTURE END LIST*
D10*
D11*
X12138840Y-6979490D02*
X12178840Y-7019490D01*
X12178840Y-6979490D02*
X12138840Y-7019490D01*
X12299760Y-13687670D02*
X12339760Y-13727670D01*
X12339760Y-13687670D02*
X12299760Y-13727670D01*
X12440230Y-8088540D02*
X12480230Y-8128540D01*
X12480230Y-8088540D02*
X12440230Y-8128540D01*
X12534650Y-12654150D02*
X12574650Y-12694150D01*
X12574650Y-12654150D02*
X12534650Y-12694150D01*
X12607340Y-12106920D02*
X12647340Y-12146920D01*
X12647340Y-12106920D02*
X12607340Y-12146920D01*
X12636460Y-8098660D02*
X12676460Y-8138660D01*
X12676460Y-8098660D02*
X12636460Y-8138660D01*
X12636460Y-8608230D02*
X12676460Y-8648230D01*
X12676460Y-8608230D02*
X12636460Y-8648230D01*
X12695020Y-11857720D02*
X12735020Y-11897720D01*
X12735020Y-11857720D02*
X12695020Y-11897720D01*
X12695020Y-13204120D02*
X12735020Y-13244120D01*
X12735020Y-13204120D02*
X12695020Y-13244120D01*
X12766390Y-6880120D02*
X12806390Y-6920120D01*
X12806390Y-6880120D02*
X12766390Y-6920120D01*
X12814790Y-8023120D02*
X12854790Y-8063120D01*
X12854790Y-8023120D02*
X12814790Y-8063120D01*
X12950380Y-8131160D02*
X12990380Y-8171160D01*
X12990380Y-8131160D02*
X12950380Y-8171160D01*
X12950380Y-8422690D02*
X12990380Y-8462690D01*
X12990380Y-8422690D02*
X12950380Y-8462690D01*
X13034570Y-13178430D02*
X13074570Y-13218430D01*
X13074570Y-13178430D02*
X13034570Y-13218430D01*
X13086630Y-9756040D02*
X13126630Y-9796040D01*
X13126630Y-9756040D02*
X13086630Y-9796040D01*
X13127850Y-13013100D02*
X13167850Y-13053100D01*
X13167850Y-13013100D02*
X13127850Y-13053100D01*
X13154450Y-11227120D02*
X13194450Y-11267120D01*
X13194450Y-11227120D02*
X13154450Y-11267120D01*
X13204370Y-11806970D02*
X13244370Y-11846970D01*
X13244370Y-11806970D02*
X13204370Y-11846970D01*
X13211800Y-6880760D02*
X13251800Y-6920760D01*
X13251800Y-6880760D02*
X13211800Y-6920760D01*
X13236690Y-12969390D02*
X13276690Y-13009390D01*
X13276690Y-12969390D02*
X13236690Y-13009390D01*
X13288600Y-8526710D02*
X13328600Y-8566710D01*
X13328600Y-8526710D02*
X13288600Y-8566710D01*
X13318150Y-12721380D02*
X13358150Y-12761380D01*
X13358150Y-12721380D02*
X13318150Y-12761380D01*
X13318150Y-13162600D02*
X13358150Y-13202600D01*
X13358150Y-13162600D02*
X13318150Y-13202600D01*
X13332800Y-6435740D02*
X13372800Y-6475740D01*
X13372800Y-6435740D02*
X13332800Y-6475740D01*
X13410750Y-9379900D02*
X13450750Y-9419900D01*
X13450750Y-9379900D02*
X13410750Y-9419900D01*
X13440280Y-8526630D02*
X13480280Y-8566630D01*
X13480280Y-8526630D02*
X13440280Y-8566630D01*
X13499700Y-9036630D02*
X13539700Y-9076630D01*
X13539700Y-9036630D02*
X13499700Y-9076630D01*
X13527310Y-7714520D02*
X13567310Y-7754520D01*
X13567310Y-7714520D02*
X13527310Y-7754520D01*
X13541290Y-7865290D02*
X13581290Y-7905290D01*
X13581290Y-7865290D02*
X13541290Y-7905290D01*
X13545670Y-7534350D02*
X13585670Y-7574350D01*
X13585670Y-7534350D02*
X13545670Y-7574350D01*
X13558750Y-13153820D02*
X13598750Y-13193820D01*
X13598750Y-13153820D02*
X13558750Y-13193820D01*
X13563110Y-10886830D02*
X13603110Y-10926830D01*
X13603110Y-10886830D02*
X13563110Y-10926830D01*
X13563110Y-11689280D02*
X13603110Y-11729280D01*
X13603110Y-11689280D02*
X13563110Y-11729280D01*
X13594400Y-6380800D02*
X13634400Y-6420800D01*
X13634400Y-6380800D02*
X13594400Y-6420800D01*
X13796490Y-7067690D02*
X13836490Y-7107690D01*
X13836490Y-7067690D02*
X13796490Y-7107690D01*
X13921910Y-9490600D02*
X13961910Y-9530600D01*
X13961910Y-9490600D02*
X13921910Y-9530600D01*
X13928760Y-11587220D02*
X13968760Y-11627220D01*
X13968760Y-11587220D02*
X13928760Y-11627220D01*
X13962090Y-10254560D02*
X14002090Y-10294560D01*
X14002090Y-10254560D02*
X13962090Y-10294560D01*
X13970710Y-9223060D02*
X14010710Y-9263060D01*
X14010710Y-9223060D02*
X13970710Y-9263060D01*
X14006440Y-9421140D02*
X14046440Y-9461140D01*
X14046440Y-9421140D02*
X14006440Y-9461140D01*
X14020670Y-11760270D02*
X14060670Y-11800270D01*
X14060670Y-11760270D02*
X14020670Y-11800270D01*
X14036190Y-11024910D02*
X14076190Y-11064910D01*
X14076190Y-11024910D02*
X14036190Y-11064910D01*
X14036380Y-12956340D02*
X14076380Y-12996340D01*
X14076380Y-12956340D02*
X14036380Y-12996340D01*
X14078380Y-8440410D02*
X14118380Y-8480410D01*
X14118380Y-8440410D02*
X14078380Y-8480410D01*
X14121070Y-10163000D02*
X14161070Y-10203000D01*
X14161070Y-10163000D02*
X14121070Y-10203000D01*
X14182500Y-12172300D02*
X14222500Y-12212300D01*
X14222500Y-12172300D02*
X14182500Y-12212300D01*
X14262750Y-9622940D02*
X14302750Y-9662940D01*
X14302750Y-9622940D02*
X14262750Y-9662940D01*
X14287410Y-6051980D02*
X14327410Y-6091980D01*
X14327410Y-6051980D02*
X14287410Y-6091980D01*
X14341150Y-7682420D02*
X14381150Y-7722420D01*
X14381150Y-7682420D02*
X14341150Y-7722420D01*
X14341150Y-7918300D02*
X14381150Y-7958300D01*
X14381150Y-7918300D02*
X14341150Y-7958300D01*
X14517220Y-9769750D02*
X14557220Y-9809750D01*
X14557220Y-9769750D02*
X14517220Y-9809750D01*
X14519520Y-8103770D02*
X14559520Y-8143770D01*
X14559520Y-8103770D02*
X14519520Y-8143770D01*
X14625750Y-12296900D02*
X14665750Y-12336900D01*
X14665750Y-12296900D02*
X14625750Y-12336900D01*
X14626760Y-12533870D02*
X14666760Y-12573870D01*
X14666760Y-12533870D02*
X14626760Y-12573870D01*
X14637230Y-12871270D02*
X14677230Y-12911270D01*
X14677230Y-12871270D02*
X14637230Y-12911270D01*
X14709930Y-13251210D02*
X14749930Y-13291210D01*
X14749930Y-13251210D02*
X14709930Y-13291210D01*
X14727560Y-7053430D02*
X14767560Y-7093430D01*
X14767560Y-7053430D02*
X14727560Y-7093430D01*
X14729320Y-8255260D02*
X14769320Y-8295260D01*
X14769320Y-8255260D02*
X14729320Y-8295260D01*
X14800460Y-13186220D02*
X14840460Y-13226220D01*
X14840460Y-13186220D02*
X14800460Y-13226220D01*
X14840410Y-9974800D02*
X14880410Y-10014800D01*
X14880410Y-9974800D02*
X14840410Y-10014800D01*
X14851760Y-10401500D02*
X14891760Y-10441500D01*
X14891760Y-10401500D02*
X14851760Y-10441500D01*
X14882570Y-10542310D02*
X14922570Y-10582310D01*
X14922570Y-10542310D02*
X14882570Y-10582310D01*
X14891680Y-11821200D02*
X14931680Y-11861200D01*
X14931680Y-11821200D02*
X14891680Y-11861200D01*
X14920000Y-12881450D02*
X14960000Y-12921450D01*
X14960000Y-12881450D02*
X14920000Y-12921450D01*
X14934160Y-12124600D02*
X14974160Y-12164600D01*
X14974160Y-12124600D02*
X14934160Y-12164600D01*
X14943050Y-11947750D02*
X14983050Y-11987750D01*
X14983050Y-11947750D02*
X14943050Y-11987750D01*
X14957950Y-10002220D02*
X14997950Y-10042220D01*
X14997950Y-10002220D02*
X14957950Y-10042220D01*
X14963700Y-12649810D02*
X15003700Y-12689810D01*
X15003700Y-12649810D02*
X14963700Y-12689810D01*
X14992530Y-7616740D02*
X15032530Y-7656740D01*
X15032530Y-7616740D02*
X14992530Y-7656740D01*
X15016000Y-11487500D02*
X15056000Y-11527500D01*
X15056000Y-11487500D02*
X15016000Y-11527500D01*
X15031600Y-9869050D02*
X15071600Y-9909050D01*
X15071600Y-9869050D02*
X15031600Y-9909050D01*
X15036390Y-13130400D02*
X15076390Y-13170400D01*
X15076390Y-13130400D02*
X15036390Y-13170400D01*
X15090590Y-10470200D02*
X15130590Y-10510200D01*
X15130590Y-10470200D02*
X15090590Y-10510200D01*
X15100340Y-9796080D02*
X15140340Y-9836080D01*
X15140340Y-9796080D02*
X15100340Y-9836080D01*
X15110800Y-13210270D02*
X15150800Y-13250270D01*
X15150800Y-13210270D02*
X15110800Y-13250270D01*
X15180760Y-9634470D02*
X15220760Y-9674470D01*
X15220760Y-9634470D02*
X15180760Y-9674470D01*
X15212400Y-8253540D02*
X15252400Y-8293540D01*
X15252400Y-8253540D02*
X15212400Y-8293540D01*
X15300310Y-9530290D02*
X15340310Y-9570290D01*
X15340310Y-9530290D02*
X15300310Y-9570290D01*
X15303390Y-12519770D02*
X15343390Y-12559770D01*
X15343390Y-12519770D02*
X15303390Y-12559770D01*
X15387670Y-10299420D02*
X15427670Y-10339420D01*
X15427670Y-10299420D02*
X15387670Y-10339420D01*
X15427260Y-11303420D02*
X15467260Y-11343420D01*
X15467260Y-11303420D02*
X15427260Y-11343420D01*
X15427260Y-11939280D02*
X15467260Y-11979280D01*
X15467260Y-11939280D02*
X15427260Y-11979280D01*
X15464570Y-8815290D02*
X15504570Y-8855290D01*
X15504570Y-8815290D02*
X15464570Y-8855290D01*
X15475700Y-8638010D02*
X15515700Y-8678010D01*
X15515700Y-8638010D02*
X15475700Y-8678010D01*
X15479000Y-12666410D02*
X15519000Y-12706410D01*
X15519000Y-12666410D02*
X15479000Y-12706410D01*
X15479000Y-13239930D02*
X15519000Y-13279930D01*
X15519000Y-13239930D02*
X15479000Y-13279930D01*
X15480360Y-10559300D02*
X15520360Y-10599300D01*
X15520360Y-10559300D02*
X15480360Y-10599300D01*
X15554300Y-10206080D02*
X15594300Y-10246080D01*
X15594300Y-10206080D02*
X15554300Y-10246080D01*
X15572320Y-10960780D02*
X15612320Y-11000780D01*
X15612320Y-10960780D02*
X15572320Y-11000780D01*
X15573460Y-12916770D02*
X15613460Y-12956770D01*
X15613460Y-12916770D02*
X15573460Y-12956770D01*
X15575680Y-12016250D02*
X15615680Y-12056250D01*
X15615680Y-12016250D02*
X15575680Y-12056250D01*
X15592270Y-11679130D02*
X15632270Y-11719130D01*
X15632270Y-11679130D02*
X15592270Y-11719130D01*
X15639900Y-12238940D02*
X15679900Y-12278940D01*
X15679900Y-12238940D02*
X15639900Y-12278940D01*
X15652230Y-13129010D02*
X15692230Y-13169010D01*
X15692230Y-13129010D02*
X15652230Y-13169010D01*
X15660280Y-9583840D02*
X15700280Y-9623840D01*
X15700280Y-9583840D02*
X15660280Y-9623840D01*
X15902700Y-13134890D02*
X15942700Y-13174890D01*
X15942700Y-13134890D02*
X15902700Y-13174890D01*
X15948620Y-11077700D02*
X15988620Y-11117700D01*
X15988620Y-11077700D02*
X15948620Y-11117700D01*
X15991520Y-10897330D02*
X16031520Y-10937330D01*
X16031520Y-10897330D02*
X15991520Y-10937330D01*
X16003970Y-8789270D02*
X16043970Y-8829270D01*
X16043970Y-8789270D02*
X16003970Y-8829270D01*
X16010210Y-10414190D02*
X16050210Y-10454190D01*
X16050210Y-10414190D02*
X16010210Y-10454190D01*
X16046650Y-9166100D02*
X16086650Y-9206100D01*
X16086650Y-9166100D02*
X16046650Y-9206100D01*
X16060470Y-13021590D02*
X16100470Y-13061590D01*
X16100470Y-13021590D02*
X16060470Y-13061590D01*
X16098190Y-11383210D02*
X16138190Y-11423210D01*
X16138190Y-11383210D02*
X16098190Y-11423210D01*
X16102910Y-12903850D02*
X16142910Y-12943850D01*
X16142910Y-12903850D02*
X16102910Y-12943850D01*
X16164660Y-9726020D02*
X16204660Y-9766020D01*
X16204660Y-9726020D02*
X16164660Y-9766020D01*
X16178020Y-10620400D02*
X16218020Y-10660400D01*
X16218020Y-10620400D02*
X16178020Y-10660400D01*
X16179100Y-12611730D02*
X16219100Y-12651730D01*
X16219100Y-12611730D02*
X16179100Y-12651730D01*
X16231830Y-13175650D02*
X16271830Y-13215650D01*
X16271830Y-13175650D02*
X16231830Y-13215650D01*
X16232120Y-11829250D02*
X16272120Y-11869250D01*
X16272120Y-11829250D02*
X16232120Y-11869250D01*
X16357080Y-11631830D02*
X16397080Y-11671830D01*
X16397080Y-11631830D02*
X16357080Y-11671830D01*
X16379490Y-13162500D02*
X16419490Y-13202500D01*
X16419490Y-13162500D02*
X16379490Y-13202500D01*
X16435760Y-12531090D02*
X16475760Y-12571090D01*
X16475760Y-12531090D02*
X16435760Y-12571090D01*
X16435940Y-9820200D02*
X16475940Y-9860200D01*
X16475940Y-9820200D02*
X16435940Y-9860200D01*
X16543970Y-9502170D02*
X16583970Y-9542170D01*
X16583970Y-9502170D02*
X16543970Y-9542170D01*
X16575340Y-9969750D02*
X16615340Y-10009750D01*
X16615340Y-9969750D02*
X16575340Y-10009750D01*
X16582900Y-8068900D02*
X16622900Y-8108900D01*
X16622900Y-8068900D02*
X16582900Y-8108900D01*
X16824460Y-11597980D02*
X16864460Y-11637980D01*
X16864460Y-11597980D02*
X16824460Y-11637980D01*
X16929410Y-12996380D02*
X16969410Y-13036380D01*
X16969410Y-12996380D02*
X16929410Y-13036380D01*
X16982020Y-10020180D02*
X17022020Y-10060180D01*
X17022020Y-10020180D02*
X16982020Y-10060180D01*
X16991050Y-12108360D02*
X17031050Y-12148360D01*
X17031050Y-12108360D02*
X16991050Y-12148360D01*
X17115030Y-10615160D02*
X17155030Y-10655160D01*
X17155030Y-10615160D02*
X17115030Y-10655160D01*
X17313360Y-13671200D02*
X17353360Y-13711200D01*
X17353360Y-13671200D02*
X17313360Y-13711200D01*
D12*
X12316200Y-7518400D02*
G75*
G03*
X12316200Y-7518400I-40000J0D01*
G01*
X12340000Y-7874000D02*
G75*
G03*
X12340000Y-7874000I-40000J0D01*
G01*
X12340000Y-8128000D02*
G75*
G03*
X12340000Y-8128000I-40000J0D01*
G01*
X12340000Y-8382000D02*
G75*
G03*
X12340000Y-8382000I-40000J0D01*
G01*
X12340000Y-8636000D02*
G75*
G03*
X12340000Y-8636000I-40000J0D01*
G01*
X12340000Y-8890000D02*
G75*
G03*
X12340000Y-8890000I-40000J0D01*
G01*
X12340000Y-9144000D02*
G75*
G03*
X12340000Y-9144000I-40000J0D01*
G01*
X12340000Y-9398000D02*
G75*
G03*
X12340000Y-9398000I-40000J0D01*
G01*
X12340000Y-9652000D02*
G75*
G03*
X12340000Y-9652000I-40000J0D01*
G01*
X12340000Y-9906000D02*
G75*
G03*
X12340000Y-9906000I-40000J0D01*
G01*
X12340000Y-10160000D02*
G75*
G03*
X12340000Y-10160000I-40000J0D01*
G01*
X12340000Y-10414000D02*
G75*
G03*
X12340000Y-10414000I-40000J0D01*
G01*
X12340000Y-10668000D02*
G75*
G03*
X12340000Y-10668000I-40000J0D01*
G01*
X12340000Y-10922000D02*
G75*
G03*
X12340000Y-10922000I-40000J0D01*
G01*
X12340000Y-11176000D02*
G75*
G03*
X12340000Y-11176000I-40000J0D01*
G01*
X12340000Y-11430000D02*
G75*
G03*
X12340000Y-11430000I-40000J0D01*
G01*
X12340000Y-11684000D02*
G75*
G03*
X12340000Y-11684000I-40000J0D01*
G01*
X12340000Y-11938000D02*
G75*
G03*
X12340000Y-11938000I-40000J0D01*
G01*
X12340000Y-12192000D02*
G75*
G03*
X12340000Y-12192000I-40000J0D01*
G01*
X12340000Y-12446000D02*
G75*
G03*
X12340000Y-12446000I-40000J0D01*
G01*
X12340000Y-12700000D02*
G75*
G03*
X12340000Y-12700000I-40000J0D01*
G01*
X12816200Y-7518400D02*
G75*
G03*
X12816200Y-7518400I-40000J0D01*
G01*
X12892400Y-8255000D02*
G75*
G03*
X12892400Y-8255000I-40000J0D01*
G01*
X12892400Y-9271000D02*
G75*
G03*
X12892400Y-9271000I-40000J0D01*
G01*
X13349600Y-8255000D02*
G75*
G03*
X13349600Y-8255000I-40000J0D01*
G01*
X13349600Y-9271000D02*
G75*
G03*
X13349600Y-9271000I-40000J0D01*
G01*
X13864000Y-7874000D02*
G75*
G03*
X13864000Y-7874000I-40000J0D01*
G01*
X13864000Y-8128000D02*
G75*
G03*
X13864000Y-8128000I-40000J0D01*
G01*
X13864000Y-8382000D02*
G75*
G03*
X13864000Y-8382000I-40000J0D01*
G01*
X13864000Y-8636000D02*
G75*
G03*
X13864000Y-8636000I-40000J0D01*
G01*
X13864000Y-8890000D02*
G75*
G03*
X13864000Y-8890000I-40000J0D01*
G01*
X13864000Y-9144000D02*
G75*
G03*
X13864000Y-9144000I-40000J0D01*
G01*
X13864000Y-9398000D02*
G75*
G03*
X13864000Y-9398000I-40000J0D01*
G01*
X13864000Y-9652000D02*
G75*
G03*
X13864000Y-9652000I-40000J0D01*
G01*
X13864000Y-9906000D02*
G75*
G03*
X13864000Y-9906000I-40000J0D01*
G01*
X13864000Y-10160000D02*
G75*
G03*
X13864000Y-10160000I-40000J0D01*
G01*
X13864000Y-10414000D02*
G75*
G03*
X13864000Y-10414000I-40000J0D01*
G01*
X13864000Y-10668000D02*
G75*
G03*
X13864000Y-10668000I-40000J0D01*
G01*
X13864000Y-10922000D02*
G75*
G03*
X13864000Y-10922000I-40000J0D01*
G01*
X13864000Y-11176000D02*
G75*
G03*
X13864000Y-11176000I-40000J0D01*
G01*
X13864000Y-11430000D02*
G75*
G03*
X13864000Y-11430000I-40000J0D01*
G01*
X13864000Y-11684000D02*
G75*
G03*
X13864000Y-11684000I-40000J0D01*
G01*
X13864000Y-11938000D02*
G75*
G03*
X13864000Y-11938000I-40000J0D01*
G01*
X13864000Y-12192000D02*
G75*
G03*
X13864000Y-12192000I-40000J0D01*
G01*
X13864000Y-12446000D02*
G75*
G03*
X13864000Y-12446000I-40000J0D01*
G01*
X13864000Y-12700000D02*
G75*
G03*
X13864000Y-12700000I-40000J0D01*
G01*
X14264000Y-8026400D02*
G75*
G03*
X14264000Y-8026400I-40000J0D01*
G01*
X14264000Y-9042400D02*
G75*
G03*
X14264000Y-9042400I-40000J0D01*
G01*
X14492600Y-10109200D02*
G75*
G03*
X14492600Y-10109200I-40000J0D01*
G01*
X14492600Y-10363200D02*
G75*
G03*
X14492600Y-10363200I-40000J0D01*
G01*
X14492600Y-10617200D02*
G75*
G03*
X14492600Y-10617200I-40000J0D01*
G01*
X14492600Y-10871200D02*
G75*
G03*
X14492600Y-10871200I-40000J0D01*
G01*
X14492600Y-11125200D02*
G75*
G03*
X14492600Y-11125200I-40000J0D01*
G01*
X14492600Y-11379200D02*
G75*
G03*
X14492600Y-11379200I-40000J0D01*
G01*
X14492600Y-11633200D02*
G75*
G03*
X14492600Y-11633200I-40000J0D01*
G01*
X14492600Y-11887200D02*
G75*
G03*
X14492600Y-11887200I-40000J0D01*
G01*
X14492600Y-12141200D02*
G75*
G03*
X14492600Y-12141200I-40000J0D01*
G01*
X14492600Y-12395200D02*
G75*
G03*
X14492600Y-12395200I-40000J0D01*
G01*
X14492600Y-12649200D02*
G75*
G03*
X14492600Y-12649200I-40000J0D01*
G01*
X14492600Y-12903200D02*
G75*
G03*
X14492600Y-12903200I-40000J0D01*
G01*
X14797400Y-8030400D02*
G75*
G03*
X14797400Y-8030400I-40000J0D01*
G01*
X14797400Y-8530400D02*
G75*
G03*
X14797400Y-8530400I-40000J0D01*
G01*
X15254600Y-8034400D02*
G75*
G03*
X15254600Y-8034400I-40000J0D01*
G01*
X15254600Y-8534400D02*
G75*
G03*
X15254600Y-8534400I-40000J0D01*
G01*
X15254600Y-10109200D02*
G75*
G03*
X15254600Y-10109200I-40000J0D01*
G01*
X15254600Y-10363200D02*
G75*
G03*
X15254600Y-10363200I-40000J0D01*
G01*
X15254600Y-10617200D02*
G75*
G03*
X15254600Y-10617200I-40000J0D01*
G01*
X15254600Y-10871200D02*
G75*
G03*
X15254600Y-10871200I-40000J0D01*
G01*
X15254600Y-11125200D02*
G75*
G03*
X15254600Y-11125200I-40000J0D01*
G01*
X15254600Y-11379200D02*
G75*
G03*
X15254600Y-11379200I-40000J0D01*
G01*
X15254600Y-11633200D02*
G75*
G03*
X15254600Y-11633200I-40000J0D01*
G01*
X15254600Y-11887200D02*
G75*
G03*
X15254600Y-11887200I-40000J0D01*
G01*
X15254600Y-12141200D02*
G75*
G03*
X15254600Y-12141200I-40000J0D01*
G01*
X15254600Y-12395200D02*
G75*
G03*
X15254600Y-12395200I-40000J0D01*
G01*
X15254600Y-12649200D02*
G75*
G03*
X15254600Y-12649200I-40000J0D01*
G01*
X15254600Y-12903200D02*
G75*
G03*
X15254600Y-12903200I-40000J0D01*
G01*
X15559400Y-9351200D02*
G75*
G03*
X15559400Y-9351200I-40000J0D01*
G01*
X15559400Y-9851200D02*
G75*
G03*
X15559400Y-9851200I-40000J0D01*
G01*
X15609200Y-8254000D02*
G75*
G03*
X15609200Y-8254000I-40000J0D01*
G01*
X15609200Y-9016000D02*
G75*
G03*
X15609200Y-9016000I-40000J0D01*
G01*
X15863200Y-8254000D02*
G75*
G03*
X15863200Y-8254000I-40000J0D01*
G01*
X15863200Y-9016000D02*
G75*
G03*
X15863200Y-9016000I-40000J0D01*
G01*
X15877500Y-9396500D02*
G75*
G03*
X15877500Y-9396500I-40000J0D01*
G01*
X15877500Y-9650500D02*
G75*
G03*
X15877500Y-9650500I-40000J0D01*
G01*
X15877500Y-9904500D02*
G75*
G03*
X15877500Y-9904500I-40000J0D01*
G01*
X15877500Y-10158500D02*
G75*
G03*
X15877500Y-10158500I-40000J0D01*
G01*
X15877500Y-10412500D02*
G75*
G03*
X15877500Y-10412500I-40000J0D01*
G01*
X15877500Y-10666500D02*
G75*
G03*
X15877500Y-10666500I-40000J0D01*
G01*
X15877500Y-10920500D02*
G75*
G03*
X15877500Y-10920500I-40000J0D01*
G01*
X15877500Y-11174500D02*
G75*
G03*
X15877500Y-11174500I-40000J0D01*
G01*
X15877500Y-11428500D02*
G75*
G03*
X15877500Y-11428500I-40000J0D01*
G01*
X15877500Y-11682500D02*
G75*
G03*
X15877500Y-11682500I-40000J0D01*
G01*
X15877500Y-11936500D02*
G75*
G03*
X15877500Y-11936500I-40000J0D01*
G01*
X15877500Y-12190500D02*
G75*
G03*
X15877500Y-12190500I-40000J0D01*
G01*
X15877500Y-12444500D02*
G75*
G03*
X15877500Y-12444500I-40000J0D01*
G01*
X15877500Y-12698500D02*
G75*
G03*
X15877500Y-12698500I-40000J0D01*
G01*
X16117200Y-8254000D02*
G75*
G03*
X16117200Y-8254000I-40000J0D01*
G01*
X16117200Y-9016000D02*
G75*
G03*
X16117200Y-9016000I-40000J0D01*
G01*
X16371200Y-8254000D02*
G75*
G03*
X16371200Y-8254000I-40000J0D01*
G01*
X16371200Y-9016000D02*
G75*
G03*
X16371200Y-9016000I-40000J0D01*
G01*
X16625200Y-8254000D02*
G75*
G03*
X16625200Y-8254000I-40000J0D01*
G01*
X16625200Y-9016000D02*
G75*
G03*
X16625200Y-9016000I-40000J0D01*
G01*
X16627200Y-7161800D02*
G75*
G03*
X16627200Y-7161800I-40000J0D01*
G01*
X16627200Y-7923800D02*
G75*
G03*
X16627200Y-7923800I-40000J0D01*
G01*
X16879200Y-8254000D02*
G75*
G03*
X16879200Y-8254000I-40000J0D01*
G01*
X16879200Y-9016000D02*
G75*
G03*
X16879200Y-9016000I-40000J0D01*
G01*
X16881200Y-7161800D02*
G75*
G03*
X16881200Y-7161800I-40000J0D01*
G01*
X16881200Y-7923800D02*
G75*
G03*
X16881200Y-7923800I-40000J0D01*
G01*
X17133200Y-8254000D02*
G75*
G03*
X17133200Y-8254000I-40000J0D01*
G01*
X17133200Y-9016000D02*
G75*
G03*
X17133200Y-9016000I-40000J0D01*
G01*
X17135200Y-7161800D02*
G75*
G03*
X17135200Y-7161800I-40000J0D01*
G01*
X17135200Y-7923800D02*
G75*
G03*
X17135200Y-7923800I-40000J0D01*
G01*
X17387200Y-8254000D02*
G75*
G03*
X17387200Y-8254000I-40000J0D01*
G01*
X17387200Y-9016000D02*
G75*
G03*
X17387200Y-9016000I-40000J0D01*
G01*
X17389200Y-7161800D02*
G75*
G03*
X17389200Y-7161800I-40000J0D01*
G01*
X17389200Y-7923800D02*
G75*
G03*
X17389200Y-7923800I-40000J0D01*
G01*
X17401500Y-9396500D02*
G75*
G03*
X17401500Y-9396500I-40000J0D01*
G01*
X17401500Y-9650500D02*
G75*
G03*
X17401500Y-9650500I-40000J0D01*
G01*
X17401500Y-9904500D02*
G75*
G03*
X17401500Y-9904500I-40000J0D01*
G01*
X17401500Y-10158500D02*
G75*
G03*
X17401500Y-10158500I-40000J0D01*
G01*
X17401500Y-10412500D02*
G75*
G03*
X17401500Y-10412500I-40000J0D01*
G01*
X17401500Y-10666500D02*
G75*
G03*
X17401500Y-10666500I-40000J0D01*
G01*
X17401500Y-10920500D02*
G75*
G03*
X17401500Y-10920500I-40000J0D01*
G01*
X17401500Y-11174500D02*
G75*
G03*
X17401500Y-11174500I-40000J0D01*
G01*
X17401500Y-11428500D02*
G75*
G03*
X17401500Y-11428500I-40000J0D01*
G01*
X17401500Y-11682500D02*
G75*
G03*
X17401500Y-11682500I-40000J0D01*
G01*
X17401500Y-11936500D02*
G75*
G03*
X17401500Y-11936500I-40000J0D01*
G01*
X17401500Y-12190500D02*
G75*
G03*
X17401500Y-12190500I-40000J0D01*
G01*
X17401500Y-12444500D02*
G75*
G03*
X17401500Y-12444500I-40000J0D01*
G01*
X17401500Y-12698500D02*
G75*
G03*
X17401500Y-12698500I-40000J0D01*
G01*
D13*
X14325100Y-7188500D02*
X14325100Y-7288500D01*
X14275100Y-7238500D02*
X14375100Y-7238500D01*
X14325100Y-7442500D02*
X14325100Y-7542500D01*
X14275100Y-7492500D02*
X14375100Y-7492500D01*
X14579100Y-7188500D02*
X14579100Y-7288500D01*
X14529100Y-7238500D02*
X14629100Y-7238500D01*
X14579100Y-7442500D02*
X14579100Y-7542500D01*
X14529100Y-7492500D02*
X14629100Y-7492500D01*
X14706600Y-5512600D02*
X14706600Y-5612600D01*
X14656600Y-5562600D02*
X14756600Y-5562600D01*
X14706600Y-5766600D02*
X14706600Y-5866600D01*
X14656600Y-5816600D02*
X14756600Y-5816600D01*
X14706600Y-6020600D02*
X14706600Y-6120600D01*
X14656600Y-6070600D02*
X14756600Y-6070600D01*
X14706600Y-6274600D02*
X14706600Y-6374600D01*
X14656600Y-6324600D02*
X14756600Y-6324600D01*
X14706600Y-6528600D02*
X14706600Y-6628600D01*
X14656600Y-6578600D02*
X14756600Y-6578600D01*
X14833100Y-7188500D02*
X14833100Y-7288500D01*
X14783100Y-7238500D02*
X14883100Y-7238500D01*
X14833100Y-7442500D02*
X14833100Y-7542500D01*
X14783100Y-7492500D02*
X14883100Y-7492500D01*
X14960600Y-5512600D02*
X14960600Y-5612600D01*
X14910600Y-5562600D02*
X15010600Y-5562600D01*
X14960600Y-5766600D02*
X14960600Y-5866600D01*
X14910600Y-5816600D02*
X15010600Y-5816600D01*
X14960600Y-6020600D02*
X14960600Y-6120600D01*
X14910600Y-6070600D02*
X15010600Y-6070600D01*
X14960600Y-6274600D02*
X14960600Y-6374600D01*
X14910600Y-6324600D02*
X15010600Y-6324600D01*
X14960600Y-6528600D02*
X14960600Y-6628600D01*
X14910600Y-6578600D02*
X15010600Y-6578600D01*
X15087100Y-7188500D02*
X15087100Y-7288500D01*
X15037100Y-7238500D02*
X15137100Y-7238500D01*
X15087100Y-7442500D02*
X15087100Y-7542500D01*
X15037100Y-7492500D02*
X15137100Y-7492500D01*
X15341100Y-7188500D02*
X15341100Y-7288500D01*
X15291100Y-7238500D02*
X15391100Y-7238500D01*
X15341100Y-7442500D02*
X15341100Y-7542500D01*
X15291100Y-7492500D02*
X15391100Y-7492500D01*
D14*
X12590027Y-5401827D02*
X12590027Y-5316973D01*
X12505173Y-5316973D01*
X12505173Y-5401827D01*
X12590027Y-5401827D01*
X12840027Y-5371827D02*
X12840027Y-5286973D01*
X12755173Y-5286973D01*
X12755173Y-5371827D01*
X12840027Y-5371827D01*
X13340027Y-5371827D02*
X13340027Y-5286973D01*
X13255173Y-5286973D01*
X13255173Y-5371827D01*
X13340027Y-5371827D01*
X13590027Y-5401827D02*
X13590027Y-5316973D01*
X13505173Y-5316973D01*
X13505173Y-5401827D01*
X13590027Y-5401827D01*
X16120627Y-5401827D02*
X16120627Y-5316973D01*
X16035773Y-5316973D01*
X16035773Y-5401827D01*
X16120627Y-5401827D01*
X16370627Y-5371827D02*
X16370627Y-5286973D01*
X16285773Y-5286973D01*
X16285773Y-5371827D01*
X16370627Y-5371827D01*
X16870627Y-5371827D02*
X16870627Y-5286973D01*
X16785773Y-5286973D01*
X16785773Y-5371827D01*
X16870627Y-5371827D01*
X17120627Y-5401827D02*
X17120627Y-5316973D01*
X17035773Y-5316973D01*
X17035773Y-5401827D01*
X17120627Y-5401827D01*
D15*
X12297600Y-6394400D02*
X12362600Y-6329400D01*
X12297600Y-6264400D01*
X12232600Y-6329400D01*
X12297600Y-6394400D01*
X12547600Y-6644400D02*
X12612600Y-6579400D01*
X12547600Y-6514400D01*
X12482600Y-6579400D01*
X12547600Y-6644400D01*
X13047600Y-6394400D02*
X13112600Y-6329400D01*
X13047600Y-6264400D01*
X12982600Y-6329400D01*
X13047600Y-6394400D01*
X13047600Y-6894400D02*
X13112600Y-6829400D01*
X13047600Y-6764400D01*
X12982600Y-6829400D01*
X13047600Y-6894400D01*
X13547600Y-6644400D02*
X13612600Y-6579400D01*
X13547600Y-6514400D01*
X13482600Y-6579400D01*
X13547600Y-6644400D01*
X13797600Y-6394400D02*
X13862600Y-6329400D01*
X13797600Y-6264400D01*
X13732600Y-6329400D01*
X13797600Y-6394400D01*
X15828200Y-6394400D02*
X15893200Y-6329400D01*
X15828200Y-6264400D01*
X15763200Y-6329400D01*
X15828200Y-6394400D01*
X16078200Y-6644400D02*
X16143200Y-6579400D01*
X16078200Y-6514400D01*
X16013200Y-6579400D01*
X16078200Y-6644400D01*
X16578200Y-6394400D02*
X16643200Y-6329400D01*
X16578200Y-6264400D01*
X16513200Y-6329400D01*
X16578200Y-6394400D01*
X16578200Y-6894400D02*
X16643200Y-6829400D01*
X16578200Y-6764400D01*
X16513200Y-6829400D01*
X16578200Y-6894400D01*
X17078200Y-6644400D02*
X17143200Y-6579400D01*
X17078200Y-6514400D01*
X17013200Y-6579400D01*
X17078200Y-6644400D01*
X17328200Y-6394400D02*
X17393200Y-6329400D01*
X17328200Y-6264400D01*
X17263200Y-6329400D01*
X17328200Y-6394400D01*
D10*
X12280429Y-14588936D02*
X12280429Y-14388936D01*
X12328048Y-14388936D01*
X12356619Y-14398460D01*
X12375667Y-14417508D01*
X12385191Y-14436555D01*
X12394715Y-14474650D01*
X12394715Y-14503222D01*
X12385191Y-14541317D01*
X12375667Y-14560365D01*
X12356619Y-14579412D01*
X12328048Y-14588936D01*
X12280429Y-14588936D01*
X12480429Y-14588936D02*
X12480429Y-14455603D01*
X12480429Y-14493698D02*
X12489953Y-14474650D01*
X12499477Y-14465127D01*
X12518524Y-14455603D01*
X12537572Y-14455603D01*
X12604238Y-14588936D02*
X12604238Y-14455603D01*
X12604238Y-14388936D02*
X12594715Y-14398460D01*
X12604238Y-14407984D01*
X12613762Y-14398460D01*
X12604238Y-14388936D01*
X12604238Y-14407984D01*
X12728048Y-14588936D02*
X12709000Y-14579412D01*
X12699477Y-14560365D01*
X12699477Y-14388936D01*
X12832810Y-14588936D02*
X12813762Y-14579412D01*
X12804238Y-14560365D01*
X12804238Y-14388936D01*
X13061381Y-14588936D02*
X13061381Y-14388936D01*
X13128048Y-14531793D01*
X13194715Y-14388936D01*
X13194715Y-14588936D01*
X13375667Y-14588936D02*
X13375667Y-14484174D01*
X13366143Y-14465127D01*
X13347096Y-14455603D01*
X13309000Y-14455603D01*
X13289953Y-14465127D01*
X13375667Y-14579412D02*
X13356619Y-14588936D01*
X13309000Y-14588936D01*
X13289953Y-14579412D01*
X13280429Y-14560365D01*
X13280429Y-14541317D01*
X13289953Y-14522269D01*
X13309000Y-14512746D01*
X13356619Y-14512746D01*
X13375667Y-14503222D01*
X13470905Y-14455603D02*
X13470905Y-14655603D01*
X13470905Y-14465127D02*
X13489953Y-14455603D01*
X13528048Y-14455603D01*
X13547096Y-14465127D01*
X13556619Y-14474650D01*
X13566143Y-14493698D01*
X13566143Y-14550841D01*
X13556619Y-14569888D01*
X13547096Y-14579412D01*
X13528048Y-14588936D01*
X13489953Y-14588936D01*
X13470905Y-14579412D01*
X13651858Y-14569888D02*
X13661381Y-14579412D01*
X13651858Y-14588936D01*
X13642334Y-14579412D01*
X13651858Y-14569888D01*
X13651858Y-14588936D01*
X13651858Y-14465127D02*
X13661381Y-14474650D01*
X13651858Y-14484174D01*
X13642334Y-14474650D01*
X13651858Y-14465127D01*
X13651858Y-14484174D01*
D11*
X11982810Y-14898460D02*
X12022810Y-14938460D01*
X12022810Y-14898460D02*
X11982810Y-14938460D01*
D10*
X12318524Y-14808936D02*
X12337572Y-14808936D01*
X12356619Y-14818460D01*
X12366143Y-14827984D01*
X12375667Y-14847031D01*
X12385191Y-14885127D01*
X12385191Y-14932746D01*
X12375667Y-14970841D01*
X12366143Y-14989888D01*
X12356619Y-14999412D01*
X12337572Y-15008936D01*
X12318524Y-15008936D01*
X12299477Y-14999412D01*
X12289953Y-14989888D01*
X12280429Y-14970841D01*
X12270905Y-14932746D01*
X12270905Y-14885127D01*
X12280429Y-14847031D01*
X12289953Y-14827984D01*
X12299477Y-14818460D01*
X12318524Y-14808936D01*
X12470905Y-14989888D02*
X12480429Y-14999412D01*
X12470905Y-15008936D01*
X12461381Y-14999412D01*
X12470905Y-14989888D01*
X12470905Y-15008936D01*
X12651858Y-14875603D02*
X12651858Y-15008936D01*
X12604238Y-14799412D02*
X12556619Y-14942269D01*
X12680429Y-14942269D01*
X12794715Y-14808936D02*
X12813762Y-14808936D01*
X12832810Y-14818460D01*
X12842334Y-14827984D01*
X12851858Y-14847031D01*
X12861381Y-14885127D01*
X12861381Y-14932746D01*
X12851858Y-14970841D01*
X12842334Y-14989888D01*
X12832810Y-14999412D01*
X12813762Y-15008936D01*
X12794715Y-15008936D01*
X12775667Y-14999412D01*
X12766143Y-14989888D01*
X12756619Y-14970841D01*
X12747096Y-14932746D01*
X12747096Y-14885127D01*
X12756619Y-14847031D01*
X12766143Y-14827984D01*
X12775667Y-14818460D01*
X12794715Y-14808936D01*
X12985191Y-14808936D02*
X13004238Y-14808936D01*
X13023286Y-14818460D01*
X13032810Y-14827984D01*
X13042334Y-14847031D01*
X13051858Y-14885127D01*
X13051858Y-14932746D01*
X13042334Y-14970841D01*
X13032810Y-14989888D01*
X13023286Y-14999412D01*
X13004238Y-15008936D01*
X12985191Y-15008936D01*
X12966143Y-14999412D01*
X12956619Y-14989888D01*
X12947096Y-14970841D01*
X12937572Y-14932746D01*
X12937572Y-14885127D01*
X12947096Y-14847031D01*
X12956619Y-14827984D01*
X12966143Y-14818460D01*
X12985191Y-14808936D01*
X13137572Y-15008936D02*
X13137572Y-14875603D01*
X13137572Y-14894650D02*
X13147096Y-14885127D01*
X13166143Y-14875603D01*
X13194715Y-14875603D01*
X13213762Y-14885127D01*
X13223286Y-14904174D01*
X13223286Y-15008936D01*
X13223286Y-14904174D02*
X13232810Y-14885127D01*
X13251858Y-14875603D01*
X13280429Y-14875603D01*
X13299477Y-14885127D01*
X13309000Y-14904174D01*
X13309000Y-15008936D01*
X13404238Y-15008936D02*
X13404238Y-14875603D01*
X13404238Y-14894650D02*
X13413762Y-14885127D01*
X13432810Y-14875603D01*
X13461381Y-14875603D01*
X13480429Y-14885127D01*
X13489953Y-14904174D01*
X13489953Y-15008936D01*
X13489953Y-14904174D02*
X13499477Y-14885127D01*
X13518524Y-14875603D01*
X13547096Y-14875603D01*
X13566143Y-14885127D01*
X13575667Y-14904174D01*
X13575667Y-15008936D01*
X13966143Y-14799412D02*
X13794715Y-15056555D01*
X14223286Y-14808936D02*
X14242334Y-14808936D01*
X14261381Y-14818460D01*
X14270905Y-14827984D01*
X14280429Y-14847031D01*
X14289953Y-14885127D01*
X14289953Y-14932746D01*
X14280429Y-14970841D01*
X14270905Y-14989888D01*
X14261381Y-14999412D01*
X14242334Y-15008936D01*
X14223286Y-15008936D01*
X14204238Y-14999412D01*
X14194715Y-14989888D01*
X14185191Y-14970841D01*
X14175667Y-14932746D01*
X14175667Y-14885127D01*
X14185191Y-14847031D01*
X14194715Y-14827984D01*
X14204238Y-14818460D01*
X14223286Y-14808936D01*
X14375667Y-14989888D02*
X14385191Y-14999412D01*
X14375667Y-15008936D01*
X14366143Y-14999412D01*
X14375667Y-14989888D01*
X14375667Y-15008936D01*
X14509000Y-14808936D02*
X14528048Y-14808936D01*
X14547096Y-14818460D01*
X14556619Y-14827984D01*
X14566143Y-14847031D01*
X14575667Y-14885127D01*
X14575667Y-14932746D01*
X14566143Y-14970841D01*
X14556619Y-14989888D01*
X14547096Y-14999412D01*
X14528048Y-15008936D01*
X14509000Y-15008936D01*
X14489953Y-14999412D01*
X14480429Y-14989888D01*
X14470905Y-14970841D01*
X14461381Y-14932746D01*
X14461381Y-14885127D01*
X14470905Y-14847031D01*
X14480429Y-14827984D01*
X14489953Y-14818460D01*
X14509000Y-14808936D01*
X14766143Y-15008936D02*
X14651858Y-15008936D01*
X14709000Y-15008936D02*
X14709000Y-14808936D01*
X14689953Y-14837508D01*
X14670905Y-14856555D01*
X14651858Y-14866079D01*
X14947096Y-14808936D02*
X14851858Y-14808936D01*
X14842334Y-14904174D01*
X14851858Y-14894650D01*
X14870905Y-14885127D01*
X14918524Y-14885127D01*
X14937572Y-14894650D01*
X14947096Y-14904174D01*
X14956619Y-14923222D01*
X14956619Y-14970841D01*
X14947096Y-14989888D01*
X14937572Y-14999412D01*
X14918524Y-15008936D01*
X14870905Y-15008936D01*
X14851858Y-14999412D01*
X14842334Y-14989888D01*
X15023286Y-14808936D02*
X15156619Y-14808936D01*
X15070905Y-15008936D01*
X15223286Y-14808936D02*
X15223286Y-14847031D01*
X15299477Y-14808936D02*
X15299477Y-14847031D01*
X15594715Y-15085127D02*
X15585191Y-15075603D01*
X15566143Y-15047031D01*
X15556619Y-15027984D01*
X15547096Y-14999412D01*
X15537572Y-14951793D01*
X15537572Y-14913698D01*
X15547096Y-14866079D01*
X15556619Y-14837508D01*
X15566143Y-14818460D01*
X15585191Y-14789888D01*
X15594715Y-14780365D01*
X15775667Y-15008936D02*
X15661381Y-15008936D01*
X15718524Y-15008936D02*
X15718524Y-14808936D01*
X15699477Y-14837508D01*
X15680429Y-14856555D01*
X15661381Y-14866079D01*
X15851858Y-14827984D02*
X15861381Y-14818460D01*
X15880429Y-14808936D01*
X15928048Y-14808936D01*
X15947096Y-14818460D01*
X15956619Y-14827984D01*
X15966143Y-14847031D01*
X15966143Y-14866079D01*
X15956619Y-14894650D01*
X15842334Y-15008936D01*
X15966143Y-15008936D01*
X16042334Y-14827984D02*
X16051858Y-14818460D01*
X16070905Y-14808936D01*
X16118524Y-14808936D01*
X16137572Y-14818460D01*
X16147096Y-14827984D01*
X16156619Y-14847031D01*
X16156619Y-14866079D01*
X16147096Y-14894650D01*
X16032810Y-15008936D01*
X16156619Y-15008936D01*
X16394715Y-15008936D02*
X16394715Y-14808936D01*
X16480429Y-15008936D02*
X16480429Y-14904174D01*
X16470905Y-14885127D01*
X16451858Y-14875603D01*
X16423286Y-14875603D01*
X16404238Y-14885127D01*
X16394715Y-14894650D01*
X16604238Y-15008936D02*
X16585191Y-14999412D01*
X16575667Y-14989888D01*
X16566143Y-14970841D01*
X16566143Y-14913698D01*
X16575667Y-14894650D01*
X16585191Y-14885127D01*
X16604238Y-14875603D01*
X16632810Y-14875603D01*
X16651858Y-14885127D01*
X16661381Y-14894650D01*
X16670905Y-14913698D01*
X16670905Y-14970841D01*
X16661381Y-14989888D01*
X16651858Y-14999412D01*
X16632810Y-15008936D01*
X16604238Y-15008936D01*
X16785191Y-15008936D02*
X16766143Y-14999412D01*
X16756619Y-14980365D01*
X16756619Y-14808936D01*
X16937572Y-14999412D02*
X16918524Y-15008936D01*
X16880429Y-15008936D01*
X16861381Y-14999412D01*
X16851858Y-14980365D01*
X16851858Y-14904174D01*
X16861381Y-14885127D01*
X16880429Y-14875603D01*
X16918524Y-14875603D01*
X16937572Y-14885127D01*
X16947096Y-14904174D01*
X16947096Y-14923222D01*
X16851858Y-14942269D01*
X17023286Y-14999412D02*
X17042334Y-15008936D01*
X17080429Y-15008936D01*
X17099477Y-14999412D01*
X17109000Y-14980365D01*
X17109000Y-14970841D01*
X17099477Y-14951793D01*
X17080429Y-14942269D01*
X17051858Y-14942269D01*
X17032810Y-14932746D01*
X17023286Y-14913698D01*
X17023286Y-14904174D01*
X17032810Y-14885127D01*
X17051858Y-14875603D01*
X17080429Y-14875603D01*
X17099477Y-14885127D01*
X17175667Y-15085127D02*
X17185191Y-15075603D01*
X17204239Y-15047031D01*
X17213762Y-15027984D01*
X17223286Y-14999412D01*
X17232810Y-14951793D01*
X17232810Y-14913698D01*
X17223286Y-14866079D01*
X17213762Y-14837508D01*
X17204239Y-14818460D01*
X17185191Y-14789888D01*
X17175667Y-14780365D01*
D12*
X12022810Y-15182460D02*
G75*
G03*
X12022810Y-15182460I-40000J0D01*
G01*
D10*
X12318524Y-15072936D02*
X12337572Y-15072936D01*
X12356619Y-15082460D01*
X12366143Y-15091984D01*
X12375667Y-15111031D01*
X12385191Y-15149127D01*
X12385191Y-15196746D01*
X12375667Y-15234841D01*
X12366143Y-15253888D01*
X12356619Y-15263412D01*
X12337572Y-15272936D01*
X12318524Y-15272936D01*
X12299477Y-15263412D01*
X12289953Y-15253888D01*
X12280429Y-15234841D01*
X12270905Y-15196746D01*
X12270905Y-15149127D01*
X12280429Y-15111031D01*
X12289953Y-15091984D01*
X12299477Y-15082460D01*
X12318524Y-15072936D01*
X12470905Y-15253888D02*
X12480429Y-15263412D01*
X12470905Y-15272936D01*
X12461381Y-15263412D01*
X12470905Y-15253888D01*
X12470905Y-15272936D01*
X12594715Y-15158650D02*
X12575667Y-15149127D01*
X12566143Y-15139603D01*
X12556619Y-15120555D01*
X12556619Y-15111031D01*
X12566143Y-15091984D01*
X12575667Y-15082460D01*
X12594715Y-15072936D01*
X12632810Y-15072936D01*
X12651858Y-15082460D01*
X12661381Y-15091984D01*
X12670905Y-15111031D01*
X12670905Y-15120555D01*
X12661381Y-15139603D01*
X12651858Y-15149127D01*
X12632810Y-15158650D01*
X12594715Y-15158650D01*
X12575667Y-15168174D01*
X12566143Y-15177698D01*
X12556619Y-15196746D01*
X12556619Y-15234841D01*
X12566143Y-15253888D01*
X12575667Y-15263412D01*
X12594715Y-15272936D01*
X12632810Y-15272936D01*
X12651858Y-15263412D01*
X12661381Y-15253888D01*
X12670905Y-15234841D01*
X12670905Y-15196746D01*
X12661381Y-15177698D01*
X12651858Y-15168174D01*
X12632810Y-15158650D01*
X12794715Y-15072936D02*
X12813762Y-15072936D01*
X12832810Y-15082460D01*
X12842334Y-15091984D01*
X12851858Y-15111031D01*
X12861381Y-15149127D01*
X12861381Y-15196746D01*
X12851858Y-15234841D01*
X12842334Y-15253888D01*
X12832810Y-15263412D01*
X12813762Y-15272936D01*
X12794715Y-15272936D01*
X12775667Y-15263412D01*
X12766143Y-15253888D01*
X12756619Y-15234841D01*
X12747096Y-15196746D01*
X12747096Y-15149127D01*
X12756619Y-15111031D01*
X12766143Y-15091984D01*
X12775667Y-15082460D01*
X12794715Y-15072936D01*
X12985191Y-15072936D02*
X13004238Y-15072936D01*
X13023286Y-15082460D01*
X13032810Y-15091984D01*
X13042334Y-15111031D01*
X13051858Y-15149127D01*
X13051858Y-15196746D01*
X13042334Y-15234841D01*
X13032810Y-15253888D01*
X13023286Y-15263412D01*
X13004238Y-15272936D01*
X12985191Y-15272936D01*
X12966143Y-15263412D01*
X12956619Y-15253888D01*
X12947096Y-15234841D01*
X12937572Y-15196746D01*
X12937572Y-15149127D01*
X12947096Y-15111031D01*
X12956619Y-15091984D01*
X12966143Y-15082460D01*
X12985191Y-15072936D01*
X13137572Y-15272936D02*
X13137572Y-15139603D01*
X13137572Y-15158650D02*
X13147096Y-15149127D01*
X13166143Y-15139603D01*
X13194715Y-15139603D01*
X13213762Y-15149127D01*
X13223286Y-15168174D01*
X13223286Y-15272936D01*
X13223286Y-15168174D02*
X13232810Y-15149127D01*
X13251858Y-15139603D01*
X13280429Y-15139603D01*
X13299477Y-15149127D01*
X13309000Y-15168174D01*
X13309000Y-15272936D01*
X13404238Y-15272936D02*
X13404238Y-15139603D01*
X13404238Y-15158650D02*
X13413762Y-15149127D01*
X13432810Y-15139603D01*
X13461381Y-15139603D01*
X13480429Y-15149127D01*
X13489953Y-15168174D01*
X13489953Y-15272936D01*
X13489953Y-15168174D02*
X13499477Y-15149127D01*
X13518524Y-15139603D01*
X13547096Y-15139603D01*
X13566143Y-15149127D01*
X13575667Y-15168174D01*
X13575667Y-15272936D01*
X13966143Y-15063412D02*
X13794715Y-15320555D01*
X14223286Y-15072936D02*
X14242334Y-15072936D01*
X14261381Y-15082460D01*
X14270905Y-15091984D01*
X14280429Y-15111031D01*
X14289953Y-15149127D01*
X14289953Y-15196746D01*
X14280429Y-15234841D01*
X14270905Y-15253888D01*
X14261381Y-15263412D01*
X14242334Y-15272936D01*
X14223286Y-15272936D01*
X14204238Y-15263412D01*
X14194715Y-15253888D01*
X14185191Y-15234841D01*
X14175667Y-15196746D01*
X14175667Y-15149127D01*
X14185191Y-15111031D01*
X14194715Y-15091984D01*
X14204238Y-15082460D01*
X14223286Y-15072936D01*
X14375667Y-15253888D02*
X14385191Y-15263412D01*
X14375667Y-15272936D01*
X14366143Y-15263412D01*
X14375667Y-15253888D01*
X14375667Y-15272936D01*
X14509000Y-15072936D02*
X14528048Y-15072936D01*
X14547096Y-15082460D01*
X14556619Y-15091984D01*
X14566143Y-15111031D01*
X14575667Y-15149127D01*
X14575667Y-15196746D01*
X14566143Y-15234841D01*
X14556619Y-15253888D01*
X14547096Y-15263412D01*
X14528048Y-15272936D01*
X14509000Y-15272936D01*
X14489953Y-15263412D01*
X14480429Y-15253888D01*
X14470905Y-15234841D01*
X14461381Y-15196746D01*
X14461381Y-15149127D01*
X14470905Y-15111031D01*
X14480429Y-15091984D01*
X14489953Y-15082460D01*
X14509000Y-15072936D01*
X14642334Y-15072936D02*
X14766143Y-15072936D01*
X14699477Y-15149127D01*
X14728048Y-15149127D01*
X14747096Y-15158650D01*
X14756619Y-15168174D01*
X14766143Y-15187222D01*
X14766143Y-15234841D01*
X14756619Y-15253888D01*
X14747096Y-15263412D01*
X14728048Y-15272936D01*
X14670905Y-15272936D01*
X14651858Y-15263412D01*
X14642334Y-15253888D01*
X14956619Y-15272936D02*
X14842334Y-15272936D01*
X14899477Y-15272936D02*
X14899477Y-15072936D01*
X14880429Y-15101508D01*
X14861381Y-15120555D01*
X14842334Y-15130079D01*
X15137572Y-15072936D02*
X15042334Y-15072936D01*
X15032810Y-15168174D01*
X15042334Y-15158650D01*
X15061381Y-15149127D01*
X15109000Y-15149127D01*
X15128048Y-15158650D01*
X15137572Y-15168174D01*
X15147096Y-15187222D01*
X15147096Y-15234841D01*
X15137572Y-15253888D01*
X15128048Y-15263412D01*
X15109000Y-15272936D01*
X15061381Y-15272936D01*
X15042334Y-15263412D01*
X15032810Y-15253888D01*
X15223286Y-15072936D02*
X15223286Y-15111031D01*
X15299477Y-15072936D02*
X15299477Y-15111031D01*
X15594715Y-15349127D02*
X15585191Y-15339603D01*
X15566143Y-15311031D01*
X15556619Y-15291984D01*
X15547096Y-15263412D01*
X15537572Y-15215793D01*
X15537572Y-15177698D01*
X15547096Y-15130079D01*
X15556619Y-15101508D01*
X15566143Y-15082460D01*
X15585191Y-15053888D01*
X15594715Y-15044365D01*
X15775667Y-15272936D02*
X15661381Y-15272936D01*
X15718524Y-15272936D02*
X15718524Y-15072936D01*
X15699477Y-15101508D01*
X15680429Y-15120555D01*
X15661381Y-15130079D01*
X15842334Y-15072936D02*
X15966143Y-15072936D01*
X15899477Y-15149127D01*
X15928048Y-15149127D01*
X15947096Y-15158650D01*
X15956619Y-15168174D01*
X15966143Y-15187222D01*
X15966143Y-15234841D01*
X15956619Y-15253888D01*
X15947096Y-15263412D01*
X15928048Y-15272936D01*
X15870905Y-15272936D01*
X15851858Y-15263412D01*
X15842334Y-15253888D01*
X16089953Y-15072936D02*
X16109000Y-15072936D01*
X16128048Y-15082460D01*
X16137572Y-15091984D01*
X16147096Y-15111031D01*
X16156619Y-15149127D01*
X16156619Y-15196746D01*
X16147096Y-15234841D01*
X16137572Y-15253888D01*
X16128048Y-15263412D01*
X16109000Y-15272936D01*
X16089953Y-15272936D01*
X16070905Y-15263412D01*
X16061381Y-15253888D01*
X16051858Y-15234841D01*
X16042334Y-15196746D01*
X16042334Y-15149127D01*
X16051858Y-15111031D01*
X16061381Y-15091984D01*
X16070905Y-15082460D01*
X16089953Y-15072936D01*
X16394715Y-15272936D02*
X16394715Y-15072936D01*
X16480429Y-15272936D02*
X16480429Y-15168174D01*
X16470905Y-15149127D01*
X16451858Y-15139603D01*
X16423286Y-15139603D01*
X16404238Y-15149127D01*
X16394715Y-15158650D01*
X16604238Y-15272936D02*
X16585191Y-15263412D01*
X16575667Y-15253888D01*
X16566143Y-15234841D01*
X16566143Y-15177698D01*
X16575667Y-15158650D01*
X16585191Y-15149127D01*
X16604238Y-15139603D01*
X16632810Y-15139603D01*
X16651858Y-15149127D01*
X16661381Y-15158650D01*
X16670905Y-15177698D01*
X16670905Y-15234841D01*
X16661381Y-15253888D01*
X16651858Y-15263412D01*
X16632810Y-15272936D01*
X16604238Y-15272936D01*
X16785191Y-15272936D02*
X16766143Y-15263412D01*
X16756619Y-15244365D01*
X16756619Y-15072936D01*
X16937572Y-15263412D02*
X16918524Y-15272936D01*
X16880429Y-15272936D01*
X16861381Y-15263412D01*
X16851858Y-15244365D01*
X16851858Y-15168174D01*
X16861381Y-15149127D01*
X16880429Y-15139603D01*
X16918524Y-15139603D01*
X16937572Y-15149127D01*
X16947096Y-15168174D01*
X16947096Y-15187222D01*
X16851858Y-15206269D01*
X17023286Y-15263412D02*
X17042334Y-15272936D01*
X17080429Y-15272936D01*
X17099477Y-15263412D01*
X17109000Y-15244365D01*
X17109000Y-15234841D01*
X17099477Y-15215793D01*
X17080429Y-15206269D01*
X17051858Y-15206269D01*
X17032810Y-15196746D01*
X17023286Y-15177698D01*
X17023286Y-15168174D01*
X17032810Y-15149127D01*
X17051858Y-15139603D01*
X17080429Y-15139603D01*
X17099477Y-15149127D01*
X17175667Y-15349127D02*
X17185191Y-15339603D01*
X17204239Y-15311031D01*
X17213762Y-15291984D01*
X17223286Y-15263412D01*
X17232810Y-15215793D01*
X17232810Y-15177698D01*
X17223286Y-15130079D01*
X17213762Y-15101508D01*
X17204239Y-15082460D01*
X17185191Y-15053888D01*
X17175667Y-15044365D01*
D13*
X11972810Y-15396460D02*
X11972810Y-15496460D01*
X11922810Y-15446460D02*
X12022810Y-15446460D01*
D10*
X12385191Y-15536936D02*
X12270905Y-15536936D01*
X12328048Y-15536936D02*
X12328048Y-15336936D01*
X12309000Y-15365508D01*
X12289953Y-15384555D01*
X12270905Y-15394079D01*
X12470905Y-15517888D02*
X12480429Y-15527412D01*
X12470905Y-15536936D01*
X12461381Y-15527412D01*
X12470905Y-15517888D01*
X12470905Y-15536936D01*
X12604238Y-15336936D02*
X12623286Y-15336936D01*
X12642334Y-15346460D01*
X12651858Y-15355984D01*
X12661381Y-15375031D01*
X12670905Y-15413127D01*
X12670905Y-15460746D01*
X12661381Y-15498841D01*
X12651858Y-15517888D01*
X12642334Y-15527412D01*
X12623286Y-15536936D01*
X12604238Y-15536936D01*
X12585191Y-15527412D01*
X12575667Y-15517888D01*
X12566143Y-15498841D01*
X12556619Y-15460746D01*
X12556619Y-15413127D01*
X12566143Y-15375031D01*
X12575667Y-15355984D01*
X12585191Y-15346460D01*
X12604238Y-15336936D01*
X12794715Y-15336936D02*
X12813762Y-15336936D01*
X12832810Y-15346460D01*
X12842334Y-15355984D01*
X12851858Y-15375031D01*
X12861381Y-15413127D01*
X12861381Y-15460746D01*
X12851858Y-15498841D01*
X12842334Y-15517888D01*
X12832810Y-15527412D01*
X12813762Y-15536936D01*
X12794715Y-15536936D01*
X12775667Y-15527412D01*
X12766143Y-15517888D01*
X12756619Y-15498841D01*
X12747096Y-15460746D01*
X12747096Y-15413127D01*
X12756619Y-15375031D01*
X12766143Y-15355984D01*
X12775667Y-15346460D01*
X12794715Y-15336936D01*
X12985191Y-15336936D02*
X13004238Y-15336936D01*
X13023286Y-15346460D01*
X13032810Y-15355984D01*
X13042334Y-15375031D01*
X13051858Y-15413127D01*
X13051858Y-15460746D01*
X13042334Y-15498841D01*
X13032810Y-15517888D01*
X13023286Y-15527412D01*
X13004238Y-15536936D01*
X12985191Y-15536936D01*
X12966143Y-15527412D01*
X12956619Y-15517888D01*
X12947096Y-15498841D01*
X12937572Y-15460746D01*
X12937572Y-15413127D01*
X12947096Y-15375031D01*
X12956619Y-15355984D01*
X12966143Y-15346460D01*
X12985191Y-15336936D01*
X13137572Y-15536936D02*
X13137572Y-15403603D01*
X13137572Y-15422650D02*
X13147096Y-15413127D01*
X13166143Y-15403603D01*
X13194715Y-15403603D01*
X13213762Y-15413127D01*
X13223286Y-15432174D01*
X13223286Y-15536936D01*
X13223286Y-15432174D02*
X13232810Y-15413127D01*
X13251858Y-15403603D01*
X13280429Y-15403603D01*
X13299477Y-15413127D01*
X13309000Y-15432174D01*
X13309000Y-15536936D01*
X13404238Y-15536936D02*
X13404238Y-15403603D01*
X13404238Y-15422650D02*
X13413762Y-15413127D01*
X13432810Y-15403603D01*
X13461381Y-15403603D01*
X13480429Y-15413127D01*
X13489953Y-15432174D01*
X13489953Y-15536936D01*
X13489953Y-15432174D02*
X13499477Y-15413127D01*
X13518524Y-15403603D01*
X13547096Y-15403603D01*
X13566143Y-15413127D01*
X13575667Y-15432174D01*
X13575667Y-15536936D01*
X13966143Y-15327412D02*
X13794715Y-15584555D01*
X14223286Y-15336936D02*
X14242334Y-15336936D01*
X14261381Y-15346460D01*
X14270905Y-15355984D01*
X14280429Y-15375031D01*
X14289953Y-15413127D01*
X14289953Y-15460746D01*
X14280429Y-15498841D01*
X14270905Y-15517888D01*
X14261381Y-15527412D01*
X14242334Y-15536936D01*
X14223286Y-15536936D01*
X14204238Y-15527412D01*
X14194715Y-15517888D01*
X14185191Y-15498841D01*
X14175667Y-15460746D01*
X14175667Y-15413127D01*
X14185191Y-15375031D01*
X14194715Y-15355984D01*
X14204238Y-15346460D01*
X14223286Y-15336936D01*
X14375667Y-15517888D02*
X14385191Y-15527412D01*
X14375667Y-15536936D01*
X14366143Y-15527412D01*
X14375667Y-15517888D01*
X14375667Y-15536936D01*
X14509000Y-15336936D02*
X14528048Y-15336936D01*
X14547096Y-15346460D01*
X14556619Y-15355984D01*
X14566143Y-15375031D01*
X14575667Y-15413127D01*
X14575667Y-15460746D01*
X14566143Y-15498841D01*
X14556619Y-15517888D01*
X14547096Y-15527412D01*
X14528048Y-15536936D01*
X14509000Y-15536936D01*
X14489953Y-15527412D01*
X14480429Y-15517888D01*
X14470905Y-15498841D01*
X14461381Y-15460746D01*
X14461381Y-15413127D01*
X14470905Y-15375031D01*
X14480429Y-15355984D01*
X14489953Y-15346460D01*
X14509000Y-15336936D01*
X14642334Y-15336936D02*
X14766143Y-15336936D01*
X14699477Y-15413127D01*
X14728048Y-15413127D01*
X14747096Y-15422650D01*
X14756619Y-15432174D01*
X14766143Y-15451222D01*
X14766143Y-15498841D01*
X14756619Y-15517888D01*
X14747096Y-15527412D01*
X14728048Y-15536936D01*
X14670905Y-15536936D01*
X14651858Y-15527412D01*
X14642334Y-15517888D01*
X14861381Y-15536936D02*
X14899477Y-15536936D01*
X14918524Y-15527412D01*
X14928048Y-15517888D01*
X14947096Y-15489317D01*
X14956619Y-15451222D01*
X14956619Y-15375031D01*
X14947096Y-15355984D01*
X14937572Y-15346460D01*
X14918524Y-15336936D01*
X14880429Y-15336936D01*
X14861381Y-15346460D01*
X14851858Y-15355984D01*
X14842334Y-15375031D01*
X14842334Y-15422650D01*
X14851858Y-15441698D01*
X14861381Y-15451222D01*
X14880429Y-15460746D01*
X14918524Y-15460746D01*
X14937572Y-15451222D01*
X14947096Y-15441698D01*
X14956619Y-15422650D01*
X15128048Y-15403603D02*
X15128048Y-15536936D01*
X15080429Y-15327412D02*
X15032810Y-15470269D01*
X15156619Y-15470269D01*
X15223286Y-15336936D02*
X15223286Y-15375031D01*
X15299477Y-15336936D02*
X15299477Y-15375031D01*
X15594715Y-15613127D02*
X15585191Y-15603603D01*
X15566143Y-15575031D01*
X15556619Y-15555984D01*
X15547096Y-15527412D01*
X15537572Y-15479793D01*
X15537572Y-15441698D01*
X15547096Y-15394079D01*
X15556619Y-15365508D01*
X15566143Y-15346460D01*
X15585191Y-15317888D01*
X15594715Y-15308365D01*
X15661381Y-15355984D02*
X15670905Y-15346460D01*
X15689953Y-15336936D01*
X15737572Y-15336936D01*
X15756619Y-15346460D01*
X15766143Y-15355984D01*
X15775667Y-15375031D01*
X15775667Y-15394079D01*
X15766143Y-15422650D01*
X15651858Y-15536936D01*
X15775667Y-15536936D01*
X15899477Y-15336936D02*
X15918524Y-15336936D01*
X15937572Y-15346460D01*
X15947096Y-15355984D01*
X15956619Y-15375031D01*
X15966143Y-15413127D01*
X15966143Y-15460746D01*
X15956619Y-15498841D01*
X15947096Y-15517888D01*
X15937572Y-15527412D01*
X15918524Y-15536936D01*
X15899477Y-15536936D01*
X15880429Y-15527412D01*
X15870905Y-15517888D01*
X15861381Y-15498841D01*
X15851858Y-15460746D01*
X15851858Y-15413127D01*
X15861381Y-15375031D01*
X15870905Y-15355984D01*
X15880429Y-15346460D01*
X15899477Y-15336936D01*
X16204238Y-15536936D02*
X16204238Y-15336936D01*
X16289953Y-15536936D02*
X16289953Y-15432174D01*
X16280429Y-15413127D01*
X16261381Y-15403603D01*
X16232810Y-15403603D01*
X16213762Y-15413127D01*
X16204238Y-15422650D01*
X16413762Y-15536936D02*
X16394715Y-15527412D01*
X16385191Y-15517888D01*
X16375667Y-15498841D01*
X16375667Y-15441698D01*
X16385191Y-15422650D01*
X16394715Y-15413127D01*
X16413762Y-15403603D01*
X16442334Y-15403603D01*
X16461381Y-15413127D01*
X16470905Y-15422650D01*
X16480429Y-15441698D01*
X16480429Y-15498841D01*
X16470905Y-15517888D01*
X16461381Y-15527412D01*
X16442334Y-15536936D01*
X16413762Y-15536936D01*
X16594715Y-15536936D02*
X16575667Y-15527412D01*
X16566143Y-15508365D01*
X16566143Y-15336936D01*
X16747096Y-15527412D02*
X16728048Y-15536936D01*
X16689953Y-15536936D01*
X16670905Y-15527412D01*
X16661381Y-15508365D01*
X16661381Y-15432174D01*
X16670905Y-15413127D01*
X16689953Y-15403603D01*
X16728048Y-15403603D01*
X16747096Y-15413127D01*
X16756619Y-15432174D01*
X16756619Y-15451222D01*
X16661381Y-15470269D01*
X16832810Y-15527412D02*
X16851858Y-15536936D01*
X16889953Y-15536936D01*
X16909000Y-15527412D01*
X16918524Y-15508365D01*
X16918524Y-15498841D01*
X16909000Y-15479793D01*
X16889953Y-15470269D01*
X16861381Y-15470269D01*
X16842334Y-15460746D01*
X16832810Y-15441698D01*
X16832810Y-15432174D01*
X16842334Y-15413127D01*
X16861381Y-15403603D01*
X16889953Y-15403603D01*
X16909000Y-15413127D01*
X16985191Y-15613127D02*
X16994715Y-15603603D01*
X17013762Y-15575031D01*
X17023286Y-15555984D01*
X17032810Y-15527412D01*
X17042334Y-15479793D01*
X17042334Y-15441698D01*
X17032810Y-15394079D01*
X17023286Y-15365508D01*
X17013762Y-15346460D01*
X16994715Y-15317888D01*
X16985191Y-15308365D01*
D14*
X12005237Y-15752887D02*
X12005237Y-15668033D01*
X11920383Y-15668033D01*
X11920383Y-15752887D01*
X12005237Y-15752887D01*
D10*
X12385191Y-15800936D02*
X12270905Y-15800936D01*
X12328048Y-15800936D02*
X12328048Y-15600936D01*
X12309000Y-15629508D01*
X12289953Y-15648555D01*
X12270905Y-15658079D01*
X12470905Y-15781888D02*
X12480429Y-15791412D01*
X12470905Y-15800936D01*
X12461381Y-15791412D01*
X12470905Y-15781888D01*
X12470905Y-15800936D01*
X12556619Y-15619984D02*
X12566143Y-15610460D01*
X12585191Y-15600936D01*
X12632810Y-15600936D01*
X12651858Y-15610460D01*
X12661381Y-15619984D01*
X12670905Y-15639031D01*
X12670905Y-15658079D01*
X12661381Y-15686650D01*
X12547096Y-15800936D01*
X12670905Y-15800936D01*
X12794715Y-15600936D02*
X12813762Y-15600936D01*
X12832810Y-15610460D01*
X12842334Y-15619984D01*
X12851858Y-15639031D01*
X12861381Y-15677127D01*
X12861381Y-15724746D01*
X12851858Y-15762841D01*
X12842334Y-15781888D01*
X12832810Y-15791412D01*
X12813762Y-15800936D01*
X12794715Y-15800936D01*
X12775667Y-15791412D01*
X12766143Y-15781888D01*
X12756619Y-15762841D01*
X12747096Y-15724746D01*
X12747096Y-15677127D01*
X12756619Y-15639031D01*
X12766143Y-15619984D01*
X12775667Y-15610460D01*
X12794715Y-15600936D01*
X12985191Y-15600936D02*
X13004238Y-15600936D01*
X13023286Y-15610460D01*
X13032810Y-15619984D01*
X13042334Y-15639031D01*
X13051858Y-15677127D01*
X13051858Y-15724746D01*
X13042334Y-15762841D01*
X13032810Y-15781888D01*
X13023286Y-15791412D01*
X13004238Y-15800936D01*
X12985191Y-15800936D01*
X12966143Y-15791412D01*
X12956619Y-15781888D01*
X12947096Y-15762841D01*
X12937572Y-15724746D01*
X12937572Y-15677127D01*
X12947096Y-15639031D01*
X12956619Y-15619984D01*
X12966143Y-15610460D01*
X12985191Y-15600936D01*
X13137572Y-15800936D02*
X13137572Y-15667603D01*
X13137572Y-15686650D02*
X13147096Y-15677127D01*
X13166143Y-15667603D01*
X13194715Y-15667603D01*
X13213762Y-15677127D01*
X13223286Y-15696174D01*
X13223286Y-15800936D01*
X13223286Y-15696174D02*
X13232810Y-15677127D01*
X13251858Y-15667603D01*
X13280429Y-15667603D01*
X13299477Y-15677127D01*
X13309000Y-15696174D01*
X13309000Y-15800936D01*
X13404238Y-15800936D02*
X13404238Y-15667603D01*
X13404238Y-15686650D02*
X13413762Y-15677127D01*
X13432810Y-15667603D01*
X13461381Y-15667603D01*
X13480429Y-15677127D01*
X13489953Y-15696174D01*
X13489953Y-15800936D01*
X13489953Y-15696174D02*
X13499477Y-15677127D01*
X13518524Y-15667603D01*
X13547096Y-15667603D01*
X13566143Y-15677127D01*
X13575667Y-15696174D01*
X13575667Y-15800936D01*
X13966143Y-15591412D02*
X13794715Y-15848555D01*
X14223286Y-15600936D02*
X14242334Y-15600936D01*
X14261381Y-15610460D01*
X14270905Y-15619984D01*
X14280429Y-15639031D01*
X14289953Y-15677127D01*
X14289953Y-15724746D01*
X14280429Y-15762841D01*
X14270905Y-15781888D01*
X14261381Y-15791412D01*
X14242334Y-15800936D01*
X14223286Y-15800936D01*
X14204238Y-15791412D01*
X14194715Y-15781888D01*
X14185191Y-15762841D01*
X14175667Y-15724746D01*
X14175667Y-15677127D01*
X14185191Y-15639031D01*
X14194715Y-15619984D01*
X14204238Y-15610460D01*
X14223286Y-15600936D01*
X14375667Y-15781888D02*
X14385191Y-15791412D01*
X14375667Y-15800936D01*
X14366143Y-15791412D01*
X14375667Y-15781888D01*
X14375667Y-15800936D01*
X14509000Y-15600936D02*
X14528048Y-15600936D01*
X14547096Y-15610460D01*
X14556619Y-15619984D01*
X14566143Y-15639031D01*
X14575667Y-15677127D01*
X14575667Y-15724746D01*
X14566143Y-15762841D01*
X14556619Y-15781888D01*
X14547096Y-15791412D01*
X14528048Y-15800936D01*
X14509000Y-15800936D01*
X14489953Y-15791412D01*
X14480429Y-15781888D01*
X14470905Y-15762841D01*
X14461381Y-15724746D01*
X14461381Y-15677127D01*
X14470905Y-15639031D01*
X14480429Y-15619984D01*
X14489953Y-15610460D01*
X14509000Y-15600936D01*
X14747096Y-15667603D02*
X14747096Y-15800936D01*
X14699477Y-15591412D02*
X14651858Y-15734269D01*
X14775667Y-15734269D01*
X14832810Y-15600936D02*
X14966143Y-15600936D01*
X14880429Y-15800936D01*
X15032810Y-15619984D02*
X15042334Y-15610460D01*
X15061381Y-15600936D01*
X15109000Y-15600936D01*
X15128048Y-15610460D01*
X15137572Y-15619984D01*
X15147096Y-15639031D01*
X15147096Y-15658079D01*
X15137572Y-15686650D01*
X15023286Y-15800936D01*
X15147096Y-15800936D01*
X15223286Y-15600936D02*
X15223286Y-15639031D01*
X15299477Y-15600936D02*
X15299477Y-15639031D01*
X15594715Y-15877127D02*
X15585191Y-15867603D01*
X15566143Y-15839031D01*
X15556619Y-15819984D01*
X15547096Y-15791412D01*
X15537572Y-15743793D01*
X15537572Y-15705698D01*
X15547096Y-15658079D01*
X15556619Y-15629508D01*
X15566143Y-15610460D01*
X15585191Y-15581888D01*
X15594715Y-15572365D01*
X15699477Y-15686650D02*
X15680429Y-15677127D01*
X15670905Y-15667603D01*
X15661381Y-15648555D01*
X15661381Y-15639031D01*
X15670905Y-15619984D01*
X15680429Y-15610460D01*
X15699477Y-15600936D01*
X15737572Y-15600936D01*
X15756619Y-15610460D01*
X15766143Y-15619984D01*
X15775667Y-15639031D01*
X15775667Y-15648555D01*
X15766143Y-15667603D01*
X15756619Y-15677127D01*
X15737572Y-15686650D01*
X15699477Y-15686650D01*
X15680429Y-15696174D01*
X15670905Y-15705698D01*
X15661381Y-15724746D01*
X15661381Y-15762841D01*
X15670905Y-15781888D01*
X15680429Y-15791412D01*
X15699477Y-15800936D01*
X15737572Y-15800936D01*
X15756619Y-15791412D01*
X15766143Y-15781888D01*
X15775667Y-15762841D01*
X15775667Y-15724746D01*
X15766143Y-15705698D01*
X15756619Y-15696174D01*
X15737572Y-15686650D01*
X16013762Y-15800936D02*
X16013762Y-15600936D01*
X16099477Y-15800936D02*
X16099477Y-15696174D01*
X16089953Y-15677127D01*
X16070905Y-15667603D01*
X16042334Y-15667603D01*
X16023286Y-15677127D01*
X16013762Y-15686650D01*
X16223286Y-15800936D02*
X16204238Y-15791412D01*
X16194715Y-15781888D01*
X16185191Y-15762841D01*
X16185191Y-15705698D01*
X16194715Y-15686650D01*
X16204238Y-15677127D01*
X16223286Y-15667603D01*
X16251858Y-15667603D01*
X16270905Y-15677127D01*
X16280429Y-15686650D01*
X16289953Y-15705698D01*
X16289953Y-15762841D01*
X16280429Y-15781888D01*
X16270905Y-15791412D01*
X16251858Y-15800936D01*
X16223286Y-15800936D01*
X16404238Y-15800936D02*
X16385191Y-15791412D01*
X16375667Y-15772365D01*
X16375667Y-15600936D01*
X16556619Y-15791412D02*
X16537572Y-15800936D01*
X16499477Y-15800936D01*
X16480429Y-15791412D01*
X16470905Y-15772365D01*
X16470905Y-15696174D01*
X16480429Y-15677127D01*
X16499477Y-15667603D01*
X16537572Y-15667603D01*
X16556619Y-15677127D01*
X16566143Y-15696174D01*
X16566143Y-15715222D01*
X16470905Y-15734269D01*
X16642334Y-15791412D02*
X16661381Y-15800936D01*
X16699477Y-15800936D01*
X16718524Y-15791412D01*
X16728048Y-15772365D01*
X16728048Y-15762841D01*
X16718524Y-15743793D01*
X16699477Y-15734269D01*
X16670905Y-15734269D01*
X16651858Y-15724746D01*
X16642334Y-15705698D01*
X16642334Y-15696174D01*
X16651858Y-15677127D01*
X16670905Y-15667603D01*
X16699477Y-15667603D01*
X16718524Y-15677127D01*
X16794715Y-15877127D02*
X16804239Y-15867603D01*
X16823286Y-15839031D01*
X16832810Y-15819984D01*
X16842334Y-15791412D01*
X16851858Y-15743793D01*
X16851858Y-15705698D01*
X16842334Y-15658079D01*
X16832810Y-15629508D01*
X16823286Y-15610460D01*
X16804239Y-15581888D01*
X16794715Y-15572365D01*
D15*
X11957810Y-16039460D02*
X12022810Y-15974460D01*
X11957810Y-15909460D01*
X11892810Y-15974460D01*
X11957810Y-16039460D01*
D10*
X12385191Y-16064936D02*
X12270905Y-16064936D01*
X12328048Y-16064936D02*
X12328048Y-15864936D01*
X12309000Y-15893508D01*
X12289953Y-15912555D01*
X12270905Y-15922079D01*
X12470905Y-16045888D02*
X12480429Y-16055412D01*
X12470905Y-16064936D01*
X12461381Y-16055412D01*
X12470905Y-16045888D01*
X12470905Y-16064936D01*
X12547096Y-15864936D02*
X12670905Y-15864936D01*
X12604238Y-15941127D01*
X12632810Y-15941127D01*
X12651858Y-15950650D01*
X12661381Y-15960174D01*
X12670905Y-15979222D01*
X12670905Y-16026841D01*
X12661381Y-16045888D01*
X12651858Y-16055412D01*
X12632810Y-16064936D01*
X12575667Y-16064936D01*
X12556619Y-16055412D01*
X12547096Y-16045888D01*
X12794715Y-15864936D02*
X12813762Y-15864936D01*
X12832810Y-15874460D01*
X12842334Y-15883984D01*
X12851858Y-15903031D01*
X12861381Y-15941127D01*
X12861381Y-15988746D01*
X12851858Y-16026841D01*
X12842334Y-16045888D01*
X12832810Y-16055412D01*
X12813762Y-16064936D01*
X12794715Y-16064936D01*
X12775667Y-16055412D01*
X12766143Y-16045888D01*
X12756619Y-16026841D01*
X12747096Y-15988746D01*
X12747096Y-15941127D01*
X12756619Y-15903031D01*
X12766143Y-15883984D01*
X12775667Y-15874460D01*
X12794715Y-15864936D01*
X12985191Y-15864936D02*
X13004238Y-15864936D01*
X13023286Y-15874460D01*
X13032810Y-15883984D01*
X13042334Y-15903031D01*
X13051858Y-15941127D01*
X13051858Y-15988746D01*
X13042334Y-16026841D01*
X13032810Y-16045888D01*
X13023286Y-16055412D01*
X13004238Y-16064936D01*
X12985191Y-16064936D01*
X12966143Y-16055412D01*
X12956619Y-16045888D01*
X12947096Y-16026841D01*
X12937572Y-15988746D01*
X12937572Y-15941127D01*
X12947096Y-15903031D01*
X12956619Y-15883984D01*
X12966143Y-15874460D01*
X12985191Y-15864936D01*
X13137572Y-16064936D02*
X13137572Y-15931603D01*
X13137572Y-15950650D02*
X13147096Y-15941127D01*
X13166143Y-15931603D01*
X13194715Y-15931603D01*
X13213762Y-15941127D01*
X13223286Y-15960174D01*
X13223286Y-16064936D01*
X13223286Y-15960174D02*
X13232810Y-15941127D01*
X13251858Y-15931603D01*
X13280429Y-15931603D01*
X13299477Y-15941127D01*
X13309000Y-15960174D01*
X13309000Y-16064936D01*
X13404238Y-16064936D02*
X13404238Y-15931603D01*
X13404238Y-15950650D02*
X13413762Y-15941127D01*
X13432810Y-15931603D01*
X13461381Y-15931603D01*
X13480429Y-15941127D01*
X13489953Y-15960174D01*
X13489953Y-16064936D01*
X13489953Y-15960174D02*
X13499477Y-15941127D01*
X13518524Y-15931603D01*
X13547096Y-15931603D01*
X13566143Y-15941127D01*
X13575667Y-15960174D01*
X13575667Y-16064936D01*
X13966143Y-15855412D02*
X13794715Y-16112555D01*
X14223286Y-15864936D02*
X14242334Y-15864936D01*
X14261381Y-15874460D01*
X14270905Y-15883984D01*
X14280429Y-15903031D01*
X14289953Y-15941127D01*
X14289953Y-15988746D01*
X14280429Y-16026841D01*
X14270905Y-16045888D01*
X14261381Y-16055412D01*
X14242334Y-16064936D01*
X14223286Y-16064936D01*
X14204238Y-16055412D01*
X14194715Y-16045888D01*
X14185191Y-16026841D01*
X14175667Y-15988746D01*
X14175667Y-15941127D01*
X14185191Y-15903031D01*
X14194715Y-15883984D01*
X14204238Y-15874460D01*
X14223286Y-15864936D01*
X14375667Y-16045888D02*
X14385191Y-16055412D01*
X14375667Y-16064936D01*
X14366143Y-16055412D01*
X14375667Y-16045888D01*
X14375667Y-16064936D01*
X14509000Y-15864936D02*
X14528048Y-15864936D01*
X14547096Y-15874460D01*
X14556619Y-15883984D01*
X14566143Y-15903031D01*
X14575667Y-15941127D01*
X14575667Y-15988746D01*
X14566143Y-16026841D01*
X14556619Y-16045888D01*
X14547096Y-16055412D01*
X14528048Y-16064936D01*
X14509000Y-16064936D01*
X14489953Y-16055412D01*
X14480429Y-16045888D01*
X14470905Y-16026841D01*
X14461381Y-15988746D01*
X14461381Y-15941127D01*
X14470905Y-15903031D01*
X14480429Y-15883984D01*
X14489953Y-15874460D01*
X14509000Y-15864936D01*
X14756619Y-15864936D02*
X14661381Y-15864936D01*
X14651858Y-15960174D01*
X14661381Y-15950650D01*
X14680429Y-15941127D01*
X14728048Y-15941127D01*
X14747096Y-15950650D01*
X14756619Y-15960174D01*
X14766143Y-15979222D01*
X14766143Y-16026841D01*
X14756619Y-16045888D01*
X14747096Y-16055412D01*
X14728048Y-16064936D01*
X14680429Y-16064936D01*
X14661381Y-16055412D01*
X14651858Y-16045888D01*
X14956619Y-16064936D02*
X14842334Y-16064936D01*
X14899477Y-16064936D02*
X14899477Y-15864936D01*
X14880429Y-15893508D01*
X14861381Y-15912555D01*
X14842334Y-15922079D01*
X15032810Y-15883984D02*
X15042334Y-15874460D01*
X15061381Y-15864936D01*
X15109000Y-15864936D01*
X15128048Y-15874460D01*
X15137572Y-15883984D01*
X15147096Y-15903031D01*
X15147096Y-15922079D01*
X15137572Y-15950650D01*
X15023286Y-16064936D01*
X15147096Y-16064936D01*
X15223286Y-15864936D02*
X15223286Y-15903031D01*
X15299477Y-15864936D02*
X15299477Y-15903031D01*
X15594715Y-16141127D02*
X15585191Y-16131603D01*
X15566143Y-16103031D01*
X15556619Y-16083984D01*
X15547096Y-16055412D01*
X15537572Y-16007793D01*
X15537572Y-15969698D01*
X15547096Y-15922079D01*
X15556619Y-15893508D01*
X15566143Y-15874460D01*
X15585191Y-15845888D01*
X15594715Y-15836365D01*
X15775667Y-16064936D02*
X15661381Y-16064936D01*
X15718524Y-16064936D02*
X15718524Y-15864936D01*
X15699477Y-15893508D01*
X15680429Y-15912555D01*
X15661381Y-15922079D01*
X15851858Y-15883984D02*
X15861381Y-15874460D01*
X15880429Y-15864936D01*
X15928048Y-15864936D01*
X15947096Y-15874460D01*
X15956619Y-15883984D01*
X15966143Y-15903031D01*
X15966143Y-15922079D01*
X15956619Y-15950650D01*
X15842334Y-16064936D01*
X15966143Y-16064936D01*
X16204238Y-16064936D02*
X16204238Y-15864936D01*
X16289953Y-16064936D02*
X16289953Y-15960174D01*
X16280429Y-15941127D01*
X16261381Y-15931603D01*
X16232810Y-15931603D01*
X16213762Y-15941127D01*
X16204238Y-15950650D01*
X16413762Y-16064936D02*
X16394715Y-16055412D01*
X16385191Y-16045888D01*
X16375667Y-16026841D01*
X16375667Y-15969698D01*
X16385191Y-15950650D01*
X16394715Y-15941127D01*
X16413762Y-15931603D01*
X16442334Y-15931603D01*
X16461381Y-15941127D01*
X16470905Y-15950650D01*
X16480429Y-15969698D01*
X16480429Y-16026841D01*
X16470905Y-16045888D01*
X16461381Y-16055412D01*
X16442334Y-16064936D01*
X16413762Y-16064936D01*
X16594715Y-16064936D02*
X16575667Y-16055412D01*
X16566143Y-16036365D01*
X16566143Y-15864936D01*
X16747096Y-16055412D02*
X16728048Y-16064936D01*
X16689953Y-16064936D01*
X16670905Y-16055412D01*
X16661381Y-16036365D01*
X16661381Y-15960174D01*
X16670905Y-15941127D01*
X16689953Y-15931603D01*
X16728048Y-15931603D01*
X16747096Y-15941127D01*
X16756619Y-15960174D01*
X16756619Y-15979222D01*
X16661381Y-15998269D01*
X16832810Y-16055412D02*
X16851858Y-16064936D01*
X16889953Y-16064936D01*
X16909000Y-16055412D01*
X16918524Y-16036365D01*
X16918524Y-16026841D01*
X16909000Y-16007793D01*
X16889953Y-15998269D01*
X16861381Y-15998269D01*
X16842334Y-15988746D01*
X16832810Y-15969698D01*
X16832810Y-15960174D01*
X16842334Y-15941127D01*
X16861381Y-15931603D01*
X16889953Y-15931603D01*
X16909000Y-15941127D01*
X16985191Y-16141127D02*
X16994715Y-16131603D01*
X17013762Y-16103031D01*
X17023286Y-16083984D01*
X17032810Y-16055412D01*
X17042334Y-16007793D01*
X17042334Y-15969698D01*
X17032810Y-15922079D01*
X17023286Y-15893508D01*
X17013762Y-15874460D01*
X16994715Y-15845888D01*
X16985191Y-15836365D01*
M02*
