M48
; DRILL file {KiCad 6.0.2+dfsg-1} date Wed May  7 10:44:57 2025
; FORMAT={-:-/ absolute / metric / decimal}
; #@! TF.CreationDate,2025-05-07T10:44:57+02:00
; #@! TF.GenerationSoftware,Kicad,Pcbnew,6.0.2+dfsg-1
; #@! TF.FileFunction,Plated,1,2,PTH
FMAT,2
METRIC
; #@! TA.AperFunction,Plated,PTH,ViaDrill
T1C0.400
; #@! TA.AperFunction,Plated,PTH,ComponentDrill
T2C0.800
; #@! TA.AperFunction,Plated,PTH,ComponentDrill
T3C1.000
; #@! TA.AperFunction,Plated,PTH,ComponentDrill
T4C1.200
; #@! TA.AperFunction,Plated,PTH,ComponentDrill
T5C1.300
%
G90
G05
T1
X123.198Y-137.077
X124.007Y-113.565
X127.274Y-109.155
X132.083Y-114.871
X132.435Y-131.814
X134.97Y-127.881
X135.502Y-114.701
X135.838Y-116.944
X137.429Y-119.211
X137.945Y-120.8
X138.778Y-113.219
X138.842Y-114.221
X139.268Y-124.592
X140.117Y-123.987
X140.296Y-114.457
X141.439Y-118.152
X141.749Y-114.005
X142.824Y-115.625
X142.826Y-127.137
X142.985Y-112.765
X142.988Y-120.645
X143.211Y-108.477
X143.543Y-124.651
X143.737Y-116.355
X143.82Y-122.287
X143.835Y-121.233
X144.371Y-127.95
X144.388Y-106.851
X144.412Y-112.053
X144.926Y-129.561
X145.239Y-132.153
X145.554Y-110.797
X145.575Y-111.845
X145.661Y-114.558
X145.75Y-118.272
X145.806Y-130.334
X146.282Y-132.048
X146.492Y-109.78
X146.818Y-125.28
X146.886Y-111.1
X147.117Y-79.334
X147.383Y-108.678
X148.278Y-111.796
X148.807Y-119.17
X149.044Y-74.469
X149.401Y-116.791
X149.548Y-114.279
X150.808Y-122.062
X150.842Y-121.022
X150.938Y-117.04
X151.482Y-116.119
X151.548Y-84.911
X151.794Y-76.215
X151.853Y-120.644
X151.951Y-104.617
X152.378Y-115.597
X152.435Y-113.647
X152.574Y-93.107
X152.665Y-122.826
X153.063Y-119.794
X153.156Y-91.917
X153.384Y-118.46
X153.537Y-106.807
X153.752Y-122.828
X154.528Y-125.268
X155.027Y-100.395
X155.365Y-93.498
X155.721Y-119.403
X156.438Y-117.76
X157.14Y-126.202
X158.499Y-111.857
X159.004Y-121.919
X160.601Y-88.712
X161.432Y-110.278
X161.471Y-109.26
X162.115Y-117.326
X163.275Y-132.861
X163.276Y-119.541
X163.675Y-114.425
X164.653Y-130.411
X165.384Y-128.942
X166.06Y-126.859
X167.533Y-116.32
X168.172Y-99.009
X168.259Y-114.64
X169.432Y-100.543
X169.628Y-114.191
X171.457Y-114.937
X173.334Y-136.912
T2
X125.193Y-126.492
X127.193Y-126.492
X158.999Y-72.855
X158.999Y-75.395
X158.999Y-77.935
X158.999Y-80.475
X158.999Y-83.015
X158.999Y-85.555
X158.999Y-88.095
X158.999Y-90.635
X158.999Y-93.175
X158.999Y-95.715
X158.999Y-98.255
X158.999Y-100.795
X158.999Y-103.335
X158.999Y-105.875
X174.239Y-72.855
X174.239Y-75.395
X174.239Y-77.935
X174.239Y-80.475
X174.239Y-83.015
X174.239Y-85.555
X174.239Y-88.095
X174.239Y-90.635
X174.239Y-93.175
X174.239Y-95.715
X174.239Y-98.255
X174.239Y-100.795
X174.239Y-103.335
X174.239Y-105.875
T3
X123.967Y-120.65
X126.507Y-120.65
X129.047Y-120.65
X173.99Y-110.998
X173.99Y-113.538
X173.99Y-116.078
X173.99Y-118.618
X173.99Y-121.158
X173.99Y-123.698
T4
X125.476Y-53.594
X127.976Y-53.294
X132.976Y-53.294
X135.476Y-53.594
X160.862Y-53.594
X163.362Y-53.294
X168.362Y-53.294
X170.862Y-53.594
T5
X122.976Y-63.294
X125.476Y-65.794
X130.476Y-63.294
X130.476Y-68.294
X135.476Y-65.794
X137.976Y-63.294
X158.362Y-63.294
X160.862Y-65.794
X165.862Y-63.294
X165.862Y-68.294
X170.862Y-65.794
X173.362Y-63.294
T0
M30
