G04 #@! TF.GenerationSoftware,KiCad,Pcbnew,6.0.2+dfsg-1*
G04 #@! TF.CreationDate,2025-05-07T10:44:27+02:00*
G04 #@! TF.ProjectId,burstcart-cpld-44,62757273-7463-4617-9274-2d63706c642d,1.1*
G04 #@! TF.SameCoordinates,Original*
G04 #@! TF.FileFunction,Legend,Bot*
G04 #@! TF.FilePolarity,Positive*
%FSLAX46Y46*%
G04 Gerber Fmt 4.6, Leading zero omitted, Abs format (unit mm)*
G04 Created by KiCad (PCBNEW 6.0.2+dfsg-1) date 2025-05-07 10:44:27*
%MOMM*%
%LPD*%
G01*
G04 APERTURE LIST*
G04 Aperture macros list*
%AMRoundRect*
0 Rectangle with rounded corners*
0 $1 Rounding radius*
0 $2 $3 $4 $5 $6 $7 $8 $9 X,Y pos of 4 corners*
0 Add a 4 corners polygon primitive as box body*
4,1,4,$2,$3,$4,$5,$6,$7,$8,$9,$2,$3,0*
0 Add four circle primitives for the rounded corners*
1,1,$1+$1,$2,$3*
1,1,$1+$1,$4,$5*
1,1,$1+$1,$6,$7*
1,1,$1+$1,$8,$9*
0 Add four rect primitives between the rounded corners*
20,1,$1+$1,$2,$3,$4,$5,0*
20,1,$1+$1,$4,$5,$6,$7,0*
20,1,$1+$1,$6,$7,$8,$9,0*
20,1,$1+$1,$8,$9,$2,$3,0*%
G04 Aperture macros list end*
%ADD10C,0.200000*%
%ADD11C,2.100000*%
%ADD12C,2.500000*%
%ADD13R,1.600000X1.600000*%
%ADD14O,1.600000X1.600000*%
%ADD15R,1.700000X1.700000*%
%ADD16O,1.700000X1.700000*%
%ADD17C,5.000000*%
%ADD18RoundRect,0.163300X-0.337500X-4.512500X0.337500X-4.512500X0.337500X4.512500X-0.337500X4.512500X0*%
%ADD19C,1.600000*%
G04 APERTURE END LIST*
D10*
X132273142Y-108666952D02*
X132235047Y-108552666D01*
X132196952Y-108514571D01*
X132120761Y-108476476D01*
X132006476Y-108476476D01*
X131930285Y-108514571D01*
X131892190Y-108552666D01*
X131854095Y-108628857D01*
X131854095Y-108933619D01*
X132654095Y-108933619D01*
X132654095Y-108666952D01*
X132616000Y-108590761D01*
X132577904Y-108552666D01*
X132501714Y-108514571D01*
X132425523Y-108514571D01*
X132349333Y-108552666D01*
X132311238Y-108590761D01*
X132273142Y-108666952D01*
X132273142Y-108933619D01*
X132387428Y-107790761D02*
X131854095Y-107790761D01*
X132387428Y-108133619D02*
X131968380Y-108133619D01*
X131892190Y-108095523D01*
X131854095Y-108019333D01*
X131854095Y-107905047D01*
X131892190Y-107828857D01*
X131930285Y-107790761D01*
X131854095Y-107409809D02*
X132387428Y-107409809D01*
X132235047Y-107409809D02*
X132311238Y-107371714D01*
X132349333Y-107333619D01*
X132387428Y-107257428D01*
X132387428Y-107181238D01*
X131892190Y-106952666D02*
X131854095Y-106876476D01*
X131854095Y-106724095D01*
X131892190Y-106647904D01*
X131968380Y-106609809D01*
X132006476Y-106609809D01*
X132082666Y-106647904D01*
X132120761Y-106724095D01*
X132120761Y-106838380D01*
X132158857Y-106914571D01*
X132235047Y-106952666D01*
X132273142Y-106952666D01*
X132349333Y-106914571D01*
X132387428Y-106838380D01*
X132387428Y-106724095D01*
X132349333Y-106647904D01*
X132387428Y-106381238D02*
X132387428Y-106076476D01*
X132654095Y-106266952D02*
X131968380Y-106266952D01*
X131892190Y-106228857D01*
X131854095Y-106152666D01*
X131854095Y-106076476D01*
X131930285Y-105352666D02*
X131892190Y-105390761D01*
X131854095Y-105505047D01*
X131854095Y-105581238D01*
X131892190Y-105695523D01*
X131968380Y-105771714D01*
X132044571Y-105809809D01*
X132196952Y-105847904D01*
X132311238Y-105847904D01*
X132463619Y-105809809D01*
X132539809Y-105771714D01*
X132616000Y-105695523D01*
X132654095Y-105581238D01*
X132654095Y-105505047D01*
X132616000Y-105390761D01*
X132577904Y-105352666D01*
X131854095Y-104666952D02*
X132273142Y-104666952D01*
X132349333Y-104705047D01*
X132387428Y-104781238D01*
X132387428Y-104933619D01*
X132349333Y-105009809D01*
X131892190Y-104666952D02*
X131854095Y-104743142D01*
X131854095Y-104933619D01*
X131892190Y-105009809D01*
X131968380Y-105047904D01*
X132044571Y-105047904D01*
X132120761Y-105009809D01*
X132158857Y-104933619D01*
X132158857Y-104743142D01*
X132196952Y-104666952D01*
X131854095Y-104286000D02*
X132387428Y-104286000D01*
X132235047Y-104286000D02*
X132311238Y-104247904D01*
X132349333Y-104209809D01*
X132387428Y-104133619D01*
X132387428Y-104057428D01*
X132387428Y-103905047D02*
X132387428Y-103600285D01*
X132654095Y-103790761D02*
X131968380Y-103790761D01*
X131892190Y-103752666D01*
X131854095Y-103676476D01*
X131854095Y-103600285D01*
X132158857Y-103333619D02*
X132158857Y-102724095D01*
X131854095Y-103028857D02*
X132463619Y-103028857D01*
X132387428Y-102000285D02*
X131854095Y-102000285D01*
X132692190Y-102190761D02*
X132120761Y-102381238D01*
X132120761Y-101886000D01*
X132387428Y-101047904D02*
X131854095Y-100857428D01*
X132387428Y-100666952D01*
X131854095Y-99943142D02*
X131854095Y-100400285D01*
X131854095Y-100171714D02*
X132654095Y-100171714D01*
X132539809Y-100247904D01*
X132463619Y-100324095D01*
X132425523Y-100400285D01*
X131930285Y-99600285D02*
X131892190Y-99562190D01*
X131854095Y-99600285D01*
X131892190Y-99638380D01*
X131930285Y-99600285D01*
X131854095Y-99600285D01*
X131854095Y-98800285D02*
X131854095Y-99257428D01*
X131854095Y-99028857D02*
X132654095Y-99028857D01*
X132539809Y-99105047D01*
X132463619Y-99181238D01*
X132425523Y-99257428D01*
X130566095Y-117314571D02*
X131366095Y-117314571D01*
X130794666Y-117047904D01*
X131366095Y-116781238D01*
X130566095Y-116781238D01*
X130566095Y-116057428D02*
X130985142Y-116057428D01*
X131061333Y-116095523D01*
X131099428Y-116171714D01*
X131099428Y-116324095D01*
X131061333Y-116400285D01*
X130604190Y-116057428D02*
X130566095Y-116133619D01*
X130566095Y-116324095D01*
X130604190Y-116400285D01*
X130680380Y-116438380D01*
X130756571Y-116438380D01*
X130832761Y-116400285D01*
X130870857Y-116324095D01*
X130870857Y-116133619D01*
X130908952Y-116057428D01*
X130604190Y-115333619D02*
X130566095Y-115409809D01*
X130566095Y-115562190D01*
X130604190Y-115638380D01*
X130642285Y-115676476D01*
X130718476Y-115714571D01*
X130947047Y-115714571D01*
X131023238Y-115676476D01*
X131061333Y-115638380D01*
X131099428Y-115562190D01*
X131099428Y-115409809D01*
X131061333Y-115333619D01*
X130566095Y-114990761D02*
X131099428Y-114990761D01*
X131366095Y-114990761D02*
X131328000Y-115028857D01*
X131289904Y-114990761D01*
X131328000Y-114952666D01*
X131366095Y-114990761D01*
X131289904Y-114990761D01*
X130604190Y-114305047D02*
X130566095Y-114381238D01*
X130566095Y-114533619D01*
X130604190Y-114609809D01*
X130680380Y-114647904D01*
X130985142Y-114647904D01*
X131061333Y-114609809D01*
X131099428Y-114533619D01*
X131099428Y-114381238D01*
X131061333Y-114305047D01*
X130985142Y-114266952D01*
X130908952Y-114266952D01*
X130832761Y-114647904D01*
X131099428Y-113924095D02*
X130413714Y-113924095D01*
X130337523Y-113962190D01*
X130299428Y-114038380D01*
X130299428Y-114076476D01*
X131366095Y-113924095D02*
X131328000Y-113962190D01*
X131289904Y-113924095D01*
X131328000Y-113886000D01*
X131366095Y-113924095D01*
X131289904Y-113924095D01*
X131099428Y-112324095D02*
X130870857Y-112933619D01*
X130642285Y-112324095D01*
X131099428Y-112019333D02*
X130566095Y-111828857D01*
X131099428Y-111638380D02*
X130566095Y-111828857D01*
X130375619Y-111905047D01*
X130337523Y-111943142D01*
X130299428Y-112019333D01*
X131099428Y-111447904D02*
X131099428Y-111143142D01*
X131366095Y-111333619D02*
X130680380Y-111333619D01*
X130604190Y-111295523D01*
X130566095Y-111219333D01*
X130566095Y-111143142D01*
X130566095Y-110876476D02*
X131099428Y-110876476D01*
X131023238Y-110876476D02*
X131061333Y-110838380D01*
X131099428Y-110762190D01*
X131099428Y-110647904D01*
X131061333Y-110571714D01*
X130985142Y-110533619D01*
X130566095Y-110533619D01*
X130985142Y-110533619D02*
X131061333Y-110495523D01*
X131099428Y-110419333D01*
X131099428Y-110305047D01*
X131061333Y-110228857D01*
X130985142Y-110190761D01*
X130566095Y-110190761D01*
X130947047Y-109314571D02*
X130985142Y-109352666D01*
X131023238Y-109428857D01*
X131023238Y-109505047D01*
X130985142Y-109581238D01*
X130947047Y-109619333D01*
X130870857Y-109657428D01*
X130794666Y-109657428D01*
X130718476Y-109619333D01*
X130680380Y-109581238D01*
X130642285Y-109505047D01*
X130642285Y-109428857D01*
X130680380Y-109352666D01*
X130718476Y-109314571D01*
X131023238Y-109314571D02*
X130718476Y-109314571D01*
X130680380Y-109276476D01*
X130680380Y-109238380D01*
X130718476Y-109162190D01*
X130794666Y-109124095D01*
X130985142Y-109124095D01*
X131099428Y-109200285D01*
X131175619Y-109314571D01*
X131213714Y-109466952D01*
X131175619Y-109619333D01*
X131099428Y-109733619D01*
X130985142Y-109809809D01*
X130832761Y-109847904D01*
X130680380Y-109809809D01*
X130566095Y-109733619D01*
X130489904Y-109619333D01*
X130451809Y-109466952D01*
X130489904Y-109314571D01*
X130566095Y-109200285D01*
X130604190Y-108476476D02*
X130566095Y-108552666D01*
X130566095Y-108705047D01*
X130604190Y-108781238D01*
X130680380Y-108819333D01*
X130985142Y-108819333D01*
X131061333Y-108781238D01*
X131099428Y-108705047D01*
X131099428Y-108552666D01*
X131061333Y-108476476D01*
X130985142Y-108438380D01*
X130908952Y-108438380D01*
X130832761Y-108819333D01*
X130566095Y-107981238D02*
X130604190Y-108057428D01*
X130680380Y-108095523D01*
X131366095Y-108095523D01*
X131099428Y-107752666D02*
X130566095Y-107562190D01*
X131099428Y-107371714D02*
X130566095Y-107562190D01*
X130375619Y-107638380D01*
X130337523Y-107676476D01*
X130299428Y-107752666D01*
X130604190Y-107105047D02*
X130566095Y-107028857D01*
X130566095Y-106876476D01*
X130604190Y-106800285D01*
X130680380Y-106762190D01*
X130718476Y-106762190D01*
X130794666Y-106800285D01*
X130832761Y-106876476D01*
X130832761Y-106990761D01*
X130870857Y-107066952D01*
X130947047Y-107105047D01*
X130985142Y-107105047D01*
X131061333Y-107066952D01*
X131099428Y-106990761D01*
X131099428Y-106876476D01*
X131061333Y-106800285D01*
X130566095Y-106419333D02*
X131099428Y-106419333D01*
X131366095Y-106419333D02*
X131328000Y-106457428D01*
X131289904Y-106419333D01*
X131328000Y-106381238D01*
X131366095Y-106419333D01*
X131289904Y-106419333D01*
X131099428Y-105695523D02*
X130566095Y-105695523D01*
X131099428Y-106038380D02*
X130680380Y-106038380D01*
X130604190Y-106000285D01*
X130566095Y-105924095D01*
X130566095Y-105809809D01*
X130604190Y-105733619D01*
X130642285Y-105695523D01*
X130566095Y-105314571D02*
X131099428Y-105314571D01*
X131023238Y-105314571D02*
X131061333Y-105276476D01*
X131099428Y-105200285D01*
X131099428Y-105086000D01*
X131061333Y-105009809D01*
X130985142Y-104971714D01*
X130566095Y-104971714D01*
X130985142Y-104971714D02*
X131061333Y-104933619D01*
X131099428Y-104857428D01*
X131099428Y-104743142D01*
X131061333Y-104666952D01*
X130985142Y-104628857D01*
X130566095Y-104628857D01*
X130642285Y-104247904D02*
X130604190Y-104209809D01*
X130566095Y-104247904D01*
X130604190Y-104286000D01*
X130642285Y-104247904D01*
X130566095Y-104247904D01*
X131099428Y-103866952D02*
X130299428Y-103866952D01*
X131061333Y-103866952D02*
X131099428Y-103790761D01*
X131099428Y-103638380D01*
X131061333Y-103562190D01*
X131023238Y-103524095D01*
X130947047Y-103486000D01*
X130718476Y-103486000D01*
X130642285Y-103524095D01*
X130604190Y-103562190D01*
X130566095Y-103638380D01*
X130566095Y-103790761D01*
X130604190Y-103866952D01*
X130566095Y-103028857D02*
X130604190Y-103105047D01*
X130680380Y-103143142D01*
X131366095Y-103143142D01*
X131099428Y-102724095D02*
X130870857Y-102114571D01*
X130642285Y-102724095D01*
X131366095Y-101200285D02*
X130566095Y-101009809D01*
X131137523Y-100857428D01*
X130566095Y-100705047D01*
X131366095Y-100514571D01*
X130566095Y-100209809D02*
X131099428Y-100209809D01*
X131366095Y-100209809D02*
X131328000Y-100247904D01*
X131289904Y-100209809D01*
X131328000Y-100171714D01*
X131366095Y-100209809D01*
X131289904Y-100209809D01*
X131099428Y-99943142D02*
X131099428Y-99638380D01*
X131366095Y-99828857D02*
X130680380Y-99828857D01*
X130604190Y-99790761D01*
X130566095Y-99714571D01*
X130566095Y-99638380D01*
X130566095Y-99371714D02*
X131366095Y-99371714D01*
X130870857Y-99295523D02*
X130566095Y-99066952D01*
X131099428Y-99066952D02*
X130794666Y-99371714D01*
X130566095Y-98609809D02*
X130604190Y-98686000D01*
X130642285Y-98724095D01*
X130718476Y-98762190D01*
X130947047Y-98762190D01*
X131023238Y-98724095D01*
X131061333Y-98686000D01*
X131099428Y-98609809D01*
X131099428Y-98495523D01*
X131061333Y-98419333D01*
X131023238Y-98381238D01*
X130947047Y-98343142D01*
X130718476Y-98343142D01*
X130642285Y-98381238D01*
X130604190Y-98419333D01*
X130566095Y-98495523D01*
X130566095Y-98609809D01*
X131099428Y-98076476D02*
X130566095Y-97924095D01*
X130947047Y-97771714D01*
X130566095Y-97619333D01*
X131099428Y-97466952D01*
X130566095Y-97162190D02*
X131099428Y-97162190D01*
X131366095Y-97162190D02*
X131328000Y-97200285D01*
X131289904Y-97162190D01*
X131328000Y-97124095D01*
X131366095Y-97162190D01*
X131289904Y-97162190D01*
X130566095Y-96438380D02*
X130985142Y-96438380D01*
X131061333Y-96476476D01*
X131099428Y-96552666D01*
X131099428Y-96705047D01*
X131061333Y-96781238D01*
X130604190Y-96438380D02*
X130566095Y-96514571D01*
X130566095Y-96705047D01*
X130604190Y-96781238D01*
X130680380Y-96819333D01*
X130756571Y-96819333D01*
X130832761Y-96781238D01*
X130870857Y-96705047D01*
X130870857Y-96514571D01*
X130908952Y-96438380D01*
X130566095Y-96057428D02*
X131366095Y-96057428D01*
X130870857Y-95981238D02*
X130566095Y-95752666D01*
X131099428Y-95752666D02*
X130794666Y-96057428D01*
X130604190Y-95371714D02*
X130566095Y-95371714D01*
X130489904Y-95409809D01*
X130451809Y-95447904D01*
X131366095Y-94533619D02*
X130566095Y-94266952D01*
X131366095Y-94000285D01*
X131289904Y-93162190D02*
X131328000Y-93124095D01*
X131366095Y-93047904D01*
X131366095Y-92857428D01*
X131328000Y-92781238D01*
X131289904Y-92743142D01*
X131213714Y-92705047D01*
X131137523Y-92705047D01*
X131023238Y-92743142D01*
X130566095Y-93200285D01*
X130566095Y-92705047D01*
X131366095Y-92209809D02*
X131366095Y-92133619D01*
X131328000Y-92057428D01*
X131289904Y-92019333D01*
X131213714Y-91981238D01*
X131061333Y-91943142D01*
X130870857Y-91943142D01*
X130718476Y-91981238D01*
X130642285Y-92019333D01*
X130604190Y-92057428D01*
X130566095Y-92133619D01*
X130566095Y-92209809D01*
X130604190Y-92286000D01*
X130642285Y-92324095D01*
X130718476Y-92362190D01*
X130870857Y-92400285D01*
X131061333Y-92400285D01*
X131213714Y-92362190D01*
X131289904Y-92324095D01*
X131328000Y-92286000D01*
X131366095Y-92209809D01*
X131289904Y-91638380D02*
X131328000Y-91600285D01*
X131366095Y-91524095D01*
X131366095Y-91333619D01*
X131328000Y-91257428D01*
X131289904Y-91219333D01*
X131213714Y-91181238D01*
X131137523Y-91181238D01*
X131023238Y-91219333D01*
X130566095Y-91676476D01*
X130566095Y-91181238D01*
X131366095Y-90457428D02*
X131366095Y-90838380D01*
X130985142Y-90876476D01*
X131023238Y-90838380D01*
X131061333Y-90762190D01*
X131061333Y-90571714D01*
X131023238Y-90495523D01*
X130985142Y-90457428D01*
X130908952Y-90419333D01*
X130718476Y-90419333D01*
X130642285Y-90457428D01*
X130604190Y-90495523D01*
X130566095Y-90571714D01*
X130566095Y-90762190D01*
X130604190Y-90838380D01*
X130642285Y-90876476D01*
%LPC*%
D11*
X127976000Y-53294000D03*
X125476000Y-53594000D03*
X132976000Y-53294000D03*
X135476000Y-53594000D03*
D12*
X122976000Y-63294000D03*
X125476000Y-65794000D03*
X130476000Y-63294000D03*
X135476000Y-65794000D03*
X137976000Y-63294000D03*
X130476000Y-68294000D03*
D13*
X158999000Y-72854600D03*
D14*
X158999000Y-75394600D03*
X158999000Y-77934600D03*
X158999000Y-80474600D03*
X158999000Y-83014600D03*
X158999000Y-85554600D03*
X158999000Y-88094600D03*
X158999000Y-90634600D03*
X158999000Y-93174600D03*
X158999000Y-95714600D03*
X158999000Y-98254600D03*
X158999000Y-100794600D03*
X158999000Y-103334600D03*
X158999000Y-105874600D03*
X174239000Y-105874600D03*
X174239000Y-103334600D03*
X174239000Y-100794600D03*
X174239000Y-98254600D03*
X174239000Y-95714600D03*
X174239000Y-93174600D03*
X174239000Y-90634600D03*
X174239000Y-88094600D03*
X174239000Y-85554600D03*
X174239000Y-83014600D03*
X174239000Y-80474600D03*
X174239000Y-77934600D03*
X174239000Y-75394600D03*
X174239000Y-72854600D03*
D15*
X123967000Y-120650000D03*
D16*
X126507000Y-120650000D03*
X129047000Y-120650000D03*
D17*
X148253100Y-94259600D03*
D18*
X124253100Y-137759600D03*
X168253100Y-137759600D03*
X126253100Y-137759600D03*
X170253100Y-137759600D03*
X128253100Y-137759600D03*
X172253100Y-137759600D03*
X130253100Y-137759600D03*
X132253100Y-137759600D03*
X134253100Y-137759600D03*
X136253100Y-137759600D03*
X138253100Y-137759600D03*
X140253100Y-137759600D03*
X142253100Y-137759600D03*
X144253100Y-137759600D03*
X146253100Y-137759600D03*
X148253100Y-137759600D03*
X150253100Y-137759600D03*
X152253100Y-137759600D03*
X154253100Y-137759600D03*
X156253100Y-137759600D03*
X158253100Y-137759600D03*
X160253100Y-137759600D03*
X162253100Y-137759600D03*
X164253100Y-137759600D03*
X166253100Y-137759600D03*
D11*
X170862000Y-53594000D03*
X168362000Y-53294000D03*
X160862000Y-53594000D03*
X163362000Y-53294000D03*
D12*
X158362000Y-63294000D03*
X160862000Y-65794000D03*
X165862000Y-63294000D03*
X170862000Y-65794000D03*
X173362000Y-63294000D03*
X165862000Y-68294000D03*
D13*
X127193100Y-126492000D03*
D19*
X125193100Y-126492000D03*
D15*
X173990000Y-110998000D03*
D16*
X173990000Y-113538000D03*
X173990000Y-116078000D03*
X173990000Y-118618000D03*
X173990000Y-121158000D03*
X173990000Y-123698000D03*
M02*
