G04 #@! TF.GenerationSoftware,KiCad,Pcbnew,6.0.2+dfsg-1*
G04 #@! TF.CreationDate,2025-05-07T23:53:04+02:00*
G04 #@! TF.ProjectId,burstcart,62757273-7463-4617-9274-2e6b69636164,1.1*
G04 #@! TF.SameCoordinates,Original*
G04 #@! TF.FileFunction,Legend,Top*
G04 #@! TF.FilePolarity,Positive*
%FSLAX46Y46*%
G04 Gerber Fmt 4.6, Leading zero omitted, Abs format (unit mm)*
G04 Created by KiCad (PCBNEW 6.0.2+dfsg-1) date 2025-05-07 23:53:04*
%MOMM*%
%LPD*%
G01*
G04 APERTURE LIST*
G04 Aperture macros list*
%AMRoundRect*
0 Rectangle with rounded corners*
0 $1 Rounding radius*
0 $2 $3 $4 $5 $6 $7 $8 $9 X,Y pos of 4 corners*
0 Add a 4 corners polygon primitive as box body*
4,1,4,$2,$3,$4,$5,$6,$7,$8,$9,$2,$3,0*
0 Add four circle primitives for the rounded corners*
1,1,$1+$1,$2,$3*
1,1,$1+$1,$4,$5*
1,1,$1+$1,$6,$7*
1,1,$1+$1,$8,$9*
0 Add four rect primitives between the rounded corners*
20,1,$1+$1,$2,$3,$4,$5,0*
20,1,$1+$1,$4,$5,$6,$7,0*
20,1,$1+$1,$6,$7,$8,$9,0*
20,1,$1+$1,$8,$9,$2,$3,0*%
G04 Aperture macros list end*
%ADD10C,0.175000*%
%ADD11C,0.200000*%
%ADD12C,0.150000*%
%ADD13C,0.120000*%
%ADD14C,0.127000*%
%ADD15C,1.600000*%
%ADD16R,1.700000X1.700000*%
%ADD17O,1.700000X1.700000*%
%ADD18C,2.100000*%
%ADD19C,2.500000*%
%ADD20R,1.600000X1.600000*%
%ADD21O,1.600000X1.600000*%
%ADD22C,5.000000*%
%ADD23RoundRect,0.163300X-0.337500X-4.512500X0.337500X-4.512500X0.337500X4.512500X-0.337500X4.512500X0*%
G04 APERTURE END LIST*
D10*
X153512000Y-69152250D02*
X153545333Y-69085583D01*
X153545333Y-68985583D01*
X153512000Y-68885583D01*
X153445333Y-68818916D01*
X153378666Y-68785583D01*
X153245333Y-68752250D01*
X153145333Y-68752250D01*
X153012000Y-68785583D01*
X152945333Y-68818916D01*
X152878666Y-68885583D01*
X152845333Y-68985583D01*
X152845333Y-69052250D01*
X152878666Y-69152250D01*
X152912000Y-69185583D01*
X153145333Y-69185583D01*
X153145333Y-69052250D01*
X152845333Y-69485583D02*
X153545333Y-69485583D01*
X152845333Y-69885583D01*
X153545333Y-69885583D01*
X152845333Y-70218916D02*
X153545333Y-70218916D01*
X153545333Y-70385583D01*
X153512000Y-70485583D01*
X153445333Y-70552250D01*
X153378666Y-70585583D01*
X153245333Y-70618916D01*
X153145333Y-70618916D01*
X153012000Y-70585583D01*
X152945333Y-70552250D01*
X152878666Y-70485583D01*
X152845333Y-70385583D01*
X152845333Y-70218916D01*
X143206000Y-76734416D02*
X143206000Y-77267750D01*
X142939333Y-77001083D02*
X143472666Y-77001083D01*
X143639333Y-77934416D02*
X143639333Y-77601083D01*
X143306000Y-77567750D01*
X143339333Y-77601083D01*
X143372666Y-77667750D01*
X143372666Y-77834416D01*
X143339333Y-77901083D01*
X143306000Y-77934416D01*
X143239333Y-77967750D01*
X143072666Y-77967750D01*
X143006000Y-77934416D01*
X142972666Y-77901083D01*
X142939333Y-77834416D01*
X142939333Y-77667750D01*
X142972666Y-77601083D01*
X143006000Y-77567750D01*
X143639333Y-78167750D02*
X142939333Y-78401083D01*
X143639333Y-78634416D01*
X148019333Y-76734416D02*
X148719333Y-76734416D01*
X148719333Y-77001083D01*
X148686000Y-77067750D01*
X148652666Y-77101083D01*
X148586000Y-77134416D01*
X148486000Y-77134416D01*
X148419333Y-77101083D01*
X148386000Y-77067750D01*
X148352666Y-77001083D01*
X148352666Y-76734416D01*
X148219333Y-77401083D02*
X148219333Y-77734416D01*
X148019333Y-77334416D02*
X148719333Y-77567750D01*
X148019333Y-77801083D01*
X148486000Y-78334416D02*
X148019333Y-78334416D01*
X148752666Y-78167750D02*
X148252666Y-78001083D01*
X148252666Y-78434416D01*
X143528250Y-66102666D02*
X143528250Y-65402666D01*
X143794916Y-65402666D01*
X143861583Y-65436000D01*
X143894916Y-65469333D01*
X143928250Y-65536000D01*
X143928250Y-65636000D01*
X143894916Y-65702666D01*
X143861583Y-65736000D01*
X143794916Y-65769333D01*
X143528250Y-65769333D01*
X144461583Y-65736000D02*
X144561583Y-65769333D01*
X144594916Y-65802666D01*
X144628250Y-65869333D01*
X144628250Y-65969333D01*
X144594916Y-66036000D01*
X144561583Y-66069333D01*
X144494916Y-66102666D01*
X144228250Y-66102666D01*
X144228250Y-65402666D01*
X144461583Y-65402666D01*
X144528250Y-65436000D01*
X144561583Y-65469333D01*
X144594916Y-65536000D01*
X144594916Y-65602666D01*
X144561583Y-65669333D01*
X144528250Y-65702666D01*
X144461583Y-65736000D01*
X144228250Y-65736000D01*
X144861583Y-65402666D02*
X145328250Y-65402666D01*
X145028250Y-66102666D01*
X151410416Y-61022666D02*
X151410416Y-60322666D01*
X151677083Y-60322666D01*
X151743750Y-60356000D01*
X151777083Y-60389333D01*
X151810416Y-60456000D01*
X151810416Y-60556000D01*
X151777083Y-60622666D01*
X151743750Y-60656000D01*
X151677083Y-60689333D01*
X151410416Y-60689333D01*
X152343750Y-60656000D02*
X152443750Y-60689333D01*
X152477083Y-60722666D01*
X152510416Y-60789333D01*
X152510416Y-60889333D01*
X152477083Y-60956000D01*
X152443750Y-60989333D01*
X152377083Y-61022666D01*
X152110416Y-61022666D01*
X152110416Y-60322666D01*
X152343750Y-60322666D01*
X152410416Y-60356000D01*
X152443750Y-60389333D01*
X152477083Y-60456000D01*
X152477083Y-60522666D01*
X152443750Y-60589333D01*
X152410416Y-60622666D01*
X152343750Y-60656000D01*
X152110416Y-60656000D01*
X153110416Y-60556000D02*
X153110416Y-61022666D01*
X152943750Y-60289333D02*
X152777083Y-60789333D01*
X153210416Y-60789333D01*
X143528250Y-58482666D02*
X143528250Y-57782666D01*
X143794916Y-57782666D01*
X143861583Y-57816000D01*
X143894916Y-57849333D01*
X143928250Y-57916000D01*
X143928250Y-58016000D01*
X143894916Y-58082666D01*
X143861583Y-58116000D01*
X143794916Y-58149333D01*
X143528250Y-58149333D01*
X144461583Y-58116000D02*
X144561583Y-58149333D01*
X144594916Y-58182666D01*
X144628250Y-58249333D01*
X144628250Y-58349333D01*
X144594916Y-58416000D01*
X144561583Y-58449333D01*
X144494916Y-58482666D01*
X144228250Y-58482666D01*
X144228250Y-57782666D01*
X144461583Y-57782666D01*
X144528250Y-57816000D01*
X144561583Y-57849333D01*
X144594916Y-57916000D01*
X144594916Y-57982666D01*
X144561583Y-58049333D01*
X144528250Y-58082666D01*
X144461583Y-58116000D01*
X144228250Y-58116000D01*
X145294916Y-58482666D02*
X144894916Y-58482666D01*
X145094916Y-58482666D02*
X145094916Y-57782666D01*
X145028250Y-57882666D01*
X144961583Y-57949333D01*
X144894916Y-57982666D01*
X145479333Y-68952250D02*
X146179333Y-68952250D01*
X146179333Y-69218916D01*
X146146000Y-69285583D01*
X146112666Y-69318916D01*
X146046000Y-69352250D01*
X145946000Y-69352250D01*
X145879333Y-69318916D01*
X145846000Y-69285583D01*
X145812666Y-69218916D01*
X145812666Y-68952250D01*
X145679333Y-69618916D02*
X145679333Y-69952250D01*
X145479333Y-69552250D02*
X146179333Y-69785583D01*
X145479333Y-70018916D01*
X146179333Y-70585583D02*
X146179333Y-70252250D01*
X145846000Y-70218916D01*
X145879333Y-70252250D01*
X145912666Y-70318916D01*
X145912666Y-70485583D01*
X145879333Y-70552250D01*
X145846000Y-70585583D01*
X145779333Y-70618916D01*
X145612666Y-70618916D01*
X145546000Y-70585583D01*
X145512666Y-70552250D01*
X145479333Y-70485583D01*
X145479333Y-70318916D01*
X145512666Y-70252250D01*
X145546000Y-70218916D01*
X151410416Y-55942666D02*
X151410416Y-55242666D01*
X151677083Y-55242666D01*
X151743750Y-55276000D01*
X151777083Y-55309333D01*
X151810416Y-55376000D01*
X151810416Y-55476000D01*
X151777083Y-55542666D01*
X151743750Y-55576000D01*
X151677083Y-55609333D01*
X151410416Y-55609333D01*
X152343750Y-55576000D02*
X152443750Y-55609333D01*
X152477083Y-55642666D01*
X152510416Y-55709333D01*
X152510416Y-55809333D01*
X152477083Y-55876000D01*
X152443750Y-55909333D01*
X152377083Y-55942666D01*
X152110416Y-55942666D01*
X152110416Y-55242666D01*
X152343750Y-55242666D01*
X152410416Y-55276000D01*
X152443750Y-55309333D01*
X152477083Y-55376000D01*
X152477083Y-55442666D01*
X152443750Y-55509333D01*
X152410416Y-55542666D01*
X152343750Y-55576000D01*
X152110416Y-55576000D01*
X152943750Y-55242666D02*
X153010416Y-55242666D01*
X153077083Y-55276000D01*
X153110416Y-55309333D01*
X153143750Y-55376000D01*
X153177083Y-55509333D01*
X153177083Y-55676000D01*
X153143750Y-55809333D01*
X153110416Y-55876000D01*
X153077083Y-55909333D01*
X153010416Y-55942666D01*
X152943750Y-55942666D01*
X152877083Y-55909333D01*
X152843750Y-55876000D01*
X152810416Y-55809333D01*
X152777083Y-55676000D01*
X152777083Y-55509333D01*
X152810416Y-55376000D01*
X152843750Y-55309333D01*
X152877083Y-55276000D01*
X152943750Y-55242666D01*
X153099333Y-76734416D02*
X153799333Y-76734416D01*
X153799333Y-77001083D01*
X153766000Y-77067750D01*
X153732666Y-77101083D01*
X153666000Y-77134416D01*
X153566000Y-77134416D01*
X153499333Y-77101083D01*
X153466000Y-77067750D01*
X153432666Y-77001083D01*
X153432666Y-76734416D01*
X153299333Y-77401083D02*
X153299333Y-77734416D01*
X153099333Y-77334416D02*
X153799333Y-77567750D01*
X153099333Y-77801083D01*
X153799333Y-78167750D02*
X153799333Y-78234416D01*
X153766000Y-78301083D01*
X153732666Y-78334416D01*
X153666000Y-78367750D01*
X153532666Y-78401083D01*
X153366000Y-78401083D01*
X153232666Y-78367750D01*
X153166000Y-78334416D01*
X153132666Y-78301083D01*
X153099333Y-78234416D01*
X153099333Y-78167750D01*
X153132666Y-78101083D01*
X153166000Y-78067750D01*
X153232666Y-78034416D01*
X153366000Y-78001083D01*
X153532666Y-78001083D01*
X153666000Y-78034416D01*
X153732666Y-78067750D01*
X153766000Y-78101083D01*
X153799333Y-78167750D01*
X142939333Y-68952250D02*
X143639333Y-68952250D01*
X143639333Y-69218916D01*
X143606000Y-69285583D01*
X143572666Y-69318916D01*
X143506000Y-69352250D01*
X143406000Y-69352250D01*
X143339333Y-69318916D01*
X143306000Y-69285583D01*
X143272666Y-69218916D01*
X143272666Y-68952250D01*
X143139333Y-69618916D02*
X143139333Y-69952250D01*
X142939333Y-69552250D02*
X143639333Y-69785583D01*
X142939333Y-70018916D01*
X143639333Y-70185583D02*
X143639333Y-70652250D01*
X142939333Y-70352250D01*
X150559333Y-68952250D02*
X151259333Y-68952250D01*
X151259333Y-69218916D01*
X151226000Y-69285583D01*
X151192666Y-69318916D01*
X151126000Y-69352250D01*
X151026000Y-69352250D01*
X150959333Y-69318916D01*
X150926000Y-69285583D01*
X150892666Y-69218916D01*
X150892666Y-68952250D01*
X150759333Y-69618916D02*
X150759333Y-69952250D01*
X150559333Y-69552250D02*
X151259333Y-69785583D01*
X150559333Y-70018916D01*
X150559333Y-70618916D02*
X150559333Y-70218916D01*
X150559333Y-70418916D02*
X151259333Y-70418916D01*
X151159333Y-70352250D01*
X151092666Y-70285583D01*
X151059333Y-70218916D01*
X143528250Y-61022666D02*
X143528250Y-60322666D01*
X143794916Y-60322666D01*
X143861583Y-60356000D01*
X143894916Y-60389333D01*
X143928250Y-60456000D01*
X143928250Y-60556000D01*
X143894916Y-60622666D01*
X143861583Y-60656000D01*
X143794916Y-60689333D01*
X143528250Y-60689333D01*
X144461583Y-60656000D02*
X144561583Y-60689333D01*
X144594916Y-60722666D01*
X144628250Y-60789333D01*
X144628250Y-60889333D01*
X144594916Y-60956000D01*
X144561583Y-60989333D01*
X144494916Y-61022666D01*
X144228250Y-61022666D01*
X144228250Y-60322666D01*
X144461583Y-60322666D01*
X144528250Y-60356000D01*
X144561583Y-60389333D01*
X144594916Y-60456000D01*
X144594916Y-60522666D01*
X144561583Y-60589333D01*
X144528250Y-60622666D01*
X144461583Y-60656000D01*
X144228250Y-60656000D01*
X144861583Y-60322666D02*
X145294916Y-60322666D01*
X145061583Y-60589333D01*
X145161583Y-60589333D01*
X145228250Y-60622666D01*
X145261583Y-60656000D01*
X145294916Y-60722666D01*
X145294916Y-60889333D01*
X145261583Y-60956000D01*
X145228250Y-60989333D01*
X145161583Y-61022666D01*
X144961583Y-61022666D01*
X144894916Y-60989333D01*
X144861583Y-60956000D01*
D11*
X167746495Y-108984685D02*
X167746495Y-109479923D01*
X167441733Y-109213257D01*
X167441733Y-109327542D01*
X167403638Y-109403733D01*
X167365542Y-109441828D01*
X167289352Y-109479923D01*
X167098876Y-109479923D01*
X167022685Y-109441828D01*
X166984590Y-109403733D01*
X166946495Y-109327542D01*
X166946495Y-109098971D01*
X166984590Y-109022780D01*
X167022685Y-108984685D01*
X167670304Y-109784685D02*
X167708400Y-109822780D01*
X167746495Y-109898971D01*
X167746495Y-110089447D01*
X167708400Y-110165638D01*
X167670304Y-110203733D01*
X167594114Y-110241828D01*
X167517923Y-110241828D01*
X167403638Y-110203733D01*
X166946495Y-109746590D01*
X166946495Y-110241828D01*
X166946495Y-110584685D02*
X167746495Y-110584685D01*
X166946495Y-111041828D02*
X167403638Y-110698971D01*
X167746495Y-111041828D02*
X167289352Y-110584685D01*
X167022685Y-111384685D02*
X166984590Y-111422780D01*
X166946495Y-111384685D01*
X166984590Y-111346590D01*
X167022685Y-111384685D01*
X166946495Y-111384685D01*
X167441733Y-111384685D02*
X167403638Y-111422780D01*
X167365542Y-111384685D01*
X167403638Y-111346590D01*
X167441733Y-111384685D01*
X167365542Y-111384685D01*
X166984590Y-112337066D02*
X166946495Y-112451352D01*
X166946495Y-112641828D01*
X166984590Y-112718019D01*
X167022685Y-112756114D01*
X167098876Y-112794209D01*
X167175066Y-112794209D01*
X167251257Y-112756114D01*
X167289352Y-112718019D01*
X167327447Y-112641828D01*
X167365542Y-112489447D01*
X167403638Y-112413257D01*
X167441733Y-112375161D01*
X167517923Y-112337066D01*
X167594114Y-112337066D01*
X167670304Y-112375161D01*
X167708400Y-112413257D01*
X167746495Y-112489447D01*
X167746495Y-112679923D01*
X167708400Y-112794209D01*
X167860780Y-112565638D02*
X166832209Y-112565638D01*
X167746495Y-113289447D02*
X167746495Y-113365638D01*
X167708400Y-113441828D01*
X167670304Y-113479923D01*
X167594114Y-113518019D01*
X167441733Y-113556114D01*
X167251257Y-113556114D01*
X167098876Y-113518019D01*
X167022685Y-113479923D01*
X166984590Y-113441828D01*
X166946495Y-113365638D01*
X166946495Y-113289447D01*
X166984590Y-113213257D01*
X167022685Y-113175161D01*
X167098876Y-113137066D01*
X167251257Y-113098971D01*
X167441733Y-113098971D01*
X167594114Y-113137066D01*
X167670304Y-113175161D01*
X167708400Y-113213257D01*
X167746495Y-113289447D01*
X167746495Y-114051352D02*
X167746495Y-114127542D01*
X167708400Y-114203733D01*
X167670304Y-114241828D01*
X167594114Y-114279923D01*
X167441733Y-114318019D01*
X167251257Y-114318019D01*
X167098876Y-114279923D01*
X167022685Y-114241828D01*
X166984590Y-114203733D01*
X166946495Y-114127542D01*
X166946495Y-114051352D01*
X166984590Y-113975161D01*
X167022685Y-113937066D01*
X167098876Y-113898971D01*
X167251257Y-113860876D01*
X167441733Y-113860876D01*
X167594114Y-113898971D01*
X167670304Y-113937066D01*
X167708400Y-113975161D01*
X167746495Y-114051352D01*
X167746495Y-114813257D02*
X167746495Y-114889447D01*
X167708400Y-114965638D01*
X167670304Y-115003733D01*
X167594114Y-115041828D01*
X167441733Y-115079923D01*
X167251257Y-115079923D01*
X167098876Y-115041828D01*
X167022685Y-115003733D01*
X166984590Y-114965638D01*
X166946495Y-114889447D01*
X166946495Y-114813257D01*
X166984590Y-114737066D01*
X167022685Y-114698971D01*
X167098876Y-114660876D01*
X167251257Y-114622780D01*
X167441733Y-114622780D01*
X167594114Y-114660876D01*
X167670304Y-114698971D01*
X167708400Y-114737066D01*
X167746495Y-114813257D01*
X167746495Y-115575161D02*
X167746495Y-115651352D01*
X167708400Y-115727542D01*
X167670304Y-115765638D01*
X167594114Y-115803733D01*
X167441733Y-115841828D01*
X167251257Y-115841828D01*
X167098876Y-115803733D01*
X167022685Y-115765638D01*
X166984590Y-115727542D01*
X166946495Y-115651352D01*
X166946495Y-115575161D01*
X166984590Y-115498971D01*
X167022685Y-115460876D01*
X167098876Y-115422780D01*
X167251257Y-115384685D01*
X167441733Y-115384685D01*
X167594114Y-115422780D01*
X167670304Y-115460876D01*
X167708400Y-115498971D01*
X167746495Y-115575161D01*
X167251257Y-116184685D02*
X167251257Y-116794209D01*
X166984590Y-117137066D02*
X166946495Y-117251352D01*
X166946495Y-117441828D01*
X166984590Y-117518019D01*
X167022685Y-117556114D01*
X167098876Y-117594209D01*
X167175066Y-117594209D01*
X167251257Y-117556114D01*
X167289352Y-117518019D01*
X167327447Y-117441828D01*
X167365542Y-117289447D01*
X167403638Y-117213257D01*
X167441733Y-117175161D01*
X167517923Y-117137066D01*
X167594114Y-117137066D01*
X167670304Y-117175161D01*
X167708400Y-117213257D01*
X167746495Y-117289447D01*
X167746495Y-117479923D01*
X167708400Y-117594209D01*
X167860780Y-117365638D02*
X166832209Y-117365638D01*
X167746495Y-117860876D02*
X167746495Y-118394209D01*
X166946495Y-118051352D01*
X167365542Y-118965638D02*
X167365542Y-118698971D01*
X166946495Y-118698971D02*
X167746495Y-118698971D01*
X167746495Y-119079923D01*
X167365542Y-119651352D02*
X167365542Y-119384685D01*
X166946495Y-119384685D02*
X167746495Y-119384685D01*
X167746495Y-119765638D01*
X167365542Y-120337066D02*
X167365542Y-120070400D01*
X166946495Y-120070400D02*
X167746495Y-120070400D01*
X167746495Y-120451352D01*
X167022685Y-121822780D02*
X166984590Y-121784685D01*
X166946495Y-121670400D01*
X166946495Y-121594209D01*
X166984590Y-121479923D01*
X167060780Y-121403733D01*
X167136971Y-121365638D01*
X167289352Y-121327542D01*
X167403638Y-121327542D01*
X167556019Y-121365638D01*
X167632209Y-121403733D01*
X167708400Y-121479923D01*
X167746495Y-121594209D01*
X167746495Y-121670400D01*
X167708400Y-121784685D01*
X167670304Y-121822780D01*
X166946495Y-122584685D02*
X166946495Y-122127542D01*
X166946495Y-122356114D02*
X167746495Y-122356114D01*
X167632209Y-122279923D01*
X167556019Y-122203733D01*
X167517923Y-122127542D01*
X166458495Y-109403733D02*
X166458495Y-109251352D01*
X166420400Y-109175161D01*
X166382304Y-109137066D01*
X166268019Y-109060876D01*
X166115638Y-109022780D01*
X165810876Y-109022780D01*
X165734685Y-109060876D01*
X165696590Y-109098971D01*
X165658495Y-109175161D01*
X165658495Y-109327542D01*
X165696590Y-109403733D01*
X165734685Y-109441828D01*
X165810876Y-109479923D01*
X166001352Y-109479923D01*
X166077542Y-109441828D01*
X166115638Y-109403733D01*
X166153733Y-109327542D01*
X166153733Y-109175161D01*
X166115638Y-109098971D01*
X166077542Y-109060876D01*
X166001352Y-109022780D01*
X166191828Y-110165638D02*
X165658495Y-110165638D01*
X166496590Y-109975161D02*
X165925161Y-109784685D01*
X165925161Y-110279923D01*
X165658495Y-110584685D02*
X166458495Y-110584685D01*
X165658495Y-111041828D02*
X166115638Y-110698971D01*
X166458495Y-111041828D02*
X166001352Y-110584685D01*
X165734685Y-111384685D02*
X165696590Y-111422780D01*
X165658495Y-111384685D01*
X165696590Y-111346590D01*
X165734685Y-111384685D01*
X165658495Y-111384685D01*
X166153733Y-111384685D02*
X166115638Y-111422780D01*
X166077542Y-111384685D01*
X166115638Y-111346590D01*
X166153733Y-111384685D01*
X166077542Y-111384685D01*
X165696590Y-112337066D02*
X165658495Y-112451352D01*
X165658495Y-112641828D01*
X165696590Y-112718019D01*
X165734685Y-112756114D01*
X165810876Y-112794209D01*
X165887066Y-112794209D01*
X165963257Y-112756114D01*
X166001352Y-112718019D01*
X166039447Y-112641828D01*
X166077542Y-112489447D01*
X166115638Y-112413257D01*
X166153733Y-112375161D01*
X166229923Y-112337066D01*
X166306114Y-112337066D01*
X166382304Y-112375161D01*
X166420400Y-112413257D01*
X166458495Y-112489447D01*
X166458495Y-112679923D01*
X166420400Y-112794209D01*
X166572780Y-112565638D02*
X165544209Y-112565638D01*
X166458495Y-113289447D02*
X166458495Y-113365638D01*
X166420400Y-113441828D01*
X166382304Y-113479923D01*
X166306114Y-113518019D01*
X166153733Y-113556114D01*
X165963257Y-113556114D01*
X165810876Y-113518019D01*
X165734685Y-113479923D01*
X165696590Y-113441828D01*
X165658495Y-113365638D01*
X165658495Y-113289447D01*
X165696590Y-113213257D01*
X165734685Y-113175161D01*
X165810876Y-113137066D01*
X165963257Y-113098971D01*
X166153733Y-113098971D01*
X166306114Y-113137066D01*
X166382304Y-113175161D01*
X166420400Y-113213257D01*
X166458495Y-113289447D01*
X166458495Y-114051352D02*
X166458495Y-114127542D01*
X166420400Y-114203733D01*
X166382304Y-114241828D01*
X166306114Y-114279923D01*
X166153733Y-114318019D01*
X165963257Y-114318019D01*
X165810876Y-114279923D01*
X165734685Y-114241828D01*
X165696590Y-114203733D01*
X165658495Y-114127542D01*
X165658495Y-114051352D01*
X165696590Y-113975161D01*
X165734685Y-113937066D01*
X165810876Y-113898971D01*
X165963257Y-113860876D01*
X166153733Y-113860876D01*
X166306114Y-113898971D01*
X166382304Y-113937066D01*
X166420400Y-113975161D01*
X166458495Y-114051352D01*
X166458495Y-114813257D02*
X166458495Y-114889447D01*
X166420400Y-114965638D01*
X166382304Y-115003733D01*
X166306114Y-115041828D01*
X166153733Y-115079923D01*
X165963257Y-115079923D01*
X165810876Y-115041828D01*
X165734685Y-115003733D01*
X165696590Y-114965638D01*
X165658495Y-114889447D01*
X165658495Y-114813257D01*
X165696590Y-114737066D01*
X165734685Y-114698971D01*
X165810876Y-114660876D01*
X165963257Y-114622780D01*
X166153733Y-114622780D01*
X166306114Y-114660876D01*
X166382304Y-114698971D01*
X166420400Y-114737066D01*
X166458495Y-114813257D01*
X166458495Y-115575161D02*
X166458495Y-115651352D01*
X166420400Y-115727542D01*
X166382304Y-115765638D01*
X166306114Y-115803733D01*
X166153733Y-115841828D01*
X165963257Y-115841828D01*
X165810876Y-115803733D01*
X165734685Y-115765638D01*
X165696590Y-115727542D01*
X165658495Y-115651352D01*
X165658495Y-115575161D01*
X165696590Y-115498971D01*
X165734685Y-115460876D01*
X165810876Y-115422780D01*
X165963257Y-115384685D01*
X166153733Y-115384685D01*
X166306114Y-115422780D01*
X166382304Y-115460876D01*
X166420400Y-115498971D01*
X166458495Y-115575161D01*
X165963257Y-116184685D02*
X165963257Y-116794209D01*
X165696590Y-117137066D02*
X165658495Y-117251352D01*
X165658495Y-117441828D01*
X165696590Y-117518019D01*
X165734685Y-117556114D01*
X165810876Y-117594209D01*
X165887066Y-117594209D01*
X165963257Y-117556114D01*
X166001352Y-117518019D01*
X166039447Y-117441828D01*
X166077542Y-117289447D01*
X166115638Y-117213257D01*
X166153733Y-117175161D01*
X166229923Y-117137066D01*
X166306114Y-117137066D01*
X166382304Y-117175161D01*
X166420400Y-117213257D01*
X166458495Y-117289447D01*
X166458495Y-117479923D01*
X166420400Y-117594209D01*
X166572780Y-117365638D02*
X165544209Y-117365638D01*
X166458495Y-117860876D02*
X166458495Y-118394209D01*
X165658495Y-118051352D01*
X166077542Y-118965638D02*
X166077542Y-118698971D01*
X165658495Y-118698971D02*
X166458495Y-118698971D01*
X166458495Y-119079923D01*
X166077542Y-119651352D02*
X166077542Y-119384685D01*
X165658495Y-119384685D02*
X166458495Y-119384685D01*
X166458495Y-119765638D01*
X166077542Y-120337066D02*
X166077542Y-120070400D01*
X165658495Y-120070400D02*
X166458495Y-120070400D01*
X166458495Y-120451352D01*
X165734685Y-121822780D02*
X165696590Y-121784685D01*
X165658495Y-121670400D01*
X165658495Y-121594209D01*
X165696590Y-121479923D01*
X165772780Y-121403733D01*
X165848971Y-121365638D01*
X166001352Y-121327542D01*
X166115638Y-121327542D01*
X166268019Y-121365638D01*
X166344209Y-121403733D01*
X166420400Y-121479923D01*
X166458495Y-121594209D01*
X166458495Y-121670400D01*
X166420400Y-121784685D01*
X166382304Y-121822780D01*
X165658495Y-122584685D02*
X165658495Y-122127542D01*
X165658495Y-122356114D02*
X166458495Y-122356114D01*
X166344209Y-122279923D01*
X166268019Y-122203733D01*
X166229923Y-122127542D01*
X164408590Y-112070400D02*
X164370495Y-112184685D01*
X164370495Y-112375161D01*
X164408590Y-112451352D01*
X164446685Y-112489447D01*
X164522876Y-112527542D01*
X164599066Y-112527542D01*
X164675257Y-112489447D01*
X164713352Y-112451352D01*
X164751447Y-112375161D01*
X164789542Y-112222780D01*
X164827638Y-112146590D01*
X164865733Y-112108495D01*
X164941923Y-112070400D01*
X165018114Y-112070400D01*
X165094304Y-112108495D01*
X165132400Y-112146590D01*
X165170495Y-112222780D01*
X165170495Y-112413257D01*
X165132400Y-112527542D01*
X165284780Y-112298971D02*
X164256209Y-112298971D01*
X164827638Y-112984685D02*
X164865733Y-112908495D01*
X164903828Y-112870400D01*
X164980019Y-112832304D01*
X165018114Y-112832304D01*
X165094304Y-112870400D01*
X165132400Y-112908495D01*
X165170495Y-112984685D01*
X165170495Y-113137066D01*
X165132400Y-113213257D01*
X165094304Y-113251352D01*
X165018114Y-113289447D01*
X164980019Y-113289447D01*
X164903828Y-113251352D01*
X164865733Y-113213257D01*
X164827638Y-113137066D01*
X164827638Y-112984685D01*
X164789542Y-112908495D01*
X164751447Y-112870400D01*
X164675257Y-112832304D01*
X164522876Y-112832304D01*
X164446685Y-112870400D01*
X164408590Y-112908495D01*
X164370495Y-112984685D01*
X164370495Y-113137066D01*
X164408590Y-113213257D01*
X164446685Y-113251352D01*
X164522876Y-113289447D01*
X164675257Y-113289447D01*
X164751447Y-113251352D01*
X164789542Y-113213257D01*
X164827638Y-113137066D01*
X165170495Y-113784685D02*
X165170495Y-113860876D01*
X165132400Y-113937066D01*
X165094304Y-113975161D01*
X165018114Y-114013257D01*
X164865733Y-114051352D01*
X164675257Y-114051352D01*
X164522876Y-114013257D01*
X164446685Y-113975161D01*
X164408590Y-113937066D01*
X164370495Y-113860876D01*
X164370495Y-113784685D01*
X164408590Y-113708495D01*
X164446685Y-113670400D01*
X164522876Y-113632304D01*
X164675257Y-113594209D01*
X164865733Y-113594209D01*
X165018114Y-113632304D01*
X165094304Y-113670400D01*
X165132400Y-113708495D01*
X165170495Y-113784685D01*
X165170495Y-114546590D02*
X165170495Y-114622780D01*
X165132400Y-114698971D01*
X165094304Y-114737066D01*
X165018114Y-114775161D01*
X164865733Y-114813257D01*
X164675257Y-114813257D01*
X164522876Y-114775161D01*
X164446685Y-114737066D01*
X164408590Y-114698971D01*
X164370495Y-114622780D01*
X164370495Y-114546590D01*
X164408590Y-114470400D01*
X164446685Y-114432304D01*
X164522876Y-114394209D01*
X164675257Y-114356114D01*
X164865733Y-114356114D01*
X165018114Y-114394209D01*
X165094304Y-114432304D01*
X165132400Y-114470400D01*
X165170495Y-114546590D01*
X165170495Y-115308495D02*
X165170495Y-115384685D01*
X165132400Y-115460876D01*
X165094304Y-115498971D01*
X165018114Y-115537066D01*
X164865733Y-115575161D01*
X164675257Y-115575161D01*
X164522876Y-115537066D01*
X164446685Y-115498971D01*
X164408590Y-115460876D01*
X164370495Y-115384685D01*
X164370495Y-115308495D01*
X164408590Y-115232304D01*
X164446685Y-115194209D01*
X164522876Y-115156114D01*
X164675257Y-115118019D01*
X164865733Y-115118019D01*
X165018114Y-115156114D01*
X165094304Y-115194209D01*
X165132400Y-115232304D01*
X165170495Y-115308495D01*
X164675257Y-115918019D02*
X164675257Y-116527542D01*
X164408590Y-116870400D02*
X164370495Y-116984685D01*
X164370495Y-117175161D01*
X164408590Y-117251352D01*
X164446685Y-117289447D01*
X164522876Y-117327542D01*
X164599066Y-117327542D01*
X164675257Y-117289447D01*
X164713352Y-117251352D01*
X164751447Y-117175161D01*
X164789542Y-117022780D01*
X164827638Y-116946590D01*
X164865733Y-116908495D01*
X164941923Y-116870400D01*
X165018114Y-116870400D01*
X165094304Y-116908495D01*
X165132400Y-116946590D01*
X165170495Y-117022780D01*
X165170495Y-117213257D01*
X165132400Y-117327542D01*
X165284780Y-117098971D02*
X164256209Y-117098971D01*
X164789542Y-117937066D02*
X164789542Y-117670400D01*
X164370495Y-117670400D02*
X165170495Y-117670400D01*
X165170495Y-118051352D01*
X164789542Y-118622780D02*
X164789542Y-118356114D01*
X164370495Y-118356114D02*
X165170495Y-118356114D01*
X165170495Y-118737066D01*
X164789542Y-119308495D02*
X164789542Y-119041828D01*
X164370495Y-119041828D02*
X165170495Y-119041828D01*
X165170495Y-119422780D01*
X164789542Y-119994209D02*
X164789542Y-119727542D01*
X164370495Y-119727542D02*
X165170495Y-119727542D01*
X165170495Y-120108495D01*
X164446685Y-121479923D02*
X164408590Y-121441828D01*
X164370495Y-121327542D01*
X164370495Y-121251352D01*
X164408590Y-121137066D01*
X164484780Y-121060876D01*
X164560971Y-121022780D01*
X164713352Y-120984685D01*
X164827638Y-120984685D01*
X164980019Y-121022780D01*
X165056209Y-121060876D01*
X165132400Y-121137066D01*
X165170495Y-121251352D01*
X165170495Y-121327542D01*
X165132400Y-121441828D01*
X165094304Y-121479923D01*
X165094304Y-121784685D02*
X165132400Y-121822780D01*
X165170495Y-121898971D01*
X165170495Y-122089447D01*
X165132400Y-122165638D01*
X165094304Y-122203733D01*
X165018114Y-122241828D01*
X164941923Y-122241828D01*
X164827638Y-122203733D01*
X164370495Y-121746590D01*
X164370495Y-122241828D01*
D10*
X143528250Y-63562666D02*
X143528250Y-62862666D01*
X143794916Y-62862666D01*
X143861583Y-62896000D01*
X143894916Y-62929333D01*
X143928250Y-62996000D01*
X143928250Y-63096000D01*
X143894916Y-63162666D01*
X143861583Y-63196000D01*
X143794916Y-63229333D01*
X143528250Y-63229333D01*
X144461583Y-63196000D02*
X144561583Y-63229333D01*
X144594916Y-63262666D01*
X144628250Y-63329333D01*
X144628250Y-63429333D01*
X144594916Y-63496000D01*
X144561583Y-63529333D01*
X144494916Y-63562666D01*
X144228250Y-63562666D01*
X144228250Y-62862666D01*
X144461583Y-62862666D01*
X144528250Y-62896000D01*
X144561583Y-62929333D01*
X144594916Y-62996000D01*
X144594916Y-63062666D01*
X144561583Y-63129333D01*
X144528250Y-63162666D01*
X144461583Y-63196000D01*
X144228250Y-63196000D01*
X145261583Y-62862666D02*
X144928250Y-62862666D01*
X144894916Y-63196000D01*
X144928250Y-63162666D01*
X144994916Y-63129333D01*
X145161583Y-63129333D01*
X145228250Y-63162666D01*
X145261583Y-63196000D01*
X145294916Y-63262666D01*
X145294916Y-63429333D01*
X145261583Y-63496000D01*
X145228250Y-63529333D01*
X145161583Y-63562666D01*
X144994916Y-63562666D01*
X144928250Y-63529333D01*
X144894916Y-63496000D01*
X151243750Y-65205000D02*
X151943750Y-65205000D01*
X151410416Y-66102666D02*
X151410416Y-65402666D01*
X151677083Y-65402666D01*
X151743750Y-65436000D01*
X151777083Y-65469333D01*
X151810416Y-65536000D01*
X151810416Y-65636000D01*
X151777083Y-65702666D01*
X151743750Y-65736000D01*
X151677083Y-65769333D01*
X151410416Y-65769333D01*
X151943750Y-65205000D02*
X152643750Y-65205000D01*
X152510416Y-66036000D02*
X152477083Y-66069333D01*
X152377083Y-66102666D01*
X152310416Y-66102666D01*
X152210416Y-66069333D01*
X152143750Y-66002666D01*
X152110416Y-65936000D01*
X152077083Y-65802666D01*
X152077083Y-65702666D01*
X152110416Y-65569333D01*
X152143750Y-65502666D01*
X152210416Y-65436000D01*
X152310416Y-65402666D01*
X152377083Y-65402666D01*
X152477083Y-65436000D01*
X152510416Y-65469333D01*
X150559333Y-76734416D02*
X151259333Y-76734416D01*
X151259333Y-77001083D01*
X151226000Y-77067750D01*
X151192666Y-77101083D01*
X151126000Y-77134416D01*
X151026000Y-77134416D01*
X150959333Y-77101083D01*
X150926000Y-77067750D01*
X150892666Y-77001083D01*
X150892666Y-76734416D01*
X150759333Y-77401083D02*
X150759333Y-77734416D01*
X150559333Y-77334416D02*
X151259333Y-77567750D01*
X150559333Y-77801083D01*
X151192666Y-78001083D02*
X151226000Y-78034416D01*
X151259333Y-78101083D01*
X151259333Y-78267750D01*
X151226000Y-78334416D01*
X151192666Y-78367750D01*
X151126000Y-78401083D01*
X151059333Y-78401083D01*
X150959333Y-78367750D01*
X150559333Y-77967750D01*
X150559333Y-78401083D01*
X148019333Y-68952250D02*
X148719333Y-68952250D01*
X148719333Y-69218916D01*
X148686000Y-69285583D01*
X148652666Y-69318916D01*
X148586000Y-69352250D01*
X148486000Y-69352250D01*
X148419333Y-69318916D01*
X148386000Y-69285583D01*
X148352666Y-69218916D01*
X148352666Y-68952250D01*
X148219333Y-69618916D02*
X148219333Y-69952250D01*
X148019333Y-69552250D02*
X148719333Y-69785583D01*
X148019333Y-70018916D01*
X148719333Y-70185583D02*
X148719333Y-70618916D01*
X148452666Y-70385583D01*
X148452666Y-70485583D01*
X148419333Y-70552250D01*
X148386000Y-70585583D01*
X148319333Y-70618916D01*
X148152666Y-70618916D01*
X148086000Y-70585583D01*
X148052666Y-70552250D01*
X148019333Y-70485583D01*
X148019333Y-70285583D01*
X148052666Y-70218916D01*
X148086000Y-70185583D01*
X151410416Y-58482666D02*
X151410416Y-57782666D01*
X151677083Y-57782666D01*
X151743750Y-57816000D01*
X151777083Y-57849333D01*
X151810416Y-57916000D01*
X151810416Y-58016000D01*
X151777083Y-58082666D01*
X151743750Y-58116000D01*
X151677083Y-58149333D01*
X151410416Y-58149333D01*
X152343750Y-58116000D02*
X152443750Y-58149333D01*
X152477083Y-58182666D01*
X152510416Y-58249333D01*
X152510416Y-58349333D01*
X152477083Y-58416000D01*
X152443750Y-58449333D01*
X152377083Y-58482666D01*
X152110416Y-58482666D01*
X152110416Y-57782666D01*
X152343750Y-57782666D01*
X152410416Y-57816000D01*
X152443750Y-57849333D01*
X152477083Y-57916000D01*
X152477083Y-57982666D01*
X152443750Y-58049333D01*
X152410416Y-58082666D01*
X152343750Y-58116000D01*
X152110416Y-58116000D01*
X152777083Y-57849333D02*
X152810416Y-57816000D01*
X152877083Y-57782666D01*
X153043750Y-57782666D01*
X153110416Y-57816000D01*
X153143750Y-57849333D01*
X153177083Y-57916000D01*
X153177083Y-57982666D01*
X153143750Y-58082666D01*
X152743750Y-58482666D01*
X153177083Y-58482666D01*
X145479333Y-76734416D02*
X146179333Y-76734416D01*
X146179333Y-77001083D01*
X146146000Y-77067750D01*
X146112666Y-77101083D01*
X146046000Y-77134416D01*
X145946000Y-77134416D01*
X145879333Y-77101083D01*
X145846000Y-77067750D01*
X145812666Y-77001083D01*
X145812666Y-76734416D01*
X145679333Y-77401083D02*
X145679333Y-77734416D01*
X145479333Y-77334416D02*
X146179333Y-77567750D01*
X145479333Y-77801083D01*
X146179333Y-78334416D02*
X146179333Y-78201083D01*
X146146000Y-78134416D01*
X146112666Y-78101083D01*
X146012666Y-78034416D01*
X145879333Y-78001083D01*
X145612666Y-78001083D01*
X145546000Y-78034416D01*
X145512666Y-78067750D01*
X145479333Y-78134416D01*
X145479333Y-78267750D01*
X145512666Y-78334416D01*
X145546000Y-78367750D01*
X145612666Y-78401083D01*
X145779333Y-78401083D01*
X145846000Y-78367750D01*
X145879333Y-78334416D01*
X145912666Y-78267750D01*
X145912666Y-78134416D01*
X145879333Y-78067750D01*
X145846000Y-78034416D01*
X145779333Y-78001083D01*
X142961583Y-55299000D02*
X143561583Y-55299000D01*
X143361583Y-55830000D02*
X143128250Y-55830000D01*
X143128250Y-56196666D02*
X143128250Y-55496666D01*
X143461583Y-55496666D01*
X143561583Y-55299000D02*
X144128250Y-55299000D01*
X144061583Y-56196666D02*
X143728250Y-56196666D01*
X143728250Y-55496666D01*
X144128250Y-55299000D02*
X144728250Y-55299000D01*
X144261583Y-55996666D02*
X144594916Y-55996666D01*
X144194916Y-56196666D02*
X144428250Y-55496666D01*
X144661583Y-56196666D01*
X144728250Y-55299000D02*
X145428250Y-55299000D01*
X145261583Y-55530000D02*
X145194916Y-55496666D01*
X145094916Y-55496666D01*
X144994916Y-55530000D01*
X144928250Y-55596666D01*
X144894916Y-55663333D01*
X144861583Y-55796666D01*
X144861583Y-55896666D01*
X144894916Y-56030000D01*
X144928250Y-56096666D01*
X144994916Y-56163333D01*
X145094916Y-56196666D01*
X145161583Y-56196666D01*
X145261583Y-56163333D01*
X145294916Y-56130000D01*
X145294916Y-55896666D01*
X145161583Y-55896666D01*
X151410416Y-63562666D02*
X151410416Y-62862666D01*
X151677083Y-62862666D01*
X151743750Y-62896000D01*
X151777083Y-62929333D01*
X151810416Y-62996000D01*
X151810416Y-63096000D01*
X151777083Y-63162666D01*
X151743750Y-63196000D01*
X151677083Y-63229333D01*
X151410416Y-63229333D01*
X152343750Y-63196000D02*
X152443750Y-63229333D01*
X152477083Y-63262666D01*
X152510416Y-63329333D01*
X152510416Y-63429333D01*
X152477083Y-63496000D01*
X152443750Y-63529333D01*
X152377083Y-63562666D01*
X152110416Y-63562666D01*
X152110416Y-62862666D01*
X152343750Y-62862666D01*
X152410416Y-62896000D01*
X152443750Y-62929333D01*
X152477083Y-62996000D01*
X152477083Y-63062666D01*
X152443750Y-63129333D01*
X152410416Y-63162666D01*
X152343750Y-63196000D01*
X152110416Y-63196000D01*
X153110416Y-62862666D02*
X152977083Y-62862666D01*
X152910416Y-62896000D01*
X152877083Y-62929333D01*
X152810416Y-63029333D01*
X152777083Y-63162666D01*
X152777083Y-63429333D01*
X152810416Y-63496000D01*
X152843750Y-63529333D01*
X152910416Y-63562666D01*
X153043750Y-63562666D01*
X153110416Y-63529333D01*
X153143750Y-63496000D01*
X153177083Y-63429333D01*
X153177083Y-63262666D01*
X153143750Y-63196000D01*
X153110416Y-63162666D01*
X153043750Y-63129333D01*
X152910416Y-63129333D01*
X152843750Y-63162666D01*
X152810416Y-63196000D01*
X152777083Y-63262666D01*
D12*
X125095333Y-75541142D02*
X125047714Y-75588761D01*
X124904857Y-75636380D01*
X124809619Y-75636380D01*
X124666761Y-75588761D01*
X124571523Y-75493523D01*
X124523904Y-75398285D01*
X124476285Y-75207809D01*
X124476285Y-75064952D01*
X124523904Y-74874476D01*
X124571523Y-74779238D01*
X124666761Y-74684000D01*
X124809619Y-74636380D01*
X124904857Y-74636380D01*
X125047714Y-74684000D01*
X125095333Y-74731619D01*
X125428666Y-74636380D02*
X126047714Y-74636380D01*
X125714380Y-75017333D01*
X125857238Y-75017333D01*
X125952476Y-75064952D01*
X126000095Y-75112571D01*
X126047714Y-75207809D01*
X126047714Y-75445904D01*
X126000095Y-75541142D01*
X125952476Y-75588761D01*
X125857238Y-75636380D01*
X125571523Y-75636380D01*
X125476285Y-75588761D01*
X125428666Y-75541142D01*
X124142952Y-73136380D02*
X123571523Y-73136380D01*
X123857238Y-73136380D02*
X123857238Y-72136380D01*
X123762000Y-72279238D01*
X123666761Y-72374476D01*
X123571523Y-72422095D01*
X124762000Y-72136380D02*
X124857238Y-72136380D01*
X124952476Y-72184000D01*
X125000095Y-72231619D01*
X125047714Y-72326857D01*
X125095333Y-72517333D01*
X125095333Y-72755428D01*
X125047714Y-72945904D01*
X125000095Y-73041142D01*
X124952476Y-73088761D01*
X124857238Y-73136380D01*
X124762000Y-73136380D01*
X124666761Y-73088761D01*
X124619142Y-73041142D01*
X124571523Y-72945904D01*
X124523904Y-72755428D01*
X124523904Y-72517333D01*
X124571523Y-72326857D01*
X124619142Y-72231619D01*
X124666761Y-72184000D01*
X124762000Y-72136380D01*
X125714380Y-72136380D02*
X125809619Y-72136380D01*
X125904857Y-72184000D01*
X125952476Y-72231619D01*
X126000095Y-72326857D01*
X126047714Y-72517333D01*
X126047714Y-72755428D01*
X126000095Y-72945904D01*
X125952476Y-73041142D01*
X125904857Y-73088761D01*
X125809619Y-73136380D01*
X125714380Y-73136380D01*
X125619142Y-73088761D01*
X125571523Y-73041142D01*
X125523904Y-72945904D01*
X125476285Y-72755428D01*
X125476285Y-72517333D01*
X125523904Y-72326857D01*
X125571523Y-72231619D01*
X125619142Y-72184000D01*
X125714380Y-72136380D01*
X126476285Y-72469714D02*
X126476285Y-73136380D01*
X126476285Y-72564952D02*
X126523904Y-72517333D01*
X126619142Y-72469714D01*
X126762000Y-72469714D01*
X126857238Y-72517333D01*
X126904857Y-72612571D01*
X126904857Y-73136380D01*
X148002666Y-52748380D02*
X148002666Y-53462666D01*
X147955047Y-53605523D01*
X147859809Y-53700761D01*
X147716952Y-53748380D01*
X147621714Y-53748380D01*
X148383619Y-52748380D02*
X149002666Y-52748380D01*
X148669333Y-53129333D01*
X148812190Y-53129333D01*
X148907428Y-53176952D01*
X148955047Y-53224571D01*
X149002666Y-53319809D01*
X149002666Y-53557904D01*
X148955047Y-53653142D01*
X148907428Y-53700761D01*
X148812190Y-53748380D01*
X148526476Y-53748380D01*
X148431238Y-53700761D01*
X148383619Y-53653142D01*
X146526476Y-68044571D02*
X146669333Y-68092190D01*
X146716952Y-68139809D01*
X146764571Y-68235047D01*
X146764571Y-68377904D01*
X146716952Y-68473142D01*
X146669333Y-68520761D01*
X146574095Y-68568380D01*
X146193142Y-68568380D01*
X146193142Y-67568380D01*
X146526476Y-67568380D01*
X146621714Y-67616000D01*
X146669333Y-67663619D01*
X146716952Y-67758857D01*
X146716952Y-67854095D01*
X146669333Y-67949333D01*
X146621714Y-67996952D01*
X146526476Y-68044571D01*
X146193142Y-68044571D01*
X147193142Y-67568380D02*
X147193142Y-68377904D01*
X147240761Y-68473142D01*
X147288380Y-68520761D01*
X147383619Y-68568380D01*
X147574095Y-68568380D01*
X147669333Y-68520761D01*
X147716952Y-68473142D01*
X147764571Y-68377904D01*
X147764571Y-67568380D01*
X148812190Y-68568380D02*
X148478857Y-68092190D01*
X148240761Y-68568380D02*
X148240761Y-67568380D01*
X148621714Y-67568380D01*
X148716952Y-67616000D01*
X148764571Y-67663619D01*
X148812190Y-67758857D01*
X148812190Y-67901714D01*
X148764571Y-67996952D01*
X148716952Y-68044571D01*
X148621714Y-68092190D01*
X148240761Y-68092190D01*
X149193142Y-68520761D02*
X149336000Y-68568380D01*
X149574095Y-68568380D01*
X149669333Y-68520761D01*
X149716952Y-68473142D01*
X149764571Y-68377904D01*
X149764571Y-68282666D01*
X149716952Y-68187428D01*
X149669333Y-68139809D01*
X149574095Y-68092190D01*
X149383619Y-68044571D01*
X149288380Y-67996952D01*
X149240761Y-67949333D01*
X149193142Y-67854095D01*
X149193142Y-67758857D01*
X149240761Y-67663619D01*
X149288380Y-67616000D01*
X149383619Y-67568380D01*
X149621714Y-67568380D01*
X149764571Y-67616000D01*
X150050285Y-67568380D02*
X150621714Y-67568380D01*
X150336000Y-68568380D02*
X150336000Y-67568380D01*
X129968666Y-55496380D02*
X129968666Y-56210666D01*
X129921047Y-56353523D01*
X129825809Y-56448761D01*
X129682952Y-56496380D01*
X129587714Y-56496380D01*
X130968666Y-56496380D02*
X130397238Y-56496380D01*
X130682952Y-56496380D02*
X130682952Y-55496380D01*
X130587714Y-55639238D01*
X130492476Y-55734476D01*
X130397238Y-55782095D01*
X165233095Y-101052380D02*
X165233095Y-101861904D01*
X165280714Y-101957142D01*
X165328333Y-102004761D01*
X165423571Y-102052380D01*
X165614047Y-102052380D01*
X165709285Y-102004761D01*
X165756904Y-101957142D01*
X165804523Y-101861904D01*
X165804523Y-101052380D01*
X166804523Y-102052380D02*
X166233095Y-102052380D01*
X166518809Y-102052380D02*
X166518809Y-101052380D01*
X166423571Y-101195238D01*
X166328333Y-101290476D01*
X166233095Y-101338095D01*
X163304523Y-128862619D02*
X163352142Y-128815000D01*
X163447380Y-128767380D01*
X163685476Y-128767380D01*
X163780714Y-128815000D01*
X163828333Y-128862619D01*
X163875952Y-128957857D01*
X163875952Y-129053095D01*
X163828333Y-129195952D01*
X163256904Y-129767380D01*
X163875952Y-129767380D01*
X164209285Y-128767380D02*
X164875952Y-128767380D01*
X164447380Y-129767380D01*
X165828333Y-129672142D02*
X165780714Y-129719761D01*
X165637857Y-129767380D01*
X165542619Y-129767380D01*
X165399761Y-129719761D01*
X165304523Y-129624523D01*
X165256904Y-129529285D01*
X165209285Y-129338809D01*
X165209285Y-129195952D01*
X165256904Y-129005476D01*
X165304523Y-128910238D01*
X165399761Y-128815000D01*
X165542619Y-128767380D01*
X165637857Y-128767380D01*
X165780714Y-128815000D01*
X165828333Y-128862619D01*
X166733095Y-128767380D02*
X166256904Y-128767380D01*
X166209285Y-129243571D01*
X166256904Y-129195952D01*
X166352142Y-129148333D01*
X166590238Y-129148333D01*
X166685476Y-129195952D01*
X166733095Y-129243571D01*
X166780714Y-129338809D01*
X166780714Y-129576904D01*
X166733095Y-129672142D01*
X166685476Y-129719761D01*
X166590238Y-129767380D01*
X166352142Y-129767380D01*
X166256904Y-129719761D01*
X166209285Y-129672142D01*
X167733095Y-129767380D02*
X167161666Y-129767380D01*
X167447380Y-129767380D02*
X167447380Y-128767380D01*
X167352142Y-128910238D01*
X167256904Y-129005476D01*
X167161666Y-129053095D01*
X168114047Y-128862619D02*
X168161666Y-128815000D01*
X168256904Y-128767380D01*
X168495000Y-128767380D01*
X168590238Y-128815000D01*
X168637857Y-128862619D01*
X168685476Y-128957857D01*
X168685476Y-129053095D01*
X168637857Y-129195952D01*
X168066428Y-129767380D01*
X168685476Y-129767380D01*
X155551142Y-96138666D02*
X155598761Y-96186285D01*
X155646380Y-96329142D01*
X155646380Y-96424380D01*
X155598761Y-96567238D01*
X155503523Y-96662476D01*
X155408285Y-96710095D01*
X155217809Y-96757714D01*
X155074952Y-96757714D01*
X154884476Y-96710095D01*
X154789238Y-96662476D01*
X154694000Y-96567238D01*
X154646380Y-96424380D01*
X154646380Y-96329142D01*
X154694000Y-96186285D01*
X154741619Y-96138666D01*
X154979714Y-95281523D02*
X155646380Y-95281523D01*
X154598761Y-95519619D02*
X155313047Y-95757714D01*
X155313047Y-95138666D01*
X157016380Y-97131047D02*
X157016380Y-97702476D01*
X157016380Y-97416761D02*
X156016380Y-97416761D01*
X156159238Y-97512000D01*
X156254476Y-97607238D01*
X156302095Y-97702476D01*
X156016380Y-96512000D02*
X156016380Y-96416761D01*
X156064000Y-96321523D01*
X156111619Y-96273904D01*
X156206857Y-96226285D01*
X156397333Y-96178666D01*
X156635428Y-96178666D01*
X156825904Y-96226285D01*
X156921142Y-96273904D01*
X156968761Y-96321523D01*
X157016380Y-96416761D01*
X157016380Y-96512000D01*
X156968761Y-96607238D01*
X156921142Y-96654857D01*
X156825904Y-96702476D01*
X156635428Y-96750095D01*
X156397333Y-96750095D01*
X156206857Y-96702476D01*
X156111619Y-96654857D01*
X156064000Y-96607238D01*
X156016380Y-96512000D01*
X156016380Y-95559619D02*
X156016380Y-95464380D01*
X156064000Y-95369142D01*
X156111619Y-95321523D01*
X156206857Y-95273904D01*
X156397333Y-95226285D01*
X156635428Y-95226285D01*
X156825904Y-95273904D01*
X156921142Y-95321523D01*
X156968761Y-95369142D01*
X157016380Y-95464380D01*
X157016380Y-95559619D01*
X156968761Y-95654857D01*
X156921142Y-95702476D01*
X156825904Y-95750095D01*
X156635428Y-95797714D01*
X156397333Y-95797714D01*
X156206857Y-95750095D01*
X156111619Y-95702476D01*
X156064000Y-95654857D01*
X156016380Y-95559619D01*
X156349714Y-94797714D02*
X157016380Y-94797714D01*
X156444952Y-94797714D02*
X156397333Y-94750095D01*
X156349714Y-94654857D01*
X156349714Y-94512000D01*
X156397333Y-94416761D01*
X156492571Y-94369142D01*
X157016380Y-94369142D01*
X147931142Y-82970666D02*
X147978761Y-83018285D01*
X148026380Y-83161142D01*
X148026380Y-83256380D01*
X147978761Y-83399238D01*
X147883523Y-83494476D01*
X147788285Y-83542095D01*
X147597809Y-83589714D01*
X147454952Y-83589714D01*
X147264476Y-83542095D01*
X147169238Y-83494476D01*
X147074000Y-83399238D01*
X147026380Y-83256380D01*
X147026380Y-83161142D01*
X147074000Y-83018285D01*
X147121619Y-82970666D01*
X147026380Y-82065904D02*
X147026380Y-82542095D01*
X147502571Y-82589714D01*
X147454952Y-82542095D01*
X147407333Y-82446857D01*
X147407333Y-82208761D01*
X147454952Y-82113523D01*
X147502571Y-82065904D01*
X147597809Y-82018285D01*
X147835904Y-82018285D01*
X147931142Y-82065904D01*
X147978761Y-82113523D01*
X148026380Y-82208761D01*
X148026380Y-82446857D01*
X147978761Y-82542095D01*
X147931142Y-82589714D01*
X148729714Y-84018285D02*
X149396380Y-84018285D01*
X148348761Y-84256380D02*
X149063047Y-84494476D01*
X149063047Y-83875428D01*
X148396380Y-83589714D02*
X148396380Y-82923047D01*
X149396380Y-83351619D01*
X148396380Y-82351619D02*
X148396380Y-82256380D01*
X148444000Y-82161142D01*
X148491619Y-82113523D01*
X148586857Y-82065904D01*
X148777333Y-82018285D01*
X149015428Y-82018285D01*
X149205904Y-82065904D01*
X149301142Y-82113523D01*
X149348761Y-82161142D01*
X149396380Y-82256380D01*
X149396380Y-82351619D01*
X149348761Y-82446857D01*
X149301142Y-82494476D01*
X149205904Y-82542095D01*
X149015428Y-82589714D01*
X148777333Y-82589714D01*
X148586857Y-82542095D01*
X148491619Y-82494476D01*
X148444000Y-82446857D01*
X148396380Y-82351619D01*
X148729714Y-81589714D02*
X149729714Y-81589714D01*
X148777333Y-81589714D02*
X148729714Y-81494476D01*
X148729714Y-81304000D01*
X148777333Y-81208761D01*
X148824952Y-81161142D01*
X148920190Y-81113523D01*
X149205904Y-81113523D01*
X149301142Y-81161142D01*
X149348761Y-81208761D01*
X149396380Y-81304000D01*
X149396380Y-81494476D01*
X149348761Y-81589714D01*
X162994380Y-76189904D02*
X163803904Y-76189904D01*
X163899142Y-76142285D01*
X163946761Y-76094666D01*
X163994380Y-75999428D01*
X163994380Y-75808952D01*
X163946761Y-75713714D01*
X163899142Y-75666095D01*
X163803904Y-75618476D01*
X162994380Y-75618476D01*
X162994380Y-74666095D02*
X162994380Y-75142285D01*
X163470571Y-75189904D01*
X163422952Y-75142285D01*
X163375333Y-75047047D01*
X163375333Y-74808952D01*
X163422952Y-74713714D01*
X163470571Y-74666095D01*
X163565809Y-74618476D01*
X163803904Y-74618476D01*
X163899142Y-74666095D01*
X163946761Y-74713714D01*
X163994380Y-74808952D01*
X163994380Y-75047047D01*
X163946761Y-75142285D01*
X163899142Y-75189904D01*
X164672000Y-77128666D02*
X165148190Y-77128666D01*
X164576761Y-77414380D02*
X164910095Y-76414380D01*
X165243428Y-77414380D01*
X165433904Y-76414380D02*
X166005333Y-76414380D01*
X165719619Y-77414380D02*
X165719619Y-76414380D01*
X166195809Y-76747714D02*
X166576761Y-76747714D01*
X166338666Y-76414380D02*
X166338666Y-77271523D01*
X166386285Y-77366761D01*
X166481523Y-77414380D01*
X166576761Y-77414380D01*
X166910095Y-77414380D02*
X166910095Y-76747714D01*
X166910095Y-76414380D02*
X166862476Y-76462000D01*
X166910095Y-76509619D01*
X166957714Y-76462000D01*
X166910095Y-76414380D01*
X166910095Y-76509619D01*
X167386285Y-76747714D02*
X167386285Y-77414380D01*
X167386285Y-76842952D02*
X167433904Y-76795333D01*
X167529142Y-76747714D01*
X167672000Y-76747714D01*
X167767238Y-76795333D01*
X167814857Y-76890571D01*
X167814857Y-77414380D01*
X168195809Y-76747714D02*
X168433904Y-77414380D01*
X168672000Y-76747714D02*
X168433904Y-77414380D01*
X168338666Y-77652476D01*
X168291047Y-77700095D01*
X168195809Y-77747714D01*
X169195809Y-76842952D02*
X169100571Y-76795333D01*
X169052952Y-76747714D01*
X169005333Y-76652476D01*
X169005333Y-76604857D01*
X169052952Y-76509619D01*
X169100571Y-76462000D01*
X169195809Y-76414380D01*
X169386285Y-76414380D01*
X169481523Y-76462000D01*
X169529142Y-76509619D01*
X169576761Y-76604857D01*
X169576761Y-76652476D01*
X169529142Y-76747714D01*
X169481523Y-76795333D01*
X169386285Y-76842952D01*
X169195809Y-76842952D01*
X169100571Y-76890571D01*
X169052952Y-76938190D01*
X169005333Y-77033428D01*
X169005333Y-77223904D01*
X169052952Y-77319142D01*
X169100571Y-77366761D01*
X169195809Y-77414380D01*
X169386285Y-77414380D01*
X169481523Y-77366761D01*
X169529142Y-77319142D01*
X169576761Y-77223904D01*
X169576761Y-77033428D01*
X169529142Y-76938190D01*
X169481523Y-76890571D01*
X169386285Y-76842952D01*
X170481523Y-76414380D02*
X170005333Y-76414380D01*
X169957714Y-76890571D01*
X170005333Y-76842952D01*
X170100571Y-76795333D01*
X170338666Y-76795333D01*
X170433904Y-76842952D01*
X170481523Y-76890571D01*
X170529142Y-76985809D01*
X170529142Y-77223904D01*
X170481523Y-77319142D01*
X170433904Y-77366761D01*
X170338666Y-77414380D01*
X170100571Y-77414380D01*
X170005333Y-77366761D01*
X169957714Y-77319142D01*
X170957714Y-77033428D02*
X171719619Y-77033428D01*
X172148190Y-76509619D02*
X172195809Y-76462000D01*
X172291047Y-76414380D01*
X172529142Y-76414380D01*
X172624380Y-76462000D01*
X172672000Y-76509619D01*
X172719619Y-76604857D01*
X172719619Y-76700095D01*
X172672000Y-76842952D01*
X172100571Y-77414380D01*
X172719619Y-77414380D01*
X173338666Y-76414380D02*
X173433904Y-76414380D01*
X173529142Y-76462000D01*
X173576761Y-76509619D01*
X173624380Y-76604857D01*
X173672000Y-76795333D01*
X173672000Y-77033428D01*
X173624380Y-77223904D01*
X173576761Y-77319142D01*
X173529142Y-77366761D01*
X173433904Y-77414380D01*
X173338666Y-77414380D01*
X173243428Y-77366761D01*
X173195809Y-77319142D01*
X173148190Y-77223904D01*
X173100571Y-77033428D01*
X173100571Y-76795333D01*
X173148190Y-76604857D01*
X173195809Y-76509619D01*
X173243428Y-76462000D01*
X173338666Y-76414380D01*
X174100571Y-77414380D02*
X174100571Y-76414380D01*
X174481523Y-76414380D01*
X174576761Y-76462000D01*
X174624380Y-76509619D01*
X174672000Y-76604857D01*
X174672000Y-76747714D01*
X174624380Y-76842952D01*
X174576761Y-76890571D01*
X174481523Y-76938190D01*
X174100571Y-76938190D01*
X163830095Y-85558380D02*
X163830095Y-86367904D01*
X163877714Y-86463142D01*
X163925333Y-86510761D01*
X164020571Y-86558380D01*
X164211047Y-86558380D01*
X164306285Y-86510761D01*
X164353904Y-86463142D01*
X164401523Y-86367904D01*
X164401523Y-85558380D01*
X164830095Y-85653619D02*
X164877714Y-85606000D01*
X164972952Y-85558380D01*
X165211047Y-85558380D01*
X165306285Y-85606000D01*
X165353904Y-85653619D01*
X165401523Y-85748857D01*
X165401523Y-85844095D01*
X165353904Y-85986952D01*
X164782476Y-86558380D01*
X165401523Y-86558380D01*
X159687238Y-88241142D02*
X159639619Y-88288761D01*
X159496761Y-88336380D01*
X159401523Y-88336380D01*
X159258666Y-88288761D01*
X159163428Y-88193523D01*
X159115809Y-88098285D01*
X159068190Y-87907809D01*
X159068190Y-87764952D01*
X159115809Y-87574476D01*
X159163428Y-87479238D01*
X159258666Y-87384000D01*
X159401523Y-87336380D01*
X159496761Y-87336380D01*
X159639619Y-87384000D01*
X159687238Y-87431619D01*
X160115809Y-88336380D02*
X160115809Y-87336380D01*
X160353904Y-87336380D01*
X160496761Y-87384000D01*
X160592000Y-87479238D01*
X160639619Y-87574476D01*
X160687238Y-87764952D01*
X160687238Y-87907809D01*
X160639619Y-88098285D01*
X160592000Y-88193523D01*
X160496761Y-88288761D01*
X160353904Y-88336380D01*
X160115809Y-88336380D01*
X161020571Y-87336380D02*
X161687238Y-87336380D01*
X161258666Y-88336380D01*
X162496761Y-87669714D02*
X162496761Y-88336380D01*
X162258666Y-87288761D02*
X162020571Y-88003047D01*
X162639619Y-88003047D01*
X163020571Y-88336380D02*
X163020571Y-87336380D01*
X163020571Y-87812571D02*
X163592000Y-87812571D01*
X163592000Y-88336380D02*
X163592000Y-87336380D01*
X164639619Y-88241142D02*
X164592000Y-88288761D01*
X164449142Y-88336380D01*
X164353904Y-88336380D01*
X164211047Y-88288761D01*
X164115809Y-88193523D01*
X164068190Y-88098285D01*
X164020571Y-87907809D01*
X164020571Y-87764952D01*
X164068190Y-87574476D01*
X164115809Y-87479238D01*
X164211047Y-87384000D01*
X164353904Y-87336380D01*
X164449142Y-87336380D01*
X164592000Y-87384000D01*
X164639619Y-87431619D01*
X164925333Y-87336380D02*
X165496761Y-87336380D01*
X165211047Y-88336380D02*
X165211047Y-87336380D01*
X166258666Y-87669714D02*
X166258666Y-88336380D01*
X166020571Y-87288761D02*
X165782476Y-88003047D01*
X166401523Y-88003047D01*
X167258666Y-87336380D02*
X166782476Y-87336380D01*
X166734857Y-87812571D01*
X166782476Y-87764952D01*
X166877714Y-87717333D01*
X167115809Y-87717333D01*
X167211047Y-87764952D01*
X167258666Y-87812571D01*
X167306285Y-87907809D01*
X167306285Y-88145904D01*
X167258666Y-88241142D01*
X167211047Y-88288761D01*
X167115809Y-88336380D01*
X166877714Y-88336380D01*
X166782476Y-88288761D01*
X166734857Y-88241142D01*
X167687238Y-87431619D02*
X167734857Y-87384000D01*
X167830095Y-87336380D01*
X168068190Y-87336380D01*
X168163428Y-87384000D01*
X168211047Y-87431619D01*
X168258666Y-87526857D01*
X168258666Y-87622095D01*
X168211047Y-87764952D01*
X167639619Y-88336380D01*
X168258666Y-88336380D01*
X168877714Y-87336380D02*
X168972952Y-87336380D01*
X169068190Y-87384000D01*
X169115809Y-87431619D01*
X169163428Y-87526857D01*
X169211047Y-87717333D01*
X169211047Y-87955428D01*
X169163428Y-88145904D01*
X169115809Y-88241142D01*
X169068190Y-88288761D01*
X168972952Y-88336380D01*
X168877714Y-88336380D01*
X168782476Y-88288761D01*
X168734857Y-88241142D01*
X168687238Y-88145904D01*
X168639619Y-87955428D01*
X168639619Y-87717333D01*
X168687238Y-87526857D01*
X168734857Y-87431619D01*
X168782476Y-87384000D01*
X168877714Y-87336380D01*
X169639619Y-87812571D02*
X169972952Y-87812571D01*
X170115809Y-88336380D02*
X169639619Y-88336380D01*
X169639619Y-87336380D01*
X170115809Y-87336380D01*
X155193380Y-73988333D02*
X155907666Y-73988333D01*
X156050523Y-74035952D01*
X156145761Y-74131190D01*
X156193380Y-74274047D01*
X156193380Y-74369285D01*
X155526714Y-73083571D02*
X156193380Y-73083571D01*
X155145761Y-73321666D02*
X155860047Y-73559761D01*
X155860047Y-72940714D01*
X141373380Y-75750238D02*
X140373380Y-75750238D01*
X140373380Y-75369285D01*
X140421000Y-75274047D01*
X140468619Y-75226428D01*
X140563857Y-75178809D01*
X140706714Y-75178809D01*
X140801952Y-75226428D01*
X140849571Y-75274047D01*
X140897190Y-75369285D01*
X140897190Y-75750238D01*
X140373380Y-74559761D02*
X140373380Y-74369285D01*
X140421000Y-74274047D01*
X140516238Y-74178809D01*
X140706714Y-74131190D01*
X141040047Y-74131190D01*
X141230523Y-74178809D01*
X141325761Y-74274047D01*
X141373380Y-74369285D01*
X141373380Y-74559761D01*
X141325761Y-74655000D01*
X141230523Y-74750238D01*
X141040047Y-74797857D01*
X140706714Y-74797857D01*
X140516238Y-74750238D01*
X140421000Y-74655000D01*
X140373380Y-74559761D01*
X141373380Y-73131190D02*
X140897190Y-73464523D01*
X141373380Y-73702619D02*
X140373380Y-73702619D01*
X140373380Y-73321666D01*
X140421000Y-73226428D01*
X140468619Y-73178809D01*
X140563857Y-73131190D01*
X140706714Y-73131190D01*
X140801952Y-73178809D01*
X140849571Y-73226428D01*
X140897190Y-73321666D01*
X140897190Y-73702619D01*
X140373380Y-72845476D02*
X140373380Y-72274047D01*
X141373380Y-72559761D02*
X140373380Y-72559761D01*
X141087666Y-71988333D02*
X141087666Y-71512142D01*
X141373380Y-72083571D02*
X140373380Y-71750238D01*
X141373380Y-71416904D01*
X147402995Y-114509380D02*
X147402995Y-115318904D01*
X147450614Y-115414142D01*
X147498233Y-115461761D01*
X147593471Y-115509380D01*
X147783947Y-115509380D01*
X147879185Y-115461761D01*
X147926804Y-115414142D01*
X147974423Y-115318904D01*
X147974423Y-114509380D01*
X148879185Y-114842714D02*
X148879185Y-115509380D01*
X148641090Y-114461761D02*
X148402995Y-115176047D01*
X149022042Y-115176047D01*
X146193142Y-100893619D02*
X146240761Y-100846000D01*
X146336000Y-100798380D01*
X146574095Y-100798380D01*
X146669333Y-100846000D01*
X146716952Y-100893619D01*
X146764571Y-100988857D01*
X146764571Y-101084095D01*
X146716952Y-101226952D01*
X146145523Y-101798380D01*
X146764571Y-101798380D01*
X147145523Y-100893619D02*
X147193142Y-100846000D01*
X147288380Y-100798380D01*
X147526476Y-100798380D01*
X147621714Y-100846000D01*
X147669333Y-100893619D01*
X147716952Y-100988857D01*
X147716952Y-101084095D01*
X147669333Y-101226952D01*
X147097904Y-101798380D01*
X147716952Y-101798380D01*
X148002666Y-100798380D02*
X148336000Y-101798380D01*
X148669333Y-100798380D01*
X149526476Y-101798380D02*
X148955047Y-101798380D01*
X149240761Y-101798380D02*
X149240761Y-100798380D01*
X149145523Y-100941238D01*
X149050285Y-101036476D01*
X148955047Y-101084095D01*
X150145523Y-100798380D02*
X150240761Y-100798380D01*
X150336000Y-100846000D01*
X150383619Y-100893619D01*
X150431238Y-100988857D01*
X150478857Y-101179333D01*
X150478857Y-101417428D01*
X150431238Y-101607904D01*
X150383619Y-101703142D01*
X150336000Y-101750761D01*
X150240761Y-101798380D01*
X150145523Y-101798380D01*
X150050285Y-101750761D01*
X150002666Y-101703142D01*
X149955047Y-101607904D01*
X149907428Y-101417428D01*
X149907428Y-101179333D01*
X149955047Y-100988857D01*
X150002666Y-100893619D01*
X150050285Y-100846000D01*
X150145523Y-100798380D01*
X152503142Y-83010666D02*
X152550761Y-83058285D01*
X152598380Y-83201142D01*
X152598380Y-83296380D01*
X152550761Y-83439238D01*
X152455523Y-83534476D01*
X152360285Y-83582095D01*
X152169809Y-83629714D01*
X152026952Y-83629714D01*
X151836476Y-83582095D01*
X151741238Y-83534476D01*
X151646000Y-83439238D01*
X151598380Y-83296380D01*
X151598380Y-83201142D01*
X151646000Y-83058285D01*
X151693619Y-83010666D01*
X151693619Y-82629714D02*
X151646000Y-82582095D01*
X151598380Y-82486857D01*
X151598380Y-82248761D01*
X151646000Y-82153523D01*
X151693619Y-82105904D01*
X151788857Y-82058285D01*
X151884095Y-82058285D01*
X152026952Y-82105904D01*
X152598380Y-82677333D01*
X152598380Y-82058285D01*
X153968380Y-83923047D02*
X153968380Y-84494476D01*
X153968380Y-84208761D02*
X152968380Y-84208761D01*
X153111238Y-84304000D01*
X153206476Y-84399238D01*
X153254095Y-84494476D01*
X152968380Y-83304000D02*
X152968380Y-83208761D01*
X153016000Y-83113523D01*
X153063619Y-83065904D01*
X153158857Y-83018285D01*
X153349333Y-82970666D01*
X153587428Y-82970666D01*
X153777904Y-83018285D01*
X153873142Y-83065904D01*
X153920761Y-83113523D01*
X153968380Y-83208761D01*
X153968380Y-83304000D01*
X153920761Y-83399238D01*
X153873142Y-83446857D01*
X153777904Y-83494476D01*
X153587428Y-83542095D01*
X153349333Y-83542095D01*
X153158857Y-83494476D01*
X153063619Y-83446857D01*
X153016000Y-83399238D01*
X152968380Y-83304000D01*
X152968380Y-82351619D02*
X152968380Y-82256380D01*
X153016000Y-82161142D01*
X153063619Y-82113523D01*
X153158857Y-82065904D01*
X153349333Y-82018285D01*
X153587428Y-82018285D01*
X153777904Y-82065904D01*
X153873142Y-82113523D01*
X153920761Y-82161142D01*
X153968380Y-82256380D01*
X153968380Y-82351619D01*
X153920761Y-82446857D01*
X153873142Y-82494476D01*
X153777904Y-82542095D01*
X153587428Y-82589714D01*
X153349333Y-82589714D01*
X153158857Y-82542095D01*
X153063619Y-82494476D01*
X153016000Y-82446857D01*
X152968380Y-82351619D01*
X153301714Y-81589714D02*
X153968380Y-81589714D01*
X153396952Y-81589714D02*
X153349333Y-81542095D01*
X153301714Y-81446857D01*
X153301714Y-81304000D01*
X153349333Y-81208761D01*
X153444571Y-81161142D01*
X153968380Y-81161142D01*
X129858095Y-102317380D02*
X129858095Y-103126904D01*
X129905714Y-103222142D01*
X129953333Y-103269761D01*
X130048571Y-103317380D01*
X130239047Y-103317380D01*
X130334285Y-103269761D01*
X130381904Y-103222142D01*
X130429523Y-103126904D01*
X130429523Y-102317380D01*
X130810476Y-102317380D02*
X131429523Y-102317380D01*
X131096190Y-102698333D01*
X131239047Y-102698333D01*
X131334285Y-102745952D01*
X131381904Y-102793571D01*
X131429523Y-102888809D01*
X131429523Y-103126904D01*
X131381904Y-103222142D01*
X131334285Y-103269761D01*
X131239047Y-103317380D01*
X130953333Y-103317380D01*
X130858095Y-103269761D01*
X130810476Y-103222142D01*
X127834285Y-128782380D02*
X127643809Y-128782380D01*
X127548571Y-128830000D01*
X127500952Y-128877619D01*
X127405714Y-129020476D01*
X127358095Y-129210952D01*
X127358095Y-129591904D01*
X127405714Y-129687142D01*
X127453333Y-129734761D01*
X127548571Y-129782380D01*
X127739047Y-129782380D01*
X127834285Y-129734761D01*
X127881904Y-129687142D01*
X127929523Y-129591904D01*
X127929523Y-129353809D01*
X127881904Y-129258571D01*
X127834285Y-129210952D01*
X127739047Y-129163333D01*
X127548571Y-129163333D01*
X127453333Y-129210952D01*
X127405714Y-129258571D01*
X127358095Y-129353809D01*
X128834285Y-128782380D02*
X128358095Y-128782380D01*
X128310476Y-129258571D01*
X128358095Y-129210952D01*
X128453333Y-129163333D01*
X128691428Y-129163333D01*
X128786666Y-129210952D01*
X128834285Y-129258571D01*
X128881904Y-129353809D01*
X128881904Y-129591904D01*
X128834285Y-129687142D01*
X128786666Y-129734761D01*
X128691428Y-129782380D01*
X128453333Y-129782380D01*
X128358095Y-129734761D01*
X128310476Y-129687142D01*
X129262857Y-128877619D02*
X129310476Y-128830000D01*
X129405714Y-128782380D01*
X129643809Y-128782380D01*
X129739047Y-128830000D01*
X129786666Y-128877619D01*
X129834285Y-128972857D01*
X129834285Y-129068095D01*
X129786666Y-129210952D01*
X129215238Y-129782380D01*
X129834285Y-129782380D01*
X130691428Y-128782380D02*
X130500952Y-128782380D01*
X130405714Y-128830000D01*
X130358095Y-128877619D01*
X130262857Y-129020476D01*
X130215238Y-129210952D01*
X130215238Y-129591904D01*
X130262857Y-129687142D01*
X130310476Y-129734761D01*
X130405714Y-129782380D01*
X130596190Y-129782380D01*
X130691428Y-129734761D01*
X130739047Y-129687142D01*
X130786666Y-129591904D01*
X130786666Y-129353809D01*
X130739047Y-129258571D01*
X130691428Y-129210952D01*
X130596190Y-129163333D01*
X130405714Y-129163333D01*
X130310476Y-129210952D01*
X130262857Y-129258571D01*
X130215238Y-129353809D01*
X132548571Y-129687142D02*
X132500952Y-129734761D01*
X132358095Y-129782380D01*
X132262857Y-129782380D01*
X132120000Y-129734761D01*
X132024761Y-129639523D01*
X131977142Y-129544285D01*
X131929523Y-129353809D01*
X131929523Y-129210952D01*
X131977142Y-129020476D01*
X132024761Y-128925238D01*
X132120000Y-128830000D01*
X132262857Y-128782380D01*
X132358095Y-128782380D01*
X132500952Y-128830000D01*
X132548571Y-128877619D01*
X132977142Y-129782380D02*
X132977142Y-128782380D01*
X133405714Y-129496666D02*
X133881904Y-129496666D01*
X133310476Y-129782380D02*
X133643809Y-128782380D01*
X133977142Y-129782380D01*
X142692380Y-85510666D02*
X142216190Y-85844000D01*
X142692380Y-86082095D02*
X141692380Y-86082095D01*
X141692380Y-85701142D01*
X141740000Y-85605904D01*
X141787619Y-85558285D01*
X141882857Y-85510666D01*
X142025714Y-85510666D01*
X142120952Y-85558285D01*
X142168571Y-85605904D01*
X142216190Y-85701142D01*
X142216190Y-86082095D01*
X142692380Y-84558285D02*
X142692380Y-85129714D01*
X142692380Y-84844000D02*
X141692380Y-84844000D01*
X141835238Y-84939238D01*
X141930476Y-85034476D01*
X141978095Y-85129714D01*
X145062380Y-86010666D02*
X145062380Y-86582095D01*
X145062380Y-86296380D02*
X144062380Y-86296380D01*
X144205238Y-86391619D01*
X144300476Y-86486857D01*
X144348095Y-86582095D01*
X144062380Y-85391619D02*
X144062380Y-85296380D01*
X144110000Y-85201142D01*
X144157619Y-85153523D01*
X144252857Y-85105904D01*
X144443333Y-85058285D01*
X144681428Y-85058285D01*
X144871904Y-85105904D01*
X144967142Y-85153523D01*
X145014761Y-85201142D01*
X145062380Y-85296380D01*
X145062380Y-85391619D01*
X145014761Y-85486857D01*
X144967142Y-85534476D01*
X144871904Y-85582095D01*
X144681428Y-85629714D01*
X144443333Y-85629714D01*
X144252857Y-85582095D01*
X144157619Y-85534476D01*
X144110000Y-85486857D01*
X144062380Y-85391619D01*
X144062380Y-84439238D02*
X144062380Y-84344000D01*
X144110000Y-84248761D01*
X144157619Y-84201142D01*
X144252857Y-84153523D01*
X144443333Y-84105904D01*
X144681428Y-84105904D01*
X144871904Y-84153523D01*
X144967142Y-84201142D01*
X145014761Y-84248761D01*
X145062380Y-84344000D01*
X145062380Y-84439238D01*
X145014761Y-84534476D01*
X144967142Y-84582095D01*
X144871904Y-84629714D01*
X144681428Y-84677333D01*
X144443333Y-84677333D01*
X144252857Y-84629714D01*
X144157619Y-84582095D01*
X144110000Y-84534476D01*
X144062380Y-84439238D01*
X165266666Y-55708380D02*
X165266666Y-56422666D01*
X165219047Y-56565523D01*
X165123809Y-56660761D01*
X164980952Y-56708380D01*
X164885714Y-56708380D01*
X165695238Y-55803619D02*
X165742857Y-55756000D01*
X165838095Y-55708380D01*
X166076190Y-55708380D01*
X166171428Y-55756000D01*
X166219047Y-55803619D01*
X166266666Y-55898857D01*
X166266666Y-55994095D01*
X166219047Y-56136952D01*
X165647619Y-56708380D01*
X166266666Y-56708380D01*
D13*
X128882000Y-76554000D02*
X128882000Y-73814000D01*
X128882000Y-76554000D02*
X121642000Y-76554000D01*
X121642000Y-76554000D02*
X121642000Y-73814000D01*
X128882000Y-73814000D02*
X121642000Y-73814000D01*
X150936000Y-54296000D02*
X150936000Y-67116000D01*
X145736000Y-56896000D02*
X148336000Y-56896000D01*
X145736000Y-56896000D02*
X145736000Y-67116000D01*
X145736000Y-55626000D02*
X145736000Y-54296000D01*
X148336000Y-56896000D02*
X148336000Y-54296000D01*
X145736000Y-67116000D02*
X150936000Y-67116000D01*
X148336000Y-54296000D02*
X150936000Y-54296000D01*
X145736000Y-54296000D02*
X147066000Y-54296000D01*
D12*
X136976000Y-52794000D02*
X139976000Y-52794000D01*
X129276000Y-52794000D02*
X131676000Y-52794000D01*
X120476000Y-69794000D02*
X140476000Y-69794000D01*
X120476000Y-52294000D02*
X120476000Y-69794000D01*
X120976000Y-52794000D02*
X123976000Y-52794000D01*
X140476000Y-69794000D02*
X140476000Y-52294000D01*
D13*
X172455000Y-92635000D02*
X166995000Y-92635000D01*
X174945000Y-128375000D02*
X174945000Y-92575000D01*
X157045000Y-92575000D02*
X157045000Y-128375000D01*
X174945000Y-92575000D02*
X157045000Y-92575000D01*
X159535000Y-92635000D02*
X159535000Y-128315000D01*
X164995000Y-92635000D02*
X159535000Y-92635000D01*
X172455000Y-128315000D02*
X172455000Y-92635000D01*
X157045000Y-128375000D02*
X174945000Y-128375000D01*
X159535000Y-128315000D02*
X172455000Y-128315000D01*
X164995000Y-92635000D02*
G75*
G03*
X166995000Y-92635000I1000000J0D01*
G01*
X156564000Y-99632000D02*
X156564000Y-92392000D01*
X153824000Y-99632000D02*
X153824000Y-92392000D01*
X153824000Y-99632000D02*
X156564000Y-99632000D01*
X153824000Y-92392000D02*
X156564000Y-92392000D01*
X146204000Y-86424000D02*
X146204000Y-79184000D01*
X146204000Y-79184000D02*
X148944000Y-79184000D01*
X146204000Y-86424000D02*
X148944000Y-86424000D01*
X148944000Y-86424000D02*
X148944000Y-79184000D01*
X174822000Y-78078000D02*
X174822000Y-72778000D01*
X164482000Y-80568000D02*
X174882000Y-80568000D01*
X164482000Y-70288000D02*
X164482000Y-80568000D01*
X174882000Y-70288000D02*
X164482000Y-70288000D01*
X164542000Y-72778000D02*
X164542000Y-74428000D01*
X174822000Y-72778000D02*
X164542000Y-72778000D01*
X174882000Y-80568000D02*
X174882000Y-70288000D01*
X164542000Y-78078000D02*
X174822000Y-78078000D01*
X164542000Y-76428000D02*
X164542000Y-78078000D01*
X164542000Y-76428000D02*
G75*
G03*
X164542000Y-74428000I0J1000000D01*
G01*
X154362000Y-87350000D02*
X154362000Y-89000000D01*
X174802000Y-89000000D02*
X174802000Y-83700000D01*
X154362000Y-89000000D02*
X174802000Y-89000000D01*
X154302000Y-91490000D02*
X174862000Y-91490000D01*
X154302000Y-81210000D02*
X154302000Y-91490000D01*
X174862000Y-91490000D02*
X174862000Y-81210000D01*
X174802000Y-83700000D02*
X154362000Y-83700000D01*
X174862000Y-81210000D02*
X154302000Y-81210000D01*
X154362000Y-83700000D02*
X154362000Y-85350000D01*
X154362000Y-87350000D02*
G75*
G03*
X154362000Y-85350000I0J1000000D01*
G01*
D14*
X153253100Y-94259600D02*
G75*
G03*
X153253100Y-94259600I-5000000J0D01*
G01*
D13*
X154741000Y-73655000D02*
X154741000Y-76255000D01*
X152141000Y-73655000D02*
X154741000Y-73655000D01*
X154741000Y-71055000D02*
X154741000Y-72385000D01*
X141921000Y-71055000D02*
X141921000Y-76255000D01*
X154741000Y-76255000D02*
X141921000Y-76255000D01*
X152141000Y-71055000D02*
X152141000Y-73655000D01*
X153411000Y-71055000D02*
X154741000Y-71055000D01*
X152141000Y-71055000D02*
X141921000Y-71055000D01*
X153476000Y-99702000D02*
X143196000Y-99702000D01*
X150986000Y-99762000D02*
X145686000Y-99762000D01*
X145686000Y-130362000D02*
X147336000Y-130362000D01*
X153476000Y-130422000D02*
X153476000Y-99702000D01*
X149336000Y-130362000D02*
X150986000Y-130362000D01*
X143196000Y-99702000D02*
X143196000Y-130422000D01*
X145686000Y-99762000D02*
X145686000Y-130362000D01*
X143196000Y-130422000D02*
X153476000Y-130422000D01*
X150986000Y-130362000D02*
X150986000Y-99762000D01*
X149336000Y-130362000D02*
G75*
G03*
X147336000Y-130362000I-1000000J0D01*
G01*
X150776000Y-86464000D02*
X150776000Y-79224000D01*
X153516000Y-86464000D02*
X153516000Y-79224000D01*
X150776000Y-86464000D02*
X153516000Y-86464000D01*
X150776000Y-79224000D02*
X153516000Y-79224000D01*
X139570000Y-128390000D02*
X139570000Y-77350000D01*
X121670000Y-128390000D02*
X139570000Y-128390000D01*
X139570000Y-77350000D02*
X121670000Y-77350000D01*
X124160000Y-77410000D02*
X124160000Y-128330000D01*
X129620000Y-77410000D02*
X124160000Y-77410000D01*
X121670000Y-77350000D02*
X121670000Y-128390000D01*
X124160000Y-128330000D02*
X137080000Y-128330000D01*
X137080000Y-128330000D02*
X137080000Y-77410000D01*
X137080000Y-77410000D02*
X131620000Y-77410000D01*
X129620000Y-77410000D02*
G75*
G03*
X131620000Y-77410000I1000000J0D01*
G01*
X142240000Y-89384000D02*
X142240000Y-88614000D01*
X142240000Y-81304000D02*
X142240000Y-82074000D01*
X140870000Y-82074000D02*
X140870000Y-88614000D01*
X143610000Y-88614000D02*
X143610000Y-82074000D01*
X143610000Y-82074000D02*
X140870000Y-82074000D01*
X140870000Y-88614000D02*
X143610000Y-88614000D01*
D12*
X155782000Y-52294000D02*
X155782000Y-69794000D01*
X164582000Y-52794000D02*
X166982000Y-52794000D01*
X156282000Y-52794000D02*
X159282000Y-52794000D01*
X172282000Y-52794000D02*
X175282000Y-52794000D01*
X175782000Y-69794000D02*
X175782000Y-52294000D01*
X155782000Y-69794000D02*
X175782000Y-69794000D01*
%LPC*%
D15*
X127762000Y-75184000D03*
X122762000Y-75184000D03*
D16*
X147066000Y-55626000D03*
D17*
X149606000Y-55626000D03*
X147066000Y-58166000D03*
X149606000Y-58166000D03*
X147066000Y-60706000D03*
X149606000Y-60706000D03*
X147066000Y-63246000D03*
X149606000Y-63246000D03*
X147066000Y-65786000D03*
X149606000Y-65786000D03*
D18*
X127976000Y-53294000D03*
X125476000Y-53594000D03*
X132976000Y-53294000D03*
X135476000Y-53594000D03*
D19*
X122976000Y-63294000D03*
X125476000Y-65794000D03*
X130476000Y-63294000D03*
X135476000Y-65794000D03*
X137976000Y-63294000D03*
X130476000Y-68294000D03*
D20*
X158375000Y-93965000D03*
D21*
X158375000Y-96505000D03*
X158375000Y-99045000D03*
X158375000Y-101585000D03*
X158375000Y-104125000D03*
X158375000Y-106665000D03*
X158375000Y-109205000D03*
X158375000Y-111745000D03*
X158375000Y-114285000D03*
X158375000Y-116825000D03*
X158375000Y-119365000D03*
X158375000Y-121905000D03*
X158375000Y-124445000D03*
X158375000Y-126985000D03*
X173615000Y-126985000D03*
X173615000Y-124445000D03*
X173615000Y-121905000D03*
X173615000Y-119365000D03*
X173615000Y-116825000D03*
X173615000Y-114285000D03*
X173615000Y-111745000D03*
X173615000Y-109205000D03*
X173615000Y-106665000D03*
X173615000Y-104125000D03*
X173615000Y-101585000D03*
X173615000Y-99045000D03*
X173615000Y-96505000D03*
X173615000Y-93965000D03*
D15*
X155194000Y-98512000D03*
X155194000Y-93512000D03*
X147574000Y-85304000D03*
X147574000Y-80304000D03*
D20*
X165872000Y-79238000D03*
D21*
X168412000Y-79238000D03*
X170952000Y-79238000D03*
X173492000Y-79238000D03*
X173492000Y-71618000D03*
X170952000Y-71618000D03*
X168412000Y-71618000D03*
X165872000Y-71618000D03*
D20*
X155692000Y-90160000D03*
D21*
X158232000Y-90160000D03*
X160772000Y-90160000D03*
X163312000Y-90160000D03*
X165852000Y-90160000D03*
X168392000Y-90160000D03*
X170932000Y-90160000D03*
X173472000Y-90160000D03*
X173472000Y-82540000D03*
X170932000Y-82540000D03*
X168392000Y-82540000D03*
X165852000Y-82540000D03*
X163312000Y-82540000D03*
X160772000Y-82540000D03*
X158232000Y-82540000D03*
X155692000Y-82540000D03*
D22*
X148253100Y-94259600D03*
D23*
X124253100Y-137759600D03*
X126253100Y-137759600D03*
X128253100Y-137759600D03*
X130253100Y-137759600D03*
X132253100Y-137759600D03*
X134253100Y-137759600D03*
X136253100Y-137759600D03*
X138253100Y-137759600D03*
X140253100Y-137759600D03*
X142253100Y-137759600D03*
X144253100Y-137759600D03*
X146253100Y-137759600D03*
X148253100Y-137759600D03*
X150253100Y-137759600D03*
X152253100Y-137759600D03*
X154253100Y-137759600D03*
X156253100Y-137759600D03*
X158253100Y-137759600D03*
X160253100Y-137759600D03*
X162253100Y-137759600D03*
X164253100Y-137759600D03*
X166253100Y-137759600D03*
X168253100Y-137759600D03*
X170253100Y-137759600D03*
X172253100Y-137759600D03*
D16*
X153411000Y-72385000D03*
D17*
X153411000Y-74925000D03*
X150871000Y-72385000D03*
X150871000Y-74925000D03*
X148331000Y-72385000D03*
X148331000Y-74925000D03*
X145791000Y-72385000D03*
X145791000Y-74925000D03*
X143251000Y-72385000D03*
X143251000Y-74925000D03*
D20*
X152146000Y-129032000D03*
D21*
X152146000Y-126492000D03*
X152146000Y-123952000D03*
X152146000Y-121412000D03*
X152146000Y-118872000D03*
X152146000Y-116332000D03*
X152146000Y-113792000D03*
X152146000Y-111252000D03*
X152146000Y-108712000D03*
X152146000Y-106172000D03*
X152146000Y-103632000D03*
X152146000Y-101092000D03*
X144526000Y-101092000D03*
X144526000Y-103632000D03*
X144526000Y-106172000D03*
X144526000Y-108712000D03*
X144526000Y-111252000D03*
X144526000Y-113792000D03*
X144526000Y-116332000D03*
X144526000Y-118872000D03*
X144526000Y-121412000D03*
X144526000Y-123952000D03*
X144526000Y-126492000D03*
X144526000Y-129032000D03*
D15*
X152146000Y-85344000D03*
X152146000Y-80344000D03*
D20*
X123000000Y-78740000D03*
D21*
X123000000Y-81280000D03*
X123000000Y-83820000D03*
X123000000Y-86360000D03*
X123000000Y-88900000D03*
X123000000Y-91440000D03*
X123000000Y-93980000D03*
X123000000Y-96520000D03*
X123000000Y-99060000D03*
X123000000Y-101600000D03*
X123000000Y-104140000D03*
X123000000Y-106680000D03*
X123000000Y-109220000D03*
X123000000Y-111760000D03*
X123000000Y-114300000D03*
X123000000Y-116840000D03*
X123000000Y-119380000D03*
X123000000Y-121920000D03*
X123000000Y-124460000D03*
X123000000Y-127000000D03*
X138240000Y-127000000D03*
X138240000Y-124460000D03*
X138240000Y-121920000D03*
X138240000Y-119380000D03*
X138240000Y-116840000D03*
X138240000Y-114300000D03*
X138240000Y-111760000D03*
X138240000Y-109220000D03*
X138240000Y-106680000D03*
X138240000Y-104140000D03*
X138240000Y-101600000D03*
X138240000Y-99060000D03*
X138240000Y-96520000D03*
X138240000Y-93980000D03*
X138240000Y-91440000D03*
X138240000Y-88900000D03*
X138240000Y-86360000D03*
X138240000Y-83820000D03*
X138240000Y-81280000D03*
X138240000Y-78740000D03*
D15*
X142240000Y-90424000D03*
D21*
X142240000Y-80264000D03*
D18*
X163282000Y-53294000D03*
X160782000Y-53594000D03*
X170782000Y-53594000D03*
X168282000Y-53294000D03*
D19*
X158282000Y-63294000D03*
X160782000Y-65794000D03*
X165782000Y-63294000D03*
X170782000Y-65794000D03*
X173282000Y-63294000D03*
X165782000Y-68294000D03*
D15*
X128524000Y-92710000D03*
D21*
X128524000Y-82550000D03*
D15*
X133096000Y-92710000D03*
D21*
X133096000Y-82550000D03*
M02*
