G04 #@! TF.GenerationSoftware,KiCad,Pcbnew,6.0.2+dfsg-1*
G04 #@! TF.CreationDate,2025-05-07T23:53:04+02:00*
G04 #@! TF.ProjectId,burstcart,62757273-7463-4617-9274-2e6b69636164,1.1*
G04 #@! TF.SameCoordinates,Original*
G04 #@! TF.FileFunction,Legend,Bot*
G04 #@! TF.FilePolarity,Positive*
%FSLAX46Y46*%
G04 Gerber Fmt 4.6, Leading zero omitted, Abs format (unit mm)*
G04 Created by KiCad (PCBNEW 6.0.2+dfsg-1) date 2025-05-07 23:53:04*
%MOMM*%
%LPD*%
G01*
G04 APERTURE LIST*
G04 Aperture macros list*
%AMRoundRect*
0 Rectangle with rounded corners*
0 $1 Rounding radius*
0 $2 $3 $4 $5 $6 $7 $8 $9 X,Y pos of 4 corners*
0 Add a 4 corners polygon primitive as box body*
4,1,4,$2,$3,$4,$5,$6,$7,$8,$9,$2,$3,0*
0 Add four circle primitives for the rounded corners*
1,1,$1+$1,$2,$3*
1,1,$1+$1,$4,$5*
1,1,$1+$1,$6,$7*
1,1,$1+$1,$8,$9*
0 Add four rect primitives between the rounded corners*
20,1,$1+$1,$2,$3,$4,$5,0*
20,1,$1+$1,$4,$5,$6,$7,0*
20,1,$1+$1,$6,$7,$8,$9,0*
20,1,$1+$1,$8,$9,$2,$3,0*%
G04 Aperture macros list end*
%ADD10C,0.125000*%
%ADD11C,0.200000*%
%ADD12C,0.150000*%
%ADD13C,0.120000*%
%ADD14R,1.500000X1.000000*%
%ADD15C,1.600000*%
%ADD16R,1.700000X1.700000*%
%ADD17O,1.700000X1.700000*%
%ADD18C,2.100000*%
%ADD19C,2.500000*%
%ADD20R,1.600000X1.600000*%
%ADD21O,1.600000X1.600000*%
%ADD22C,5.000000*%
%ADD23RoundRect,0.163300X-0.337500X-4.512500X0.337500X-4.512500X0.337500X4.512500X-0.337500X4.512500X0*%
%ADD24R,1.000000X1.500000*%
G04 APERTURE END LIST*
D10*
X169330285Y-99032190D02*
X169496952Y-98794095D01*
X169616000Y-99032190D02*
X169616000Y-98532190D01*
X169425523Y-98532190D01*
X169377904Y-98556000D01*
X169354095Y-98579809D01*
X169330285Y-98627428D01*
X169330285Y-98698857D01*
X169354095Y-98746476D01*
X169377904Y-98770285D01*
X169425523Y-98794095D01*
X169616000Y-98794095D01*
X168925523Y-99008380D02*
X168973142Y-99032190D01*
X169068380Y-99032190D01*
X169116000Y-99008380D01*
X169139809Y-98960761D01*
X169139809Y-98770285D01*
X169116000Y-98722666D01*
X169068380Y-98698857D01*
X168973142Y-98698857D01*
X168925523Y-98722666D01*
X168901714Y-98770285D01*
X168901714Y-98817904D01*
X169139809Y-98865523D01*
X168711238Y-99008380D02*
X168663619Y-99032190D01*
X168568380Y-99032190D01*
X168520761Y-99008380D01*
X168496952Y-98960761D01*
X168496952Y-98936952D01*
X168520761Y-98889333D01*
X168568380Y-98865523D01*
X168639809Y-98865523D01*
X168687428Y-98841714D01*
X168711238Y-98794095D01*
X168711238Y-98770285D01*
X168687428Y-98722666D01*
X168639809Y-98698857D01*
X168568380Y-98698857D01*
X168520761Y-98722666D01*
X168092190Y-99008380D02*
X168139809Y-99032190D01*
X168235047Y-99032190D01*
X168282666Y-99008380D01*
X168306476Y-98960761D01*
X168306476Y-98770285D01*
X168282666Y-98722666D01*
X168235047Y-98698857D01*
X168139809Y-98698857D01*
X168092190Y-98722666D01*
X168068380Y-98770285D01*
X168068380Y-98817904D01*
X168306476Y-98865523D01*
X167925523Y-98698857D02*
X167735047Y-98698857D01*
X167854095Y-98532190D02*
X167854095Y-98960761D01*
X167830285Y-99008380D01*
X167782666Y-99032190D01*
X167735047Y-99032190D01*
X167068380Y-99198857D02*
X167068380Y-98484571D01*
X166258857Y-99032190D02*
X166306476Y-99008380D01*
X166330285Y-98984571D01*
X166354095Y-98936952D01*
X166354095Y-98794095D01*
X166330285Y-98746476D01*
X166306476Y-98722666D01*
X166258857Y-98698857D01*
X166187428Y-98698857D01*
X166139809Y-98722666D01*
X166116000Y-98746476D01*
X166092190Y-98794095D01*
X166092190Y-98936952D01*
X166116000Y-98984571D01*
X166139809Y-99008380D01*
X166187428Y-99032190D01*
X166258857Y-99032190D01*
X165663619Y-98698857D02*
X165663619Y-99032190D01*
X165877904Y-98698857D02*
X165877904Y-98960761D01*
X165854095Y-99008380D01*
X165806476Y-99032190D01*
X165735047Y-99032190D01*
X165687428Y-99008380D01*
X165663619Y-98984571D01*
X165496952Y-98698857D02*
X165306476Y-98698857D01*
X165425523Y-98532190D02*
X165425523Y-98960761D01*
X165401714Y-99008380D01*
X165354095Y-99032190D01*
X165306476Y-99032190D01*
X164639809Y-99198857D02*
X164639809Y-98484571D01*
X163639809Y-98556000D02*
X163687428Y-98532190D01*
X163758857Y-98532190D01*
X163830285Y-98556000D01*
X163877904Y-98603619D01*
X163901714Y-98651238D01*
X163925523Y-98746476D01*
X163925523Y-98817904D01*
X163901714Y-98913142D01*
X163877904Y-98960761D01*
X163830285Y-99008380D01*
X163758857Y-99032190D01*
X163711238Y-99032190D01*
X163639809Y-99008380D01*
X163616000Y-98984571D01*
X163616000Y-98817904D01*
X163711238Y-98817904D01*
X163401714Y-99032190D02*
X163401714Y-98532190D01*
X163116000Y-99032190D01*
X163116000Y-98532190D01*
X162877904Y-99032190D02*
X162877904Y-98532190D01*
X162758857Y-98532190D01*
X162687428Y-98556000D01*
X162639809Y-98603619D01*
X162616000Y-98651238D01*
X162592190Y-98746476D01*
X162592190Y-98817904D01*
X162616000Y-98913142D01*
X162639809Y-98960761D01*
X162687428Y-99008380D01*
X162758857Y-99032190D01*
X162877904Y-99032190D01*
X132028380Y-113542380D02*
X132052190Y-113613809D01*
X132052190Y-113732857D01*
X132028380Y-113780476D01*
X132004571Y-113804285D01*
X131956952Y-113828095D01*
X131909333Y-113828095D01*
X131861714Y-113804285D01*
X131837904Y-113780476D01*
X131814095Y-113732857D01*
X131790285Y-113637619D01*
X131766476Y-113590000D01*
X131742666Y-113566190D01*
X131695047Y-113542380D01*
X131647428Y-113542380D01*
X131599809Y-113566190D01*
X131576000Y-113590000D01*
X131552190Y-113637619D01*
X131552190Y-113756666D01*
X131576000Y-113828095D01*
X132052190Y-114113809D02*
X132028380Y-114066190D01*
X131980761Y-114042380D01*
X131552190Y-114042380D01*
X132052190Y-114375714D02*
X132028380Y-114328095D01*
X132004571Y-114304285D01*
X131956952Y-114280476D01*
X131814095Y-114280476D01*
X131766476Y-114304285D01*
X131742666Y-114328095D01*
X131718857Y-114375714D01*
X131718857Y-114447142D01*
X131742666Y-114494761D01*
X131766476Y-114518571D01*
X131814095Y-114542380D01*
X131956952Y-114542380D01*
X132004571Y-114518571D01*
X132028380Y-114494761D01*
X132052190Y-114447142D01*
X132052190Y-114375714D01*
X131718857Y-114709047D02*
X132052190Y-114804285D01*
X131814095Y-114899523D01*
X132052190Y-114994761D01*
X131718857Y-115090000D01*
X132218857Y-115780476D02*
X131504571Y-115780476D01*
X132004571Y-116804285D02*
X132028380Y-116780476D01*
X132052190Y-116709047D01*
X132052190Y-116661428D01*
X132028380Y-116590000D01*
X131980761Y-116542380D01*
X131933142Y-116518571D01*
X131837904Y-116494761D01*
X131766476Y-116494761D01*
X131671238Y-116518571D01*
X131623619Y-116542380D01*
X131576000Y-116590000D01*
X131552190Y-116661428D01*
X131552190Y-116709047D01*
X131576000Y-116780476D01*
X131599809Y-116804285D01*
X132052190Y-117018571D02*
X131552190Y-117018571D01*
X131909333Y-117232857D02*
X131909333Y-117470952D01*
X132052190Y-117185238D02*
X131552190Y-117351904D01*
X132052190Y-117518571D01*
X132218857Y-118185238D02*
X131504571Y-118185238D01*
X132052190Y-118923333D02*
X131552190Y-118923333D01*
X131552190Y-119113809D01*
X131576000Y-119161428D01*
X131599809Y-119185238D01*
X131647428Y-119209047D01*
X131718857Y-119209047D01*
X131766476Y-119185238D01*
X131790285Y-119161428D01*
X131814095Y-119113809D01*
X131814095Y-118923333D01*
X132052190Y-119423333D02*
X131552190Y-119423333D01*
X132052190Y-119637619D02*
X131790285Y-119637619D01*
X131742666Y-119613809D01*
X131718857Y-119566190D01*
X131718857Y-119494761D01*
X131742666Y-119447142D01*
X131766476Y-119423333D01*
X131599809Y-119851904D02*
X131576000Y-119875714D01*
X131552190Y-119923333D01*
X131552190Y-120042380D01*
X131576000Y-120090000D01*
X131599809Y-120113809D01*
X131647428Y-120137619D01*
X131695047Y-120137619D01*
X131766476Y-120113809D01*
X132052190Y-119828095D01*
X132052190Y-120137619D01*
X132052190Y-122261714D02*
X131552190Y-122261714D01*
X131552190Y-122452190D01*
X131576000Y-122499809D01*
X131599809Y-122523619D01*
X131647428Y-122547428D01*
X131718857Y-122547428D01*
X131766476Y-122523619D01*
X131790285Y-122499809D01*
X131814095Y-122452190D01*
X131814095Y-122261714D01*
X132052190Y-122761714D02*
X131552190Y-122761714D01*
X132052190Y-122976000D02*
X131790285Y-122976000D01*
X131742666Y-122952190D01*
X131718857Y-122904571D01*
X131718857Y-122833142D01*
X131742666Y-122785523D01*
X131766476Y-122761714D01*
X131599809Y-123190285D02*
X131576000Y-123214095D01*
X131552190Y-123261714D01*
X131552190Y-123380761D01*
X131576000Y-123428380D01*
X131599809Y-123452190D01*
X131647428Y-123476000D01*
X131695047Y-123476000D01*
X131766476Y-123452190D01*
X132052190Y-123166476D01*
X132052190Y-123476000D01*
X132218857Y-124190285D02*
X131504571Y-124190285D01*
X131576000Y-125190285D02*
X131552190Y-125142666D01*
X131552190Y-125071238D01*
X131576000Y-124999809D01*
X131623619Y-124952190D01*
X131671238Y-124928380D01*
X131766476Y-124904571D01*
X131837904Y-124904571D01*
X131933142Y-124928380D01*
X131980761Y-124952190D01*
X132028380Y-124999809D01*
X132052190Y-125071238D01*
X132052190Y-125118857D01*
X132028380Y-125190285D01*
X132004571Y-125214095D01*
X131837904Y-125214095D01*
X131837904Y-125118857D01*
X131909333Y-125404571D02*
X131909333Y-125642666D01*
X132052190Y-125356952D02*
X131552190Y-125523619D01*
X132052190Y-125690285D01*
X132052190Y-126095047D02*
X132052190Y-125856952D01*
X131552190Y-125856952D01*
X132218857Y-126761714D02*
X131504571Y-126761714D01*
X132052190Y-127499809D02*
X131552190Y-127499809D01*
X131552190Y-127690285D01*
X131576000Y-127737904D01*
X131599809Y-127761714D01*
X131647428Y-127785523D01*
X131718857Y-127785523D01*
X131766476Y-127761714D01*
X131790285Y-127737904D01*
X131814095Y-127690285D01*
X131814095Y-127499809D01*
X132052190Y-127999809D02*
X131552190Y-127999809D01*
X132052190Y-128214095D02*
X131790285Y-128214095D01*
X131742666Y-128190285D01*
X131718857Y-128142666D01*
X131718857Y-128071238D01*
X131742666Y-128023619D01*
X131766476Y-127999809D01*
X131552190Y-128547428D02*
X131552190Y-128595047D01*
X131576000Y-128642666D01*
X131599809Y-128666476D01*
X131647428Y-128690285D01*
X131742666Y-128714095D01*
X131861714Y-128714095D01*
X131956952Y-128690285D01*
X132004571Y-128666476D01*
X132028380Y-128642666D01*
X132052190Y-128595047D01*
X132052190Y-128547428D01*
X132028380Y-128499809D01*
X132004571Y-128476000D01*
X131956952Y-128452190D01*
X131861714Y-128428380D01*
X131742666Y-128428380D01*
X131647428Y-128452190D01*
X131599809Y-128476000D01*
X131576000Y-128499809D01*
X131552190Y-128547428D01*
D11*
X129718857Y-98089047D02*
X129756952Y-98203333D01*
X129795047Y-98241428D01*
X129871238Y-98279523D01*
X129985523Y-98279523D01*
X130061714Y-98241428D01*
X130099809Y-98203333D01*
X130137904Y-98127142D01*
X130137904Y-97822380D01*
X129337904Y-97822380D01*
X129337904Y-98089047D01*
X129376000Y-98165238D01*
X129414095Y-98203333D01*
X129490285Y-98241428D01*
X129566476Y-98241428D01*
X129642666Y-98203333D01*
X129680761Y-98165238D01*
X129718857Y-98089047D01*
X129718857Y-97822380D01*
X129604571Y-98965238D02*
X130137904Y-98965238D01*
X129604571Y-98622380D02*
X130023619Y-98622380D01*
X130099809Y-98660476D01*
X130137904Y-98736666D01*
X130137904Y-98850952D01*
X130099809Y-98927142D01*
X130061714Y-98965238D01*
X130137904Y-99346190D02*
X129604571Y-99346190D01*
X129756952Y-99346190D02*
X129680761Y-99384285D01*
X129642666Y-99422380D01*
X129604571Y-99498571D01*
X129604571Y-99574761D01*
X130099809Y-99803333D02*
X130137904Y-99879523D01*
X130137904Y-100031904D01*
X130099809Y-100108095D01*
X130023619Y-100146190D01*
X129985523Y-100146190D01*
X129909333Y-100108095D01*
X129871238Y-100031904D01*
X129871238Y-99917619D01*
X129833142Y-99841428D01*
X129756952Y-99803333D01*
X129718857Y-99803333D01*
X129642666Y-99841428D01*
X129604571Y-99917619D01*
X129604571Y-100031904D01*
X129642666Y-100108095D01*
X129604571Y-100374761D02*
X129604571Y-100679523D01*
X129337904Y-100489047D02*
X130023619Y-100489047D01*
X130099809Y-100527142D01*
X130137904Y-100603333D01*
X130137904Y-100679523D01*
X130061714Y-101403333D02*
X130099809Y-101365238D01*
X130137904Y-101250952D01*
X130137904Y-101174761D01*
X130099809Y-101060476D01*
X130023619Y-100984285D01*
X129947428Y-100946190D01*
X129795047Y-100908095D01*
X129680761Y-100908095D01*
X129528380Y-100946190D01*
X129452190Y-100984285D01*
X129376000Y-101060476D01*
X129337904Y-101174761D01*
X129337904Y-101250952D01*
X129376000Y-101365238D01*
X129414095Y-101403333D01*
X130137904Y-102089047D02*
X129718857Y-102089047D01*
X129642666Y-102050952D01*
X129604571Y-101974761D01*
X129604571Y-101822380D01*
X129642666Y-101746190D01*
X130099809Y-102089047D02*
X130137904Y-102012857D01*
X130137904Y-101822380D01*
X130099809Y-101746190D01*
X130023619Y-101708095D01*
X129947428Y-101708095D01*
X129871238Y-101746190D01*
X129833142Y-101822380D01*
X129833142Y-102012857D01*
X129795047Y-102089047D01*
X130137904Y-102470000D02*
X129604571Y-102470000D01*
X129756952Y-102470000D02*
X129680761Y-102508095D01*
X129642666Y-102546190D01*
X129604571Y-102622380D01*
X129604571Y-102698571D01*
X129604571Y-102850952D02*
X129604571Y-103155714D01*
X129337904Y-102965238D02*
X130023619Y-102965238D01*
X130099809Y-103003333D01*
X130137904Y-103079523D01*
X130137904Y-103155714D01*
X129833142Y-103422380D02*
X129833142Y-104031904D01*
X130137904Y-103727142D02*
X129528380Y-103727142D01*
X129604571Y-104755714D02*
X130137904Y-104755714D01*
X129299809Y-104565238D02*
X129871238Y-104374761D01*
X129871238Y-104870000D01*
X129604571Y-105708095D02*
X130137904Y-105898571D01*
X129604571Y-106089047D01*
X130137904Y-106812857D02*
X130137904Y-106355714D01*
X130137904Y-106584285D02*
X129337904Y-106584285D01*
X129452190Y-106508095D01*
X129528380Y-106431904D01*
X129566476Y-106355714D01*
X130061714Y-107155714D02*
X130099809Y-107193809D01*
X130137904Y-107155714D01*
X130099809Y-107117619D01*
X130061714Y-107155714D01*
X130137904Y-107155714D01*
X130137904Y-107955714D02*
X130137904Y-107498571D01*
X130137904Y-107727142D02*
X129337904Y-107727142D01*
X129452190Y-107650952D01*
X129528380Y-107574761D01*
X129566476Y-107498571D01*
X131425904Y-95346190D02*
X130625904Y-95346190D01*
X131197333Y-95612857D01*
X130625904Y-95879523D01*
X131425904Y-95879523D01*
X131425904Y-96603333D02*
X131006857Y-96603333D01*
X130930666Y-96565238D01*
X130892571Y-96489047D01*
X130892571Y-96336666D01*
X130930666Y-96260476D01*
X131387809Y-96603333D02*
X131425904Y-96527142D01*
X131425904Y-96336666D01*
X131387809Y-96260476D01*
X131311619Y-96222380D01*
X131235428Y-96222380D01*
X131159238Y-96260476D01*
X131121142Y-96336666D01*
X131121142Y-96527142D01*
X131083047Y-96603333D01*
X131387809Y-97327142D02*
X131425904Y-97250952D01*
X131425904Y-97098571D01*
X131387809Y-97022380D01*
X131349714Y-96984285D01*
X131273523Y-96946190D01*
X131044952Y-96946190D01*
X130968761Y-96984285D01*
X130930666Y-97022380D01*
X130892571Y-97098571D01*
X130892571Y-97250952D01*
X130930666Y-97327142D01*
X131425904Y-97670000D02*
X130892571Y-97670000D01*
X130625904Y-97670000D02*
X130664000Y-97631904D01*
X130702095Y-97670000D01*
X130664000Y-97708095D01*
X130625904Y-97670000D01*
X130702095Y-97670000D01*
X131387809Y-98355714D02*
X131425904Y-98279523D01*
X131425904Y-98127142D01*
X131387809Y-98050952D01*
X131311619Y-98012857D01*
X131006857Y-98012857D01*
X130930666Y-98050952D01*
X130892571Y-98127142D01*
X130892571Y-98279523D01*
X130930666Y-98355714D01*
X131006857Y-98393809D01*
X131083047Y-98393809D01*
X131159238Y-98012857D01*
X130892571Y-98736666D02*
X131578285Y-98736666D01*
X131654476Y-98698571D01*
X131692571Y-98622380D01*
X131692571Y-98584285D01*
X130625904Y-98736666D02*
X130664000Y-98698571D01*
X130702095Y-98736666D01*
X130664000Y-98774761D01*
X130625904Y-98736666D01*
X130702095Y-98736666D01*
X130625904Y-99650952D02*
X131425904Y-99841428D01*
X130854476Y-99993809D01*
X131425904Y-100146190D01*
X130625904Y-100336666D01*
X131425904Y-100641428D02*
X130892571Y-100641428D01*
X130625904Y-100641428D02*
X130664000Y-100603333D01*
X130702095Y-100641428D01*
X130664000Y-100679523D01*
X130625904Y-100641428D01*
X130702095Y-100641428D01*
X130892571Y-100908095D02*
X130892571Y-101212857D01*
X130625904Y-101022380D02*
X131311619Y-101022380D01*
X131387809Y-101060476D01*
X131425904Y-101136666D01*
X131425904Y-101212857D01*
X131425904Y-101479523D02*
X130625904Y-101479523D01*
X131121142Y-101555714D02*
X131425904Y-101784285D01*
X130892571Y-101784285D02*
X131197333Y-101479523D01*
X131425904Y-102241428D02*
X131387809Y-102165238D01*
X131349714Y-102127142D01*
X131273523Y-102089047D01*
X131044952Y-102089047D01*
X130968761Y-102127142D01*
X130930666Y-102165238D01*
X130892571Y-102241428D01*
X130892571Y-102355714D01*
X130930666Y-102431904D01*
X130968761Y-102470000D01*
X131044952Y-102508095D01*
X131273523Y-102508095D01*
X131349714Y-102470000D01*
X131387809Y-102431904D01*
X131425904Y-102355714D01*
X131425904Y-102241428D01*
X130892571Y-102774761D02*
X131425904Y-102927142D01*
X131044952Y-103079523D01*
X131425904Y-103231904D01*
X130892571Y-103384285D01*
X131425904Y-103689047D02*
X130892571Y-103689047D01*
X130625904Y-103689047D02*
X130664000Y-103650952D01*
X130702095Y-103689047D01*
X130664000Y-103727142D01*
X130625904Y-103689047D01*
X130702095Y-103689047D01*
X131425904Y-104412857D02*
X131006857Y-104412857D01*
X130930666Y-104374761D01*
X130892571Y-104298571D01*
X130892571Y-104146190D01*
X130930666Y-104070000D01*
X131387809Y-104412857D02*
X131425904Y-104336666D01*
X131425904Y-104146190D01*
X131387809Y-104070000D01*
X131311619Y-104031904D01*
X131235428Y-104031904D01*
X131159238Y-104070000D01*
X131121142Y-104146190D01*
X131121142Y-104336666D01*
X131083047Y-104412857D01*
X131425904Y-104793809D02*
X130625904Y-104793809D01*
X131121142Y-104870000D02*
X131425904Y-105098571D01*
X130892571Y-105098571D02*
X131197333Y-104793809D01*
X131387809Y-105479523D02*
X131425904Y-105479523D01*
X131502095Y-105441428D01*
X131540190Y-105403333D01*
X130625904Y-106317619D02*
X131425904Y-106584285D01*
X130625904Y-106850952D01*
X130702095Y-107689047D02*
X130664000Y-107727142D01*
X130625904Y-107803333D01*
X130625904Y-107993809D01*
X130664000Y-108070000D01*
X130702095Y-108108095D01*
X130778285Y-108146190D01*
X130854476Y-108146190D01*
X130968761Y-108108095D01*
X131425904Y-107650952D01*
X131425904Y-108146190D01*
X130625904Y-108641428D02*
X130625904Y-108717619D01*
X130664000Y-108793809D01*
X130702095Y-108831904D01*
X130778285Y-108870000D01*
X130930666Y-108908095D01*
X131121142Y-108908095D01*
X131273523Y-108870000D01*
X131349714Y-108831904D01*
X131387809Y-108793809D01*
X131425904Y-108717619D01*
X131425904Y-108641428D01*
X131387809Y-108565238D01*
X131349714Y-108527142D01*
X131273523Y-108489047D01*
X131121142Y-108450952D01*
X130930666Y-108450952D01*
X130778285Y-108489047D01*
X130702095Y-108527142D01*
X130664000Y-108565238D01*
X130625904Y-108641428D01*
X130702095Y-109212857D02*
X130664000Y-109250952D01*
X130625904Y-109327142D01*
X130625904Y-109517619D01*
X130664000Y-109593809D01*
X130702095Y-109631904D01*
X130778285Y-109670000D01*
X130854476Y-109670000D01*
X130968761Y-109631904D01*
X131425904Y-109174761D01*
X131425904Y-109670000D01*
X130625904Y-110393809D02*
X130625904Y-110012857D01*
X131006857Y-109974761D01*
X130968761Y-110012857D01*
X130930666Y-110089047D01*
X130930666Y-110279523D01*
X130968761Y-110355714D01*
X131006857Y-110393809D01*
X131083047Y-110431904D01*
X131273523Y-110431904D01*
X131349714Y-110393809D01*
X131387809Y-110355714D01*
X131425904Y-110279523D01*
X131425904Y-110089047D01*
X131387809Y-110012857D01*
X131349714Y-109974761D01*
X132180571Y-97765238D02*
X132409142Y-97155714D01*
X132637714Y-97765238D01*
X132180571Y-98070000D02*
X132713904Y-98260476D01*
X132180571Y-98450952D02*
X132713904Y-98260476D01*
X132904380Y-98184285D01*
X132942476Y-98146190D01*
X132980571Y-98070000D01*
X132180571Y-98641428D02*
X132180571Y-98946190D01*
X131913904Y-98755714D02*
X132599619Y-98755714D01*
X132675809Y-98793809D01*
X132713904Y-98870000D01*
X132713904Y-98946190D01*
X132713904Y-99212857D02*
X132180571Y-99212857D01*
X132256761Y-99212857D02*
X132218666Y-99250952D01*
X132180571Y-99327142D01*
X132180571Y-99441428D01*
X132218666Y-99517619D01*
X132294857Y-99555714D01*
X132713904Y-99555714D01*
X132294857Y-99555714D02*
X132218666Y-99593809D01*
X132180571Y-99670000D01*
X132180571Y-99784285D01*
X132218666Y-99860476D01*
X132294857Y-99898571D01*
X132713904Y-99898571D01*
X132332952Y-100774761D02*
X132294857Y-100736666D01*
X132256761Y-100660476D01*
X132256761Y-100584285D01*
X132294857Y-100508095D01*
X132332952Y-100470000D01*
X132409142Y-100431904D01*
X132485333Y-100431904D01*
X132561523Y-100470000D01*
X132599619Y-100508095D01*
X132637714Y-100584285D01*
X132637714Y-100660476D01*
X132599619Y-100736666D01*
X132561523Y-100774761D01*
X132256761Y-100774761D02*
X132561523Y-100774761D01*
X132599619Y-100812857D01*
X132599619Y-100850952D01*
X132561523Y-100927142D01*
X132485333Y-100965238D01*
X132294857Y-100965238D01*
X132180571Y-100889047D01*
X132104380Y-100774761D01*
X132066285Y-100622380D01*
X132104380Y-100470000D01*
X132180571Y-100355714D01*
X132294857Y-100279523D01*
X132447238Y-100241428D01*
X132599619Y-100279523D01*
X132713904Y-100355714D01*
X132790095Y-100470000D01*
X132828190Y-100622380D01*
X132790095Y-100774761D01*
X132713904Y-100889047D01*
X132675809Y-101612857D02*
X132713904Y-101536666D01*
X132713904Y-101384285D01*
X132675809Y-101308095D01*
X132599619Y-101270000D01*
X132294857Y-101270000D01*
X132218666Y-101308095D01*
X132180571Y-101384285D01*
X132180571Y-101536666D01*
X132218666Y-101612857D01*
X132294857Y-101650952D01*
X132371047Y-101650952D01*
X132447238Y-101270000D01*
X132713904Y-102108095D02*
X132675809Y-102031904D01*
X132599619Y-101993809D01*
X131913904Y-101993809D01*
X132180571Y-102336666D02*
X132713904Y-102527142D01*
X132180571Y-102717619D02*
X132713904Y-102527142D01*
X132904380Y-102450952D01*
X132942476Y-102412857D01*
X132980571Y-102336666D01*
X132675809Y-102984285D02*
X132713904Y-103060476D01*
X132713904Y-103212857D01*
X132675809Y-103289047D01*
X132599619Y-103327142D01*
X132561523Y-103327142D01*
X132485333Y-103289047D01*
X132447238Y-103212857D01*
X132447238Y-103098571D01*
X132409142Y-103022380D01*
X132332952Y-102984285D01*
X132294857Y-102984285D01*
X132218666Y-103022380D01*
X132180571Y-103098571D01*
X132180571Y-103212857D01*
X132218666Y-103289047D01*
X132713904Y-103670000D02*
X132180571Y-103670000D01*
X131913904Y-103670000D02*
X131952000Y-103631904D01*
X131990095Y-103670000D01*
X131952000Y-103708095D01*
X131913904Y-103670000D01*
X131990095Y-103670000D01*
X132180571Y-104393809D02*
X132713904Y-104393809D01*
X132180571Y-104050952D02*
X132599619Y-104050952D01*
X132675809Y-104089047D01*
X132713904Y-104165238D01*
X132713904Y-104279523D01*
X132675809Y-104355714D01*
X132637714Y-104393809D01*
X132713904Y-104774761D02*
X132180571Y-104774761D01*
X132256761Y-104774761D02*
X132218666Y-104812857D01*
X132180571Y-104889047D01*
X132180571Y-105003333D01*
X132218666Y-105079523D01*
X132294857Y-105117619D01*
X132713904Y-105117619D01*
X132294857Y-105117619D02*
X132218666Y-105155714D01*
X132180571Y-105231904D01*
X132180571Y-105346190D01*
X132218666Y-105422380D01*
X132294857Y-105460476D01*
X132713904Y-105460476D01*
X132637714Y-105841428D02*
X132675809Y-105879523D01*
X132713904Y-105841428D01*
X132675809Y-105803333D01*
X132637714Y-105841428D01*
X132713904Y-105841428D01*
X132180571Y-106222380D02*
X132980571Y-106222380D01*
X132218666Y-106222380D02*
X132180571Y-106298571D01*
X132180571Y-106450952D01*
X132218666Y-106527142D01*
X132256761Y-106565238D01*
X132332952Y-106603333D01*
X132561523Y-106603333D01*
X132637714Y-106565238D01*
X132675809Y-106527142D01*
X132713904Y-106450952D01*
X132713904Y-106298571D01*
X132675809Y-106222380D01*
X132713904Y-107060476D02*
X132675809Y-106984285D01*
X132599619Y-106946190D01*
X131913904Y-106946190D01*
X132180571Y-107365238D02*
X132409142Y-107974761D01*
X132637714Y-107365238D01*
D12*
X134856380Y-124164666D02*
X135570666Y-124164666D01*
X135713523Y-124117047D01*
X135808761Y-124021809D01*
X135856380Y-123878952D01*
X135856380Y-123783714D01*
X135856380Y-124640857D02*
X134856380Y-124640857D01*
X134856380Y-125021809D01*
X134904000Y-125117047D01*
X134951619Y-125164666D01*
X135046857Y-125212285D01*
X135189714Y-125212285D01*
X135284952Y-125164666D01*
X135332571Y-125117047D01*
X135380190Y-125021809D01*
X135380190Y-124640857D01*
X135189714Y-126069428D02*
X135856380Y-126069428D01*
X134808761Y-125831333D02*
X135523047Y-125593238D01*
X135523047Y-126212285D01*
X134056380Y-127883714D02*
X134056380Y-127312285D01*
X134056380Y-127598000D02*
X133056380Y-127598000D01*
X133199238Y-127502761D01*
X133294476Y-127407523D01*
X133342095Y-127312285D01*
X133056380Y-122064666D02*
X133056380Y-122683714D01*
X133437333Y-122350380D01*
X133437333Y-122493238D01*
X133484952Y-122588476D01*
X133532571Y-122636095D01*
X133627809Y-122683714D01*
X133865904Y-122683714D01*
X133961142Y-122636095D01*
X134008761Y-122588476D01*
X134056380Y-122493238D01*
X134056380Y-122207523D01*
X134008761Y-122112285D01*
X133961142Y-122064666D01*
X134856380Y-116006666D02*
X135570666Y-116006666D01*
X135713523Y-115959047D01*
X135808761Y-115863809D01*
X135856380Y-115720952D01*
X135856380Y-115625714D01*
X135856380Y-116482857D02*
X134856380Y-116482857D01*
X134856380Y-116863809D01*
X134904000Y-116959047D01*
X134951619Y-117006666D01*
X135046857Y-117054285D01*
X135189714Y-117054285D01*
X135284952Y-117006666D01*
X135332571Y-116959047D01*
X135380190Y-116863809D01*
X135380190Y-116482857D01*
X134951619Y-117435238D02*
X134904000Y-117482857D01*
X134856380Y-117578095D01*
X134856380Y-117816190D01*
X134904000Y-117911428D01*
X134951619Y-117959047D01*
X135046857Y-118006666D01*
X135142095Y-118006666D01*
X135284952Y-117959047D01*
X135856380Y-117387619D01*
X135856380Y-118006666D01*
X134056380Y-119725714D02*
X134056380Y-119154285D01*
X134056380Y-119440000D02*
X133056380Y-119440000D01*
X133199238Y-119344761D01*
X133294476Y-119249523D01*
X133342095Y-119154285D01*
X133056380Y-113906666D02*
X133056380Y-114525714D01*
X133437333Y-114192380D01*
X133437333Y-114335238D01*
X133484952Y-114430476D01*
X133532571Y-114478095D01*
X133627809Y-114525714D01*
X133865904Y-114525714D01*
X133961142Y-114478095D01*
X134008761Y-114430476D01*
X134056380Y-114335238D01*
X134056380Y-114049523D01*
X134008761Y-113954285D01*
X133961142Y-113906666D01*
X166796933Y-94680380D02*
X166796933Y-95394666D01*
X166844552Y-95537523D01*
X166939790Y-95632761D01*
X167082647Y-95680380D01*
X167177885Y-95680380D01*
X166320742Y-95680380D02*
X166320742Y-94680380D01*
X165939790Y-94680380D01*
X165844552Y-94728000D01*
X165796933Y-94775619D01*
X165749314Y-94870857D01*
X165749314Y-95013714D01*
X165796933Y-95108952D01*
X165844552Y-95156571D01*
X165939790Y-95204190D01*
X166320742Y-95204190D01*
X164796933Y-95680380D02*
X165368361Y-95680380D01*
X165082647Y-95680380D02*
X165082647Y-94680380D01*
X165177885Y-94823238D01*
X165273123Y-94918476D01*
X165368361Y-94966095D01*
X168277885Y-97480380D02*
X168849314Y-97480380D01*
X168563600Y-97480380D02*
X168563600Y-96480380D01*
X168658838Y-96623238D01*
X168754076Y-96718476D01*
X168849314Y-96766095D01*
X163696933Y-96480380D02*
X163077885Y-96480380D01*
X163411219Y-96861333D01*
X163268361Y-96861333D01*
X163173123Y-96908952D01*
X163125504Y-96956571D01*
X163077885Y-97051809D01*
X163077885Y-97289904D01*
X163125504Y-97385142D01*
X163173123Y-97432761D01*
X163268361Y-97480380D01*
X163554076Y-97480380D01*
X163649314Y-97432761D01*
X163696933Y-97385142D01*
X126690380Y-87463333D02*
X126214190Y-87130000D01*
X126690380Y-86891904D02*
X125690380Y-86891904D01*
X125690380Y-87272857D01*
X125738000Y-87368095D01*
X125785619Y-87415714D01*
X125880857Y-87463333D01*
X126023714Y-87463333D01*
X126118952Y-87415714D01*
X126166571Y-87368095D01*
X126214190Y-87272857D01*
X126214190Y-86891904D01*
X125690380Y-87796666D02*
X125690380Y-88415714D01*
X126071333Y-88082380D01*
X126071333Y-88225238D01*
X126118952Y-88320476D01*
X126166571Y-88368095D01*
X126261809Y-88415714D01*
X126499904Y-88415714D01*
X126595142Y-88368095D01*
X126642761Y-88320476D01*
X126690380Y-88225238D01*
X126690380Y-87939523D01*
X126642761Y-87844285D01*
X126595142Y-87796666D01*
X127976380Y-86320476D02*
X127976380Y-86939523D01*
X128357333Y-86606190D01*
X128357333Y-86749047D01*
X128404952Y-86844285D01*
X128452571Y-86891904D01*
X128547809Y-86939523D01*
X128785904Y-86939523D01*
X128881142Y-86891904D01*
X128928761Y-86844285D01*
X128976380Y-86749047D01*
X128976380Y-86463333D01*
X128928761Y-86368095D01*
X128881142Y-86320476D01*
X128976380Y-87368095D02*
X127976380Y-87368095D01*
X128976380Y-87939523D02*
X128404952Y-87510952D01*
X127976380Y-87939523D02*
X128547809Y-87368095D01*
X127976380Y-88272857D02*
X127976380Y-88891904D01*
X128357333Y-88558571D01*
X128357333Y-88701428D01*
X128404952Y-88796666D01*
X128452571Y-88844285D01*
X128547809Y-88891904D01*
X128785904Y-88891904D01*
X128881142Y-88844285D01*
X128928761Y-88796666D01*
X128976380Y-88701428D01*
X128976380Y-88415714D01*
X128928761Y-88320476D01*
X128881142Y-88272857D01*
X161526380Y-74604666D02*
X162240666Y-74604666D01*
X162383523Y-74557047D01*
X162478761Y-74461809D01*
X162526380Y-74318952D01*
X162526380Y-74223714D01*
X162526380Y-75080857D02*
X161526380Y-75080857D01*
X161526380Y-75461809D01*
X161574000Y-75557047D01*
X161621619Y-75604666D01*
X161716857Y-75652285D01*
X161859714Y-75652285D01*
X161954952Y-75604666D01*
X162002571Y-75557047D01*
X162050190Y-75461809D01*
X162050190Y-75080857D01*
X161526380Y-75985619D02*
X161526380Y-76604666D01*
X161907333Y-76271333D01*
X161907333Y-76414190D01*
X161954952Y-76509428D01*
X162002571Y-76557047D01*
X162097809Y-76604666D01*
X162335904Y-76604666D01*
X162431142Y-76557047D01*
X162478761Y-76509428D01*
X162526380Y-76414190D01*
X162526380Y-76128476D01*
X162478761Y-76033238D01*
X162431142Y-75985619D01*
X158731142Y-72080857D02*
X158778761Y-72033238D01*
X158826380Y-71890380D01*
X158826380Y-71795142D01*
X158778761Y-71652285D01*
X158683523Y-71557047D01*
X158588285Y-71509428D01*
X158397809Y-71461809D01*
X158254952Y-71461809D01*
X158064476Y-71509428D01*
X157969238Y-71557047D01*
X157874000Y-71652285D01*
X157826380Y-71795142D01*
X157826380Y-71890380D01*
X157874000Y-72033238D01*
X157921619Y-72080857D01*
X158731142Y-72509428D02*
X158778761Y-72557047D01*
X158826380Y-72509428D01*
X158778761Y-72461809D01*
X158731142Y-72509428D01*
X158826380Y-72509428D01*
X158207333Y-72509428D02*
X158254952Y-72557047D01*
X158302571Y-72509428D01*
X158254952Y-72461809D01*
X158207333Y-72509428D01*
X158302571Y-72509428D01*
X158826380Y-72985619D02*
X157826380Y-72985619D01*
X158302571Y-72985619D02*
X158302571Y-73557047D01*
X158826380Y-73557047D02*
X157826380Y-73557047D01*
X157826380Y-73938000D02*
X158826380Y-74176095D01*
X158112095Y-74366571D01*
X158826380Y-74557047D01*
X157826380Y-74795142D01*
X157778761Y-75890380D02*
X159064476Y-75033238D01*
X157826380Y-76414190D02*
X157826380Y-76604666D01*
X157874000Y-76699904D01*
X157969238Y-76795142D01*
X158159714Y-76842761D01*
X158493047Y-76842761D01*
X158683523Y-76795142D01*
X158778761Y-76699904D01*
X158826380Y-76604666D01*
X158826380Y-76414190D01*
X158778761Y-76318952D01*
X158683523Y-76223714D01*
X158493047Y-76176095D01*
X158159714Y-76176095D01*
X157969238Y-76223714D01*
X157874000Y-76318952D01*
X157826380Y-76414190D01*
X158731142Y-77271333D02*
X158778761Y-77318952D01*
X158826380Y-77271333D01*
X158778761Y-77223714D01*
X158731142Y-77271333D01*
X158826380Y-77271333D01*
X158207333Y-77271333D02*
X158254952Y-77318952D01*
X158302571Y-77271333D01*
X158254952Y-77223714D01*
X158207333Y-77271333D01*
X158302571Y-77271333D01*
X158778761Y-77699904D02*
X158826380Y-77842761D01*
X158826380Y-78080857D01*
X158778761Y-78176095D01*
X158731142Y-78223714D01*
X158635904Y-78271333D01*
X158540666Y-78271333D01*
X158445428Y-78223714D01*
X158397809Y-78176095D01*
X158350190Y-78080857D01*
X158302571Y-77890380D01*
X158254952Y-77795142D01*
X158207333Y-77747523D01*
X158112095Y-77699904D01*
X158016857Y-77699904D01*
X157921619Y-77747523D01*
X157874000Y-77795142D01*
X157826380Y-77890380D01*
X157826380Y-78128476D01*
X157874000Y-78271333D01*
X157826380Y-78604666D02*
X158826380Y-78842761D01*
X158112095Y-79033238D01*
X158826380Y-79223714D01*
X157826380Y-79461809D01*
X131262380Y-87463333D02*
X130786190Y-87130000D01*
X131262380Y-86891904D02*
X130262380Y-86891904D01*
X130262380Y-87272857D01*
X130310000Y-87368095D01*
X130357619Y-87415714D01*
X130452857Y-87463333D01*
X130595714Y-87463333D01*
X130690952Y-87415714D01*
X130738571Y-87368095D01*
X130786190Y-87272857D01*
X130786190Y-86891904D01*
X130357619Y-87844285D02*
X130310000Y-87891904D01*
X130262380Y-87987142D01*
X130262380Y-88225238D01*
X130310000Y-88320476D01*
X130357619Y-88368095D01*
X130452857Y-88415714D01*
X130548095Y-88415714D01*
X130690952Y-88368095D01*
X131262380Y-87796666D01*
X131262380Y-88415714D01*
X132548380Y-86320476D02*
X132548380Y-86939523D01*
X132929333Y-86606190D01*
X132929333Y-86749047D01*
X132976952Y-86844285D01*
X133024571Y-86891904D01*
X133119809Y-86939523D01*
X133357904Y-86939523D01*
X133453142Y-86891904D01*
X133500761Y-86844285D01*
X133548380Y-86749047D01*
X133548380Y-86463333D01*
X133500761Y-86368095D01*
X133453142Y-86320476D01*
X133548380Y-87368095D02*
X132548380Y-87368095D01*
X133548380Y-87939523D02*
X132976952Y-87510952D01*
X132548380Y-87939523D02*
X133119809Y-87368095D01*
X132548380Y-88272857D02*
X132548380Y-88891904D01*
X132929333Y-88558571D01*
X132929333Y-88701428D01*
X132976952Y-88796666D01*
X133024571Y-88844285D01*
X133119809Y-88891904D01*
X133357904Y-88891904D01*
X133453142Y-88844285D01*
X133500761Y-88796666D01*
X133548380Y-88701428D01*
X133548380Y-88415714D01*
X133500761Y-88320476D01*
X133453142Y-88272857D01*
D13*
X134604000Y-127048000D02*
X134604000Y-122948000D01*
X132604000Y-127048000D02*
X134604000Y-127048000D01*
X132604000Y-122948000D02*
X132604000Y-127048000D01*
X134604000Y-122948000D02*
X132604000Y-122948000D01*
X132604000Y-114790000D02*
X132604000Y-118890000D01*
X134604000Y-114790000D02*
X132604000Y-114790000D01*
X132604000Y-118890000D02*
X134604000Y-118890000D01*
X134604000Y-118890000D02*
X134604000Y-114790000D01*
X168013600Y-98028000D02*
X168013600Y-96028000D01*
X163913600Y-98028000D02*
X168013600Y-98028000D01*
X163913600Y-96028000D02*
X163913600Y-98028000D01*
X168013600Y-96028000D02*
X163913600Y-96028000D01*
X129894000Y-90900000D02*
X127154000Y-90900000D01*
X128524000Y-91670000D02*
X128524000Y-90900000D01*
X128524000Y-83590000D02*
X128524000Y-84360000D01*
X129894000Y-84360000D02*
X129894000Y-90900000D01*
X127154000Y-90900000D02*
X127154000Y-84360000D01*
X127154000Y-84360000D02*
X129894000Y-84360000D01*
X161274000Y-76838000D02*
X161274000Y-74038000D01*
X159274000Y-74038000D02*
X159274000Y-76838000D01*
X159274000Y-76838000D02*
X161274000Y-76838000D01*
X161274000Y-74038000D02*
X159274000Y-74038000D01*
X131726000Y-84360000D02*
X134466000Y-84360000D01*
X131726000Y-90900000D02*
X131726000Y-84360000D01*
X133096000Y-83590000D02*
X133096000Y-84360000D01*
X134466000Y-84360000D02*
X134466000Y-90900000D01*
X133096000Y-91670000D02*
X133096000Y-90900000D01*
X134466000Y-90900000D02*
X131726000Y-90900000D01*
%LPC*%
D14*
X133604000Y-126298000D03*
X133604000Y-124998000D03*
X133604000Y-123698000D03*
D15*
X127762000Y-75184000D03*
X122762000Y-75184000D03*
D16*
X147066000Y-55626000D03*
D17*
X149606000Y-55626000D03*
X147066000Y-58166000D03*
X149606000Y-58166000D03*
X147066000Y-60706000D03*
X149606000Y-60706000D03*
X147066000Y-63246000D03*
X149606000Y-63246000D03*
X147066000Y-65786000D03*
X149606000Y-65786000D03*
D18*
X127976000Y-53294000D03*
X125476000Y-53594000D03*
X132976000Y-53294000D03*
X135476000Y-53594000D03*
D19*
X122976000Y-63294000D03*
X125476000Y-65794000D03*
X130476000Y-63294000D03*
X135476000Y-65794000D03*
X137976000Y-63294000D03*
X130476000Y-68294000D03*
D20*
X158375000Y-93965000D03*
D21*
X158375000Y-96505000D03*
X158375000Y-99045000D03*
X158375000Y-101585000D03*
X158375000Y-104125000D03*
X158375000Y-106665000D03*
X158375000Y-109205000D03*
X158375000Y-111745000D03*
X158375000Y-114285000D03*
X158375000Y-116825000D03*
X158375000Y-119365000D03*
X158375000Y-121905000D03*
X158375000Y-124445000D03*
X158375000Y-126985000D03*
X173615000Y-126985000D03*
X173615000Y-124445000D03*
X173615000Y-121905000D03*
X173615000Y-119365000D03*
X173615000Y-116825000D03*
X173615000Y-114285000D03*
X173615000Y-111745000D03*
X173615000Y-109205000D03*
X173615000Y-106665000D03*
X173615000Y-104125000D03*
X173615000Y-101585000D03*
X173615000Y-99045000D03*
X173615000Y-96505000D03*
X173615000Y-93965000D03*
D15*
X155194000Y-98512000D03*
X155194000Y-93512000D03*
X147574000Y-85304000D03*
X147574000Y-80304000D03*
D20*
X165872000Y-79238000D03*
D21*
X168412000Y-79238000D03*
X170952000Y-79238000D03*
X173492000Y-79238000D03*
X173492000Y-71618000D03*
X170952000Y-71618000D03*
X168412000Y-71618000D03*
X165872000Y-71618000D03*
D20*
X155692000Y-90160000D03*
D21*
X158232000Y-90160000D03*
X160772000Y-90160000D03*
X163312000Y-90160000D03*
X165852000Y-90160000D03*
X168392000Y-90160000D03*
X170932000Y-90160000D03*
X173472000Y-90160000D03*
X173472000Y-82540000D03*
X170932000Y-82540000D03*
X168392000Y-82540000D03*
X165852000Y-82540000D03*
X163312000Y-82540000D03*
X160772000Y-82540000D03*
X158232000Y-82540000D03*
X155692000Y-82540000D03*
D22*
X148253100Y-94259600D03*
D23*
X124253100Y-137759600D03*
X168253100Y-137759600D03*
X126253100Y-137759600D03*
X170253100Y-137759600D03*
X128253100Y-137759600D03*
X172253100Y-137759600D03*
X130253100Y-137759600D03*
X132253100Y-137759600D03*
X134253100Y-137759600D03*
X136253100Y-137759600D03*
X138253100Y-137759600D03*
X140253100Y-137759600D03*
X142253100Y-137759600D03*
X144253100Y-137759600D03*
X146253100Y-137759600D03*
X148253100Y-137759600D03*
X150253100Y-137759600D03*
X152253100Y-137759600D03*
X154253100Y-137759600D03*
X156253100Y-137759600D03*
X158253100Y-137759600D03*
X160253100Y-137759600D03*
X162253100Y-137759600D03*
X164253100Y-137759600D03*
X166253100Y-137759600D03*
D16*
X153411000Y-72385000D03*
D17*
X153411000Y-74925000D03*
X150871000Y-72385000D03*
X150871000Y-74925000D03*
X148331000Y-72385000D03*
X148331000Y-74925000D03*
X145791000Y-72385000D03*
X145791000Y-74925000D03*
X143251000Y-72385000D03*
X143251000Y-74925000D03*
D20*
X152146000Y-129032000D03*
D21*
X152146000Y-126492000D03*
X152146000Y-123952000D03*
X152146000Y-121412000D03*
X152146000Y-118872000D03*
X152146000Y-116332000D03*
X152146000Y-113792000D03*
X152146000Y-111252000D03*
X152146000Y-108712000D03*
X152146000Y-106172000D03*
X152146000Y-103632000D03*
X152146000Y-101092000D03*
X144526000Y-101092000D03*
X144526000Y-103632000D03*
X144526000Y-106172000D03*
X144526000Y-108712000D03*
X144526000Y-111252000D03*
X144526000Y-113792000D03*
X144526000Y-116332000D03*
X144526000Y-118872000D03*
X144526000Y-121412000D03*
X144526000Y-123952000D03*
X144526000Y-126492000D03*
X144526000Y-129032000D03*
D15*
X152146000Y-85344000D03*
X152146000Y-80344000D03*
D20*
X123000000Y-78740000D03*
D21*
X123000000Y-81280000D03*
X123000000Y-83820000D03*
X123000000Y-86360000D03*
X123000000Y-88900000D03*
X123000000Y-91440000D03*
X123000000Y-93980000D03*
X123000000Y-96520000D03*
X123000000Y-99060000D03*
X123000000Y-101600000D03*
X123000000Y-104140000D03*
X123000000Y-106680000D03*
X123000000Y-109220000D03*
X123000000Y-111760000D03*
X123000000Y-114300000D03*
X123000000Y-116840000D03*
X123000000Y-119380000D03*
X123000000Y-121920000D03*
X123000000Y-124460000D03*
X123000000Y-127000000D03*
X138240000Y-127000000D03*
X138240000Y-124460000D03*
X138240000Y-121920000D03*
X138240000Y-119380000D03*
X138240000Y-116840000D03*
X138240000Y-114300000D03*
X138240000Y-111760000D03*
X138240000Y-109220000D03*
X138240000Y-106680000D03*
X138240000Y-104140000D03*
X138240000Y-101600000D03*
X138240000Y-99060000D03*
X138240000Y-96520000D03*
X138240000Y-93980000D03*
X138240000Y-91440000D03*
X138240000Y-88900000D03*
X138240000Y-86360000D03*
X138240000Y-83820000D03*
X138240000Y-81280000D03*
X138240000Y-78740000D03*
D15*
X142240000Y-90424000D03*
D21*
X142240000Y-80264000D03*
D18*
X163282000Y-53294000D03*
X160782000Y-53594000D03*
X170782000Y-53594000D03*
X168282000Y-53294000D03*
D19*
X158282000Y-63294000D03*
X160782000Y-65794000D03*
X165782000Y-63294000D03*
X170782000Y-65794000D03*
X173282000Y-63294000D03*
X165782000Y-68294000D03*
D14*
X133604000Y-118140000D03*
X133604000Y-116840000D03*
X133604000Y-115540000D03*
D24*
X167263600Y-97028000D03*
X165963600Y-97028000D03*
X164663600Y-97028000D03*
D15*
X128524000Y-92710000D03*
D21*
X128524000Y-82550000D03*
D14*
X160274000Y-76088000D03*
X160274000Y-74788000D03*
D15*
X133096000Y-92710000D03*
D21*
X133096000Y-82550000D03*
M02*
